<svg width="461" height="448" viewBox="0 0 461 448" fill="none" xmlns="http://www.w3.org/2000/svg">
<rect width="460.242" height="447.442" fill="white"/>
<path d="M311.127 152.22L311.402 154.327L325.098 148.233L323.743 137.875H248.619L260.358 152.296L311.127 152.22Z" fill="black"/>
<path d="M197.501 68.6797H167.426L160.152 119.616H202.844L197.501 68.6797ZM183.856 108.129L184.032 91.6522L181.072 92.8811L177.936 108.129H173.396L177.385 80.191H187.142L190.077 108.129H183.856Z" fill="url(#paint0_linear)"/>
<path d="M209.341 123.375H153.857V134.059H209.341V123.375Z" fill="url(#paint1_linear)"/>
<path d="M239.49 74.4439L238.161 66.4688L204.424 76.2496L206.255 80.1118L239.49 74.4439Z" fill="url(#paint2_linear)"/>
<path d="M157.845 74.5723L126.391 64.0391L124.961 73.8199L156.415 78.0834L157.845 74.5723Z" fill="url(#paint3_linear)"/>
<path d="M237.307 103.216L207.684 99.6797L206.605 103.717L234.222 112.972L237.307 103.216Z" fill="url(#paint4_linear)"/>
<path d="M131.281 113.869L157.844 103.06L155.512 98.9219L128.572 104.439L131.281 113.869Z" fill="url(#paint5_linear)"/>
<path d="M207.686 89.0191V91.8279L224.24 93.9346V86.9375L207.686 89.0191Z" fill="url(#paint6_linear)"/>
<path d="M155.337 88.1368L137.729 86.8828L138.481 93.8548L155.788 92.3501L155.337 88.1368Z" fill="url(#paint7_linear)"/>
<path d="M341.553 278.49L332.799 207.541L329.99 219.052C328.585 225.146 325.801 230.438 321.863 234.827L327.331 276.96H310.25L303.377 235.278C310.3 232.52 317.599 227.178 320.032 216.67L335.032 155.025L326.478 158.837L317.072 163.025L297.156 171.928L294.899 170.624C289.531 167.514 283.235 165.006 276.688 163.326C270.016 161.671 263.645 161.044 257.224 161.47L254.565 161.646L246.99 152.216L246.112 151.138L228.629 129.344L224.264 147.225L223.035 152.216L213.604 190.863C210.619 203.503 216.99 212.657 222.86 218.099C228.478 223.315 235.928 227.654 245.058 231.115L236.354 248.997C230.886 249.498 225.418 252.081 221.079 254.489L216.137 248.896L201.84 262.389L208.487 266.176C206.28 269.637 204.925 273.348 204.599 276.985H132.309L150.821 152.216H212.525L216.037 137.846H138.429L116.883 278.49H86.457L89.9938 341.188H143.672V380.637C143.672 382.142 144.901 383.396 146.431 383.396H168.228C169.758 383.396 170.987 382.167 170.987 380.637V341.188H281.178L274.23 368.098C273.829 369.703 274.782 371.333 276.387 371.734L279.548 372.537L297.031 377.051C298.636 377.452 300.266 376.499 300.668 374.894L304.706 359.245L309.372 341.163H368.643L373.785 278.465H341.553V278.49ZM303.226 188.756C308.644 192.242 311.504 199.239 309.221 205.76C306.939 212.281 300.317 215.967 293.745 214.964C296.705 213.384 299.915 208.77 301.972 202.951C304.004 197.133 304.305 191.741 303.226 188.756ZM281.906 196.406C284.188 189.885 290.81 186.198 297.382 187.201C294.673 188.857 291.437 193.471 289.481 199.064C287.273 204.556 286.972 209.948 288.201 213.259C282.457 209.948 279.598 202.926 281.906 196.406ZM258.628 208.544L272.123 211.854C273.528 211.93 274.18 213.158 273.101 213.66L262.541 217.949L256.471 209.572C255.744 208.619 256.822 208.118 258.628 208.544ZM236.405 184.041C235.175 190.086 235.602 195.453 237.007 198.512C230.911 195.753 227.124 189.183 228.528 182.411C229.908 175.64 235.978 171.101 242.625 171.201C240.167 173.232 237.583 178.248 236.405 184.041ZM242.726 199.44C245.434 197.484 247.767 192.418 248.996 186.374C250.15 180.806 250 175.239 248.294 172.38C254.439 174.888 258.202 181.458 256.822 188.23C255.418 195.001 249.347 199.566 242.726 199.44ZM213.83 269.21L215.937 270.414L218.721 266.527L216.689 264.546L214.03 261.937L214.858 261.085L217.442 263.593L219.423 265.549L221.38 262.765L219.699 261.135L216.865 258.351L217.718 257.498L220.577 260.257L222.082 261.762L224.54 258.301L223.888 257.574C240.292 246.89 259.757 254.539 265.3 260.006L275.986 252.006L284.389 267.982L274.105 255.342L264.673 262.088L266.429 265.975L269.188 264.195L271.571 262.64L272.223 263.643L269.916 265.148L266.931 267.104L268.335 270.214L271.772 267.956L273.653 266.728L274.305 267.731L272.324 269.01L268.787 271.317L270.743 275.656L274.406 274.427C274.581 275.305 274.707 276.182 274.707 276.96H262.541C259.958 267.806 252.357 262.865 242.7 262.865C233.043 262.865 225.844 267.806 223.236 276.96H211.572C211.823 274.352 212.601 271.743 213.83 269.21ZM355.073 328.498H102.285L100.629 294.34L357.983 289.775L355.073 328.498Z" fill="black"/>
<path d="M136.699 309.868L128.697 309.919C127.644 306.006 122.376 306.533 122.376 311.423C122.401 316.364 127.744 316.74 128.722 312.727L136.673 312.677C135.394 327.524 114.224 327.173 114.174 311.448C114.224 295.674 135.319 294.971 136.699 309.868Z" fill="black"/>
<path d="M152.877 320.301H145.979L145.051 323.035H136.322V322.132L144.7 299.21L154.307 299.109L162.71 322.107V323.01H153.855L152.877 320.301ZM148.162 314.207H150.745L149.441 308.288L148.162 314.207Z" fill="black"/>
<path d="M166.472 323.035L166.523 306.708L161.832 306.733L161.857 299.31L179.967 299.109L179.942 306.608L175.201 306.633L175.126 323.035H166.472Z" fill="black"/>
<path d="M196.096 298.906C199.482 298.881 202.141 301.891 202.041 305.477C201.991 307.408 201.012 309.214 199.231 309.891C201.915 310.97 203.345 312.825 203.169 316.01C202.994 320.149 199.909 323.008 195.92 323.008H181.773L181.874 299.057L196.096 298.906ZM190.578 307.91H192.233C193.763 307.91 193.864 305.377 192.258 305.402L190.603 305.427L190.578 307.91ZM190.527 316.437H192.71C193.838 316.437 194.34 315.684 194.34 314.907C194.34 314.155 193.889 313.402 192.735 313.402H190.553L190.527 316.437Z" fill="black"/>
<path d="M215.484 315.765C216.337 315.765 217.09 315.264 217.14 314.235L217.24 298.686L226.295 298.586L226.17 314.21C226.094 320.555 220.827 323.465 215.459 323.49C210.116 323.49 204.924 320.58 204.949 314.311L205.05 298.812L214.029 298.711L213.929 314.235C213.904 315.213 214.682 315.765 215.484 315.765Z" fill="black"/>
<path d="M241.345 306.054C241.32 305.277 240.417 304.901 239.514 304.901C238.711 304.901 237.658 305.277 237.658 306.28C237.658 307.133 238.285 307.509 239.088 307.559C244.029 307.935 250.651 308.512 250.601 315.208C250.551 321.729 244.481 323.66 239.188 323.66C233.318 323.66 228.227 320.826 228.227 314.657L237.307 314.631C237.307 315.81 238.335 316.136 239.364 316.136C240.367 316.136 241.245 315.86 241.245 314.932C241.245 314.13 240.693 313.754 239.012 313.578C233.895 313.152 228.352 312.274 228.402 305.779C228.452 300.788 233.569 297.778 239.389 297.728C245.484 297.653 250.199 300.336 250.3 306.004L241.345 306.054Z" fill="black"/>
<path d="M257.124 323.01L257.299 306.031L252.232 306.081L252.308 298.357L271.873 298.156L271.797 305.956L266.655 306.006L266.48 323.06L257.124 323.01Z" fill="black"/>
<path d="M273.354 298.083C279.85 298.008 286.372 297.933 292.919 297.883L292.818 305.281L282.71 305.356L282.685 307.037L292.417 306.961L292.342 313.959L282.609 314.009L282.584 315.639L292.693 315.614L292.593 322.987C286.046 322.987 279.524 322.987 273.053 322.987L273.354 298.083Z" fill="black"/>
<path d="M304.606 316.285L304.53 322.982C301.295 322.982 298.084 322.982 294.898 322.982L295.199 297.852C299.213 297.802 301.872 297.777 305.885 297.727C312.08 297.702 318.125 299.382 318.025 306.956C317.975 310.643 316.47 312.975 314.238 314.354L318.226 322.154V322.956H308.393L305.308 316.26L304.606 316.285ZM305.935 308.712C307.54 308.661 308.293 308.26 308.293 307.031C308.318 305.827 307.565 305.301 305.96 305.326H304.606L304.555 308.712H305.935Z" fill="black"/>
<path d="M334.228 305.354C334.203 304.552 333.225 304.15 332.247 304.175C331.369 304.175 330.24 304.552 330.24 305.605C330.215 306.483 330.917 306.884 331.77 306.934C337.113 307.335 344.261 307.912 344.161 314.859C344.061 321.63 337.489 323.637 331.77 323.637C325.449 323.637 319.931 320.703 319.981 314.282L329.788 314.232C329.763 315.461 330.892 315.787 332.021 315.787C333.099 315.787 334.053 315.486 334.078 314.533C334.078 313.705 333.476 313.304 331.67 313.129C326.126 312.677 320.156 311.774 320.257 305.003C320.332 299.812 325.9 296.702 332.171 296.626C338.768 296.551 343.86 299.31 343.91 305.229L334.228 305.354Z" fill="black"/>
<defs>
<linearGradient id="paint0_linear" x1="181.498" y1="68.6797" x2="181.498" y2="119.616" gradientUnits="userSpaceOnUse">
<stop stop-color="#FF0002"/>
<stop offset="1" stop-color="#C72267"/>
</linearGradient>
<linearGradient id="paint1_linear" x1="181.599" y1="123.375" x2="181.599" y2="134.059" gradientUnits="userSpaceOnUse">
<stop stop-color="#FF0002"/>
<stop offset="1" stop-color="#C72267"/>
</linearGradient>
<linearGradient id="paint2_linear" x1="221.957" y1="66.4688" x2="221.957" y2="80.1118" gradientUnits="userSpaceOnUse">
<stop stop-color="#FF0002"/>
<stop offset="1" stop-color="#C72267"/>
</linearGradient>
<linearGradient id="paint3_linear" x1="141.403" y1="64.0391" x2="141.403" y2="78.0834" gradientUnits="userSpaceOnUse">
<stop stop-color="#FF0002"/>
<stop offset="1" stop-color="#C72267"/>
</linearGradient>
<linearGradient id="paint4_linear" x1="221.956" y1="99.6797" x2="221.956" y2="112.972" gradientUnits="userSpaceOnUse">
<stop stop-color="#FF0002"/>
<stop offset="1" stop-color="#C72267"/>
</linearGradient>
<linearGradient id="paint5_linear" x1="143.208" y1="98.9219" x2="143.208" y2="113.869" gradientUnits="userSpaceOnUse">
<stop stop-color="#FF0002"/>
<stop offset="1" stop-color="#C72267"/>
</linearGradient>
<linearGradient id="paint6_linear" x1="215.963" y1="86.9375" x2="215.963" y2="93.9346" gradientUnits="userSpaceOnUse">
<stop stop-color="#FF0002"/>
<stop offset="1" stop-color="#C72267"/>
</linearGradient>
<linearGradient id="paint7_linear" x1="146.758" y1="86.8828" x2="146.758" y2="93.8548" gradientUnits="userSpaceOnUse">
<stop stop-color="#FF0002"/>
<stop offset="1" stop-color="#C72267"/>
</linearGradient>
</defs>
</svg>
