<svg width="1440" height="249" viewBox="0 0 1440 249" fill="none" xmlns="http://www.w3.org/2000/svg">
<g clip-path="url(#clip0_4215_185911)">
<rect width="1440" height="249" fill="#F0F2F5"/>
<g clip-path="url(#clip1_4215_185911)">
<rect width="1440" height="50" fill="#1B1A27"/>
<g clip-path="url(#clip2_4215_185911)">
<path d="M60.3047 15.8857H68.3566C71.5299 15.8857 73.6838 17.6504 73.6838 20.2161C73.6838 22.2164 72.3579 23.7934 70.4394 24.1229C72.3579 24.4287 73.6838 26.029 73.6838 28.0295C73.6838 30.5948 71.5289 32.3597 68.3566 32.3597H60.3047V15.8857ZM67.8594 22.7108C69.1143 22.7108 69.9669 21.887 69.9669 20.7337C69.9669 19.5571 69.1143 18.7335 67.8594 18.7335H64.0465V22.7108H67.8594ZM67.8594 29.465C69.0907 29.465 69.9433 28.6414 69.9433 27.4883C69.9433 26.3116 69.0907 25.4878 67.8594 25.4878H64.0465V29.465H67.8594Z" fill="white"/>
<path d="M75.4414 25.299C75.4414 19.886 80.012 15.4375 85.6956 15.4375C90.4797 15.4375 93.6527 18.4271 93.6527 22.9449C93.6527 28.3343 89.0585 32.8065 83.3985 32.8065C78.6386 32.8062 75.4414 29.7938 75.4414 25.299ZM83.3985 29.3703C86.8798 29.3703 89.8162 26.3344 89.8162 23.0161C89.8162 20.5684 88.1821 18.8739 85.6956 18.8739C82.2379 18.8739 79.2779 21.8863 79.2779 25.2282C79.2779 27.6282 80.912 29.3703 83.3985 29.3703Z" fill="white"/>
<path d="M95.6875 15.8857H99.4765L106.628 26.3821L106.486 15.8857H110.228V32.3597H106.439L99.2871 21.8635L99.4291 32.3597H95.6875V15.8857Z" fill="white"/>
<path d="M112.5 15.8857H119.083C124.293 15.8857 127.774 19.1805 127.774 24.1229C127.774 29.0653 124.293 32.3597 119.083 32.3597H112.5V15.8857ZM118.965 29.3475C121.925 29.3475 123.915 27.2529 123.915 24.1229C123.915 20.993 121.925 18.8982 118.965 18.8982H116.312V29.3475H118.965Z" fill="white"/>
<path d="M135.688 15.8857H146.818V18.8982H139.524V22.8756H146.344V25.8172H139.524V32.3597H135.688V15.8857Z" fill="white"/>
<path d="M148.546 23.3222L151.837 14.3086L155.437 15.603L152.193 24.5224C151.269 27.0405 152.808 29.3234 155.366 29.3234C156.858 29.3234 158.019 28.4762 158.634 26.829L162.532 15.8854L165.59 18.7195L162.21 28.2644C161.121 31.2063 158.634 32.8302 155.483 32.8302C150.156 32.8302 146.793 28.1232 148.546 23.3222Z" fill="white"/>
<path d="M164.769 29.7459L172.655 18.8967H162.582V15.8843H177.202V18.4495L169.316 29.346H177.793V32.3582H164.769V29.7459Z" fill="white"/>
<path d="M179.641 29.7459L187.527 18.8967H179.285V15.8843H192.073V18.4495L184.187 29.346H192.665V32.3582H179.641V29.7459Z" fill="white"/>
<path d="M23.6006 15.94C22.8885 15.94 22.1923 15.7302 21.6002 15.337C21.0081 14.9438 20.5466 14.385 20.2741 13.7312C20.0016 13.0773 19.9303 12.3579 20.0692 11.6638C20.2081 10.9697 20.551 10.3321 21.0546 9.83172C21.5581 9.3313 22.1997 8.99051 22.8981 8.85245C23.5966 8.71438 24.3206 8.78524 24.9785 9.05607C25.6364 9.32689 26.1988 9.78552 26.5944 10.3739C26.99 10.9624 27.2012 11.6542 27.2012 12.3619C27.2001 13.3105 26.8205 14.2201 26.1454 14.8909C25.4704 15.5617 24.5552 15.939 23.6006 15.94V15.94Z" fill="#B37FEB"/>
<path d="M23.5982 15.3517C25.2596 15.3517 26.6065 14.0133 26.6065 12.3621C26.6065 10.711 25.2596 9.37256 23.5982 9.37256C21.9367 9.37256 20.5898 10.711 20.5898 12.3621C20.5898 14.0133 21.9367 15.3517 23.5982 15.3517Z" fill="#B37FEB"/>
<path d="M29.6177 21.3308C31.2792 21.3308 32.6261 19.9923 32.6261 18.3412C32.6261 16.6901 31.2792 15.3516 29.6177 15.3516C27.9563 15.3516 26.6094 16.6901 26.6094 18.3412C26.6094 19.9923 27.9563 21.3308 29.6177 21.3308Z" fill="#B37FEB"/>
<path d="M35.6333 27.3098C37.2948 27.3098 38.6417 25.9713 38.6417 24.3202C38.6417 22.6691 37.2948 21.3306 35.6333 21.3306C33.9719 21.3306 32.625 22.6691 32.625 24.3202C32.625 25.9713 33.9719 27.3098 35.6333 27.3098Z" fill="#B37FEB"/>
<path d="M35.6318 39.8565C34.9197 39.8565 34.2236 39.6467 33.6315 39.2535C33.0394 38.8603 32.5779 38.3015 32.3053 37.6477C32.0328 36.9939 31.9615 36.2744 32.1004 35.5803C32.2394 34.8862 32.5823 34.2486 33.0859 33.7482C33.5894 33.2478 34.231 32.907 34.9294 32.769C35.6279 32.6309 36.3518 32.7017 37.0097 32.9726C37.6677 33.2434 38.23 33.702 38.6256 34.2905C39.0213 34.8789 39.2324 35.5707 39.2324 36.2784C39.2314 37.227 38.8517 38.1366 38.1767 38.8074C37.5017 39.4782 36.5865 39.8555 35.6318 39.8565V39.8565Z" fill="#B37FEB"/>
<path d="M35.6333 39.2682C37.2948 39.2682 38.6417 37.9298 38.6417 36.2786C38.6417 34.6275 37.2948 33.2891 35.6333 33.2891C33.9719 33.2891 32.625 34.6275 32.625 36.2786C32.625 37.9298 33.9719 39.2682 35.6333 39.2682Z" fill="#B37FEB"/>
<path d="M47.6685 27.3098C49.3299 27.3098 50.6768 25.9713 50.6768 24.3202C50.6768 22.6691 49.3299 21.3306 47.6685 21.3306C46.007 21.3306 44.6602 22.6691 44.6602 24.3202C44.6602 25.9713 46.007 27.3098 47.6685 27.3098Z" fill="#B37FEB"/>
<path d="M23.5982 27.3098C25.2596 27.3098 26.6065 25.9713 26.6065 24.3202C26.6065 22.6691 25.2596 21.3306 23.5982 21.3306C21.9367 21.3306 20.5898 22.6691 20.5898 24.3202C20.5898 25.9713 21.9367 27.3098 23.5982 27.3098Z" fill="#B37FEB"/>
<path d="M35.6318 15.94C34.9197 15.94 34.2236 15.7302 33.6315 15.337C33.0394 14.9438 32.5779 14.385 32.3053 13.7312C32.0328 13.0773 31.9615 12.3579 32.1004 11.6638C32.2394 10.9697 32.5823 10.3321 33.0859 9.83172C33.5894 9.3313 34.231 8.99051 34.9294 8.85245C35.6279 8.71438 36.3518 8.78524 37.0097 9.05607C37.6677 9.32689 38.23 9.78552 38.6256 10.3739C39.0213 10.9624 39.2324 11.6542 39.2324 12.3619C39.2314 13.3105 38.8517 14.2201 38.1767 14.8909C37.5017 15.5617 36.5865 15.939 35.6318 15.94V15.94Z" fill="#B37FEB"/>
<path d="M35.6333 15.3517C37.2948 15.3517 38.6417 14.0133 38.6417 12.3621C38.6417 10.711 37.2948 9.37256 35.6333 9.37256C33.9719 9.37256 32.625 10.711 32.625 12.3621C32.625 14.0133 33.9719 15.3517 35.6333 15.3517Z" fill="#B37FEB"/>
<path d="M41.6489 33.2893C43.3104 33.2893 44.6573 31.9508 44.6573 30.2997C44.6573 28.6485 43.3104 27.3101 41.6489 27.3101C39.9875 27.3101 38.6406 28.6485 38.6406 30.2997C38.6406 31.9508 39.9875 33.2893 41.6489 33.2893Z" fill="#B37FEB"/>
<path d="M47.6672 39.7633C46.9551 39.7633 46.2589 39.5535 45.6668 39.1604C45.0746 38.7672 44.6131 38.2084 44.3406 37.5546C44.068 36.9007 43.9967 36.1813 44.1356 35.4872C44.2745 34.7931 44.6174 34.1555 45.1209 33.655C45.6245 33.1546 46.2661 32.8138 46.9645 32.6757C47.663 32.5376 48.3869 32.6085 49.0449 32.8793C49.7028 33.1501 50.2651 33.6087 50.6608 34.1972C51.0564 34.7856 51.2676 35.4774 51.2676 36.1851C51.2665 37.1337 50.8868 38.0432 50.2119 38.714C49.5369 39.3848 48.6218 39.7621 47.6672 39.7633Z" fill="#B37FEB"/>
<path d="M47.6685 39.1745C49.3299 39.1745 50.6768 37.836 50.6768 36.1849C50.6768 34.5338 49.3299 33.1953 47.6685 33.1953C46.007 33.1953 44.6602 34.5338 44.6602 36.1849C44.6602 37.836 46.007 39.1745 47.6685 39.1745Z" fill="#B37FEB"/>
<path d="M47.6672 15.94C46.9551 15.9401 46.2589 15.7303 45.6668 15.3371C45.0746 14.944 44.6131 14.3851 44.3406 13.7313C44.068 13.0775 43.9967 12.358 44.1356 11.6639C44.2745 10.9698 44.6174 10.3322 45.1209 9.83178C45.6245 9.33135 46.2661 8.99054 46.9645 8.85246C47.663 8.71438 48.3869 8.78523 49.0449 9.05604C49.7028 9.32686 50.2651 9.78548 50.6608 10.3739C51.0564 10.9623 51.2676 11.6542 51.2676 12.3619C51.2665 13.3105 50.8868 14.2199 50.2119 14.8907C49.5369 15.5615 48.6218 15.9389 47.6672 15.94Z" fill="#B37FEB"/>
<path d="M47.6685 15.3517C49.3299 15.3517 50.6768 14.0133 50.6768 12.3621C50.6768 10.711 49.3299 9.37256 47.6685 9.37256C46.007 9.37256 44.6602 10.711 44.6602 12.3621C44.6602 14.0133 46.007 15.3517 47.6685 15.3517Z" fill="#B37FEB"/>
<path d="M41.6489 21.3308C43.3104 21.3308 44.6573 19.9923 44.6573 18.3412C44.6573 16.6901 43.3104 15.3516 41.6489 15.3516C39.9875 15.3516 38.6406 16.6901 38.6406 18.3412C38.6406 19.9923 39.9875 21.3308 41.6489 21.3308Z" fill="#B37FEB"/>
<path d="M29.6177 33.2893C31.2792 33.2893 32.6261 31.9508 32.6261 30.2997C32.6261 28.6485 31.2792 27.3101 29.6177 27.3101C27.9563 27.3101 26.6094 28.6485 26.6094 30.2997C26.6094 31.9508 27.9563 33.2893 29.6177 33.2893Z" fill="#B37FEB"/>
<path d="M23.6006 39.7633C22.8885 39.7633 22.1923 39.5534 21.6002 39.1603C21.0081 38.7671 20.5466 38.2083 20.2741 37.5544C20.0016 36.9006 19.9303 36.1811 20.0692 35.487C20.2081 34.7929 20.551 34.1554 21.0546 33.655C21.5581 33.1545 22.1997 32.8138 22.8981 32.6757C23.5966 32.5376 24.3206 32.6085 24.9785 32.8793C25.6364 33.1501 26.1988 33.6088 26.5944 34.1972C26.99 34.7856 27.2012 35.4774 27.2012 36.1851C27.2001 37.1338 26.8205 38.0433 26.1454 38.7141C25.4704 39.3849 24.5552 39.7623 23.6006 39.7633V39.7633Z" fill="#B37FEB"/>
<path d="M23.5982 39.1745C25.2596 39.1745 26.6065 37.836 26.6065 36.1849C26.6065 34.5338 25.2596 33.1953 23.5982 33.1953C21.9367 33.1953 20.5898 34.5338 20.5898 36.1849C20.5898 37.836 21.9367 39.1745 23.5982 39.1745Z" fill="#B37FEB"/>
<path d="M133.437 15.9404H129.488V32.5701H133.437V15.9404Z" fill="white"/>
</g>
<rect x="675" y="-19" width="112" height="88" rx="44" fill="#9254DE"/>
<path d="M702.686 30C702.527 29.58 702.378 29.1693 702.238 28.768C702.098 28.3573 701.953 27.942 701.804 27.522H697.408L696.526 30H695.112C695.485 28.9733 695.835 28.026 696.162 27.158C696.489 26.2807 696.806 25.45 697.114 24.666C697.431 23.882 697.744 23.1353 698.052 22.426C698.36 21.7073 698.682 20.998 699.018 20.298H700.264C700.6 20.998 700.922 21.7073 701.23 22.426C701.538 23.1353 701.846 23.882 702.154 24.666C702.471 25.45 702.793 26.2807 703.12 27.158C703.447 28.026 703.797 28.9733 704.17 30H702.686ZM701.412 26.402C701.113 25.59 700.815 24.806 700.516 24.05C700.227 23.2847 699.923 22.552 699.606 21.852C699.279 22.552 698.967 23.2847 698.668 24.05C698.379 24.806 698.089 25.59 697.8 26.402H701.412ZM707.587 30.14C706.785 30.1213 706.215 29.9487 705.879 29.622C705.543 29.2953 705.375 28.7867 705.375 28.096V19.36L706.677 19.136V27.886C706.677 28.1007 706.696 28.278 706.733 28.418C706.771 28.558 706.831 28.67 706.915 28.754C706.999 28.838 707.111 28.9033 707.251 28.95C707.391 28.9873 707.564 29.02 707.769 29.048L707.587 30.14ZM711.415 30.14C710.613 30.1213 710.043 29.9487 709.707 29.622C709.371 29.2953 709.203 28.7867 709.203 28.096V19.36L710.505 19.136V27.886C710.505 28.1007 710.524 28.278 710.561 28.418C710.599 28.558 710.659 28.67 710.743 28.754C710.827 28.838 710.939 28.9033 711.079 28.95C711.219 28.9873 711.392 29.02 711.597 29.048L711.415 30.14ZM721.354 26.374C721.354 25.5247 721.144 24.8713 720.724 24.414C720.304 23.9567 719.744 23.728 719.044 23.728C718.652 23.728 718.344 23.742 718.12 23.77C717.905 23.798 717.732 23.8307 717.602 23.868V28.46C717.76 28.5907 717.989 28.7167 718.288 28.838C718.586 28.9593 718.913 29.02 719.268 29.02C719.641 29.02 719.958 28.9547 720.22 28.824C720.49 28.684 720.71 28.4973 720.878 28.264C721.046 28.0213 721.167 27.7413 721.242 27.424C721.316 27.0973 721.354 26.7473 721.354 26.374ZM722.712 26.374C722.712 26.9247 722.637 27.4333 722.488 27.9C722.348 28.3667 722.138 28.768 721.858 29.104C721.578 29.44 721.232 29.7013 720.822 29.888C720.42 30.0747 719.958 30.168 719.436 30.168C719.016 30.168 718.642 30.112 718.316 30C717.998 29.888 717.76 29.7807 717.602 29.678V32.59H716.3V22.944C716.608 22.8693 716.99 22.79 717.448 22.706C717.914 22.6127 718.451 22.566 719.058 22.566C719.618 22.566 720.122 22.6547 720.57 22.832C721.018 23.0093 721.4 23.2613 721.718 23.588C722.035 23.9147 722.278 24.316 722.446 24.792C722.623 25.2587 722.712 25.786 722.712 26.374ZM727.232 22.566C727.344 22.566 727.47 22.5753 727.61 22.594C727.759 22.6033 727.904 22.622 728.044 22.65C728.184 22.6687 728.31 22.692 728.422 22.72C728.543 22.7387 728.632 22.7573 728.688 22.776L728.464 23.91C728.361 23.8727 728.188 23.8307 727.946 23.784C727.712 23.728 727.409 23.7 727.036 23.7C726.793 23.7 726.55 23.728 726.308 23.784C726.074 23.8307 725.92 23.8633 725.846 23.882V30H724.544V23.028C724.852 22.916 725.234 22.8133 725.692 22.72C726.149 22.6173 726.662 22.566 727.232 22.566ZM736.37 26.36C736.37 26.9387 736.286 27.4613 736.118 27.928C735.95 28.3947 735.712 28.796 735.404 29.132C735.106 29.468 734.746 29.7293 734.326 29.916C733.906 30.0933 733.449 30.182 732.954 30.182C732.46 30.182 732.002 30.0933 731.582 29.916C731.162 29.7293 730.798 29.468 730.49 29.132C730.192 28.796 729.958 28.3947 729.79 27.928C729.622 27.4613 729.538 26.9387 729.538 26.36C729.538 25.7907 729.622 25.2727 729.79 24.806C729.958 24.33 730.192 23.924 730.49 23.588C730.798 23.252 731.162 22.9953 731.582 22.818C732.002 22.6313 732.46 22.538 732.954 22.538C733.449 22.538 733.906 22.6313 734.326 22.818C734.746 22.9953 735.106 23.252 735.404 23.588C735.712 23.924 735.95 24.33 736.118 24.806C736.286 25.2727 736.37 25.7907 736.37 26.36ZM735.012 26.36C735.012 25.5387 734.826 24.89 734.452 24.414C734.088 23.9287 733.589 23.686 732.954 23.686C732.32 23.686 731.816 23.9287 731.442 24.414C731.078 24.89 730.896 25.5387 730.896 26.36C730.896 27.1813 731.078 27.8347 731.442 28.32C731.816 28.796 732.32 29.034 732.954 29.034C733.589 29.034 734.088 28.796 734.452 28.32C734.826 27.8347 735.012 27.1813 735.012 26.36ZM737.012 32.618C736.9 32.618 736.755 32.604 736.578 32.576C736.401 32.548 736.251 32.5107 736.13 32.464L736.298 31.4C736.391 31.428 736.499 31.4513 736.62 31.47C736.741 31.4887 736.853 31.498 736.956 31.498C737.404 31.498 737.721 31.358 737.908 31.078C738.104 30.8073 738.202 30.406 738.202 29.874V22.72H739.504V29.86C739.504 30.7933 739.289 31.484 738.86 31.932C738.44 32.3893 737.824 32.618 737.012 32.618ZM738.846 21.404C738.613 21.404 738.412 21.3293 738.244 21.18C738.085 21.0213 738.006 20.8113 738.006 20.55C738.006 20.2887 738.085 20.0833 738.244 19.934C738.412 19.7753 738.613 19.696 738.846 19.696C739.079 19.696 739.275 19.7753 739.434 19.934C739.602 20.0833 739.686 20.2887 739.686 20.55C739.686 20.8113 739.602 21.0213 739.434 21.18C739.275 21.3293 739.079 21.404 738.846 21.404ZM741.337 26.374C741.337 25.73 741.43 25.17 741.617 24.694C741.804 24.2087 742.051 23.8073 742.359 23.49C742.667 23.1727 743.022 22.9347 743.423 22.776C743.824 22.6173 744.235 22.538 744.655 22.538C745.635 22.538 746.386 22.846 746.909 23.462C747.432 24.0687 747.693 24.9973 747.693 26.248C747.693 26.304 747.693 26.3787 747.693 26.472C747.693 26.556 747.688 26.6353 747.679 26.71H742.695C742.751 27.466 742.97 28.04 743.353 28.432C743.736 28.824 744.333 29.02 745.145 29.02C745.602 29.02 745.985 28.9827 746.293 28.908C746.61 28.824 746.848 28.7447 747.007 28.67L747.189 29.762C747.03 29.846 746.75 29.9347 746.349 30.028C745.957 30.1213 745.509 30.168 745.005 30.168C744.37 30.168 743.82 30.0747 743.353 29.888C742.896 29.692 742.518 29.426 742.219 29.09C741.92 28.754 741.696 28.3573 741.547 27.9C741.407 27.4333 741.337 26.9247 741.337 26.374ZM746.335 25.66C746.344 25.072 746.195 24.5913 745.887 24.218C745.588 23.8353 745.173 23.644 744.641 23.644C744.342 23.644 744.076 23.7047 743.843 23.826C743.619 23.938 743.428 24.0873 743.269 24.274C743.11 24.4607 742.984 24.6753 742.891 24.918C742.807 25.1607 742.751 25.408 742.723 25.66H746.335ZM752.727 30.168C752.139 30.168 751.621 30.0747 751.173 29.888C750.735 29.7013 750.361 29.44 750.053 29.104C749.755 28.768 749.531 28.3713 749.381 27.914C749.232 27.4473 749.157 26.934 749.157 26.374C749.157 25.814 749.237 25.3007 749.395 24.834C749.563 24.3673 749.797 23.966 750.095 23.63C750.394 23.2847 750.758 23.0187 751.187 22.832C751.626 22.636 752.111 22.538 752.643 22.538C752.97 22.538 753.297 22.566 753.623 22.622C753.95 22.678 754.263 22.7667 754.561 22.888L754.267 23.994C754.071 23.9007 753.843 23.826 753.581 23.77C753.329 23.714 753.059 23.686 752.769 23.686C752.041 23.686 751.481 23.9147 751.089 24.372C750.707 24.8293 750.515 25.4967 750.515 26.374C750.515 26.766 750.557 27.1253 750.641 27.452C750.735 27.7787 750.875 28.0587 751.061 28.292C751.257 28.5253 751.505 28.7073 751.803 28.838C752.102 28.9593 752.466 29.02 752.895 29.02C753.241 29.02 753.553 28.9873 753.833 28.922C754.113 28.8567 754.333 28.7867 754.491 28.712L754.673 29.804C754.599 29.8507 754.491 29.8973 754.351 29.944C754.211 29.9813 754.053 30.014 753.875 30.042C753.698 30.0793 753.507 30.1073 753.301 30.126C753.105 30.154 752.914 30.168 752.727 30.168ZM757.289 22.72H760.047V23.812H757.289V27.172C757.289 27.536 757.317 27.8393 757.373 28.082C757.429 28.3153 757.513 28.502 757.625 28.642C757.737 28.7727 757.877 28.866 758.045 28.922C758.213 28.978 758.409 29.006 758.633 29.006C759.025 29.006 759.338 28.964 759.571 28.88C759.814 28.7867 759.982 28.7213 760.075 28.684L760.327 29.762C760.197 29.8273 759.968 29.9067 759.641 30C759.315 30.1027 758.941 30.154 758.521 30.154C758.027 30.154 757.616 30.0933 757.289 29.972C756.972 29.8413 756.715 29.65 756.519 29.398C756.323 29.146 756.183 28.838 756.099 28.474C756.025 28.1007 755.987 27.6713 755.987 27.186V20.69L757.289 20.466V22.72ZM763.398 29.062C763.93 29.062 764.322 28.992 764.574 28.852C764.835 28.712 764.966 28.488 764.966 28.18C764.966 27.8627 764.84 27.6107 764.588 27.424C764.336 27.2373 763.921 27.0273 763.342 26.794C763.062 26.682 762.791 26.57 762.53 26.458C762.278 26.3367 762.059 26.1967 761.872 26.038C761.685 25.8793 761.536 25.688 761.424 25.464C761.312 25.24 761.256 24.9647 761.256 24.638C761.256 23.994 761.494 23.4853 761.97 23.112C762.446 22.7293 763.095 22.538 763.916 22.538C764.121 22.538 764.327 22.552 764.532 22.58C764.737 22.5987 764.929 22.6267 765.106 22.664C765.283 22.692 765.437 22.7247 765.568 22.762C765.708 22.7993 765.815 22.832 765.89 22.86L765.652 23.98C765.512 23.9053 765.293 23.8307 764.994 23.756C764.695 23.672 764.336 23.63 763.916 23.63C763.552 23.63 763.235 23.7047 762.964 23.854C762.693 23.994 762.558 24.218 762.558 24.526C762.558 24.6847 762.586 24.8247 762.642 24.946C762.707 25.0673 762.801 25.1793 762.922 25.282C763.053 25.3753 763.211 25.464 763.398 25.548C763.585 25.632 763.809 25.7207 764.07 25.814C764.415 25.9447 764.723 26.0753 764.994 26.206C765.265 26.3273 765.493 26.472 765.68 26.64C765.876 26.808 766.025 27.0133 766.128 27.256C766.231 27.4893 766.282 27.7787 766.282 28.124C766.282 28.796 766.03 29.3047 765.526 29.65C765.031 29.9953 764.322 30.168 763.398 30.168C762.754 30.168 762.25 30.112 761.886 30C761.522 29.8973 761.275 29.818 761.144 29.762L761.382 28.642C761.531 28.698 761.769 28.782 762.096 28.894C762.423 29.006 762.857 29.062 763.398 29.062Z" fill="white"/>
<path d="M808.204 30V20.298H814.056V21.46H809.562V24.386H813.552V25.534H809.562V30H808.204ZM821.08 29.79C820.781 29.8647 820.385 29.944 819.89 30.028C819.405 30.112 818.84 30.154 818.196 30.154C817.636 30.154 817.165 30.0747 816.782 29.916C816.399 29.748 816.091 29.5147 815.858 29.216C815.625 28.9173 815.457 28.5673 815.354 28.166C815.251 27.7553 815.2 27.3027 815.2 26.808V22.72H816.502V26.528C816.502 27.4147 816.642 28.0493 816.922 28.432C817.202 28.8147 817.673 29.006 818.336 29.006C818.476 29.006 818.621 29.0013 818.77 28.992C818.919 28.9827 819.059 28.9733 819.19 28.964C819.321 28.9453 819.437 28.9313 819.54 28.922C819.652 28.9033 819.731 28.8847 819.778 28.866V22.72H821.08V29.79ZM828.153 23.7C827.957 23.9147 827.696 24.218 827.369 24.61C827.052 25.002 826.706 25.436 826.333 25.912C825.969 26.388 825.6 26.8873 825.227 27.41C824.863 27.9327 824.541 28.432 824.261 28.908H828.265V30H822.707V29.132C822.931 28.7213 823.206 28.2687 823.533 27.774C823.86 27.2793 824.2 26.7893 824.555 26.304C824.919 25.8093 825.269 25.3473 825.605 24.918C825.95 24.4793 826.249 24.1107 826.501 23.812H822.903V22.72H828.153V23.7ZM834.743 23.7C834.547 23.9147 834.286 24.218 833.959 24.61C833.642 25.002 833.296 25.436 832.923 25.912C832.559 26.388 832.19 26.8873 831.817 27.41C831.453 27.9327 831.131 28.432 830.851 28.908H834.855V30H829.297V29.132C829.521 28.7213 829.796 28.2687 830.123 27.774C830.45 27.2793 830.79 26.7893 831.145 26.304C831.509 25.8093 831.859 25.3473 832.195 24.918C832.54 24.4793 832.839 24.1107 833.091 23.812H829.493V22.72H834.743V23.7ZM835.837 26.374C835.837 25.73 835.93 25.17 836.117 24.694C836.304 24.2087 836.551 23.8073 836.859 23.49C837.167 23.1727 837.522 22.9347 837.923 22.776C838.324 22.6173 838.735 22.538 839.155 22.538C840.135 22.538 840.886 22.846 841.409 23.462C841.932 24.0687 842.193 24.9973 842.193 26.248C842.193 26.304 842.193 26.3787 842.193 26.472C842.193 26.556 842.188 26.6353 842.179 26.71H837.195C837.251 27.466 837.47 28.04 837.853 28.432C838.236 28.824 838.833 29.02 839.645 29.02C840.102 29.02 840.485 28.9827 840.793 28.908C841.11 28.824 841.348 28.7447 841.507 28.67L841.689 29.762C841.53 29.846 841.25 29.9347 840.849 30.028C840.457 30.1213 840.009 30.168 839.505 30.168C838.87 30.168 838.32 30.0747 837.853 29.888C837.396 29.692 837.018 29.426 836.719 29.09C836.42 28.754 836.196 28.3573 836.047 27.9C835.907 27.4333 835.837 26.9247 835.837 26.374ZM840.835 25.66C840.844 25.072 840.695 24.5913 840.387 24.218C840.088 23.8353 839.673 23.644 839.141 23.644C838.842 23.644 838.576 23.7047 838.343 23.826C838.119 23.938 837.928 24.0873 837.769 24.274C837.61 24.4607 837.484 24.6753 837.391 24.918C837.307 25.1607 837.251 25.408 837.223 25.66H840.835ZM846.751 22.566C846.863 22.566 846.989 22.5753 847.129 22.594C847.279 22.6033 847.423 22.622 847.563 22.65C847.703 22.6687 847.829 22.692 847.941 22.72C848.063 22.7387 848.151 22.7573 848.207 22.776L847.983 23.91C847.881 23.8727 847.708 23.8307 847.465 23.784C847.232 23.728 846.929 23.7 846.555 23.7C846.313 23.7 846.07 23.728 845.827 23.784C845.594 23.8307 845.44 23.8633 845.365 23.882V30H844.063V23.028C844.371 22.916 844.754 22.8133 845.211 22.72C845.669 22.6173 846.182 22.566 846.751 22.566ZM851.158 29.062C851.69 29.062 852.082 28.992 852.334 28.852C852.595 28.712 852.726 28.488 852.726 28.18C852.726 27.8627 852.6 27.6107 852.348 27.424C852.096 27.2373 851.68 27.0273 851.102 26.794C850.822 26.682 850.551 26.57 850.29 26.458C850.038 26.3367 849.818 26.1967 849.632 26.038C849.445 25.8793 849.296 25.688 849.184 25.464C849.072 25.24 849.016 24.9647 849.016 24.638C849.016 23.994 849.254 23.4853 849.73 23.112C850.206 22.7293 850.854 22.538 851.676 22.538C851.881 22.538 852.086 22.552 852.292 22.58C852.497 22.5987 852.688 22.6267 852.866 22.664C853.043 22.692 853.197 22.7247 853.328 22.762C853.468 22.7993 853.575 22.832 853.65 22.86L853.412 23.98C853.272 23.9053 853.052 23.8307 852.754 23.756C852.455 23.672 852.096 23.63 851.676 23.63C851.312 23.63 850.994 23.7047 850.724 23.854C850.453 23.994 850.318 24.218 850.318 24.526C850.318 24.6847 850.346 24.8247 850.402 24.946C850.467 25.0673 850.56 25.1793 850.682 25.282C850.812 25.3753 850.971 25.464 851.158 25.548C851.344 25.632 851.568 25.7207 851.83 25.814C852.175 25.9447 852.483 26.0753 852.754 26.206C853.024 26.3273 853.253 26.472 853.44 26.64C853.636 26.808 853.785 27.0133 853.888 27.256C853.99 27.4893 854.042 27.7787 854.042 28.124C854.042 28.796 853.79 29.3047 853.286 29.65C852.791 29.9953 852.082 30.168 851.158 30.168C850.514 30.168 850.01 30.112 849.646 30C849.282 29.8973 849.034 29.818 848.904 29.762L849.142 28.642C849.291 28.698 849.529 28.782 849.856 28.894C850.182 29.006 850.616 29.062 851.158 29.062Z" fill="white"/>
<path d="M896.204 30V20.298H902.056V21.46H897.562V24.386H901.552V25.534H897.562V30H896.204ZM909.563 30C909.404 29.58 909.255 29.1693 909.115 28.768C908.975 28.3573 908.83 27.942 908.681 27.522H904.285L903.403 30H901.989C902.362 28.9733 902.712 28.026 903.039 27.158C903.366 26.2807 903.683 25.45 903.991 24.666C904.308 23.882 904.621 23.1353 904.929 22.426C905.237 21.7073 905.559 20.998 905.895 20.298H907.141C907.477 20.998 907.799 21.7073 908.107 22.426C908.415 23.1353 908.723 23.882 909.031 24.666C909.348 25.45 909.67 26.2807 909.997 27.158C910.324 28.026 910.674 28.9733 911.047 30H909.563ZM908.289 26.402C907.99 25.59 907.692 24.806 907.393 24.05C907.104 23.2847 906.8 22.552 906.483 21.852C906.156 22.552 905.844 23.2847 905.545 24.05C905.256 24.806 904.966 25.59 904.677 26.402H908.289ZM911.712 25.142C911.712 24.3113 911.834 23.5787 912.076 22.944C912.328 22.3093 912.664 21.782 913.084 21.362C913.514 20.9327 914.008 20.6107 914.568 20.396C915.138 20.1813 915.74 20.074 916.374 20.074C917 20.074 917.588 20.1813 918.138 20.396C918.698 20.6107 919.188 20.9327 919.608 21.362C920.028 21.782 920.36 22.3093 920.602 22.944C920.854 23.5787 920.98 24.3113 920.98 25.142C920.98 25.87 920.887 26.5187 920.7 27.088C920.514 27.6573 920.252 28.152 919.916 28.572C919.59 28.9827 919.202 29.3187 918.754 29.58C918.316 29.832 917.844 30.0047 917.34 30.098C917.35 30.3127 917.443 30.4993 917.62 30.658C917.807 30.826 918.04 30.966 918.32 31.078C918.6 31.19 918.913 31.2833 919.258 31.358C919.604 31.4327 919.949 31.4887 920.294 31.526L919.972 32.59C919.487 32.5247 919.02 32.436 918.572 32.324C918.134 32.2213 917.732 32.0813 917.368 31.904C917.014 31.7267 916.715 31.498 916.472 31.218C916.23 30.9473 916.066 30.6067 915.982 30.196C915.394 30.1587 914.839 30.0233 914.316 29.79C913.794 29.5473 913.341 29.216 912.958 28.796C912.576 28.3667 912.272 27.8487 912.048 27.242C911.824 26.6353 911.712 25.9353 911.712 25.142ZM913.14 25.142C913.14 25.73 913.215 26.2667 913.364 26.752C913.514 27.228 913.724 27.634 913.994 27.97C914.274 28.306 914.61 28.5673 915.002 28.754C915.404 28.9313 915.852 29.02 916.346 29.02C916.841 29.02 917.284 28.9313 917.676 28.754C918.068 28.5673 918.4 28.306 918.67 27.97C918.95 27.634 919.165 27.228 919.314 26.752C919.464 26.2667 919.538 25.73 919.538 25.142C919.538 24.554 919.464 24.022 919.314 23.546C919.165 23.0607 918.95 22.65 918.67 22.314C918.4 21.978 918.068 21.7213 917.676 21.544C917.284 21.3573 916.841 21.264 916.346 21.264C915.852 21.264 915.404 21.3573 915.002 21.544C914.61 21.7213 914.274 21.978 913.994 22.314C913.724 22.65 913.514 23.0607 913.364 23.546C913.215 24.022 913.14 24.554 913.14 25.142Z" fill="white"/>
<path d="M971.17 25.142C971.17 25.982 971.039 26.7147 970.778 27.34C970.517 27.956 970.148 28.4693 969.672 28.88C969.196 29.2813 968.627 29.5847 967.964 29.79C967.301 29.986 966.573 30.084 965.78 30.084C965.388 30.084 964.954 30.0653 964.478 30.028C964.011 30 963.587 29.9393 963.204 29.846V20.438C963.587 20.3447 964.011 20.284 964.478 20.256C964.954 20.2187 965.388 20.2 965.78 20.2C966.573 20.2 967.301 20.3027 967.964 20.508C968.627 20.704 969.196 21.0073 969.672 21.418C970.148 21.8193 970.517 22.3327 970.778 22.958C971.039 23.574 971.17 24.302 971.17 25.142ZM965.892 28.894C967.18 28.894 968.141 28.5673 968.776 27.914C969.411 27.2513 969.728 26.3273 969.728 25.142C969.728 23.9567 969.411 23.0373 968.776 22.384C968.141 21.7213 967.18 21.39 965.892 21.39C965.509 21.39 965.211 21.3947 964.996 21.404C964.791 21.4133 964.646 21.4227 964.562 21.432V28.852C964.646 28.8613 964.791 28.8707 964.996 28.88C965.211 28.8893 965.509 28.894 965.892 28.894ZM979.526 26.36C979.526 26.9387 979.442 27.4613 979.274 27.928C979.106 28.3947 978.868 28.796 978.56 29.132C978.262 29.468 977.902 29.7293 977.482 29.916C977.062 30.0933 976.605 30.182 976.11 30.182C975.616 30.182 975.158 30.0933 974.738 29.916C974.318 29.7293 973.954 29.468 973.646 29.132C973.348 28.796 973.114 28.3947 972.946 27.928C972.778 27.4613 972.694 26.9387 972.694 26.36C972.694 25.7907 972.778 25.2727 972.946 24.806C973.114 24.33 973.348 23.924 973.646 23.588C973.954 23.252 974.318 22.9953 974.738 22.818C975.158 22.6313 975.616 22.538 976.11 22.538C976.605 22.538 977.062 22.6313 977.482 22.818C977.902 22.9953 978.262 23.252 978.56 23.588C978.868 23.924 979.106 24.33 979.274 24.806C979.442 25.2727 979.526 25.7907 979.526 26.36ZM978.168 26.36C978.168 25.5387 977.982 24.89 977.608 24.414C977.244 23.9287 976.745 23.686 976.11 23.686C975.476 23.686 974.972 23.9287 974.598 24.414C974.234 24.89 974.052 25.5387 974.052 26.36C974.052 27.1813 974.234 27.8347 974.598 28.32C974.972 28.796 975.476 29.034 976.11 29.034C976.745 29.034 977.244 28.796 977.608 28.32C977.982 27.8347 978.168 27.1813 978.168 26.36ZM984.522 30.168C983.934 30.168 983.416 30.0747 982.968 29.888C982.53 29.7013 982.156 29.44 981.848 29.104C981.55 28.768 981.326 28.3713 981.176 27.914C981.027 27.4473 980.952 26.934 980.952 26.374C980.952 25.814 981.032 25.3007 981.19 24.834C981.358 24.3673 981.592 23.966 981.89 23.63C982.189 23.2847 982.553 23.0187 982.982 22.832C983.421 22.636 983.906 22.538 984.438 22.538C984.765 22.538 985.092 22.566 985.418 22.622C985.745 22.678 986.058 22.7667 986.356 22.888L986.062 23.994C985.866 23.9007 985.638 23.826 985.376 23.77C985.124 23.714 984.854 23.686 984.564 23.686C983.836 23.686 983.276 23.9147 982.884 24.372C982.502 24.8293 982.31 25.4967 982.31 26.374C982.31 26.766 982.352 27.1253 982.436 27.452C982.53 27.7787 982.67 28.0587 982.856 28.292C983.052 28.5253 983.3 28.7073 983.598 28.838C983.897 28.9593 984.261 29.02 984.69 29.02C985.036 29.02 985.348 28.9873 985.628 28.922C985.908 28.8567 986.128 28.7867 986.286 28.712L986.468 29.804C986.394 29.8507 986.286 29.8973 986.146 29.944C986.006 29.9813 985.848 30.014 985.67 30.042C985.493 30.0793 985.302 30.1073 985.096 30.126C984.9 30.154 984.709 30.168 984.522 30.168ZM993.662 29.79C993.363 29.8647 992.967 29.944 992.472 30.028C991.987 30.112 991.422 30.154 990.778 30.154C990.218 30.154 989.747 30.0747 989.364 29.916C988.981 29.748 988.673 29.5147 988.44 29.216C988.207 28.9173 988.039 28.5673 987.936 28.166C987.833 27.7553 987.782 27.3027 987.782 26.808V22.72H989.084V26.528C989.084 27.4147 989.224 28.0493 989.504 28.432C989.784 28.8147 990.255 29.006 990.918 29.006C991.058 29.006 991.203 29.0013 991.352 28.992C991.501 28.9827 991.641 28.9733 991.772 28.964C991.903 28.9453 992.019 28.9313 992.122 28.922C992.234 28.9033 992.313 28.8847 992.36 28.866V22.72H993.662V29.79ZM995.905 22.93C996.204 22.8553 996.596 22.776 997.081 22.692C997.576 22.608 998.145 22.566 998.789 22.566C999.256 22.566 999.648 22.6313 999.965 22.762C1000.28 22.8833 1000.55 23.0653 1000.76 23.308C1000.83 23.2613 1000.93 23.196 1001.07 23.112C1001.21 23.028 1001.38 22.9487 1001.59 22.874C1001.79 22.79 1002.02 22.72 1002.28 22.664C1002.53 22.5987 1002.8 22.566 1003.09 22.566C1003.65 22.566 1004.1 22.65 1004.46 22.818C1004.81 22.9767 1005.09 23.2053 1005.29 23.504C1005.49 23.8027 1005.63 24.1573 1005.69 24.568C1005.77 24.9787 1005.8 25.4267 1005.8 25.912V30H1004.5V26.192C1004.5 25.7627 1004.48 25.394 1004.43 25.086C1004.39 24.778 1004.31 24.5213 1004.19 24.316C1004.08 24.1107 1003.92 23.9613 1003.72 23.868C1003.52 23.7653 1003.26 23.714 1002.95 23.714C1002.51 23.714 1002.14 23.7747 1001.86 23.896C1001.58 24.008 1001.38 24.1107 1001.28 24.204C1001.36 24.4467 1001.41 24.7127 1001.45 25.002C1001.49 25.2913 1001.51 25.5947 1001.51 25.912V30H1000.2V26.192C1000.2 25.7627 1000.18 25.394 1000.13 25.086C1000.09 24.778 1000 24.5213 999.881 24.316C999.769 24.1107 999.61 23.9613 999.405 23.868C999.209 23.7653 998.957 23.714 998.649 23.714C998.518 23.714 998.378 23.7187 998.229 23.728C998.08 23.7373 997.935 23.7513 997.795 23.77C997.664 23.7793 997.543 23.7933 997.431 23.812C997.319 23.8307 997.244 23.8447 997.207 23.854V30H995.905V22.93ZM1007.56 26.374C1007.56 25.73 1007.65 25.17 1007.84 24.694C1008.02 24.2087 1008.27 23.8073 1008.58 23.49C1008.89 23.1727 1009.24 22.9347 1009.64 22.776C1010.05 22.6173 1010.46 22.538 1010.88 22.538C1011.86 22.538 1012.61 22.846 1013.13 23.462C1013.65 24.0687 1013.91 24.9973 1013.91 26.248C1013.91 26.304 1013.91 26.3787 1013.91 26.472C1013.91 26.556 1013.91 26.6353 1013.9 26.71H1008.92C1008.97 27.466 1009.19 28.04 1009.57 28.432C1009.96 28.824 1010.55 29.02 1011.37 29.02C1011.82 29.02 1012.21 28.9827 1012.51 28.908C1012.83 28.824 1013.07 28.7447 1013.23 28.67L1013.41 29.762C1013.25 29.846 1012.97 29.9347 1012.57 30.028C1012.18 30.1213 1011.73 30.168 1011.23 30.168C1010.59 30.168 1010.04 30.0747 1009.57 29.888C1009.12 29.692 1008.74 29.426 1008.44 29.09C1008.14 28.754 1007.92 28.3573 1007.77 27.9C1007.63 27.4333 1007.56 26.9247 1007.56 26.374ZM1012.56 25.66C1012.57 25.072 1012.42 24.5913 1012.11 24.218C1011.81 23.8353 1011.39 23.644 1010.86 23.644C1010.56 23.644 1010.3 23.7047 1010.06 23.826C1009.84 23.938 1009.65 24.0873 1009.49 24.274C1009.33 24.4607 1009.21 24.6753 1009.11 24.918C1009.03 25.1607 1008.97 25.408 1008.94 25.66H1012.56ZM1015.78 22.93C1016.08 22.8553 1016.48 22.776 1016.97 22.692C1017.47 22.608 1018.04 22.566 1018.68 22.566C1019.26 22.566 1019.74 22.65 1020.12 22.818C1020.51 22.9767 1020.81 23.2053 1021.03 23.504C1021.27 23.7933 1021.43 24.1433 1021.52 24.554C1021.62 24.9647 1021.66 25.4173 1021.66 25.912V30H1020.36V26.192C1020.36 25.744 1020.33 25.3613 1020.26 25.044C1020.21 24.7267 1020.11 24.47 1019.97 24.274C1019.83 24.078 1019.64 23.938 1019.41 23.854C1019.18 23.7607 1018.89 23.714 1018.54 23.714C1018.4 23.714 1018.26 23.7187 1018.11 23.728C1017.96 23.7373 1017.81 23.7513 1017.67 23.77C1017.54 23.7793 1017.42 23.7933 1017.31 23.812C1017.21 23.8307 1017.13 23.8447 1017.09 23.854V30H1015.78V22.93ZM1025.04 22.72H1027.8V23.812H1025.04V27.172C1025.04 27.536 1025.07 27.8393 1025.13 28.082C1025.18 28.3153 1025.27 28.502 1025.38 28.642C1025.49 28.7727 1025.63 28.866 1025.8 28.922C1025.97 28.978 1026.16 29.006 1026.39 29.006C1026.78 29.006 1027.09 28.964 1027.32 28.88C1027.57 28.7867 1027.73 28.7213 1027.83 28.684L1028.08 29.762C1027.95 29.8273 1027.72 29.9067 1027.39 30C1027.07 30.1027 1026.69 30.154 1026.27 30.154C1025.78 30.154 1025.37 30.0933 1025.04 29.972C1024.72 29.8413 1024.47 29.65 1024.27 29.398C1024.08 29.146 1023.94 28.838 1023.85 28.474C1023.78 28.1007 1023.74 27.6713 1023.74 27.186V20.69L1025.04 20.466V22.72ZM1031.92 29.062C1032.23 29.062 1032.5 29.0573 1032.73 29.048C1032.97 29.0293 1033.18 29.0013 1033.33 28.964V26.794C1033.24 26.7473 1033.09 26.71 1032.87 26.682C1032.67 26.6447 1032.41 26.626 1032.12 26.626C1031.92 26.626 1031.71 26.64 1031.49 26.668C1031.27 26.696 1031.07 26.7567 1030.88 26.85C1030.71 26.934 1030.56 27.0553 1030.44 27.214C1030.31 27.3633 1030.25 27.564 1030.25 27.816C1030.25 28.2827 1030.4 28.6093 1030.7 28.796C1031 28.9733 1031.41 29.062 1031.92 29.062ZM1031.81 22.538C1032.33 22.538 1032.77 22.608 1033.12 22.748C1033.49 22.8787 1033.78 23.07 1033.99 23.322C1034.22 23.5647 1034.37 23.8587 1034.47 24.204C1034.56 24.54 1034.61 24.9133 1034.61 25.324V29.874C1034.5 29.8927 1034.34 29.9207 1034.13 29.958C1033.94 29.986 1033.71 30.014 1033.46 30.042C1033.21 30.07 1032.93 30.0933 1032.63 30.112C1032.34 30.14 1032.06 30.154 1031.77 30.154C1031.36 30.154 1030.98 30.112 1030.63 30.028C1030.29 29.944 1029.99 29.8133 1029.74 29.636C1029.48 29.4493 1029.29 29.2067 1029.15 28.908C1029.01 28.6093 1028.94 28.25 1028.94 27.83C1028.94 27.4287 1029.02 27.0833 1029.18 26.794C1029.34 26.5047 1029.57 26.2713 1029.85 26.094C1030.13 25.9167 1030.45 25.786 1030.83 25.702C1031.2 25.618 1031.59 25.576 1032 25.576C1032.13 25.576 1032.27 25.5853 1032.41 25.604C1032.55 25.6133 1032.68 25.632 1032.8 25.66C1032.93 25.6787 1033.04 25.6973 1033.14 25.716C1033.23 25.7347 1033.3 25.7487 1033.33 25.758V25.394C1033.33 25.1793 1033.31 24.9693 1033.26 24.764C1033.22 24.5493 1033.13 24.3627 1033.01 24.204C1032.89 24.036 1032.72 23.9053 1032.51 23.812C1032.3 23.7093 1032.03 23.658 1031.7 23.658C1031.27 23.658 1030.89 23.6907 1030.56 23.756C1030.24 23.812 1030.01 23.8727 1029.85 23.938L1029.69 22.86C1029.86 22.7853 1030.14 22.7153 1030.53 22.65C1030.93 22.5753 1031.35 22.538 1031.81 22.538ZM1037.99 22.72H1040.75V23.812H1037.99V27.172C1037.99 27.536 1038.02 27.8393 1038.07 28.082C1038.13 28.3153 1038.21 28.502 1038.32 28.642C1038.44 28.7727 1038.58 28.866 1038.74 28.922C1038.91 28.978 1039.11 29.006 1039.33 29.006C1039.72 29.006 1040.04 28.964 1040.27 28.88C1040.51 28.7867 1040.68 28.7213 1040.77 28.684L1041.03 29.762C1040.9 29.8273 1040.67 29.9067 1040.34 30C1040.01 30.1027 1039.64 30.154 1039.22 30.154C1038.73 30.154 1038.32 30.0933 1037.99 29.972C1037.67 29.8413 1037.41 29.65 1037.22 29.398C1037.02 29.146 1036.88 28.838 1036.8 28.474C1036.72 28.1007 1036.69 27.6713 1036.69 27.186V20.69L1037.99 20.466V22.72ZM1043.71 30H1042.4V22.72H1043.71V30ZM1043.05 21.404C1042.81 21.404 1042.61 21.3293 1042.45 21.18C1042.29 21.0213 1042.21 20.8113 1042.21 20.55C1042.21 20.2887 1042.29 20.0833 1042.45 19.934C1042.61 19.7753 1042.81 19.696 1043.05 19.696C1043.28 19.696 1043.48 19.7753 1043.64 19.934C1043.8 20.0833 1043.89 20.2887 1043.89 20.55C1043.89 20.8113 1043.8 21.0213 1043.64 21.18C1043.48 21.3293 1043.28 21.404 1043.05 21.404ZM1052.37 26.36C1052.37 26.9387 1052.29 27.4613 1052.12 27.928C1051.95 28.3947 1051.71 28.796 1051.4 29.132C1051.11 29.468 1050.75 29.7293 1050.33 29.916C1049.91 30.0933 1049.45 30.182 1048.95 30.182C1048.46 30.182 1048 30.0933 1047.58 29.916C1047.16 29.7293 1046.8 29.468 1046.49 29.132C1046.19 28.796 1045.96 28.3947 1045.79 27.928C1045.62 27.4613 1045.54 26.9387 1045.54 26.36C1045.54 25.7907 1045.62 25.2727 1045.79 24.806C1045.96 24.33 1046.19 23.924 1046.49 23.588C1046.8 23.252 1047.16 22.9953 1047.58 22.818C1048 22.6313 1048.46 22.538 1048.95 22.538C1049.45 22.538 1049.91 22.6313 1050.33 22.818C1050.75 22.9953 1051.11 23.252 1051.4 23.588C1051.71 23.924 1051.95 24.33 1052.12 24.806C1052.29 25.2727 1052.37 25.7907 1052.37 26.36ZM1051.01 26.36C1051.01 25.5387 1050.83 24.89 1050.45 24.414C1050.09 23.9287 1049.59 23.686 1048.95 23.686C1048.32 23.686 1047.82 23.9287 1047.44 24.414C1047.08 24.89 1046.9 25.5387 1046.9 26.36C1046.9 27.1813 1047.08 27.8347 1047.44 28.32C1047.82 28.796 1048.32 29.034 1048.95 29.034C1049.59 29.034 1050.09 28.796 1050.45 28.32C1050.83 27.8347 1051.01 27.1813 1051.01 26.36ZM1054.2 22.93C1054.5 22.8553 1054.9 22.776 1055.39 22.692C1055.89 22.608 1056.46 22.566 1057.1 22.566C1057.68 22.566 1058.16 22.65 1058.54 22.818C1058.92 22.9767 1059.23 23.2053 1059.45 23.504C1059.69 23.7933 1059.85 24.1433 1059.94 24.554C1060.04 24.9647 1060.08 25.4173 1060.08 25.912V30H1058.78V26.192C1058.78 25.744 1058.75 25.3613 1058.68 25.044C1058.63 24.7267 1058.53 24.47 1058.39 24.274C1058.25 24.078 1058.06 23.938 1057.83 23.854C1057.59 23.7607 1057.31 23.714 1056.96 23.714C1056.82 23.714 1056.68 23.7187 1056.53 23.728C1056.38 23.7373 1056.23 23.7513 1056.09 23.77C1055.96 23.7793 1055.84 23.7933 1055.73 23.812C1055.63 23.8307 1055.55 23.8447 1055.5 23.854V30H1054.2V22.93Z" fill="white"/>
<path d="M1106.89 31.2223C1106.52 31.2223 1106.21 31.0925 1105.95 30.8329C1105.69 30.574 1105.56 30.2593 1105.56 29.8889V21.0001H1104.67V19.6667H1108.22V18.7778H1111.78V19.6667H1115.33V21.0001H1114.45V29.8889C1114.45 30.2593 1114.32 30.574 1114.06 30.8329C1113.8 31.0925 1113.48 31.2223 1113.11 31.2223H1106.89ZM1113.11 21.0001H1106.89V29.8889H1113.11V21.0001ZM1108.22 28.5556H1109.56V22.3334H1108.22V28.5556ZM1110.45 28.5556H1111.78V22.3334H1110.45V28.5556Z" fill="white"/>
<path d="M1130.69 20.298V21.474H1127.63V30H1126.28V21.474H1123.22V20.298H1130.69ZM1134.16 22.566C1134.28 22.566 1134.4 22.5753 1134.54 22.594C1134.69 22.6033 1134.84 22.622 1134.98 22.65C1135.12 22.6687 1135.24 22.692 1135.35 22.72C1135.47 22.7387 1135.56 22.7573 1135.62 22.776L1135.4 23.91C1135.29 23.8727 1135.12 23.8307 1134.88 23.784C1134.64 23.728 1134.34 23.7 1133.97 23.7C1133.72 23.7 1133.48 23.728 1133.24 23.784C1133.01 23.8307 1132.85 23.8633 1132.78 23.882V30H1131.48V23.028C1131.78 22.916 1132.17 22.8133 1132.62 22.72C1133.08 22.6173 1133.59 22.566 1134.16 22.566ZM1139.34 29.062C1139.65 29.062 1139.92 29.0573 1140.15 29.048C1140.39 29.0293 1140.6 29.0013 1140.75 28.964V26.794C1140.66 26.7473 1140.51 26.71 1140.29 26.682C1140.09 26.6447 1139.83 26.626 1139.54 26.626C1139.34 26.626 1139.13 26.64 1138.91 26.668C1138.69 26.696 1138.49 26.7567 1138.3 26.85C1138.13 26.934 1137.98 27.0553 1137.86 27.214C1137.73 27.3633 1137.67 27.564 1137.67 27.816C1137.67 28.2827 1137.82 28.6093 1138.12 28.796C1138.42 28.9733 1138.83 29.062 1139.34 29.062ZM1139.23 22.538C1139.75 22.538 1140.19 22.608 1140.54 22.748C1140.91 22.8787 1141.2 23.07 1141.41 23.322C1141.64 23.5647 1141.79 23.8587 1141.89 24.204C1141.98 24.54 1142.03 24.9133 1142.03 25.324V29.874C1141.92 29.8927 1141.76 29.9207 1141.55 29.958C1141.36 29.986 1141.13 30.014 1140.88 30.042C1140.63 30.07 1140.35 30.0933 1140.05 30.112C1139.76 30.14 1139.48 30.154 1139.19 30.154C1138.78 30.154 1138.4 30.112 1138.05 30.028C1137.71 29.944 1137.41 29.8133 1137.16 29.636C1136.9 29.4493 1136.71 29.2067 1136.57 28.908C1136.43 28.6093 1136.36 28.25 1136.36 27.83C1136.36 27.4287 1136.44 27.0833 1136.6 26.794C1136.76 26.5047 1136.99 26.2713 1137.27 26.094C1137.55 25.9167 1137.87 25.786 1138.25 25.702C1138.62 25.618 1139.01 25.576 1139.42 25.576C1139.55 25.576 1139.69 25.5853 1139.83 25.604C1139.97 25.6133 1140.1 25.632 1140.22 25.66C1140.35 25.6787 1140.46 25.6973 1140.56 25.716C1140.65 25.7347 1140.72 25.7487 1140.75 25.758V25.394C1140.75 25.1793 1140.73 24.9693 1140.68 24.764C1140.64 24.5493 1140.55 24.3627 1140.43 24.204C1140.31 24.036 1140.14 23.9053 1139.93 23.812C1139.72 23.7093 1139.45 23.658 1139.12 23.658C1138.69 23.658 1138.31 23.6907 1137.98 23.756C1137.66 23.812 1137.43 23.8727 1137.27 23.938L1137.11 22.86C1137.28 22.7853 1137.56 22.7153 1137.95 22.65C1138.35 22.5753 1138.77 22.538 1139.23 22.538ZM1145.88 29.062C1146.42 29.062 1146.81 28.992 1147.06 28.852C1147.32 28.712 1147.45 28.488 1147.45 28.18C1147.45 27.8627 1147.33 27.6107 1147.07 27.424C1146.82 27.2373 1146.41 27.0273 1145.83 26.794C1145.55 26.682 1145.28 26.57 1145.02 26.458C1144.76 26.3367 1144.54 26.1967 1144.36 26.038C1144.17 25.8793 1144.02 25.688 1143.91 25.464C1143.8 25.24 1143.74 24.9647 1143.74 24.638C1143.74 23.994 1143.98 23.4853 1144.46 23.112C1144.93 22.7293 1145.58 22.538 1146.4 22.538C1146.61 22.538 1146.81 22.552 1147.02 22.58C1147.22 22.5987 1147.41 22.6267 1147.59 22.664C1147.77 22.692 1147.92 22.7247 1148.05 22.762C1148.19 22.7993 1148.3 22.832 1148.38 22.86L1148.14 23.98C1148 23.9053 1147.78 23.8307 1147.48 23.756C1147.18 23.672 1146.82 23.63 1146.4 23.63C1146.04 23.63 1145.72 23.7047 1145.45 23.854C1145.18 23.994 1145.04 24.218 1145.04 24.526C1145.04 24.6847 1145.07 24.8247 1145.13 24.946C1145.19 25.0673 1145.29 25.1793 1145.41 25.282C1145.54 25.3753 1145.7 25.464 1145.88 25.548C1146.07 25.632 1146.29 25.7207 1146.56 25.814C1146.9 25.9447 1147.21 26.0753 1147.48 26.206C1147.75 26.3273 1147.98 26.472 1148.17 26.64C1148.36 26.808 1148.51 27.0133 1148.61 27.256C1148.72 27.4893 1148.77 27.7787 1148.77 28.124C1148.77 28.796 1148.52 29.3047 1148.01 29.65C1147.52 29.9953 1146.81 30.168 1145.88 30.168C1145.24 30.168 1144.74 30.112 1144.37 30C1144.01 29.8973 1143.76 29.818 1143.63 29.762L1143.87 28.642C1144.02 28.698 1144.26 28.782 1144.58 28.894C1144.91 29.006 1145.34 29.062 1145.88 29.062ZM1150.44 30V19.36L1151.74 19.136V22.86C1151.98 22.7667 1152.24 22.6967 1152.51 22.65C1152.79 22.594 1153.07 22.566 1153.34 22.566C1153.92 22.566 1154.4 22.65 1154.78 22.818C1155.16 22.9767 1155.46 23.2053 1155.69 23.504C1155.92 23.7933 1156.09 24.1433 1156.18 24.554C1156.27 24.9647 1156.32 25.4173 1156.32 25.912V30H1155.02V26.192C1155.02 25.744 1154.98 25.3613 1154.92 25.044C1154.86 24.7267 1154.76 24.47 1154.62 24.274C1154.48 24.078 1154.3 23.938 1154.06 23.854C1153.83 23.7607 1153.54 23.714 1153.2 23.714C1153.06 23.714 1152.91 23.7233 1152.76 23.742C1152.61 23.7607 1152.47 23.784 1152.33 23.812C1152.2 23.8307 1152.08 23.854 1151.96 23.882C1151.86 23.91 1151.79 23.9333 1151.74 23.952V30H1150.44Z" fill="white"/>
<path d="M1209.33 31.1113V29.4447H1210.44V23.8891C1210.44 22.5617 1210.86 21.385 1211.68 20.3591C1212.51 19.3332 1213.58 18.6965 1214.89 18.4491V17.2224C1214.89 16.9136 1215 16.6513 1215.21 16.4358C1215.43 16.2195 1215.69 16.1113 1216 16.1113C1216.31 16.1113 1216.57 16.2195 1216.79 16.4358C1217 16.6513 1217.11 16.9136 1217.11 17.2224V18.4491C1218.42 18.6965 1219.49 19.3291 1220.32 20.3469C1221.14 21.3661 1221.55 22.5469 1221.55 23.8891V29.4447H1222.67V31.1113H1209.33ZM1216 33.8891C1215.54 33.8891 1215.14 33.7269 1214.82 33.4024C1214.49 33.0787 1214.33 32.6854 1214.33 32.2224H1217.67C1217.67 32.6854 1217.5 33.0787 1217.18 33.4024C1216.85 33.7269 1216.46 33.8891 1216 33.8891ZM1212.11 29.4447H1219.89V23.8891C1219.89 22.8091 1219.51 21.891 1218.75 21.1347C1218 20.3784 1217.08 20.0002 1216 20.0002C1214.92 20.0002 1214 20.3784 1213.24 21.1347C1212.49 21.891 1212.11 22.8091 1212.11 23.8891V29.4447Z" fill="white"/>
<path d="M1267 33.8891C1265.78 33.8891 1264.63 33.6576 1263.55 33.1947C1262.47 32.7317 1261.52 32.095 1260.71 31.2847C1259.9 30.4743 1259.27 29.5291 1258.8 28.4491C1258.34 27.3691 1258.11 26.2195 1258.11 25.0002C1258.11 23.7654 1258.34 22.6117 1258.8 21.5391C1259.27 20.4673 1259.9 19.5261 1260.71 18.7158C1261.52 17.9054 1262.47 17.2687 1263.55 16.8058C1264.63 16.3428 1265.78 16.1113 1267 16.1113C1268.23 16.1113 1269.39 16.3428 1270.46 16.8058C1271.53 17.2687 1272.47 17.9054 1273.28 18.7158C1274.09 19.5261 1274.73 20.4673 1275.19 21.5391C1275.66 22.6117 1275.89 23.7654 1275.89 25.0002C1275.89 26.2195 1275.66 27.3691 1275.19 28.4491C1274.73 29.5291 1274.09 30.4743 1273.28 31.2847C1272.47 32.095 1271.53 32.7317 1270.46 33.1947C1269.39 33.6576 1268.23 33.8891 1267 33.8891ZM1267 32.1536C1267.26 31.8906 1267.52 31.4006 1267.78 30.6836C1268.05 29.9658 1268.25 29.1824 1268.39 28.3336H1265.61C1265.75 29.1824 1265.95 29.9658 1266.21 30.6836C1266.47 31.4006 1266.74 31.8906 1267 32.1536ZM1264.89 31.9213C1264.68 31.4584 1264.49 30.9261 1264.32 30.3247C1264.16 29.7224 1264.03 29.0587 1263.92 28.3336H1260.61C1261.06 29.2136 1261.65 29.9658 1262.39 30.5902C1263.13 31.2154 1263.97 31.6591 1264.89 31.9213ZM1269.1 31.9213C1270.03 31.6591 1270.86 31.2154 1271.6 30.5902C1272.35 29.9658 1272.94 29.2136 1273.39 28.3336H1270.08C1269.97 29.0587 1269.83 29.7224 1269.67 30.3247C1269.51 30.9261 1269.32 31.4584 1269.1 31.9213ZM1270.28 26.6669H1274.01C1274.09 26.3736 1274.14 26.0921 1274.17 25.8224C1274.2 25.5521 1274.22 25.278 1274.22 25.0002C1274.22 24.7224 1274.2 24.4447 1274.17 24.1669C1274.14 23.8891 1274.09 23.6113 1274.01 23.3336H1270.28C1270.32 23.6269 1270.34 23.9161 1270.34 24.2013C1270.35 24.4873 1270.35 24.7691 1270.35 25.0469C1270.35 25.3247 1270.35 25.5984 1270.34 25.868C1270.34 26.1384 1270.32 26.4047 1270.28 26.6669ZM1265.4 26.6669H1268.6C1268.63 26.358 1268.65 26.0687 1268.65 25.7991C1268.66 25.5287 1268.66 25.2624 1268.66 25.0002C1268.66 24.738 1268.66 24.468 1268.65 24.1902C1268.65 23.9124 1268.63 23.6269 1268.6 23.3336H1265.4C1265.37 23.6269 1265.35 23.9124 1265.34 24.1902C1265.34 24.468 1265.33 24.738 1265.33 25.0002C1265.33 25.2624 1265.34 25.5324 1265.34 25.8102C1265.35 26.088 1265.37 26.3736 1265.4 26.6669ZM1259.98 26.6669H1263.71C1263.68 26.3736 1263.66 26.0843 1263.65 25.7991C1263.65 25.5132 1263.64 25.2313 1263.64 24.9536C1263.64 24.6758 1263.65 24.4021 1263.65 24.1324C1263.66 23.8621 1263.68 23.5958 1263.71 23.3336H1259.98C1259.91 23.6269 1259.85 23.9084 1259.82 24.178C1259.79 24.4484 1259.78 24.7224 1259.78 25.0002C1259.78 25.278 1259.79 25.5521 1259.82 25.8224C1259.85 26.0921 1259.91 26.3736 1259.98 26.6669ZM1270.08 21.6669H1273.39C1272.94 20.7869 1272.35 20.0347 1271.6 19.4102C1270.86 18.785 1270.03 18.3413 1269.1 18.0791C1269.32 18.5421 1269.51 19.0743 1269.67 19.6758C1269.83 20.278 1269.97 20.9417 1270.08 21.6669ZM1265.61 21.6669H1268.39C1268.25 20.818 1268.05 20.0347 1267.78 19.3169C1267.52 18.5998 1267.26 18.1098 1267 17.8469C1266.74 18.1098 1266.47 18.5998 1266.21 19.3169C1265.95 20.0347 1265.75 20.818 1265.61 21.6669ZM1260.61 21.6669H1263.92C1264.03 20.9417 1264.16 20.278 1264.32 19.6758C1264.49 19.0743 1264.68 18.5421 1264.89 18.0791C1263.97 18.3413 1263.13 18.785 1262.39 19.4102C1261.65 20.0347 1261.06 20.7869 1260.61 21.6669Z" fill="white"/>
<rect x="1306" y="6" width="38" height="38" rx="19" fill="#6F88FF"/>
<g clip-path="url(#clip3_4215_185911)">
<path d="M1312.85 26.5297L1312.21 25.5812L1313.85 24.5291L1316.83 21.5183L1321.82 24.0821L1321.15 25.0815L1317.08 22.9974L1314.61 25.4667L1312.85 26.5297H1312.85ZM1313.5 31.4794L1312.76 30.5945L1313.99 29.6678L1317.11 24.9889L1320.93 26.1354L1320.47 27.3547L1317.6 26.3953L1314.9 30.4691L1313.5 31.4794H1313.5ZM1321.68 23.5298L1318.62 19.3305L1316.49 20.6025L1315.81 19.6013L1318.96 17.737L1322.72 22.9265L1321.67 23.5316L1321.68 23.5298ZM1318.66 34.9282L1317.56 34.4485C1317.96 33.4836 1318.3 32.4915 1318.56 31.474C1318.82 30.4564 1319.04 29.308 1319.2 28.0306L1320.55 27.6872L1320.84 28.8955L1320.27 29.0409C1320.13 30.0058 1319.93 30.9761 1319.68 31.9482C1319.43 32.9203 1319.09 33.9143 1318.66 34.9282H1318.66ZM1324.54 30.9379C1323.71 30.9379 1322.96 30.7617 1322.28 30.4073C1321.61 30.053 1321.07 29.5751 1320.67 28.9755C1320.27 28.374 1320.07 27.7054 1320.07 26.9695C1320.07 26.3517 1320.22 25.7666 1320.52 25.2142C1320.82 24.6618 1321.24 24.1948 1321.77 23.8132C1321.08 22.7302 1320.73 21.4837 1320.73 20.0737C1320.73 18.9489 1320.96 17.9332 1321.41 17.0265C1321.86 16.1198 1322.47 15.4002 1323.23 14.8642C1324 14.33 1324.85 14.061 1325.8 14.061C1326.74 14.061 1327.59 14.3281 1328.35 14.8642C1329.12 15.3984 1329.72 16.1198 1330.17 17.0265C1330.62 17.9332 1330.85 18.9489 1330.85 20.0737C1330.85 21.1221 1330.64 22.1015 1330.24 23.0119C1329.83 23.9222 1329.27 24.6582 1328.56 25.2214C1328.85 25.7775 1329 26.3607 1329 26.9713C1329 27.6999 1328.81 28.365 1328.41 28.9664C1328.01 29.5679 1327.47 30.0476 1326.8 30.4037C1326.12 30.7617 1325.37 30.9397 1324.54 30.9397V30.9379ZM1321.9 26.219C1322.04 26.219 1322.15 26.1554 1322.25 26.0264C1322.35 25.8974 1322.4 25.7575 1322.4 25.6048C1322.4 25.4795 1322.37 25.3686 1322.3 25.2723C1322.24 25.1742 1322.14 25.127 1322.02 25.127C1321.89 25.127 1321.77 25.1887 1321.67 25.3141C1321.57 25.4395 1321.52 25.5812 1321.52 25.7411C1321.52 25.8665 1321.55 25.9773 1321.62 26.0736C1321.68 26.1718 1321.78 26.219 1321.9 26.219ZM1323.4 27.3965C1323.6 27.3965 1323.77 27.3038 1323.89 27.1203C1324.02 26.9367 1324.09 26.7296 1324.09 26.5007C1324.09 26.299 1324.03 26.1263 1323.92 25.9792C1323.82 25.8338 1323.68 25.7611 1323.52 25.7611C1323.32 25.7611 1323.16 25.852 1323.03 26.0319C1322.89 26.2117 1322.83 26.4171 1322.83 26.646C1322.83 26.8404 1322.89 27.0149 1323 27.1675C1323.12 27.3201 1323.25 27.3965 1323.4 27.3965V27.3965ZM1323.38 21.551C1323.63 21.5019 1323.73 21.3493 1323.68 21.0931L1323.58 20.4571C1323.56 20.3463 1323.51 20.2609 1323.43 20.2009C1323.34 20.1409 1323.25 20.1191 1323.16 20.1337C1322.93 20.1682 1322.83 20.3117 1322.86 20.5607L1322.96 21.2166C1322.97 21.3275 1323.02 21.4165 1323.1 21.4819C1323.19 21.5473 1323.28 21.571 1323.39 21.5492L1323.38 21.551ZM1324.36 18.5819C1324.6 18.5819 1324.72 18.4456 1324.72 18.1749L1324.7 17.6116C1324.7 17.4935 1324.67 17.4008 1324.6 17.3354C1324.52 17.27 1324.44 17.2391 1324.34 17.2463C1324.1 17.2609 1323.98 17.3844 1323.98 17.6207V18.184C1323.98 18.4474 1324.11 18.5801 1324.36 18.5801L1324.36 18.5819ZM1325.52 27.5309C1325.7 27.5309 1325.85 27.451 1325.97 27.2911C1326.09 27.1312 1326.15 26.9367 1326.15 26.7078C1326.15 26.4788 1326.09 26.2953 1325.97 26.1354C1325.85 25.9755 1325.7 25.8956 1325.52 25.8956C1325.35 25.8956 1325.2 25.9755 1325.08 26.1354C1324.96 26.2953 1324.9 26.4861 1324.9 26.7078C1324.9 26.9295 1324.96 27.1312 1325.08 27.2911C1325.2 27.451 1325.35 27.5309 1325.52 27.5309ZM1325.43 21.5092C1325.67 21.5364 1325.81 21.4147 1325.84 21.144L1325.89 20.508C1325.91 20.3899 1325.88 20.2936 1325.82 20.2154C1325.76 20.1373 1325.68 20.0973 1325.58 20.0901C1325.35 20.0701 1325.21 20.1809 1325.18 20.4226L1325.09 21.0695C1325.06 21.3329 1325.17 21.4801 1325.43 21.5074V21.5092ZM1329.2 35.9385C1328.92 35.2516 1328.68 34.6048 1328.51 34.0015C1328.33 33.3964 1328.18 32.804 1328.07 32.219C1327.96 31.6357 1327.85 31.027 1327.76 30.3964L1326.59 29.8749L1327.12 28.7284L1328.86 29.5406C1328.97 30.2765 1329.08 30.9579 1329.18 31.583C1329.29 32.2081 1329.43 32.8295 1329.6 33.4473C1329.77 34.0651 1330.01 34.7356 1330.31 35.4588L1329.21 35.9385H1329.2ZM1327.05 18.9253C1327.3 18.9871 1327.45 18.8908 1327.51 18.6328L1327.69 17.8623C1327.75 17.6261 1327.66 17.4771 1327.42 17.4135C1327.2 17.359 1327.05 17.4517 1326.99 17.6952L1326.79 18.4456C1326.76 18.5565 1326.77 18.6582 1326.82 18.7472C1326.87 18.8381 1326.95 18.8962 1327.05 18.9235L1327.05 18.9253ZM1327.36 26.8332C1327.5 26.8332 1327.61 26.775 1327.69 26.6606C1327.77 26.5461 1327.81 26.4116 1327.81 26.259C1327.81 26.0845 1327.76 25.9337 1327.65 25.8065C1327.55 25.6793 1327.43 25.6139 1327.3 25.6139C1327.16 25.6139 1327.05 25.6703 1326.97 25.7811C1326.89 25.8919 1326.84 26.0246 1326.84 26.1772C1326.84 26.3517 1326.9 26.5043 1327 26.6351C1327.11 26.7659 1327.22 26.8332 1327.36 26.8332V26.8332ZM1327.42 22.0816C1327.65 22.1997 1327.82 22.1379 1327.93 21.8944L1328.28 21.144C1328.38 20.935 1328.32 20.7733 1328.12 20.6552C1327.92 20.5371 1327.75 20.597 1327.63 20.8314L1327.25 21.5601C1327.14 21.789 1327.2 21.9634 1327.42 22.0816H1327.42ZM1337.23 29.3752L1335.54 28.563L1331.79 24.9889L1328.5 26.1354L1328.06 25.0197L1332.09 23.6133L1336.36 27.6872L1337.79 28.374L1337.23 29.3734V29.3752ZM1336.04 25.0306L1331.82 22.2596L1329.07 24.4783L1328.37 23.488L1331.73 20.7587L1336.63 23.9895H1337.79V25.0306H1336.03H1336.04ZM1334.66 34.4067L1333.13 33.1675L1329.99 27.7072L1328.78 27.8435L1328.39 26.7078L1330.63 26.4153L1334.03 32.3334L1335.44 33.6254L1334.66 34.4067H1334.66Z" fill="#0332B5"/>
</g>
<rect x="1306" y="6" width="38" height="38" rx="19" stroke="black" stroke-width="2"/>
<path d="M1354.25 26.15C1354.25 25.3847 1354.15 24.834 1353.96 24.498C1353.77 24.1527 1353.41 23.98 1352.89 23.98C1352.71 23.98 1352.5 23.994 1352.28 24.022C1352.05 24.05 1351.88 24.0733 1351.77 24.092V30H1350.08V22.916C1350.4 22.8227 1350.83 22.734 1351.35 22.65C1351.88 22.566 1352.44 22.524 1353.03 22.524C1353.54 22.524 1353.95 22.5893 1354.26 22.72C1354.59 22.8507 1354.86 23.0233 1355.08 23.238C1355.18 23.1633 1355.31 23.084 1355.47 23C1355.63 22.916 1355.8 22.8413 1356 22.776C1356.2 22.7013 1356.4 22.6407 1356.62 22.594C1356.84 22.5473 1357.06 22.524 1357.29 22.524C1357.86 22.524 1358.32 22.608 1358.69 22.776C1359.06 22.9347 1359.35 23.1633 1359.56 23.462C1359.77 23.7513 1359.92 24.106 1359.99 24.526C1360.07 24.9367 1360.12 25.3893 1360.12 25.884V30H1358.42V26.15C1358.42 25.3847 1358.33 24.834 1358.14 24.498C1357.96 24.1527 1357.6 23.98 1357.06 23.98C1356.79 23.98 1356.54 24.0267 1356.29 24.12C1356.05 24.204 1355.87 24.288 1355.75 24.372C1355.82 24.6053 1355.87 24.8527 1355.9 25.114C1355.93 25.3753 1355.94 25.6553 1355.94 25.954V30H1354.25V26.15ZM1364.77 28.81C1365.29 28.81 1365.69 28.782 1365.96 28.726V26.85C1365.86 26.822 1365.73 26.794 1365.55 26.766C1365.37 26.738 1365.18 26.724 1364.96 26.724C1364.78 26.724 1364.59 26.738 1364.39 26.766C1364.2 26.794 1364.03 26.8453 1363.87 26.92C1363.72 26.9947 1363.6 27.102 1363.51 27.242C1363.41 27.3727 1363.37 27.5407 1363.37 27.746C1363.37 28.1473 1363.49 28.4273 1363.75 28.586C1364 28.7353 1364.34 28.81 1364.77 28.81ZM1364.63 22.496C1365.19 22.496 1365.66 22.566 1366.04 22.706C1366.42 22.846 1366.73 23.042 1366.95 23.294C1367.18 23.546 1367.35 23.854 1367.44 24.218C1367.54 24.5727 1367.6 24.9647 1367.6 25.394V29.832C1367.33 29.888 1366.94 29.9533 1366.41 30.028C1365.88 30.112 1365.29 30.154 1364.63 30.154C1364.19 30.154 1363.79 30.112 1363.42 30.028C1363.06 29.944 1362.75 29.8087 1362.49 29.622C1362.23 29.4353 1362.03 29.1927 1361.88 28.894C1361.74 28.5953 1361.67 28.2267 1361.67 27.788C1361.67 27.368 1361.75 27.0133 1361.91 26.724C1362.08 26.4347 1362.3 26.2013 1362.58 26.024C1362.86 25.8373 1363.19 25.7067 1363.55 25.632C1363.92 25.548 1364.31 25.506 1364.71 25.506C1364.9 25.506 1365.09 25.52 1365.3 25.548C1365.5 25.5667 1365.72 25.604 1365.96 25.66V25.38C1365.96 25.184 1365.93 24.9973 1365.89 24.82C1365.84 24.6427 1365.76 24.4887 1365.64 24.358C1365.52 24.218 1365.37 24.1107 1365.17 24.036C1364.99 23.9613 1364.75 23.924 1364.46 23.924C1364.07 23.924 1363.71 23.952 1363.38 24.008C1363.05 24.064 1362.79 24.1293 1362.58 24.204L1362.37 22.832C1362.59 22.7573 1362.9 22.6827 1363.31 22.608C1363.72 22.5333 1364.16 22.496 1364.63 22.496ZM1373.84 24.204C1373.7 24.1573 1373.51 24.1107 1373.25 24.064C1373.01 24.008 1372.73 23.98 1372.4 23.98C1372.21 23.98 1372.01 23.9987 1371.8 24.036C1371.59 24.0733 1371.45 24.106 1371.36 24.134V30H1369.67V23.028C1370 22.9067 1370.4 22.7947 1370.89 22.692C1371.38 22.58 1371.93 22.524 1372.53 22.524C1372.64 22.524 1372.77 22.5333 1372.92 22.552C1373.07 22.5613 1373.22 22.58 1373.37 22.608C1373.52 22.6267 1373.66 22.6547 1373.8 22.692C1373.94 22.72 1374.05 22.748 1374.14 22.776L1373.84 24.204ZM1377.15 28.782C1377.6 28.782 1377.92 28.7307 1378.13 28.628C1378.34 28.516 1378.44 28.3293 1378.44 28.068C1378.44 27.8253 1378.33 27.6247 1378.1 27.466C1377.89 27.3073 1377.53 27.1347 1377.02 26.948C1376.72 26.836 1376.43 26.7193 1376.17 26.598C1375.92 26.4673 1375.7 26.318 1375.51 26.15C1375.33 25.982 1375.18 25.7813 1375.06 25.548C1374.96 25.3053 1374.91 25.0113 1374.91 24.666C1374.91 23.994 1375.16 23.4667 1375.65 23.084C1376.15 22.692 1376.82 22.496 1377.67 22.496C1378.1 22.496 1378.51 22.538 1378.9 22.622C1379.29 22.6967 1379.59 22.7713 1379.78 22.846L1379.47 24.218C1379.29 24.134 1379.05 24.0593 1378.76 23.994C1378.47 23.9193 1378.13 23.882 1377.75 23.882C1377.41 23.882 1377.13 23.9427 1376.91 24.064C1376.7 24.176 1376.59 24.3533 1376.59 24.596C1376.59 24.7173 1376.61 24.8247 1376.65 24.918C1376.69 25.0113 1376.77 25.1 1376.87 25.184C1376.97 25.2587 1377.11 25.338 1377.28 25.422C1377.44 25.4967 1377.65 25.576 1377.89 25.66C1378.29 25.8093 1378.63 25.9587 1378.91 26.108C1379.19 26.248 1379.42 26.4113 1379.6 26.598C1379.79 26.7753 1379.92 26.9807 1380.01 27.214C1380.09 27.4473 1380.13 27.7273 1380.13 28.054C1380.13 28.754 1379.87 29.286 1379.35 29.65C1378.83 30.0047 1378.1 30.182 1377.14 30.182C1376.49 30.182 1375.97 30.126 1375.58 30.014C1375.19 29.9113 1374.91 29.8273 1374.76 29.762L1375.05 28.348C1375.3 28.4507 1375.6 28.5487 1375.95 28.642C1376.3 28.7353 1376.7 28.782 1377.15 28.782ZM1386.57 26.374C1386.57 25.618 1386.4 25.03 1386.05 24.61C1385.72 24.19 1385.17 23.98 1384.42 23.98C1384.26 23.98 1384.09 23.9893 1383.91 24.008C1383.74 24.0173 1383.58 24.0453 1383.41 24.092V28.278C1383.56 28.3807 1383.75 28.4787 1384 28.572C1384.25 28.656 1384.51 28.698 1384.79 28.698C1385.41 28.698 1385.86 28.488 1386.14 28.068C1386.43 27.648 1386.57 27.0833 1386.57 26.374ZM1388.31 26.346C1388.31 26.906 1388.23 27.4193 1388.08 27.886C1387.94 28.3527 1387.74 28.754 1387.47 29.09C1387.2 29.426 1386.86 29.6873 1386.45 29.874C1386.05 30.0607 1385.59 30.154 1385.07 30.154C1384.73 30.154 1384.41 30.112 1384.12 30.028C1383.83 29.944 1383.6 29.8507 1383.41 29.748V32.59H1381.71V22.916C1382.06 22.8227 1382.48 22.734 1382.99 22.65C1383.49 22.566 1384.02 22.524 1384.58 22.524C1385.16 22.524 1385.68 22.6127 1386.14 22.79C1386.6 22.9673 1386.98 23.224 1387.3 23.56C1387.63 23.8867 1387.87 24.288 1388.04 24.764C1388.22 25.2307 1388.31 25.758 1388.31 26.346ZM1394.23 24.204C1394.09 24.1573 1393.89 24.1107 1393.64 24.064C1393.4 24.008 1393.11 23.98 1392.78 23.98C1392.6 23.98 1392.4 23.9987 1392.18 24.036C1391.98 24.0733 1391.83 24.106 1391.75 24.134V30H1390.05V23.028C1390.38 22.9067 1390.79 22.7947 1391.27 22.692C1391.77 22.58 1392.31 22.524 1392.91 22.524C1393.02 22.524 1393.15 22.5333 1393.3 22.552C1393.45 22.5613 1393.6 22.58 1393.75 22.608C1393.9 22.6267 1394.04 22.6547 1394.18 22.692C1394.32 22.72 1394.44 22.748 1394.52 22.776L1394.23 24.204ZM1397.41 30H1395.72V22.678H1397.41V30ZM1397.59 20.536C1397.59 20.8533 1397.49 21.1053 1397.28 21.292C1397.08 21.4787 1396.84 21.572 1396.56 21.572C1396.27 21.572 1396.02 21.4787 1395.81 21.292C1395.61 21.1053 1395.51 20.8533 1395.51 20.536C1395.51 20.2093 1395.61 19.9527 1395.81 19.766C1396.02 19.5793 1396.27 19.486 1396.56 19.486C1396.84 19.486 1397.08 19.5793 1397.28 19.766C1397.49 19.9527 1397.59 20.2093 1397.59 20.536ZM1401.45 30C1400.98 29.0387 1400.5 27.9373 1400 26.696C1399.52 25.4453 1399.08 24.106 1398.67 22.678H1400.48C1400.58 23.0887 1400.7 23.532 1400.83 24.008C1400.97 24.4747 1401.11 24.946 1401.26 25.422C1401.42 25.8887 1401.58 26.346 1401.74 26.794C1401.91 27.2327 1402.06 27.6293 1402.2 27.984C1402.34 27.6293 1402.49 27.2327 1402.65 26.794C1402.81 26.346 1402.96 25.8887 1403.11 25.422C1403.27 24.946 1403.42 24.4747 1403.56 24.008C1403.7 23.532 1403.82 23.0887 1403.92 22.678H1405.67C1405.27 24.106 1404.82 25.4453 1404.33 26.696C1403.84 27.9373 1403.37 29.0387 1402.9 30H1401.45ZM1406.37 26.374C1406.37 25.73 1406.46 25.1653 1406.65 24.68C1406.85 24.1947 1407.1 23.7933 1407.42 23.476C1407.74 23.1493 1408.1 22.9067 1408.51 22.748C1408.92 22.58 1409.34 22.496 1409.77 22.496C1410.78 22.496 1411.56 22.8087 1412.12 23.434C1412.69 24.0593 1412.98 24.9927 1412.98 26.234C1412.98 26.3273 1412.97 26.4347 1412.96 26.556C1412.96 26.668 1412.96 26.7707 1412.95 26.864H1408.12C1408.17 27.452 1408.37 27.9093 1408.74 28.236C1409.11 28.5533 1409.65 28.712 1410.35 28.712C1410.76 28.712 1411.13 28.6747 1411.47 28.6C1411.81 28.5253 1412.08 28.446 1412.28 28.362L1412.5 29.748C1412.41 29.7947 1412.28 29.846 1412.11 29.902C1411.95 29.9487 1411.76 29.9907 1411.55 30.028C1411.34 30.0747 1411.12 30.112 1410.88 30.14C1410.63 30.168 1410.39 30.182 1410.14 30.182C1409.49 30.182 1408.93 30.0887 1408.46 29.902C1407.98 29.706 1407.59 29.44 1407.28 29.104C1406.97 28.7587 1406.74 28.3573 1406.59 27.9C1406.44 27.4333 1406.37 26.9247 1406.37 26.374ZM1411.28 25.618C1411.28 25.3847 1411.25 25.1653 1411.19 24.96C1411.12 24.7453 1411.02 24.5633 1410.89 24.414C1410.77 24.2553 1410.62 24.134 1410.43 24.05C1410.25 23.9567 1410.04 23.91 1409.79 23.91C1409.52 23.91 1409.3 23.9613 1409.1 24.064C1408.9 24.1573 1408.74 24.2833 1408.6 24.442C1408.46 24.6007 1408.36 24.7827 1408.29 24.988C1408.21 25.1933 1408.16 25.4033 1408.13 25.618H1411.28ZM1414.69 20.746L1416.38 20.466V22.678H1418.99V24.092H1416.38V27.074C1416.38 27.662 1416.48 28.082 1416.66 28.334C1416.85 28.586 1417.17 28.712 1417.62 28.712C1417.92 28.712 1418.19 28.6793 1418.43 28.614C1418.67 28.5487 1418.86 28.488 1419 28.432L1419.28 29.776C1419.09 29.86 1418.83 29.944 1418.51 30.028C1418.19 30.1213 1417.82 30.168 1417.39 30.168C1416.87 30.168 1416.43 30.098 1416.08 29.958C1415.73 29.818 1415.45 29.6173 1415.25 29.356C1415.04 29.0853 1414.9 28.7633 1414.82 28.39C1414.73 28.0073 1414.69 27.5733 1414.69 27.088V20.746Z" fill="white"/>
</g>
</g>
<defs>
<clipPath id="clip0_4215_185911">
<rect width="1440" height="249" fill="white"/>
</clipPath>
<clipPath id="clip1_4215_185911">
<rect width="1440" height="50" fill="white"/>
</clipPath>
<clipPath id="clip2_4215_185911">
<rect width="172.665" height="30.888" fill="white" transform="translate(20 8.78369)"/>
</clipPath>
<clipPath id="clip3_4215_185911">
<rect width="25.7812" height="25.7812" fill="white" transform="translate(1312.11 12.1094)"/>
</clipPath>
</defs>
</svg>
