<svg width="24" height="24" viewBox="0 0 24 24" fill="none" xmlns="http://www.w3.org/2000/svg">
<path d="M11.0888 13.2204C11.4436 13.558 11.4436 14.112 11.0888 14.4496C10.7512 14.7871 10.1972 14.7871 9.85965 14.4496C8.1718 12.7617 8.1718 10.0179 9.85965 8.33L12.9238 5.26589C14.6116 3.57804 17.3555 3.57804 19.0433 5.26589C20.7312 6.95375 20.7312 9.69759 19.0433 11.3854L17.7536 12.6751C17.7623 11.9654 17.6497 11.2556 17.4074 10.5805L17.8142 10.165C18.8356 9.15229 18.8356 7.50771 17.8142 6.495C16.8015 5.47363 15.1569 5.47363 14.1442 6.495L11.0888 9.55045C10.0674 10.5632 10.0674 12.2077 11.0888 13.2204ZM13.5297 9.55045C13.8672 9.21288 14.4212 9.21288 14.7588 9.55045C16.4466 11.2383 16.4466 13.9821 14.7588 15.67L11.6947 18.7341C10.0068 20.422 7.26295 20.422 5.5751 18.7341C3.88724 17.0463 3.88724 14.3024 5.5751 12.6146L6.86479 11.3249C6.85613 12.0346 6.96866 12.7444 7.21102 13.4282L6.8042 13.835C5.78283 14.8477 5.78283 16.4923 6.8042 17.505C7.81691 18.5264 9.46149 18.5264 10.4742 17.505L13.5297 14.4496C14.551 13.4368 14.551 11.7923 13.5297 10.7796C13.1748 10.442 13.1748 9.88802 13.5297 9.55045Z" fill="#0060A0"/>
</svg>
