<svg width="767" height="247" viewBox="0 0 767 247" fill="none" xmlns="http://www.w3.org/2000/svg">
<rect width="767" height="247" fill="white"/>
<path fill-rule="evenodd" clip-rule="evenodd" d="M259.5 53C233.3 53 212 74.3 212 100.5C212 126.7 233.3 148 259.5 148C285.7 148 307 126.7 307 100.5C307 74.3 285.7 53 259.5 53ZM290.2 125.9L280.57 116.27L280.615 120.75L276.547 122.947L284.8 131.2C277.6 137.2 268.6 140.4 259.4 140.4C237.5 140.4 219.6 122.5 219.6 100.5C219.6 91.3 222.9 82.3 228.8 75.1L239.431 85.6911L243.633 79.2482L234.1 69.8C241.3 63.8 250.3 60.6 259.5 60.6C281.5 60.6 299.4 78.5 299.4 100.5C299.4 109.7 296.2 118.7 290.2 125.9ZM274.579 117.191L272.12 118.52L262.353 123.796L243.587 119.463L243.126 91.0089L249.926 80.5832L250.051 75.5383L269.875 78.7628L269.724 83.6573L274.293 89.2337L274.517 111.132L274.579 117.191ZM269.661 116.061L271.429 115.17L271.453 112.97L271.585 100.703C269.489 104.569 266.881 105.572 264.063 105.371L263.907 118.961L269.661 116.061ZM246.762 103.275L247.068 116.87L260.748 119.959L260.587 104.654C259.627 104.359 258.658 104.007 257.69 103.655C253.771 102.231 249.883 100.818 246.762 103.275ZM246.947 91.3851L262.042 93.9476L266.575 84.244L252.975 81.9823L246.947 91.3851Z" fill="url(#paint0_linear)"/>
<path d="M325.844 91.0771H333.59V94.5H321.395V76.0415H325.844V91.0771ZM346.724 91.0517H340.626L339.561 94.5H334.807L341.577 76.0415H345.76L352.581 94.5H347.801L346.724 91.0517ZM341.691 87.6161H345.659L343.668 81.2139L341.691 87.6161ZM369.112 88.25C369.053 89.5346 368.706 90.6714 368.072 91.6602C367.438 92.6406 366.547 93.4013 365.397 93.9422C364.256 94.4831 362.951 94.7536 361.48 94.7536C359.054 94.7536 357.144 93.9633 355.75 92.3828C354.355 90.8024 353.658 88.5711 353.658 85.6891V84.7763C353.658 82.9676 353.971 81.3872 354.596 80.0349C355.23 78.6742 356.138 77.6262 357.322 76.8909C358.505 76.1471 359.874 75.7752 361.429 75.7752C363.669 75.7752 365.469 76.3669 366.83 77.5501C368.191 78.7249 368.964 80.3476 369.15 82.4183H364.713C364.679 81.2942 364.396 80.4871 363.863 79.9969C363.331 79.5067 362.52 79.2616 361.429 79.2616C360.322 79.2616 359.511 79.6757 358.995 80.504C358.48 81.3322 358.209 82.6549 358.184 84.4721V85.7778C358.184 87.7471 358.429 89.1543 358.919 89.9995C359.418 90.8446 360.271 91.2672 361.48 91.2672C362.503 91.2672 363.284 91.0263 363.825 90.5446C364.366 90.0629 364.654 89.298 364.687 88.25H369.112ZM385.846 79.4771H380.306V94.5H375.856V79.4771H370.417V76.0415H385.846V79.4771ZM403.53 85.6511C403.53 87.4513 403.197 89.0444 402.529 90.4305C401.861 91.8166 400.91 92.8857 399.676 93.6379C398.451 94.3817 397.052 94.7536 395.48 94.7536C393.908 94.7536 392.514 94.3944 391.297 93.676C390.08 92.9491 389.129 91.9138 388.444 90.57C387.768 89.2261 387.413 87.6837 387.379 85.9426V84.9031C387.379 83.0944 387.709 81.5013 388.368 80.1237C389.036 78.7376 389.987 77.6684 391.22 76.9162C392.463 76.164 393.874 75.7879 395.455 75.7879C397.018 75.7879 398.413 76.1598 399.638 76.9036C400.864 77.6473 401.815 78.708 402.491 80.0856C403.175 81.4548 403.522 83.0268 403.53 84.8017V85.6511ZM399.005 84.8777C399.005 83.0437 398.696 81.6534 398.079 80.7068C397.471 79.7518 396.596 79.2743 395.455 79.2743C393.224 79.2743 392.045 80.9477 391.918 84.2946L391.905 85.6511C391.905 87.4597 392.205 88.85 392.805 89.822C393.405 90.7939 394.297 91.2799 395.48 91.2799C396.604 91.2799 397.471 90.8024 398.079 89.8473C398.688 88.8923 398.996 87.5189 399.005 85.7271V84.8777ZM415.865 89.5938C415.865 88.943 415.633 88.4359 415.168 88.0725C414.711 87.7091 413.904 87.333 412.746 86.9442C411.589 86.5554 410.642 86.1793 409.907 85.8159C407.515 84.6411 406.319 83.0268 406.319 80.973C406.319 79.9504 406.615 79.0503 407.206 78.2727C407.806 77.4867 408.652 76.8782 409.742 76.4472C410.832 76.0077 412.058 75.7879 413.418 75.7879C414.745 75.7879 415.933 76.0246 416.981 76.4979C418.037 76.9712 418.857 77.6473 419.44 78.5263C420.023 79.3968 420.315 80.3941 420.315 81.5182H415.878C415.878 80.766 415.645 80.1828 415.181 79.7687C414.724 79.3545 414.103 79.1475 413.317 79.1475C412.522 79.1475 411.893 79.325 411.428 79.6799C410.972 80.0265 410.743 80.4702 410.743 81.0111C410.743 81.4844 410.997 81.9154 411.504 82.3042C412.011 82.6845 412.903 83.0817 414.179 83.4959C415.455 83.9016 416.503 84.3411 417.323 84.8143C419.318 85.9638 420.315 87.5485 420.315 89.5684C420.315 91.1827 419.706 92.4505 418.489 93.3717C417.272 94.2929 415.603 94.7536 413.482 94.7536C411.986 94.7536 410.629 94.4873 409.412 93.9549C408.204 93.414 407.291 92.6787 406.674 91.749C406.065 90.8108 405.761 89.7332 405.761 88.5162H410.224C410.224 89.505 410.477 90.2361 410.984 90.7094C411.5 91.1743 412.332 91.4067 413.482 91.4067C414.217 91.4067 414.796 91.2503 415.219 90.9376C415.65 90.6164 415.865 90.1685 415.865 89.5938ZM434.564 86.6779H427.566V91.0771H435.832V94.5H423.116V76.0415H435.857V79.4771H427.566V83.3691H434.564V86.6779ZM333.02 117.147H325.844V124.5H321.395V106.041H333.742V109.477H325.844V113.724H333.02V117.147ZM342.971 117.984H340.562V124.5H336.113V106.041H343.377C345.566 106.041 347.277 106.527 348.511 107.499C349.745 108.471 350.362 109.845 350.362 111.62C350.362 112.904 350.1 113.969 349.576 114.814C349.061 115.66 348.249 116.344 347.142 116.868L350.996 124.31V124.5H346.229L342.971 117.984ZM340.562 114.548H343.377C344.222 114.548 344.856 114.328 345.279 113.889C345.71 113.441 345.925 112.82 345.925 112.025C345.925 111.231 345.71 110.61 345.279 110.162C344.848 109.705 344.214 109.477 343.377 109.477H340.562V114.548ZM365.017 116.678H358.019V121.077H366.285V124.5H353.569V106.041H366.31V109.477H358.019V113.369H365.017V116.678ZM380.065 116.678H373.067V121.077H381.332V124.5H368.617V106.041H381.358V109.477H373.067V113.369H380.065V116.678Z" fill="black"/>
<path fill-rule="evenodd" clip-rule="evenodd" d="M80.5 53C54.3 53 33 74.3 33 100.5C33 126.7 54.3 148 80.5 148C106.7 148 128 126.7 128 100.5C128 74.3 106.7 53 80.5 53ZM111.2 125.9L101.57 116.27L101.615 120.75L97.5472 122.947L105.8 131.2C98.6 137.2 89.6 140.4 80.4 140.4C58.5 140.4 40.6 122.5 40.6 100.5C40.6 91.3 43.9 82.3 49.8 75.1L60.431 85.6911L64.6333 79.2482L55.1 69.8C62.3 63.8 71.3 60.6 80.5 60.6C102.5 60.6 120.4 78.5 120.4 100.5C120.4 109.7 117.2 118.7 111.2 125.9ZM95.5787 117.191L93.1196 118.52L83.3527 123.796L64.5873 119.463L64.126 91.0089L70.926 80.5832L71.0514 75.5383L90.8749 78.7628L90.7244 83.6573L95.2929 89.2337L95.5168 111.132L95.5787 117.191ZM90.6613 116.061L92.4294 115.17L92.4531 112.97L92.5849 100.703C90.4887 104.569 87.881 105.572 85.0627 105.371L84.9073 118.961L90.6613 116.061ZM67.7617 103.275L68.0676 116.87L81.7479 119.959L81.5875 104.654C80.6273 104.359 79.6578 104.007 78.6902 103.655C74.7712 102.231 70.8826 100.818 67.7617 103.275ZM67.9472 91.3851L83.0418 93.9476L87.5751 84.244L73.975 81.9823L67.9472 91.3851Z" fill="url(#paint1_linear)"/>
<path d="M28.2193 175.577H35.9653V179H23.7695V160.541H28.2193V175.577ZM49.0987 175.552H43.0008L41.9359 179H37.1818L43.9516 160.541H48.1352L54.9557 179H50.1763L49.0987 175.552ZM44.0657 172.116H48.0338L46.0434 165.714L44.0657 172.116ZM71.4868 172.75C71.4276 174.035 71.0811 175.171 70.4472 176.16C69.8133 177.141 68.9217 177.901 67.7722 178.442C66.6313 178.983 65.3255 179.254 63.8549 179.254C61.4292 179.254 59.5191 178.463 58.1246 176.883C56.7301 175.302 56.0328 173.071 56.0328 170.189V169.276C56.0328 167.468 56.3455 165.887 56.971 164.535C57.6048 163.174 58.5134 162.126 59.6966 161.391C60.8799 160.647 62.249 160.275 63.8042 160.275C66.0439 160.275 67.8441 160.867 69.2048 162.05C70.5655 163.225 71.3389 164.848 71.5248 166.918H67.0877C67.0538 165.794 66.7707 164.987 66.2383 164.497C65.7058 164.007 64.8944 163.762 63.8042 163.762C62.697 163.762 61.8856 164.176 61.3701 165.004C60.8545 165.832 60.5841 167.155 60.5587 168.972V170.278C60.5587 172.247 60.8038 173.654 61.294 174.499C61.7927 175.345 62.6463 175.767 63.8549 175.767C64.8775 175.767 65.6593 175.526 66.2002 175.045C66.7411 174.563 67.0285 173.798 67.0623 172.75H71.4868ZM88.2206 163.977H82.6805V179H78.2307V163.977H72.792V160.541H88.2206V163.977ZM105.905 170.151C105.905 171.951 105.571 173.544 104.904 174.931C104.236 176.317 103.285 177.386 102.051 178.138C100.826 178.882 99.4271 179.254 97.8551 179.254C96.283 179.254 94.8885 178.894 93.6715 178.176C92.4544 177.449 91.5036 176.414 90.819 175.07C90.1429 173.726 89.7879 172.184 89.7541 170.443V169.403C89.7541 167.594 90.0837 166.001 90.743 164.624C91.4106 163.238 92.3615 162.168 93.5954 161.416C94.8378 160.664 96.2492 160.288 97.8297 160.288C99.3933 160.288 100.788 160.66 102.013 161.404C103.239 162.147 104.19 163.208 104.866 164.586C105.55 165.955 105.897 167.527 105.905 169.302V170.151ZM101.379 169.378C101.379 167.544 101.071 166.153 100.454 165.207C99.8454 164.252 98.9707 163.774 97.8297 163.774C95.5985 163.774 94.4194 165.448 94.2927 168.795L94.28 170.151C94.28 171.96 94.58 173.35 95.1801 174.322C95.7802 175.294 96.6718 175.78 97.8551 175.78C98.9791 175.78 99.8454 175.302 100.454 174.347C101.062 173.392 101.371 172.019 101.379 170.227V169.378ZM118.24 174.094C118.24 173.443 118.008 172.936 117.543 172.572C117.086 172.209 116.279 171.833 115.121 171.444C113.964 171.055 113.017 170.679 112.282 170.316C109.89 169.141 108.694 167.527 108.694 165.473C108.694 164.45 108.99 163.55 109.581 162.773C110.181 161.987 111.027 161.378 112.117 160.947C113.207 160.508 114.433 160.288 115.793 160.288C117.12 160.288 118.308 160.525 119.356 160.998C120.412 161.471 121.232 162.147 121.815 163.026C122.398 163.897 122.69 164.894 122.69 166.018H118.253C118.253 165.266 118.02 164.683 117.555 164.269C117.099 163.855 116.478 163.647 115.692 163.647C114.897 163.647 114.268 163.825 113.803 164.18C113.347 164.526 113.118 164.97 113.118 165.511C113.118 165.984 113.372 166.415 113.879 166.804C114.386 167.185 115.278 167.582 116.554 167.996C117.83 168.402 118.878 168.841 119.698 169.314C121.693 170.464 122.69 172.048 122.69 174.068C122.69 175.683 122.081 176.95 120.864 177.872C119.647 178.793 117.978 179.254 115.857 179.254C114.361 179.254 113.004 178.987 111.787 178.455C110.579 177.914 109.666 177.179 109.049 176.249C108.44 175.311 108.136 174.233 108.136 173.016H112.599C112.599 174.005 112.852 174.736 113.359 175.209C113.875 175.674 114.707 175.907 115.857 175.907C116.592 175.907 117.171 175.75 117.594 175.438C118.025 175.116 118.24 174.669 118.24 174.094ZM136.939 171.178H129.941V175.577H138.207V179H125.491V160.541H138.232V163.977H129.941V167.869H136.939V171.178ZM62.6444 201.647H55.4689V209H51.0191V190.541H63.367V193.977H55.4689V198.224H62.6444V201.647ZM72.5958 202.484H70.1871V209H65.7372V190.541H73.0015C75.1905 190.541 76.9019 191.027 78.1359 191.999C79.3698 192.971 79.9868 194.345 79.9868 196.12C79.9868 197.404 79.7248 198.469 79.2008 199.314C78.6853 200.16 77.8739 200.844 76.7667 201.368L80.6207 208.81V209H75.8539L72.5958 202.484ZM70.1871 199.048H73.0015C73.8467 199.048 74.4805 198.828 74.9031 198.389C75.3342 197.941 75.5497 197.32 75.5497 196.525C75.5497 195.731 75.3342 195.11 74.9031 194.662C74.4721 194.205 73.8382 193.977 73.0015 193.977H70.1871V199.048ZM94.6416 201.178H87.6435V205.577H95.9093V209H83.1937V190.541H95.9347V193.977H87.6435V197.869H94.6416V201.178ZM109.689 201.178H102.691V205.577H110.957V209H98.2415V190.541H110.982V193.977H102.691V197.869H109.689V201.178Z" fill="black"/>
<defs>
<linearGradient id="paint0_linear" x1="227" y1="64.5628" x2="288.5" y2="137.563" gradientUnits="userSpaceOnUse">
<stop stop-color="#66DAFF"/>
<stop offset="1" stop-color="#05C2FF"/>
</linearGradient>
<linearGradient id="paint1_linear" x1="48" y1="64.5628" x2="109.5" y2="137.563" gradientUnits="userSpaceOnUse">
<stop stop-color="#66DAFF"/>
<stop offset="1" stop-color="#05C2FF"/>
</linearGradient>
</defs>
</svg>
