<svg width="552" height="246" viewBox="0 0 552 246" fill="none" xmlns="http://www.w3.org/2000/svg">
<g clip-path="url(#clip0_4928_194000)">
<rect width="552" height="246" fill="white"/>
<path d="M29.458 38.5716C30.8767 38.5716 31.586 38.0863 31.586 37.1156C31.586 36.8169 31.5207 36.5649 31.39 36.3596C31.2687 36.1449 31.1007 35.9629 30.886 35.8136C30.6713 35.6549 30.424 35.5196 30.144 35.4076C29.8733 35.2956 29.584 35.1836 29.276 35.0716C28.9213 34.9503 28.5853 34.8149 28.268 34.6656C27.9507 34.5069 27.6753 34.3249 27.442 34.1196C27.2087 33.9049 27.022 33.6529 26.882 33.3636C26.7513 33.0743 26.686 32.7243 26.686 32.3136C26.686 31.4643 26.9753 30.8016 27.554 30.3256C28.1327 29.8496 28.9307 29.6116 29.948 29.6116C30.536 29.6116 31.068 29.6769 31.544 29.8076C32.0293 29.9289 32.384 30.0643 32.608 30.2136L32.174 31.3196C31.978 31.1983 31.684 31.0816 31.292 30.9696C30.9093 30.8483 30.4613 30.7876 29.948 30.7876C29.6867 30.7876 29.444 30.8156 29.22 30.8716C28.996 30.9276 28.8 31.0116 28.632 31.1236C28.464 31.2356 28.3287 31.3803 28.226 31.5576C28.1327 31.7256 28.086 31.9263 28.086 32.1596C28.086 32.4209 28.1373 32.6403 28.24 32.8176C28.3427 32.9949 28.4873 33.1536 28.674 33.2936C28.8607 33.4243 29.0753 33.5456 29.318 33.6576C29.57 33.7696 29.8453 33.8816 30.144 33.9936C30.564 34.1616 30.9467 34.3296 31.292 34.4976C31.6467 34.6656 31.95 34.8663 32.202 35.0996C32.4633 35.3329 32.664 35.6129 32.804 35.9396C32.944 36.2569 33.014 36.6443 33.014 37.1016C33.014 37.9509 32.7013 38.6043 32.076 39.0616C31.46 39.5189 30.5873 39.7476 29.458 39.7476C29.0753 39.7476 28.7207 39.7196 28.394 39.6636C28.0767 39.6169 27.792 39.5609 27.54 39.4956C27.288 39.4209 27.0687 39.3463 26.882 39.2716C26.7047 39.1876 26.5647 39.1176 26.462 39.0616L26.868 37.9416C27.0827 38.0629 27.4093 38.1983 27.848 38.3476C28.2867 38.4969 28.8233 38.5716 29.458 38.5716ZM37.0352 38.5996C37.3432 38.5996 37.6138 38.5949 37.8472 38.5856C38.0898 38.5669 38.2905 38.5389 38.4492 38.5016V36.3316C38.3558 36.2849 38.2018 36.2476 37.9872 36.2196C37.7818 36.1823 37.5298 36.1636 37.2312 36.1636C37.0352 36.1636 36.8252 36.1776 36.6012 36.2056C36.3865 36.2336 36.1858 36.2943 35.9992 36.3876C35.8218 36.4716 35.6725 36.5929 35.5512 36.7516C35.4298 36.9009 35.3692 37.1016 35.3692 37.3536C35.3692 37.8203 35.5185 38.1469 35.8172 38.3336C36.1158 38.5109 36.5218 38.5996 37.0352 38.5996ZM36.9232 32.0756C37.4458 32.0756 37.8845 32.1456 38.2392 32.2856C38.6032 32.4163 38.8925 32.6076 39.1072 32.8596C39.3312 33.1023 39.4898 33.3963 39.5832 33.7416C39.6765 34.0776 39.7232 34.4509 39.7232 34.8616V39.4116C39.6112 39.4303 39.4525 39.4583 39.2472 39.4956C39.0512 39.5236 38.8272 39.5516 38.5752 39.5796C38.3232 39.6076 38.0478 39.6309 37.7492 39.6496C37.4598 39.6776 37.1705 39.6916 36.8812 39.6916C36.4705 39.6916 36.0925 39.6496 35.7472 39.5656C35.4018 39.4816 35.1032 39.3509 34.8512 39.1736C34.5992 38.9869 34.4032 38.7443 34.2632 38.4456C34.1232 38.1469 34.0532 37.7876 34.0532 37.3676C34.0532 36.9663 34.1325 36.6209 34.2912 36.3316C34.4592 36.0423 34.6832 35.8089 34.9632 35.6316C35.2432 35.4543 35.5698 35.3236 35.9432 35.2396C36.3165 35.1556 36.7085 35.1136 37.1192 35.1136C37.2498 35.1136 37.3852 35.1229 37.5252 35.1416C37.6652 35.1509 37.7958 35.1696 37.9172 35.1976C38.0478 35.2163 38.1598 35.2349 38.2532 35.2536C38.3465 35.2723 38.4118 35.2863 38.4492 35.2956V34.9316C38.4492 34.7169 38.4258 34.5069 38.3792 34.3016C38.3325 34.0869 38.2485 33.9003 38.1272 33.7416C38.0058 33.5736 37.8378 33.4429 37.6232 33.3496C37.4178 33.2469 37.1472 33.1956 36.8112 33.1956C36.3818 33.1956 36.0038 33.2283 35.6772 33.2936C35.3598 33.3496 35.1218 33.4103 34.9632 33.4756L34.8092 32.3976C34.9772 32.3229 35.2572 32.2529 35.6492 32.1876C36.0412 32.1129 36.4658 32.0756 36.9232 32.0756ZM41.8856 32.4676C42.1843 32.3929 42.581 32.3136 43.0756 32.2296C43.5703 32.1456 44.1396 32.1036 44.7836 32.1036C45.3623 32.1036 45.843 32.1876 46.2256 32.3556C46.6083 32.5143 46.9116 32.7429 47.1356 33.0416C47.369 33.3309 47.5323 33.6809 47.6256 34.0916C47.719 34.5023 47.7656 34.9549 47.7656 35.4496V39.5376H46.4636V35.7296C46.4636 35.2816 46.431 34.8989 46.3656 34.5816C46.3096 34.2643 46.2116 34.0076 46.0716 33.8116C45.9316 33.6156 45.745 33.4756 45.5116 33.3916C45.2783 33.2983 44.989 33.2516 44.6436 33.2516C44.5036 33.2516 44.359 33.2563 44.2096 33.2656C44.0603 33.2749 43.9156 33.2889 43.7756 33.3076C43.645 33.3169 43.5236 33.3309 43.4116 33.3496C43.309 33.3683 43.2343 33.3823 43.1876 33.3916V39.5376H41.8856V32.4676ZM51.2267 39.5376H49.9247V32.2576H51.2267V39.5376ZM50.5687 30.9416C50.3354 30.9416 50.1347 30.8669 49.9667 30.7176C49.808 30.5589 49.7287 30.3489 49.7287 30.0876C49.7287 29.8263 49.808 29.6209 49.9667 29.4716C50.1347 29.3129 50.3354 29.2336 50.5687 29.2336C50.802 29.2336 50.998 29.3129 51.1567 29.4716C51.3247 29.6209 51.4087 29.8263 51.4087 30.0876C51.4087 30.3489 51.3247 30.5589 51.1567 30.7176C50.998 30.8669 50.802 30.9416 50.5687 30.9416ZM54.6837 32.2576H57.4417V33.3496H54.6837V36.7096C54.6837 37.0736 54.7117 37.3769 54.7677 37.6196C54.8237 37.8529 54.9077 38.0396 55.0197 38.1796C55.1317 38.3103 55.2717 38.4036 55.4397 38.4596C55.6077 38.5156 55.8037 38.5436 56.0277 38.5436C56.4197 38.5436 56.7324 38.5016 56.9657 38.4176C57.2084 38.3243 57.3764 38.2589 57.4697 38.2216L57.7217 39.2996C57.591 39.3649 57.3624 39.4443 57.0357 39.5376C56.709 39.6403 56.3357 39.6916 55.9157 39.6916C55.421 39.6916 55.0104 39.6309 54.6837 39.5096C54.3664 39.3789 54.1097 39.1876 53.9137 38.9356C53.7177 38.6836 53.5777 38.3756 53.4937 38.0116C53.419 37.6383 53.3817 37.2089 53.3817 36.7236V30.2276L54.6837 30.0036V32.2576ZM60.4005 39.5376H59.0985V32.2576H60.4005V39.5376ZM59.7425 30.9416C59.5092 30.9416 59.3085 30.8669 59.1405 30.7176C58.9818 30.5589 58.9025 30.3489 58.9025 30.0876C58.9025 29.8263 58.9818 29.6209 59.1405 29.4716C59.3085 29.3129 59.5092 29.2336 59.7425 29.2336C59.9758 29.2336 60.1718 29.3129 60.3305 29.4716C60.4985 29.6209 60.5825 29.8263 60.5825 30.0876C60.5825 30.3489 60.4985 30.5589 60.3305 30.7176C60.1718 30.8669 59.9758 30.9416 59.7425 30.9416ZM67.4695 33.2376C67.2735 33.4523 67.0122 33.7556 66.6855 34.1476C66.3682 34.5396 66.0229 34.9736 65.6495 35.4496C65.2855 35.9256 64.9169 36.4249 64.5435 36.9476C64.1795 37.4703 63.8575 37.9696 63.5775 38.4456H67.5815V39.5376H62.0235V38.6696C62.2475 38.2589 62.5229 37.8063 62.8495 37.3116C63.1762 36.8169 63.5169 36.3269 63.8715 35.8416C64.2355 35.3469 64.5855 34.8849 64.9215 34.4556C65.2669 34.0169 65.5655 33.6483 65.8175 33.3496H62.2195V32.2576H67.4695V33.2376ZM68.5636 35.9116C68.5636 35.2676 68.6569 34.7076 68.8436 34.2316C69.0303 33.7463 69.2776 33.3449 69.5856 33.0276C69.8936 32.7103 70.2483 32.4723 70.6496 32.3136C71.0509 32.1549 71.4616 32.0756 71.8816 32.0756C72.8616 32.0756 73.6129 32.3836 74.1356 32.9996C74.6583 33.6063 74.9196 34.5349 74.9196 35.7856C74.9196 35.8416 74.9196 35.9163 74.9196 36.0096C74.9196 36.0936 74.9149 36.1729 74.9056 36.2476H69.9216C69.9776 37.0036 70.1969 37.5776 70.5796 37.9696C70.9623 38.3616 71.5596 38.5576 72.3716 38.5576C72.8289 38.5576 73.2116 38.5203 73.5196 38.4456C73.8369 38.3616 74.0749 38.2823 74.2336 38.2076L74.4156 39.2996C74.2569 39.3836 73.9769 39.4723 73.5756 39.5656C73.1836 39.6589 72.7356 39.7056 72.2316 39.7056C71.5969 39.7056 71.0463 39.6123 70.5796 39.4256C70.1223 39.2296 69.7443 38.9636 69.4456 38.6276C69.1469 38.2916 68.9229 37.8949 68.7736 37.4376C68.6336 36.9709 68.5636 36.4623 68.5636 35.9116ZM73.5616 35.1976C73.5709 34.6096 73.4216 34.1289 73.1136 33.7556C72.8149 33.3729 72.3996 33.1816 71.8676 33.1816C71.5689 33.1816 71.3029 33.2423 71.0696 33.3636C70.8456 33.4756 70.6543 33.6249 70.4956 33.8116C70.3369 33.9983 70.2109 34.2129 70.1176 34.4556C70.0336 34.6983 69.9776 34.9456 69.9496 35.1976H73.5616ZM79.4779 32.1036C79.5899 32.1036 79.7159 32.1129 79.8559 32.1316C80.0053 32.1409 80.1499 32.1596 80.2899 32.1876C80.4299 32.2063 80.5559 32.2296 80.6679 32.2576C80.7893 32.2763 80.8779 32.2949 80.9339 32.3136L80.7099 33.4476C80.6073 33.4103 80.4346 33.3683 80.1919 33.3216C79.9586 33.2656 79.6553 33.2376 79.2819 33.2376C79.0393 33.2376 78.7966 33.2656 78.5539 33.3216C78.3206 33.3683 78.1666 33.4009 78.0919 33.4196V39.5376H76.7899V32.5656C77.0979 32.4536 77.4806 32.3509 77.9379 32.2576C78.3953 32.1549 78.9086 32.1036 79.4779 32.1036Z" fill="#262626"/>
<path d="M94 27.5376C90.1344 27.5376 87 30.672 87 34.5376C87 38.4032 90.1344 41.5376 94 41.5376C97.8656 41.5376 101 38.4032 101 34.5376C101 30.672 97.8656 27.5376 94 27.5376ZM94 40.3501C90.7906 40.3501 88.1875 37.747 88.1875 34.5376C88.1875 31.3282 90.7906 28.7251 94 28.7251C97.2094 28.7251 99.8125 31.3282 99.8125 34.5376C99.8125 37.747 97.2094 40.3501 94 40.3501Z" fill="#767593"/>
<path d="M95.7437 31.486C95.275 31.0751 94.6562 30.8501 94 30.8501C93.3438 30.8501 92.725 31.0767 92.2562 31.486C91.7687 31.9126 91.5 32.486 91.5 33.1001V33.2188C91.5 33.2876 91.5562 33.3438 91.625 33.3438H92.375C92.4438 33.3438 92.5 33.2876 92.5 33.2188V33.1001C92.5 32.411 93.1734 31.8501 94 31.8501C94.8266 31.8501 95.5 32.411 95.5 33.1001C95.5 33.586 95.1563 34.0313 94.6234 34.236C94.2922 34.3626 94.0109 34.5845 93.8094 34.8751C93.6047 35.172 93.4984 35.5282 93.4984 35.8892V36.2251C93.4984 36.2938 93.5547 36.3501 93.6234 36.3501H94.3734C94.4422 36.3501 94.4984 36.2938 94.4984 36.2251V35.8704C94.4992 35.7187 94.5457 35.5708 94.6319 35.4459C94.718 35.3211 94.8397 35.2251 94.9812 35.1704C95.9031 34.8157 96.4984 34.0032 96.4984 33.1001C96.5 32.486 96.2312 31.9126 95.7437 31.486ZM93.375 37.9751C93.375 38.1409 93.4408 38.2998 93.5581 38.417C93.6753 38.5343 93.8342 38.6001 94 38.6001C94.1658 38.6001 94.3247 38.5343 94.4419 38.417C94.5592 38.2998 94.625 38.1409 94.625 37.9751C94.625 37.8093 94.5592 37.6504 94.4419 37.5332C94.3247 37.4159 94.1658 37.3501 94 37.3501C93.8342 37.3501 93.6753 37.4159 93.5581 37.5332C93.4408 37.6504 93.375 37.8093 93.375 37.9751Z" fill="#767593"/>
<rect x="26.5" y="57.1123" width="15" height="15" rx="1.5" fill="white" stroke="#C4C7CF"/>
<path d="M57.686 69.6123C57.5273 69.1923 57.378 68.7816 57.238 68.3803C57.098 67.9696 56.9533 67.5543 56.804 67.1343H52.408L51.526 69.6123H50.112C50.4853 68.5856 50.8353 67.6383 51.162 66.7703C51.4887 65.893 51.806 65.0623 52.114 64.2783C52.4313 63.4943 52.744 62.7476 53.052 62.0383C53.36 61.3196 53.682 60.6103 54.018 59.9103H55.264C55.6 60.6103 55.922 61.3196 56.23 62.0383C56.538 62.7476 56.846 63.4943 57.154 64.2783C57.4713 65.0623 57.7933 65.893 58.12 66.7703C58.4467 67.6383 58.7967 68.5856 59.17 69.6123H57.686ZM56.412 66.0143C56.1133 65.2023 55.8147 64.4183 55.516 63.6623C55.2267 62.897 54.9233 62.1643 54.606 61.4643C54.2793 62.1643 53.9667 62.897 53.668 63.6623C53.3787 64.4183 53.0893 65.2023 52.8 66.0143H56.412ZM62.96 68.6463C64.3786 68.6463 65.088 68.161 65.088 67.1903C65.088 66.8916 65.0226 66.6396 64.892 66.4343C64.7706 66.2196 64.6026 66.0376 64.388 65.8883C64.1733 65.7296 63.926 65.5943 63.646 65.4823C63.3753 65.3703 63.086 65.2583 62.778 65.1463C62.4233 65.025 62.0873 64.8896 61.77 64.7403C61.4526 64.5816 61.1773 64.3996 60.944 64.1943C60.7106 63.9796 60.524 63.7276 60.384 63.4383C60.2533 63.149 60.188 62.799 60.188 62.3883C60.188 61.539 60.4773 60.8763 61.056 60.4003C61.6346 59.9243 62.4326 59.6863 63.45 59.6863C64.038 59.6863 64.57 59.7516 65.046 59.8823C65.5313 60.0036 65.886 60.139 66.11 60.2883L65.676 61.3943C65.48 61.273 65.186 61.1563 64.794 61.0443C64.4113 60.923 63.9633 60.8623 63.45 60.8623C63.1886 60.8623 62.946 60.8903 62.722 60.9463C62.498 61.0023 62.302 61.0863 62.134 61.1983C61.966 61.3103 61.8306 61.455 61.728 61.6323C61.6346 61.8003 61.588 62.001 61.588 62.2343C61.588 62.4956 61.6393 62.715 61.742 62.8923C61.8446 63.0696 61.9893 63.2283 62.176 63.3683C62.3626 63.499 62.5773 63.6203 62.82 63.7323C63.072 63.8443 63.3473 63.9563 63.646 64.0683C64.066 64.2363 64.4486 64.4043 64.794 64.5723C65.1486 64.7403 65.452 64.941 65.704 65.1743C65.9653 65.4076 66.166 65.6876 66.306 66.0143C66.446 66.3316 66.516 66.719 66.516 67.1763C66.516 68.0256 66.2033 68.679 65.578 69.1363C64.962 69.5936 64.0893 69.8223 62.96 69.8223C62.5773 69.8223 62.2226 69.7943 61.896 69.7383C61.5786 69.6916 61.294 69.6356 61.042 69.5703C60.79 69.4956 60.5706 69.421 60.384 69.3463C60.2066 69.2623 60.0666 69.1923 59.964 69.1363L60.37 68.0163C60.5846 68.1376 60.9113 68.273 61.35 68.4223C61.7886 68.5716 62.3253 68.6463 62.96 68.6463ZM74.6391 69.6123C74.4805 69.1923 74.3311 68.7816 74.1911 68.3803C74.0511 67.9696 73.9065 67.5543 73.7571 67.1343H69.3611L68.4791 69.6123H67.0651C67.4385 68.5856 67.7885 67.6383 68.1151 66.7703C68.4418 65.893 68.7591 65.0623 69.0671 64.2783C69.3845 63.4943 69.6971 62.7476 70.0051 62.0383C70.3131 61.3196 70.6351 60.6103 70.9711 59.9103H72.2171C72.5531 60.6103 72.8751 61.3196 73.1831 62.0383C73.4911 62.7476 73.7991 63.4943 74.1071 64.2783C74.4245 65.0623 74.7465 65.893 75.0731 66.7703C75.3998 67.6383 75.7498 68.5856 76.1231 69.6123H74.6391ZM73.3651 66.0143C73.0665 65.2023 72.7678 64.4183 72.4691 63.6623C72.1798 62.897 71.8765 62.1643 71.5591 61.4643C71.2325 62.1643 70.9198 62.897 70.6211 63.6623C70.3318 64.4183 70.0425 65.2023 69.7531 66.0143H73.3651ZM84.0903 69.6123C83.885 69.267 83.647 68.8796 83.3763 68.4503C83.115 68.021 82.8303 67.5776 82.5223 67.1203C82.2143 66.6536 81.8923 66.1823 81.5563 65.7063C81.2297 65.2303 80.903 64.773 80.5763 64.3343C80.2497 63.8863 79.9323 63.4663 79.6243 63.0743C79.3163 62.6823 79.0317 62.337 78.7703 62.0383V69.6123H77.4403V59.9103H78.5183C78.957 60.377 79.4237 60.923 79.9183 61.5483C80.4223 62.1643 80.917 62.8036 81.4023 63.4663C81.897 64.1196 82.359 64.7636 82.7883 65.3983C83.227 66.033 83.5957 66.5976 83.8943 67.0923V59.9103H85.2243V69.6123H84.0903Z" fill="#262626"/>
<rect x="107.5" y="57.1123" width="15" height="15" rx="1.5" fill="#9254DE" stroke="#9254DE"/>
<path d="M113.008 69.5014L108.373 64.8666L109.532 63.7079L113.008 67.184L120.468 59.7236L121.627 60.8823L113.008 69.5014Z" fill="white"/>
<path d="M135.816 69.8223C135.181 69.8223 134.631 69.7243 134.164 69.5283C133.697 69.3323 133.315 69.0663 133.016 68.7303C132.717 68.385 132.493 67.979 132.344 67.5123C132.204 67.0456 132.134 66.5416 132.134 66.0003V59.9103H133.492V65.8463C133.492 66.817 133.707 67.5216 134.136 67.9603C134.565 68.399 135.125 68.6183 135.816 68.6183C136.161 68.6183 136.474 68.567 136.754 68.4643C137.043 68.3523 137.291 68.1843 137.496 67.9603C137.701 67.7363 137.86 67.4516 137.972 67.1063C138.084 66.7516 138.14 66.3316 138.14 65.8463V59.9103H139.498V66.0003C139.498 66.5416 139.423 67.0456 139.274 67.5123C139.134 67.979 138.91 68.385 138.602 68.7303C138.303 69.0663 137.921 69.3323 137.454 69.5283C136.997 69.7243 136.451 69.8223 135.816 69.8223ZM144.461 69.6963C144.265 69.6963 144.05 69.6916 143.817 69.6823C143.593 69.673 143.364 69.659 143.131 69.6403C142.907 69.6216 142.683 69.5983 142.459 69.5703C142.235 69.5423 142.029 69.505 141.843 69.4583V60.0503C142.029 60.0036 142.235 59.9663 142.459 59.9383C142.683 59.9103 142.907 59.887 143.131 59.8683C143.364 59.8496 143.593 59.8356 143.817 59.8263C144.041 59.817 144.251 59.8123 144.447 59.8123C145.007 59.8123 145.529 59.8543 146.015 59.9383C146.509 60.0223 146.934 60.167 147.289 60.3723C147.653 60.5683 147.937 60.8296 148.143 61.1563C148.348 61.483 148.451 61.8843 148.451 62.3603C148.451 62.8923 148.325 63.331 148.073 63.6763C147.821 64.0123 147.485 64.2643 147.065 64.4323C147.634 64.6003 148.087 64.8663 148.423 65.2303C148.759 65.5943 148.927 66.1076 148.927 66.7703C148.927 67.741 148.567 68.4736 147.849 68.9683C147.139 69.4536 146.01 69.6963 144.461 69.6963ZM143.187 65.0903V68.5063C143.289 68.5156 143.411 68.525 143.551 68.5343C143.672 68.5436 143.812 68.553 143.971 68.5623C144.139 68.5623 144.33 68.5623 144.545 68.5623C144.946 68.5623 145.324 68.539 145.679 68.4923C146.043 68.4363 146.36 68.343 146.631 68.2123C146.901 68.0816 147.116 67.8996 147.275 67.6663C147.443 67.433 147.527 67.139 147.527 66.7843C147.527 66.467 147.466 66.201 147.345 65.9863C147.223 65.7623 147.046 65.585 146.813 65.4543C146.589 65.3236 146.318 65.2303 146.001 65.1743C145.683 65.1183 145.329 65.0903 144.937 65.0903H143.187ZM143.187 63.9983H144.615C144.951 63.9983 145.268 63.975 145.567 63.9283C145.865 63.8816 146.122 63.7976 146.337 63.6763C146.561 63.555 146.733 63.3963 146.855 63.2003C146.985 63.0043 147.051 62.757 147.051 62.4583C147.051 62.1783 146.985 61.945 146.855 61.7583C146.724 61.5623 146.542 61.4083 146.309 61.2963C146.085 61.175 145.819 61.0863 145.511 61.0303C145.203 60.9743 144.876 60.9463 144.531 60.9463C144.185 60.9463 143.915 60.951 143.719 60.9603C143.523 60.9696 143.345 60.9836 143.187 61.0023V63.9983ZM153.093 68.6463C154.511 68.6463 155.221 68.161 155.221 67.1903C155.221 66.8916 155.155 66.6396 155.025 66.4343C154.903 66.2196 154.735 66.0376 154.521 65.8883C154.306 65.7296 154.059 65.5943 153.779 65.4823C153.508 65.3703 153.219 65.2583 152.911 65.1463C152.556 65.025 152.22 64.8896 151.903 64.7403C151.585 64.5816 151.31 64.3996 151.077 64.1943C150.843 63.9796 150.657 63.7276 150.517 63.4383C150.386 63.149 150.321 62.799 150.321 62.3883C150.321 61.539 150.61 60.8763 151.189 60.4003C151.767 59.9243 152.565 59.6863 153.583 59.6863C154.171 59.6863 154.703 59.7516 155.179 59.8823C155.664 60.0036 156.019 60.139 156.243 60.2883L155.809 61.3943C155.613 61.273 155.319 61.1563 154.927 61.0443C154.544 60.923 154.096 60.8623 153.583 60.8623C153.321 60.8623 153.079 60.8903 152.855 60.9463C152.631 61.0023 152.435 61.0863 152.267 61.1983C152.099 61.3103 151.963 61.455 151.861 61.6323C151.767 61.8003 151.721 62.001 151.721 62.2343C151.721 62.4956 151.772 62.715 151.875 62.8923C151.977 63.0696 152.122 63.2283 152.309 63.3683C152.495 63.499 152.71 63.6203 152.953 63.7323C153.205 63.8443 153.48 63.9563 153.779 64.0683C154.199 64.2363 154.581 64.4043 154.927 64.5723C155.281 64.7403 155.585 64.941 155.837 65.1743C156.098 65.4076 156.299 65.6876 156.439 66.0143C156.579 66.3316 156.649 66.719 156.649 67.1763C156.649 68.0256 156.336 68.679 155.711 69.1363C155.095 69.5936 154.222 69.8223 153.093 69.8223C152.71 69.8223 152.355 69.7943 152.029 69.7383C151.711 69.6916 151.427 69.6356 151.175 69.5703C150.923 69.4956 150.703 69.421 150.517 69.3463C150.339 69.2623 150.199 69.1923 150.097 69.1363L150.503 68.0163C150.717 68.1376 151.044 68.273 151.483 68.4223C151.921 68.5716 152.458 68.6463 153.093 68.6463ZM164.772 69.6123C164.613 69.1923 164.464 68.7816 164.324 68.3803C164.184 67.9696 164.039 67.5543 163.89 67.1343H159.494L158.612 69.6123H157.198C157.571 68.5856 157.921 67.6383 158.248 66.7703C158.575 65.893 158.892 65.0623 159.2 64.2783C159.517 63.4943 159.83 62.7476 160.138 62.0383C160.446 61.3196 160.768 60.6103 161.104 59.9103H162.35C162.686 60.6103 163.008 61.3196 163.316 62.0383C163.624 62.7476 163.932 63.4943 164.24 64.2783C164.557 65.0623 164.879 65.893 165.206 66.7703C165.533 67.6383 165.883 68.5856 166.256 69.6123H164.772ZM163.498 66.0143C163.199 65.2023 162.901 64.4183 162.602 63.6623C162.313 62.897 162.009 62.1643 161.692 61.4643C161.365 62.1643 161.053 62.897 160.754 63.6623C160.465 64.4183 160.175 65.2023 159.886 66.0143H163.498ZM174.223 69.6123C174.018 69.267 173.78 68.8796 173.509 68.4503C173.248 68.021 172.963 67.5776 172.655 67.1203C172.347 66.6536 172.025 66.1823 171.689 65.7063C171.362 65.2303 171.036 64.773 170.709 64.3343C170.382 63.8863 170.065 63.4663 169.757 63.0743C169.449 62.6823 169.164 62.337 168.903 62.0383V69.6123H167.573V59.9103H168.651C169.09 60.377 169.556 60.923 170.051 61.5483C170.555 62.1643 171.05 62.8036 171.535 63.4663C172.03 64.1196 172.492 64.7636 172.921 65.3983C173.36 66.033 173.728 66.5976 174.027 67.0923V59.9103H175.357V69.6123H174.223Z" fill="#262626"/>
<rect x="197.5" y="57.1123" width="15" height="15" rx="1.5" fill="white" stroke="#C4C7CF"/>
<path d="M226.558 68.2683C226.465 68.0443 226.339 67.7596 226.18 67.4143C226.031 67.069 225.867 66.6956 225.69 66.2943C225.513 65.893 225.321 65.4823 225.116 65.0623C224.92 64.633 224.733 64.2316 224.556 63.8583C224.379 63.4756 224.211 63.135 224.052 62.8363C223.903 62.5376 223.781 62.309 223.688 62.1503C223.585 63.2516 223.501 64.4463 223.436 65.7343C223.371 67.013 223.315 68.3056 223.268 69.6123H221.938C221.975 68.7723 222.017 67.9276 222.064 67.0783C222.111 66.2196 222.162 65.3796 222.218 64.5583C222.283 63.7276 222.349 62.9203 222.414 62.1363C222.489 61.3523 222.568 60.6103 222.652 59.9103H223.842C224.094 60.321 224.365 60.8063 224.654 61.3663C224.943 61.9263 225.233 62.5143 225.522 63.1303C225.811 63.737 226.091 64.3483 226.362 64.9643C226.633 65.571 226.88 66.1263 227.104 66.6303C227.328 66.1263 227.575 65.571 227.846 64.9643C228.117 64.3483 228.397 63.737 228.686 63.1303C228.975 62.5143 229.265 61.9263 229.554 61.3663C229.843 60.8063 230.114 60.321 230.366 59.9103H231.556C231.873 63.037 232.111 66.271 232.27 69.6123H230.94C230.893 68.3056 230.837 67.013 230.772 65.7343C230.707 64.4463 230.623 63.2516 230.52 62.1503C230.427 62.309 230.301 62.5376 230.142 62.8363C229.993 63.135 229.829 63.4756 229.652 63.8583C229.475 64.2316 229.283 64.633 229.078 65.0623C228.882 65.4823 228.695 65.893 228.518 66.2943C228.341 66.6956 228.173 67.069 228.014 67.4143C227.865 67.7596 227.743 68.0443 227.65 68.2683H226.558ZM236.653 68.6463C238.072 68.6463 238.781 68.161 238.781 67.1903C238.781 66.8916 238.716 66.6396 238.585 66.4343C238.464 66.2196 238.296 66.0376 238.081 65.8883C237.867 65.7296 237.619 65.5943 237.339 65.4823C237.069 65.3703 236.779 65.2583 236.471 65.1463C236.117 65.025 235.781 64.8896 235.463 64.7403C235.146 64.5816 234.871 64.3996 234.637 64.1943C234.404 63.9796 234.217 63.7276 234.077 63.4383C233.947 63.149 233.881 62.799 233.881 62.3883C233.881 61.539 234.171 60.8763 234.749 60.4003C235.328 59.9243 236.126 59.6863 237.143 59.6863C237.731 59.6863 238.263 59.7516 238.739 59.8823C239.225 60.0036 239.579 60.139 239.803 60.2883L239.369 61.3943C239.173 61.273 238.879 61.1563 238.487 61.0443C238.105 60.923 237.657 60.8623 237.143 60.8623C236.882 60.8623 236.639 60.8903 236.415 60.9463C236.191 61.0023 235.995 61.0863 235.827 61.1983C235.659 61.3103 235.524 61.455 235.421 61.6323C235.328 61.8003 235.281 62.001 235.281 62.2343C235.281 62.4956 235.333 62.715 235.435 62.8923C235.538 63.0696 235.683 63.2283 235.869 63.3683C236.056 63.499 236.271 63.6203 236.513 63.7323C236.765 63.8443 237.041 63.9563 237.339 64.0683C237.759 64.2363 238.142 64.4043 238.487 64.5723C238.842 64.7403 239.145 64.941 239.397 65.1743C239.659 65.4076 239.859 65.6876 239.999 66.0143C240.139 66.3316 240.209 66.719 240.209 67.1763C240.209 68.0256 239.897 68.679 239.271 69.1363C238.655 69.5936 237.783 69.8223 236.653 69.8223C236.271 69.8223 235.916 69.7943 235.589 69.7383C235.272 69.6916 234.987 69.6356 234.735 69.5703C234.483 69.4956 234.264 69.421 234.077 69.3463C233.9 69.2623 233.76 69.1923 233.657 69.1363L234.063 68.0163C234.278 68.1376 234.605 68.273 235.043 68.4223C235.482 68.5716 236.019 68.6463 236.653 68.6463ZM248.332 69.6123C248.174 69.1923 248.024 68.7816 247.884 68.3803C247.744 67.9696 247.6 67.5543 247.45 67.1343H243.054L242.172 69.6123H240.758C241.132 68.5856 241.482 67.6383 241.808 66.7703C242.135 65.893 242.452 65.0623 242.76 64.2783C243.078 63.4943 243.39 62.7476 243.698 62.0383C244.006 61.3196 244.328 60.6103 244.664 59.9103H245.91C246.246 60.6103 246.568 61.3196 246.876 62.0383C247.184 62.7476 247.492 63.4943 247.8 64.2783C248.118 65.0623 248.44 65.893 248.766 66.7703C249.093 67.6383 249.443 68.5856 249.816 69.6123H248.332ZM247.058 66.0143C246.76 65.2023 246.461 64.4183 246.162 63.6623C245.873 62.897 245.57 62.1643 245.252 61.4643C244.926 62.1643 244.613 62.897 244.314 63.6623C244.025 64.4183 243.736 65.2023 243.446 66.0143H247.058ZM257.784 69.6123C257.578 69.267 257.34 68.8796 257.07 68.4503C256.808 68.021 256.524 67.5776 256.216 67.1203C255.908 66.6536 255.586 66.1823 255.25 65.7063C254.923 65.2303 254.596 64.773 254.27 64.3343C253.943 63.8863 253.626 63.4663 253.318 63.0743C253.01 62.6823 252.725 62.337 252.464 62.0383V69.6123H251.134V59.9103H252.212C252.65 60.377 253.117 60.923 253.612 61.5483C254.116 62.1643 254.61 62.8036 255.096 63.4663C255.59 64.1196 256.052 64.7636 256.482 65.3983C256.92 66.033 257.289 66.5976 257.588 67.0923V59.9103H258.918V69.6123H257.784Z" fill="#262626"/>
<rect x="281.5" y="57.1123" width="15" height="15" rx="1.5" fill="white" stroke="#C4C7CF"/>
<path d="M312.686 59.9103V61.0863H309.634V69.6123H308.276V61.0863H305.224V59.9103H312.686ZM316.374 68.6463C317.793 68.6463 318.502 68.161 318.502 67.1903C318.502 66.8916 318.437 66.6396 318.306 66.4343C318.185 66.2196 318.017 66.0376 317.802 65.8883C317.587 65.7296 317.34 65.5943 317.06 65.4823C316.789 65.3703 316.5 65.2583 316.192 65.1463C315.837 65.025 315.501 64.8896 315.184 64.7403C314.867 64.5816 314.591 64.3996 314.358 64.1943C314.125 63.9796 313.938 63.7276 313.798 63.4383C313.667 63.149 313.602 62.799 313.602 62.3883C313.602 61.539 313.891 60.8763 314.47 60.4003C315.049 59.9243 315.847 59.6863 316.864 59.6863C317.452 59.6863 317.984 59.7516 318.46 59.8823C318.945 60.0036 319.3 60.139 319.524 60.2883L319.09 61.3943C318.894 61.273 318.6 61.1563 318.208 61.0443C317.825 60.923 317.377 60.8623 316.864 60.8623C316.603 60.8623 316.36 60.8903 316.136 60.9463C315.912 61.0023 315.716 61.0863 315.548 61.1983C315.38 61.3103 315.245 61.455 315.142 61.6323C315.049 61.8003 315.002 62.001 315.002 62.2343C315.002 62.4956 315.053 62.715 315.156 62.8923C315.259 63.0696 315.403 63.2283 315.59 63.3683C315.777 63.499 315.991 63.6203 316.234 63.7323C316.486 63.8443 316.761 63.9563 317.06 64.0683C317.48 64.2363 317.863 64.4043 318.208 64.5723C318.563 64.7403 318.866 64.941 319.118 65.1743C319.379 65.4076 319.58 65.6876 319.72 66.0143C319.86 66.3316 319.93 66.719 319.93 67.1763C319.93 68.0256 319.617 68.679 318.992 69.1363C318.376 69.5936 317.503 69.8223 316.374 69.8223C315.991 69.8223 315.637 69.7943 315.31 69.7383C314.993 69.6916 314.708 69.6356 314.456 69.5703C314.204 69.4956 313.985 69.421 313.798 69.3463C313.621 69.2623 313.481 69.1923 313.378 69.1363L313.784 68.0163C313.999 68.1376 314.325 68.273 314.764 68.4223C315.203 68.5716 315.739 68.6463 316.374 68.6463ZM328.053 69.6123C327.895 69.1923 327.745 68.7816 327.605 68.3803C327.465 67.9696 327.321 67.5543 327.171 67.1343H322.775L321.893 69.6123H320.479C320.853 68.5856 321.203 67.6383 321.529 66.7703C321.856 65.893 322.173 65.0623 322.481 64.2783C322.799 63.4943 323.111 62.7476 323.419 62.0383C323.727 61.3196 324.049 60.6103 324.385 59.9103H325.631C325.967 60.6103 326.289 61.3196 326.597 62.0383C326.905 62.7476 327.213 63.4943 327.521 64.2783C327.839 65.0623 328.161 65.893 328.487 66.7703C328.814 67.6383 329.164 68.5856 329.537 69.6123H328.053ZM326.779 66.0143C326.481 65.2023 326.182 64.4183 325.883 63.6623C325.594 62.897 325.291 62.1643 324.973 61.4643C324.647 62.1643 324.334 62.897 324.035 63.6623C323.746 64.4183 323.457 65.2023 323.167 66.0143H326.779ZM337.504 69.6123C337.299 69.267 337.061 68.8796 336.79 68.4503C336.529 68.021 336.244 67.5776 335.936 67.1203C335.628 66.6536 335.306 66.1823 334.97 65.7063C334.644 65.2303 334.317 64.773 333.99 64.3343C333.664 63.8863 333.346 63.4663 333.038 63.0743C332.73 62.6823 332.446 62.337 332.184 62.0383V69.6123H330.854V59.9103H331.932C332.371 60.377 332.838 60.923 333.332 61.5483C333.836 62.1643 334.331 62.8036 334.816 63.4663C335.311 64.1196 335.773 64.7636 336.202 65.3983C336.641 66.033 337.01 66.5976 337.308 67.0923V59.9103H338.638V69.6123H337.504Z" fill="#262626"/>
<g filter="url(#filter0_ddd_4928_194000)">
<path d="M116 28.5376L116 34.5376L116 40.5376L110 34.5376L116 28.5376Z" fill="#262626"/>
<rect x="116" y="18.5376" width="208" height="32" rx="2" fill="#262626"/>
<path d="M124.696 34.3736C124.696 33.6616 124.8 33.0336 125.008 32.4896C125.224 31.9456 125.512 31.4936 125.872 31.1336C126.24 30.7656 126.664 30.4896 127.144 30.3056C127.632 30.1216 128.148 30.0296 128.692 30.0296C129.228 30.0296 129.732 30.1216 130.204 30.3056C130.684 30.4896 131.104 30.7656 131.464 31.1336C131.824 31.4936 132.108 31.9456 132.316 32.4896C132.532 33.0336 132.64 33.6616 132.64 34.3736C132.64 35.0856 132.532 35.7136 132.316 36.2576C132.108 36.8016 131.824 37.2576 131.464 37.6256C131.104 37.9856 130.684 38.2576 130.204 38.4416C129.732 38.6256 129.228 38.7176 128.692 38.7176C128.148 38.7176 127.632 38.6256 127.144 38.4416C126.664 38.2576 126.24 37.9856 125.872 37.6256C125.512 37.2576 125.224 36.8016 125.008 36.2576C124.8 35.7136 124.696 35.0856 124.696 34.3736ZM125.92 34.3736C125.92 34.8776 125.984 35.3376 126.112 35.7536C126.24 36.1616 126.42 36.5096 126.652 36.7976C126.892 37.0856 127.18 37.3096 127.516 37.4696C127.86 37.6216 128.244 37.6976 128.668 37.6976C129.092 37.6976 129.472 37.6216 129.808 37.4696C130.144 37.3096 130.428 37.0856 130.66 36.7976C130.9 36.5096 131.084 36.1616 131.212 35.7536C131.34 35.3376 131.404 34.8776 131.404 34.3736C131.404 33.8696 131.34 33.4136 131.212 33.0056C131.084 32.5896 130.9 32.2376 130.66 31.9496C130.428 31.6616 130.144 31.4416 129.808 31.2896C129.472 31.1296 129.092 31.0496 128.668 31.0496C128.244 31.0496 127.86 31.1296 127.516 31.2896C127.18 31.4416 126.892 31.6616 126.652 31.9496C126.42 32.2376 126.24 32.5896 126.112 33.0056C125.984 33.4136 125.92 33.8696 125.92 34.3736ZM138.632 35.4296C138.632 34.7016 138.452 34.1416 138.092 33.7496C137.732 33.3576 137.252 33.1616 136.652 33.1616C136.316 33.1616 136.052 33.1736 135.86 33.1976C135.676 33.2216 135.528 33.2496 135.416 33.2816V37.2176C135.552 37.3296 135.748 37.4376 136.004 37.5416C136.26 37.6456 136.54 37.6976 136.844 37.6976C137.164 37.6976 137.436 37.6416 137.66 37.5296C137.892 37.4096 138.08 37.2496 138.224 37.0496C138.368 36.8416 138.472 36.6016 138.536 36.3296C138.6 36.0496 138.632 35.7496 138.632 35.4296ZM139.796 35.4296C139.796 35.9016 139.732 36.3376 139.604 36.7376C139.484 37.1376 139.304 37.4816 139.064 37.7696C138.824 38.0576 138.528 38.2816 138.176 38.4416C137.832 38.6016 137.436 38.6816 136.988 38.6816C136.628 38.6816 136.308 38.6336 136.028 38.5376C135.756 38.4416 135.552 38.3496 135.416 38.2616V40.7576H134.3V32.4896C134.564 32.4256 134.892 32.3576 135.284 32.2856C135.684 32.2056 136.144 32.1656 136.664 32.1656C137.144 32.1656 137.576 32.2416 137.96 32.3936C138.344 32.5456 138.672 32.7616 138.944 33.0416C139.216 33.3216 139.424 33.6656 139.568 34.0736C139.72 34.4736 139.796 34.9256 139.796 35.4296ZM142.41 32.2976H144.774V33.2336H142.41V36.1136C142.41 36.4256 142.434 36.6856 142.482 36.8936C142.53 37.0936 142.602 37.2536 142.698 37.3736C142.794 37.4856 142.914 37.5656 143.058 37.6136C143.202 37.6616 143.37 37.6856 143.562 37.6856C143.898 37.6856 144.166 37.6496 144.366 37.5776C144.574 37.4976 144.718 37.4416 144.798 37.4096L145.014 38.3336C144.902 38.3896 144.706 38.4576 144.426 38.5376C144.146 38.6256 143.826 38.6696 143.466 38.6696C143.042 38.6696 142.69 38.6176 142.41 38.5136C142.138 38.4016 141.918 38.2376 141.75 38.0216C141.582 37.8056 141.462 37.5416 141.39 37.2296C141.326 36.9096 141.294 36.5416 141.294 36.1256V30.5576L142.41 30.3656V32.2976ZM147.31 38.5376H146.194V32.2976H147.31V38.5376ZM146.746 31.1696C146.546 31.1696 146.374 31.1056 146.23 30.9776C146.094 30.8416 146.026 30.6616 146.026 30.4376C146.026 30.2136 146.094 30.0376 146.23 29.9096C146.374 29.7736 146.546 29.7056 146.746 29.7056C146.946 29.7056 147.114 29.7736 147.25 29.9096C147.394 30.0376 147.466 30.2136 147.466 30.4376C147.466 30.6616 147.394 30.8416 147.25 30.9776C147.114 31.1056 146.946 31.1696 146.746 31.1696ZM154.738 35.4176C154.738 35.9136 154.666 36.3616 154.522 36.7616C154.378 37.1616 154.174 37.5056 153.91 37.7936C153.654 38.0816 153.346 38.3056 152.986 38.4656C152.626 38.6176 152.234 38.6936 151.81 38.6936C151.386 38.6936 150.994 38.6176 150.634 38.4656C150.274 38.3056 149.962 38.0816 149.698 37.7936C149.442 37.5056 149.242 37.1616 149.098 36.7616C148.954 36.3616 148.882 35.9136 148.882 35.4176C148.882 34.9296 148.954 34.4856 149.098 34.0856C149.242 33.6776 149.442 33.3296 149.698 33.0416C149.962 32.7536 150.274 32.5336 150.634 32.3816C150.994 32.2216 151.386 32.1416 151.81 32.1416C152.234 32.1416 152.626 32.2216 152.986 32.3816C153.346 32.5336 153.654 32.7536 153.91 33.0416C154.174 33.3296 154.378 33.6776 154.522 34.0856C154.666 34.4856 154.738 34.9296 154.738 35.4176ZM153.574 35.4176C153.574 34.7136 153.414 34.1576 153.094 33.7496C152.782 33.3336 152.354 33.1256 151.81 33.1256C151.266 33.1256 150.834 33.3336 150.514 33.7496C150.202 34.1576 150.046 34.7136 150.046 35.4176C150.046 36.1216 150.202 36.6816 150.514 37.0976C150.834 37.5056 151.266 37.7096 151.81 37.7096C152.354 37.7096 152.782 37.5056 153.094 37.0976C153.414 36.6816 153.574 36.1216 153.574 35.4176ZM156.308 32.4776C156.564 32.4136 156.904 32.3456 157.328 32.2736C157.752 32.2016 158.24 32.1656 158.792 32.1656C159.288 32.1656 159.7 32.2376 160.028 32.3816C160.356 32.5176 160.616 32.7136 160.808 32.9696C161.008 33.2176 161.148 33.5176 161.228 33.8696C161.308 34.2216 161.348 34.6096 161.348 35.0336V38.5376H160.232V35.2736C160.232 34.8896 160.204 34.5616 160.148 34.2896C160.1 34.0176 160.016 33.7976 159.896 33.6296C159.776 33.4616 159.616 33.3416 159.416 33.2696C159.216 33.1896 158.968 33.1496 158.672 33.1496C158.552 33.1496 158.428 33.1536 158.3 33.1616C158.172 33.1696 158.048 33.1816 157.928 33.1976C157.816 33.2056 157.712 33.2176 157.616 33.2336C157.528 33.2496 157.464 33.2616 157.424 33.2696V38.5376H156.308V32.4776ZM165.31 37.7336C165.574 37.7336 165.806 37.7296 166.006 37.7216C166.214 37.7056 166.386 37.6816 166.522 37.6496V35.7896C166.442 35.7496 166.31 35.7176 166.126 35.6936C165.95 35.6616 165.734 35.6456 165.478 35.6456C165.31 35.6456 165.13 35.6576 164.938 35.6816C164.754 35.7056 164.582 35.7576 164.422 35.8376C164.27 35.9096 164.142 36.0136 164.038 36.1496C163.934 36.2776 163.882 36.4496 163.882 36.6656C163.882 37.0656 164.01 37.3456 164.266 37.5056C164.522 37.6576 164.87 37.7336 165.31 37.7336ZM165.214 32.1416C165.662 32.1416 166.038 32.2016 166.342 32.3216C166.654 32.4336 166.902 32.5976 167.086 32.8136C167.278 33.0216 167.414 33.2736 167.494 33.5696C167.574 33.8576 167.614 34.1776 167.614 34.5296V38.4296C167.518 38.4456 167.382 38.4696 167.206 38.5016C167.038 38.5256 166.846 38.5496 166.63 38.5736C166.414 38.5976 166.178 38.6176 165.922 38.6336C165.674 38.6576 165.426 38.6696 165.178 38.6696C164.826 38.6696 164.502 38.6336 164.206 38.5616C163.91 38.4896 163.654 38.3776 163.438 38.2256C163.222 38.0656 163.054 37.8576 162.934 37.6016C162.814 37.3456 162.754 37.0376 162.754 36.6776C162.754 36.3336 162.822 36.0376 162.958 35.7896C163.102 35.5416 163.294 35.3416 163.534 35.1896C163.774 35.0376 164.054 34.9256 164.374 34.8536C164.694 34.7816 165.03 34.7456 165.382 34.7456C165.494 34.7456 165.61 34.7536 165.73 34.7696C165.85 34.7776 165.962 34.7936 166.066 34.8176C166.178 34.8336 166.274 34.8496 166.354 34.8656C166.434 34.8816 166.49 34.8936 166.522 34.9016V34.5896C166.522 34.4056 166.502 34.2256 166.462 34.0496C166.422 33.8656 166.35 33.7056 166.246 33.5696C166.142 33.4256 165.998 33.3136 165.814 33.2336C165.638 33.1456 165.406 33.1016 165.118 33.1016C164.75 33.1016 164.426 33.1296 164.146 33.1856C163.874 33.2336 163.67 33.2856 163.534 33.3416L163.402 32.4176C163.546 32.3536 163.786 32.2936 164.122 32.2376C164.458 32.1736 164.822 32.1416 165.214 32.1416ZM171.34 38.6576C170.652 38.6416 170.164 38.4936 169.876 38.2136C169.588 37.9336 169.444 37.4976 169.444 36.9056V29.4176L170.56 29.2256V36.7256C170.56 36.9096 170.576 37.0616 170.608 37.1816C170.64 37.3016 170.692 37.3976 170.764 37.4696C170.836 37.5416 170.932 37.5976 171.052 37.6376C171.172 37.6696 171.32 37.6976 171.496 37.7216L171.34 38.6576ZM174.069 37.8896C174.069 38.1056 173.997 38.2936 173.853 38.4536C173.709 38.6136 173.513 38.6936 173.265 38.6936C173.017 38.6936 172.821 38.6136 172.677 38.4536C172.533 38.2936 172.461 38.1056 172.461 37.8896C172.461 37.6736 172.533 37.4856 172.677 37.3256C172.821 37.1656 173.017 37.0856 173.265 37.0856C173.513 37.0856 173.709 37.1656 173.853 37.3256C173.997 37.4856 174.069 37.6736 174.069 37.8896ZM182.548 35.8616C182.548 36.2616 182.504 36.6336 182.416 36.9776C182.336 37.3216 182.188 37.6256 181.972 37.8896C181.764 38.1456 181.48 38.3496 181.12 38.5016C180.768 38.6456 180.324 38.7176 179.788 38.7176C179.516 38.7176 179.264 38.6936 179.032 38.6456C178.808 38.6056 178.604 38.5536 178.42 38.4896C178.236 38.4176 178.076 38.3456 177.94 38.2736C177.804 38.1936 177.696 38.1176 177.616 38.0456L178.072 37.1216C178.24 37.2416 178.456 37.3696 178.72 37.5056C178.992 37.6336 179.328 37.6976 179.728 37.6976C180.304 37.6976 180.724 37.5536 180.988 37.2656C181.252 36.9696 181.384 36.4656 181.384 35.7536V30.2216H182.548V35.8616ZM189.448 38.3576C189.192 38.4216 188.852 38.4896 188.428 38.5616C188.012 38.6336 187.528 38.6696 186.976 38.6696C186.496 38.6696 186.092 38.6016 185.764 38.4656C185.436 38.3216 185.172 38.1216 184.972 37.8656C184.772 37.6096 184.628 37.3096 184.54 36.9656C184.452 36.6136 184.408 36.2256 184.408 35.8016V32.2976H185.524V35.5616C185.524 36.3216 185.644 36.8656 185.884 37.1936C186.124 37.5216 186.528 37.6856 187.096 37.6856C187.216 37.6856 187.34 37.6816 187.468 37.6736C187.596 37.6656 187.716 37.6576 187.828 37.6496C187.94 37.6336 188.04 37.6216 188.128 37.6136C188.224 37.5976 188.292 37.5816 188.332 37.5656V32.2976H189.448V38.3576ZM192.822 37.7336C193.278 37.7336 193.614 37.6736 193.83 37.5536C194.054 37.4336 194.166 37.2416 194.166 36.9776C194.166 36.7056 194.058 36.4896 193.842 36.3296C193.626 36.1696 193.27 35.9896 192.774 35.7896C192.534 35.6936 192.302 35.5976 192.078 35.5016C191.862 35.3976 191.674 35.2776 191.514 35.1416C191.354 35.0056 191.226 34.8416 191.13 34.6496C191.034 34.4576 190.986 34.2216 190.986 33.9416C190.986 33.3896 191.19 32.9536 191.598 32.6336C192.006 32.3056 192.562 32.1416 193.266 32.1416C193.442 32.1416 193.618 32.1536 193.794 32.1776C193.97 32.1936 194.134 32.2176 194.286 32.2496C194.438 32.2736 194.57 32.3016 194.682 32.3336C194.802 32.3656 194.894 32.3936 194.958 32.4176L194.754 33.3776C194.634 33.3136 194.446 33.2496 194.19 33.1856C193.934 33.1136 193.626 33.0776 193.266 33.0776C192.954 33.0776 192.682 33.1416 192.45 33.2696C192.218 33.3896 192.102 33.5816 192.102 33.8456C192.102 33.9816 192.126 34.1016 192.174 34.2056C192.23 34.3096 192.31 34.4056 192.414 34.4936C192.526 34.5736 192.662 34.6496 192.822 34.7216C192.982 34.7936 193.174 34.8696 193.398 34.9496C193.694 35.0616 193.958 35.1736 194.19 35.2856C194.422 35.3896 194.618 35.5136 194.778 35.6576C194.946 35.8016 195.074 35.9776 195.162 36.1856C195.25 36.3856 195.294 36.6336 195.294 36.9296C195.294 37.5056 195.078 37.9416 194.646 38.2376C194.222 38.5336 193.614 38.6816 192.822 38.6816C192.27 38.6816 191.838 38.6336 191.526 38.5376C191.214 38.4496 191.002 38.3816 190.89 38.3336L191.094 37.3736C191.222 37.4216 191.426 37.4936 191.706 37.5896C191.986 37.6856 192.358 37.7336 192.822 37.7336ZM197.77 32.2976H200.134V33.2336H197.77V36.1136C197.77 36.4256 197.794 36.6856 197.842 36.8936C197.89 37.0936 197.962 37.2536 198.058 37.3736C198.154 37.4856 198.274 37.5656 198.418 37.6136C198.562 37.6616 198.73 37.6856 198.922 37.6856C199.258 37.6856 199.526 37.6496 199.726 37.5776C199.934 37.4976 200.078 37.4416 200.158 37.4096L200.374 38.3336C200.262 38.3896 200.066 38.4576 199.786 38.5376C199.506 38.6256 199.186 38.6696 198.826 38.6696C198.402 38.6696 198.05 38.6176 197.77 38.5136C197.498 38.4016 197.278 38.2376 197.11 38.0216C196.942 37.8056 196.822 37.5416 196.75 37.2296C196.686 36.9096 196.654 36.5416 196.654 36.1256V30.5576L197.77 30.3656V32.2976ZM206.767 29.2256C207.095 29.2256 207.375 29.2496 207.607 29.2976C207.847 29.3456 208.015 29.3896 208.111 29.4296L207.907 30.3896C207.811 30.3416 207.675 30.2976 207.499 30.2576C207.323 30.2096 207.107 30.1856 206.851 30.1856C206.331 30.1856 205.967 30.3296 205.759 30.6176C205.551 30.8976 205.447 31.2776 205.447 31.7576V32.2976H207.847V33.2336H205.447V38.5376H204.331V31.7336C204.331 30.9336 204.527 30.3176 204.919 29.8856C205.311 29.4456 205.927 29.2256 206.767 29.2256ZM214.468 35.4176C214.468 35.9136 214.396 36.3616 214.252 36.7616C214.108 37.1616 213.904 37.5056 213.64 37.7936C213.384 38.0816 213.076 38.3056 212.716 38.4656C212.356 38.6176 211.964 38.6936 211.54 38.6936C211.116 38.6936 210.724 38.6176 210.364 38.4656C210.004 38.3056 209.692 38.0816 209.428 37.7936C209.172 37.5056 208.972 37.1616 208.828 36.7616C208.684 36.3616 208.612 35.9136 208.612 35.4176C208.612 34.9296 208.684 34.4856 208.828 34.0856C208.972 33.6776 209.172 33.3296 209.428 33.0416C209.692 32.7536 210.004 32.5336 210.364 32.3816C210.724 32.2216 211.116 32.1416 211.54 32.1416C211.964 32.1416 212.356 32.2216 212.716 32.3816C213.076 32.5336 213.384 32.7536 213.64 33.0416C213.904 33.3296 214.108 33.6776 214.252 34.0856C214.396 34.4856 214.468 34.9296 214.468 35.4176ZM213.304 35.4176C213.304 34.7136 213.144 34.1576 212.824 33.7496C212.512 33.3336 212.084 33.1256 211.54 33.1256C210.996 33.1256 210.564 33.3336 210.244 33.7496C209.932 34.1576 209.776 34.7136 209.776 35.4176C209.776 36.1216 209.932 36.6816 210.244 37.0976C210.564 37.5056 210.996 37.7096 211.54 37.7096C212.084 37.7096 212.512 37.5056 212.824 37.0976C213.144 36.6816 213.304 36.1216 213.304 35.4176ZM218.342 32.1656C218.438 32.1656 218.546 32.1736 218.666 32.1896C218.794 32.1976 218.918 32.2136 219.038 32.2376C219.158 32.2536 219.266 32.2736 219.362 32.2976C219.466 32.3136 219.542 32.3296 219.59 32.3456L219.398 33.3176C219.31 33.2856 219.162 33.2496 218.954 33.2096C218.754 33.1616 218.494 33.1376 218.174 33.1376C217.966 33.1376 217.758 33.1616 217.55 33.2096C217.35 33.2496 217.218 33.2776 217.154 33.2936V38.5376H216.038V32.5616C216.302 32.4656 216.63 32.3776 217.022 32.2976C217.414 32.2096 217.854 32.1656 218.342 32.1656ZM227.092 38.7176C226.508 38.7176 225.976 38.6216 225.496 38.4296C225.016 38.2376 224.604 37.9576 224.26 37.5896C223.916 37.2216 223.648 36.7696 223.456 36.2336C223.272 35.6896 223.18 35.0696 223.18 34.3736C223.18 33.6776 223.284 33.0616 223.492 32.5256C223.708 31.9816 223.996 31.5256 224.356 31.1576C224.716 30.7896 225.136 30.5096 225.616 30.3176C226.096 30.1256 226.608 30.0296 227.152 30.0296C227.496 30.0296 227.804 30.0536 228.076 30.1016C228.356 30.1496 228.596 30.2056 228.796 30.2696C229.004 30.3336 229.172 30.3976 229.3 30.4616C229.428 30.5256 229.516 30.5736 229.564 30.6056L229.228 31.5656C229.156 31.5176 229.052 31.4656 228.916 31.4096C228.78 31.3536 228.624 31.2976 228.448 31.2416C228.28 31.1856 228.092 31.1416 227.884 31.1096C227.684 31.0696 227.48 31.0496 227.272 31.0496C226.832 31.0496 226.436 31.1256 226.084 31.2776C225.732 31.4296 225.432 31.6496 225.184 31.9376C224.936 32.2256 224.744 32.5776 224.608 32.9936C224.48 33.4016 224.416 33.8616 224.416 34.3736C224.416 34.8696 224.472 35.3216 224.584 35.7296C224.704 36.1376 224.88 36.4896 225.112 36.7856C225.344 37.0736 225.632 37.2976 225.976 37.4576C226.328 37.6176 226.736 37.6976 227.2 37.6976C227.736 37.6976 228.18 37.6416 228.532 37.5296C228.884 37.4176 229.148 37.3176 229.324 37.2296L229.624 38.1896C229.568 38.2296 229.468 38.2816 229.324 38.3456C229.18 38.4016 229 38.4576 228.784 38.5136C228.568 38.5696 228.316 38.6176 228.028 38.6576C227.74 38.6976 227.428 38.7176 227.092 38.7176ZM230.778 40.7576H229.638L233.706 29.1416H234.822L230.778 40.7576ZM241.917 38.7176C241.333 38.7176 240.801 38.6216 240.321 38.4296C239.841 38.2376 239.429 37.9576 239.085 37.5896C238.741 37.2216 238.473 36.7696 238.281 36.2336C238.097 35.6896 238.005 35.0696 238.005 34.3736C238.005 33.6776 238.109 33.0616 238.317 32.5256C238.533 31.9816 238.821 31.5256 239.181 31.1576C239.541 30.7896 239.961 30.5096 240.441 30.3176C240.921 30.1256 241.433 30.0296 241.977 30.0296C242.321 30.0296 242.629 30.0536 242.901 30.1016C243.181 30.1496 243.421 30.2056 243.621 30.2696C243.829 30.3336 243.997 30.3976 244.125 30.4616C244.253 30.5256 244.341 30.5736 244.389 30.6056L244.053 31.5656C243.981 31.5176 243.877 31.4656 243.741 31.4096C243.605 31.3536 243.449 31.2976 243.273 31.2416C243.105 31.1856 242.917 31.1416 242.709 31.1096C242.509 31.0696 242.305 31.0496 242.097 31.0496C241.657 31.0496 241.261 31.1256 240.909 31.2776C240.557 31.4296 240.257 31.6496 240.009 31.9376C239.761 32.2256 239.569 32.5776 239.433 32.9936C239.305 33.4016 239.241 33.8616 239.241 34.3736C239.241 34.8696 239.297 35.3216 239.409 35.7296C239.529 36.1376 239.705 36.4896 239.937 36.7856C240.169 37.0736 240.457 37.2976 240.801 37.4576C241.153 37.6176 241.561 37.6976 242.025 37.6976C242.561 37.6976 243.005 37.6416 243.357 37.5296C243.709 37.4176 243.973 37.3176 244.149 37.2296L244.449 38.1896C244.393 38.2296 244.293 38.2816 244.149 38.3456C244.005 38.4016 243.825 38.4576 243.609 38.5136C243.393 38.5696 243.141 38.6176 242.853 38.6576C242.565 38.6976 242.253 38.7176 241.917 38.7176ZM245.386 34.4696H247.654V31.9976H248.614V34.4696H250.882V35.4176H248.614V37.9016H247.654V35.4176H245.386V34.4696ZM252.159 34.4696H254.427V31.9976H255.387V34.4696H257.655V35.4176H255.387V37.9016H254.427V35.4176H252.159V34.4696ZM261.926 40.7576H260.786L264.854 29.1416H265.97L261.926 40.7576ZM273.557 35.0576C273.685 35.2176 273.845 35.4296 274.037 35.6936C274.237 35.9496 274.441 36.2376 274.649 36.5576C274.857 36.8696 275.061 37.1976 275.261 37.5416C275.469 37.8856 275.645 38.2176 275.789 38.5376H274.517C274.357 38.2336 274.181 37.9256 273.989 37.6136C273.805 37.3016 273.617 37.0056 273.425 36.7256C273.233 36.4376 273.041 36.1696 272.849 35.9216C272.665 35.6736 272.497 35.4576 272.345 35.2736C272.241 35.2816 272.133 35.2856 272.021 35.2856C271.917 35.2856 271.809 35.2856 271.697 35.2856H270.653V38.5376H269.489V30.3416C269.817 30.2616 270.181 30.2096 270.581 30.1856C270.989 30.1536 271.361 30.1376 271.697 30.1376C272.865 30.1376 273.753 30.3576 274.361 30.7976C274.977 31.2376 275.285 31.8936 275.285 32.7656C275.285 33.3176 275.137 33.7896 274.841 34.1816C274.553 34.5736 274.125 34.8656 273.557 35.0576ZM271.793 31.1576C271.297 31.1576 270.917 31.1696 270.653 31.1936V34.3256H271.481C271.881 34.3256 272.241 34.3056 272.561 34.2656C272.881 34.2256 273.149 34.1496 273.365 34.0376C273.589 33.9256 273.761 33.7696 273.881 33.5696C274.001 33.3616 274.061 33.0896 274.061 32.7536C274.061 32.4416 274.001 32.1816 273.881 31.9736C273.761 31.7656 273.597 31.6016 273.389 31.4816C273.189 31.3616 272.949 31.2776 272.669 31.2296C272.397 31.1816 272.105 31.1576 271.793 31.1576ZM281.932 38.3576C281.676 38.4216 281.336 38.4896 280.912 38.5616C280.496 38.6336 280.012 38.6696 279.46 38.6696C278.98 38.6696 278.576 38.6016 278.248 38.4656C277.92 38.3216 277.656 38.1216 277.456 37.8656C277.256 37.6096 277.112 37.3096 277.024 36.9656C276.936 36.6136 276.892 36.2256 276.892 35.8016V32.2976H278.008V35.5616C278.008 36.3216 278.128 36.8656 278.368 37.1936C278.608 37.5216 279.012 37.6856 279.58 37.6856C279.7 37.6856 279.824 37.6816 279.952 37.6736C280.08 37.6656 280.2 37.6576 280.312 37.6496C280.424 37.6336 280.524 37.6216 280.612 37.6136C280.708 37.5976 280.776 37.5816 280.816 37.5656V32.2976H281.932V38.3576ZM285.307 37.7336C285.763 37.7336 286.099 37.6736 286.315 37.5536C286.539 37.4336 286.651 37.2416 286.651 36.9776C286.651 36.7056 286.543 36.4896 286.327 36.3296C286.111 36.1696 285.755 35.9896 285.259 35.7896C285.019 35.6936 284.787 35.5976 284.563 35.5016C284.347 35.3976 284.159 35.2776 283.999 35.1416C283.839 35.0056 283.711 34.8416 283.615 34.6496C283.519 34.4576 283.471 34.2216 283.471 33.9416C283.471 33.3896 283.675 32.9536 284.083 32.6336C284.491 32.3056 285.047 32.1416 285.751 32.1416C285.927 32.1416 286.103 32.1536 286.279 32.1776C286.455 32.1936 286.619 32.2176 286.771 32.2496C286.923 32.2736 287.055 32.3016 287.167 32.3336C287.287 32.3656 287.379 32.3936 287.443 32.4176L287.239 33.3776C287.119 33.3136 286.931 33.2496 286.675 33.1856C286.419 33.1136 286.111 33.0776 285.751 33.0776C285.439 33.0776 285.167 33.1416 284.935 33.2696C284.703 33.3896 284.587 33.5816 284.587 33.8456C284.587 33.9816 284.611 34.1016 284.659 34.2056C284.715 34.3096 284.795 34.4056 284.899 34.4936C285.011 34.5736 285.147 34.6496 285.307 34.7216C285.467 34.7936 285.659 34.8696 285.883 34.9496C286.179 35.0616 286.443 35.1736 286.675 35.2856C286.907 35.3896 287.103 35.5136 287.263 35.6576C287.431 35.8016 287.559 35.9776 287.647 36.1856C287.735 36.3856 287.779 36.6336 287.779 36.9296C287.779 37.5056 287.563 37.9416 287.131 38.2376C286.707 38.5336 286.099 38.6816 285.307 38.6816C284.755 38.6816 284.323 38.6336 284.011 38.5376C283.699 38.4496 283.487 38.3816 283.375 38.3336L283.579 37.3736C283.707 37.4216 283.911 37.4936 284.191 37.5896C284.471 37.6856 284.843 37.7336 285.307 37.7336ZM290.254 32.2976H292.618V33.2336H290.254V36.1136C290.254 36.4256 290.278 36.6856 290.326 36.8936C290.374 37.0936 290.446 37.2536 290.542 37.3736C290.638 37.4856 290.758 37.5656 290.902 37.6136C291.046 37.6616 291.214 37.6856 291.406 37.6856C291.742 37.6856 292.01 37.6496 292.21 37.5776C292.418 37.4976 292.562 37.4416 292.642 37.4096L292.858 38.3336C292.746 38.3896 292.55 38.4576 292.27 38.5376C291.99 38.6256 291.67 38.6696 291.31 38.6696C290.886 38.6696 290.534 38.6176 290.254 38.5136C289.982 38.4016 289.762 38.2376 289.594 38.0216C289.426 37.8056 289.306 37.5416 289.234 37.2296C289.17 36.9096 289.138 36.5416 289.138 36.1256V30.5576L290.254 30.3656V32.2976ZM296.707 40.7576H295.567L299.635 29.1416H300.751L296.707 40.7576ZM306.241 34.4456H307.405V38.3336C307.309 38.3656 307.169 38.4016 306.985 38.4416C306.809 38.4816 306.601 38.5216 306.361 38.5616C306.129 38.6016 305.873 38.6336 305.593 38.6576C305.313 38.6896 305.029 38.7056 304.741 38.7056C304.157 38.7056 303.625 38.6096 303.145 38.4176C302.665 38.2256 302.253 37.9456 301.909 37.5776C301.565 37.2096 301.297 36.7576 301.105 36.2216C300.921 35.6856 300.829 35.0696 300.829 34.3736C300.829 33.6776 300.933 33.0616 301.141 32.5256C301.357 31.9816 301.645 31.5256 302.005 31.1576C302.365 30.7896 302.785 30.5096 303.265 30.3176C303.753 30.1256 304.273 30.0296 304.825 30.0296C305.201 30.0296 305.533 30.0536 305.821 30.1016C306.117 30.1496 306.369 30.2056 306.577 30.2696C306.785 30.3336 306.953 30.3976 307.081 30.4616C307.217 30.5256 307.309 30.5736 307.357 30.6056L306.985 31.5776C306.753 31.4256 306.445 31.3016 306.061 31.2056C305.677 31.1016 305.285 31.0496 304.885 31.0496C304.461 31.0496 304.073 31.1256 303.721 31.2776C303.377 31.4296 303.081 31.6496 302.833 31.9376C302.593 32.2256 302.405 32.5776 302.269 32.9936C302.133 33.4016 302.065 33.8616 302.065 34.3736C302.065 34.8696 302.121 35.3216 302.233 35.7296C302.353 36.1376 302.529 36.4896 302.761 36.7856C303.001 37.0736 303.293 37.2976 303.637 37.4576C303.989 37.6176 304.401 37.6976 304.873 37.6976C305.209 37.6976 305.493 37.6816 305.725 37.6496C305.965 37.6096 306.137 37.5736 306.241 37.5416V34.4456ZM314.663 35.4176C314.663 35.9136 314.591 36.3616 314.447 36.7616C314.303 37.1616 314.099 37.5056 313.835 37.7936C313.579 38.0816 313.271 38.3056 312.911 38.4656C312.551 38.6176 312.159 38.6936 311.735 38.6936C311.311 38.6936 310.919 38.6176 310.559 38.4656C310.199 38.3056 309.887 38.0816 309.623 37.7936C309.367 37.5056 309.167 37.1616 309.023 36.7616C308.879 36.3616 308.807 35.9136 308.807 35.4176C308.807 34.9296 308.879 34.4856 309.023 34.0856C309.167 33.6776 309.367 33.3296 309.623 33.0416C309.887 32.7536 310.199 32.5336 310.559 32.3816C310.919 32.2216 311.311 32.1416 311.735 32.1416C312.159 32.1416 312.551 32.2216 312.911 32.3816C313.271 32.5336 313.579 32.7536 313.835 33.0416C314.099 33.3296 314.303 33.6776 314.447 34.0856C314.591 34.4856 314.663 34.9296 314.663 35.4176ZM313.499 35.4176C313.499 34.7136 313.339 34.1576 313.019 33.7496C312.707 33.3336 312.279 33.1256 311.735 33.1256C311.191 33.1256 310.759 33.3336 310.439 33.7496C310.127 34.1576 309.971 34.7136 309.971 35.4176C309.971 36.1216 310.127 36.6816 310.439 37.0976C310.759 37.5056 311.191 37.7096 311.735 37.7096C312.279 37.7096 312.707 37.5056 313.019 37.0976C313.339 36.6816 313.499 36.1216 313.499 35.4176Z" fill="white"/>
</g>
<path d="M31.474 118.21C30.746 118.21 30.0927 118.098 29.514 117.874C28.9353 117.65 28.4453 117.323 28.044 116.894C27.6427 116.455 27.3347 115.923 27.12 115.298C26.9053 114.673 26.798 113.954 26.798 113.142C26.798 112.33 26.9193 111.611 27.162 110.986C27.414 110.361 27.7547 109.833 28.184 109.404C28.6133 108.965 29.1173 108.634 29.696 108.41C30.2747 108.186 30.8953 108.074 31.558 108.074C31.9593 108.074 32.3233 108.107 32.65 108.172C32.9767 108.228 33.2613 108.293 33.504 108.368C33.7467 108.443 33.9473 108.522 34.106 108.606C34.2647 108.69 34.3767 108.751 34.442 108.788L33.924 110.23C33.7 110.09 33.378 109.959 32.958 109.838C32.5473 109.707 32.0993 109.642 31.614 109.642C31.194 109.642 30.802 109.717 30.438 109.866C30.074 110.006 29.7567 110.221 29.486 110.51C29.2247 110.799 29.0193 111.163 28.87 111.602C28.7207 112.041 28.646 112.549 28.646 113.128C28.646 113.641 28.702 114.113 28.814 114.542C28.9353 114.971 29.1173 115.345 29.36 115.662C29.6027 115.97 29.9107 116.213 30.284 116.39C30.6573 116.558 31.1053 116.642 31.628 116.642C32.2533 116.642 32.762 116.581 33.154 116.46C33.546 116.329 33.8493 116.208 34.064 116.096L34.54 117.538C34.428 117.613 34.274 117.687 34.078 117.762C33.8913 117.837 33.6673 117.911 33.406 117.986C33.1447 118.051 32.8507 118.103 32.524 118.14C32.1973 118.187 31.8473 118.21 31.474 118.21ZM38.8337 108.2C40.2431 108.2 41.3211 108.457 42.0677 108.97C42.8237 109.483 43.2017 110.286 43.2017 111.378C43.2017 111.947 43.0991 112.437 42.8937 112.848C42.6977 113.249 42.4084 113.581 42.0257 113.842C41.6431 114.094 41.1764 114.281 40.6257 114.402C40.0751 114.523 39.4451 114.584 38.7357 114.584H37.8537V118H36.0897V108.438C36.5004 108.345 36.9531 108.284 37.4477 108.256C37.9517 108.219 38.4137 108.2 38.8337 108.2ZM38.9597 109.726C38.5117 109.726 38.1431 109.74 37.8537 109.768V113.072H38.7077C39.5571 113.072 40.2104 112.955 40.6677 112.722C41.1251 112.479 41.3537 112.027 41.3537 111.364C41.3537 111.047 41.2931 110.781 41.1717 110.566C41.0504 110.351 40.8824 110.183 40.6677 110.062C40.4531 109.941 40.1964 109.857 39.8977 109.81C39.6084 109.754 39.2957 109.726 38.9597 109.726ZM48.5504 118.21C47.8877 118.21 47.3184 118.117 46.8424 117.93C46.3664 117.734 45.9697 117.463 45.6524 117.118C45.3444 116.773 45.1157 116.367 44.9664 115.9C44.8171 115.433 44.7424 114.92 44.7424 114.36V108.298H46.5204V114.192C46.5204 114.631 46.5671 115.009 46.6604 115.326C46.7631 115.634 46.9031 115.886 47.0804 116.082C47.2671 116.278 47.4817 116.423 47.7244 116.516C47.9764 116.609 48.2564 116.656 48.5644 116.656C48.8724 116.656 49.1524 116.609 49.4044 116.516C49.6564 116.423 49.8711 116.278 50.0484 116.082C50.2351 115.886 50.3751 115.634 50.4684 115.326C50.5711 115.009 50.6224 114.631 50.6224 114.192V108.298H52.4004V114.36C52.4004 114.92 52.3211 115.433 52.1624 115.9C52.0131 116.367 51.7797 116.773 51.4624 117.118C51.1544 117.463 50.7577 117.734 50.2724 117.93C49.7871 118.117 49.2131 118.21 48.5504 118.21Z" fill="#262626"/>
<rect x="26.5" y="128.5" width="236.5" height="37" rx="1.5" fill="white"/>
<path d="M39.4524 144.3C39.9844 144.095 40.5024 143.833 41.0064 143.516C41.5104 143.189 41.9724 142.783 42.3924 142.298H43.3164V152H42.0144V144.104C41.9024 144.207 41.7624 144.314 41.5944 144.426C41.4357 144.538 41.2584 144.645 41.0624 144.748C40.8757 144.851 40.6751 144.949 40.4604 145.042C40.2551 145.135 40.0544 145.215 39.8584 145.28L39.4524 144.3ZM46.7527 147.142C46.7527 145.518 47.0374 144.267 47.6067 143.39C48.1854 142.513 48.9834 142.074 50.0007 142.074C51.0181 142.074 51.8114 142.513 52.3807 143.39C52.9594 144.267 53.2487 145.518 53.2487 147.142C53.2487 148.766 52.9594 150.017 52.3807 150.894C51.8114 151.771 51.0181 152.21 50.0007 152.21C48.9834 152.21 48.1854 151.771 47.6067 150.894C47.0374 150.017 46.7527 148.766 46.7527 147.142ZM51.8767 147.142C51.8767 146.61 51.8441 146.106 51.7787 145.63C51.7227 145.154 51.6201 144.739 51.4707 144.384C51.3307 144.029 51.1394 143.749 50.8967 143.544C50.6541 143.329 50.3554 143.222 50.0007 143.222C49.6461 143.222 49.3474 143.329 49.1047 143.544C48.8621 143.749 48.6661 144.029 48.5167 144.384C48.3767 144.739 48.2741 145.154 48.2087 145.63C48.1527 146.106 48.1247 146.61 48.1247 147.142C48.1247 147.674 48.1527 148.178 48.2087 148.654C48.2741 149.13 48.3767 149.545 48.5167 149.9C48.6661 150.255 48.8621 150.539 49.1047 150.754C49.3474 150.959 49.6461 151.062 50.0007 151.062C50.3554 151.062 50.6541 150.959 50.8967 150.754C51.1394 150.539 51.3307 150.255 51.4707 149.9C51.6201 149.545 51.7227 149.13 51.7787 148.654C51.8441 148.178 51.8767 147.674 51.8767 147.142ZM54.6551 147.142C54.6551 145.518 54.9397 144.267 55.5091 143.39C56.0877 142.513 56.8857 142.074 57.9031 142.074C58.9204 142.074 59.7137 142.513 60.2831 143.39C60.8617 144.267 61.1511 145.518 61.1511 147.142C61.1511 148.766 60.8617 150.017 60.2831 150.894C59.7137 151.771 58.9204 152.21 57.9031 152.21C56.8857 152.21 56.0877 151.771 55.5091 150.894C54.9397 150.017 54.6551 148.766 54.6551 147.142ZM59.7791 147.142C59.7791 146.61 59.7464 146.106 59.6811 145.63C59.6251 145.154 59.5224 144.739 59.3731 144.384C59.2331 144.029 59.0417 143.749 58.7991 143.544C58.5564 143.329 58.2577 143.222 57.9031 143.222C57.5484 143.222 57.2497 143.329 57.0071 143.544C56.7644 143.749 56.5684 144.029 56.4191 144.384C56.2791 144.739 56.1764 145.154 56.1111 145.63C56.0551 146.106 56.0271 146.61 56.0271 147.142C56.0271 147.674 56.0551 148.178 56.1111 148.654C56.1764 149.13 56.2791 149.545 56.4191 149.9C56.5684 150.255 56.7644 150.539 57.0071 150.754C57.2497 150.959 57.5484 151.062 57.9031 151.062C58.2577 151.062 58.5564 150.959 58.7991 150.754C59.0417 150.539 59.2331 150.255 59.3731 149.9C59.5224 149.545 59.6251 149.13 59.6811 148.654C59.7464 148.178 59.7791 147.674 59.7791 147.142ZM62.5574 147.142C62.5574 145.518 62.8421 144.267 63.4114 143.39C63.9901 142.513 64.7881 142.074 65.8054 142.074C66.8228 142.074 67.6161 142.513 68.1854 143.39C68.7641 144.267 69.0534 145.518 69.0534 147.142C69.0534 148.766 68.7641 150.017 68.1854 150.894C67.6161 151.771 66.8228 152.21 65.8054 152.21C64.7881 152.21 63.9901 151.771 63.4114 150.894C62.8421 150.017 62.5574 148.766 62.5574 147.142ZM67.6814 147.142C67.6814 146.61 67.6488 146.106 67.5834 145.63C67.5274 145.154 67.4248 144.739 67.2754 144.384C67.1354 144.029 66.9441 143.749 66.7014 143.544C66.4588 143.329 66.1601 143.222 65.8054 143.222C65.4508 143.222 65.1521 143.329 64.9094 143.544C64.6668 143.749 64.4708 144.029 64.3214 144.384C64.1814 144.739 64.0788 145.154 64.0134 145.63C63.9574 146.106 63.9294 146.61 63.9294 147.142C63.9294 147.674 63.9574 148.178 64.0134 148.654C64.0788 149.13 64.1814 149.545 64.3214 149.9C64.4708 150.255 64.6668 150.539 64.9094 150.754C65.1521 150.959 65.4508 151.062 65.8054 151.062C66.1601 151.062 66.4588 150.959 66.7014 150.754C66.9441 150.539 67.1354 150.255 67.2754 149.9C67.4248 149.545 67.5274 149.13 67.5834 148.654C67.6488 148.178 67.6814 147.674 67.6814 147.142Z" fill="#262626"/>
<path d="M74.12 144.93C74.4187 144.855 74.8107 144.776 75.296 144.692C75.7907 144.608 76.36 144.566 77.004 144.566C77.4707 144.566 77.8627 144.631 78.18 144.762C78.4973 144.883 78.7633 145.065 78.978 145.308C79.0433 145.261 79.146 145.196 79.286 145.112C79.426 145.028 79.5987 144.949 79.804 144.874C80.0093 144.79 80.238 144.72 80.49 144.664C80.742 144.599 81.0127 144.566 81.302 144.566C81.862 144.566 82.3193 144.65 82.674 144.818C83.0287 144.977 83.304 145.205 83.5 145.504C83.7053 145.803 83.8407 146.157 83.906 146.568C83.9807 146.979 84.018 147.427 84.018 147.912V152H82.716V148.192C82.716 147.763 82.6927 147.394 82.646 147.086C82.6087 146.778 82.5293 146.521 82.408 146.316C82.296 146.111 82.1373 145.961 81.932 145.868C81.736 145.765 81.4793 145.714 81.162 145.714C80.7233 145.714 80.3593 145.775 80.07 145.896C79.79 146.008 79.5987 146.111 79.496 146.204C79.5707 146.447 79.6267 146.713 79.664 147.002C79.7013 147.291 79.72 147.595 79.72 147.912V152H78.418V148.192C78.418 147.763 78.3947 147.394 78.348 147.086C78.3013 146.778 78.2173 146.521 78.096 146.316C77.984 146.111 77.8253 145.961 77.62 145.868C77.424 145.765 77.172 145.714 76.864 145.714C76.7333 145.714 76.5933 145.719 76.444 145.728C76.2947 145.737 76.15 145.751 76.01 145.77C75.8793 145.779 75.758 145.793 75.646 145.812C75.534 145.831 75.4593 145.845 75.422 145.854V152H74.12V144.93ZM89.3426 152.168C88.7546 152.168 88.2366 152.075 87.7886 151.888C87.3499 151.701 86.9766 151.44 86.6686 151.104C86.3699 150.768 86.1459 150.371 85.9966 149.914C85.8473 149.447 85.7726 148.934 85.7726 148.374C85.7726 147.814 85.8519 147.301 86.0106 146.834C86.1786 146.367 86.4119 145.966 86.7106 145.63C87.0093 145.285 87.3733 145.019 87.8026 144.832C88.2413 144.636 88.7266 144.538 89.2586 144.538C89.5853 144.538 89.9119 144.566 90.2386 144.622C90.5653 144.678 90.8779 144.767 91.1766 144.888L90.8826 145.994C90.6866 145.901 90.4579 145.826 90.1966 145.77C89.9446 145.714 89.6739 145.686 89.3846 145.686C88.6566 145.686 88.0966 145.915 87.7046 146.372C87.3219 146.829 87.1306 147.497 87.1306 148.374C87.1306 148.766 87.1726 149.125 87.2566 149.452C87.3499 149.779 87.4899 150.059 87.6766 150.292C87.8726 150.525 88.1199 150.707 88.4186 150.838C88.7173 150.959 89.0813 151.02 89.5106 151.02C89.8559 151.02 90.1686 150.987 90.4486 150.922C90.7286 150.857 90.9479 150.787 91.1066 150.712L91.2886 151.804C91.2139 151.851 91.1066 151.897 90.9666 151.944C90.8266 151.981 90.6679 152.014 90.4906 152.042C90.3133 152.079 90.1219 152.107 89.9166 152.126C89.7206 152.154 89.5293 152.168 89.3426 152.168ZM97.7404 148.374C97.7404 147.525 97.5304 146.871 97.1104 146.414C96.6904 145.957 96.1304 145.728 95.4304 145.728C95.0384 145.728 94.7304 145.742 94.5064 145.77C94.2917 145.798 94.1191 145.831 93.9884 145.868V150.46C94.1471 150.591 94.3757 150.717 94.6744 150.838C94.9731 150.959 95.2997 151.02 95.6544 151.02C96.0277 151.02 96.3451 150.955 96.6064 150.824C96.8771 150.684 97.0964 150.497 97.2644 150.264C97.4324 150.021 97.5537 149.741 97.6284 149.424C97.7031 149.097 97.7404 148.747 97.7404 148.374ZM99.0984 148.374C99.0984 148.925 99.0237 149.433 98.8744 149.9C98.7344 150.367 98.5244 150.768 98.2444 151.104C97.9644 151.44 97.6191 151.701 97.2084 151.888C96.8071 152.075 96.3451 152.168 95.8224 152.168C95.4024 152.168 95.0291 152.112 94.7024 152C94.3851 151.888 94.1471 151.781 93.9884 151.678V154.59H92.6864V144.944C92.9944 144.869 93.3771 144.79 93.8344 144.706C94.3011 144.613 94.8377 144.566 95.4444 144.566C96.0044 144.566 96.5084 144.655 96.9564 144.832C97.4044 145.009 97.7871 145.261 98.1044 145.588C98.4217 145.915 98.6644 146.316 98.8324 146.792C99.0097 147.259 99.0984 147.786 99.0984 148.374ZM106.727 151.79C106.428 151.865 106.031 151.944 105.537 152.028C105.051 152.112 104.487 152.154 103.843 152.154C103.283 152.154 102.811 152.075 102.429 151.916C102.046 151.748 101.738 151.515 101.505 151.216C101.271 150.917 101.103 150.567 101.001 150.166C100.898 149.755 100.847 149.303 100.847 148.808V144.72H102.149V148.528C102.149 149.415 102.289 150.049 102.569 150.432C102.849 150.815 103.32 151.006 103.983 151.006C104.123 151.006 104.267 151.001 104.417 150.992C104.566 150.983 104.706 150.973 104.837 150.964C104.967 150.945 105.084 150.931 105.187 150.922C105.299 150.903 105.378 150.885 105.425 150.866V144.72H106.727V151.79Z" fill="#C4C7CF"/>
<rect x="26.5" y="128.5" width="236.5" height="37" rx="1.5" stroke="#C4C7CF"/>
<rect x="26" y="181" width="237.5" height="4" fill="#F0F2F5"/>
<g clip-path="url(#clip1_4928_194000)">
<rect x="26" y="181" width="117" height="4" fill="#9254DE"/>
<circle cx="143" cy="183" r="6" fill="white" stroke="#9254DE" stroke-width="2"/>
</g>
<path d="M292.336 108.2C293.736 108.2 294.805 108.457 295.542 108.97C296.289 109.483 296.662 110.267 296.662 111.322C296.662 112.638 296.013 113.529 294.716 113.996C294.893 114.211 295.094 114.472 295.318 114.78C295.542 115.088 295.771 115.424 296.004 115.788C296.237 116.143 296.461 116.511 296.676 116.894C296.891 117.267 297.082 117.636 297.25 118H295.276C295.099 117.664 294.907 117.328 294.702 116.992C294.497 116.647 294.287 116.315 294.072 115.998C293.867 115.671 293.661 115.368 293.456 115.088C293.251 114.799 293.059 114.542 292.882 114.318C292.751 114.327 292.639 114.332 292.546 114.332C292.453 114.332 292.364 114.332 292.28 114.332H291.426V118H289.662V108.438C290.091 108.345 290.549 108.284 291.034 108.256C291.519 108.219 291.953 108.2 292.336 108.2ZM292.462 109.726C292.089 109.726 291.743 109.74 291.426 109.768V112.904H292.196C292.625 112.904 293.003 112.881 293.33 112.834C293.657 112.787 293.927 112.703 294.142 112.582C294.366 112.461 294.534 112.297 294.646 112.092C294.758 111.887 294.814 111.625 294.814 111.308C294.814 111.009 294.758 110.757 294.646 110.552C294.534 110.347 294.371 110.183 294.156 110.062C293.951 109.941 293.703 109.857 293.414 109.81C293.125 109.754 292.807 109.726 292.462 109.726ZM305.413 118C305.282 117.617 305.147 117.239 305.007 116.866C304.867 116.493 304.731 116.11 304.601 115.718H300.513C300.382 116.11 300.247 116.497 300.107 116.88C299.976 117.253 299.845 117.627 299.715 118H297.881C298.245 116.964 298.59 116.007 298.917 115.13C299.243 114.253 299.561 113.422 299.869 112.638C300.186 111.854 300.499 111.107 300.807 110.398C301.115 109.689 301.432 108.989 301.759 108.298H303.425C303.751 108.989 304.069 109.689 304.377 110.398C304.685 111.107 304.993 111.854 305.301 112.638C305.618 113.422 305.94 114.253 306.267 115.13C306.603 116.007 306.953 116.964 307.317 118H305.413ZM302.557 110.174C302.342 110.669 302.095 111.271 301.815 111.98C301.544 112.689 301.259 113.459 300.961 114.29H304.153C303.854 113.459 303.565 112.685 303.285 111.966C303.005 111.247 302.762 110.65 302.557 110.174ZM310.657 108.298C310.862 108.653 311.091 109.087 311.343 109.6C311.595 110.113 311.852 110.655 312.113 111.224C312.374 111.784 312.631 112.358 312.883 112.946C313.144 113.525 313.382 114.061 313.597 114.556C313.812 114.061 314.045 113.525 314.297 112.946C314.549 112.358 314.806 111.784 315.067 111.224C315.328 110.655 315.585 110.113 315.837 109.6C316.089 109.087 316.318 108.653 316.523 108.298H318.119C318.203 109.007 318.282 109.763 318.357 110.566C318.432 111.359 318.497 112.176 318.553 113.016C318.618 113.847 318.674 114.687 318.721 115.536C318.777 116.376 318.824 117.197 318.861 118H317.125C317.088 116.871 317.041 115.709 316.985 114.514C316.938 113.319 316.864 112.162 316.761 111.042C316.658 111.257 316.537 111.513 316.397 111.812C316.257 112.111 316.108 112.437 315.949 112.792C315.79 113.137 315.627 113.497 315.459 113.87C315.3 114.243 315.142 114.607 314.983 114.962C314.834 115.307 314.694 115.634 314.563 115.942C314.432 116.241 314.32 116.497 314.227 116.712H312.911C312.818 116.497 312.706 116.236 312.575 115.928C312.444 115.62 312.3 115.293 312.141 114.948C311.992 114.593 311.833 114.229 311.665 113.856C311.506 113.483 311.348 113.123 311.189 112.778C311.03 112.433 310.881 112.111 310.741 111.812C310.601 111.504 310.48 111.247 310.377 111.042C310.274 112.162 310.195 113.319 310.139 114.514C310.092 115.709 310.05 116.871 310.013 118H308.277C308.314 117.197 308.356 116.367 308.403 115.508C308.459 114.649 308.515 113.8 308.571 112.96C308.636 112.111 308.706 111.289 308.781 110.496C308.856 109.703 308.935 108.97 309.019 108.298H310.657Z" fill="#262626"/>
<rect x="289" y="128.5" width="236.5" height="37" rx="1.5" fill="white"/>
<path d="M307.517 144.776C307.517 145.112 307.447 145.439 307.307 145.756C307.177 146.064 306.999 146.372 306.775 146.68C306.551 146.979 306.299 147.277 306.019 147.576C305.739 147.865 305.459 148.15 305.179 148.43C305.021 148.589 304.834 148.775 304.619 148.99C304.414 149.205 304.218 149.429 304.031 149.662C303.845 149.895 303.686 150.119 303.555 150.334C303.434 150.549 303.373 150.735 303.373 150.894H307.839V152H301.959C301.95 151.944 301.945 151.888 301.945 151.832C301.945 151.776 301.945 151.725 301.945 151.678C301.945 151.239 302.015 150.833 302.155 150.46C302.305 150.077 302.496 149.718 302.729 149.382C302.963 149.046 303.224 148.729 303.513 148.43C303.803 148.131 304.087 147.842 304.367 147.562C304.601 147.338 304.82 147.119 305.025 146.904C305.24 146.68 305.427 146.461 305.585 146.246C305.753 146.022 305.884 145.793 305.977 145.56C306.08 145.327 306.131 145.079 306.131 144.818C306.131 144.538 306.085 144.3 305.991 144.104C305.907 143.908 305.791 143.745 305.641 143.614C305.492 143.483 305.315 143.39 305.109 143.334C304.913 143.269 304.703 143.236 304.479 143.236C304.209 143.236 303.961 143.273 303.737 143.348C303.513 143.423 303.313 143.511 303.135 143.614C302.958 143.707 302.809 143.81 302.687 143.922C302.566 144.025 302.473 144.104 302.407 144.16L301.763 143.236C301.847 143.143 301.973 143.031 302.141 142.9C302.309 142.76 302.51 142.629 302.743 142.508C302.977 142.387 303.238 142.284 303.527 142.2C303.817 142.116 304.129 142.074 304.465 142.074C305.483 142.074 306.243 142.312 306.747 142.788C307.261 143.255 307.517 143.917 307.517 144.776ZM309.582 147.142C309.582 145.518 309.867 144.267 310.436 143.39C311.015 142.513 311.813 142.074 312.83 142.074C313.847 142.074 314.641 142.513 315.21 143.39C315.789 144.267 316.078 145.518 316.078 147.142C316.078 148.766 315.789 150.017 315.21 150.894C314.641 151.771 313.847 152.21 312.83 152.21C311.813 152.21 311.015 151.771 310.436 150.894C309.867 150.017 309.582 148.766 309.582 147.142ZM314.706 147.142C314.706 146.61 314.673 146.106 314.608 145.63C314.552 145.154 314.449 144.739 314.3 144.384C314.16 144.029 313.969 143.749 313.726 143.544C313.483 143.329 313.185 143.222 312.83 143.222C312.475 143.222 312.177 143.329 311.934 143.544C311.691 143.749 311.495 144.029 311.346 144.384C311.206 144.739 311.103 145.154 311.038 145.63C310.982 146.106 310.954 146.61 310.954 147.142C310.954 147.674 310.982 148.178 311.038 148.654C311.103 149.13 311.206 149.545 311.346 149.9C311.495 150.255 311.691 150.539 311.934 150.754C312.177 150.959 312.475 151.062 312.83 151.062C313.185 151.062 313.483 150.959 313.726 150.754C313.969 150.539 314.16 150.255 314.3 149.9C314.449 149.545 314.552 149.13 314.608 148.654C314.673 148.178 314.706 147.674 314.706 147.142ZM317.484 147.142C317.484 145.518 317.769 144.267 318.338 143.39C318.917 142.513 319.715 142.074 320.732 142.074C321.75 142.074 322.543 142.513 323.112 143.39C323.691 144.267 323.98 145.518 323.98 147.142C323.98 148.766 323.691 150.017 323.112 150.894C322.543 151.771 321.75 152.21 320.732 152.21C319.715 152.21 318.917 151.771 318.338 150.894C317.769 150.017 317.484 148.766 317.484 147.142ZM322.608 147.142C322.608 146.61 322.576 146.106 322.51 145.63C322.454 145.154 322.352 144.739 322.202 144.384C322.062 144.029 321.871 143.749 321.628 143.544C321.386 143.329 321.087 143.222 320.732 143.222C320.378 143.222 320.079 143.329 319.836 143.544C319.594 143.749 319.398 144.029 319.248 144.384C319.108 144.739 319.006 145.154 318.94 145.63C318.884 146.106 318.856 146.61 318.856 147.142C318.856 147.674 318.884 148.178 318.94 148.654C319.006 149.13 319.108 149.545 319.248 149.9C319.398 150.255 319.594 150.539 319.836 150.754C320.079 150.959 320.378 151.062 320.732 151.062C321.087 151.062 321.386 150.959 321.628 150.754C321.871 150.539 322.062 150.255 322.202 149.9C322.352 149.545 322.454 149.13 322.51 148.654C322.576 148.178 322.608 147.674 322.608 147.142ZM325.387 147.142C325.387 145.518 325.671 144.267 326.241 143.39C326.819 142.513 327.617 142.074 328.635 142.074C329.652 142.074 330.445 142.513 331.015 143.39C331.593 144.267 331.883 145.518 331.883 147.142C331.883 148.766 331.593 150.017 331.015 150.894C330.445 151.771 329.652 152.21 328.635 152.21C327.617 152.21 326.819 151.771 326.241 150.894C325.671 150.017 325.387 148.766 325.387 147.142ZM330.511 147.142C330.511 146.61 330.478 146.106 330.413 145.63C330.357 145.154 330.254 144.739 330.105 144.384C329.965 144.029 329.773 143.749 329.531 143.544C329.288 143.329 328.989 143.222 328.635 143.222C328.28 143.222 327.981 143.329 327.739 143.544C327.496 143.749 327.3 144.029 327.151 144.384C327.011 144.739 326.908 145.154 326.843 145.63C326.787 146.106 326.759 146.61 326.759 147.142C326.759 147.674 326.787 148.178 326.843 148.654C326.908 149.13 327.011 149.545 327.151 149.9C327.3 150.255 327.496 150.539 327.739 150.754C327.981 150.959 328.28 151.062 328.635 151.062C328.989 151.062 329.288 150.959 329.531 150.754C329.773 150.539 329.965 150.255 330.105 149.9C330.254 149.545 330.357 149.13 330.413 148.654C330.478 148.178 330.511 147.674 330.511 147.142Z" fill="#262626"/>
<path d="M341.387 150.656C341.294 150.432 341.168 150.147 341.009 149.802C340.86 149.457 340.696 149.083 340.519 148.682C340.342 148.281 340.15 147.87 339.945 147.45C339.749 147.021 339.562 146.619 339.385 146.246C339.208 145.863 339.04 145.523 338.881 145.224C338.732 144.925 338.61 144.697 338.517 144.538C338.414 145.639 338.33 146.834 338.265 148.122C338.2 149.401 338.144 150.693 338.097 152H336.767C336.804 151.16 336.846 150.315 336.893 149.466C336.94 148.607 336.991 147.767 337.047 146.946C337.112 146.115 337.178 145.308 337.243 144.524C337.318 143.74 337.397 142.998 337.481 142.298H338.671C338.923 142.709 339.194 143.194 339.483 143.754C339.772 144.314 340.062 144.902 340.351 145.518C340.64 146.125 340.92 146.736 341.191 147.352C341.462 147.959 341.709 148.514 341.933 149.018C342.157 148.514 342.404 147.959 342.675 147.352C342.946 146.736 343.226 146.125 343.515 145.518C343.804 144.902 344.094 144.314 344.383 143.754C344.672 143.194 344.943 142.709 345.195 142.298H346.385C346.702 145.425 346.94 148.659 347.099 152H345.769C345.722 150.693 345.666 149.401 345.601 148.122C345.536 146.834 345.452 145.639 345.349 144.538C345.256 144.697 345.13 144.925 344.971 145.224C344.822 145.523 344.658 145.863 344.481 146.246C344.304 146.619 344.112 147.021 343.907 147.45C343.711 147.87 343.524 148.281 343.347 148.682C343.17 149.083 343.002 149.457 342.843 149.802C342.694 150.147 342.572 150.432 342.479 150.656H341.387ZM351.846 152.084C351.65 152.084 351.436 152.079 351.202 152.07C350.978 152.061 350.75 152.047 350.516 152.028C350.292 152.009 350.068 151.986 349.844 151.958C349.62 151.93 349.415 151.893 349.228 151.846V142.438C349.415 142.391 349.62 142.354 349.844 142.326C350.068 142.298 350.292 142.275 350.516 142.256C350.75 142.237 350.978 142.223 351.202 142.214C351.426 142.205 351.636 142.2 351.832 142.2C352.392 142.2 352.915 142.242 353.4 142.326C353.895 142.41 354.32 142.555 354.674 142.76C355.038 142.956 355.323 143.217 355.528 143.544C355.734 143.871 355.836 144.272 355.836 144.748C355.836 145.28 355.71 145.719 355.458 146.064C355.206 146.4 354.87 146.652 354.45 146.82C355.02 146.988 355.472 147.254 355.808 147.618C356.144 147.982 356.312 148.495 356.312 149.158C356.312 150.129 355.953 150.861 355.234 151.356C354.525 151.841 353.396 152.084 351.846 152.084ZM350.572 147.478V150.894C350.675 150.903 350.796 150.913 350.936 150.922C351.058 150.931 351.198 150.941 351.356 150.95C351.524 150.95 351.716 150.95 351.93 150.95C352.332 150.95 352.71 150.927 353.064 150.88C353.428 150.824 353.746 150.731 354.016 150.6C354.287 150.469 354.502 150.287 354.66 150.054C354.828 149.821 354.912 149.527 354.912 149.172C354.912 148.855 354.852 148.589 354.73 148.374C354.609 148.15 354.432 147.973 354.198 147.842C353.974 147.711 353.704 147.618 353.386 147.562C353.069 147.506 352.714 147.478 352.322 147.478H350.572ZM350.572 146.386H352C352.336 146.386 352.654 146.363 352.952 146.316C353.251 146.269 353.508 146.185 353.722 146.064C353.946 145.943 354.119 145.784 354.24 145.588C354.371 145.392 354.436 145.145 354.436 144.846C354.436 144.566 354.371 144.333 354.24 144.146C354.11 143.95 353.928 143.796 353.694 143.684C353.47 143.563 353.204 143.474 352.896 143.418C352.588 143.362 352.262 143.334 351.916 143.334C351.571 143.334 351.3 143.339 351.104 143.348C350.908 143.357 350.731 143.371 350.572 143.39V146.386Z" fill="#C4C7CF"/>
<rect x="289" y="128.5" width="236.5" height="37" rx="1.5" stroke="#C4C7CF"/>
<rect x="288.5" y="181" width="237.5" height="4" fill="#F0F2F5"/>
<g clip-path="url(#clip2_4928_194000)">
<rect x="288.5" y="181" width="117" height="4" fill="#9254DE"/>
<circle cx="405.5" cy="183" r="6" fill="white" stroke="#9254DE" stroke-width="2"/>
</g>
<path d="M26 226L526 226" stroke="#F0F2F5"/>
<rect x="12.5" y="-137" width="527" height="231.393" fill="url(#paint0_linear_4928_194000)"/>
<rect x="12.5" y="-14" width="527" height="108.393" fill="url(#paint1_linear_4928_194000)"/>
<rect x="12.5" y="-11.6592" width="527" height="108.393" fill="url(#paint2_linear_4928_194000)"/>
</g>
<defs>
<filter id="filter0_ddd_4928_194000" x="74" y="-14.4624" width="286" height="116" filterUnits="userSpaceOnUse" color-interpolation-filters="sRGB">
<feFlood flood-opacity="0" result="BackgroundImageFix"/>
<feColorMatrix in="SourceAlpha" type="matrix" values="0 0 0 0 0 0 0 0 0 0 0 0 0 0 0 0 0 0 127 0" result="hardAlpha"/>
<feMorphology radius="4" operator="erode" in="SourceAlpha" result="effect1_dropShadow_4928_194000"/>
<feOffset dy="3"/>
<feGaussianBlur stdDeviation="3"/>
<feColorMatrix type="matrix" values="0 0 0 0 0 0 0 0 0 0 0 0 0 0 0 0 0 0 0.12 0"/>
<feBlend mode="normal" in2="BackgroundImageFix" result="effect1_dropShadow_4928_194000"/>
<feColorMatrix in="SourceAlpha" type="matrix" values="0 0 0 0 0 0 0 0 0 0 0 0 0 0 0 0 0 0 127 0" result="hardAlpha"/>
<feOffset dy="6"/>
<feGaussianBlur stdDeviation="8"/>
<feColorMatrix type="matrix" values="0 0 0 0 0 0 0 0 0 0 0 0 0 0 0 0 0 0 0.08 0"/>
<feBlend mode="normal" in2="effect1_dropShadow_4928_194000" result="effect2_dropShadow_4928_194000"/>
<feColorMatrix in="SourceAlpha" type="matrix" values="0 0 0 0 0 0 0 0 0 0 0 0 0 0 0 0 0 0 127 0" result="hardAlpha"/>
<feMorphology radius="8" operator="dilate" in="SourceAlpha" result="effect3_dropShadow_4928_194000"/>
<feOffset dy="9"/>
<feGaussianBlur stdDeviation="14"/>
<feColorMatrix type="matrix" values="0 0 0 0 0 0 0 0 0 0 0 0 0 0 0 0 0 0 0.05 0"/>
<feBlend mode="normal" in2="effect2_dropShadow_4928_194000" result="effect3_dropShadow_4928_194000"/>
<feBlend mode="normal" in="SourceGraphic" in2="effect3_dropShadow_4928_194000" result="shape"/>
</filter>
<linearGradient id="paint0_linear_4928_194000" x1="276" y1="-137" x2="276" y2="94.3931" gradientUnits="userSpaceOnUse">
<stop stop-color="white"/>
<stop offset="1" stop-color="white" stop-opacity="0"/>
</linearGradient>
<linearGradient id="paint1_linear_4928_194000" x1="276" y1="-14" x2="276" y2="94.3931" gradientUnits="userSpaceOnUse">
<stop stop-color="white"/>
<stop offset="1" stop-color="white" stop-opacity="0"/>
</linearGradient>
<linearGradient id="paint2_linear_4928_194000" x1="276" y1="-11.6592" x2="276" y2="96.7339" gradientUnits="userSpaceOnUse">
<stop stop-color="white"/>
<stop offset="1" stop-color="white" stop-opacity="0"/>
</linearGradient>
<clipPath id="clip0_4928_194000">
<rect width="552" height="246" fill="white"/>
</clipPath>
<clipPath id="clip1_4928_194000">
<rect width="123.945" height="14" fill="white" transform="translate(26 176)"/>
</clipPath>
<clipPath id="clip2_4928_194000">
<rect width="123.945" height="14" fill="white" transform="translate(288.5 176)"/>
</clipPath>
</defs>
</svg>
