<svg width="1512" height="983" viewBox="0 0 1512 983" fill="none" xmlns="http://www.w3.org/2000/svg">
<rect width="1512" height="982" transform="translate(0 0.748108)" fill="#1B1A27"/>
<rect x="220.578" y="606.029" width="149.767" height="74.8836" fill="#FFEDE8"/>
<rect x="370.344" y="606.029" width="149.767" height="74.8836" fill="#FFDBD1"/>
<rect x="520.109" y="606.029" width="149.767" height="74.8836" fill="#FFB59F"/>
<rect x="669.875" y="606.029" width="149.767" height="74.8836" fill="#FF8B68"/>
<rect x="819.645" y="606.029" width="149.767" height="74.8836" fill="#FF571F"/>
<rect x="969.41" y="606.029" width="149.767" height="74.8836" fill="#DA3E00"/>
<rect x="1119.18" y="606.029" width="149.767" height="74.8836" fill="#AF3000"/>
<rect x="1268.95" y="606.029" width="149.767" height="74.8836" fill="#862300"/>
<rect x="1268.95" y="606.029" width="149.767" height="74.8836" fill="#631A00"/>
<rect x="220.578" y="266.615" width="149.767" height="74.8836" fill="#F0EFFF"/>
<rect x="370.344" y="266.615" width="149.767" height="74.8836" fill="#DEE1FF"/>
<rect x="520.109" y="266.615" width="149.767" height="74.8836" fill="#B9C3FF"/>
<rect x="669.875" y="266.615" width="149.767" height="74.8836" fill="#95A6FF"/>
<rect x="819.645" y="266.615" width="149.767" height="74.8836" fill="#6F88FF"/>
<rect x="969.41" y="266.615" width="149.767" height="74.8836" fill="#4668FE"/>
<rect x="1119.18" y="266.615" width="149.767" height="74.8836" fill="#254CE4"/>
<rect x="1268.95" y="266.615" width="149.767" height="74.8836" fill="#0332B5"/>
<rect x="220.578" y="378.501" width="149.767" height="74.8836" fill="#C6FFC6"/>
<rect x="370.344" y="378.501" width="149.767" height="74.8836" fill="#6AFF87"/>
<rect x="520.109" y="378.501" width="149.767" height="74.8836" fill="#00D95A"/>
<rect x="669.875" y="378.501" width="149.767" height="74.8836" fill="#00C551"/>
<rect x="819.645" y="378.501" width="149.767" height="74.8836" fill="#00A743"/>
<rect x="969.41" y="378.501" width="149.767" height="74.8836" fill="#008A36"/>
<rect x="1119.18" y="378.501" width="149.767" height="74.8836" fill="#006E2A"/>
<rect x="1268.95" y="378.501" width="149.767" height="74.8836" fill="#00531D"/>
<rect x="819.645" y="154.729" width="149.767" height="74.8836" fill="#7A3AC5"/>
<rect x="1268.95" y="154.729" width="149.767" height="74.8836" fill="#2A0054"/>
<rect x="370.344" y="154.729" width="149.767" height="74.8836" fill="#D9B9FF"/>
<rect x="520.109" y="154.729" width="149.767" height="74.8836" fill="#C496FF"/>
<rect x="669.875" y="154.729" width="149.767" height="74.8836" fill="#AF71FD"/>
<rect x="1119.18" y="154.729" width="149.767" height="74.8836" fill="#460085"/>
<rect x="969.41" y="154.729" width="149.767" height="74.8836" fill="#611AAC"/>
<rect x="220.578" y="154.729" width="149.767" height="74.8836" fill="#EEDBFF"/>
<circle cx="132.755" cy="192.171" r="39.4736" fill="#B175FB"/>
<circle cx="132.755" cy="304.057" r="39.4736" fill="#4668FE"/>
<circle cx="132.755" cy="415.943" r="39.4736" fill="#00D95A"/>
<circle cx="132.755" cy="527.829" r="39.4736" fill="#FFC619"/>
<circle cx="132.755" cy="643.47" r="39.4736" fill="#FF571F"/>
<rect x="220.578" y="490.387" width="149.767" height="74.8836" fill="#FFEFD2"/>
<rect x="370.344" y="490.387" width="149.767" height="74.8836" fill="#FFDF98"/>
<rect x="520.109" y="490.387" width="149.767" height="74.8836" fill="#FFC619"/>
<rect x="669.875" y="490.387" width="149.767" height="74.8836" fill="#D5A400"/>
<rect x="819.645" y="490.387" width="149.767" height="74.8836" fill="#B58B00"/>
<rect x="969.41" y="490.387" width="149.767" height="74.8836" fill="#957200"/>
<rect x="1119.18" y="490.387" width="149.767" height="74.8836" fill="#775A00"/>
<rect x="1268.95" y="490.387" width="149.767" height="74.8836" fill="#5A4300"/>
<rect x="220.578" y="718.853" width="149.767" height="74.8836" fill="white"/>
<rect x="370.344" y="718.853" width="149.767" height="74.8836" fill="#E0E2EB"/>
<rect x="520.113" y="718.853" width="149.767" height="74.8836" fill="#C4C7CF"/>
<rect x="669.879" y="718.853" width="149.767" height="74.8836" fill="#767593"/>
<rect x="819.648" y="718.853" width="149.767" height="74.8836" fill="#5F5E78"/>
<rect x="969.414" y="718.853" width="149.767" height="74.8836" fill="#49485D"/>
<rect x="1119.18" y="718.853" width="149.767" height="74.8836" fill="#323142"/>
<rect x="1268.95" y="718.853" width="149.767" height="74.8836" fill="#181C22"/>
<circle cx="132.755" cy="756.295" r="39.4736" fill="#F0F2F5"/>
</svg>
