<svg width="1512" height="877" viewBox="0 0 1512 877" fill="none" xmlns="http://www.w3.org/2000/svg">
<g clip-path="url(#clip0_4215_185151)">
<rect width="1512" height="877" fill="#1B1A27"/>
<rect x="91.2773" y="140.055" width="75" height="75" rx="37.5" fill="#C496FF"/>
<rect x="182.277" y="140.055" width="75" height="75" rx="37.5" fill="#AF71FD"/>
<rect x="676" y="140.055" width="75" height="75" rx="37.5" fill="#2A0054"/>
<rect x="676" y="253.055" width="75" height="75" rx="37.5" fill="#0332B5"/>
<rect x="676" y="366.055" width="75" height="75" rx="37.5" fill="#00531D"/>
<rect x="676" y="479.055" width="75" height="75" rx="37.5" fill="#5A4300"/>
<rect x="676" y="592.055" width="75" height="75" rx="37.5" fill="#631A00"/>
<rect x="676" y="705.055" width="75" height="75" rx="37.5" fill="#181C22"/>
<rect x="91.2773" y="253.055" width="75" height="75" rx="37.5" fill="#95A6FF"/>
<rect x="182.277" y="253.055" width="75" height="75" rx="37.5" fill="#6F88FF"/>
<rect x="91.2773" y="366.055" width="75" height="75" rx="37.5" fill="#00D95A"/>
<rect x="182.277" y="366.055" width="75" height="75" rx="37.5" fill="#00C551"/>
<rect x="273.277" y="366.055" width="75" height="75" rx="37.5" fill="#00A743"/>
<rect x="364.277" y="366.055" width="75" height="75" rx="37.5" fill="#008A36"/>
<rect x="91.2773" y="479.055" width="75" height="75" rx="37.5" fill="#FFC619"/>
<rect x="91.2773" y="592.055" width="75" height="75" rx="37.5" fill="#FF571F"/>
<rect x="182.277" y="592.055" width="75" height="75" rx="37.5" fill="#DA3E00"/>
<rect x="91.2773" y="705.055" width="75" height="75" rx="37.5" fill="#E0E2EB"/>
<rect x="182.277" y="705.055" width="75" height="75" rx="37.5" fill="#C4C7CF"/>
<rect x="618.258" y="-34.9773" width="10" height="991.065" fill="white"/>
<rect x="1068.5" y="119.41" width="123" height="123" rx="61.5" fill="#AF71FD"/>
<path d="M1130.01 216.04C1124.32 216.04 1118.99 215.249 1114.04 213.669C1109.09 212.088 1104.74 209.889 1101 207.065C1097.26 204.241 1094.34 200.963 1092.23 197.226C1090.13 193.49 1089.08 189.483 1089.08 185.195C1089.08 182.291 1089.59 179.332 1090.63 176.324C1091.66 173.316 1093.18 170.345 1095.18 167.417C1094.87 166.553 1094.6 165.401 1094.37 163.974C1094.14 162.547 1094.02 161.26 1094.02 160.108C1094.02 157.346 1094.67 154.889 1095.98 152.733C1097.28 150.576 1099.05 148.879 1101.29 147.642C1103.52 146.398 1106.02 145.78 1108.8 145.78C1110.94 145.78 1113.01 146.165 1115.01 146.937C1117.01 147.709 1118.81 148.794 1120.44 150.184C1122.06 151.581 1123.36 153.186 1124.32 155.012C1125.07 155.085 1125.96 155.134 1126.97 155.171C1127.98 155.208 1128.99 155.226 1130 155.226C1131.01 155.226 1132.02 155.208 1133.03 155.171C1134.04 155.134 1134.93 155.085 1135.68 155.012C1136.67 153.186 1137.97 151.575 1139.58 150.184C1141.19 148.794 1143 147.709 1145.01 146.937C1147.03 146.165 1149.09 145.78 1151.2 145.78C1154 145.78 1156.51 146.398 1158.73 147.642C1160.96 148.885 1162.72 150.582 1164.03 152.733C1165.33 154.889 1165.98 157.346 1165.98 160.108C1165.98 161.254 1165.87 162.547 1165.65 163.974C1165.43 165.401 1165.15 166.553 1164.82 167.417C1166.82 170.345 1168.33 173.31 1169.37 176.324C1170.41 179.332 1170.92 182.291 1170.92 185.195C1170.92 189.483 1169.87 193.49 1167.77 197.226C1165.66 200.963 1162.74 204.241 1159 207.065C1155.26 209.889 1150.91 212.088 1145.96 213.669C1141.01 215.249 1135.69 216.04 1129.99 216.04H1130.01ZM1130.01 212.174C1135.02 212.174 1139.74 211.512 1144.17 210.189C1148.61 208.866 1152.51 206.979 1155.9 204.535C1159.29 202.091 1161.95 199.175 1163.88 195.787C1165.8 192.405 1166.77 188.662 1166.77 184.564C1166.77 181.893 1166.3 179.277 1165.37 176.71C1164.44 174.143 1162.88 171.27 1160.67 168.085C1160.86 167.521 1161.03 166.761 1161.2 165.8C1161.36 164.838 1161.5 163.839 1161.6 162.798C1161.71 161.756 1161.76 160.862 1161.76 160.108C1161.76 158.001 1161.31 156.163 1160.42 154.595C1159.53 153.027 1158.29 151.808 1156.72 150.944C1155.14 150.08 1153.31 149.645 1151.21 149.645C1149.3 149.645 1147.47 150.025 1145.7 150.785C1143.94 151.544 1142.4 152.598 1141.08 153.946C1139.77 155.293 1138.8 156.831 1138.19 158.565C1137.58 158.706 1136.48 158.828 1134.89 158.932C1133.3 159.036 1131.67 159.092 1130.01 159.092C1128.34 159.092 1126.71 159.036 1125.12 158.932C1123.53 158.828 1122.43 158.706 1121.82 158.565C1121.21 156.831 1120.25 155.293 1118.93 153.946C1117.62 152.598 1116.08 151.544 1114.33 150.785C1112.58 150.025 1110.74 149.645 1108.81 149.645C1106.74 149.645 1104.91 150.08 1103.32 150.944C1101.73 151.814 1100.49 153.027 1099.6 154.595C1098.71 156.163 1098.26 158.001 1098.26 160.108C1098.26 160.856 1098.31 161.756 1098.42 162.798C1098.52 163.839 1098.66 164.838 1098.84 165.8C1099.02 166.761 1099.19 167.521 1099.35 168.085C1097.14 171.27 1095.58 174.143 1094.65 176.71C1093.72 179.277 1093.26 181.893 1093.26 184.564C1093.26 188.662 1094.22 192.405 1096.15 195.787C1098.07 199.168 1100.73 202.084 1104.12 204.535C1107.51 206.979 1111.42 208.866 1115.86 210.189C1120.29 211.512 1125.01 212.174 1130.02 212.174H1130.01ZM1154.32 180.949C1155.52 180.949 1156.54 181.433 1157.41 182.407C1158.26 183.381 1158.69 184.484 1158.69 185.728C1158.69 187.088 1158.15 188.429 1157.07 189.753C1155.98 191.076 1154.49 192.326 1152.59 193.496C1150.68 194.666 1148.51 195.701 1146.06 196.602C1143.61 197.502 1141.02 198.213 1138.28 198.727C1135.54 199.242 1132.78 199.499 1130.01 199.499C1127.23 199.499 1124.48 199.242 1121.73 198.727C1118.99 198.213 1116.4 197.502 1113.95 196.602C1111.51 195.701 1109.33 194.666 1107.43 193.496C1105.52 192.326 1104.03 191.076 1102.95 189.753C1101.86 188.429 1101.32 187.088 1101.32 185.728C1101.32 184.484 1101.75 183.381 1102.61 182.407C1103.46 181.44 1104.5 180.949 1105.7 180.949C1106.55 180.949 1107.72 181.176 1109.22 181.636C1110.73 182.095 1112.53 182.616 1114.62 183.198C1116.71 183.78 1119.05 184.307 1121.64 184.76C1124.23 185.219 1127.01 185.446 1130 185.446C1132.99 185.446 1135.8 185.219 1138.38 184.76C1140.96 184.3 1143.29 183.78 1145.38 183.198C1147.47 182.61 1149.28 182.089 1150.78 181.636C1152.28 181.182 1153.46 180.949 1154.3 180.949H1154.32ZM1110.57 169.745C1109.14 169.745 1107.91 169.138 1106.88 167.919C1105.86 166.7 1105.35 165.236 1105.35 163.527C1105.35 161.818 1105.86 160.36 1106.88 159.153C1107.91 157.946 1109.14 157.346 1110.57 157.346C1112 157.346 1113.23 157.952 1114.24 159.153C1115.25 160.36 1115.76 161.818 1115.76 163.527C1115.76 165.236 1115.25 166.7 1114.24 167.919C1113.23 169.138 1112 169.745 1110.57 169.745ZM1109.02 190.188C1111.82 191.805 1115.1 193.116 1118.86 194.121C1122.63 195.125 1126.35 195.634 1130.01 195.634C1133.68 195.634 1137.4 195.131 1141.16 194.121C1144.93 193.116 1148.21 191.805 1151.01 190.188C1150 188.852 1148.8 187.731 1147.44 186.818C1144.58 187.615 1141.65 188.227 1138.68 188.662C1135.7 189.097 1132.81 189.312 1130.01 189.312C1127.21 189.312 1124.33 189.097 1121.35 188.662C1118.37 188.227 1115.46 187.615 1112.58 186.818C1111.22 187.731 1110.03 188.858 1109.02 190.188ZM1120.66 179.473C1119.95 179.473 1119.35 179.179 1118.85 178.597C1118.34 178.009 1118.09 177.323 1118.09 176.526C1118.09 175.73 1118.34 175.013 1118.85 174.437C1119.35 173.862 1119.96 173.58 1120.66 173.58C1121.36 173.58 1121.97 173.868 1122.48 174.437C1122.98 175.013 1123.23 175.705 1123.23 176.526C1123.23 177.347 1122.98 178.015 1122.48 178.597C1121.97 179.185 1121.36 179.473 1120.66 179.473ZM1139.36 179.473C1138.65 179.473 1138.05 179.179 1137.54 178.597C1137.04 178.009 1136.79 177.323 1136.79 176.526C1136.79 175.73 1137.04 175.013 1137.54 174.437C1138.05 173.862 1138.66 173.58 1139.36 173.58C1140.06 173.58 1140.67 173.868 1141.17 174.437C1141.68 175.013 1141.93 175.705 1141.93 176.526C1141.93 177.347 1141.68 178.015 1141.17 178.597C1140.67 179.185 1140.06 179.473 1139.36 179.473ZM1149.45 169.745C1148.02 169.745 1146.79 169.138 1145.78 167.919C1144.77 166.7 1144.26 165.236 1144.26 163.527C1144.26 161.818 1144.77 160.36 1145.78 159.153C1146.79 157.946 1148.02 157.346 1149.45 157.346C1150.88 157.346 1152.14 157.952 1153.15 159.153C1154.16 160.36 1154.67 161.818 1154.67 163.527C1154.67 165.236 1154.17 166.7 1153.15 167.919C1152.14 169.138 1150.91 169.745 1149.45 169.745Z" fill="#2A0054"/>
<rect x="1068.5" y="119.41" width="123" height="123" rx="61.5" stroke="black" stroke-width="5"/>
<rect x="1068.5" y="342.055" width="123" height="123" rx="61.5" fill="#00D95A"/>
<path d="M1130.01 438.685C1124.32 438.685 1118.99 437.895 1114.04 436.314C1109.09 434.734 1104.74 432.534 1101 429.71C1097.26 426.886 1094.34 423.609 1092.23 419.872C1090.13 416.135 1089.08 412.128 1089.08 407.84C1089.08 404.936 1089.59 401.977 1090.63 398.969C1091.66 395.962 1093.18 392.99 1095.18 390.062C1094.87 389.198 1094.6 388.047 1094.37 386.619C1094.14 385.192 1094.02 383.905 1094.02 382.754C1094.02 379.991 1094.67 377.534 1095.98 375.378C1097.28 373.222 1099.05 371.525 1101.29 370.287C1103.52 369.044 1106.02 368.425 1108.8 368.425C1110.94 368.425 1113.01 368.811 1115.01 369.583C1117.01 370.355 1118.81 371.439 1120.44 372.829C1122.06 374.226 1123.36 375.831 1124.32 377.657C1125.07 377.73 1125.96 377.779 1126.97 377.816C1127.98 377.853 1128.99 377.871 1130 377.871C1131.01 377.871 1132.02 377.853 1133.03 377.816C1134.04 377.779 1134.93 377.73 1135.68 377.657C1136.67 375.831 1137.97 374.22 1139.58 372.829C1141.19 371.439 1143 370.355 1145.01 369.583C1147.03 368.811 1149.09 368.425 1151.2 368.425C1154 368.425 1156.51 369.044 1158.73 370.287C1160.96 371.531 1162.72 373.228 1164.03 375.378C1165.33 377.534 1165.98 379.991 1165.98 382.754C1165.98 383.899 1165.87 385.192 1165.65 386.619C1165.43 388.047 1165.15 389.198 1164.82 390.062C1166.82 392.99 1168.33 395.955 1169.37 398.969C1170.41 401.977 1170.92 404.936 1170.92 407.84C1170.92 412.128 1169.87 416.135 1167.77 419.872C1165.66 423.609 1162.74 426.886 1159 429.71C1155.26 432.534 1150.91 434.734 1145.96 436.314C1141.01 437.895 1135.69 438.685 1129.99 438.685H1130.01ZM1130.01 434.819C1135.02 434.819 1139.74 434.158 1144.17 432.835C1148.61 431.511 1152.51 429.624 1155.9 427.18C1159.29 424.736 1161.95 421.82 1163.88 418.432C1165.8 415.05 1166.77 411.307 1166.77 407.209C1166.77 404.538 1166.3 401.922 1165.37 399.355C1164.44 396.789 1162.88 393.915 1160.67 390.73C1160.86 390.166 1161.03 389.407 1161.2 388.445C1161.36 387.483 1161.5 386.485 1161.6 385.443C1161.71 384.402 1161.76 383.507 1161.76 382.754C1161.76 380.646 1161.31 378.809 1160.42 377.24C1159.53 375.672 1158.29 374.453 1156.72 373.589C1155.14 372.725 1153.31 372.29 1151.21 372.29C1149.3 372.29 1147.47 372.67 1145.7 373.43C1143.94 374.189 1142.4 375.243 1141.08 376.591C1139.77 377.939 1138.8 379.476 1138.19 381.21C1137.58 381.351 1136.48 381.473 1134.89 381.578C1133.3 381.682 1131.67 381.737 1130.01 381.737C1128.34 381.737 1126.71 381.682 1125.12 381.578C1123.53 381.473 1122.43 381.351 1121.82 381.21C1121.21 379.476 1120.25 377.939 1118.93 376.591C1117.62 375.243 1116.08 374.189 1114.33 373.43C1112.58 372.67 1110.74 372.29 1108.81 372.29C1106.74 372.29 1104.91 372.725 1103.32 373.589C1101.73 374.459 1100.49 375.672 1099.6 377.24C1098.71 378.809 1098.26 380.646 1098.26 382.754C1098.26 383.501 1098.31 384.402 1098.42 385.443C1098.52 386.485 1098.66 387.483 1098.84 388.445C1099.02 389.407 1099.19 390.166 1099.35 390.73C1097.14 393.915 1095.58 396.789 1094.65 399.355C1093.72 401.922 1093.26 404.538 1093.26 407.209C1093.26 411.307 1094.22 415.05 1096.15 418.432C1098.07 421.814 1100.73 424.73 1104.12 427.18C1107.51 429.624 1111.42 431.511 1115.86 432.835C1120.29 434.158 1125.01 434.819 1130.02 434.819H1130.01ZM1154.32 403.595C1155.52 403.595 1156.54 404.079 1157.41 405.053C1158.26 406.027 1158.69 407.129 1158.69 408.373C1158.69 409.733 1158.15 411.075 1157.07 412.398C1155.98 413.721 1154.49 414.971 1152.59 416.141C1150.68 417.311 1148.51 418.346 1146.06 419.247C1143.61 420.147 1141.02 420.858 1138.28 421.373C1135.54 421.887 1132.78 422.144 1130.01 422.144C1127.23 422.144 1124.48 421.887 1121.73 421.373C1118.99 420.858 1116.4 420.147 1113.95 419.247C1111.51 418.346 1109.33 417.311 1107.43 416.141C1105.52 414.971 1104.03 413.721 1102.95 412.398C1101.86 411.075 1101.32 409.733 1101.32 408.373C1101.32 407.129 1101.75 406.027 1102.61 405.053C1103.46 404.085 1104.5 403.595 1105.7 403.595C1106.55 403.595 1107.72 403.821 1109.22 404.281C1110.73 404.74 1112.53 405.261 1114.62 405.843C1116.71 406.425 1119.05 406.952 1121.64 407.405C1124.23 407.865 1127.01 408.091 1130 408.091C1132.99 408.091 1135.8 407.865 1138.38 407.405C1140.96 406.946 1143.29 406.425 1145.38 405.843C1147.47 405.255 1149.28 404.734 1150.78 404.281C1152.28 403.827 1153.46 403.595 1154.3 403.595H1154.32ZM1110.57 392.39C1109.14 392.39 1107.91 391.784 1106.88 390.564C1105.86 389.345 1105.35 387.881 1105.35 386.172C1105.35 384.463 1105.86 383.005 1106.88 381.798C1107.91 380.591 1109.14 379.991 1110.57 379.991C1112 379.991 1113.23 380.597 1114.24 381.798C1115.25 383.005 1115.76 384.463 1115.76 386.172C1115.76 387.881 1115.25 389.345 1114.24 390.564C1113.23 391.784 1112 392.39 1110.57 392.39ZM1109.02 412.833C1111.82 414.45 1115.1 415.761 1118.86 416.766C1122.63 417.77 1126.35 418.279 1130.01 418.279C1133.68 418.279 1137.4 417.777 1141.16 416.766C1144.93 415.761 1148.21 414.45 1151.01 412.833C1150 411.497 1148.8 410.376 1147.44 409.463C1144.58 410.26 1141.65 410.872 1138.68 411.307C1135.7 411.742 1132.81 411.957 1130.01 411.957C1127.21 411.957 1124.33 411.742 1121.35 411.307C1118.37 410.872 1115.46 410.26 1112.58 409.463C1111.22 410.376 1110.03 411.503 1109.02 412.833ZM1120.66 402.118C1119.95 402.118 1119.35 401.824 1118.85 401.242C1118.34 400.654 1118.09 399.968 1118.09 399.172C1118.09 398.375 1118.34 397.659 1118.85 397.083C1119.35 396.507 1119.96 396.225 1120.66 396.225C1121.36 396.225 1121.97 396.513 1122.48 397.083C1122.98 397.659 1123.23 398.351 1123.23 399.172C1123.23 399.993 1122.98 400.66 1122.48 401.242C1121.97 401.83 1121.36 402.118 1120.66 402.118ZM1139.36 402.118C1138.65 402.118 1138.05 401.824 1137.54 401.242C1137.04 400.654 1136.79 399.968 1136.79 399.172C1136.79 398.375 1137.04 397.659 1137.54 397.083C1138.05 396.507 1138.66 396.225 1139.36 396.225C1140.06 396.225 1140.67 396.513 1141.17 397.083C1141.68 397.659 1141.93 398.351 1141.93 399.172C1141.93 399.993 1141.68 400.66 1141.17 401.242C1140.67 401.83 1140.06 402.118 1139.36 402.118ZM1149.45 392.39C1148.02 392.39 1146.79 391.784 1145.78 390.564C1144.77 389.345 1144.26 387.881 1144.26 386.172C1144.26 384.463 1144.77 383.005 1145.78 381.798C1146.79 380.591 1148.02 379.991 1149.45 379.991C1150.88 379.991 1152.14 380.597 1153.15 381.798C1154.16 383.005 1154.67 384.463 1154.67 386.172C1154.67 387.881 1154.17 389.345 1153.15 390.564C1152.14 391.784 1150.91 392.39 1149.45 392.39Z" fill="#00531D"/>
<rect x="1068.5" y="342.055" width="123" height="123" rx="61.5" stroke="black" stroke-width="5"/>
<rect x="1068.5" y="568.055" width="123" height="123" rx="61.5" fill="#DA3E00"/>
<path d="M1130.01 664.685C1124.32 664.685 1118.99 663.895 1114.04 662.314C1109.09 660.734 1104.74 658.534 1101 655.71C1097.26 652.886 1094.34 649.609 1092.23 645.872C1090.13 642.135 1089.08 638.128 1089.08 633.84C1089.08 630.936 1089.59 627.977 1090.63 624.969C1091.66 621.962 1093.18 618.99 1095.18 616.062C1094.87 615.198 1094.6 614.047 1094.37 612.619C1094.14 611.192 1094.02 609.905 1094.02 608.754C1094.02 605.991 1094.67 603.534 1095.98 601.378C1097.28 599.222 1099.05 597.525 1101.29 596.287C1103.52 595.044 1106.02 594.425 1108.8 594.425C1110.94 594.425 1113.01 594.811 1115.01 595.583C1117.01 596.355 1118.81 597.439 1120.44 598.829C1122.06 600.226 1123.36 601.831 1124.32 603.657C1125.07 603.73 1125.96 603.779 1126.97 603.816C1127.98 603.853 1128.99 603.871 1130 603.871C1131.01 603.871 1132.02 603.853 1133.03 603.816C1134.04 603.779 1134.93 603.73 1135.68 603.657C1136.67 601.831 1137.97 600.22 1139.58 598.829C1141.19 597.439 1143 596.355 1145.01 595.583C1147.03 594.811 1149.09 594.425 1151.2 594.425C1154 594.425 1156.51 595.044 1158.73 596.287C1160.96 597.531 1162.72 599.228 1164.03 601.378C1165.33 603.534 1165.98 605.991 1165.98 608.754C1165.98 609.899 1165.87 611.192 1165.65 612.619C1165.43 614.047 1165.15 615.198 1164.82 616.062C1166.82 618.99 1168.33 621.955 1169.37 624.969C1170.41 627.977 1170.92 630.936 1170.92 633.84C1170.92 638.128 1169.87 642.135 1167.77 645.872C1165.66 649.609 1162.74 652.886 1159 655.71C1155.26 658.534 1150.91 660.734 1145.96 662.314C1141.01 663.895 1135.69 664.685 1129.99 664.685H1130.01ZM1130.01 660.819C1135.02 660.819 1139.74 660.158 1144.17 658.835C1148.61 657.511 1152.51 655.624 1155.9 653.18C1159.29 650.736 1161.95 647.82 1163.88 644.432C1165.8 641.05 1166.77 637.307 1166.77 633.209C1166.77 630.538 1166.3 627.922 1165.37 625.355C1164.44 622.789 1162.88 619.915 1160.67 616.73C1160.86 616.166 1161.03 615.407 1161.2 614.445C1161.36 613.483 1161.5 612.485 1161.6 611.443C1161.71 610.402 1161.76 609.507 1161.76 608.754C1161.76 606.646 1161.31 604.809 1160.42 603.24C1159.53 601.672 1158.29 600.453 1156.72 599.589C1155.14 598.725 1153.31 598.29 1151.21 598.29C1149.3 598.29 1147.47 598.67 1145.7 599.43C1143.94 600.189 1142.4 601.243 1141.08 602.591C1139.77 603.939 1138.8 605.476 1138.19 607.21C1137.58 607.351 1136.48 607.473 1134.89 607.578C1133.3 607.682 1131.67 607.737 1130.01 607.737C1128.34 607.737 1126.71 607.682 1125.12 607.578C1123.53 607.473 1122.43 607.351 1121.82 607.21C1121.21 605.476 1120.25 603.939 1118.93 602.591C1117.62 601.243 1116.08 600.189 1114.33 599.43C1112.58 598.67 1110.74 598.29 1108.81 598.29C1106.74 598.29 1104.91 598.725 1103.32 599.589C1101.73 600.459 1100.49 601.672 1099.6 603.24C1098.71 604.809 1098.26 606.646 1098.26 608.754C1098.26 609.501 1098.31 610.402 1098.42 611.443C1098.52 612.485 1098.66 613.483 1098.84 614.445C1099.02 615.407 1099.19 616.166 1099.35 616.73C1097.14 619.915 1095.58 622.789 1094.65 625.355C1093.72 627.922 1093.26 630.538 1093.26 633.209C1093.26 637.307 1094.22 641.05 1096.15 644.432C1098.07 647.814 1100.73 650.73 1104.12 653.18C1107.51 655.624 1111.42 657.511 1115.86 658.835C1120.29 660.158 1125.01 660.819 1130.02 660.819H1130.01ZM1154.32 629.595C1155.52 629.595 1156.54 630.079 1157.41 631.053C1158.26 632.027 1158.69 633.129 1158.69 634.373C1158.69 635.733 1158.15 637.075 1157.07 638.398C1155.98 639.721 1154.49 640.971 1152.59 642.141C1150.68 643.311 1148.51 644.346 1146.06 645.247C1143.61 646.147 1141.02 646.858 1138.28 647.373C1135.54 647.887 1132.78 648.144 1130.01 648.144C1127.23 648.144 1124.48 647.887 1121.73 647.373C1118.99 646.858 1116.4 646.147 1113.95 645.247C1111.51 644.346 1109.33 643.311 1107.43 642.141C1105.52 640.971 1104.03 639.721 1102.95 638.398C1101.86 637.075 1101.32 635.733 1101.32 634.373C1101.32 633.129 1101.75 632.027 1102.61 631.053C1103.46 630.085 1104.5 629.595 1105.7 629.595C1106.55 629.595 1107.72 629.821 1109.22 630.281C1110.73 630.74 1112.53 631.261 1114.62 631.843C1116.71 632.425 1119.05 632.952 1121.64 633.405C1124.23 633.865 1127.01 634.091 1130 634.091C1132.99 634.091 1135.8 633.865 1138.38 633.405C1140.96 632.946 1143.29 632.425 1145.38 631.843C1147.47 631.255 1149.28 630.734 1150.78 630.281C1152.28 629.827 1153.46 629.595 1154.3 629.595H1154.32ZM1110.57 618.39C1109.14 618.39 1107.91 617.784 1106.88 616.564C1105.86 615.345 1105.35 613.881 1105.35 612.172C1105.35 610.463 1105.86 609.005 1106.88 607.798C1107.91 606.591 1109.14 605.991 1110.57 605.991C1112 605.991 1113.23 606.597 1114.24 607.798C1115.25 609.005 1115.76 610.463 1115.76 612.172C1115.76 613.881 1115.25 615.345 1114.24 616.564C1113.23 617.784 1112 618.39 1110.57 618.39ZM1109.02 638.833C1111.82 640.45 1115.1 641.761 1118.86 642.766C1122.63 643.77 1126.35 644.279 1130.01 644.279C1133.68 644.279 1137.4 643.777 1141.16 642.766C1144.93 641.761 1148.21 640.45 1151.01 638.833C1150 637.497 1148.8 636.376 1147.44 635.463C1144.58 636.26 1141.65 636.872 1138.68 637.307C1135.7 637.742 1132.81 637.957 1130.01 637.957C1127.21 637.957 1124.33 637.742 1121.35 637.307C1118.37 636.872 1115.46 636.26 1112.58 635.463C1111.22 636.376 1110.03 637.503 1109.02 638.833ZM1120.66 628.118C1119.95 628.118 1119.35 627.824 1118.85 627.242C1118.34 626.654 1118.09 625.968 1118.09 625.172C1118.09 624.375 1118.34 623.659 1118.85 623.083C1119.35 622.507 1119.96 622.225 1120.66 622.225C1121.36 622.225 1121.97 622.513 1122.48 623.083C1122.98 623.659 1123.23 624.351 1123.23 625.172C1123.23 625.993 1122.98 626.66 1122.48 627.242C1121.97 627.83 1121.36 628.118 1120.66 628.118ZM1139.36 628.118C1138.65 628.118 1138.05 627.824 1137.54 627.242C1137.04 626.654 1136.79 625.968 1136.79 625.172C1136.79 624.375 1137.04 623.659 1137.54 623.083C1138.05 622.507 1138.66 622.225 1139.36 622.225C1140.06 622.225 1140.67 622.513 1141.17 623.083C1141.68 623.659 1141.93 624.351 1141.93 625.172C1141.93 625.993 1141.68 626.66 1141.17 627.242C1140.67 627.83 1140.06 628.118 1139.36 628.118ZM1149.45 618.39C1148.02 618.39 1146.79 617.784 1145.78 616.564C1144.77 615.345 1144.26 613.881 1144.26 612.172C1144.26 610.463 1144.77 609.005 1145.78 607.798C1146.79 606.591 1148.02 605.991 1149.45 605.991C1150.88 605.991 1152.14 606.597 1153.15 607.798C1154.16 609.005 1154.67 610.463 1154.67 612.172C1154.67 613.881 1154.17 615.345 1153.15 616.564C1152.14 617.784 1150.91 618.39 1149.45 618.39Z" fill="#631A00"/>
<rect x="1068.5" y="568.055" width="123" height="123" rx="61.5" stroke="black" stroke-width="5"/>
<rect x="1196.5" y="229.055" width="123" height="123" rx="61.5" fill="#95A6FF"/>
<path d="M1258.01 325.685C1252.32 325.685 1246.99 324.895 1242.04 323.314C1237.09 321.734 1232.74 319.534 1229 316.71C1225.26 313.886 1222.34 310.609 1220.23 306.872C1218.13 303.135 1217.08 299.128 1217.08 294.84C1217.08 291.936 1217.59 288.977 1218.63 285.969C1219.66 282.962 1221.18 279.99 1223.18 277.062C1222.87 276.198 1222.6 275.047 1222.37 273.619C1222.14 272.192 1222.02 270.905 1222.02 269.754C1222.02 266.991 1222.67 264.534 1223.98 262.378C1225.28 260.222 1227.05 258.525 1229.29 257.287C1231.52 256.044 1234.02 255.425 1236.8 255.425C1238.94 255.425 1241.01 255.811 1243.01 256.583C1245.01 257.355 1246.81 258.439 1248.44 259.829C1250.06 261.226 1251.36 262.831 1252.32 264.657C1253.07 264.73 1253.96 264.779 1254.97 264.816C1255.98 264.853 1256.99 264.871 1258 264.871C1259.01 264.871 1260.02 264.853 1261.03 264.816C1262.04 264.779 1262.93 264.73 1263.68 264.657C1264.67 262.831 1265.97 261.22 1267.58 259.829C1269.19 258.439 1271 257.355 1273.01 256.583C1275.03 255.811 1277.09 255.425 1279.2 255.425C1282 255.425 1284.51 256.044 1286.73 257.287C1288.96 258.531 1290.72 260.228 1292.03 262.378C1293.33 264.534 1293.98 266.991 1293.98 269.754C1293.98 270.899 1293.87 272.192 1293.65 273.619C1293.43 275.047 1293.15 276.198 1292.82 277.062C1294.82 279.99 1296.33 282.955 1297.37 285.969C1298.41 288.977 1298.92 291.936 1298.92 294.84C1298.92 299.128 1297.87 303.135 1295.77 306.872C1293.66 310.609 1290.74 313.886 1287 316.71C1283.26 319.534 1278.91 321.734 1273.96 323.314C1269.01 324.895 1263.69 325.685 1257.99 325.685H1258.01ZM1258.01 321.819C1263.02 321.819 1267.74 321.158 1272.17 319.835C1276.61 318.511 1280.51 316.624 1283.9 314.18C1287.29 311.736 1289.95 308.82 1291.88 305.432C1293.8 302.05 1294.77 298.307 1294.77 294.209C1294.77 291.538 1294.3 288.922 1293.37 286.355C1292.44 283.789 1290.88 280.915 1288.67 277.73C1288.86 277.166 1289.03 276.407 1289.2 275.445C1289.36 274.483 1289.5 273.485 1289.6 272.443C1289.71 271.402 1289.76 270.507 1289.76 269.754C1289.76 267.646 1289.31 265.809 1288.42 264.24C1287.53 262.672 1286.29 261.453 1284.72 260.589C1283.14 259.725 1281.31 259.29 1279.21 259.29C1277.3 259.29 1275.47 259.67 1273.7 260.43C1271.94 261.189 1270.4 262.243 1269.08 263.591C1267.77 264.939 1266.8 266.476 1266.19 268.21C1265.58 268.351 1264.48 268.473 1262.89 268.578C1261.3 268.682 1259.67 268.737 1258.01 268.737C1256.34 268.737 1254.71 268.682 1253.12 268.578C1251.53 268.473 1250.43 268.351 1249.82 268.21C1249.21 266.476 1248.25 264.939 1246.93 263.591C1245.62 262.243 1244.08 261.189 1242.33 260.43C1240.58 259.67 1238.74 259.29 1236.81 259.29C1234.74 259.29 1232.91 259.725 1231.32 260.589C1229.73 261.459 1228.49 262.672 1227.6 264.24C1226.71 265.809 1226.26 267.646 1226.26 269.754C1226.26 270.501 1226.31 271.402 1226.42 272.443C1226.52 273.485 1226.66 274.483 1226.84 275.445C1227.02 276.407 1227.19 277.166 1227.35 277.73C1225.14 280.915 1223.58 283.789 1222.65 286.355C1221.72 288.922 1221.26 291.538 1221.26 294.209C1221.26 298.307 1222.22 302.05 1224.15 305.432C1226.07 308.814 1228.73 311.73 1232.12 314.18C1235.51 316.624 1239.42 318.511 1243.86 319.835C1248.29 321.158 1253.01 321.819 1258.02 321.819H1258.01ZM1282.32 290.595C1283.52 290.595 1284.54 291.079 1285.41 292.053C1286.26 293.027 1286.69 294.129 1286.69 295.373C1286.69 296.733 1286.15 298.075 1285.07 299.398C1283.98 300.721 1282.49 301.971 1280.59 303.141C1278.68 304.311 1276.51 305.346 1274.06 306.247C1271.61 307.147 1269.02 307.858 1266.28 308.373C1263.54 308.887 1260.78 309.144 1258.01 309.144C1255.23 309.144 1252.48 308.887 1249.73 308.373C1246.99 307.858 1244.4 307.147 1241.95 306.247C1239.51 305.346 1237.33 304.311 1235.43 303.141C1233.52 301.971 1232.03 300.721 1230.95 299.398C1229.86 298.075 1229.32 296.733 1229.32 295.373C1229.32 294.129 1229.75 293.027 1230.61 292.053C1231.46 291.085 1232.5 290.595 1233.7 290.595C1234.55 290.595 1235.72 290.821 1237.22 291.281C1238.73 291.74 1240.53 292.261 1242.62 292.843C1244.71 293.425 1247.05 293.952 1249.64 294.405C1252.23 294.865 1255.01 295.091 1258 295.091C1260.99 295.091 1263.8 294.865 1266.38 294.405C1268.96 293.946 1271.29 293.425 1273.38 292.843C1275.47 292.255 1277.28 291.734 1278.78 291.281C1280.28 290.827 1281.46 290.595 1282.3 290.595H1282.32ZM1238.57 279.39C1237.14 279.39 1235.91 278.784 1234.88 277.564C1233.86 276.345 1233.35 274.881 1233.35 273.172C1233.35 271.463 1233.86 270.005 1234.88 268.798C1235.91 267.591 1237.14 266.991 1238.57 266.991C1240 266.991 1241.23 267.597 1242.24 268.798C1243.25 270.005 1243.76 271.463 1243.76 273.172C1243.76 274.881 1243.25 276.345 1242.24 277.564C1241.23 278.784 1240 279.39 1238.57 279.39ZM1237.02 299.833C1239.82 301.45 1243.1 302.761 1246.86 303.766C1250.63 304.77 1254.35 305.279 1258.01 305.279C1261.68 305.279 1265.4 304.777 1269.16 303.766C1272.93 302.761 1276.21 301.45 1279.01 299.833C1278 298.497 1276.8 297.376 1275.44 296.463C1272.58 297.26 1269.65 297.872 1266.68 298.307C1263.7 298.742 1260.81 298.957 1258.01 298.957C1255.21 298.957 1252.33 298.742 1249.35 298.307C1246.37 297.872 1243.46 297.26 1240.58 296.463C1239.22 297.376 1238.03 298.503 1237.02 299.833ZM1248.66 289.118C1247.95 289.118 1247.35 288.824 1246.85 288.242C1246.34 287.654 1246.09 286.968 1246.09 286.172C1246.09 285.375 1246.34 284.659 1246.85 284.083C1247.35 283.507 1247.96 283.225 1248.66 283.225C1249.36 283.225 1249.97 283.513 1250.48 284.083C1250.98 284.659 1251.23 285.351 1251.23 286.172C1251.23 286.993 1250.98 287.66 1250.48 288.242C1249.97 288.83 1249.36 289.118 1248.66 289.118ZM1267.36 289.118C1266.65 289.118 1266.05 288.824 1265.54 288.242C1265.04 287.654 1264.79 286.968 1264.79 286.172C1264.79 285.375 1265.04 284.659 1265.54 284.083C1266.05 283.507 1266.66 283.225 1267.36 283.225C1268.06 283.225 1268.67 283.513 1269.17 284.083C1269.68 284.659 1269.93 285.351 1269.93 286.172C1269.93 286.993 1269.68 287.66 1269.17 288.242C1268.67 288.83 1268.06 289.118 1267.36 289.118ZM1277.45 279.39C1276.02 279.39 1274.79 278.784 1273.78 277.564C1272.77 276.345 1272.26 274.881 1272.26 273.172C1272.26 271.463 1272.77 270.005 1273.78 268.798C1274.79 267.591 1276.02 266.991 1277.45 266.991C1278.88 266.991 1280.14 267.597 1281.15 268.798C1282.16 270.005 1282.67 271.463 1282.67 273.172C1282.67 274.881 1282.17 276.345 1281.15 277.564C1280.14 278.784 1278.91 279.39 1277.45 279.39Z" fill="#0332B5"/>
<rect x="1196.5" y="229.055" width="123" height="123" rx="61.5" stroke="black" stroke-width="5"/>
<rect x="1196.5" y="455.055" width="123" height="123" rx="61.5" fill="#FFC619"/>
<path d="M1258.01 551.685C1252.32 551.685 1246.99 550.895 1242.04 549.314C1237.09 547.734 1232.74 545.534 1229 542.71C1225.26 539.886 1222.34 536.609 1220.23 532.872C1218.13 529.135 1217.08 525.128 1217.08 520.84C1217.08 517.936 1217.59 514.977 1218.63 511.969C1219.66 508.962 1221.18 505.99 1223.18 503.062C1222.87 502.198 1222.6 501.047 1222.37 499.619C1222.14 498.192 1222.02 496.905 1222.02 495.754C1222.02 492.991 1222.67 490.534 1223.98 488.378C1225.28 486.222 1227.05 484.525 1229.29 483.287C1231.52 482.044 1234.02 481.425 1236.8 481.425C1238.94 481.425 1241.01 481.811 1243.01 482.583C1245.01 483.355 1246.81 484.439 1248.44 485.829C1250.06 487.226 1251.36 488.831 1252.32 490.657C1253.07 490.73 1253.96 490.779 1254.97 490.816C1255.98 490.853 1256.99 490.871 1258 490.871C1259.01 490.871 1260.02 490.853 1261.03 490.816C1262.04 490.779 1262.93 490.73 1263.68 490.657C1264.67 488.831 1265.97 487.22 1267.58 485.829C1269.19 484.439 1271 483.355 1273.01 482.583C1275.03 481.811 1277.09 481.425 1279.2 481.425C1282 481.425 1284.51 482.044 1286.73 483.287C1288.96 484.531 1290.72 486.228 1292.03 488.378C1293.33 490.534 1293.98 492.991 1293.98 495.754C1293.98 496.899 1293.87 498.192 1293.65 499.619C1293.43 501.047 1293.15 502.198 1292.82 503.062C1294.82 505.99 1296.33 508.955 1297.37 511.969C1298.41 514.977 1298.92 517.936 1298.92 520.84C1298.92 525.128 1297.87 529.135 1295.77 532.872C1293.66 536.609 1290.74 539.886 1287 542.71C1283.26 545.534 1278.91 547.734 1273.96 549.314C1269.01 550.895 1263.69 551.685 1257.99 551.685H1258.01ZM1258.01 547.819C1263.02 547.819 1267.74 547.158 1272.17 545.835C1276.61 544.511 1280.51 542.624 1283.9 540.18C1287.29 537.736 1289.95 534.82 1291.88 531.432C1293.8 528.05 1294.77 524.307 1294.77 520.209C1294.77 517.538 1294.3 514.922 1293.37 512.355C1292.44 509.789 1290.88 506.915 1288.67 503.73C1288.86 503.166 1289.03 502.407 1289.2 501.445C1289.36 500.483 1289.5 499.485 1289.6 498.443C1289.71 497.402 1289.76 496.507 1289.76 495.754C1289.76 493.646 1289.31 491.809 1288.42 490.24C1287.53 488.672 1286.29 487.453 1284.72 486.589C1283.14 485.725 1281.31 485.29 1279.21 485.29C1277.3 485.29 1275.47 485.67 1273.7 486.43C1271.94 487.189 1270.4 488.243 1269.08 489.591C1267.77 490.939 1266.8 492.476 1266.19 494.21C1265.58 494.351 1264.48 494.473 1262.89 494.578C1261.3 494.682 1259.67 494.737 1258.01 494.737C1256.34 494.737 1254.71 494.682 1253.12 494.578C1251.53 494.473 1250.43 494.351 1249.82 494.21C1249.21 492.476 1248.25 490.939 1246.93 489.591C1245.62 488.243 1244.08 487.189 1242.33 486.43C1240.58 485.67 1238.74 485.29 1236.81 485.29C1234.74 485.29 1232.91 485.725 1231.32 486.589C1229.73 487.459 1228.49 488.672 1227.6 490.24C1226.71 491.809 1226.26 493.646 1226.26 495.754C1226.26 496.501 1226.31 497.402 1226.42 498.443C1226.52 499.485 1226.66 500.483 1226.84 501.445C1227.02 502.407 1227.19 503.166 1227.35 503.73C1225.14 506.915 1223.58 509.789 1222.65 512.355C1221.72 514.922 1221.26 517.538 1221.26 520.209C1221.26 524.307 1222.22 528.05 1224.15 531.432C1226.07 534.814 1228.73 537.73 1232.12 540.18C1235.51 542.624 1239.42 544.511 1243.86 545.835C1248.29 547.158 1253.01 547.819 1258.02 547.819H1258.01ZM1282.32 516.595C1283.52 516.595 1284.54 517.079 1285.41 518.053C1286.26 519.027 1286.69 520.129 1286.69 521.373C1286.69 522.733 1286.15 524.075 1285.07 525.398C1283.98 526.721 1282.49 527.971 1280.59 529.141C1278.68 530.311 1276.51 531.346 1274.06 532.247C1271.61 533.147 1269.02 533.858 1266.28 534.373C1263.54 534.887 1260.78 535.144 1258.01 535.144C1255.23 535.144 1252.48 534.887 1249.73 534.373C1246.99 533.858 1244.4 533.147 1241.95 532.247C1239.51 531.346 1237.33 530.311 1235.43 529.141C1233.52 527.971 1232.03 526.721 1230.95 525.398C1229.86 524.075 1229.32 522.733 1229.32 521.373C1229.32 520.129 1229.75 519.027 1230.61 518.053C1231.46 517.085 1232.5 516.595 1233.7 516.595C1234.55 516.595 1235.72 516.821 1237.22 517.281C1238.73 517.74 1240.53 518.261 1242.62 518.843C1244.71 519.425 1247.05 519.952 1249.64 520.405C1252.23 520.865 1255.01 521.091 1258 521.091C1260.99 521.091 1263.8 520.865 1266.38 520.405C1268.96 519.946 1271.29 519.425 1273.38 518.843C1275.47 518.255 1277.28 517.734 1278.78 517.281C1280.28 516.827 1281.46 516.595 1282.3 516.595H1282.32ZM1238.57 505.39C1237.14 505.39 1235.91 504.784 1234.88 503.564C1233.86 502.345 1233.35 500.881 1233.35 499.172C1233.35 497.463 1233.86 496.005 1234.88 494.798C1235.91 493.591 1237.14 492.991 1238.57 492.991C1240 492.991 1241.23 493.597 1242.24 494.798C1243.25 496.005 1243.76 497.463 1243.76 499.172C1243.76 500.881 1243.25 502.345 1242.24 503.564C1241.23 504.784 1240 505.39 1238.57 505.39ZM1237.02 525.833C1239.82 527.45 1243.1 528.761 1246.86 529.766C1250.63 530.77 1254.35 531.279 1258.01 531.279C1261.68 531.279 1265.4 530.777 1269.16 529.766C1272.93 528.761 1276.21 527.45 1279.01 525.833C1278 524.497 1276.8 523.376 1275.44 522.463C1272.58 523.26 1269.65 523.872 1266.68 524.307C1263.7 524.742 1260.81 524.957 1258.01 524.957C1255.21 524.957 1252.33 524.742 1249.35 524.307C1246.37 523.872 1243.46 523.26 1240.58 522.463C1239.22 523.376 1238.03 524.503 1237.02 525.833ZM1248.66 515.118C1247.95 515.118 1247.35 514.824 1246.85 514.242C1246.34 513.654 1246.09 512.968 1246.09 512.172C1246.09 511.375 1246.34 510.659 1246.85 510.083C1247.35 509.507 1247.96 509.225 1248.66 509.225C1249.36 509.225 1249.97 509.513 1250.48 510.083C1250.98 510.659 1251.23 511.351 1251.23 512.172C1251.23 512.993 1250.98 513.66 1250.48 514.242C1249.97 514.83 1249.36 515.118 1248.66 515.118ZM1267.36 515.118C1266.65 515.118 1266.05 514.824 1265.54 514.242C1265.04 513.654 1264.79 512.968 1264.79 512.172C1264.79 511.375 1265.04 510.659 1265.54 510.083C1266.05 509.507 1266.66 509.225 1267.36 509.225C1268.06 509.225 1268.67 509.513 1269.17 510.083C1269.68 510.659 1269.93 511.351 1269.93 512.172C1269.93 512.993 1269.68 513.66 1269.17 514.242C1268.67 514.83 1268.06 515.118 1267.36 515.118ZM1277.45 505.39C1276.02 505.39 1274.79 504.784 1273.78 503.564C1272.77 502.345 1272.26 500.881 1272.26 499.172C1272.26 497.463 1272.77 496.005 1273.78 494.798C1274.79 493.591 1276.02 492.991 1277.45 492.991C1278.88 492.991 1280.14 493.597 1281.15 494.798C1282.16 496.005 1282.67 497.463 1282.67 499.172C1282.67 500.881 1282.17 502.345 1281.15 503.564C1280.14 504.784 1278.91 505.39 1277.45 505.39Z" fill="#5A4300"/>
<rect x="1196.5" y="455.055" width="123" height="123" rx="61.5" stroke="black" stroke-width="5"/>
<rect x="1196.5" y="681.055" width="123" height="123" rx="61.5" fill="#C4C7CF"/>
<path d="M1258.01 777.685C1252.32 777.685 1246.99 776.894 1242.04 775.314C1237.09 773.733 1232.74 771.534 1229 768.71C1225.26 765.886 1222.34 762.608 1220.23 758.871C1218.13 755.135 1217.08 751.128 1217.08 746.84C1217.08 743.936 1217.59 740.977 1218.63 737.969C1219.66 734.961 1221.18 731.99 1223.18 729.062C1222.87 728.198 1222.6 727.046 1222.37 725.619C1222.14 724.192 1222.02 722.905 1222.02 721.753C1222.02 718.991 1222.67 716.534 1223.98 714.378C1225.28 712.221 1227.05 710.524 1229.29 709.287C1231.52 708.043 1234.02 707.425 1236.8 707.425C1238.94 707.425 1241.01 707.811 1243.01 708.582C1245.01 709.354 1246.81 710.439 1248.44 711.829C1250.06 713.226 1251.36 714.831 1252.32 716.657C1253.07 716.73 1253.96 716.779 1254.97 716.816C1255.98 716.853 1256.99 716.871 1258 716.871C1259.01 716.871 1260.02 716.853 1261.03 716.816C1262.04 716.779 1262.93 716.73 1263.68 716.657C1264.67 714.831 1265.97 713.22 1267.58 711.829C1269.19 710.439 1271 709.354 1273.01 708.582C1275.03 707.811 1277.09 707.425 1279.2 707.425C1282 707.425 1284.51 708.043 1286.73 709.287C1288.96 710.53 1290.72 712.227 1292.03 714.378C1293.33 716.534 1293.98 718.991 1293.98 721.753C1293.98 722.899 1293.87 724.192 1293.65 725.619C1293.43 727.046 1293.15 728.198 1292.82 729.062C1294.82 731.99 1296.33 734.955 1297.37 737.969C1298.41 740.977 1298.92 743.936 1298.92 746.84C1298.92 751.128 1297.87 755.135 1295.77 758.871C1293.66 762.608 1290.74 765.886 1287 768.71C1283.26 771.534 1278.91 773.733 1273.96 775.314C1269.01 776.894 1263.69 777.685 1257.99 777.685H1258.01ZM1258.01 773.819C1263.02 773.819 1267.74 773.158 1272.17 771.834C1276.61 770.511 1280.51 768.624 1283.9 766.18C1287.29 763.736 1289.95 760.82 1291.88 757.432C1293.8 754.05 1294.77 750.307 1294.77 746.209C1294.77 743.538 1294.3 740.922 1293.37 738.355C1292.44 735.788 1290.88 732.915 1288.67 729.73C1288.86 729.166 1289.03 728.406 1289.2 727.445C1289.36 726.483 1289.5 725.484 1289.6 724.443C1289.71 723.401 1289.76 722.507 1289.76 721.753C1289.76 719.646 1289.31 717.808 1288.42 716.24C1287.53 714.672 1286.29 713.453 1284.72 712.589C1283.14 711.725 1281.31 711.29 1279.21 711.29C1277.3 711.29 1275.47 711.67 1273.7 712.43C1271.94 713.189 1270.4 714.243 1269.08 715.591C1267.77 716.938 1266.8 718.476 1266.19 720.21C1265.58 720.351 1264.48 720.473 1262.89 720.577C1261.3 720.681 1259.67 720.737 1258.01 720.737C1256.34 720.737 1254.71 720.681 1253.12 720.577C1251.53 720.473 1250.43 720.351 1249.82 720.21C1249.21 718.476 1248.25 716.938 1246.93 715.591C1245.62 714.243 1244.08 713.189 1242.33 712.43C1240.58 711.67 1238.74 711.29 1236.81 711.29C1234.74 711.29 1232.91 711.725 1231.32 712.589C1229.73 713.459 1228.49 714.672 1227.6 716.24C1226.71 717.808 1226.26 719.646 1226.26 721.753C1226.26 722.501 1226.31 723.401 1226.42 724.443C1226.52 725.484 1226.66 726.483 1226.84 727.445C1227.02 728.406 1227.19 729.166 1227.35 729.73C1225.14 732.915 1223.58 735.788 1222.65 738.355C1221.72 740.922 1221.26 743.538 1221.26 746.209C1221.26 750.307 1222.22 754.05 1224.15 757.432C1226.07 760.813 1228.73 763.729 1232.12 766.18C1235.51 768.624 1239.42 770.511 1243.86 771.834C1248.29 773.158 1253.01 773.819 1258.02 773.819H1258.01ZM1282.32 742.594C1283.52 742.594 1284.54 743.078 1285.41 744.052C1286.26 745.027 1286.69 746.129 1286.69 747.373C1286.69 748.733 1286.15 750.074 1285.07 751.398C1283.98 752.721 1282.49 753.971 1280.59 755.141C1278.68 756.311 1276.51 757.346 1274.06 758.247C1271.61 759.147 1269.02 759.858 1266.28 760.372C1263.54 760.887 1260.78 761.144 1258.01 761.144C1255.23 761.144 1252.48 760.887 1249.73 760.372C1246.99 759.858 1244.4 759.147 1241.95 758.247C1239.51 757.346 1237.33 756.311 1235.43 755.141C1233.52 753.971 1232.03 752.721 1230.95 751.398C1229.86 750.074 1229.32 748.733 1229.32 747.373C1229.32 746.129 1229.75 745.027 1230.61 744.052C1231.46 743.085 1232.5 742.594 1233.7 742.594C1234.55 742.594 1235.72 742.821 1237.22 743.281C1238.73 743.74 1240.53 744.261 1242.62 744.843C1244.71 745.425 1247.05 745.952 1249.64 746.405C1252.23 746.864 1255.01 747.091 1258 747.091C1260.99 747.091 1263.8 746.864 1266.38 746.405C1268.96 745.945 1271.29 745.425 1273.38 744.843C1275.47 744.255 1277.28 743.734 1278.78 743.281C1280.28 742.827 1281.46 742.594 1282.3 742.594H1282.32ZM1238.57 731.39C1237.14 731.39 1235.91 730.783 1234.88 729.564C1233.86 728.345 1233.35 726.881 1233.35 725.172C1233.35 723.463 1233.86 722.005 1234.88 720.798C1235.91 719.591 1237.14 718.991 1238.57 718.991C1240 718.991 1241.23 719.597 1242.24 720.798C1243.25 722.005 1243.76 723.463 1243.76 725.172C1243.76 726.881 1243.25 728.345 1242.24 729.564C1241.23 730.783 1240 731.39 1238.57 731.39ZM1237.02 751.833C1239.82 753.45 1243.1 754.761 1246.86 755.766C1250.63 756.77 1254.35 757.279 1258.01 757.279C1261.68 757.279 1265.4 756.776 1269.16 755.766C1272.93 754.761 1276.21 753.45 1279.01 751.833C1278 750.497 1276.8 749.376 1275.44 748.463C1272.58 749.26 1269.65 749.872 1266.68 750.307C1263.7 750.742 1260.81 750.957 1258.01 750.957C1255.21 750.957 1252.33 750.742 1249.35 750.307C1246.37 749.872 1243.46 749.26 1240.58 748.463C1239.22 749.376 1238.03 750.503 1237.02 751.833ZM1248.66 741.118C1247.95 741.118 1247.35 740.824 1246.85 740.242C1246.34 739.654 1246.09 738.968 1246.09 738.171C1246.09 737.375 1246.34 736.658 1246.85 736.082C1247.35 735.507 1247.96 735.225 1248.66 735.225C1249.36 735.225 1249.97 735.513 1250.48 736.082C1250.98 736.658 1251.23 737.351 1251.23 738.171C1251.23 738.992 1250.98 739.66 1250.48 740.242C1249.97 740.83 1249.36 741.118 1248.66 741.118ZM1267.36 741.118C1266.65 741.118 1266.05 740.824 1265.54 740.242C1265.04 739.654 1264.79 738.968 1264.79 738.171C1264.79 737.375 1265.04 736.658 1265.54 736.082C1266.05 735.507 1266.66 735.225 1267.36 735.225C1268.06 735.225 1268.67 735.513 1269.17 736.082C1269.68 736.658 1269.93 737.351 1269.93 738.171C1269.93 738.992 1269.68 739.66 1269.17 740.242C1268.67 740.83 1268.06 741.118 1267.36 741.118ZM1277.45 731.39C1276.02 731.39 1274.79 730.783 1273.78 729.564C1272.77 728.345 1272.26 726.881 1272.26 725.172C1272.26 723.463 1272.77 722.005 1273.78 720.798C1274.79 719.591 1276.02 718.991 1277.45 718.991C1278.88 718.991 1280.14 719.597 1281.15 720.798C1282.16 722.005 1282.67 723.463 1282.67 725.172C1282.67 726.881 1282.17 728.345 1281.15 729.564C1280.14 730.783 1278.91 731.39 1277.45 731.39Z" fill="#181C22"/>
<rect x="1196.5" y="681.055" width="123" height="123" rx="61.5" stroke="black" stroke-width="5"/>
<path d="M99.7453 69.1417C98.682 69.1417 97.609 69.103 96.5263 69.0257C95.4437 68.9677 94.4963 68.8323 93.6843 68.6197V49.1027C94.1097 49.0253 94.564 48.9577 95.0473 48.8997C95.5307 48.8223 96.0237 48.7643 96.5263 48.7257C97.029 48.687 97.522 48.658 98.0053 48.6387C98.508 48.6193 98.9817 48.6097 99.4263 48.6097C100.644 48.6097 101.775 48.7063 102.819 48.8997C103.863 49.0737 104.762 49.3733 105.516 49.7987C106.29 50.224 106.889 50.7847 107.314 51.4807C107.74 52.1767 107.952 53.037 107.952 54.0617C107.952 55.009 107.72 55.821 107.256 56.4977C106.812 57.1743 106.183 57.7157 105.371 58.1217C106.589 58.5277 107.488 59.127 108.068 59.9197C108.648 60.7123 108.938 61.7177 108.938 62.9357C108.938 65.0043 108.184 66.5607 106.676 67.6047C105.168 68.6293 102.858 69.1417 99.7453 69.1417ZM97.2803 59.8617V65.9807C97.6863 66.0193 98.1213 66.0483 98.5853 66.0677C99.0493 66.087 99.4747 66.0967 99.8613 66.0967C100.615 66.0967 101.311 66.0483 101.949 65.9517C102.607 65.855 103.167 65.6907 103.631 65.4587C104.115 65.2073 104.492 64.8787 104.762 64.4727C105.052 64.0667 105.197 63.5447 105.197 62.9067C105.197 61.766 104.782 60.9733 103.95 60.5287C103.119 60.084 101.969 59.8617 100.499 59.8617H97.2803ZM97.2803 56.9907H99.8613C101.253 56.9907 102.346 56.7973 103.138 56.4107C103.931 56.0047 104.327 55.2893 104.327 54.2647C104.327 53.298 103.912 52.6117 103.08 52.2057C102.268 51.7997 101.205 51.5967 99.8903 51.5967C99.3297 51.5967 98.827 51.6063 98.3823 51.6257C97.957 51.645 97.5897 51.674 97.2803 51.7127V56.9907ZM117.906 66.4447C118.989 66.4447 119.81 66.3867 120.371 66.2707V62.3847C120.178 62.3267 119.897 62.2687 119.53 62.2107C119.163 62.1527 118.757 62.1237 118.312 62.1237C117.925 62.1237 117.529 62.1527 117.123 62.2107C116.736 62.2687 116.379 62.375 116.05 62.5297C115.741 62.6843 115.489 62.9067 115.296 63.1967C115.103 63.4673 115.006 63.8153 115.006 64.2407C115.006 65.072 115.267 65.652 115.789 65.9807C116.311 66.29 117.017 66.4447 117.906 66.4447ZM117.616 53.3657C118.776 53.3657 119.752 53.5107 120.545 53.8007C121.338 54.0907 121.966 54.4967 122.43 55.0187C122.913 55.5407 123.252 56.1787 123.445 56.9327C123.658 57.6673 123.764 58.4793 123.764 59.3687V68.5617C123.223 68.6777 122.401 68.813 121.299 68.9677C120.216 69.1417 118.989 69.2287 117.616 69.2287C116.707 69.2287 115.876 69.1417 115.122 68.9677C114.368 68.7937 113.72 68.5133 113.179 68.1267C112.657 67.74 112.241 67.2373 111.932 66.6187C111.642 66 111.497 65.2363 111.497 64.3277C111.497 63.4577 111.661 62.723 111.99 62.1237C112.338 61.5243 112.802 61.041 113.382 60.6737C113.962 60.287 114.629 60.0163 115.383 59.8617C116.156 59.6877 116.959 59.6007 117.79 59.6007C118.177 59.6007 118.583 59.6297 119.008 59.6877C119.433 59.7263 119.888 59.8037 120.371 59.9197V59.3397C120.371 58.9337 120.323 58.547 120.226 58.1797C120.129 57.8123 119.955 57.4933 119.704 57.2227C119.472 56.9327 119.153 56.7103 118.747 56.5557C118.36 56.401 117.867 56.3237 117.268 56.3237C116.456 56.3237 115.712 56.3817 115.035 56.4977C114.358 56.6137 113.807 56.749 113.382 56.9037L112.947 54.0617C113.392 53.907 114.039 53.7523 114.89 53.5977C115.741 53.443 116.649 53.3657 117.616 53.3657ZM127.22 61.3407C127.22 60.2193 127.394 59.1753 127.742 58.2087C128.09 57.2227 128.583 56.372 129.221 55.6567C129.878 54.9413 130.671 54.3807 131.599 53.9747C132.527 53.5687 133.571 53.3657 134.731 53.3657C136.162 53.3657 137.515 53.6267 138.791 54.1487L138.037 57.0197C137.631 56.8457 137.167 56.7007 136.645 56.5847C136.142 56.4687 135.601 56.4107 135.021 56.4107C133.648 56.4107 132.604 56.8457 131.889 57.7157C131.174 58.5663 130.816 59.7747 130.816 61.3407C130.816 62.8487 131.154 64.0473 131.831 64.9367C132.508 65.8067 133.648 66.2417 135.253 66.2417C135.852 66.2417 136.442 66.1837 137.022 66.0677C137.602 65.9517 138.105 65.8067 138.53 65.6327L139.023 68.5327C138.636 68.726 138.047 68.9 137.254 69.0547C136.481 69.2093 135.678 69.2867 134.847 69.2867C133.552 69.2867 132.421 69.0933 131.454 68.7067C130.507 68.3007 129.714 67.7497 129.076 67.0537C128.457 66.3383 127.993 65.4973 127.684 64.5307C127.375 63.5447 127.22 62.4813 127.22 61.3407ZM145.249 59.6587C145.694 59.1947 146.167 58.7017 146.67 58.1797C147.173 57.6383 147.666 57.1067 148.149 56.5847C148.632 56.0433 149.087 55.531 149.512 55.0477C149.957 54.545 150.334 54.11 150.643 53.7427L154.79 53.7427C153.823 54.8253 152.799 55.9467 151.716 57.1067C150.653 58.2667 149.58 59.3977 148.497 60.4997C149.077 60.983 149.686 61.5727 150.324 62.2687C150.962 62.9453 151.581 63.6703 152.18 64.4437C152.779 65.217 153.34 65.9903 153.862 66.7637C154.384 67.537 154.819 68.2523 155.167 68.9097H151.107C150.759 68.3103 150.353 67.682 149.889 67.0247C149.444 66.3673 148.961 65.7293 148.439 65.1107C147.917 64.492 147.385 63.912 146.844 63.3707C146.303 62.81 145.771 62.3363 145.249 61.9497V68.9097H141.74V46.9857L145.249 46.4057V59.6587ZM166.354 56.9037C166.064 56.807 165.658 56.7103 165.136 56.6137C164.634 56.4977 164.044 56.4397 163.367 56.4397C162.981 56.4397 162.565 56.4783 162.12 56.5557C161.695 56.633 161.395 56.7007 161.221 56.7587V68.9097H157.712V54.4677C158.389 54.2163 159.23 53.9843 160.235 53.7717C161.26 53.5397 162.391 53.4237 163.628 53.4237C163.86 53.4237 164.131 53.443 164.44 53.4817C164.75 53.501 165.059 53.5397 165.368 53.5977C165.678 53.6363 165.977 53.6943 166.267 53.7717C166.557 53.8297 166.789 53.8877 166.963 53.9457L166.354 56.9037ZM183.126 61.3117C183.126 62.5103 182.952 63.6027 182.604 64.5887C182.256 65.5747 181.763 66.4157 181.125 67.1117C180.487 67.8077 179.713 68.349 178.805 68.7357C177.915 69.1223 176.929 69.3157 175.847 69.3157C174.764 69.3157 173.778 69.1223 172.889 68.7357C171.999 68.349 171.236 67.8077 170.598 67.1117C169.96 66.4157 169.457 65.5747 169.09 64.5887C168.742 63.6027 168.568 62.5103 168.568 61.3117C168.568 60.113 168.742 59.0303 169.09 58.0637C169.457 57.0777 169.96 56.2367 170.598 55.5407C171.255 54.8447 172.028 54.313 172.918 53.9457C173.807 53.559 174.783 53.3657 175.847 53.3657C176.91 53.3657 177.886 53.559 178.776 53.9457C179.684 54.313 180.458 54.8447 181.096 55.5407C181.734 56.2367 182.227 57.0777 182.575 58.0637C182.942 59.0303 183.126 60.113 183.126 61.3117ZM179.53 61.3117C179.53 59.8037 179.201 58.6147 178.544 57.7447C177.906 56.8553 177.007 56.4107 175.847 56.4107C174.687 56.4107 173.778 56.8553 173.121 57.7447C172.483 58.6147 172.164 59.8037 172.164 61.3117C172.164 62.839 172.483 64.0473 173.121 64.9367C173.778 65.826 174.687 66.2707 175.847 66.2707C177.007 66.2707 177.906 65.826 178.544 64.9367C179.201 64.0473 179.53 62.839 179.53 61.3117ZM199.182 68.4457C198.505 68.6197 197.625 68.7937 196.543 68.9677C195.46 69.161 194.271 69.2577 192.976 69.2577C191.758 69.2577 190.733 69.0837 189.902 68.7357C189.09 68.3877 188.432 67.9043 187.93 67.2857C187.446 66.667 187.098 65.9323 186.886 65.0817C186.673 64.2117 186.567 63.2643 186.567 62.2397V53.7427H190.076V61.6887C190.076 63.3127 190.308 64.4727 190.772 65.1687C191.255 65.8647 192.086 66.2127 193.266 66.2127C193.691 66.2127 194.136 66.1933 194.6 66.1547C195.083 66.116 195.441 66.0677 195.673 66.0097V53.7427H199.182V68.4457ZM203.648 54.2357C204.325 54.0423 205.204 53.8587 206.287 53.6847C207.37 53.5107 208.568 53.4237 209.883 53.4237C211.12 53.4237 212.155 53.5977 212.986 53.9457C213.817 54.2743 214.475 54.748 214.958 55.3667C215.461 55.966 215.809 56.7007 216.002 57.5707C216.215 58.4213 216.321 59.359 216.321 60.3837V68.9097H212.812V60.9347C212.812 60.1227 212.754 59.4363 212.638 58.8757C212.541 58.2957 212.367 57.8317 212.116 57.4837C211.884 57.1163 211.555 56.8553 211.13 56.7007C210.724 56.5267 210.221 56.4397 209.622 56.4397C209.177 56.4397 208.713 56.4687 208.23 56.5267C207.747 56.5847 207.389 56.633 207.157 56.6717V68.9097H203.648V54.2357ZM223.367 61.2827C223.367 62.8293 223.734 64.0473 224.469 64.9367C225.204 65.8067 226.219 66.2417 227.514 66.2417C228.075 66.2417 228.548 66.2223 228.935 66.1837C229.341 66.1257 229.67 66.0677 229.921 66.0097V57.3097C229.612 57.097 229.196 56.9037 228.674 56.7297C228.171 56.5363 227.63 56.4397 227.05 56.4397C225.774 56.4397 224.836 56.8747 224.237 57.7447C223.657 58.6147 223.367 59.794 223.367 61.2827ZM233.43 68.4457C232.734 68.6583 231.854 68.8517 230.791 69.0257C229.747 69.1997 228.645 69.2867 227.485 69.2867C226.286 69.2867 225.213 69.103 224.266 68.7357C223.319 68.3683 222.507 67.8463 221.83 67.1697C221.173 66.4737 220.66 65.6423 220.293 64.6757C219.945 63.6897 219.771 62.5877 219.771 61.3697C219.771 60.171 219.916 59.0883 220.206 58.1217C220.515 57.1357 220.96 56.2947 221.54 55.5987C222.12 54.9027 222.826 54.371 223.657 54.0037C224.488 53.617 225.445 53.4237 226.528 53.4237C227.263 53.4237 227.91 53.5107 228.471 53.6847C229.032 53.8587 229.515 54.052 229.921 54.2647V46.9857L233.43 46.4057V68.4457ZM236.321 59.0207H244.122V62.2397H236.321V59.0207ZM246.194 61.3407C246.194 60.2193 246.368 59.1753 246.716 58.2087C247.064 57.2227 247.557 56.372 248.195 55.6567C248.852 54.9413 249.645 54.3807 250.573 53.9747C251.501 53.5687 252.545 53.3657 253.705 53.3657C255.135 53.3657 256.489 53.6267 257.765 54.1487L257.011 57.0197C256.605 56.8457 256.141 56.7007 255.619 56.5847C255.116 56.4687 254.575 56.4107 253.995 56.4107C252.622 56.4107 251.578 56.8457 250.863 57.7157C250.147 58.5663 249.79 59.7747 249.79 61.3407C249.79 62.8487 250.128 64.0473 250.805 64.9367C251.481 65.8067 252.622 66.2417 254.227 66.2417C254.826 66.2417 255.416 66.1837 255.996 66.0677C256.576 65.9517 257.078 65.8067 257.504 65.6327L257.997 68.5327C257.61 68.726 257.02 68.9 256.228 69.0547C255.454 69.2093 254.652 69.2867 253.821 69.2867C252.525 69.2867 251.394 69.0933 250.428 68.7067C249.48 68.3007 248.688 67.7497 248.05 67.0537C247.431 66.3383 246.967 65.4973 246.658 64.5307C246.348 63.5447 246.194 62.4813 246.194 61.3407ZM274.119 61.3117C274.119 62.5103 273.945 63.6027 273.597 64.5887C273.249 65.5747 272.756 66.4157 272.118 67.1117C271.48 67.8077 270.707 68.349 269.798 68.7357C268.909 69.1223 267.923 69.3157 266.84 69.3157C265.757 69.3157 264.771 69.1223 263.882 68.7357C262.993 68.349 262.229 67.8077 261.591 67.1117C260.953 66.4157 260.45 65.5747 260.083 64.5887C259.735 63.6027 259.561 62.5103 259.561 61.3117C259.561 60.113 259.735 59.0303 260.083 58.0637C260.45 57.0777 260.953 56.2367 261.591 55.5407C262.248 54.8447 263.022 54.313 263.911 53.9457C264.8 53.559 265.777 53.3657 266.84 53.3657C267.903 53.3657 268.88 53.559 269.769 53.9457C270.678 54.313 271.451 54.8447 272.089 55.5407C272.727 56.2367 273.22 57.0777 273.568 58.0637C273.935 59.0303 274.119 60.113 274.119 61.3117ZM270.523 61.3117C270.523 59.8037 270.194 58.6147 269.537 57.7447C268.899 56.8553 268 56.4107 266.84 56.4107C265.68 56.4107 264.771 56.8553 264.114 57.7447C263.476 58.6147 263.157 59.8037 263.157 61.3117C263.157 62.839 263.476 64.0473 264.114 64.9367C264.771 65.826 265.68 66.2707 266.84 66.2707C268 66.2707 268.899 65.826 269.537 64.9367C270.194 64.0473 270.523 62.839 270.523 61.3117ZM283.012 69.1997C281.968 69.1803 281.098 69.0643 280.402 68.8517C279.725 68.639 279.184 68.3393 278.778 67.9527C278.372 67.5467 278.082 67.0537 277.908 66.4737C277.753 65.8743 277.676 65.1977 277.676 64.4437V46.9857L281.185 46.4057V63.7767C281.185 64.202 281.214 64.5597 281.272 64.8497C281.349 65.1397 281.475 65.391 281.649 65.6037C281.823 65.797 282.055 65.9517 282.345 66.0677C282.654 66.1643 283.041 66.2417 283.505 66.2997L283.012 69.1997ZM300.06 61.3117C300.06 62.5103 299.886 63.6027 299.538 64.5887C299.19 65.5747 298.697 66.4157 298.059 67.1117C297.421 67.8077 296.648 68.349 295.739 68.7357C294.85 69.1223 293.864 69.3157 292.781 69.3157C291.699 69.3157 290.713 69.1223 289.823 68.7357C288.934 68.349 288.17 67.8077 287.532 67.1117C286.894 66.4157 286.392 65.5747 286.024 64.5887C285.676 63.6027 285.502 62.5103 285.502 61.3117C285.502 60.113 285.676 59.0303 286.024 58.0637C286.392 57.0777 286.894 56.2367 287.532 55.5407C288.19 54.8447 288.963 54.313 289.852 53.9457C290.742 53.559 291.718 53.3657 292.781 53.3657C293.845 53.3657 294.821 53.559 295.71 53.9457C296.619 54.313 297.392 54.8447 298.03 55.5407C298.668 56.2367 299.161 57.0777 299.509 58.0637C299.877 59.0303 300.06 60.113 300.06 61.3117ZM296.464 61.3117C296.464 59.8037 296.136 58.6147 295.478 57.7447C294.84 56.8553 293.941 56.4107 292.781 56.4107C291.621 56.4107 290.713 56.8553 290.055 57.7447C289.417 58.6147 289.098 59.8037 289.098 61.3117C289.098 62.839 289.417 64.0473 290.055 64.9367C290.713 65.826 291.621 66.2707 292.781 66.2707C293.941 66.2707 294.84 65.826 295.478 64.9367C296.136 64.0473 296.464 62.839 296.464 61.3117ZM312.317 56.9037C312.027 56.807 311.621 56.7103 311.099 56.6137C310.597 56.4977 310.007 56.4397 309.33 56.4397C308.944 56.4397 308.528 56.4783 308.083 56.5557C307.658 56.633 307.358 56.7007 307.184 56.7587V68.9097H303.675V54.4677C304.352 54.2163 305.193 53.9843 306.198 53.7717C307.223 53.5397 308.354 53.4237 309.591 53.4237C309.823 53.4237 310.094 53.443 310.403 53.4817C310.713 53.501 311.022 53.5397 311.331 53.5977C311.641 53.6363 311.94 53.6943 312.23 53.7717C312.52 53.8297 312.752 53.8877 312.926 53.9457L312.317 56.9037Z" fill="white"/>
<path d="M678.407 48.8127H682.061V68.9097H678.407V48.8127ZM685.86 61.3407C685.86 60.2193 686.034 59.1753 686.382 58.2087C686.73 57.2227 687.223 56.372 687.861 55.6567C688.518 54.9413 689.311 54.3807 690.239 53.9747C691.167 53.5687 692.211 53.3657 693.371 53.3657C694.801 53.3657 696.155 53.6267 697.431 54.1487L696.677 57.0197C696.271 56.8457 695.807 56.7007 695.285 56.5847C694.782 56.4687 694.241 56.4107 693.661 56.4107C692.288 56.4107 691.244 56.8457 690.529 57.7157C689.813 58.5663 689.456 59.7747 689.456 61.3407C689.456 62.8487 689.794 64.0473 690.471 64.9367C691.147 65.8067 692.288 66.2417 693.893 66.2417C694.492 66.2417 695.082 66.1837 695.662 66.0677C696.242 65.9517 696.744 65.8067 697.17 65.6327L697.663 68.5327C697.276 68.726 696.686 68.9 695.894 69.0547C695.12 69.2093 694.318 69.2867 693.487 69.2867C692.191 69.2867 691.06 69.0933 690.094 68.7067C689.146 68.3007 688.354 67.7497 687.716 67.0537C687.097 66.3383 686.633 65.4973 686.324 64.5307C686.014 63.5447 685.86 62.4813 685.86 61.3407ZM713.785 61.3117C713.785 62.5103 713.611 63.6027 713.263 64.5887C712.915 65.5747 712.422 66.4157 711.784 67.1117C711.146 67.8077 710.373 68.349 709.464 68.7357C708.575 69.1223 707.589 69.3157 706.506 69.3157C705.423 69.3157 704.437 69.1223 703.548 68.7357C702.659 68.349 701.895 67.8077 701.257 67.1117C700.619 66.4157 700.116 65.5747 699.749 64.5887C699.401 63.6027 699.227 62.5103 699.227 61.3117C699.227 60.113 699.401 59.0303 699.749 58.0637C700.116 57.0777 700.619 56.2367 701.257 55.5407C701.914 54.8447 702.688 54.313 703.577 53.9457C704.466 53.559 705.443 53.3657 706.506 53.3657C707.569 53.3657 708.546 53.559 709.435 53.9457C710.344 54.313 711.117 54.8447 711.755 55.5407C712.393 56.2367 712.886 57.0777 713.234 58.0637C713.601 59.0303 713.785 60.113 713.785 61.3117ZM710.189 61.3117C710.189 59.8037 709.86 58.6147 709.203 57.7447C708.565 56.8553 707.666 56.4107 706.506 56.4107C705.346 56.4107 704.437 56.8553 703.78 57.7447C703.142 58.6147 702.823 59.8037 702.823 61.3117C702.823 62.839 703.142 64.0473 703.78 64.9367C704.437 65.826 705.346 66.2707 706.506 66.2707C707.666 66.2707 708.565 65.826 709.203 64.9367C709.86 64.0473 710.189 62.839 710.189 61.3117ZM717.4 54.2357C718.077 54.0423 718.956 53.8587 720.039 53.6847C721.122 53.5107 722.32 53.4237 723.635 53.4237C724.872 53.4237 725.907 53.5977 726.738 53.9457C727.569 54.2743 728.227 54.748 728.71 55.3667C729.213 55.966 729.561 56.7007 729.754 57.5707C729.967 58.4213 730.073 59.359 730.073 60.3837V68.9097H726.564V60.9347C726.564 60.1227 726.506 59.4363 726.39 58.8757C726.293 58.2957 726.119 57.8317 725.868 57.4837C725.636 57.1163 725.307 56.8553 724.882 56.7007C724.476 56.5267 723.973 56.4397 723.374 56.4397C722.929 56.4397 722.465 56.4687 721.982 56.5267C721.499 56.5847 721.141 56.633 720.909 56.6717V68.9097H717.4V54.2357ZM732.798 59.0207H740.599V62.2397H732.798V59.0207ZM742.67 61.3407C742.67 60.2193 742.844 59.1753 743.192 58.2087C743.54 57.2227 744.033 56.372 744.671 55.6567C745.329 54.9413 746.121 54.3807 747.049 53.9747C747.977 53.5687 749.021 53.3657 750.181 53.3657C751.612 53.3657 752.965 53.6267 754.241 54.1487L753.487 57.0197C753.081 56.8457 752.617 56.7007 752.095 56.5847C751.593 56.4687 751.051 56.4107 750.471 56.4107C749.099 56.4107 748.055 56.8457 747.339 57.7157C746.624 58.5663 746.266 59.7747 746.266 61.3407C746.266 62.8487 746.605 64.0473 747.281 64.9367C747.958 65.8067 749.099 66.2417 750.703 66.2417C751.303 66.2417 751.892 66.1837 752.472 66.0677C753.052 65.9517 753.555 65.8067 753.98 65.6327L754.473 68.5327C754.087 68.726 753.497 68.9 752.704 69.0547C751.931 69.2093 751.129 69.2867 750.297 69.2867C749.002 69.2867 747.871 69.0933 746.904 68.7067C745.957 68.3007 745.164 67.7497 744.526 67.0537C743.908 66.3383 743.444 65.4973 743.134 64.5307C742.825 63.5447 742.67 62.4813 742.67 61.3407ZM770.596 61.3117C770.596 62.5103 770.422 63.6027 770.074 64.5887C769.726 65.5747 769.233 66.4157 768.595 67.1117C767.957 67.8077 767.183 68.349 766.275 68.7357C765.385 69.1223 764.399 69.3157 763.317 69.3157C762.234 69.3157 761.248 69.1223 760.359 68.7357C759.469 68.349 758.706 67.8077 758.068 67.1117C757.43 66.4157 756.927 65.5747 756.56 64.5887C756.212 63.6027 756.038 62.5103 756.038 61.3117C756.038 60.113 756.212 59.0303 756.56 58.0637C756.927 57.0777 757.43 56.2367 758.068 55.5407C758.725 54.8447 759.498 54.313 760.388 53.9457C761.277 53.559 762.253 53.3657 763.317 53.3657C764.38 53.3657 765.356 53.559 766.246 53.9457C767.154 54.313 767.928 54.8447 768.566 55.5407C769.204 56.2367 769.697 57.0777 770.045 58.0637C770.412 59.0303 770.596 60.113 770.596 61.3117ZM767 61.3117C767 59.8037 766.671 58.6147 766.014 57.7447C765.376 56.8553 764.477 56.4107 763.317 56.4107C762.157 56.4107 761.248 56.8553 760.591 57.7447C759.953 58.6147 759.634 59.8037 759.634 61.3117C759.634 62.839 759.953 64.0473 760.591 64.9367C761.248 65.826 762.157 66.2707 763.317 66.2707C764.477 66.2707 765.376 65.826 766.014 64.9367C766.671 64.0473 767 62.839 767 61.3117ZM779.489 69.1997C778.445 69.1803 777.575 69.0643 776.879 68.8517C776.202 68.639 775.661 68.3393 775.255 67.9527C774.849 67.5467 774.559 67.0537 774.385 66.4737C774.23 65.8743 774.153 65.1977 774.153 64.4437V46.9857L777.662 46.4057V63.7767C777.662 64.202 777.691 64.5597 777.749 64.8497C777.826 65.1397 777.952 65.391 778.126 65.6037C778.3 65.797 778.532 65.9517 778.822 66.0677C779.131 66.1643 779.518 66.2417 779.982 66.2997L779.489 69.1997ZM796.537 61.3117C796.537 62.5103 796.363 63.6027 796.015 64.5887C795.667 65.5747 795.174 66.4157 794.536 67.1117C793.898 67.8077 793.125 68.349 792.216 68.7357C791.327 69.1223 790.341 69.3157 789.258 69.3157C788.175 69.3157 787.189 69.1223 786.3 68.7357C785.411 68.349 784.647 67.8077 784.009 67.1117C783.371 66.4157 782.868 65.5747 782.501 64.5887C782.153 63.6027 781.979 62.5103 781.979 61.3117C781.979 60.113 782.153 59.0303 782.501 58.0637C782.868 57.0777 783.371 56.2367 784.009 55.5407C784.666 54.8447 785.44 54.313 786.329 53.9457C787.218 53.559 788.195 53.3657 789.258 53.3657C790.321 53.3657 791.298 53.559 792.187 53.9457C793.096 54.313 793.869 54.8447 794.507 55.5407C795.145 56.2367 795.638 57.0777 795.986 58.0637C796.353 59.0303 796.537 60.113 796.537 61.3117ZM792.941 61.3117C792.941 59.8037 792.612 58.6147 791.955 57.7447C791.317 56.8553 790.418 56.4107 789.258 56.4107C788.098 56.4107 787.189 56.8553 786.532 57.7447C785.894 58.6147 785.575 59.8037 785.575 61.3117C785.575 62.839 785.894 64.0473 786.532 64.9367C787.189 65.826 788.098 66.2707 789.258 66.2707C790.418 66.2707 791.317 65.826 791.955 64.9367C792.612 64.0473 792.941 62.839 792.941 61.3117ZM808.794 56.9037C808.504 56.807 808.098 56.7103 807.576 56.6137C807.073 56.4977 806.484 56.4397 805.807 56.4397C805.42 56.4397 805.005 56.4783 804.56 56.5557C804.135 56.633 803.835 56.7007 803.661 56.7587V68.9097H800.152V54.4677C800.829 54.2163 801.67 53.9843 802.675 53.7717C803.7 53.5397 804.831 53.4237 806.068 53.4237C806.3 53.4237 806.571 53.443 806.88 53.4817C807.189 53.501 807.499 53.5397 807.808 53.5977C808.117 53.6363 808.417 53.6943 808.707 53.7717C808.997 53.8297 809.229 53.8877 809.403 53.9457L808.794 56.9037Z" fill="white"/>
<path d="M1068.41 68.9097V48.8127H1081.31V51.9157H1072.06V56.8747H1080.3V59.9197H1072.06V65.8067H1082.01V68.9097H1068.41ZM1090.9 58.7017L1094.12 53.7427H1097.81L1092.82 60.9057C1093.86 62.259 1094.86 63.6317 1095.8 65.0237C1096.77 66.3963 1097.56 67.6917 1098.18 68.9097H1094.38C1094.21 68.5423 1093.98 68.1267 1093.69 67.6627C1093.42 67.1793 1093.12 66.6863 1092.79 66.1837C1092.48 65.6617 1092.15 65.1493 1091.8 64.6467C1091.45 64.144 1091.12 63.6703 1090.79 63.2257C1090.11 64.0957 1089.44 65.0623 1088.79 66.1257C1088.15 67.1697 1087.62 68.0977 1087.19 68.9097H1083.6C1083.89 68.3297 1084.23 67.711 1084.64 67.0537C1085.05 66.3963 1085.48 65.7293 1085.94 65.0527C1086.41 64.3567 1086.88 63.6703 1087.37 62.9937C1087.87 62.2977 1088.36 61.6403 1088.84 61.0217L1083.83 53.7427H1087.68L1090.9 58.7017ZM1106.14 66.4447C1107.22 66.4447 1108.04 66.3867 1108.6 66.2707V62.3847C1108.41 62.3267 1108.13 62.2687 1107.76 62.2107C1107.39 62.1527 1106.99 62.1237 1106.54 62.1237C1106.16 62.1237 1105.76 62.1527 1105.35 62.2107C1104.97 62.2687 1104.61 62.375 1104.28 62.5297C1103.97 62.6843 1103.72 62.9067 1103.53 63.1967C1103.33 63.4673 1103.24 63.8153 1103.24 64.2407C1103.24 65.072 1103.5 65.652 1104.02 65.9807C1104.54 66.29 1105.25 66.4447 1106.14 66.4447ZM1105.85 53.3657C1107.01 53.3657 1107.98 53.5107 1108.78 53.8007C1109.57 54.0907 1110.2 54.4967 1110.66 55.0187C1111.14 55.5407 1111.48 56.1787 1111.68 56.9327C1111.89 57.6673 1112 58.4793 1112 59.3687V68.5617C1111.45 68.6777 1110.63 68.813 1109.53 68.9677C1108.45 69.1417 1107.22 69.2287 1105.85 69.2287C1104.94 69.2287 1104.11 69.1417 1103.35 68.9677C1102.6 68.7937 1101.95 68.5133 1101.41 68.1267C1100.89 67.74 1100.47 67.2373 1100.16 66.6187C1099.87 66 1099.73 65.2363 1099.73 64.3277C1099.73 63.4577 1099.89 62.723 1100.22 62.1237C1100.57 61.5243 1101.03 61.041 1101.61 60.6737C1102.19 60.287 1102.86 60.0163 1103.61 59.8617C1104.39 59.6877 1105.19 59.6007 1106.02 59.6007C1106.41 59.6007 1106.81 59.6297 1107.24 59.6877C1107.66 59.7263 1108.12 59.8037 1108.6 59.9197V59.3397C1108.6 58.9337 1108.55 58.547 1108.46 58.1797C1108.36 57.8123 1108.19 57.4933 1107.94 57.2227C1107.7 56.9327 1107.38 56.7103 1106.98 56.5557C1106.59 56.401 1106.1 56.3237 1105.5 56.3237C1104.69 56.3237 1103.94 56.3817 1103.27 56.4977C1102.59 56.6137 1102.04 56.749 1101.61 56.9037L1101.18 54.0617C1101.62 53.907 1102.27 53.7523 1103.12 53.5977C1103.97 53.443 1104.88 53.3657 1105.85 53.3657ZM1124.93 60.9347C1124.93 59.3493 1124.73 58.2087 1124.33 57.5127C1123.94 56.7973 1123.2 56.4397 1122.12 56.4397C1121.73 56.4397 1121.31 56.4687 1120.85 56.5267C1120.38 56.5847 1120.03 56.633 1119.8 56.6717V68.9097H1116.29V54.2357C1116.97 54.0423 1117.85 53.8587 1118.93 53.6847C1120.03 53.5107 1121.19 53.4237 1122.41 53.4237C1123.46 53.4237 1124.31 53.559 1124.96 53.8297C1125.64 54.1003 1126.2 54.458 1126.65 54.9027C1126.86 54.748 1127.13 54.5837 1127.46 54.4097C1127.79 54.2357 1128.15 54.081 1128.56 53.9457C1128.97 53.791 1129.39 53.6653 1129.84 53.5687C1130.3 53.472 1130.76 53.4237 1131.23 53.4237C1132.41 53.4237 1133.37 53.5977 1134.13 53.9457C1134.9 54.2743 1135.5 54.748 1135.93 55.3667C1136.37 55.966 1136.67 56.7007 1136.82 57.5707C1137 58.4213 1137.09 59.359 1137.09 60.3837V68.9097H1133.58V60.9347C1133.58 59.3493 1133.38 58.2087 1133 57.5127C1132.61 56.7973 1131.87 56.4397 1130.76 56.4397C1130.2 56.4397 1129.67 56.5363 1129.17 56.7297C1128.67 56.9037 1128.29 57.0777 1128.04 57.2517C1128.19 57.735 1128.3 58.2473 1128.36 58.7887C1128.41 59.33 1128.44 59.91 1128.44 60.5287V68.9097H1124.93V60.9347ZM1151.45 61.3987C1151.45 59.8327 1151.09 58.6147 1150.37 57.7447C1149.68 56.8747 1148.55 56.4397 1146.98 56.4397C1146.65 56.4397 1146.3 56.459 1145.94 56.4977C1145.59 56.517 1145.24 56.575 1144.89 56.6717V65.3427C1145.2 65.5553 1145.61 65.7583 1146.11 65.9517C1146.63 66.1257 1147.18 66.2127 1147.76 66.2127C1149.04 66.2127 1149.97 65.7777 1150.55 64.9077C1151.15 64.0377 1151.45 62.868 1151.45 61.3987ZM1155.04 61.3407C1155.04 62.5007 1154.89 63.564 1154.58 64.5307C1154.29 65.4973 1153.86 66.3287 1153.3 67.0247C1152.74 67.7207 1152.04 68.262 1151.19 68.6487C1150.36 69.0353 1149.41 69.2287 1148.34 69.2287C1147.63 69.2287 1146.97 69.1417 1146.37 68.9677C1145.77 68.7937 1145.28 68.6003 1144.89 68.3877V74.2747H1141.38V54.2357C1142.1 54.0423 1142.98 53.8587 1144.02 53.6847C1145.07 53.5107 1146.17 53.4237 1147.33 53.4237C1148.53 53.4237 1149.6 53.6073 1150.55 53.9747C1151.5 54.342 1152.3 54.8737 1152.96 55.5697C1153.63 56.2463 1154.14 57.0777 1154.49 58.0637C1154.86 59.0303 1155.04 60.1227 1155.04 61.3407ZM1163.94 69.1997C1162.89 69.1803 1162.02 69.0643 1161.33 68.8517C1160.65 68.639 1160.11 68.3393 1159.7 67.9527C1159.3 67.5467 1159.01 67.0537 1158.83 66.4737C1158.68 65.8743 1158.6 65.1977 1158.6 64.4437V46.9857L1162.11 46.4057V63.7767C1162.11 64.202 1162.14 64.5597 1162.2 64.8497C1162.28 65.1397 1162.4 65.391 1162.57 65.6037C1162.75 65.797 1162.98 65.9517 1163.27 66.0677C1163.58 66.1643 1163.97 66.2417 1164.43 66.2997L1163.94 69.1997ZM1166.43 61.3987C1166.43 60.0647 1166.62 58.895 1167.01 57.8897C1167.41 56.8843 1167.95 56.053 1168.6 55.3957C1169.26 54.719 1170.01 54.2163 1170.87 53.8877C1171.72 53.5397 1172.59 53.3657 1173.48 53.3657C1175.56 53.3657 1177.19 54.0133 1178.35 55.3087C1179.53 56.604 1180.12 58.5373 1180.12 61.1087C1180.12 61.302 1180.11 61.5243 1180.09 61.7757C1180.09 62.0077 1180.08 62.2203 1180.06 62.4137H1170.05C1170.15 63.6317 1170.58 64.579 1171.33 65.2557C1172.1 65.913 1173.21 66.2417 1174.66 66.2417C1175.51 66.2417 1176.29 66.1643 1176.98 66.0097C1177.7 65.855 1178.26 65.6907 1178.67 65.5167L1179.13 68.3877C1178.94 68.4843 1178.67 68.5907 1178.32 68.7067C1177.99 68.8033 1177.6 68.8903 1177.16 68.9677C1176.73 69.0643 1176.27 69.1417 1175.77 69.1997C1175.26 69.2577 1174.75 69.2867 1174.23 69.2867C1172.9 69.2867 1171.74 69.0933 1170.75 68.7067C1169.76 68.3007 1168.95 67.7497 1168.31 67.0537C1167.68 66.3383 1167.2 65.507 1166.89 64.5597C1166.58 63.593 1166.43 62.5393 1166.43 61.3987ZM1176.61 59.8327C1176.61 59.3493 1176.54 58.895 1176.4 58.4697C1176.27 58.025 1176.07 57.648 1175.8 57.3387C1175.54 57.01 1175.22 56.7587 1174.84 56.5847C1174.47 56.3913 1174.03 56.2947 1173.5 56.2947C1172.96 56.2947 1172.49 56.401 1172.08 56.6137C1171.68 56.807 1171.33 57.068 1171.04 57.3967C1170.77 57.7253 1170.56 58.1023 1170.4 58.5277C1170.25 58.953 1170.14 59.388 1170.08 59.8327H1176.61Z" fill="white"/>
</g>
<defs>
<clipPath id="clip0_4215_185151">
<rect width="1512" height="877" fill="white"/>
</clipPath>
</defs>
</svg>
