<svg width="1512" height="982" viewBox="0 0 1512 982" fill="none" xmlns="http://www.w3.org/2000/svg">
<rect width="1512" height="982" fill="#1B1A27"/>
<rect x="220.578" y="605.28" width="149.767" height="74.8836" fill="#FFEDE8"/>
<rect x="370.344" y="605.28" width="149.767" height="74.8836" fill="#FFDBD1"/>
<rect x="520.109" y="605.28" width="149.767" height="74.8836" fill="#FFB59F"/>
<rect x="669.875" y="605.28" width="149.767" height="74.8836" fill="#FF8B68"/>
<rect x="819.645" y="605.28" width="149.767" height="74.8836" fill="#FF571F"/>
<rect x="969.41" y="605.28" width="149.767" height="74.8836" fill="#DA3E00"/>
<rect x="1119.18" y="605.28" width="149.767" height="74.8836" fill="#AF3000"/>
<rect x="1268.95" y="605.28" width="149.767" height="74.8836" fill="#862300"/>
<rect x="1268.95" y="605.28" width="149.767" height="74.8836" fill="#631A00"/>
<rect x="220.578" y="265.867" width="149.767" height="74.8836" fill="#F0EFFF"/>
<rect x="370.344" y="265.867" width="149.767" height="74.8836" fill="#DEE1FF"/>
<rect x="520.109" y="265.867" width="149.767" height="74.8836" fill="#B9C3FF"/>
<rect x="669.875" y="265.867" width="149.767" height="74.8836" fill="#95A6FF"/>
<rect x="819.645" y="265.867" width="149.767" height="74.8836" fill="#6F88FF"/>
<rect x="969.41" y="265.867" width="149.767" height="74.8836" fill="#4668FE"/>
<rect x="1119.18" y="265.867" width="149.767" height="74.8836" fill="#254CE4"/>
<rect x="1268.95" y="265.867" width="149.767" height="74.8836" fill="#0033C2"/>
<rect x="220.578" y="377.753" width="149.767" height="74.8836" fill="#C6FFC6"/>
<rect x="370.344" y="377.753" width="149.767" height="74.8836" fill="#6AFF87"/>
<rect x="520.109" y="377.753" width="149.767" height="74.8836" fill="#00D95A"/>
<rect x="669.875" y="377.753" width="149.767" height="74.8836" fill="#00C551"/>
<rect x="819.645" y="377.753" width="149.767" height="74.8836" fill="#00A743"/>
<rect x="969.41" y="377.753" width="149.767" height="74.8836" fill="#008A36"/>
<rect x="1119.18" y="377.753" width="149.767" height="74.8836" fill="#006E2A"/>
<rect x="1268.95" y="377.753" width="149.767" height="74.8836" fill="#00531D"/>
<rect x="819.645" y="153.981" width="149.767" height="74.8836" fill="#7A3AC5"/>
<rect x="1268.95" y="153.981" width="149.767" height="74.8836" fill="#2A0054"/>
<rect x="370.344" y="153.981" width="149.767" height="74.8836" fill="#D9B9FF"/>
<rect x="520.109" y="153.981" width="149.767" height="74.8836" fill="#C496FF"/>
<rect x="669.879" y="153.981" width="149.767" height="74.8836" fill="#AF71FD"/>
<rect x="1119.18" y="153.981" width="149.767" height="74.8836" fill="#460085"/>
<rect x="969.414" y="153.981" width="149.767" height="74.8836" fill="#611AAC"/>
<rect x="220.578" y="153.981" width="149.767" height="74.8836" fill="#EEDBFF"/>
<circle cx="132.755" cy="191.423" r="39.4736" fill="#B175FB"/>
<circle cx="132.755" cy="303.309" r="39.4736" fill="#4668FE"/>
<circle cx="132.755" cy="415.195" r="39.4736" fill="#00D95A"/>
<circle cx="132.755" cy="527.081" r="39.4736" fill="#FFC619"/>
<circle cx="132.755" cy="642.722" r="39.4736" fill="#FF571F"/>
<rect x="220.578" y="489.639" width="149.767" height="74.8836" fill="#FFEFD2"/>
<rect x="370.344" y="489.639" width="149.767" height="74.8836" fill="#FFDF98"/>
<rect x="520.109" y="489.639" width="149.767" height="74.8836" fill="#FFC619"/>
<rect x="669.875" y="489.639" width="149.767" height="74.8836" fill="#D5A400"/>
<rect x="819.645" y="489.639" width="149.767" height="74.8836" fill="#B58B00"/>
<rect x="969.41" y="489.639" width="149.767" height="74.8836" fill="#957200"/>
<rect x="1119.18" y="489.639" width="149.767" height="74.8836" fill="#775A00"/>
<rect x="1268.95" y="489.639" width="149.767" height="74.8836" fill="#5A4300"/>
<rect x="220.578" y="718.105" width="149.767" height="74.8836" fill="white"/>
<rect x="370.348" y="718.105" width="149.767" height="74.8836" fill="#E0E2EB"/>
<rect x="520.113" y="718.105" width="149.767" height="74.8836" fill="#C4C7CF"/>
<rect x="669.883" y="718.105" width="149.767" height="74.8836" fill="#767593"/>
<rect x="819.648" y="718.105" width="149.767" height="74.8836" fill="#5F5E78"/>
<rect x="969.418" y="718.105" width="149.767" height="74.8836" fill="#49485D"/>
<rect x="1119.18" y="718.105" width="149.767" height="74.8836" fill="#323142"/>
<rect x="1268.95" y="718.105" width="149.767" height="74.8836" fill="#181C22"/>
<circle cx="132.755" cy="755.547" r="39.4736" fill="#F0F2F5"/>
<rect x="669.883" y="472.317" width="840.605" height="113.284" fill="#1B1A27"/>
<rect x="431.461" y="582.024" width="388.184" height="118.225" fill="#1B1A27"/>
<path d="M522.93 109.972L186.773 117.863L203.652 696.13H522.93V109.972Z" fill="#1B1A27"/>
<path d="M1455.34 109.972L1119.19 119.818V841.361H1455.34V109.972Z" fill="#1B1A27"/>
<path d="M236.992 79.8752V83.0362H230.815V99.9722H227.132V83.0362H220.955V79.8752H236.992ZM251.736 92.3742C251.736 93.5728 251.562 94.6652 251.214 95.6512C250.866 96.6372 250.373 97.4782 249.735 98.1742C249.097 98.8702 248.324 99.4115 247.415 99.7982C246.526 100.185 245.54 100.378 244.457 100.378C243.374 100.378 242.388 100.185 241.499 99.7982C240.61 99.4115 239.846 98.8702 239.208 98.1742C238.57 97.4782 238.067 96.6372 237.7 95.6512C237.352 94.6652 237.178 93.5728 237.178 92.3742C237.178 91.1755 237.352 90.0928 237.7 89.1262C238.067 88.1402 238.57 87.2992 239.208 86.6032C239.865 85.9072 240.639 85.3755 241.528 85.0082C242.417 84.6215 243.394 84.4282 244.457 84.4282C245.52 84.4282 246.497 84.6215 247.386 85.0082C248.295 85.3755 249.068 85.9072 249.706 86.6032C250.344 87.2992 250.837 88.1402 251.185 89.1262C251.552 90.0928 251.736 91.1755 251.736 92.3742ZM248.14 92.3742C248.14 90.8662 247.811 89.6772 247.154 88.8072C246.516 87.9178 245.617 87.4732 244.457 87.4732C243.297 87.4732 242.388 87.9178 241.731 88.8072C241.093 89.6772 240.774 90.8662 240.774 92.3742C240.774 93.9015 241.093 95.1098 241.731 95.9992C242.388 96.8885 243.297 97.3332 244.457 97.3332C245.617 97.3332 246.516 96.8885 247.154 95.9992C247.811 95.1098 248.14 93.9015 248.14 92.3742ZM269.068 92.3742C269.068 93.5728 268.894 94.6652 268.546 95.6512C268.198 96.6372 267.705 97.4782 267.067 98.1742C266.429 98.8702 265.656 99.4115 264.747 99.7982C263.858 100.185 262.872 100.378 261.789 100.378C260.706 100.378 259.72 100.185 258.831 99.7982C257.942 99.4115 257.178 98.8702 256.54 98.1742C255.902 97.4782 255.399 96.6372 255.032 95.6512C254.684 94.6652 254.51 93.5728 254.51 92.3742C254.51 91.1755 254.684 90.0928 255.032 89.1262C255.399 88.1402 255.902 87.2992 256.54 86.6032C257.197 85.9072 257.971 85.3755 258.86 85.0082C259.749 84.6215 260.726 84.4282 261.789 84.4282C262.852 84.4282 263.829 84.6215 264.718 85.0082C265.627 85.3755 266.4 85.9072 267.038 86.6032C267.676 87.2992 268.169 88.1402 268.517 89.1262C268.884 90.0928 269.068 91.1755 269.068 92.3742ZM265.472 92.3742C265.472 90.8662 265.143 89.6772 264.486 88.8072C263.848 87.9178 262.949 87.4732 261.789 87.4732C260.629 87.4732 259.72 87.9178 259.063 88.8072C258.425 89.6772 258.106 90.8662 258.106 92.3742C258.106 93.9015 258.425 95.1098 259.063 95.9992C259.72 96.8885 260.629 97.3332 261.789 97.3332C262.949 97.3332 263.848 96.8885 264.486 95.9992C265.143 95.1098 265.472 93.9015 265.472 92.3742ZM289.515 92.4612C289.515 90.8952 289.157 89.6772 288.442 88.8072C287.746 87.9372 286.615 87.5022 285.049 87.5022C284.72 87.5022 284.372 87.5215 284.005 87.5602C283.657 87.5795 283.309 87.6375 282.961 87.7342V96.4052C283.27 96.6178 283.676 96.8208 284.179 97.0142C284.701 97.1882 285.252 97.2752 285.832 97.2752C287.108 97.2752 288.036 96.8402 288.616 95.9702C289.215 95.1002 289.515 93.9305 289.515 92.4612ZM293.111 92.4032C293.111 93.5632 292.956 94.6265 292.647 95.5932C292.357 96.5598 291.931 97.3912 291.371 98.0872C290.81 98.7832 290.104 99.3245 289.254 99.7112C288.422 100.098 287.475 100.291 286.412 100.291C285.696 100.291 285.039 100.204 284.44 100.03C283.84 99.8562 283.347 99.6628 282.961 99.4502V105.337H279.452V85.2982C280.167 85.1048 281.047 84.9212 282.091 84.7472C283.135 84.5732 284.237 84.4862 285.397 84.4862C286.595 84.4862 287.668 84.6698 288.616 85.0372C289.563 85.4045 290.365 85.9362 291.023 86.6322C291.699 87.3088 292.212 88.1402 292.56 89.1262C292.927 90.0928 293.111 91.1852 293.111 92.4032ZM302.063 97.5072C303.146 97.5072 303.967 97.4492 304.528 97.3332V93.4472C304.335 93.3892 304.054 93.3312 303.687 93.2732C303.32 93.2152 302.914 93.1862 302.469 93.1862C302.082 93.1862 301.686 93.2152 301.28 93.2732C300.893 93.3312 300.536 93.4375 300.207 93.5922C299.898 93.7468 299.646 93.9692 299.453 94.2592C299.26 94.5298 299.163 94.8778 299.163 95.3032C299.163 96.1345 299.424 96.7145 299.946 97.0432C300.468 97.3525 301.174 97.5072 302.063 97.5072ZM301.773 84.4282C302.933 84.4282 303.909 84.5732 304.702 84.8632C305.495 85.1532 306.123 85.5592 306.587 86.0812C307.07 86.6032 307.409 87.2412 307.602 87.9952C307.815 88.7298 307.921 89.5418 307.921 90.4312V99.6242C307.38 99.7402 306.558 99.8755 305.456 100.03C304.373 100.204 303.146 100.291 301.773 100.291C300.864 100.291 300.033 100.204 299.279 100.03C298.525 99.8562 297.877 99.5758 297.336 99.1892C296.814 98.8025 296.398 98.2998 296.089 97.6812C295.799 97.0625 295.654 96.2988 295.654 95.3902C295.654 94.5202 295.818 93.7855 296.147 93.1862C296.495 92.5868 296.959 92.1035 297.539 91.7362C298.119 91.3495 298.786 91.0788 299.54 90.9242C300.313 90.7502 301.116 90.6632 301.947 90.6632C302.334 90.6632 302.74 90.6922 303.165 90.7502C303.59 90.7888 304.045 90.8662 304.528 90.9822V90.4022C304.528 89.9962 304.48 89.6095 304.383 89.2422C304.286 88.8748 304.112 88.5558 303.861 88.2852C303.629 87.9952 303.31 87.7728 302.904 87.6182C302.517 87.4635 302.024 87.3862 301.425 87.3862C300.613 87.3862 299.869 87.4442 299.192 87.5602C298.515 87.6762 297.964 87.8115 297.539 87.9662L297.104 85.1242C297.549 84.9695 298.196 84.8148 299.047 84.6602C299.898 84.5055 300.806 84.4282 301.773 84.4282ZM317.496 100.262C316.452 100.243 315.582 100.127 314.886 99.9142C314.21 99.7015 313.668 99.4018 313.262 99.0152C312.856 98.6092 312.566 98.1162 312.392 97.5362C312.238 96.9368 312.16 96.2602 312.16 95.5062V78.0482L315.669 77.4682V94.8392C315.669 95.2645 315.698 95.6222 315.756 95.9122C315.834 96.2022 315.959 96.4535 316.133 96.6662C316.307 96.8595 316.539 97.0142 316.829 97.1302C317.139 97.2268 317.525 97.3042 317.989 97.3622L317.496 100.262ZM319.987 92.4612C319.987 91.1272 320.18 89.9575 320.567 88.9522C320.973 87.9468 321.504 87.1155 322.162 86.4582C322.819 85.7815 323.573 85.2788 324.424 84.9502C325.274 84.6022 326.144 84.4282 327.034 84.4282C329.122 84.4282 330.746 85.0758 331.906 86.3712C333.085 87.6665 333.675 89.5998 333.675 92.1712C333.675 92.3645 333.665 92.5868 333.646 92.8382C333.646 93.0702 333.636 93.2828 333.617 93.4762H323.612C323.708 94.6942 324.134 95.6415 324.888 96.3182C325.661 96.9755 326.773 97.3042 328.223 97.3042C329.073 97.3042 329.847 97.2268 330.543 97.0722C331.258 96.9175 331.819 96.7532 332.225 96.5792L332.689 99.4502C332.495 99.5468 332.225 99.6532 331.877 99.7692C331.548 99.8658 331.161 99.9528 330.717 100.03C330.291 100.127 329.827 100.204 329.325 100.262C328.822 100.32 328.31 100.349 327.788 100.349C326.454 100.349 325.294 100.156 324.308 99.7692C323.322 99.3632 322.51 98.8122 321.872 98.1162C321.234 97.4008 320.76 96.5695 320.451 95.6222C320.141 94.6555 319.987 93.6018 319.987 92.4612ZM330.166 90.8952C330.166 90.4118 330.098 89.9575 329.963 89.5322C329.827 89.0875 329.624 88.7105 329.354 88.4012C329.102 88.0725 328.783 87.8212 328.397 87.6472C328.029 87.4538 327.585 87.3572 327.063 87.3572C326.521 87.3572 326.048 87.4635 325.642 87.6762C325.236 87.8695 324.888 88.1305 324.598 88.4592C324.327 88.7878 324.114 89.1648 323.96 89.5902C323.805 90.0155 323.699 90.4505 323.641 90.8952H330.166Z" fill="white"/>
<path d="M985.828 517.484V520.645H979.651V537.581H975.968V520.645H969.791V517.484H985.828ZM1000.57 529.983C1000.57 531.182 1000.4 532.274 1000.05 533.26C999.702 534.246 999.209 535.087 998.571 535.783C997.933 536.479 997.16 537.02 996.251 537.407C995.362 537.794 994.376 537.987 993.293 537.987C992.21 537.987 991.224 537.794 990.335 537.407C989.446 537.02 988.682 536.479 988.044 535.783C987.406 535.087 986.903 534.246 986.536 533.26C986.188 532.274 986.014 531.182 986.014 529.983C986.014 528.784 986.188 527.702 986.536 526.735C986.903 525.749 987.406 524.908 988.044 524.212C988.701 523.516 989.475 522.984 990.364 522.617C991.253 522.23 992.23 522.037 993.293 522.037C994.356 522.037 995.333 522.23 996.222 522.617C997.131 522.984 997.904 523.516 998.542 524.212C999.18 524.908 999.673 525.749 1000.02 526.735C1000.39 527.702 1000.57 528.784 1000.57 529.983ZM996.976 529.983C996.976 528.475 996.647 527.286 995.99 526.416C995.352 525.527 994.453 525.082 993.293 525.082C992.133 525.082 991.224 525.527 990.567 526.416C989.929 527.286 989.61 528.475 989.61 529.983C989.61 531.51 989.929 532.719 990.567 533.608C991.224 534.497 992.133 534.942 993.293 534.942C994.453 534.942 995.352 534.497 995.99 533.608C996.647 532.719 996.976 531.51 996.976 529.983ZM1017.9 529.983C1017.9 531.182 1017.73 532.274 1017.38 533.26C1017.03 534.246 1016.54 535.087 1015.9 535.783C1015.27 536.479 1014.49 537.02 1013.58 537.407C1012.69 537.794 1011.71 537.987 1010.63 537.987C1009.54 537.987 1008.56 537.794 1007.67 537.407C1006.78 537.02 1006.01 536.479 1005.38 535.783C1004.74 535.087 1004.24 534.246 1003.87 533.26C1003.52 532.274 1003.35 531.182 1003.35 529.983C1003.35 528.784 1003.52 527.702 1003.87 526.735C1004.24 525.749 1004.74 524.908 1005.38 524.212C1006.03 523.516 1006.81 522.984 1007.7 522.617C1008.59 522.23 1009.56 522.037 1010.63 522.037C1011.69 522.037 1012.66 522.23 1013.55 522.617C1014.46 522.984 1015.24 523.516 1015.87 524.212C1016.51 524.908 1017.01 525.749 1017.35 526.735C1017.72 527.702 1017.9 528.784 1017.9 529.983ZM1014.31 529.983C1014.31 528.475 1013.98 527.286 1013.32 526.416C1012.68 525.527 1011.79 525.082 1010.63 525.082C1009.47 525.082 1008.56 525.527 1007.9 526.416C1007.26 527.286 1006.94 528.475 1006.94 529.983C1006.94 531.51 1007.26 532.719 1007.9 533.608C1008.56 534.497 1009.47 534.942 1010.63 534.942C1011.79 534.942 1012.68 534.497 1013.32 533.608C1013.98 532.719 1014.31 531.51 1014.31 529.983ZM1031.04 529.954C1031.04 531.501 1031.41 532.719 1032.14 533.608C1032.88 534.478 1033.89 534.913 1035.19 534.913C1035.75 534.913 1036.22 534.894 1036.61 534.855C1037.02 534.797 1037.35 534.739 1037.6 534.681V525.981C1037.29 525.768 1036.87 525.575 1036.35 525.401C1035.85 525.208 1035.31 525.111 1034.73 525.111C1033.45 525.111 1032.51 525.546 1031.91 526.416C1031.33 527.286 1031.04 528.465 1031.04 529.954ZM1041.11 537.117C1040.41 537.33 1039.53 537.523 1038.47 537.697C1037.42 537.871 1036.32 537.958 1035.16 537.958C1033.96 537.958 1032.89 537.774 1031.94 537.407C1030.99 537.04 1030.18 536.518 1029.51 535.841C1028.85 535.145 1028.34 534.314 1027.97 533.347C1027.62 532.361 1027.45 531.259 1027.45 530.041C1027.45 528.842 1027.59 527.76 1027.88 526.793C1028.19 525.807 1028.64 524.966 1029.22 524.27C1029.8 523.574 1030.5 523.042 1031.33 522.675C1032.16 522.288 1033.12 522.095 1034.2 522.095C1034.94 522.095 1035.59 522.182 1036.15 522.356C1036.71 522.53 1037.19 522.723 1037.6 522.936V515.657L1041.11 515.077V537.117ZM1058 537.117C1057.33 537.291 1056.45 537.465 1055.37 537.639C1054.28 537.832 1053.09 537.929 1051.8 537.929C1050.58 537.929 1049.56 537.755 1048.72 537.407C1047.91 537.059 1047.25 536.576 1046.75 535.957C1046.27 535.338 1045.92 534.604 1045.71 533.753C1045.5 532.883 1045.39 531.936 1045.39 530.911V522.414H1048.9V530.36C1048.9 531.984 1049.13 533.144 1049.59 533.84C1050.08 534.536 1050.91 534.884 1052.09 534.884C1052.51 534.884 1052.96 534.865 1053.42 534.826C1053.91 534.787 1054.26 534.739 1054.5 534.681V522.414H1058V537.117ZM1067.75 537.871C1066.7 537.852 1065.83 537.736 1065.14 537.523C1064.46 537.31 1063.92 537.011 1063.51 536.624C1063.11 536.218 1062.82 535.725 1062.64 535.145C1062.49 534.546 1062.41 533.869 1062.41 533.115V515.657L1065.92 515.077V532.448C1065.92 532.873 1065.95 533.231 1066.01 533.521C1066.09 533.811 1066.21 534.062 1066.39 534.275C1066.56 534.468 1066.79 534.623 1067.08 534.739C1067.39 534.836 1067.78 534.913 1068.24 534.971L1067.75 537.871ZM1076.36 537.871C1075.31 537.852 1074.44 537.736 1073.75 537.523C1073.07 537.31 1072.53 537.011 1072.12 536.624C1071.72 536.218 1071.43 535.725 1071.25 535.145C1071.1 534.546 1071.02 533.869 1071.02 533.115V515.657L1074.53 515.077V532.448C1074.53 532.873 1074.56 533.231 1074.62 533.521C1074.7 533.811 1074.82 534.062 1074.99 534.275C1075.17 534.468 1075.4 534.623 1075.69 534.739C1076 534.836 1076.39 534.913 1076.85 534.971L1076.36 537.871Z" fill="white"/>
<path d="M370.992 625.625V628.786H364.815V645.722H361.132V628.786H354.955V625.625H370.992ZM385.736 638.124C385.736 639.323 385.562 640.415 385.214 641.401C384.866 642.387 384.373 643.228 383.735 643.924C383.097 644.62 382.324 645.162 381.415 645.548C380.526 645.935 379.54 646.128 378.457 646.128C377.374 646.128 376.388 645.935 375.499 645.548C374.61 645.162 373.846 644.62 373.208 643.924C372.57 643.228 372.067 642.387 371.7 641.401C371.352 640.415 371.178 639.323 371.178 638.124C371.178 636.926 371.352 635.843 371.7 634.876C372.067 633.89 372.57 633.049 373.208 632.353C373.865 631.657 374.639 631.126 375.528 630.758C376.417 630.372 377.394 630.178 378.457 630.178C379.52 630.178 380.497 630.372 381.386 630.758C382.295 631.126 383.068 631.657 383.706 632.353C384.344 633.049 384.837 633.89 385.185 634.876C385.552 635.843 385.736 636.926 385.736 638.124ZM382.14 638.124C382.14 636.616 381.811 635.427 381.154 634.557C380.516 633.668 379.617 633.223 378.457 633.223C377.297 633.223 376.388 633.668 375.731 634.557C375.093 635.427 374.774 636.616 374.774 638.124C374.774 639.652 375.093 640.86 375.731 641.749C376.388 642.639 377.297 643.083 378.457 643.083C379.617 643.083 380.516 642.639 381.154 641.749C381.811 640.86 382.14 639.652 382.14 638.124ZM403.068 638.124C403.068 639.323 402.894 640.415 402.546 641.401C402.198 642.387 401.705 643.228 401.067 643.924C400.429 644.62 399.656 645.162 398.747 645.548C397.858 645.935 396.872 646.128 395.789 646.128C394.706 646.128 393.72 645.935 392.831 645.548C391.942 645.162 391.178 644.62 390.54 643.924C389.902 643.228 389.399 642.387 389.032 641.401C388.684 640.415 388.51 639.323 388.51 638.124C388.51 636.926 388.684 635.843 389.032 634.876C389.399 633.89 389.902 633.049 390.54 632.353C391.197 631.657 391.971 631.126 392.86 630.758C393.749 630.372 394.726 630.178 395.789 630.178C396.852 630.178 397.829 630.372 398.718 630.758C399.627 631.126 400.4 631.657 401.038 632.353C401.676 633.049 402.169 633.89 402.517 634.876C402.884 635.843 403.068 636.926 403.068 638.124ZM399.472 638.124C399.472 636.616 399.143 635.427 398.486 634.557C397.848 633.668 396.949 633.223 395.789 633.223C394.629 633.223 393.72 633.668 393.063 634.557C392.425 635.427 392.106 636.616 392.106 638.124C392.106 639.652 392.425 640.86 393.063 641.749C393.72 642.639 394.629 643.083 395.789 643.083C396.949 643.083 397.848 642.639 398.486 641.749C399.143 640.86 399.472 639.652 399.472 638.124ZM423.515 638.211C423.515 636.645 423.157 635.427 422.442 634.557C421.746 633.687 420.615 633.252 419.049 633.252C418.72 633.252 418.372 633.272 418.005 633.31C417.657 633.33 417.309 633.388 416.961 633.484V642.155C417.27 642.368 417.676 642.571 418.179 642.764C418.701 642.938 419.252 643.025 419.832 643.025C421.108 643.025 422.036 642.59 422.616 641.72C423.215 640.85 423.515 639.681 423.515 638.211ZM427.111 638.153C427.111 639.313 426.956 640.377 426.647 641.343C426.357 642.31 425.931 643.141 425.371 643.837C424.81 644.533 424.104 645.075 423.254 645.461C422.422 645.848 421.475 646.041 420.412 646.041C419.696 646.041 419.039 645.954 418.44 645.78C417.84 645.606 417.347 645.413 416.961 645.2V651.087H413.452V631.048C414.167 630.855 415.047 630.671 416.091 630.497C417.135 630.323 418.237 630.236 419.397 630.236C420.595 630.236 421.668 630.42 422.616 630.787C423.563 631.155 424.365 631.686 425.023 632.382C425.699 633.059 426.212 633.89 426.56 634.876C426.927 635.843 427.111 636.935 427.111 638.153ZM436.063 643.257C437.146 643.257 437.967 643.199 438.528 643.083V639.197C438.335 639.139 438.054 639.081 437.687 639.023C437.32 638.965 436.914 638.936 436.469 638.936C436.082 638.936 435.686 638.965 435.28 639.023C434.893 639.081 434.536 639.188 434.207 639.342C433.898 639.497 433.646 639.719 433.453 640.009C433.26 640.28 433.163 640.628 433.163 641.053C433.163 641.885 433.424 642.465 433.946 642.793C434.468 643.103 435.174 643.257 436.063 643.257ZM435.773 630.178C436.933 630.178 437.909 630.323 438.702 630.613C439.495 630.903 440.123 631.309 440.587 631.831C441.07 632.353 441.409 632.991 441.602 633.745C441.815 634.48 441.921 635.292 441.921 636.181V645.374C441.38 645.49 440.558 645.626 439.456 645.78C438.373 645.954 437.146 646.041 435.773 646.041C434.864 646.041 434.033 645.954 433.279 645.78C432.525 645.606 431.877 645.326 431.336 644.939C430.814 644.553 430.398 644.05 430.089 643.431C429.799 642.813 429.654 642.049 429.654 641.14C429.654 640.27 429.818 639.536 430.147 638.936C430.495 638.337 430.959 637.854 431.539 637.486C432.119 637.1 432.786 636.829 433.54 636.674C434.313 636.5 435.116 636.413 435.947 636.413C436.334 636.413 436.74 636.442 437.165 636.5C437.59 636.539 438.045 636.616 438.528 636.732V636.152C438.528 635.746 438.48 635.36 438.383 634.992C438.286 634.625 438.112 634.306 437.861 634.035C437.629 633.745 437.31 633.523 436.904 633.368C436.517 633.214 436.024 633.136 435.425 633.136C434.613 633.136 433.869 633.194 433.192 633.31C432.515 633.426 431.964 633.562 431.539 633.716L431.104 630.874C431.549 630.72 432.196 630.565 433.047 630.41C433.898 630.256 434.806 630.178 435.773 630.178ZM451.496 646.012C450.452 645.993 449.582 645.877 448.886 645.664C448.21 645.452 447.668 645.152 447.262 644.765C446.856 644.359 446.566 643.866 446.392 643.286C446.238 642.687 446.16 642.01 446.16 641.256V623.798L449.669 623.218V640.589C449.669 641.015 449.698 641.372 449.756 641.662C449.834 641.952 449.959 642.204 450.133 642.416C450.307 642.61 450.539 642.764 450.829 642.88C451.139 642.977 451.525 643.054 451.989 643.112L451.496 646.012ZM453.987 638.211C453.987 636.877 454.18 635.708 454.567 634.702C454.973 633.697 455.504 632.866 456.162 632.208C456.819 631.532 457.573 631.029 458.424 630.7C459.274 630.352 460.144 630.178 461.034 630.178C463.122 630.178 464.746 630.826 465.906 632.121C467.085 633.417 467.675 635.35 467.675 637.921C467.675 638.115 467.665 638.337 467.646 638.588C467.646 638.82 467.636 639.033 467.617 639.226H457.612C457.708 640.444 458.134 641.392 458.888 642.068C459.661 642.726 460.773 643.054 462.223 643.054C463.073 643.054 463.847 642.977 464.543 642.822C465.258 642.668 465.819 642.503 466.225 642.329L466.689 645.2C466.495 645.297 466.225 645.403 465.877 645.519C465.548 645.616 465.161 645.703 464.717 645.78C464.291 645.877 463.827 645.954 463.325 646.012C462.822 646.07 462.31 646.099 461.788 646.099C460.454 646.099 459.294 645.906 458.308 645.519C457.322 645.113 456.51 644.562 455.872 643.866C455.234 643.151 454.76 642.32 454.451 641.372C454.141 640.406 453.987 639.352 453.987 638.211ZM464.166 636.645C464.166 636.162 464.098 635.708 463.963 635.282C463.827 634.838 463.624 634.461 463.354 634.151C463.102 633.823 462.783 633.571 462.397 633.397C462.029 633.204 461.585 633.107 461.063 633.107C460.521 633.107 460.048 633.214 459.642 633.426C459.236 633.62 458.888 633.881 458.598 634.209C458.327 634.538 458.114 634.915 457.96 635.34C457.805 635.766 457.699 636.201 457.641 636.645H464.166Z" fill="white"/>
<path d="M289.316 349.655V352.816H283.139V369.752H279.456V352.816H273.279V349.655H289.316ZM304.06 362.154C304.06 363.353 303.886 364.445 303.538 365.431C303.19 366.417 302.697 367.258 302.059 367.954C301.421 368.65 300.648 369.191 299.739 369.578C298.85 369.965 297.864 370.158 296.781 370.158C295.699 370.158 294.713 369.965 293.823 369.578C292.934 369.191 292.17 368.65 291.532 367.954C290.894 367.258 290.392 366.417 290.024 365.431C289.676 364.445 289.502 363.353 289.502 362.154C289.502 360.955 289.676 359.873 290.024 358.906C290.392 357.92 290.894 357.079 291.532 356.383C292.19 355.687 292.963 355.155 293.852 354.788C294.742 354.401 295.718 354.208 296.781 354.208C297.845 354.208 298.821 354.401 299.71 354.788C300.619 355.155 301.392 355.687 302.03 356.383C302.668 357.079 303.161 357.92 303.509 358.906C303.877 359.873 304.06 360.955 304.06 362.154ZM300.464 362.154C300.464 360.646 300.136 359.457 299.478 358.587C298.84 357.698 297.941 357.253 296.781 357.253C295.621 357.253 294.713 357.698 294.055 358.587C293.417 359.457 293.098 360.646 293.098 362.154C293.098 363.681 293.417 364.89 294.055 365.779C294.713 366.668 295.621 367.113 296.781 367.113C297.941 367.113 298.84 366.668 299.478 365.779C300.136 364.89 300.464 363.681 300.464 362.154ZM321.392 362.154C321.392 363.353 321.218 364.445 320.87 365.431C320.522 366.417 320.029 367.258 319.391 367.954C318.753 368.65 317.98 369.191 317.071 369.578C316.182 369.965 315.196 370.158 314.113 370.158C313.031 370.158 312.045 369.965 311.155 369.578C310.266 369.191 309.502 368.65 308.864 367.954C308.226 367.258 307.724 366.417 307.356 365.431C307.008 364.445 306.834 363.353 306.834 362.154C306.834 360.955 307.008 359.873 307.356 358.906C307.724 357.92 308.226 357.079 308.864 356.383C309.522 355.687 310.295 355.155 311.184 354.788C312.074 354.401 313.05 354.208 314.113 354.208C315.177 354.208 316.153 354.401 317.042 354.788C317.951 355.155 318.724 355.687 319.362 356.383C320 357.079 320.493 357.92 320.841 358.906C321.209 359.873 321.392 360.955 321.392 362.154ZM317.796 362.154C317.796 360.646 317.468 359.457 316.81 358.587C316.172 357.698 315.273 357.253 314.113 357.253C312.953 357.253 312.045 357.698 311.387 358.587C310.749 359.457 310.43 360.646 310.43 362.154C310.43 363.681 310.749 364.89 311.387 365.779C312.045 366.668 312.953 367.113 314.113 367.113C315.273 367.113 316.172 366.668 316.81 365.779C317.468 364.89 317.796 363.681 317.796 362.154ZM341.839 362.241C341.839 360.675 341.481 359.457 340.766 358.587C340.07 357.717 338.939 357.282 337.373 357.282C337.044 357.282 336.696 357.301 336.329 357.34C335.981 357.359 335.633 357.417 335.285 357.514V366.185C335.594 366.398 336 366.601 336.503 366.794C337.025 366.968 337.576 367.055 338.156 367.055C339.432 367.055 340.36 366.62 340.94 365.75C341.539 364.88 341.839 363.71 341.839 362.241ZM345.435 362.183C345.435 363.343 345.28 364.406 344.971 365.373C344.681 366.34 344.256 367.171 343.695 367.867C343.134 368.563 342.429 369.104 341.578 369.491C340.747 369.878 339.799 370.071 338.736 370.071C338.021 370.071 337.363 369.984 336.764 369.81C336.165 369.636 335.672 369.443 335.285 369.23V375.117H331.776V355.078C332.491 354.885 333.371 354.701 334.415 354.527C335.459 354.353 336.561 354.266 337.721 354.266C338.92 354.266 339.993 354.45 340.94 354.817C341.887 355.184 342.69 355.716 343.347 356.412C344.024 357.089 344.536 357.92 344.884 358.906C345.251 359.873 345.435 360.965 345.435 362.183ZM354.387 367.287C355.47 367.287 356.292 367.229 356.852 367.113V363.227C356.659 363.169 356.379 363.111 356.011 363.053C355.644 362.995 355.238 362.966 354.793 362.966C354.407 362.966 354.01 362.995 353.604 363.053C353.218 363.111 352.86 363.217 352.531 363.372C352.222 363.527 351.971 363.749 351.777 364.039C351.584 364.31 351.487 364.658 351.487 365.083C351.487 365.914 351.748 366.494 352.27 366.823C352.792 367.132 353.498 367.287 354.387 367.287ZM354.097 354.208C355.257 354.208 356.234 354.353 357.026 354.643C357.819 354.933 358.447 355.339 358.911 355.861C359.395 356.383 359.733 357.021 359.926 357.775C360.139 358.51 360.245 359.322 360.245 360.211V369.404C359.704 369.52 358.882 369.655 357.78 369.81C356.698 369.984 355.47 370.071 354.097 370.071C353.189 370.071 352.357 369.984 351.603 369.81C350.849 369.636 350.202 369.356 349.66 368.969C349.138 368.582 348.723 368.08 348.413 367.461C348.123 366.842 347.978 366.079 347.978 365.17C347.978 364.3 348.143 363.565 348.471 362.966C348.819 362.367 349.283 361.883 349.863 361.516C350.443 361.129 351.11 360.859 351.864 360.704C352.638 360.53 353.44 360.443 354.271 360.443C354.658 360.443 355.064 360.472 355.489 360.53C355.915 360.569 356.369 360.646 356.852 360.762V360.182C356.852 359.776 356.804 359.389 356.707 359.022C356.611 358.655 356.437 358.336 356.185 358.065C355.953 357.775 355.634 357.553 355.228 357.398C354.842 357.243 354.349 357.166 353.749 357.166C352.937 357.166 352.193 357.224 351.516 357.34C350.84 357.456 350.289 357.591 349.863 357.746L349.428 354.904C349.873 354.749 350.521 354.595 351.371 354.44C352.222 354.285 353.131 354.208 354.097 354.208ZM369.821 370.042C368.777 370.023 367.907 369.907 367.211 369.694C366.534 369.481 365.993 369.182 365.587 368.795C365.181 368.389 364.891 367.896 364.717 367.316C364.562 366.717 364.485 366.04 364.485 365.286V347.828L367.994 347.248V364.619C367.994 365.044 368.023 365.402 368.081 365.692C368.158 365.982 368.284 366.233 368.458 366.446C368.632 366.639 368.864 366.794 369.154 366.91C369.463 367.007 369.85 367.084 370.314 367.142L369.821 370.042ZM372.311 362.241C372.311 360.907 372.504 359.737 372.891 358.732C373.297 357.727 373.829 356.895 374.486 356.238C375.143 355.561 375.897 355.059 376.748 354.73C377.599 354.382 378.469 354.208 379.358 354.208C381.446 354.208 383.07 354.856 384.23 356.151C385.409 357.446 385.999 359.38 385.999 361.951C385.999 362.144 385.989 362.367 385.97 362.618C385.97 362.85 385.96 363.063 385.941 363.256H375.936C376.033 364.474 376.458 365.421 377.212 366.098C377.985 366.755 379.097 367.084 380.547 367.084C381.398 367.084 382.171 367.007 382.867 366.852C383.582 366.697 384.143 366.533 384.549 366.359L385.013 369.23C384.82 369.327 384.549 369.433 384.201 369.549C383.872 369.646 383.486 369.733 383.041 369.81C382.616 369.907 382.152 369.984 381.649 370.042C381.146 370.1 380.634 370.129 380.112 370.129C378.778 370.129 377.618 369.936 376.632 369.549C375.646 369.143 374.834 368.592 374.196 367.896C373.558 367.181 373.084 366.349 372.775 365.402C372.466 364.435 372.311 363.382 372.311 362.241ZM382.49 360.675C382.49 360.192 382.422 359.737 382.287 359.312C382.152 358.867 381.949 358.49 381.678 358.181C381.427 357.852 381.108 357.601 380.721 357.427C380.354 357.234 379.909 357.137 379.387 357.137C378.846 357.137 378.372 357.243 377.966 357.456C377.56 357.649 377.212 357.91 376.922 358.239C376.651 358.568 376.439 358.945 376.284 359.37C376.129 359.795 376.023 360.23 375.965 360.675H382.49Z" fill="white"/>
<rect x="819.648" y="125.938" width="348.525" height="118.834" fill="#1B1A27"/>
<rect x="669.883" y="696.13" width="498.293" height="118.834" fill="#1B1A27"/>
<rect x="186.773" y="696.13" width="183.57" height="118.834" fill="#1B1A27"/>
<rect x="488.578" y="243.892" width="183.57" height="118.834" fill="#1B1A27"/>
<rect x="969.414" y="244.771" width="348.525" height="118.834" fill="#1B1A27"/>
<path d="M1111.03 208.768V211.929H1104.85V228.865H1101.17V211.929H1094.99V208.768H1111.03ZM1125.77 221.267C1125.77 222.466 1125.6 223.558 1125.25 224.544C1124.9 225.53 1124.41 226.371 1123.77 227.067C1123.13 227.763 1122.36 228.304 1121.45 228.691C1120.56 229.078 1119.57 229.271 1118.49 229.271C1117.41 229.271 1116.42 229.078 1115.53 228.691C1114.64 228.304 1113.88 227.763 1113.24 227.067C1112.61 226.371 1112.1 225.53 1111.74 224.544C1111.39 223.558 1111.21 222.466 1111.21 221.267C1111.21 220.068 1111.39 218.986 1111.74 218.019C1112.1 217.033 1112.61 216.192 1113.24 215.496C1113.9 214.8 1114.67 214.268 1115.56 213.901C1116.45 213.514 1117.43 213.321 1118.49 213.321C1119.56 213.321 1120.53 213.514 1121.42 213.901C1122.33 214.268 1123.1 214.8 1123.74 215.496C1124.38 216.192 1124.87 217.033 1125.22 218.019C1125.59 218.986 1125.77 220.068 1125.77 221.267ZM1122.18 221.267C1122.18 219.759 1121.85 218.57 1121.19 217.7C1120.55 216.811 1119.65 216.366 1118.49 216.366C1117.33 216.366 1116.42 216.811 1115.77 217.7C1115.13 218.57 1114.81 219.759 1114.81 221.267C1114.81 222.794 1115.13 224.003 1115.77 224.892C1116.42 225.781 1117.33 226.226 1118.49 226.226C1119.65 226.226 1120.55 225.781 1121.19 224.892C1121.85 224.003 1122.18 222.794 1122.18 221.267ZM1143.1 221.267C1143.1 222.466 1142.93 223.558 1142.58 224.544C1142.23 225.53 1141.74 226.371 1141.1 227.067C1140.46 227.763 1139.69 228.304 1138.78 228.691C1137.89 229.078 1136.91 229.271 1135.82 229.271C1134.74 229.271 1133.76 229.078 1132.87 228.691C1131.98 228.304 1131.21 227.763 1130.58 227.067C1129.94 226.371 1129.43 225.53 1129.07 224.544C1128.72 223.558 1128.55 222.466 1128.55 221.267C1128.55 220.068 1128.72 218.986 1129.07 218.019C1129.43 217.033 1129.94 216.192 1130.58 215.496C1131.23 214.8 1132.01 214.268 1132.9 213.901C1133.78 213.514 1134.76 213.321 1135.82 213.321C1136.89 213.321 1137.86 213.514 1138.75 213.901C1139.66 214.268 1140.44 214.8 1141.07 215.496C1141.71 216.192 1142.2 217.033 1142.55 218.019C1142.92 218.986 1143.1 220.068 1143.1 221.267ZM1139.51 221.267C1139.51 219.759 1139.18 218.57 1138.52 217.7C1137.88 216.811 1136.98 216.366 1135.82 216.366C1134.66 216.366 1133.76 216.811 1133.1 217.7C1132.46 218.57 1132.14 219.759 1132.14 221.267C1132.14 222.794 1132.46 224.003 1133.1 224.892C1133.76 225.781 1134.66 226.226 1135.82 226.226C1136.98 226.226 1137.88 225.781 1138.52 224.892C1139.18 224.003 1139.51 222.794 1139.51 221.267ZM1156.24 221.238C1156.24 222.785 1156.61 224.003 1157.34 224.892C1158.08 225.762 1159.09 226.197 1160.39 226.197C1160.95 226.197 1161.42 226.178 1161.81 226.139C1162.22 226.081 1162.54 226.023 1162.8 225.965V217.265C1162.49 217.052 1162.07 216.859 1161.55 216.685C1161.05 216.492 1160.5 216.395 1159.92 216.395C1158.65 216.395 1157.71 216.83 1157.11 217.7C1156.53 218.57 1156.24 219.749 1156.24 221.238ZM1166.3 228.401C1165.61 228.614 1164.73 228.807 1163.67 228.981C1162.62 229.155 1161.52 229.242 1160.36 229.242C1159.16 229.242 1158.09 229.058 1157.14 228.691C1156.19 228.324 1155.38 227.802 1154.7 227.125C1154.05 226.429 1153.54 225.598 1153.17 224.631C1152.82 223.645 1152.65 222.543 1152.65 221.325C1152.65 220.126 1152.79 219.044 1153.08 218.077C1153.39 217.091 1153.83 216.25 1154.41 215.554C1154.99 214.858 1155.7 214.326 1156.53 213.959C1157.36 213.572 1158.32 213.379 1159.4 213.379C1160.14 213.379 1160.79 213.466 1161.35 213.64C1161.91 213.814 1162.39 214.007 1162.8 214.22V206.941L1166.3 206.361V228.401ZM1176.1 226.4C1177.18 226.4 1178 226.342 1178.56 226.226V222.34C1178.37 222.282 1178.09 222.224 1177.72 222.166C1177.35 222.108 1176.95 222.079 1176.5 222.079C1176.12 222.079 1175.72 222.108 1175.32 222.166C1174.93 222.224 1174.57 222.33 1174.24 222.485C1173.93 222.64 1173.68 222.862 1173.49 223.152C1173.29 223.423 1173.2 223.771 1173.2 224.196C1173.2 225.027 1173.46 225.607 1173.98 225.936C1174.5 226.245 1175.21 226.4 1176.1 226.4ZM1175.81 213.321C1176.97 213.321 1177.94 213.466 1178.74 213.756C1179.53 214.046 1180.16 214.452 1180.62 214.974C1181.11 215.496 1181.44 216.134 1181.64 216.888C1181.85 217.623 1181.96 218.435 1181.96 219.324V228.517C1181.41 228.633 1180.59 228.768 1179.49 228.923C1178.41 229.097 1177.18 229.184 1175.81 229.184C1174.9 229.184 1174.07 229.097 1173.31 228.923C1172.56 228.749 1171.91 228.469 1171.37 228.082C1170.85 227.695 1170.43 227.193 1170.12 226.574C1169.83 225.955 1169.69 225.192 1169.69 224.283C1169.69 223.413 1169.85 222.678 1170.18 222.079C1170.53 221.48 1170.99 220.996 1171.57 220.629C1172.15 220.242 1172.82 219.972 1173.58 219.817C1174.35 219.643 1175.15 219.556 1175.98 219.556C1176.37 219.556 1176.77 219.585 1177.2 219.643C1177.63 219.682 1178.08 219.759 1178.56 219.875V219.295C1178.56 218.889 1178.51 218.502 1178.42 218.135C1178.32 217.768 1178.15 217.449 1177.9 217.178C1177.66 216.888 1177.35 216.666 1176.94 216.511C1176.55 216.356 1176.06 216.279 1175.46 216.279C1174.65 216.279 1173.9 216.337 1173.23 216.453C1172.55 216.569 1172 216.704 1171.57 216.859L1171.14 214.017C1171.58 213.862 1172.23 213.708 1173.08 213.553C1173.93 213.398 1174.84 213.321 1175.81 213.321ZM1194.9 216.859C1194.61 216.762 1194.2 216.666 1193.68 216.569C1193.17 216.453 1192.59 216.395 1191.91 216.395C1191.52 216.395 1191.11 216.434 1190.66 216.511C1190.24 216.588 1189.94 216.656 1189.76 216.714V228.865H1186.25V214.423C1186.93 214.172 1187.77 213.94 1188.78 213.727C1189.8 213.495 1190.93 213.379 1192.17 213.379C1192.4 213.379 1192.67 213.398 1192.98 213.437C1193.29 213.456 1193.6 213.495 1193.91 213.553C1194.22 213.592 1194.52 213.65 1194.81 213.727C1195.1 213.785 1195.33 213.843 1195.5 213.901L1194.9 216.859ZM1201.46 219.614C1201.9 219.15 1202.38 218.657 1202.88 218.135C1203.38 217.594 1203.88 217.062 1204.36 216.54C1204.84 215.999 1205.3 215.486 1205.72 215.003C1206.17 214.5 1206.54 214.065 1206.85 213.698H1211C1210.03 214.781 1209.01 215.902 1207.93 217.062C1206.86 218.222 1205.79 219.353 1204.71 220.455C1205.29 220.938 1205.9 221.528 1206.53 222.224C1207.17 222.901 1207.79 223.626 1208.39 224.399C1208.99 225.172 1209.55 225.946 1210.07 226.719C1210.59 227.492 1211.03 228.208 1211.38 228.865H1207.32C1206.97 228.266 1206.56 227.637 1206.1 226.98C1205.65 226.323 1205.17 225.685 1204.65 225.066C1204.13 224.447 1203.6 223.867 1203.05 223.326C1202.51 222.765 1201.98 222.292 1201.46 221.905V228.865H1197.95V206.941L1201.46 206.361V219.614Z" fill="white"/>
<path d="M236.54 745.747C239.46 745.747 241.693 746.279 243.239 747.342C244.805 748.405 245.588 750.068 245.588 752.33C245.588 753.509 245.376 754.524 244.95 755.375C244.544 756.206 243.945 756.893 243.152 757.434C242.36 757.956 241.393 758.343 240.252 758.594C239.112 758.845 237.807 758.971 236.337 758.971H234.51V766.047H230.856V746.24C231.707 746.047 232.645 745.921 233.669 745.863C234.713 745.786 235.67 745.747 236.54 745.747ZM236.801 748.908C235.873 748.908 235.11 748.937 234.51 748.995V755.839H236.279C238.039 755.839 239.392 755.597 240.339 755.114C241.287 754.611 241.76 753.674 241.76 752.301C241.76 751.644 241.635 751.093 241.383 750.648C241.132 750.203 240.784 749.855 240.339 749.604C239.895 749.353 239.363 749.179 238.744 749.082C238.145 748.966 237.497 748.908 236.801 748.908ZM253.605 763.582C254.688 763.582 255.509 763.524 256.07 763.408V759.522C255.877 759.464 255.596 759.406 255.229 759.348C254.862 759.29 254.456 759.261 254.011 759.261C253.624 759.261 253.228 759.29 252.822 759.348C252.435 759.406 252.078 759.512 251.749 759.667C251.44 759.822 251.188 760.044 250.995 760.334C250.802 760.605 250.705 760.953 250.705 761.378C250.705 762.209 250.966 762.789 251.488 763.118C252.01 763.427 252.716 763.582 253.605 763.582ZM253.315 750.503C254.475 750.503 255.451 750.648 256.244 750.938C257.037 751.228 257.665 751.634 258.129 752.156C258.612 752.678 258.951 753.316 259.144 754.07C259.357 754.805 259.463 755.617 259.463 756.506V765.699C258.922 765.815 258.1 765.95 256.998 766.105C255.915 766.279 254.688 766.366 253.315 766.366C252.406 766.366 251.575 766.279 250.821 766.105C250.067 765.931 249.419 765.651 248.878 765.264C248.356 764.877 247.94 764.375 247.631 763.756C247.341 763.137 247.196 762.374 247.196 761.465C247.196 760.595 247.36 759.86 247.689 759.261C248.037 758.662 248.501 758.178 249.081 757.811C249.661 757.424 250.328 757.154 251.082 756.999C251.855 756.825 252.658 756.738 253.489 756.738C253.876 756.738 254.282 756.767 254.707 756.825C255.132 756.864 255.587 756.941 256.07 757.057V756.477C256.07 756.071 256.022 755.684 255.925 755.317C255.828 754.95 255.654 754.631 255.403 754.36C255.171 754.07 254.852 753.848 254.446 753.693C254.059 753.538 253.566 753.461 252.967 753.461C252.155 753.461 251.411 753.519 250.734 753.635C250.057 753.751 249.506 753.886 249.081 754.041L248.646 751.199C249.091 751.044 249.738 750.89 250.589 750.735C251.44 750.58 252.348 750.503 253.315 750.503ZM269.038 766.337C267.994 766.318 267.124 766.202 266.428 765.989C265.752 765.776 265.21 765.477 264.804 765.09C264.398 764.684 264.108 764.191 263.934 763.611C263.78 763.012 263.702 762.335 263.702 761.581V744.123L267.211 743.543V760.914C267.211 761.339 267.24 761.697 267.298 761.987C267.376 762.277 267.501 762.528 267.675 762.741C267.849 762.934 268.081 763.089 268.371 763.205C268.681 763.302 269.067 763.379 269.531 763.437L269.038 766.337ZM271.529 758.536C271.529 757.202 271.722 756.032 272.109 755.027C272.515 754.022 273.046 753.19 273.704 752.533C274.361 751.856 275.115 751.354 275.966 751.025C276.816 750.677 277.686 750.503 278.576 750.503C280.664 750.503 282.288 751.151 283.448 752.446C284.627 753.741 285.217 755.675 285.217 758.246C285.217 758.439 285.207 758.662 285.188 758.913C285.188 759.145 285.178 759.358 285.159 759.551H275.154C275.25 760.769 275.676 761.716 276.43 762.393C277.203 763.05 278.315 763.379 279.765 763.379C280.615 763.379 281.389 763.302 282.085 763.147C282.8 762.992 283.361 762.828 283.767 762.654L284.231 765.525C284.037 765.622 283.767 765.728 283.419 765.844C283.09 765.941 282.703 766.028 282.259 766.105C281.833 766.202 281.369 766.279 280.867 766.337C280.364 766.395 279.852 766.424 279.33 766.424C277.996 766.424 276.836 766.231 275.85 765.844C274.864 765.438 274.052 764.887 273.414 764.191C272.776 763.476 272.302 762.644 271.993 761.697C271.683 760.73 271.529 759.677 271.529 758.536ZM281.708 756.97C281.708 756.487 281.64 756.032 281.505 755.607C281.369 755.162 281.166 754.785 280.896 754.476C280.644 754.147 280.325 753.896 279.939 753.722C279.571 753.529 279.127 753.432 278.605 753.432C278.063 753.432 277.59 753.538 277.184 753.751C276.778 753.944 276.43 754.205 276.14 754.534C275.869 754.863 275.656 755.24 275.502 755.665C275.347 756.09 275.241 756.525 275.183 756.97H281.708Z" fill="white"/>
</svg>
