<svg width="1512" height="553" viewBox="0 0 1512 553" fill="none" xmlns="http://www.w3.org/2000/svg">
<rect width="1512" height="553" fill="#1B1A27"/>
<rect x="96.2773" y="189.136" width="246" height="246" rx="123" fill="#00D95A"/>
<g clip-path="url(#clip0_4212_184862)">
<path d="M219.291 382.396C207.908 382.396 197.264 380.816 187.358 377.655C177.452 374.494 168.764 370.095 161.282 364.447C153.8 358.799 147.955 352.244 143.747 344.77C139.538 337.296 137.434 329.283 137.434 320.707C137.434 314.899 138.467 308.981 140.535 302.966C142.602 296.95 145.641 291.007 149.641 285.151C149.025 283.423 148.484 281.12 148.017 278.265C147.549 275.41 147.315 272.837 147.315 270.534C147.315 265.008 148.619 260.095 151.228 255.782C153.837 251.47 157.381 248.076 161.848 245.601C166.315 243.114 171.324 241.876 176.873 241.876C181.156 241.876 185.29 242.648 189.29 244.192C193.289 245.736 196.907 247.904 200.156 250.686C203.404 253.479 205.989 256.689 207.921 260.34C209.422 260.487 211.194 260.585 213.212 260.659C215.23 260.732 217.261 260.769 219.279 260.769C221.297 260.769 223.327 260.732 225.345 260.659C227.364 260.585 229.136 260.487 230.637 260.34C232.618 256.689 235.215 253.467 238.439 250.686C241.663 247.904 245.281 245.736 249.305 244.192C253.329 242.648 257.451 241.876 261.684 241.876C267.283 241.876 272.304 243.114 276.746 245.601C281.189 248.088 284.721 251.482 287.329 255.782C289.938 260.095 291.243 265.008 291.243 270.534C291.243 272.825 291.021 275.41 290.578 278.265C290.135 281.12 289.581 283.423 288.917 285.151C292.916 291.007 295.943 296.938 298.023 302.966C300.09 308.981 301.124 314.899 301.124 320.707C301.124 329.283 299.02 337.296 294.811 344.77C290.603 352.244 284.757 358.799 277.275 364.447C269.794 370.095 261.106 374.494 251.2 377.655C241.294 380.816 230.649 382.396 219.267 382.396H219.291ZM219.291 374.665C229.308 374.665 238.759 373.342 247.619 370.696C256.491 368.049 264.306 364.276 271.086 359.387C277.854 354.498 283.17 348.666 287.034 341.891C290.886 335.128 292.818 327.641 292.818 319.445C292.818 314.103 291.882 308.871 290.024 303.737C288.166 298.604 285.028 292.858 280.611 286.486C280.992 285.359 281.336 283.84 281.669 281.916C282.001 279.993 282.272 277.996 282.481 275.913C282.69 273.83 282.801 272.041 282.801 270.534C282.801 266.319 281.902 262.644 280.118 259.507C278.334 256.371 275.86 253.932 272.71 252.205C269.56 250.477 265.893 249.607 261.697 249.607C257.882 249.607 254.215 250.367 250.683 251.886C247.151 253.406 244.075 255.513 241.441 258.208C238.808 260.904 236.876 263.979 235.658 267.447C234.44 267.728 232.237 267.973 229.062 268.182C225.887 268.39 222.626 268.5 219.291 268.5C215.956 268.5 212.695 268.39 209.52 268.182C206.346 267.973 204.143 267.728 202.925 267.447C201.706 263.979 199.774 260.904 197.141 258.208C194.507 255.513 191.443 253.406 187.936 251.886C184.429 250.367 180.75 249.607 176.898 249.607C172.763 249.607 169.096 250.477 165.921 252.205C162.746 253.945 160.261 256.371 158.476 259.507C156.692 262.644 155.794 266.319 155.794 270.534C155.794 272.029 155.904 273.83 156.114 275.913C156.323 277.996 156.606 279.993 156.963 281.916C157.32 283.84 157.652 285.359 157.984 286.486C153.566 292.858 150.428 298.604 148.57 303.737C146.712 308.871 145.789 314.103 145.789 319.445C145.789 327.641 147.721 335.128 151.573 341.891C155.425 348.654 160.741 354.486 167.521 359.387C174.289 364.276 182.116 368.049 190.988 370.696C199.86 373.342 209.299 374.665 219.316 374.665H219.291ZM267.911 312.216C270.311 312.216 272.366 313.184 274.088 315.132C275.799 317.08 276.66 319.285 276.66 321.773C276.66 324.493 275.577 327.176 273.412 329.822C271.246 332.469 268.255 334.968 264.453 337.308C260.638 339.649 256.295 341.719 251.397 343.52C246.499 345.321 241.318 346.743 235.842 347.772C230.366 348.801 224.841 349.316 219.291 349.316C213.741 349.316 208.228 348.801 202.74 347.772C197.264 346.743 192.071 345.321 187.185 343.52C182.288 341.719 177.944 339.649 174.129 337.308C170.315 334.968 167.336 332.469 165.171 329.822C163.005 327.176 161.922 324.493 161.922 321.773C161.922 319.285 162.783 317.08 164.494 315.132C166.204 313.196 168.272 312.216 170.671 312.216C172.369 312.216 174.72 312.669 177.722 313.588C180.737 314.507 184.331 315.549 188.515 316.713C192.699 317.876 197.387 318.93 202.555 319.837C207.736 320.756 213.298 321.209 219.279 321.209C225.259 321.209 230.883 320.756 236.039 319.837C241.195 318.918 245.859 317.876 250.043 316.713C254.227 315.536 257.833 314.495 260.835 313.588C263.838 312.682 266.2 312.216 267.886 312.216H267.911ZM180.417 289.807C177.55 289.807 175.089 288.594 173.046 286.156C171.003 283.717 169.982 280.789 169.982 277.371C169.982 273.952 171.003 271.036 173.046 268.623C175.089 266.209 177.55 265.008 180.417 265.008C183.285 265.008 185.733 266.221 187.751 268.623C189.77 271.036 190.791 273.952 190.791 277.371C190.791 280.789 189.782 283.717 187.751 286.156C185.733 288.594 183.285 289.807 180.417 289.807ZM177.316 330.692C182.915 333.927 189.474 336.549 197.005 338.558C204.536 340.568 211.969 341.584 219.303 341.584C226.638 341.584 234.07 340.58 241.601 338.558C249.132 336.549 255.691 333.927 261.29 330.692C259.272 328.021 256.885 325.779 254.166 323.954C248.431 325.546 242.586 326.772 236.63 327.641C230.674 328.511 224.903 328.94 219.303 328.94C213.704 328.94 207.933 328.511 201.977 327.641C196.021 326.772 190.188 325.546 184.441 323.954C181.709 325.779 179.334 328.034 177.316 330.692ZM200.599 309.263C199.184 309.263 197.978 308.675 196.969 307.511C195.96 306.335 195.455 304.963 195.455 303.37C195.455 301.777 195.96 300.344 196.969 299.192C197.978 298.04 199.196 297.477 200.599 297.477C202.002 297.477 203.22 298.052 204.229 299.192C205.238 300.344 205.743 301.728 205.743 303.37C205.743 305.012 205.238 306.347 204.229 307.511C203.22 308.687 202.002 309.263 200.599 309.263ZM237.996 309.263C236.581 309.263 235.375 308.675 234.366 307.511C233.357 306.335 232.852 304.963 232.852 303.37C232.852 301.777 233.357 300.344 234.366 299.192C235.375 298.04 236.593 297.477 237.996 297.477C239.399 297.477 240.617 298.052 241.626 299.192C242.635 300.344 243.139 301.728 243.139 303.37C243.139 305.012 242.635 306.347 241.626 307.511C240.617 308.687 239.399 309.263 237.996 309.263ZM258.177 289.807C255.31 289.807 252.861 288.594 250.843 286.156C248.825 283.717 247.803 280.789 247.803 277.371C247.803 273.952 248.812 271.036 250.843 268.623C252.861 266.209 255.31 265.008 258.177 265.008C261.045 265.008 263.567 266.221 265.585 268.623C267.603 271.036 268.625 273.952 268.625 277.371C268.625 280.789 267.615 283.717 265.585 286.156C263.567 288.594 261.094 289.807 258.177 289.807Z" fill="#1B1A27"/>
</g>
<rect x="96.2773" y="189.136" width="246" height="246" rx="123" stroke="black" stroke-width="10"/>
<rect width="256" height="11" transform="translate(91.2773 129.287)" fill="white"/>
<path d="M100.897 103.74C100.897 104.22 100.797 104.693 100.597 105.16C100.397 105.613 100.137 106.06 99.8173 106.5C99.5107 106.927 99.1573 107.347 98.7573 107.76C98.3573 108.16 97.9573 108.553 97.5573 108.94C97.344 109.14 97.104 109.38 96.8373 109.66C96.5707 109.94 96.3173 110.22 96.0773 110.5C95.8373 110.78 95.6307 111.053 95.4573 111.32C95.284 111.573 95.1907 111.787 95.1773 111.96H101.337V114H92.5173C92.504 113.893 92.4973 113.767 92.4973 113.62C92.4973 113.46 92.4973 113.34 92.4973 113.26C92.4973 112.62 92.5973 112.033 92.7973 111.5C93.0107 110.953 93.284 110.447 93.6173 109.98C93.9507 109.513 94.324 109.073 94.7373 108.66C95.1507 108.247 95.564 107.84 95.9773 107.44C96.2973 107.133 96.604 106.833 96.8973 106.54C97.1907 106.247 97.444 105.96 97.6573 105.68C97.884 105.387 98.064 105.093 98.1973 104.8C98.3307 104.493 98.3973 104.18 98.3973 103.86C98.3973 103.167 98.1973 102.673 97.7973 102.38C97.3973 102.087 96.9107 101.94 96.3373 101.94C95.964 101.94 95.6173 101.993 95.2973 102.1C94.9773 102.207 94.6907 102.333 94.4373 102.48C94.1973 102.627 93.984 102.78 93.7973 102.94C93.6107 103.087 93.4707 103.207 93.3773 103.3L92.1773 101.6C92.7373 101.067 93.3907 100.64 94.1373 100.32C94.8973 99.9867 95.7107 99.82 96.5773 99.82C98.0573 99.82 99.144 100.173 99.8373 100.88C100.544 101.573 100.897 102.527 100.897 103.74ZM110.305 110.04C110.305 109.6 110.218 109.207 110.045 108.86C109.871 108.513 109.565 108.22 109.125 107.98C108.698 107.74 108.118 107.56 107.385 107.44C106.665 107.32 105.751 107.26 104.645 107.26C104.791 105.98 104.905 104.767 104.985 103.62C105.065 102.46 105.131 101.3 105.185 100.14H112.265V102.18H107.245C107.231 102.407 107.211 102.667 107.185 102.96C107.171 103.24 107.151 103.527 107.125 103.82C107.111 104.113 107.091 104.393 107.065 104.66C107.038 104.927 107.011 105.153 106.985 105.34C108.958 105.447 110.411 105.9 111.345 106.7C112.291 107.487 112.765 108.567 112.765 109.94C112.765 110.567 112.658 111.147 112.445 111.68C112.231 112.213 111.905 112.673 111.465 113.06C111.025 113.447 110.471 113.753 109.805 113.98C109.138 114.193 108.358 114.3 107.465 114.3C107.105 114.3 106.738 114.273 106.365 114.22C105.991 114.167 105.631 114.1 105.285 114.02C104.951 113.953 104.651 113.88 104.385 113.8C104.118 113.72 103.918 113.647 103.785 113.58L104.245 111.54C104.525 111.673 104.925 111.82 105.445 111.98C105.978 112.127 106.625 112.2 107.385 112.2C107.905 112.2 108.351 112.147 108.725 112.04C109.098 111.92 109.398 111.76 109.625 111.56C109.865 111.36 110.038 111.133 110.145 110.88C110.251 110.613 110.305 110.333 110.305 110.04ZM119.652 107.26C119.265 107.26 118.892 107.293 118.532 107.36C118.172 107.427 117.845 107.527 117.552 107.66C117.538 107.767 117.525 107.887 117.512 108.02C117.512 108.14 117.512 108.26 117.512 108.38C117.512 108.913 117.545 109.42 117.612 109.9C117.692 110.367 117.818 110.78 117.992 111.14C118.178 111.487 118.425 111.767 118.732 111.98C119.052 112.18 119.445 112.28 119.912 112.28C120.298 112.28 120.625 112.2 120.892 112.04C121.172 111.88 121.398 111.673 121.572 111.42C121.745 111.167 121.872 110.893 121.952 110.6C122.032 110.293 122.072 110 122.072 109.72C122.072 108.92 121.878 108.313 121.492 107.9C121.105 107.473 120.492 107.26 119.652 107.26ZM119.952 105.34C120.778 105.34 121.478 105.46 122.052 105.7C122.638 105.927 123.112 106.24 123.472 106.64C123.832 107.04 124.092 107.507 124.252 108.04C124.425 108.56 124.512 109.107 124.512 109.68C124.512 110.2 124.418 110.733 124.232 111.28C124.058 111.827 123.778 112.327 123.392 112.78C123.018 113.22 122.545 113.587 121.972 113.88C121.398 114.16 120.718 114.3 119.932 114.3C118.345 114.3 117.132 113.78 116.292 112.74C115.465 111.687 115.052 110.24 115.052 108.4C115.052 107.067 115.245 105.887 115.632 104.86C116.032 103.82 116.592 102.947 117.312 102.24C118.045 101.533 118.925 101 119.952 100.64C120.992 100.267 122.158 100.073 123.452 100.06L123.592 102.06C122.872 102.073 122.198 102.153 121.572 102.3C120.945 102.433 120.385 102.647 119.892 102.94C119.398 103.233 118.972 103.613 118.612 104.08C118.265 104.547 117.998 105.12 117.812 105.8C118.465 105.493 119.178 105.34 119.952 105.34Z" fill="white"/>
<rect width="128" height="11" transform="translate(386.277 129.287)" fill="white"/>
<path d="M388.077 103.02C388.851 102.713 389.624 102.32 390.397 101.84C391.184 101.36 391.877 100.793 392.477 100.14H394.177V114H391.757V103.38C391.397 103.66 390.944 103.933 390.397 104.2C389.851 104.467 389.324 104.687 388.817 104.86L388.077 103.02ZM407.265 103.74C407.265 104.22 407.165 104.693 406.965 105.16C406.765 105.613 406.505 106.06 406.185 106.5C405.878 106.927 405.525 107.347 405.125 107.76C404.725 108.16 404.325 108.553 403.925 108.94C403.711 109.14 403.471 109.38 403.205 109.66C402.938 109.94 402.685 110.22 402.445 110.5C402.205 110.78 401.998 111.053 401.825 111.32C401.651 111.573 401.558 111.787 401.545 111.96H407.705V114H398.885C398.871 113.893 398.865 113.767 398.865 113.62C398.865 113.46 398.865 113.34 398.865 113.26C398.865 112.62 398.965 112.033 399.165 111.5C399.378 110.953 399.651 110.447 399.985 109.98C400.318 109.513 400.691 109.073 401.105 108.66C401.518 108.247 401.931 107.84 402.345 107.44C402.665 107.133 402.971 106.833 403.265 106.54C403.558 106.247 403.811 105.96 404.025 105.68C404.251 105.387 404.431 105.093 404.565 104.8C404.698 104.493 404.765 104.18 404.765 103.86C404.765 103.167 404.565 102.673 404.165 102.38C403.765 102.087 403.278 101.94 402.705 101.94C402.331 101.94 401.985 101.993 401.665 102.1C401.345 102.207 401.058 102.333 400.805 102.48C400.565 102.627 400.351 102.78 400.165 102.94C399.978 103.087 399.838 103.207 399.745 103.3L398.545 101.6C399.105 101.067 399.758 100.64 400.505 100.32C401.265 99.9867 402.078 99.82 402.945 99.82C404.425 99.82 405.511 100.173 406.205 100.88C406.911 101.573 407.265 102.527 407.265 103.74ZM419.412 110.28C419.412 110.853 419.312 111.387 419.112 111.88C418.912 112.373 418.612 112.8 418.212 113.16C417.812 113.52 417.312 113.8 416.712 114C416.125 114.2 415.445 114.3 414.672 114.3C413.765 114.3 413.012 114.173 412.412 113.92C411.812 113.667 411.332 113.347 410.972 112.96C410.612 112.573 410.352 112.16 410.192 111.72C410.045 111.267 409.972 110.84 409.972 110.44C409.972 110.04 410.025 109.673 410.132 109.34C410.252 108.993 410.412 108.68 410.612 108.4C410.812 108.107 411.038 107.84 411.292 107.6C411.545 107.36 411.812 107.147 412.092 106.96C411.478 106.533 411.018 106.073 410.712 105.58C410.418 105.073 410.272 104.46 410.272 103.74C410.272 103.22 410.372 102.727 410.572 102.26C410.785 101.78 411.085 101.36 411.472 101C411.858 100.64 412.325 100.353 412.872 100.14C413.418 99.9267 414.025 99.82 414.692 99.82C415.478 99.82 416.145 99.9333 416.692 100.16C417.252 100.387 417.705 100.68 418.052 101.04C418.412 101.4 418.672 101.8 418.832 102.24C418.992 102.68 419.072 103.107 419.072 103.52C419.072 104.253 418.872 104.907 418.472 105.48C418.072 106.04 417.612 106.487 417.092 106.82C417.878 107.247 418.458 107.74 418.832 108.3C419.218 108.86 419.412 109.52 419.412 110.28ZM412.352 110.4C412.352 110.6 412.392 110.813 412.472 111.04C412.552 111.267 412.685 111.473 412.872 111.66C413.058 111.847 413.298 112.007 413.592 112.14C413.885 112.26 414.252 112.32 414.692 112.32C415.092 112.32 415.438 112.267 415.732 112.16C416.025 112.053 416.265 111.913 416.452 111.74C416.638 111.553 416.778 111.347 416.872 111.12C416.965 110.88 417.012 110.64 417.012 110.4C417.012 110.027 416.938 109.7 416.792 109.42C416.645 109.14 416.432 108.9 416.152 108.7C415.885 108.487 415.565 108.307 415.192 108.16C414.818 108 414.405 107.86 413.952 107.74C413.472 108.047 413.085 108.42 412.792 108.86C412.498 109.287 412.352 109.8 412.352 110.4ZM416.712 103.56C416.712 103.387 416.672 103.2 416.592 103C416.525 102.787 416.405 102.593 416.232 102.42C416.072 102.247 415.865 102.1 415.612 101.98C415.358 101.86 415.052 101.8 414.692 101.8C414.332 101.8 414.018 101.86 413.752 101.98C413.498 102.087 413.292 102.233 413.132 102.42C412.972 102.593 412.852 102.787 412.772 103C412.692 103.2 412.652 103.4 412.652 103.6C412.652 104.107 412.838 104.587 413.212 105.04C413.598 105.493 414.238 105.853 415.132 106.12C415.625 105.813 416.012 105.467 416.292 105.08C416.572 104.68 416.712 104.173 416.712 103.56Z" fill="white"/>
<rect x="388.777" y="250.787" width="123" height="123" rx="61.5" fill="#00D95A"/>
<g clip-path="url(#clip1_4212_184862)">
<path d="M450.284 347.417C444.593 347.417 439.271 346.627 434.318 345.047C429.365 343.466 425.021 341.267 421.28 338.443C417.539 335.619 414.616 332.341 412.512 328.604C410.408 324.867 409.355 320.861 409.355 316.572C409.355 313.669 409.872 310.71 410.906 307.702C411.94 304.694 413.459 301.723 415.459 298.795C415.151 297.931 414.881 296.779 414.647 295.352C414.413 293.924 414.296 292.638 414.296 291.486C414.296 288.723 414.948 286.267 416.253 284.11C417.557 281.954 419.329 280.257 421.563 279.02C423.796 277.776 426.3 277.157 429.075 277.157C431.217 277.157 433.284 277.543 435.284 278.315C437.283 279.087 439.092 280.171 440.717 281.562C442.341 282.959 443.633 284.564 444.599 286.389C445.35 286.463 446.236 286.512 447.245 286.549C448.254 286.585 449.269 286.604 450.278 286.604C451.287 286.604 452.302 286.585 453.311 286.549C454.32 286.512 455.207 286.463 455.957 286.389C456.948 284.564 458.246 282.953 459.858 281.562C461.47 280.171 463.279 279.087 465.291 278.315C467.303 277.543 469.364 277.157 471.481 277.157C474.28 277.157 476.791 277.776 479.012 279.02C481.233 280.263 482.999 281.96 484.303 284.11C485.608 286.267 486.26 288.723 486.26 291.486C486.26 292.632 486.149 293.924 485.928 295.352C485.706 296.779 485.429 297.931 485.097 298.795C487.097 301.723 488.61 304.688 489.65 307.702C490.684 310.71 491.201 313.669 491.201 316.572C491.201 320.861 490.148 324.867 488.044 328.604C485.94 332.341 483.017 335.619 479.276 338.443C475.535 341.267 471.192 343.466 466.239 345.047C461.286 346.627 455.963 347.417 450.272 347.417H450.284ZM450.284 343.552C455.293 343.552 460.018 342.89 464.448 341.567C468.884 340.244 472.791 338.357 476.182 335.913C479.566 333.468 482.224 330.552 484.156 327.165C486.082 323.783 487.048 320.04 487.048 315.942C487.048 313.271 486.58 310.655 485.651 308.088C484.722 305.521 483.153 302.648 480.944 299.462C481.135 298.899 481.307 298.139 481.473 297.177C481.639 296.215 481.775 295.217 481.879 294.176C481.984 293.134 482.039 292.24 482.039 291.486C482.039 289.379 481.59 287.541 480.698 285.973C479.806 284.404 478.569 283.185 476.994 282.322C475.419 281.458 473.585 281.023 471.487 281.023C469.58 281.023 467.746 281.403 465.98 282.162C464.214 282.922 462.676 283.976 461.359 285.323C460.043 286.671 459.077 288.209 458.468 289.942C457.858 290.083 456.757 290.206 455.17 290.31C453.582 290.414 451.952 290.469 450.284 290.469C448.617 290.469 446.986 290.414 445.399 290.31C443.811 290.206 442.71 290.083 442.101 289.942C441.492 288.209 440.526 286.671 439.209 285.323C437.892 283.976 436.36 282.922 434.607 282.162C432.853 281.403 431.014 281.023 429.088 281.023C427.02 281.023 425.187 281.458 423.599 282.322C422.012 283.191 420.769 284.404 419.877 285.973C418.985 287.541 418.535 289.379 418.535 291.486C418.535 292.234 418.591 293.134 418.695 294.176C418.8 295.217 418.942 296.215 419.12 297.177C419.299 298.139 419.465 298.899 419.631 299.462C417.422 302.648 415.853 305.521 414.924 308.088C413.995 310.655 413.533 313.271 413.533 315.942C413.533 320.04 414.499 323.783 416.425 327.165C418.351 330.546 421.009 333.462 424.399 335.913C427.783 338.357 431.696 340.244 436.133 341.567C440.569 342.89 445.288 343.552 450.297 343.552H450.284ZM474.594 312.327C475.794 312.327 476.822 312.811 477.683 313.785C478.538 314.759 478.969 315.862 478.969 317.105C478.969 318.465 478.427 319.807 477.344 321.13C476.262 322.454 474.766 323.703 472.865 324.873C470.958 326.043 468.786 327.079 466.337 327.979C463.888 328.88 461.298 329.59 458.56 330.105C455.822 330.62 453.059 330.877 450.284 330.877C447.509 330.877 444.753 330.62 442.009 330.105C439.271 329.59 436.674 328.88 434.231 327.979C431.783 327.079 429.611 326.043 427.703 324.873C425.796 323.703 424.307 322.454 423.224 321.13C422.141 319.807 421.6 318.465 421.6 317.105C421.6 315.862 422.03 314.759 422.886 313.785C423.741 312.817 424.775 312.327 425.974 312.327C426.823 312.327 427.999 312.554 429.5 313.013C431.007 313.473 432.804 313.993 434.896 314.575C436.988 315.157 439.332 315.684 441.916 316.138C444.507 316.597 447.288 316.824 450.278 316.824C453.268 316.824 456.08 316.597 458.658 316.138C461.236 315.678 463.568 315.157 465.66 314.575C467.752 313.987 469.555 313.467 471.056 313.013C472.558 312.56 473.739 312.327 474.582 312.327H474.594ZM430.847 301.122C429.414 301.122 428.183 300.516 427.162 299.297C426.14 298.078 425.63 296.614 425.63 294.905C425.63 293.195 426.14 291.737 427.162 290.53C428.183 289.324 429.414 288.723 430.847 288.723C432.281 288.723 433.505 289.33 434.514 290.53C435.523 291.737 436.034 293.195 436.034 294.905C436.034 296.614 435.53 298.078 434.514 299.297C433.505 300.516 432.281 301.122 430.847 301.122ZM429.297 321.565C432.096 323.183 435.376 324.494 439.141 325.498C442.907 326.503 446.623 327.011 450.29 327.011C453.958 327.011 457.674 326.509 461.439 325.498C465.205 324.494 468.484 323.183 471.284 321.565C470.275 320.23 469.081 319.109 467.721 318.196C464.854 318.992 461.932 319.605 458.954 320.04C455.976 320.475 453.09 320.689 450.29 320.689C447.491 320.689 444.605 320.475 441.627 320.04C438.649 319.605 435.733 318.992 432.859 318.196C431.493 319.109 430.306 320.236 429.297 321.565ZM440.938 310.851C440.231 310.851 439.628 310.557 439.123 309.975C438.619 309.387 438.366 308.7 438.366 307.904C438.366 307.108 438.619 306.391 439.123 305.815C439.628 305.239 440.237 304.957 440.938 304.957C441.64 304.957 442.249 305.245 442.753 305.815C443.258 306.391 443.51 307.083 443.51 307.904C443.51 308.725 443.258 309.393 442.753 309.975C442.249 310.563 441.64 310.851 440.938 310.851ZM459.637 310.851C458.929 310.851 458.326 310.557 457.821 309.975C457.317 309.387 457.065 308.7 457.065 307.904C457.065 307.108 457.317 306.391 457.821 305.815C458.326 305.239 458.935 304.957 459.637 304.957C460.338 304.957 460.947 305.245 461.452 305.815C461.956 306.391 462.208 307.083 462.208 307.904C462.208 308.725 461.956 309.393 461.452 309.975C460.947 310.563 460.338 310.851 459.637 310.851ZM469.727 301.122C468.294 301.122 467.069 300.516 466.06 299.297C465.051 298.078 464.54 296.614 464.54 294.905C464.54 293.195 465.045 291.737 466.06 290.53C467.069 289.324 468.294 288.723 469.727 288.723C471.161 288.723 472.422 289.33 473.431 290.53C474.44 291.737 474.951 293.195 474.951 294.905C474.951 296.614 474.446 298.078 473.431 299.297C472.422 300.516 471.186 301.122 469.727 301.122Z" fill="#1B1A27"/>
</g>
<rect x="388.777" y="250.787" width="123" height="123" rx="61.5" stroke="black" stroke-width="5"/>
<rect width="64" height="11" transform="translate(553.277 129.287)" fill="white"/>
<path d="M558.917 107.26C558.531 107.26 558.157 107.293 557.797 107.36C557.437 107.427 557.111 107.527 556.817 107.66C556.804 107.767 556.791 107.887 556.777 108.02C556.777 108.14 556.777 108.26 556.777 108.38C556.777 108.913 556.811 109.42 556.877 109.9C556.957 110.367 557.084 110.78 557.257 111.14C557.444 111.487 557.691 111.767 557.997 111.98C558.317 112.18 558.711 112.28 559.177 112.28C559.564 112.28 559.891 112.2 560.157 112.04C560.437 111.88 560.664 111.673 560.837 111.42C561.011 111.167 561.137 110.893 561.217 110.6C561.297 110.293 561.337 110 561.337 109.72C561.337 108.92 561.144 108.313 560.757 107.9C560.371 107.473 559.757 107.26 558.917 107.26ZM559.217 105.34C560.044 105.34 560.744 105.46 561.317 105.7C561.904 105.927 562.377 106.24 562.737 106.64C563.097 107.04 563.357 107.507 563.517 108.04C563.691 108.56 563.777 109.107 563.777 109.68C563.777 110.2 563.684 110.733 563.497 111.28C563.324 111.827 563.044 112.327 562.657 112.78C562.284 113.22 561.811 113.587 561.237 113.88C560.664 114.16 559.984 114.3 559.197 114.3C557.611 114.3 556.397 113.78 555.557 112.74C554.731 111.687 554.317 110.24 554.317 108.4C554.317 107.067 554.511 105.887 554.897 104.86C555.297 103.82 555.857 102.947 556.577 102.24C557.311 101.533 558.191 101 559.217 100.64C560.257 100.267 561.424 100.073 562.717 100.06L562.857 102.06C562.137 102.073 561.464 102.153 560.837 102.3C560.211 102.433 559.651 102.647 559.157 102.94C558.664 103.233 558.237 103.613 557.877 104.08C557.531 104.547 557.264 105.12 557.077 105.8C557.731 105.493 558.444 105.34 559.217 105.34ZM571.385 103.12C571.065 103.507 570.731 103.92 570.385 104.36C570.051 104.8 569.725 105.26 569.405 105.74C569.085 106.22 568.778 106.713 568.485 107.22C568.191 107.713 567.925 108.207 567.685 108.7H571.385V103.12ZM573.745 100.14V108.7H575.305V110.68H573.745V114H571.385V110.68H565.305V108.96C565.571 108.373 565.925 107.7 566.365 106.94C566.818 106.18 567.318 105.4 567.865 104.6C568.411 103.8 568.991 103.013 569.605 102.24C570.218 101.467 570.831 100.767 571.445 100.14H573.745Z" fill="white"/>
<rect x="554.527" y="281.537" width="61.5" height="61.5" rx="30.75" fill="#00D95A"/>
<g clip-path="url(#clip2_4212_184862)">
<path d="M585.281 329.852C582.435 329.852 579.774 329.457 577.297 328.667C574.821 327.877 572.649 326.777 570.779 325.365C568.908 323.953 567.447 322.314 566.395 320.446C565.343 318.577 564.816 316.574 564.816 314.43C564.816 312.978 565.075 311.498 565.592 309.995C566.109 308.491 566.868 307.005 567.868 305.541C567.714 305.109 567.579 304.533 567.462 303.819C567.345 303.106 567.287 302.462 567.287 301.887C567.287 300.505 567.613 299.277 568.265 298.199C568.917 297.121 569.803 296.272 570.92 295.653C572.037 295.032 573.289 294.722 574.676 294.722C575.747 294.722 576.781 294.915 577.78 295.301C578.78 295.687 579.685 296.229 580.497 296.924C581.309 297.623 581.955 298.425 582.438 299.338C582.814 299.375 583.257 299.399 583.761 299.418C584.266 299.436 584.773 299.445 585.278 299.445C585.782 299.445 586.29 299.436 586.794 299.418C587.299 299.399 587.742 299.375 588.117 299.338C588.613 298.425 589.262 297.62 590.068 296.924C590.874 296.229 591.778 295.687 592.784 295.301C593.79 294.915 594.821 294.722 595.879 294.722C597.279 294.722 598.534 295.032 599.645 295.653C600.755 296.275 601.638 297.124 602.29 298.199C602.943 299.277 603.269 300.505 603.269 301.887C603.269 302.459 603.213 303.106 603.103 303.819C602.992 304.533 602.853 305.109 602.687 305.541C603.687 307.005 604.444 308.487 604.964 309.995C605.481 311.498 605.739 312.978 605.739 314.43C605.739 316.574 605.213 318.577 604.161 320.446C603.109 322.314 601.647 323.953 599.777 325.365C597.906 326.777 595.734 327.877 593.258 328.667C590.781 329.457 588.12 329.852 585.275 329.852H585.281ZM585.281 327.919C587.785 327.919 590.148 327.589 592.363 326.927C594.581 326.265 596.534 325.322 598.229 324.1C599.922 322.878 601.251 321.42 602.217 319.726C603.179 318.035 603.662 316.163 603.662 314.114C603.662 312.779 603.429 311.471 602.964 310.187C602.5 308.904 601.715 307.467 600.611 305.875C600.706 305.593 600.792 305.213 600.875 304.732C600.958 304.251 601.026 303.752 601.078 303.231C601.131 302.711 601.158 302.263 601.158 301.887C601.158 300.833 600.934 299.914 600.488 299.13C600.041 298.346 599.423 297.736 598.636 297.304C597.848 296.872 596.931 296.655 595.882 296.655C594.928 296.655 594.012 296.845 593.129 297.225C592.246 297.604 591.477 298.131 590.818 298.805C590.16 299.479 589.677 300.248 589.372 301.115C589.068 301.185 588.517 301.246 587.723 301.299C586.93 301.351 586.115 301.378 585.281 301.378C584.447 301.378 583.632 301.351 582.838 301.299C582.044 301.246 581.494 301.185 581.189 301.115C580.885 300.248 580.402 299.479 579.743 298.805C579.085 298.131 578.319 297.604 577.442 297.225C576.565 296.845 575.645 296.655 574.683 296.655C573.649 296.655 572.732 296.872 571.938 297.304C571.145 297.739 570.523 298.346 570.077 299.13C569.631 299.914 569.406 300.833 569.406 301.887C569.406 302.26 569.434 302.711 569.486 303.231C569.539 303.752 569.61 304.251 569.699 304.732C569.788 305.213 569.871 305.593 569.954 305.875C568.85 307.467 568.065 308.904 567.601 310.187C567.136 311.471 566.905 312.779 566.905 314.114C566.905 316.163 567.388 318.035 568.351 319.726C569.314 321.417 570.643 322.875 572.338 324.1C574.03 325.322 575.987 326.265 578.205 326.927C580.423 327.589 582.783 327.919 585.287 327.919H585.281ZM597.436 312.307C598.036 312.307 598.549 312.549 598.98 313.036C599.408 313.523 599.623 314.074 599.623 314.696C599.623 315.376 599.352 316.047 598.811 316.709C598.269 317.37 597.522 317.995 596.571 318.58C595.618 319.165 594.532 319.683 593.307 320.133C592.083 320.583 590.788 320.939 589.419 321.196C588.05 321.453 586.668 321.582 585.281 321.582C583.893 321.582 582.515 321.453 581.143 321.196C579.774 320.939 578.476 320.583 577.254 320.133C576.03 319.683 574.944 319.165 573.99 318.58C573.037 317.995 572.292 317.37 571.751 316.709C571.209 316.047 570.938 315.376 570.938 314.696C570.938 314.074 571.154 313.523 571.581 313.036C572.009 312.552 572.526 312.307 573.126 312.307C573.55 312.307 574.138 312.42 574.889 312.65C575.642 312.88 576.541 313.14 577.587 313.431C578.633 313.722 579.805 313.986 581.097 314.212C582.392 314.442 583.783 314.555 585.278 314.555C586.773 314.555 588.179 314.442 589.468 314.212C590.757 313.983 591.923 313.722 592.969 313.431C594.015 313.137 594.916 312.877 595.667 312.65C596.417 312.424 597.008 312.307 597.43 312.307H597.436ZM575.562 306.705C574.846 306.705 574.23 306.402 573.72 305.792C573.209 305.182 572.954 304.45 572.954 303.596C572.954 302.741 573.209 302.012 573.72 301.409C574.23 300.805 574.846 300.505 575.562 300.505C576.279 300.505 576.891 300.808 577.396 301.409C577.9 302.012 578.156 302.741 578.156 303.596C578.156 304.45 577.903 305.182 577.396 305.792C576.891 306.402 576.279 306.705 575.562 306.705ZM574.787 316.926C576.187 317.735 577.827 318.39 579.709 318.893C581.592 319.395 583.45 319.649 585.284 319.649C587.117 319.649 588.976 319.398 590.858 318.893C592.741 318.39 594.381 317.735 595.781 316.926C595.276 316.258 594.679 315.698 593.999 315.242C592.566 315.64 591.104 315.946 589.616 316.163C588.127 316.381 586.684 316.488 585.284 316.488C583.884 316.488 582.441 316.381 580.952 316.163C579.463 315.946 578.005 315.64 576.568 315.242C575.885 315.698 575.292 316.262 574.787 316.926ZM580.608 311.569C580.254 311.569 579.952 311.422 579.7 311.131C579.448 310.837 579.322 310.494 579.322 310.096C579.322 309.697 579.448 309.339 579.7 309.051C579.952 308.763 580.257 308.622 580.608 308.622C580.958 308.622 581.263 308.766 581.515 309.051C581.768 309.339 581.894 309.685 581.894 310.096C581.894 310.506 581.768 310.84 581.515 311.131C581.263 311.425 580.958 311.569 580.608 311.569ZM589.957 311.569C589.603 311.569 589.302 311.422 589.049 311.131C588.797 310.837 588.671 310.494 588.671 310.096C588.671 309.697 588.797 309.339 589.049 309.051C589.302 308.763 589.606 308.622 589.957 308.622C590.308 308.622 590.612 308.766 590.864 309.051C591.117 309.339 591.243 309.685 591.243 310.096C591.243 310.506 591.117 310.84 590.864 311.131C590.612 311.425 590.308 311.569 589.957 311.569ZM595.002 306.705C594.286 306.705 593.673 306.402 593.169 305.792C592.664 305.182 592.409 304.45 592.409 303.596C592.409 302.741 592.661 302.012 593.169 301.409C593.673 300.805 594.286 300.505 595.002 300.505C595.719 300.505 596.35 300.808 596.854 301.409C597.359 302.012 597.614 302.741 597.614 303.596C597.614 304.45 597.362 305.182 596.854 305.792C596.35 306.402 595.731 306.705 595.002 306.705Z" fill="#1B1A27"/>
</g>
<rect x="554.527" y="281.537" width="61.5" height="61.5" rx="30.75" stroke="black" stroke-width="2.5"/>
<rect width="40" height="11" transform="translate(656.277 129.287)" fill="white"/>
<path d="M663.017 103.12C662.697 103.507 662.364 103.92 662.017 104.36C661.684 104.8 661.357 105.26 661.037 105.74C660.717 106.22 660.411 106.713 660.117 107.22C659.824 107.713 659.557 108.207 659.317 108.7H663.017V103.12ZM665.377 100.14V108.7H666.937V110.68H665.377V114H663.017V110.68H656.937V108.96C657.204 108.373 657.557 107.7 657.997 106.94C658.451 106.18 658.951 105.4 659.497 104.6C660.044 103.8 660.624 103.013 661.237 102.24C661.851 101.467 662.464 100.767 663.077 100.14H665.377ZM678.145 107.06C678.145 109.393 677.718 111.187 676.865 112.44C676.011 113.68 674.831 114.3 673.325 114.3C671.818 114.3 670.638 113.68 669.785 112.44C668.931 111.187 668.505 109.393 668.505 107.06C668.505 105.9 668.611 104.873 668.825 103.98C669.051 103.073 669.371 102.313 669.785 101.7C670.211 101.087 670.718 100.62 671.305 100.3C671.905 99.98 672.578 99.82 673.325 99.82C674.831 99.82 676.011 100.447 676.865 101.7C677.718 102.94 678.145 104.727 678.145 107.06ZM675.645 107.06C675.645 106.34 675.605 105.667 675.525 105.04C675.445 104.413 675.311 103.873 675.125 103.42C674.951 102.953 674.718 102.587 674.425 102.32C674.131 102.053 673.765 101.92 673.325 101.92C672.885 101.92 672.511 102.053 672.205 102.32C671.911 102.587 671.671 102.953 671.485 103.42C671.311 103.873 671.185 104.413 671.105 105.04C671.038 105.667 671.005 106.34 671.005 107.06C671.005 107.78 671.038 108.453 671.105 109.08C671.185 109.707 671.311 110.253 671.485 110.72C671.671 111.173 671.911 111.533 672.205 111.8C672.511 112.067 672.885 112.2 673.325 112.2C673.765 112.2 674.131 112.067 674.425 111.8C674.718 111.533 674.951 111.173 675.125 110.72C675.311 110.253 675.445 109.707 675.525 109.08C675.605 108.453 675.645 107.78 675.645 107.06Z" fill="white"/>
<rect x="657.277" y="293.287" width="38" height="38" rx="19" fill="#00D95A"/>
<g clip-path="url(#clip3_4212_184862)">
<path d="M676.279 323.265C674.5 323.265 672.837 323.018 671.289 322.524C669.741 322.031 668.384 321.343 667.215 320.461C666.046 319.578 665.132 318.554 664.475 317.386C663.817 316.218 663.488 314.966 663.488 313.626C663.488 312.719 663.65 311.794 663.973 310.854C664.296 309.914 664.771 308.986 665.396 308.071C665.3 307.801 665.215 307.441 665.142 306.995C665.069 306.549 665.032 306.147 665.032 305.787C665.032 304.923 665.236 304.156 665.644 303.482C666.051 302.808 666.605 302.278 667.303 301.891C668.001 301.502 668.784 301.309 669.651 301.309C670.32 301.309 670.966 301.43 671.591 301.671C672.216 301.912 672.781 302.251 673.289 302.686C673.796 303.122 674.2 303.624 674.502 304.194C674.736 304.217 675.013 304.232 675.329 304.244C675.644 304.255 675.961 304.261 676.277 304.261C676.592 304.261 676.909 304.255 677.225 304.244C677.54 304.232 677.817 304.217 678.051 304.194C678.361 303.624 678.767 303.12 679.27 302.686C679.774 302.251 680.339 301.912 680.968 301.671C681.597 301.43 682.241 301.309 682.902 301.309C683.777 301.309 684.562 301.502 685.256 301.891C685.95 302.28 686.502 302.81 686.91 303.482C687.317 304.156 687.521 304.923 687.521 305.787C687.521 306.145 687.486 306.549 687.417 306.995C687.348 307.441 687.261 307.801 687.158 308.071C687.782 308.986 688.255 309.912 688.58 310.854C688.903 311.794 689.065 312.719 689.065 313.626C689.065 314.966 688.736 316.218 688.079 317.386C687.421 318.554 686.508 319.578 685.339 320.461C684.17 321.343 682.812 322.031 681.264 322.524C679.716 323.018 678.053 323.265 676.275 323.265H676.279ZM676.279 322.057C677.844 322.057 679.32 321.851 680.705 321.437C682.091 321.024 683.312 320.434 684.371 319.67C685.429 318.906 686.26 317.995 686.863 316.936C687.465 315.88 687.767 314.71 687.767 313.429C687.767 312.594 687.621 311.777 687.331 310.975C687.04 310.173 686.55 309.275 685.86 308.279C685.919 308.103 685.973 307.866 686.025 307.565C686.077 307.265 686.119 306.953 686.152 306.627C686.185 306.302 686.202 306.022 686.202 305.787C686.202 305.128 686.062 304.554 685.783 304.064C685.504 303.574 685.117 303.193 684.625 302.923C684.133 302.653 683.56 302.517 682.904 302.517C682.308 302.517 681.735 302.636 681.184 302.873C680.632 303.111 680.151 303.44 679.74 303.861C679.328 304.282 679.026 304.763 678.836 305.304C678.645 305.348 678.301 305.387 677.805 305.419C677.309 305.452 676.8 305.469 676.279 305.469C675.757 305.469 675.248 305.452 674.752 305.419C674.256 305.387 673.912 305.348 673.721 305.304C673.531 304.763 673.229 304.282 672.818 303.861C672.406 303.44 671.927 303.111 671.379 302.873C670.831 302.636 670.256 302.517 669.655 302.517C669.009 302.517 668.436 302.653 667.939 302.923C667.443 303.195 667.055 303.574 666.776 304.064C666.497 304.554 666.357 305.128 666.357 305.787C666.357 306.02 666.374 306.302 666.407 306.627C666.44 306.953 666.484 307.265 666.54 307.565C666.595 307.866 666.647 308.103 666.699 308.279C666.009 309.275 665.519 310.173 665.228 310.975C664.938 311.777 664.794 312.594 664.794 313.429C664.794 314.71 665.096 315.88 665.698 316.936C666.299 317.993 667.13 318.904 668.189 319.67C669.247 320.434 670.47 321.024 671.856 321.437C673.242 321.851 674.717 322.057 676.282 322.057H676.279ZM683.875 312.3C684.25 312.3 684.571 312.451 684.841 312.755C685.108 313.06 685.242 313.404 685.242 313.793C685.242 314.218 685.073 314.637 684.735 315.051C684.396 315.464 683.929 315.855 683.335 316.22C682.739 316.586 682.06 316.91 681.295 317.191C680.53 317.472 679.72 317.694 678.865 317.855C678.009 318.016 677.146 318.096 676.279 318.096C675.411 318.096 674.55 318.016 673.692 317.855C672.837 317.694 672.025 317.472 671.262 317.191C670.497 316.91 669.818 316.586 669.222 316.22C668.626 315.855 668.161 315.464 667.822 315.051C667.484 314.637 667.315 314.218 667.315 313.793C667.315 313.404 667.449 313.06 667.716 312.755C667.984 312.453 668.307 312.3 668.682 312.3C668.947 312.3 669.314 312.371 669.783 312.514C670.254 312.658 670.816 312.82 671.47 313.002C672.123 313.184 672.856 313.349 673.664 313.49C674.473 313.634 675.342 313.705 676.277 313.705C677.211 313.705 678.09 313.634 678.895 313.49C679.701 313.347 680.43 313.184 681.084 313.002C681.737 312.818 682.301 312.656 682.77 312.514C683.239 312.372 683.608 312.3 683.872 312.3H683.875ZM670.204 308.798C669.756 308.798 669.372 308.609 669.053 308.228C668.734 307.847 668.574 307.389 668.574 306.855C668.574 306.321 668.734 305.865 669.053 305.488C669.372 305.111 669.756 304.923 670.204 304.923C670.652 304.923 671.035 305.113 671.35 305.488C671.666 305.865 671.825 306.321 671.825 306.855C671.825 307.389 671.668 307.847 671.35 308.228C671.035 308.609 670.652 308.798 670.204 308.798ZM669.72 315.187C670.595 315.692 671.62 316.102 672.796 316.416C673.973 316.73 675.134 316.888 676.28 316.888C677.426 316.888 678.588 316.732 679.764 316.416C680.941 316.102 681.966 315.692 682.841 315.187C682.526 314.769 682.153 314.419 681.728 314.134C680.832 314.383 679.918 314.574 678.988 314.71C678.057 314.846 677.155 314.913 676.28 314.913C675.406 314.913 674.504 314.846 673.573 314.71C672.643 314.574 671.731 314.383 670.833 314.134C670.406 314.419 670.035 314.771 669.72 315.187ZM673.358 311.838C673.137 311.838 672.948 311.746 672.791 311.565C672.633 311.381 672.554 311.166 672.554 310.917C672.554 310.669 672.633 310.445 672.791 310.265C672.948 310.085 673.139 309.997 673.358 309.997C673.577 309.997 673.767 310.087 673.925 310.265C674.083 310.445 674.162 310.661 674.162 310.917C674.162 311.174 674.083 311.383 673.925 311.565C673.767 311.748 673.577 311.838 673.358 311.838ZM679.201 311.838C678.98 311.838 678.792 311.746 678.634 311.565C678.476 311.381 678.397 311.166 678.397 310.917C678.397 310.669 678.476 310.445 678.634 310.265C678.792 310.085 678.982 309.997 679.201 309.997C679.42 309.997 679.611 310.087 679.768 310.265C679.926 310.445 680.005 310.661 680.005 310.917C680.005 311.174 679.926 311.383 679.768 311.565C679.611 311.748 679.42 311.838 679.201 311.838ZM682.354 308.798C681.906 308.798 681.524 308.609 681.208 308.228C680.893 307.847 680.734 307.389 680.734 306.855C680.734 306.321 680.891 305.865 681.208 305.488C681.524 305.111 681.906 304.923 682.354 304.923C682.802 304.923 683.197 305.113 683.512 305.488C683.827 305.865 683.987 306.321 683.987 306.855C683.987 307.389 683.829 307.847 683.512 308.228C683.197 308.609 682.81 308.798 682.354 308.798Z" fill="#1B1A27"/>
</g>
<rect x="657.277" y="293.287" width="38" height="38" rx="19" stroke="black" stroke-width="2"/>
<rect x="736.027" y="295.037" width="34.5" height="34.5" rx="17.25" fill="#00D95A"/>
<g clip-path="url(#clip4_4212_184862)">
<path d="M753.281 322.167C751.68 322.167 750.183 321.945 748.79 321.501C747.397 321.056 746.175 320.438 745.123 319.643C744.071 318.849 743.249 317.927 742.657 316.876C742.065 315.825 741.77 314.698 741.77 313.492C741.77 312.676 741.915 311.843 742.206 310.997C742.496 310.151 742.924 309.316 743.486 308.492C743.4 308.249 743.324 307.925 743.258 307.524C743.192 307.122 743.159 306.761 743.159 306.437C743.159 305.66 743.343 304.969 743.709 304.362C744.076 303.756 744.575 303.279 745.203 302.931C745.831 302.581 746.535 302.407 747.316 302.407C747.918 302.407 748.499 302.515 749.062 302.732C749.624 302.949 750.133 303.254 750.59 303.646C751.047 304.038 751.41 304.49 751.682 305.003C751.893 305.024 752.142 305.038 752.426 305.048C752.71 305.058 752.995 305.064 753.279 305.064C753.563 305.064 753.848 305.058 754.132 305.048C754.416 305.038 754.665 305.024 754.876 305.003C755.155 304.49 755.52 304.037 755.973 303.646C756.427 303.254 756.936 302.949 757.501 302.732C758.067 302.515 758.647 302.407 759.242 302.407C760.03 302.407 760.736 302.581 761.36 302.931C761.985 303.28 762.482 303.758 762.849 304.362C763.215 304.969 763.399 305.66 763.399 306.437C763.399 306.759 763.368 307.122 763.305 307.524C763.243 307.925 763.165 308.249 763.072 308.492C763.634 309.316 764.06 310.15 764.352 310.997C764.643 311.843 764.789 312.676 764.789 313.492C764.789 314.698 764.493 315.825 763.901 316.876C763.309 317.927 762.487 318.849 761.435 319.643C760.383 320.438 759.161 321.056 757.768 321.501C756.375 321.945 754.878 322.167 753.277 322.167H753.281ZM753.281 321.08C754.689 321.08 756.018 320.894 757.264 320.522C758.512 320.15 759.611 319.619 760.564 318.932C761.516 318.244 762.264 317.424 762.807 316.471C763.349 315.52 763.62 314.467 763.62 313.315C763.62 312.564 763.489 311.828 763.228 311.106C762.966 310.384 762.525 309.576 761.904 308.68C761.957 308.522 762.006 308.308 762.053 308.037C762.099 307.767 762.137 307.486 762.167 307.193C762.196 306.9 762.212 306.649 762.212 306.437C762.212 305.844 762.085 305.327 761.835 304.886C761.584 304.445 761.236 304.102 760.793 303.859C760.35 303.616 759.834 303.494 759.244 303.494C758.708 303.494 758.192 303.601 757.695 303.814C757.199 304.028 756.766 304.324 756.396 304.703C756.025 305.082 755.754 305.515 755.582 306.003C755.411 306.042 755.101 306.077 754.655 306.106C754.208 306.135 753.75 306.151 753.281 306.151C752.812 306.151 752.353 306.135 751.907 306.106C751.46 306.077 751.151 306.042 750.979 306.003C750.808 305.515 750.536 305.082 750.166 304.703C749.796 304.324 749.365 304.028 748.871 303.814C748.378 303.601 747.861 303.494 747.319 303.494C746.738 303.494 746.222 303.616 745.776 303.859C745.329 304.104 744.98 304.445 744.729 304.886C744.478 305.327 744.351 305.844 744.351 306.437C744.351 306.647 744.367 306.9 744.396 307.193C744.426 307.486 744.466 307.767 744.516 308.037C744.566 308.308 744.613 308.522 744.659 308.68C744.038 309.576 743.597 310.384 743.336 311.106C743.074 311.828 742.945 312.564 742.945 313.315C742.945 314.467 743.216 315.52 743.758 316.471C744.3 317.422 745.047 318.242 746.001 318.932C746.952 319.619 748.053 320.15 749.301 320.522C750.548 320.894 751.876 321.08 753.284 321.08H753.281ZM760.118 312.298C760.455 312.298 760.744 312.434 760.987 312.708C761.227 312.982 761.348 313.292 761.348 313.642C761.348 314.025 761.196 314.402 760.891 314.774C760.587 315.146 760.166 315.498 759.632 315.827C759.095 316.156 758.484 316.447 757.796 316.7C757.107 316.954 756.378 317.154 755.608 317.298C754.838 317.443 754.061 317.515 753.281 317.515C752.5 317.515 751.725 317.443 750.953 317.298C750.183 317.154 749.453 316.954 748.766 316.7C748.077 316.447 747.466 316.156 746.93 315.827C746.393 315.498 745.975 315.146 745.67 314.774C745.365 314.402 745.213 314.025 745.213 313.642C745.213 313.292 745.334 312.982 745.575 312.708C745.815 312.436 746.106 312.298 746.444 312.298C746.682 312.298 747.013 312.362 747.435 312.491C747.859 312.62 748.364 312.767 748.953 312.931C749.541 313.094 750.2 313.242 750.927 313.37C751.656 313.499 752.438 313.563 753.279 313.563C754.12 313.563 754.911 313.499 755.636 313.37C756.361 313.241 757.017 313.094 757.605 312.931C758.194 312.765 758.701 312.619 759.123 312.491C759.545 312.364 759.877 312.298 760.114 312.298H760.118ZM747.814 309.147C747.411 309.147 747.065 308.976 746.778 308.634C746.49 308.291 746.347 307.879 746.347 307.398C746.347 306.917 746.49 306.507 746.778 306.168C747.065 305.829 747.411 305.66 747.814 305.66C748.217 305.66 748.562 305.83 748.845 306.168C749.129 306.507 749.273 306.917 749.273 307.398C749.273 307.879 749.131 308.291 748.845 308.634C748.562 308.976 748.217 309.147 747.814 309.147ZM747.378 314.896C748.165 315.351 749.088 315.72 750.147 316.003C751.206 316.285 752.251 316.428 753.282 316.428C754.314 316.428 755.359 316.287 756.418 316.003C757.477 315.72 758.4 315.351 759.187 314.896C758.903 314.521 758.567 314.206 758.185 313.949C757.379 314.173 756.557 314.345 755.719 314.467C754.881 314.59 754.07 314.65 753.282 314.65C752.495 314.65 751.683 314.59 750.846 314.467C750.008 314.345 749.188 314.173 748.38 313.949C747.996 314.206 747.662 314.523 747.378 314.896ZM750.652 311.883C750.453 311.883 750.284 311.8 750.142 311.637C750 311.471 749.929 311.278 749.929 311.054C749.929 310.83 750 310.629 750.142 310.467C750.284 310.305 750.455 310.226 750.652 310.226C750.849 310.226 751.021 310.307 751.163 310.467C751.305 310.629 751.375 310.823 751.375 311.054C751.375 311.285 751.305 311.473 751.163 311.637C751.021 311.802 750.849 311.883 750.652 311.883ZM755.911 311.883C755.712 311.883 755.542 311.8 755.401 311.637C755.259 311.471 755.188 311.278 755.188 311.054C755.188 310.83 755.259 310.629 755.401 310.467C755.542 310.305 755.714 310.226 755.911 310.226C756.108 310.226 756.28 310.307 756.422 310.467C756.563 310.629 756.634 310.823 756.634 311.054C756.634 311.285 756.563 311.473 756.422 311.637C756.28 311.802 756.108 311.883 755.911 311.883ZM758.749 309.147C758.346 309.147 758.002 308.976 757.718 308.634C757.434 308.291 757.29 307.879 757.29 307.398C757.29 306.917 757.432 306.507 757.718 306.168C758.002 305.829 758.346 305.66 758.749 305.66C759.152 305.66 759.507 305.83 759.791 306.168C760.075 306.507 760.218 306.917 760.218 307.398C760.218 307.879 760.076 308.291 759.791 308.634C759.507 308.976 759.159 309.147 758.749 309.147Z" fill="#1B1A27"/>
</g>
<rect x="736.027" y="295.037" width="34.5" height="34.5" rx="17.25" stroke="black" stroke-width="1.5"/>
<rect width="36" height="11" transform="translate(735.277 129.287)" fill="white"/>
<path d="M739.997 114.3C739.637 114.3 739.264 114.273 738.877 114.22C738.504 114.18 738.144 114.12 737.797 114.04C737.464 113.973 737.157 113.9 736.877 113.82C736.597 113.727 736.384 113.64 736.237 113.56L736.717 111.5C736.997 111.633 737.404 111.787 737.937 111.96C738.471 112.12 739.131 112.2 739.917 112.2C740.971 112.2 741.731 112 742.197 111.6C742.664 111.187 742.897 110.64 742.897 109.96C742.897 109.52 742.804 109.153 742.617 108.86C742.444 108.567 742.197 108.333 741.877 108.16C741.571 107.973 741.211 107.847 740.797 107.78C740.397 107.7 739.971 107.66 739.517 107.66H738.697V105.7H739.697C740.004 105.7 740.311 105.673 740.617 105.62C740.937 105.553 741.224 105.447 741.477 105.3C741.731 105.14 741.937 104.933 742.097 104.68C742.257 104.427 742.337 104.1 742.337 103.7C742.337 103.38 742.277 103.107 742.157 102.88C742.037 102.653 741.877 102.467 741.677 102.32C741.491 102.173 741.271 102.067 741.017 102C740.764 101.933 740.497 101.9 740.217 101.9C739.617 101.9 739.084 101.993 738.617 102.18C738.151 102.353 737.737 102.553 737.377 102.78L736.497 100.98C736.684 100.86 736.911 100.733 737.177 100.6C737.444 100.467 737.737 100.34 738.057 100.22C738.391 100.1 738.744 100.007 739.117 99.94C739.491 99.86 739.884 99.82 740.297 99.82C741.071 99.82 741.737 99.9133 742.297 100.1C742.857 100.287 743.317 100.553 743.677 100.9C744.051 101.233 744.324 101.633 744.497 102.1C744.684 102.553 744.777 103.053 744.777 103.6C744.777 104.24 744.597 104.813 744.237 105.32C743.891 105.827 743.437 106.213 742.877 106.48C743.597 106.733 744.191 107.153 744.657 107.74C745.137 108.327 745.377 109.08 745.377 110C745.377 110.613 745.271 111.187 745.057 111.72C744.844 112.24 744.517 112.693 744.077 113.08C743.637 113.453 743.077 113.753 742.397 113.98C741.731 114.193 740.931 114.3 739.997 114.3ZM752.285 107.26C751.898 107.26 751.525 107.293 751.165 107.36C750.805 107.427 750.478 107.527 750.185 107.66C750.171 107.767 750.158 107.887 750.145 108.02C750.145 108.14 750.145 108.26 750.145 108.38C750.145 108.913 750.178 109.42 750.245 109.9C750.325 110.367 750.451 110.78 750.625 111.14C750.811 111.487 751.058 111.767 751.365 111.98C751.685 112.18 752.078 112.28 752.545 112.28C752.931 112.28 753.258 112.2 753.525 112.04C753.805 111.88 754.031 111.673 754.205 111.42C754.378 111.167 754.505 110.893 754.585 110.6C754.665 110.293 754.705 110 754.705 109.72C754.705 108.92 754.511 108.313 754.125 107.9C753.738 107.473 753.125 107.26 752.285 107.26ZM752.585 105.34C753.411 105.34 754.111 105.46 754.685 105.7C755.271 105.927 755.745 106.24 756.105 106.64C756.465 107.04 756.725 107.507 756.885 108.04C757.058 108.56 757.145 109.107 757.145 109.68C757.145 110.2 757.051 110.733 756.865 111.28C756.691 111.827 756.411 112.327 756.025 112.78C755.651 113.22 755.178 113.587 754.605 113.88C754.031 114.16 753.351 114.3 752.565 114.3C750.978 114.3 749.765 113.78 748.925 112.74C748.098 111.687 747.685 110.24 747.685 108.4C747.685 107.067 747.878 105.887 748.265 104.86C748.665 103.82 749.225 102.947 749.945 102.24C750.678 101.533 751.558 101 752.585 100.64C753.625 100.267 754.791 100.073 756.085 100.06L756.225 102.06C755.505 102.073 754.831 102.153 754.205 102.3C753.578 102.433 753.018 102.647 752.525 102.94C752.031 103.233 751.605 103.613 751.245 104.08C750.898 104.547 750.631 105.12 750.445 105.8C751.098 105.493 751.811 105.34 752.585 105.34Z" fill="white"/>
<rect width="32" height="11" transform="translate(805.777 129.287)" fill="white"/>
<path d="M810.497 114.3C810.137 114.3 809.764 114.273 809.377 114.22C809.004 114.18 808.644 114.12 808.297 114.04C807.964 113.973 807.657 113.9 807.377 113.82C807.097 113.727 806.884 113.64 806.737 113.56L807.217 111.5C807.497 111.633 807.904 111.787 808.437 111.96C808.971 112.12 809.631 112.2 810.417 112.2C811.471 112.2 812.231 112 812.697 111.6C813.164 111.187 813.397 110.64 813.397 109.96C813.397 109.52 813.304 109.153 813.117 108.86C812.944 108.567 812.697 108.333 812.377 108.16C812.071 107.973 811.711 107.847 811.297 107.78C810.897 107.7 810.471 107.66 810.017 107.66H809.197V105.7H810.197C810.504 105.7 810.811 105.673 811.117 105.62C811.437 105.553 811.724 105.447 811.977 105.3C812.231 105.14 812.437 104.933 812.597 104.68C812.757 104.427 812.837 104.1 812.837 103.7C812.837 103.38 812.777 103.107 812.657 102.88C812.537 102.653 812.377 102.467 812.177 102.32C811.991 102.173 811.771 102.067 811.517 102C811.264 101.933 810.997 101.9 810.717 101.9C810.117 101.9 809.584 101.993 809.117 102.18C808.651 102.353 808.237 102.553 807.877 102.78L806.997 100.98C807.184 100.86 807.411 100.733 807.677 100.6C807.944 100.467 808.237 100.34 808.557 100.22C808.891 100.1 809.244 100.007 809.617 99.94C809.991 99.86 810.384 99.82 810.797 99.82C811.571 99.82 812.237 99.9133 812.797 100.1C813.357 100.287 813.817 100.553 814.177 100.9C814.551 101.233 814.824 101.633 814.997 102.1C815.184 102.553 815.277 103.053 815.277 103.6C815.277 104.24 815.097 104.813 814.737 105.32C814.391 105.827 813.937 106.213 813.377 106.48C814.097 106.733 814.691 107.153 815.157 107.74C815.637 108.327 815.877 109.08 815.877 110C815.877 110.613 815.771 111.187 815.557 111.72C815.344 112.24 815.017 112.693 814.577 113.08C814.137 113.453 813.577 113.753 812.897 113.98C812.231 114.193 811.431 114.3 810.497 114.3ZM826.765 103.74C826.765 104.22 826.665 104.693 826.465 105.16C826.265 105.613 826.005 106.06 825.685 106.5C825.378 106.927 825.025 107.347 824.625 107.76C824.225 108.16 823.825 108.553 823.425 108.94C823.211 109.14 822.971 109.38 822.705 109.66C822.438 109.94 822.185 110.22 821.945 110.5C821.705 110.78 821.498 111.053 821.325 111.32C821.151 111.573 821.058 111.787 821.045 111.96H827.205V114H818.385C818.371 113.893 818.365 113.767 818.365 113.62C818.365 113.46 818.365 113.34 818.365 113.26C818.365 112.62 818.465 112.033 818.665 111.5C818.878 110.953 819.151 110.447 819.485 109.98C819.818 109.513 820.191 109.073 820.605 108.66C821.018 108.247 821.431 107.84 821.845 107.44C822.165 107.133 822.471 106.833 822.765 106.54C823.058 106.247 823.311 105.96 823.525 105.68C823.751 105.387 823.931 105.093 824.065 104.8C824.198 104.493 824.265 104.18 824.265 103.86C824.265 103.167 824.065 102.673 823.665 102.38C823.265 102.087 822.778 101.94 822.205 101.94C821.831 101.94 821.485 101.993 821.165 102.1C820.845 102.207 820.558 102.333 820.305 102.48C820.065 102.627 819.851 102.78 819.665 102.94C819.478 103.087 819.338 103.207 819.245 103.3L818.045 101.6C818.605 101.067 819.258 100.64 820.005 100.32C820.765 99.9867 821.578 99.82 822.445 99.82C823.925 99.82 825.011 100.173 825.705 100.88C826.411 101.573 826.765 102.527 826.765 103.74Z" fill="white"/>
<rect x="806.277" y="296.787" width="31" height="31" rx="15.5" fill="#00D95A"/>
<g clip-path="url(#clip5_4212_184862)">
<path d="M821.779 321.069C820.356 321.069 819.026 320.872 817.787 320.477C816.549 320.082 815.463 319.532 814.528 318.826C813.593 318.12 812.862 317.3 812.336 316.366C811.81 315.432 811.547 314.43 811.547 313.358C811.547 312.632 811.676 311.893 811.935 311.141C812.193 310.389 812.573 309.646 813.073 308.914C812.996 308.698 812.928 308.41 812.87 308.053C812.811 307.696 812.782 307.375 812.782 307.087C812.782 306.396 812.945 305.782 813.271 305.243C813.597 304.704 814.04 304.279 814.599 303.97C815.157 303.659 815.783 303.504 816.477 303.504C817.012 303.504 817.529 303.601 818.029 303.794C818.529 303.987 818.981 304.258 819.387 304.606C819.793 304.955 820.116 305.356 820.358 305.812C820.545 305.831 820.767 305.843 821.019 305.852C821.271 305.861 821.525 305.866 821.778 305.866C822.03 305.866 822.284 305.861 822.536 305.852C822.788 305.843 823.01 305.831 823.197 305.812C823.445 305.356 823.77 304.953 824.173 304.606C824.576 304.258 825.028 303.987 825.531 303.794C826.034 303.601 826.549 303.504 827.078 303.504C827.778 303.504 828.406 303.659 828.961 303.97C829.516 304.281 829.958 304.705 830.284 305.243C830.61 305.782 830.773 306.396 830.773 307.087C830.773 307.373 830.745 307.696 830.69 308.053C830.635 308.41 830.565 308.698 830.482 308.914C830.982 309.646 831.361 310.387 831.621 311.141C831.879 311.893 832.008 312.632 832.008 313.358C832.008 314.43 831.745 315.432 831.219 316.366C830.693 317.3 829.962 318.12 829.027 318.826C828.092 319.532 827.006 320.082 825.768 320.477C824.529 320.872 823.199 321.069 821.776 321.069H821.779ZM821.779 320.103C823.031 320.103 824.213 319.938 825.32 319.607C826.429 319.276 827.406 318.804 828.253 318.193C829.099 317.582 829.764 316.853 830.247 316.006C830.728 315.161 830.97 314.225 830.97 313.2C830.97 312.533 830.853 311.879 830.621 311.237C830.388 310.595 829.996 309.877 829.444 309.081C829.492 308.94 829.535 308.75 829.576 308.509C829.618 308.269 829.652 308.019 829.678 307.759C829.704 307.499 829.718 307.275 829.718 307.087C829.718 306.56 829.605 306.1 829.382 305.708C829.159 305.316 828.85 305.011 828.456 304.795C828.063 304.58 827.604 304.471 827.08 304.471C826.603 304.471 826.145 304.566 825.703 304.756C825.262 304.946 824.877 305.209 824.548 305.546C824.219 305.883 823.977 306.267 823.825 306.701C823.673 306.736 823.397 306.767 823 306.793C822.604 306.819 822.196 306.832 821.779 306.832C821.362 306.832 820.955 306.819 820.558 306.793C820.161 306.767 819.886 306.736 819.733 306.701C819.581 306.267 819.339 305.883 819.01 305.546C818.681 305.209 818.298 304.946 817.86 304.756C817.421 304.566 816.961 304.471 816.48 304.471C815.963 304.471 815.505 304.58 815.108 304.795C814.711 305.013 814.4 305.316 814.177 305.708C813.954 306.1 813.842 306.56 813.842 307.087C813.842 307.273 813.856 307.499 813.882 307.759C813.908 308.019 813.943 308.269 813.988 308.509C814.033 308.75 814.074 308.94 814.116 309.081C813.563 309.877 813.171 310.595 812.939 311.237C812.707 311.879 812.591 312.533 812.591 313.2C812.591 314.225 812.833 315.161 813.314 316.006C813.796 316.852 814.46 317.581 815.308 318.193C816.154 318.804 817.132 319.276 818.241 319.607C819.35 319.938 820.53 320.103 821.782 320.103H821.779ZM827.857 312.297C828.157 312.297 828.413 312.418 828.629 312.661C828.843 312.905 828.95 313.181 828.95 313.491C828.95 313.831 828.815 314.167 828.544 314.498C828.273 314.828 827.9 315.141 827.424 315.433C826.947 315.726 826.404 315.985 825.792 316.21C825.18 316.435 824.532 316.613 823.848 316.741C823.163 316.87 822.473 316.934 821.779 316.934C821.085 316.934 820.396 316.87 819.71 316.741C819.026 316.613 818.377 316.435 817.766 316.21C817.154 315.985 816.611 315.726 816.134 315.433C815.657 315.141 815.285 314.828 815.014 314.498C814.743 314.167 814.608 313.831 814.608 313.491C814.608 313.181 814.716 312.905 814.929 312.661C815.143 312.419 815.402 312.297 815.702 312.297C815.914 312.297 816.208 312.354 816.583 312.468C816.96 312.583 817.409 312.713 817.932 312.859C818.455 313.004 819.041 313.136 819.687 313.249C820.335 313.364 821.03 313.421 821.778 313.421C822.525 313.421 823.228 313.364 823.873 313.249C824.517 313.135 825.1 313.004 825.623 312.859C826.146 312.712 826.597 312.582 826.972 312.468C827.347 312.355 827.643 312.297 827.853 312.297H827.857ZM816.92 309.496C816.561 309.496 816.254 309.344 815.998 309.039C815.743 308.735 815.615 308.369 815.615 307.941C815.615 307.514 815.743 307.149 815.998 306.848C816.254 306.546 816.561 306.396 816.92 306.396C817.278 306.396 817.584 306.548 817.837 306.848C818.089 307.149 818.217 307.514 818.217 307.941C818.217 308.369 818.09 308.735 817.837 309.039C817.584 309.344 817.278 309.496 816.92 309.496ZM816.532 314.606C817.232 315.011 818.052 315.338 818.993 315.59C819.935 315.841 820.864 315.968 821.781 315.968C822.697 315.968 823.626 315.842 824.568 315.59C825.509 315.338 826.329 315.011 827.029 314.606C826.777 314.273 826.478 313.992 826.138 313.764C825.422 313.963 824.691 314.116 823.946 314.225C823.202 314.334 822.48 314.387 821.781 314.387C821.081 314.387 820.359 314.334 819.615 314.225C818.87 314.116 818.141 313.963 817.423 313.764C817.081 313.992 816.784 314.274 816.532 314.606ZM819.443 311.928C819.266 311.928 819.115 311.854 818.989 311.709C818.863 311.562 818.8 311.39 818.8 311.191C818.8 310.992 818.863 310.813 818.989 310.669C819.115 310.525 819.267 310.454 819.443 310.454C819.618 310.454 819.77 310.526 819.896 310.669C820.022 310.813 820.085 310.986 820.085 311.191C820.085 311.396 820.022 311.563 819.896 311.709C819.77 311.856 819.618 311.928 819.443 311.928ZM824.117 311.928C823.94 311.928 823.79 311.854 823.663 311.709C823.537 311.562 823.474 311.39 823.474 311.191C823.474 310.992 823.537 310.813 823.663 310.669C823.79 310.525 823.942 310.454 824.117 310.454C824.293 310.454 824.445 310.526 824.571 310.669C824.697 310.813 824.76 310.986 824.76 311.191C824.76 311.396 824.697 311.563 824.571 311.709C824.445 311.856 824.293 311.928 824.117 311.928ZM826.64 309.496C826.281 309.496 825.975 309.344 825.723 309.039C825.471 308.735 825.343 308.369 825.343 307.941C825.343 307.514 825.469 307.149 825.723 306.848C825.975 306.546 826.281 306.396 826.64 306.396C826.998 306.396 827.314 306.548 827.566 306.848C827.818 307.149 827.946 307.514 827.946 307.941C827.946 308.369 827.82 308.735 827.566 309.039C827.314 309.344 827.004 309.496 826.64 309.496Z" fill="#1B1A27"/>
</g>
<rect x="806.277" y="296.787" width="31" height="31" rx="15.5" stroke="black"/>
<rect width="24" height="11" transform="translate(881.277 129.287)" fill="white"/>
<path d="M889.995 103.74C889.995 104.22 889.895 104.693 889.695 105.16C889.495 105.613 889.235 106.06 888.915 106.5C888.608 106.927 888.255 107.347 887.855 107.76C887.455 108.16 887.055 108.553 886.655 108.94C886.442 109.14 886.202 109.38 885.935 109.66C885.668 109.94 885.415 110.22 885.175 110.5C884.935 110.78 884.728 111.053 884.555 111.32C884.382 111.573 884.288 111.787 884.275 111.96H890.435V114H881.615C881.602 113.893 881.595 113.767 881.595 113.62C881.595 113.46 881.595 113.34 881.595 113.26C881.595 112.62 881.695 112.033 881.895 111.5C882.108 110.953 882.382 110.447 882.715 109.98C883.048 109.513 883.422 109.073 883.835 108.66C884.248 108.247 884.662 107.84 885.075 107.44C885.395 107.133 885.702 106.833 885.995 106.54C886.288 106.247 886.542 105.96 886.755 105.68C886.982 105.387 887.162 105.093 887.295 104.8C887.428 104.493 887.495 104.18 887.495 103.86C887.495 103.167 887.295 102.673 886.895 102.38C886.495 102.087 886.008 101.94 885.435 101.94C885.062 101.94 884.715 101.993 884.395 102.1C884.075 102.207 883.788 102.333 883.535 102.48C883.295 102.627 883.082 102.78 882.895 102.94C882.708 103.087 882.568 103.207 882.475 103.3L881.275 101.6C881.835 101.067 882.488 100.64 883.235 100.32C883.995 99.9867 884.808 99.82 885.675 99.82C887.155 99.82 888.242 100.173 888.935 100.88C889.642 101.573 889.995 102.527 889.995 103.74ZM898.482 103.12C898.162 103.507 897.829 103.92 897.482 104.36C897.149 104.8 896.822 105.26 896.502 105.74C896.182 106.22 895.876 106.713 895.582 107.22C895.289 107.713 895.022 108.207 894.782 108.7H898.482V103.12ZM900.842 100.14V108.7H902.402V110.68H900.842V114H898.482V110.68H892.402V108.96C892.669 108.373 893.022 107.7 893.462 106.94C893.916 106.18 894.416 105.4 894.962 104.6C895.509 103.8 896.089 103.013 896.702 102.24C897.316 101.467 897.929 100.767 898.542 100.14H900.842Z" fill="white"/>
<rect x="880.875" y="300.787" width="23" height="23" rx="11.5" fill="#00D95A"/>
<g clip-path="url(#clip6_4212_184862)">
<path d="M892.377 318.874C891.31 318.874 890.312 318.726 889.384 318.429C888.455 318.133 887.64 317.721 886.939 317.191C886.238 316.662 885.69 316.047 885.295 315.346C884.9 314.646 884.703 313.895 884.703 313.091C884.703 312.546 884.8 311.991 884.994 311.427C885.188 310.863 885.473 310.306 885.848 309.757C885.79 309.595 885.739 309.379 885.695 309.112C885.651 308.844 885.63 308.603 885.63 308.387C885.63 307.869 885.752 307.408 885.996 307.004C886.241 306.6 886.573 306.281 886.992 306.049C887.411 305.816 887.88 305.7 888.401 305.7C888.802 305.7 889.19 305.773 889.565 305.917C889.94 306.062 890.279 306.265 890.583 306.526C890.888 306.788 891.13 307.089 891.311 307.431C891.452 307.445 891.618 307.454 891.807 307.461C891.997 307.468 892.187 307.471 892.376 307.471C892.565 307.471 892.756 307.468 892.945 307.461C893.134 307.454 893.3 307.445 893.441 307.431C893.627 307.089 893.87 306.787 894.172 306.526C894.475 306.265 894.814 306.062 895.191 305.917C895.568 305.773 895.955 305.7 896.352 305.7C896.877 305.7 897.347 305.816 897.764 306.049C898.18 306.283 898.511 306.601 898.756 307.004C899 307.408 899.123 307.869 899.123 308.387C899.123 308.602 899.102 308.844 899.06 309.112C899.019 309.379 898.967 309.595 898.905 309.757C899.28 310.306 899.563 310.862 899.758 311.427C899.952 311.991 900.049 312.546 900.049 313.091C900.049 313.895 899.852 314.646 899.457 315.346C899.063 316.047 898.515 316.662 897.813 317.191C897.112 317.721 896.297 318.133 895.369 318.429C894.44 318.726 893.442 318.874 892.375 318.874H892.377ZM892.377 318.149C893.316 318.149 894.202 318.025 895.033 317.777C895.865 317.529 896.597 317.175 897.233 316.717C897.868 316.259 898.366 315.712 898.728 315.077C899.089 314.443 899.27 313.741 899.27 312.972C899.27 312.471 899.183 311.981 899.009 311.5C898.834 311.018 898.54 310.48 898.126 309.882C898.162 309.777 898.194 309.634 898.225 309.454C898.256 309.274 898.282 309.086 898.301 308.891C898.321 308.696 898.331 308.528 898.331 308.387C898.331 307.992 898.247 307.647 898.08 307.353C897.913 307.059 897.681 306.83 897.385 306.669C897.09 306.507 896.746 306.425 896.353 306.425C895.995 306.425 895.651 306.496 895.32 306.639C894.989 306.781 894.701 306.979 894.454 307.231C894.207 307.484 894.026 307.772 893.912 308.097C893.797 308.124 893.591 308.147 893.293 308.166C892.996 308.186 892.69 308.196 892.377 308.196C892.065 308.196 891.759 308.186 891.461 308.166C891.164 308.147 890.957 308.124 890.843 308.097C890.729 307.772 890.548 307.484 890.301 307.231C890.054 306.979 889.767 306.781 889.438 306.639C889.109 306.496 888.764 306.425 888.403 306.425C888.015 306.425 887.671 306.507 887.374 306.669C887.076 306.832 886.843 307.059 886.676 307.353C886.509 307.647 886.424 307.992 886.424 308.387C886.424 308.527 886.435 308.696 886.454 308.891C886.474 309.086 886.501 309.274 886.534 309.454C886.567 309.634 886.599 309.777 886.63 309.882C886.216 310.48 885.921 311.018 885.747 311.5C885.573 311.981 885.486 312.471 885.486 312.972C885.486 313.741 885.668 314.443 886.029 315.077C886.39 315.711 886.888 316.257 887.524 316.717C888.158 317.175 888.892 317.529 889.724 317.777C890.556 318.025 891.441 318.149 892.38 318.149H892.377ZM896.935 312.295C897.16 312.295 897.353 312.385 897.515 312.568C897.675 312.751 897.756 312.957 897.756 313.19C897.756 313.445 897.654 313.697 897.451 313.945C897.248 314.193 896.968 314.428 896.611 314.647C896.254 314.866 895.846 315.06 895.387 315.229C894.928 315.398 894.442 315.531 893.929 315.628C893.416 315.724 892.898 315.773 892.377 315.773C891.857 315.773 891.34 315.724 890.826 315.628C890.312 315.531 889.825 315.398 889.367 315.229C888.908 315.06 888.501 314.866 888.143 314.647C887.786 314.428 887.507 314.193 887.303 313.945C887.1 313.697 886.999 313.445 886.999 313.19C886.999 312.957 887.08 312.751 887.24 312.568C887.4 312.386 887.594 312.295 887.819 312.295C887.978 312.295 888.199 312.337 888.48 312.423C888.763 312.509 889.1 312.607 889.492 312.716C889.884 312.825 890.324 312.924 890.808 313.009C891.294 313.095 891.815 313.138 892.376 313.138C892.937 313.138 893.464 313.095 893.947 313.009C894.431 312.923 894.868 312.825 895.26 312.716C895.653 312.606 895.991 312.508 896.272 312.423C896.554 312.338 896.775 312.295 896.933 312.295H896.935ZM888.733 310.194C888.464 310.194 888.233 310.08 888.042 309.851C887.85 309.623 887.755 309.348 887.755 309.028C887.755 308.707 887.85 308.434 888.042 308.208C888.233 307.981 888.464 307.869 888.733 307.869C889.002 307.869 889.231 307.983 889.42 308.208C889.61 308.434 889.705 308.707 889.705 309.028C889.705 309.348 889.611 309.623 889.42 309.851C889.231 310.08 889.002 310.194 888.733 310.194ZM888.442 314.027C888.967 314.33 889.582 314.576 890.288 314.764C890.994 314.953 891.691 315.048 892.378 315.048C893.066 315.048 893.763 314.954 894.469 314.764C895.175 314.576 895.79 314.33 896.315 314.027C896.125 313.776 895.902 313.566 895.647 313.395C895.109 313.544 894.561 313.659 894.003 313.741C893.444 313.822 892.903 313.862 892.378 313.862C891.854 313.862 891.312 313.822 890.754 313.741C890.196 313.659 889.649 313.544 889.11 313.395C888.854 313.566 888.631 313.777 888.442 314.027ZM890.625 312.018C890.492 312.018 890.379 311.963 890.285 311.853C890.19 311.743 890.143 311.615 890.143 311.465C890.143 311.316 890.19 311.182 890.285 311.074C890.379 310.966 890.493 310.913 890.625 310.913C890.756 310.913 890.871 310.967 890.965 311.074C891.06 311.182 891.107 311.311 891.107 311.465C891.107 311.619 891.06 311.744 890.965 311.853C890.871 311.964 890.756 312.018 890.625 312.018ZM894.131 312.018C893.998 312.018 893.885 311.963 893.791 311.853C893.696 311.743 893.649 311.615 893.649 311.465C893.649 311.316 893.696 311.182 893.791 311.074C893.885 310.966 893.999 310.913 894.131 310.913C894.262 310.913 894.377 310.967 894.471 311.074C894.566 311.182 894.613 311.311 894.613 311.465C894.613 311.619 894.566 311.744 894.471 311.853C894.377 311.964 894.262 312.018 894.131 312.018ZM896.023 310.194C895.754 310.194 895.524 310.08 895.335 309.851C895.146 309.623 895.05 309.348 895.05 309.028C895.05 308.707 895.145 308.434 895.335 308.208C895.524 307.981 895.754 307.869 896.023 307.869C896.292 307.869 896.528 307.983 896.717 308.208C896.907 308.434 897.002 308.707 897.002 309.028C897.002 309.348 896.908 309.623 896.717 309.851C896.528 310.08 896.296 310.194 896.023 310.194Z" fill="#1B1A27"/>
</g>
<rect x="880.875" y="300.787" width="23" height="23" rx="11.5" stroke="black"/>
<defs>
<clipPath id="clip0_4212_184862">
<rect width="165" height="165" fill="white" transform="translate(136.777 229.636)"/>
</clipPath>
<clipPath id="clip1_4212_184862">
<rect width="82.5" height="82.5" fill="white" transform="translate(409.027 271.037)"/>
</clipPath>
<clipPath id="clip2_4212_184862">
<rect width="41.25" height="41.25" fill="white" transform="translate(564.652 291.662)"/>
</clipPath>
<clipPath id="clip3_4212_184862">
<rect width="25.7812" height="25.7812" fill="white" transform="translate(663.387 299.396)"/>
</clipPath>
<clipPath id="clip4_4212_184862">
<rect width="23.2031" height="23.2031" fill="white" transform="translate(741.676 300.686)"/>
</clipPath>
<clipPath id="clip5_4212_184862">
<rect width="20.625" height="20.625" fill="white" transform="translate(811.465 301.975)"/>
</clipPath>
<clipPath id="clip6_4212_184862">
<rect width="15.4688" height="15.4688" fill="white" transform="translate(884.641 304.553)"/>
</clipPath>
</defs>
</svg>
