<svg width="552" height="221" viewBox="0 0 552 221" fill="none" xmlns="http://www.w3.org/2000/svg">
<g clip-path="url(#clip0_4928_194000)">
<rect width="552" height="221" fill="white"/>
<path d="M29.458 38.5716C30.8767 38.5716 31.586 38.0863 31.586 37.1156C31.586 36.8169 31.5207 36.5649 31.39 36.3596C31.2687 36.1449 31.1007 35.9629 30.886 35.8136C30.6713 35.6549 30.424 35.5196 30.144 35.4076C29.8733 35.2956 29.584 35.1836 29.276 35.0716C28.9213 34.9503 28.5853 34.8149 28.268 34.6656C27.9507 34.5069 27.6753 34.3249 27.442 34.1196C27.2087 33.9049 27.022 33.6529 26.882 33.3636C26.7513 33.0743 26.686 32.7243 26.686 32.3136C26.686 31.4643 26.9753 30.8016 27.554 30.3256C28.1327 29.8496 28.9307 29.6116 29.948 29.6116C30.536 29.6116 31.068 29.6769 31.544 29.8076C32.0293 29.9289 32.384 30.0643 32.608 30.2136L32.174 31.3196C31.978 31.1983 31.684 31.0816 31.292 30.9696C30.9093 30.8483 30.4613 30.7876 29.948 30.7876C29.6867 30.7876 29.444 30.8156 29.22 30.8716C28.996 30.9276 28.8 31.0116 28.632 31.1236C28.464 31.2356 28.3287 31.3803 28.226 31.5576C28.1327 31.7256 28.086 31.9263 28.086 32.1596C28.086 32.4209 28.1373 32.6403 28.24 32.8176C28.3427 32.9949 28.4873 33.1536 28.674 33.2936C28.8607 33.4243 29.0753 33.5456 29.318 33.6576C29.57 33.7696 29.8453 33.8816 30.144 33.9936C30.564 34.1616 30.9467 34.3296 31.292 34.4976C31.6467 34.6656 31.95 34.8663 32.202 35.0996C32.4633 35.3329 32.664 35.6129 32.804 35.9396C32.944 36.2569 33.014 36.6443 33.014 37.1016C33.014 37.9509 32.7013 38.6043 32.076 39.0616C31.46 39.5189 30.5873 39.7476 29.458 39.7476C29.0753 39.7476 28.7207 39.7196 28.394 39.6636C28.0767 39.6169 27.792 39.5609 27.54 39.4956C27.288 39.4209 27.0687 39.3463 26.882 39.2716C26.7047 39.1876 26.5647 39.1176 26.462 39.0616L26.868 37.9416C27.0827 38.0629 27.4093 38.1983 27.848 38.3476C28.2867 38.4969 28.8233 38.5716 29.458 38.5716ZM37.0352 38.5996C37.3432 38.5996 37.6138 38.5949 37.8472 38.5856C38.0898 38.5669 38.2905 38.5389 38.4492 38.5016V36.3316C38.3558 36.2849 38.2018 36.2476 37.9872 36.2196C37.7818 36.1823 37.5298 36.1636 37.2312 36.1636C37.0352 36.1636 36.8252 36.1776 36.6012 36.2056C36.3865 36.2336 36.1858 36.2943 35.9992 36.3876C35.8218 36.4716 35.6725 36.5929 35.5512 36.7516C35.4298 36.9009 35.3692 37.1016 35.3692 37.3536C35.3692 37.8203 35.5185 38.1469 35.8172 38.3336C36.1158 38.5109 36.5218 38.5996 37.0352 38.5996ZM36.9232 32.0756C37.4458 32.0756 37.8845 32.1456 38.2392 32.2856C38.6032 32.4163 38.8925 32.6076 39.1072 32.8596C39.3312 33.1023 39.4898 33.3963 39.5832 33.7416C39.6765 34.0776 39.7232 34.4509 39.7232 34.8616V39.4116C39.6112 39.4303 39.4525 39.4583 39.2472 39.4956C39.0512 39.5236 38.8272 39.5516 38.5752 39.5796C38.3232 39.6076 38.0478 39.6309 37.7492 39.6496C37.4598 39.6776 37.1705 39.6916 36.8812 39.6916C36.4705 39.6916 36.0925 39.6496 35.7472 39.5656C35.4018 39.4816 35.1032 39.3509 34.8512 39.1736C34.5992 38.9869 34.4032 38.7443 34.2632 38.4456C34.1232 38.1469 34.0532 37.7876 34.0532 37.3676C34.0532 36.9663 34.1325 36.6209 34.2912 36.3316C34.4592 36.0423 34.6832 35.8089 34.9632 35.6316C35.2432 35.4543 35.5698 35.3236 35.9432 35.2396C36.3165 35.1556 36.7085 35.1136 37.1192 35.1136C37.2498 35.1136 37.3852 35.1229 37.5252 35.1416C37.6652 35.1509 37.7958 35.1696 37.9172 35.1976C38.0478 35.2163 38.1598 35.2349 38.2532 35.2536C38.3465 35.2723 38.4118 35.2863 38.4492 35.2956V34.9316C38.4492 34.7169 38.4258 34.5069 38.3792 34.3016C38.3325 34.0869 38.2485 33.9003 38.1272 33.7416C38.0058 33.5736 37.8378 33.4429 37.6232 33.3496C37.4178 33.2469 37.1472 33.1956 36.8112 33.1956C36.3818 33.1956 36.0038 33.2283 35.6772 33.2936C35.3598 33.3496 35.1218 33.4103 34.9632 33.4756L34.8092 32.3976C34.9772 32.3229 35.2572 32.2529 35.6492 32.1876C36.0412 32.1129 36.4658 32.0756 36.9232 32.0756ZM41.8856 32.4676C42.1843 32.3929 42.581 32.3136 43.0756 32.2296C43.5703 32.1456 44.1396 32.1036 44.7836 32.1036C45.3623 32.1036 45.843 32.1876 46.2256 32.3556C46.6083 32.5143 46.9116 32.7429 47.1356 33.0416C47.369 33.3309 47.5323 33.6809 47.6256 34.0916C47.719 34.5023 47.7656 34.9549 47.7656 35.4496V39.5376H46.4636V35.7296C46.4636 35.2816 46.431 34.8989 46.3656 34.5816C46.3096 34.2643 46.2116 34.0076 46.0716 33.8116C45.9316 33.6156 45.745 33.4756 45.5116 33.3916C45.2783 33.2983 44.989 33.2516 44.6436 33.2516C44.5036 33.2516 44.359 33.2563 44.2096 33.2656C44.0603 33.2749 43.9156 33.2889 43.7756 33.3076C43.645 33.3169 43.5236 33.3309 43.4116 33.3496C43.309 33.3683 43.2343 33.3823 43.1876 33.3916V39.5376H41.8856V32.4676ZM51.2267 39.5376H49.9247V32.2576H51.2267V39.5376ZM50.5687 30.9416C50.3354 30.9416 50.1347 30.8669 49.9667 30.7176C49.808 30.5589 49.7287 30.3489 49.7287 30.0876C49.7287 29.8263 49.808 29.6209 49.9667 29.4716C50.1347 29.3129 50.3354 29.2336 50.5687 29.2336C50.802 29.2336 50.998 29.3129 51.1567 29.4716C51.3247 29.6209 51.4087 29.8263 51.4087 30.0876C51.4087 30.3489 51.3247 30.5589 51.1567 30.7176C50.998 30.8669 50.802 30.9416 50.5687 30.9416ZM54.6837 32.2576H57.4417V33.3496H54.6837V36.7096C54.6837 37.0736 54.7117 37.3769 54.7677 37.6196C54.8237 37.8529 54.9077 38.0396 55.0197 38.1796C55.1317 38.3103 55.2717 38.4036 55.4397 38.4596C55.6077 38.5156 55.8037 38.5436 56.0277 38.5436C56.4197 38.5436 56.7324 38.5016 56.9657 38.4176C57.2084 38.3243 57.3764 38.2589 57.4697 38.2216L57.7217 39.2996C57.591 39.3649 57.3624 39.4443 57.0357 39.5376C56.709 39.6403 56.3357 39.6916 55.9157 39.6916C55.421 39.6916 55.0104 39.6309 54.6837 39.5096C54.3664 39.3789 54.1097 39.1876 53.9137 38.9356C53.7177 38.6836 53.5777 38.3756 53.4937 38.0116C53.419 37.6383 53.3817 37.2089 53.3817 36.7236V30.2276L54.6837 30.0036V32.2576ZM60.4005 39.5376H59.0985V32.2576H60.4005V39.5376ZM59.7425 30.9416C59.5092 30.9416 59.3085 30.8669 59.1405 30.7176C58.9818 30.5589 58.9025 30.3489 58.9025 30.0876C58.9025 29.8263 58.9818 29.6209 59.1405 29.4716C59.3085 29.3129 59.5092 29.2336 59.7425 29.2336C59.9758 29.2336 60.1718 29.3129 60.3305 29.4716C60.4985 29.6209 60.5825 29.8263 60.5825 30.0876C60.5825 30.3489 60.4985 30.5589 60.3305 30.7176C60.1718 30.8669 59.9758 30.9416 59.7425 30.9416ZM67.4695 33.2376C67.2735 33.4523 67.0122 33.7556 66.6855 34.1476C66.3682 34.5396 66.0229 34.9736 65.6495 35.4496C65.2855 35.9256 64.9169 36.4249 64.5435 36.9476C64.1795 37.4703 63.8575 37.9696 63.5775 38.4456H67.5815V39.5376H62.0235V38.6696C62.2475 38.2589 62.5229 37.8063 62.8495 37.3116C63.1762 36.8169 63.5169 36.3269 63.8715 35.8416C64.2355 35.3469 64.5855 34.8849 64.9215 34.4556C65.2669 34.0169 65.5655 33.6483 65.8175 33.3496H62.2195V32.2576H67.4695V33.2376ZM68.5636 35.9116C68.5636 35.2676 68.6569 34.7076 68.8436 34.2316C69.0303 33.7463 69.2776 33.3449 69.5856 33.0276C69.8936 32.7103 70.2483 32.4723 70.6496 32.3136C71.0509 32.1549 71.4616 32.0756 71.8816 32.0756C72.8616 32.0756 73.6129 32.3836 74.1356 32.9996C74.6583 33.6063 74.9196 34.5349 74.9196 35.7856C74.9196 35.8416 74.9196 35.9163 74.9196 36.0096C74.9196 36.0936 74.9149 36.1729 74.9056 36.2476H69.9216C69.9776 37.0036 70.1969 37.5776 70.5796 37.9696C70.9623 38.3616 71.5596 38.5576 72.3716 38.5576C72.8289 38.5576 73.2116 38.5203 73.5196 38.4456C73.8369 38.3616 74.0749 38.2823 74.2336 38.2076L74.4156 39.2996C74.2569 39.3836 73.9769 39.4723 73.5756 39.5656C73.1836 39.6589 72.7356 39.7056 72.2316 39.7056C71.5969 39.7056 71.0463 39.6123 70.5796 39.4256C70.1223 39.2296 69.7443 38.9636 69.4456 38.6276C69.1469 38.2916 68.9229 37.8949 68.7736 37.4376C68.6336 36.9709 68.5636 36.4623 68.5636 35.9116ZM73.5616 35.1976C73.5709 34.6096 73.4216 34.1289 73.1136 33.7556C72.8149 33.3729 72.3996 33.1816 71.8676 33.1816C71.5689 33.1816 71.3029 33.2423 71.0696 33.3636C70.8456 33.4756 70.6543 33.6249 70.4956 33.8116C70.3369 33.9983 70.2109 34.2129 70.1176 34.4556C70.0336 34.6983 69.9776 34.9456 69.9496 35.1976H73.5616ZM79.4779 32.1036C79.5899 32.1036 79.7159 32.1129 79.8559 32.1316C80.0053 32.1409 80.1499 32.1596 80.2899 32.1876C80.4299 32.2063 80.5559 32.2296 80.6679 32.2576C80.7893 32.2763 80.8779 32.2949 80.9339 32.3136L80.7099 33.4476C80.6073 33.4103 80.4346 33.3683 80.1919 33.3216C79.9586 33.2656 79.6553 33.2376 79.2819 33.2376C79.0393 33.2376 78.7966 33.2656 78.5539 33.3216C78.3206 33.3683 78.1666 33.4009 78.0919 33.4196V39.5376H76.7899V32.5656C77.0979 32.4536 77.4806 32.3509 77.9379 32.2576C78.3953 32.1549 78.9086 32.1036 79.4779 32.1036Z" fill="#262626"/>
<path d="M94 27.5376C90.1344 27.5376 87 30.672 87 34.5376C87 38.4032 90.1344 41.5376 94 41.5376C97.8656 41.5376 101 38.4032 101 34.5376C101 30.672 97.8656 27.5376 94 27.5376ZM94 40.3501C90.7906 40.3501 88.1875 37.747 88.1875 34.5376C88.1875 31.3282 90.7906 28.7251 94 28.7251C97.2094 28.7251 99.8125 31.3282 99.8125 34.5376C99.8125 37.747 97.2094 40.3501 94 40.3501Z" fill="#767593"/>
<path d="M95.7437 31.486C95.275 31.0751 94.6562 30.8501 94 30.8501C93.3438 30.8501 92.725 31.0767 92.2562 31.486C91.7687 31.9126 91.5 32.486 91.5 33.1001V33.2188C91.5 33.2876 91.5562 33.3438 91.625 33.3438H92.375C92.4438 33.3438 92.5 33.2876 92.5 33.2188V33.1001C92.5 32.411 93.1734 31.8501 94 31.8501C94.8266 31.8501 95.5 32.411 95.5 33.1001C95.5 33.586 95.1563 34.0313 94.6234 34.236C94.2922 34.3626 94.0109 34.5845 93.8094 34.8751C93.6047 35.172 93.4984 35.5282 93.4984 35.8892V36.2251C93.4984 36.2938 93.5547 36.3501 93.6234 36.3501H94.3734C94.4422 36.3501 94.4984 36.2938 94.4984 36.2251V35.8704C94.4992 35.7187 94.5457 35.5708 94.6319 35.4459C94.718 35.3211 94.8397 35.2251 94.9812 35.1704C95.9031 34.8157 96.4984 34.0032 96.4984 33.1001C96.5 32.486 96.2312 31.9126 95.7437 31.486ZM93.375 37.9751C93.375 38.1409 93.4408 38.2998 93.5581 38.417C93.6753 38.5343 93.8342 38.6001 94 38.6001C94.1658 38.6001 94.3247 38.5343 94.4419 38.417C94.5592 38.2998 94.625 38.1409 94.625 37.9751C94.625 37.8093 94.5592 37.6504 94.4419 37.5332C94.3247 37.4159 94.1658 37.3501 94 37.3501C93.8342 37.3501 93.6753 37.4159 93.5581 37.5332C93.4408 37.6504 93.375 37.8093 93.375 37.9751Z" fill="#767593"/>
<rect x="26.5" y="57.1123" width="15" height="15" rx="1.5" fill="white" stroke="#C4C7CF"/>
<path d="M57.686 69.6123C57.5273 69.1923 57.378 68.7816 57.238 68.3803C57.098 67.9696 56.9533 67.5543 56.804 67.1343H52.408L51.526 69.6123H50.112C50.4853 68.5856 50.8353 67.6383 51.162 66.7703C51.4887 65.893 51.806 65.0623 52.114 64.2783C52.4313 63.4943 52.744 62.7476 53.052 62.0383C53.36 61.3196 53.682 60.6103 54.018 59.9103H55.264C55.6 60.6103 55.922 61.3196 56.23 62.0383C56.538 62.7476 56.846 63.4943 57.154 64.2783C57.4713 65.0623 57.7933 65.893 58.12 66.7703C58.4467 67.6383 58.7967 68.5856 59.17 69.6123H57.686ZM56.412 66.0143C56.1133 65.2023 55.8147 64.4183 55.516 63.6623C55.2267 62.897 54.9233 62.1643 54.606 61.4643C54.2793 62.1643 53.9667 62.897 53.668 63.6623C53.3787 64.4183 53.0893 65.2023 52.8 66.0143H56.412ZM62.96 68.6463C64.3786 68.6463 65.088 68.161 65.088 67.1903C65.088 66.8916 65.0226 66.6396 64.892 66.4343C64.7706 66.2196 64.6026 66.0376 64.388 65.8883C64.1733 65.7296 63.926 65.5943 63.646 65.4823C63.3753 65.3703 63.086 65.2583 62.778 65.1463C62.4233 65.025 62.0873 64.8896 61.77 64.7403C61.4526 64.5816 61.1773 64.3996 60.944 64.1943C60.7106 63.9796 60.524 63.7276 60.384 63.4383C60.2533 63.149 60.188 62.799 60.188 62.3883C60.188 61.539 60.4773 60.8763 61.056 60.4003C61.6346 59.9243 62.4326 59.6863 63.45 59.6863C64.038 59.6863 64.57 59.7516 65.046 59.8823C65.5313 60.0036 65.886 60.139 66.11 60.2883L65.676 61.3943C65.48 61.273 65.186 61.1563 64.794 61.0443C64.4113 60.923 63.9633 60.8623 63.45 60.8623C63.1886 60.8623 62.946 60.8903 62.722 60.9463C62.498 61.0023 62.302 61.0863 62.134 61.1983C61.966 61.3103 61.8306 61.455 61.728 61.6323C61.6346 61.8003 61.588 62.001 61.588 62.2343C61.588 62.4956 61.6393 62.715 61.742 62.8923C61.8446 63.0696 61.9893 63.2283 62.176 63.3683C62.3626 63.499 62.5773 63.6203 62.82 63.7323C63.072 63.8443 63.3473 63.9563 63.646 64.0683C64.066 64.2363 64.4486 64.4043 64.794 64.5723C65.1486 64.7403 65.452 64.941 65.704 65.1743C65.9653 65.4076 66.166 65.6876 66.306 66.0143C66.446 66.3316 66.516 66.719 66.516 67.1763C66.516 68.0256 66.2033 68.679 65.578 69.1363C64.962 69.5936 64.0893 69.8223 62.96 69.8223C62.5773 69.8223 62.2226 69.7943 61.896 69.7383C61.5786 69.6916 61.294 69.6356 61.042 69.5703C60.79 69.4956 60.5706 69.421 60.384 69.3463C60.2066 69.2623 60.0666 69.1923 59.964 69.1363L60.37 68.0163C60.5846 68.1376 60.9113 68.273 61.35 68.4223C61.7886 68.5716 62.3253 68.6463 62.96 68.6463ZM74.6391 69.6123C74.4805 69.1923 74.3311 68.7816 74.1911 68.3803C74.0511 67.9696 73.9065 67.5543 73.7571 67.1343H69.3611L68.4791 69.6123H67.0651C67.4385 68.5856 67.7885 67.6383 68.1151 66.7703C68.4418 65.893 68.7591 65.0623 69.0671 64.2783C69.3845 63.4943 69.6971 62.7476 70.0051 62.0383C70.3131 61.3196 70.6351 60.6103 70.9711 59.9103H72.2171C72.5531 60.6103 72.8751 61.3196 73.1831 62.0383C73.4911 62.7476 73.7991 63.4943 74.1071 64.2783C74.4245 65.0623 74.7465 65.893 75.0731 66.7703C75.3998 67.6383 75.7498 68.5856 76.1231 69.6123H74.6391ZM73.3651 66.0143C73.0665 65.2023 72.7678 64.4183 72.4691 63.6623C72.1798 62.897 71.8765 62.1643 71.5591 61.4643C71.2325 62.1643 70.9198 62.897 70.6211 63.6623C70.3318 64.4183 70.0425 65.2023 69.7531 66.0143H73.3651ZM84.0903 69.6123C83.885 69.267 83.647 68.8796 83.3763 68.4503C83.115 68.021 82.8303 67.5776 82.5223 67.1203C82.2143 66.6536 81.8923 66.1823 81.5563 65.7063C81.2297 65.2303 80.903 64.773 80.5763 64.3343C80.2497 63.8863 79.9323 63.4663 79.6243 63.0743C79.3163 62.6823 79.0317 62.337 78.7703 62.0383V69.6123H77.4403V59.9103H78.5183C78.957 60.377 79.4237 60.923 79.9183 61.5483C80.4223 62.1643 80.917 62.8036 81.4023 63.4663C81.897 64.1196 82.359 64.7636 82.7883 65.3983C83.227 66.033 83.5957 66.5976 83.8943 67.0923V59.9103H85.2243V69.6123H84.0903Z" fill="#262626"/>
<rect x="107.5" y="57.1123" width="15" height="15" rx="1.5" fill="#9254DE" stroke="#9254DE"/>
<path d="M113.008 69.5014L108.373 64.8666L109.532 63.7079L113.008 67.184L120.468 59.7236L121.627 60.8823L113.008 69.5014Z" fill="white"/>
<path d="M135.816 69.8223C135.181 69.8223 134.631 69.7243 134.164 69.5283C133.697 69.3323 133.315 69.0663 133.016 68.7303C132.717 68.385 132.493 67.979 132.344 67.5123C132.204 67.0456 132.134 66.5416 132.134 66.0003V59.9103H133.492V65.8463C133.492 66.817 133.707 67.5216 134.136 67.9603C134.565 68.399 135.125 68.6183 135.816 68.6183C136.161 68.6183 136.474 68.567 136.754 68.4643C137.043 68.3523 137.291 68.1843 137.496 67.9603C137.701 67.7363 137.86 67.4516 137.972 67.1063C138.084 66.7516 138.14 66.3316 138.14 65.8463V59.9103H139.498V66.0003C139.498 66.5416 139.423 67.0456 139.274 67.5123C139.134 67.979 138.91 68.385 138.602 68.7303C138.303 69.0663 137.921 69.3323 137.454 69.5283C136.997 69.7243 136.451 69.8223 135.816 69.8223ZM144.461 69.6963C144.265 69.6963 144.05 69.6916 143.817 69.6823C143.593 69.673 143.364 69.659 143.131 69.6403C142.907 69.6216 142.683 69.5983 142.459 69.5703C142.235 69.5423 142.029 69.505 141.843 69.4583V60.0503C142.029 60.0036 142.235 59.9663 142.459 59.9383C142.683 59.9103 142.907 59.887 143.131 59.8683C143.364 59.8496 143.593 59.8356 143.817 59.8263C144.041 59.817 144.251 59.8123 144.447 59.8123C145.007 59.8123 145.529 59.8543 146.015 59.9383C146.509 60.0223 146.934 60.167 147.289 60.3723C147.653 60.5683 147.937 60.8296 148.143 61.1563C148.348 61.483 148.451 61.8843 148.451 62.3603C148.451 62.8923 148.325 63.331 148.073 63.6763C147.821 64.0123 147.485 64.2643 147.065 64.4323C147.634 64.6003 148.087 64.8663 148.423 65.2303C148.759 65.5943 148.927 66.1076 148.927 66.7703C148.927 67.741 148.567 68.4736 147.849 68.9683C147.139 69.4536 146.01 69.6963 144.461 69.6963ZM143.187 65.0903V68.5063C143.289 68.5156 143.411 68.525 143.551 68.5343C143.672 68.5436 143.812 68.553 143.971 68.5623C144.139 68.5623 144.33 68.5623 144.545 68.5623C144.946 68.5623 145.324 68.539 145.679 68.4923C146.043 68.4363 146.36 68.343 146.631 68.2123C146.901 68.0816 147.116 67.8996 147.275 67.6663C147.443 67.433 147.527 67.139 147.527 66.7843C147.527 66.467 147.466 66.201 147.345 65.9863C147.223 65.7623 147.046 65.585 146.813 65.4543C146.589 65.3236 146.318 65.2303 146.001 65.1743C145.683 65.1183 145.329 65.0903 144.937 65.0903H143.187ZM143.187 63.9983H144.615C144.951 63.9983 145.268 63.975 145.567 63.9283C145.865 63.8816 146.122 63.7976 146.337 63.6763C146.561 63.555 146.733 63.3963 146.855 63.2003C146.985 63.0043 147.051 62.757 147.051 62.4583C147.051 62.1783 146.985 61.945 146.855 61.7583C146.724 61.5623 146.542 61.4083 146.309 61.2963C146.085 61.175 145.819 61.0863 145.511 61.0303C145.203 60.9743 144.876 60.9463 144.531 60.9463C144.185 60.9463 143.915 60.951 143.719 60.9603C143.523 60.9696 143.345 60.9836 143.187 61.0023V63.9983ZM153.093 68.6463C154.511 68.6463 155.221 68.161 155.221 67.1903C155.221 66.8916 155.155 66.6396 155.025 66.4343C154.903 66.2196 154.735 66.0376 154.521 65.8883C154.306 65.7296 154.059 65.5943 153.779 65.4823C153.508 65.3703 153.219 65.2583 152.911 65.1463C152.556 65.025 152.22 64.8896 151.903 64.7403C151.585 64.5816 151.31 64.3996 151.077 64.1943C150.843 63.9796 150.657 63.7276 150.517 63.4383C150.386 63.149 150.321 62.799 150.321 62.3883C150.321 61.539 150.61 60.8763 151.189 60.4003C151.767 59.9243 152.565 59.6863 153.583 59.6863C154.171 59.6863 154.703 59.7516 155.179 59.8823C155.664 60.0036 156.019 60.139 156.243 60.2883L155.809 61.3943C155.613 61.273 155.319 61.1563 154.927 61.0443C154.544 60.923 154.096 60.8623 153.583 60.8623C153.321 60.8623 153.079 60.8903 152.855 60.9463C152.631 61.0023 152.435 61.0863 152.267 61.1983C152.099 61.3103 151.963 61.455 151.861 61.6323C151.767 61.8003 151.721 62.001 151.721 62.2343C151.721 62.4956 151.772 62.715 151.875 62.8923C151.977 63.0696 152.122 63.2283 152.309 63.3683C152.495 63.499 152.71 63.6203 152.953 63.7323C153.205 63.8443 153.48 63.9563 153.779 64.0683C154.199 64.2363 154.581 64.4043 154.927 64.5723C155.281 64.7403 155.585 64.941 155.837 65.1743C156.098 65.4076 156.299 65.6876 156.439 66.0143C156.579 66.3316 156.649 66.719 156.649 67.1763C156.649 68.0256 156.336 68.679 155.711 69.1363C155.095 69.5936 154.222 69.8223 153.093 69.8223C152.71 69.8223 152.355 69.7943 152.029 69.7383C151.711 69.6916 151.427 69.6356 151.175 69.5703C150.923 69.4956 150.703 69.421 150.517 69.3463C150.339 69.2623 150.199 69.1923 150.097 69.1363L150.503 68.0163C150.717 68.1376 151.044 68.273 151.483 68.4223C151.921 68.5716 152.458 68.6463 153.093 68.6463ZM164.772 69.6123C164.613 69.1923 164.464 68.7816 164.324 68.3803C164.184 67.9696 164.039 67.5543 163.89 67.1343H159.494L158.612 69.6123H157.198C157.571 68.5856 157.921 67.6383 158.248 66.7703C158.575 65.893 158.892 65.0623 159.2 64.2783C159.517 63.4943 159.83 62.7476 160.138 62.0383C160.446 61.3196 160.768 60.6103 161.104 59.9103H162.35C162.686 60.6103 163.008 61.3196 163.316 62.0383C163.624 62.7476 163.932 63.4943 164.24 64.2783C164.557 65.0623 164.879 65.893 165.206 66.7703C165.533 67.6383 165.883 68.5856 166.256 69.6123H164.772ZM163.498 66.0143C163.199 65.2023 162.901 64.4183 162.602 63.6623C162.313 62.897 162.009 62.1643 161.692 61.4643C161.365 62.1643 161.053 62.897 160.754 63.6623C160.465 64.4183 160.175 65.2023 159.886 66.0143H163.498ZM174.223 69.6123C174.018 69.267 173.78 68.8796 173.509 68.4503C173.248 68.021 172.963 67.5776 172.655 67.1203C172.347 66.6536 172.025 66.1823 171.689 65.7063C171.362 65.2303 171.036 64.773 170.709 64.3343C170.382 63.8863 170.065 63.4663 169.757 63.0743C169.449 62.6823 169.164 62.337 168.903 62.0383V69.6123H167.573V59.9103H168.651C169.09 60.377 169.556 60.923 170.051 61.5483C170.555 62.1643 171.05 62.8036 171.535 63.4663C172.03 64.1196 172.492 64.7636 172.921 65.3983C173.36 66.033 173.728 66.5976 174.027 67.0923V59.9103H175.357V69.6123H174.223Z" fill="#262626"/>
<rect x="197.5" y="57.1123" width="15" height="15" rx="1.5" fill="white" stroke="#C4C7CF"/>
<path d="M226.558 68.2683C226.465 68.0443 226.339 67.7596 226.18 67.4143C226.031 67.069 225.867 66.6956 225.69 66.2943C225.513 65.893 225.321 65.4823 225.116 65.0623C224.92 64.633 224.733 64.2316 224.556 63.8583C224.379 63.4756 224.211 63.135 224.052 62.8363C223.903 62.5376 223.781 62.309 223.688 62.1503C223.585 63.2516 223.501 64.4463 223.436 65.7343C223.371 67.013 223.315 68.3056 223.268 69.6123H221.938C221.975 68.7723 222.017 67.9276 222.064 67.0783C222.111 66.2196 222.162 65.3796 222.218 64.5583C222.283 63.7276 222.349 62.9203 222.414 62.1363C222.489 61.3523 222.568 60.6103 222.652 59.9103H223.842C224.094 60.321 224.365 60.8063 224.654 61.3663C224.943 61.9263 225.233 62.5143 225.522 63.1303C225.811 63.737 226.091 64.3483 226.362 64.9643C226.633 65.571 226.88 66.1263 227.104 66.6303C227.328 66.1263 227.575 65.571 227.846 64.9643C228.117 64.3483 228.397 63.737 228.686 63.1303C228.975 62.5143 229.265 61.9263 229.554 61.3663C229.843 60.8063 230.114 60.321 230.366 59.9103H231.556C231.873 63.037 232.111 66.271 232.27 69.6123H230.94C230.893 68.3056 230.837 67.013 230.772 65.7343C230.707 64.4463 230.623 63.2516 230.52 62.1503C230.427 62.309 230.301 62.5376 230.142 62.8363C229.993 63.135 229.829 63.4756 229.652 63.8583C229.475 64.2316 229.283 64.633 229.078 65.0623C228.882 65.4823 228.695 65.893 228.518 66.2943C228.341 66.6956 228.173 67.069 228.014 67.4143C227.865 67.7596 227.743 68.0443 227.65 68.2683H226.558ZM236.653 68.6463C238.072 68.6463 238.781 68.161 238.781 67.1903C238.781 66.8916 238.716 66.6396 238.585 66.4343C238.464 66.2196 238.296 66.0376 238.081 65.8883C237.867 65.7296 237.619 65.5943 237.339 65.4823C237.069 65.3703 236.779 65.2583 236.471 65.1463C236.117 65.025 235.781 64.8896 235.463 64.7403C235.146 64.5816 234.871 64.3996 234.637 64.1943C234.404 63.9796 234.217 63.7276 234.077 63.4383C233.947 63.149 233.881 62.799 233.881 62.3883C233.881 61.539 234.171 60.8763 234.749 60.4003C235.328 59.9243 236.126 59.6863 237.143 59.6863C237.731 59.6863 238.263 59.7516 238.739 59.8823C239.225 60.0036 239.579 60.139 239.803 60.2883L239.369 61.3943C239.173 61.273 238.879 61.1563 238.487 61.0443C238.105 60.923 237.657 60.8623 237.143 60.8623C236.882 60.8623 236.639 60.8903 236.415 60.9463C236.191 61.0023 235.995 61.0863 235.827 61.1983C235.659 61.3103 235.524 61.455 235.421 61.6323C235.328 61.8003 235.281 62.001 235.281 62.2343C235.281 62.4956 235.333 62.715 235.435 62.8923C235.538 63.0696 235.683 63.2283 235.869 63.3683C236.056 63.499 236.271 63.6203 236.513 63.7323C236.765 63.8443 237.041 63.9563 237.339 64.0683C237.759 64.2363 238.142 64.4043 238.487 64.5723C238.842 64.7403 239.145 64.941 239.397 65.1743C239.659 65.4076 239.859 65.6876 239.999 66.0143C240.139 66.3316 240.209 66.719 240.209 67.1763C240.209 68.0256 239.897 68.679 239.271 69.1363C238.655 69.5936 237.783 69.8223 236.653 69.8223C236.271 69.8223 235.916 69.7943 235.589 69.7383C235.272 69.6916 234.987 69.6356 234.735 69.5703C234.483 69.4956 234.264 69.421 234.077 69.3463C233.9 69.2623 233.76 69.1923 233.657 69.1363L234.063 68.0163C234.278 68.1376 234.605 68.273 235.043 68.4223C235.482 68.5716 236.019 68.6463 236.653 68.6463ZM248.332 69.6123C248.174 69.1923 248.024 68.7816 247.884 68.3803C247.744 67.9696 247.6 67.5543 247.45 67.1343H243.054L242.172 69.6123H240.758C241.132 68.5856 241.482 67.6383 241.808 66.7703C242.135 65.893 242.452 65.0623 242.76 64.2783C243.078 63.4943 243.39 62.7476 243.698 62.0383C244.006 61.3196 244.328 60.6103 244.664 59.9103H245.91C246.246 60.6103 246.568 61.3196 246.876 62.0383C247.184 62.7476 247.492 63.4943 247.8 64.2783C248.118 65.0623 248.44 65.893 248.766 66.7703C249.093 67.6383 249.443 68.5856 249.816 69.6123H248.332ZM247.058 66.0143C246.76 65.2023 246.461 64.4183 246.162 63.6623C245.873 62.897 245.57 62.1643 245.252 61.4643C244.926 62.1643 244.613 62.897 244.314 63.6623C244.025 64.4183 243.736 65.2023 243.446 66.0143H247.058ZM257.784 69.6123C257.578 69.267 257.34 68.8796 257.07 68.4503C256.808 68.021 256.524 67.5776 256.216 67.1203C255.908 66.6536 255.586 66.1823 255.25 65.7063C254.923 65.2303 254.596 64.773 254.27 64.3343C253.943 63.8863 253.626 63.4663 253.318 63.0743C253.01 62.6823 252.725 62.337 252.464 62.0383V69.6123H251.134V59.9103H252.212C252.65 60.377 253.117 60.923 253.612 61.5483C254.116 62.1643 254.61 62.8036 255.096 63.4663C255.59 64.1196 256.052 64.7636 256.482 65.3983C256.92 66.033 257.289 66.5976 257.588 67.0923V59.9103H258.918V69.6123H257.784Z" fill="#262626"/>
<rect x="281.5" y="57.1123" width="15" height="15" rx="1.5" fill="white" stroke="#C4C7CF"/>
<path d="M312.686 59.9103V61.0863H309.634V69.6123H308.276V61.0863H305.224V59.9103H312.686ZM316.374 68.6463C317.793 68.6463 318.502 68.161 318.502 67.1903C318.502 66.8916 318.437 66.6396 318.306 66.4343C318.185 66.2196 318.017 66.0376 317.802 65.8883C317.587 65.7296 317.34 65.5943 317.06 65.4823C316.789 65.3703 316.5 65.2583 316.192 65.1463C315.837 65.025 315.501 64.8896 315.184 64.7403C314.867 64.5816 314.591 64.3996 314.358 64.1943C314.125 63.9796 313.938 63.7276 313.798 63.4383C313.667 63.149 313.602 62.799 313.602 62.3883C313.602 61.539 313.891 60.8763 314.47 60.4003C315.049 59.9243 315.847 59.6863 316.864 59.6863C317.452 59.6863 317.984 59.7516 318.46 59.8823C318.945 60.0036 319.3 60.139 319.524 60.2883L319.09 61.3943C318.894 61.273 318.6 61.1563 318.208 61.0443C317.825 60.923 317.377 60.8623 316.864 60.8623C316.603 60.8623 316.36 60.8903 316.136 60.9463C315.912 61.0023 315.716 61.0863 315.548 61.1983C315.38 61.3103 315.245 61.455 315.142 61.6323C315.049 61.8003 315.002 62.001 315.002 62.2343C315.002 62.4956 315.053 62.715 315.156 62.8923C315.259 63.0696 315.403 63.2283 315.59 63.3683C315.777 63.499 315.991 63.6203 316.234 63.7323C316.486 63.8443 316.761 63.9563 317.06 64.0683C317.48 64.2363 317.863 64.4043 318.208 64.5723C318.563 64.7403 318.866 64.941 319.118 65.1743C319.379 65.4076 319.58 65.6876 319.72 66.0143C319.86 66.3316 319.93 66.719 319.93 67.1763C319.93 68.0256 319.617 68.679 318.992 69.1363C318.376 69.5936 317.503 69.8223 316.374 69.8223C315.991 69.8223 315.637 69.7943 315.31 69.7383C314.993 69.6916 314.708 69.6356 314.456 69.5703C314.204 69.4956 313.985 69.421 313.798 69.3463C313.621 69.2623 313.481 69.1923 313.378 69.1363L313.784 68.0163C313.999 68.1376 314.325 68.273 314.764 68.4223C315.203 68.5716 315.739 68.6463 316.374 68.6463ZM328.053 69.6123C327.895 69.1923 327.745 68.7816 327.605 68.3803C327.465 67.9696 327.321 67.5543 327.171 67.1343H322.775L321.893 69.6123H320.479C320.853 68.5856 321.203 67.6383 321.529 66.7703C321.856 65.893 322.173 65.0623 322.481 64.2783C322.799 63.4943 323.111 62.7476 323.419 62.0383C323.727 61.3196 324.049 60.6103 324.385 59.9103H325.631C325.967 60.6103 326.289 61.3196 326.597 62.0383C326.905 62.7476 327.213 63.4943 327.521 64.2783C327.839 65.0623 328.161 65.893 328.487 66.7703C328.814 67.6383 329.164 68.5856 329.537 69.6123H328.053ZM326.779 66.0143C326.481 65.2023 326.182 64.4183 325.883 63.6623C325.594 62.897 325.291 62.1643 324.973 61.4643C324.647 62.1643 324.334 62.897 324.035 63.6623C323.746 64.4183 323.457 65.2023 323.167 66.0143H326.779ZM337.504 69.6123C337.299 69.267 337.061 68.8796 336.79 68.4503C336.529 68.021 336.244 67.5776 335.936 67.1203C335.628 66.6536 335.306 66.1823 334.97 65.7063C334.644 65.2303 334.317 64.773 333.99 64.3343C333.664 63.8863 333.346 63.4663 333.038 63.0743C332.73 62.6823 332.446 62.337 332.184 62.0383V69.6123H330.854V59.9103H331.932C332.371 60.377 332.838 60.923 333.332 61.5483C333.836 62.1643 334.331 62.8036 334.816 63.4663C335.311 64.1196 335.773 64.7636 336.202 65.3983C336.641 66.033 337.01 66.5976 337.308 67.0923V59.9103H338.638V69.6123H337.504Z" fill="#262626"/>
<g filter="url(#filter0_ddd_4928_194000)">
<path d="M116 28.5376L116 34.5376L116 40.5376L110 34.5376L116 28.5376Z" fill="#262626"/>
<rect x="116" y="18.5376" width="208" height="32" rx="2" fill="#262626"/>
<path d="M124.696 34.3736C124.696 33.6616 124.8 33.0336 125.008 32.4896C125.224 31.9456 125.512 31.4936 125.872 31.1336C126.24 30.7656 126.664 30.4896 127.144 30.3056C127.632 30.1216 128.148 30.0296 128.692 30.0296C129.228 30.0296 129.732 30.1216 130.204 30.3056C130.684 30.4896 131.104 30.7656 131.464 31.1336C131.824 31.4936 132.108 31.9456 132.316 32.4896C132.532 33.0336 132.64 33.6616 132.64 34.3736C132.64 35.0856 132.532 35.7136 132.316 36.2576C132.108 36.8016 131.824 37.2576 131.464 37.6256C131.104 37.9856 130.684 38.2576 130.204 38.4416C129.732 38.6256 129.228 38.7176 128.692 38.7176C128.148 38.7176 127.632 38.6256 127.144 38.4416C126.664 38.2576 126.24 37.9856 125.872 37.6256C125.512 37.2576 125.224 36.8016 125.008 36.2576C124.8 35.7136 124.696 35.0856 124.696 34.3736ZM125.92 34.3736C125.92 34.8776 125.984 35.3376 126.112 35.7536C126.24 36.1616 126.42 36.5096 126.652 36.7976C126.892 37.0856 127.18 37.3096 127.516 37.4696C127.86 37.6216 128.244 37.6976 128.668 37.6976C129.092 37.6976 129.472 37.6216 129.808 37.4696C130.144 37.3096 130.428 37.0856 130.66 36.7976C130.9 36.5096 131.084 36.1616 131.212 35.7536C131.34 35.3376 131.404 34.8776 131.404 34.3736C131.404 33.8696 131.34 33.4136 131.212 33.0056C131.084 32.5896 130.9 32.2376 130.66 31.9496C130.428 31.6616 130.144 31.4416 129.808 31.2896C129.472 31.1296 129.092 31.0496 128.668 31.0496C128.244 31.0496 127.86 31.1296 127.516 31.2896C127.18 31.4416 126.892 31.6616 126.652 31.9496C126.42 32.2376 126.24 32.5896 126.112 33.0056C125.984 33.4136 125.92 33.8696 125.92 34.3736ZM138.632 35.4296C138.632 34.7016 138.452 34.1416 138.092 33.7496C137.732 33.3576 137.252 33.1616 136.652 33.1616C136.316 33.1616 136.052 33.1736 135.86 33.1976C135.676 33.2216 135.528 33.2496 135.416 33.2816V37.2176C135.552 37.3296 135.748 37.4376 136.004 37.5416C136.26 37.6456 136.54 37.6976 136.844 37.6976C137.164 37.6976 137.436 37.6416 137.66 37.5296C137.892 37.4096 138.08 37.2496 138.224 37.0496C138.368 36.8416 138.472 36.6016 138.536 36.3296C138.6 36.0496 138.632 35.7496 138.632 35.4296ZM139.796 35.4296C139.796 35.9016 139.732 36.3376 139.604 36.7376C139.484 37.1376 139.304 37.4816 139.064 37.7696C138.824 38.0576 138.528 38.2816 138.176 38.4416C137.832 38.6016 137.436 38.6816 136.988 38.6816C136.628 38.6816 136.308 38.6336 136.028 38.5376C135.756 38.4416 135.552 38.3496 135.416 38.2616V40.7576H134.3V32.4896C134.564 32.4256 134.892 32.3576 135.284 32.2856C135.684 32.2056 136.144 32.1656 136.664 32.1656C137.144 32.1656 137.576 32.2416 137.96 32.3936C138.344 32.5456 138.672 32.7616 138.944 33.0416C139.216 33.3216 139.424 33.6656 139.568 34.0736C139.72 34.4736 139.796 34.9256 139.796 35.4296ZM142.41 32.2976H144.774V33.2336H142.41V36.1136C142.41 36.4256 142.434 36.6856 142.482 36.8936C142.53 37.0936 142.602 37.2536 142.698 37.3736C142.794 37.4856 142.914 37.5656 143.058 37.6136C143.202 37.6616 143.37 37.6856 143.562 37.6856C143.898 37.6856 144.166 37.6496 144.366 37.5776C144.574 37.4976 144.718 37.4416 144.798 37.4096L145.014 38.3336C144.902 38.3896 144.706 38.4576 144.426 38.5376C144.146 38.6256 143.826 38.6696 143.466 38.6696C143.042 38.6696 142.69 38.6176 142.41 38.5136C142.138 38.4016 141.918 38.2376 141.75 38.0216C141.582 37.8056 141.462 37.5416 141.39 37.2296C141.326 36.9096 141.294 36.5416 141.294 36.1256V30.5576L142.41 30.3656V32.2976ZM147.31 38.5376H146.194V32.2976H147.31V38.5376ZM146.746 31.1696C146.546 31.1696 146.374 31.1056 146.23 30.9776C146.094 30.8416 146.026 30.6616 146.026 30.4376C146.026 30.2136 146.094 30.0376 146.23 29.9096C146.374 29.7736 146.546 29.7056 146.746 29.7056C146.946 29.7056 147.114 29.7736 147.25 29.9096C147.394 30.0376 147.466 30.2136 147.466 30.4376C147.466 30.6616 147.394 30.8416 147.25 30.9776C147.114 31.1056 146.946 31.1696 146.746 31.1696ZM154.738 35.4176C154.738 35.9136 154.666 36.3616 154.522 36.7616C154.378 37.1616 154.174 37.5056 153.91 37.7936C153.654 38.0816 153.346 38.3056 152.986 38.4656C152.626 38.6176 152.234 38.6936 151.81 38.6936C151.386 38.6936 150.994 38.6176 150.634 38.4656C150.274 38.3056 149.962 38.0816 149.698 37.7936C149.442 37.5056 149.242 37.1616 149.098 36.7616C148.954 36.3616 148.882 35.9136 148.882 35.4176C148.882 34.9296 148.954 34.4856 149.098 34.0856C149.242 33.6776 149.442 33.3296 149.698 33.0416C149.962 32.7536 150.274 32.5336 150.634 32.3816C150.994 32.2216 151.386 32.1416 151.81 32.1416C152.234 32.1416 152.626 32.2216 152.986 32.3816C153.346 32.5336 153.654 32.7536 153.91 33.0416C154.174 33.3296 154.378 33.6776 154.522 34.0856C154.666 34.4856 154.738 34.9296 154.738 35.4176ZM153.574 35.4176C153.574 34.7136 153.414 34.1576 153.094 33.7496C152.782 33.3336 152.354 33.1256 151.81 33.1256C151.266 33.1256 150.834 33.3336 150.514 33.7496C150.202 34.1576 150.046 34.7136 150.046 35.4176C150.046 36.1216 150.202 36.6816 150.514 37.0976C150.834 37.5056 151.266 37.7096 151.81 37.7096C152.354 37.7096 152.782 37.5056 153.094 37.0976C153.414 36.6816 153.574 36.1216 153.574 35.4176ZM156.308 32.4776C156.564 32.4136 156.904 32.3456 157.328 32.2736C157.752 32.2016 158.24 32.1656 158.792 32.1656C159.288 32.1656 159.7 32.2376 160.028 32.3816C160.356 32.5176 160.616 32.7136 160.808 32.9696C161.008 33.2176 161.148 33.5176 161.228 33.8696C161.308 34.2216 161.348 34.6096 161.348 35.0336V38.5376H160.232V35.2736C160.232 34.8896 160.204 34.5616 160.148 34.2896C160.1 34.0176 160.016 33.7976 159.896 33.6296C159.776 33.4616 159.616 33.3416 159.416 33.2696C159.216 33.1896 158.968 33.1496 158.672 33.1496C158.552 33.1496 158.428 33.1536 158.3 33.1616C158.172 33.1696 158.048 33.1816 157.928 33.1976C157.816 33.2056 157.712 33.2176 157.616 33.2336C157.528 33.2496 157.464 33.2616 157.424 33.2696V38.5376H156.308V32.4776ZM165.31 37.7336C165.574 37.7336 165.806 37.7296 166.006 37.7216C166.214 37.7056 166.386 37.6816 166.522 37.6496V35.7896C166.442 35.7496 166.31 35.7176 166.126 35.6936C165.95 35.6616 165.734 35.6456 165.478 35.6456C165.31 35.6456 165.13 35.6576 164.938 35.6816C164.754 35.7056 164.582 35.7576 164.422 35.8376C164.27 35.9096 164.142 36.0136 164.038 36.1496C163.934 36.2776 163.882 36.4496 163.882 36.6656C163.882 37.0656 164.01 37.3456 164.266 37.5056C164.522 37.6576 164.87 37.7336 165.31 37.7336ZM165.214 32.1416C165.662 32.1416 166.038 32.2016 166.342 32.3216C166.654 32.4336 166.902 32.5976 167.086 32.8136C167.278 33.0216 167.414 33.2736 167.494 33.5696C167.574 33.8576 167.614 34.1776 167.614 34.5296V38.4296C167.518 38.4456 167.382 38.4696 167.206 38.5016C167.038 38.5256 166.846 38.5496 166.63 38.5736C166.414 38.5976 166.178 38.6176 165.922 38.6336C165.674 38.6576 165.426 38.6696 165.178 38.6696C164.826 38.6696 164.502 38.6336 164.206 38.5616C163.91 38.4896 163.654 38.3776 163.438 38.2256C163.222 38.0656 163.054 37.8576 162.934 37.6016C162.814 37.3456 162.754 37.0376 162.754 36.6776C162.754 36.3336 162.822 36.0376 162.958 35.7896C163.102 35.5416 163.294 35.3416 163.534 35.1896C163.774 35.0376 164.054 34.9256 164.374 34.8536C164.694 34.7816 165.03 34.7456 165.382 34.7456C165.494 34.7456 165.61 34.7536 165.73 34.7696C165.85 34.7776 165.962 34.7936 166.066 34.8176C166.178 34.8336 166.274 34.8496 166.354 34.8656C166.434 34.8816 166.49 34.8936 166.522 34.9016V34.5896C166.522 34.4056 166.502 34.2256 166.462 34.0496C166.422 33.8656 166.35 33.7056 166.246 33.5696C166.142 33.4256 165.998 33.3136 165.814 33.2336C165.638 33.1456 165.406 33.1016 165.118 33.1016C164.75 33.1016 164.426 33.1296 164.146 33.1856C163.874 33.2336 163.67 33.2856 163.534 33.3416L163.402 32.4176C163.546 32.3536 163.786 32.2936 164.122 32.2376C164.458 32.1736 164.822 32.1416 165.214 32.1416ZM171.34 38.6576C170.652 38.6416 170.164 38.4936 169.876 38.2136C169.588 37.9336 169.444 37.4976 169.444 36.9056V29.4176L170.56 29.2256V36.7256C170.56 36.9096 170.576 37.0616 170.608 37.1816C170.64 37.3016 170.692 37.3976 170.764 37.4696C170.836 37.5416 170.932 37.5976 171.052 37.6376C171.172 37.6696 171.32 37.6976 171.496 37.7216L171.34 38.6576ZM174.069 37.8896C174.069 38.1056 173.997 38.2936 173.853 38.4536C173.709 38.6136 173.513 38.6936 173.265 38.6936C173.017 38.6936 172.821 38.6136 172.677 38.4536C172.533 38.2936 172.461 38.1056 172.461 37.8896C172.461 37.6736 172.533 37.4856 172.677 37.3256C172.821 37.1656 173.017 37.0856 173.265 37.0856C173.513 37.0856 173.709 37.1656 173.853 37.3256C173.997 37.4856 174.069 37.6736 174.069 37.8896ZM182.548 35.8616C182.548 36.2616 182.504 36.6336 182.416 36.9776C182.336 37.3216 182.188 37.6256 181.972 37.8896C181.764 38.1456 181.48 38.3496 181.12 38.5016C180.768 38.6456 180.324 38.7176 179.788 38.7176C179.516 38.7176 179.264 38.6936 179.032 38.6456C178.808 38.6056 178.604 38.5536 178.42 38.4896C178.236 38.4176 178.076 38.3456 177.94 38.2736C177.804 38.1936 177.696 38.1176 177.616 38.0456L178.072 37.1216C178.24 37.2416 178.456 37.3696 178.72 37.5056C178.992 37.6336 179.328 37.6976 179.728 37.6976C180.304 37.6976 180.724 37.5536 180.988 37.2656C181.252 36.9696 181.384 36.4656 181.384 35.7536V30.2216H182.548V35.8616ZM189.448 38.3576C189.192 38.4216 188.852 38.4896 188.428 38.5616C188.012 38.6336 187.528 38.6696 186.976 38.6696C186.496 38.6696 186.092 38.6016 185.764 38.4656C185.436 38.3216 185.172 38.1216 184.972 37.8656C184.772 37.6096 184.628 37.3096 184.54 36.9656C184.452 36.6136 184.408 36.2256 184.408 35.8016V32.2976H185.524V35.5616C185.524 36.3216 185.644 36.8656 185.884 37.1936C186.124 37.5216 186.528 37.6856 187.096 37.6856C187.216 37.6856 187.34 37.6816 187.468 37.6736C187.596 37.6656 187.716 37.6576 187.828 37.6496C187.94 37.6336 188.04 37.6216 188.128 37.6136C188.224 37.5976 188.292 37.5816 188.332 37.5656V32.2976H189.448V38.3576ZM192.822 37.7336C193.278 37.7336 193.614 37.6736 193.83 37.5536C194.054 37.4336 194.166 37.2416 194.166 36.9776C194.166 36.7056 194.058 36.4896 193.842 36.3296C193.626 36.1696 193.27 35.9896 192.774 35.7896C192.534 35.6936 192.302 35.5976 192.078 35.5016C191.862 35.3976 191.674 35.2776 191.514 35.1416C191.354 35.0056 191.226 34.8416 191.13 34.6496C191.034 34.4576 190.986 34.2216 190.986 33.9416C190.986 33.3896 191.19 32.9536 191.598 32.6336C192.006 32.3056 192.562 32.1416 193.266 32.1416C193.442 32.1416 193.618 32.1536 193.794 32.1776C193.97 32.1936 194.134 32.2176 194.286 32.2496C194.438 32.2736 194.57 32.3016 194.682 32.3336C194.802 32.3656 194.894 32.3936 194.958 32.4176L194.754 33.3776C194.634 33.3136 194.446 33.2496 194.19 33.1856C193.934 33.1136 193.626 33.0776 193.266 33.0776C192.954 33.0776 192.682 33.1416 192.45 33.2696C192.218 33.3896 192.102 33.5816 192.102 33.8456C192.102 33.9816 192.126 34.1016 192.174 34.2056C192.23 34.3096 192.31 34.4056 192.414 34.4936C192.526 34.5736 192.662 34.6496 192.822 34.7216C192.982 34.7936 193.174 34.8696 193.398 34.9496C193.694 35.0616 193.958 35.1736 194.19 35.2856C194.422 35.3896 194.618 35.5136 194.778 35.6576C194.946 35.8016 195.074 35.9776 195.162 36.1856C195.25 36.3856 195.294 36.6336 195.294 36.9296C195.294 37.5056 195.078 37.9416 194.646 38.2376C194.222 38.5336 193.614 38.6816 192.822 38.6816C192.27 38.6816 191.838 38.6336 191.526 38.5376C191.214 38.4496 191.002 38.3816 190.89 38.3336L191.094 37.3736C191.222 37.4216 191.426 37.4936 191.706 37.5896C191.986 37.6856 192.358 37.7336 192.822 37.7336ZM197.77 32.2976H200.134V33.2336H197.77V36.1136C197.77 36.4256 197.794 36.6856 197.842 36.8936C197.89 37.0936 197.962 37.2536 198.058 37.3736C198.154 37.4856 198.274 37.5656 198.418 37.6136C198.562 37.6616 198.73 37.6856 198.922 37.6856C199.258 37.6856 199.526 37.6496 199.726 37.5776C199.934 37.4976 200.078 37.4416 200.158 37.4096L200.374 38.3336C200.262 38.3896 200.066 38.4576 199.786 38.5376C199.506 38.6256 199.186 38.6696 198.826 38.6696C198.402 38.6696 198.05 38.6176 197.77 38.5136C197.498 38.4016 197.278 38.2376 197.11 38.0216C196.942 37.8056 196.822 37.5416 196.75 37.2296C196.686 36.9096 196.654 36.5416 196.654 36.1256V30.5576L197.77 30.3656V32.2976ZM206.767 29.2256C207.095 29.2256 207.375 29.2496 207.607 29.2976C207.847 29.3456 208.015 29.3896 208.111 29.4296L207.907 30.3896C207.811 30.3416 207.675 30.2976 207.499 30.2576C207.323 30.2096 207.107 30.1856 206.851 30.1856C206.331 30.1856 205.967 30.3296 205.759 30.6176C205.551 30.8976 205.447 31.2776 205.447 31.7576V32.2976H207.847V33.2336H205.447V38.5376H204.331V31.7336C204.331 30.9336 204.527 30.3176 204.919 29.8856C205.311 29.4456 205.927 29.2256 206.767 29.2256ZM214.468 35.4176C214.468 35.9136 214.396 36.3616 214.252 36.7616C214.108 37.1616 213.904 37.5056 213.64 37.7936C213.384 38.0816 213.076 38.3056 212.716 38.4656C212.356 38.6176 211.964 38.6936 211.54 38.6936C211.116 38.6936 210.724 38.6176 210.364 38.4656C210.004 38.3056 209.692 38.0816 209.428 37.7936C209.172 37.5056 208.972 37.1616 208.828 36.7616C208.684 36.3616 208.612 35.9136 208.612 35.4176C208.612 34.9296 208.684 34.4856 208.828 34.0856C208.972 33.6776 209.172 33.3296 209.428 33.0416C209.692 32.7536 210.004 32.5336 210.364 32.3816C210.724 32.2216 211.116 32.1416 211.54 32.1416C211.964 32.1416 212.356 32.2216 212.716 32.3816C213.076 32.5336 213.384 32.7536 213.64 33.0416C213.904 33.3296 214.108 33.6776 214.252 34.0856C214.396 34.4856 214.468 34.9296 214.468 35.4176ZM213.304 35.4176C213.304 34.7136 213.144 34.1576 212.824 33.7496C212.512 33.3336 212.084 33.1256 211.54 33.1256C210.996 33.1256 210.564 33.3336 210.244 33.7496C209.932 34.1576 209.776 34.7136 209.776 35.4176C209.776 36.1216 209.932 36.6816 210.244 37.0976C210.564 37.5056 210.996 37.7096 211.54 37.7096C212.084 37.7096 212.512 37.5056 212.824 37.0976C213.144 36.6816 213.304 36.1216 213.304 35.4176ZM218.342 32.1656C218.438 32.1656 218.546 32.1736 218.666 32.1896C218.794 32.1976 218.918 32.2136 219.038 32.2376C219.158 32.2536 219.266 32.2736 219.362 32.2976C219.466 32.3136 219.542 32.3296 219.59 32.3456L219.398 33.3176C219.31 33.2856 219.162 33.2496 218.954 33.2096C218.754 33.1616 218.494 33.1376 218.174 33.1376C217.966 33.1376 217.758 33.1616 217.55 33.2096C217.35 33.2496 217.218 33.2776 217.154 33.2936V38.5376H216.038V32.5616C216.302 32.4656 216.63 32.3776 217.022 32.2976C217.414 32.2096 217.854 32.1656 218.342 32.1656ZM227.092 38.7176C226.508 38.7176 225.976 38.6216 225.496 38.4296C225.016 38.2376 224.604 37.9576 224.26 37.5896C223.916 37.2216 223.648 36.7696 223.456 36.2336C223.272 35.6896 223.18 35.0696 223.18 34.3736C223.18 33.6776 223.284 33.0616 223.492 32.5256C223.708 31.9816 223.996 31.5256 224.356 31.1576C224.716 30.7896 225.136 30.5096 225.616 30.3176C226.096 30.1256 226.608 30.0296 227.152 30.0296C227.496 30.0296 227.804 30.0536 228.076 30.1016C228.356 30.1496 228.596 30.2056 228.796 30.2696C229.004 30.3336 229.172 30.3976 229.3 30.4616C229.428 30.5256 229.516 30.5736 229.564 30.6056L229.228 31.5656C229.156 31.5176 229.052 31.4656 228.916 31.4096C228.78 31.3536 228.624 31.2976 228.448 31.2416C228.28 31.1856 228.092 31.1416 227.884 31.1096C227.684 31.0696 227.48 31.0496 227.272 31.0496C226.832 31.0496 226.436 31.1256 226.084 31.2776C225.732 31.4296 225.432 31.6496 225.184 31.9376C224.936 32.2256 224.744 32.5776 224.608 32.9936C224.48 33.4016 224.416 33.8616 224.416 34.3736C224.416 34.8696 224.472 35.3216 224.584 35.7296C224.704 36.1376 224.88 36.4896 225.112 36.7856C225.344 37.0736 225.632 37.2976 225.976 37.4576C226.328 37.6176 226.736 37.6976 227.2 37.6976C227.736 37.6976 228.18 37.6416 228.532 37.5296C228.884 37.4176 229.148 37.3176 229.324 37.2296L229.624 38.1896C229.568 38.2296 229.468 38.2816 229.324 38.3456C229.18 38.4016 229 38.4576 228.784 38.5136C228.568 38.5696 228.316 38.6176 228.028 38.6576C227.74 38.6976 227.428 38.7176 227.092 38.7176ZM230.778 40.7576H229.638L233.706 29.1416H234.822L230.778 40.7576ZM241.917 38.7176C241.333 38.7176 240.801 38.6216 240.321 38.4296C239.841 38.2376 239.429 37.9576 239.085 37.5896C238.741 37.2216 238.473 36.7696 238.281 36.2336C238.097 35.6896 238.005 35.0696 238.005 34.3736C238.005 33.6776 238.109 33.0616 238.317 32.5256C238.533 31.9816 238.821 31.5256 239.181 31.1576C239.541 30.7896 239.961 30.5096 240.441 30.3176C240.921 30.1256 241.433 30.0296 241.977 30.0296C242.321 30.0296 242.629 30.0536 242.901 30.1016C243.181 30.1496 243.421 30.2056 243.621 30.2696C243.829 30.3336 243.997 30.3976 244.125 30.4616C244.253 30.5256 244.341 30.5736 244.389 30.6056L244.053 31.5656C243.981 31.5176 243.877 31.4656 243.741 31.4096C243.605 31.3536 243.449 31.2976 243.273 31.2416C243.105 31.1856 242.917 31.1416 242.709 31.1096C242.509 31.0696 242.305 31.0496 242.097 31.0496C241.657 31.0496 241.261 31.1256 240.909 31.2776C240.557 31.4296 240.257 31.6496 240.009 31.9376C239.761 32.2256 239.569 32.5776 239.433 32.9936C239.305 33.4016 239.241 33.8616 239.241 34.3736C239.241 34.8696 239.297 35.3216 239.409 35.7296C239.529 36.1376 239.705 36.4896 239.937 36.7856C240.169 37.0736 240.457 37.2976 240.801 37.4576C241.153 37.6176 241.561 37.6976 242.025 37.6976C242.561 37.6976 243.005 37.6416 243.357 37.5296C243.709 37.4176 243.973 37.3176 244.149 37.2296L244.449 38.1896C244.393 38.2296 244.293 38.2816 244.149 38.3456C244.005 38.4016 243.825 38.4576 243.609 38.5136C243.393 38.5696 243.141 38.6176 242.853 38.6576C242.565 38.6976 242.253 38.7176 241.917 38.7176ZM245.386 34.4696H247.654V31.9976H248.614V34.4696H250.882V35.4176H248.614V37.9016H247.654V35.4176H245.386V34.4696ZM252.159 34.4696H254.427V31.9976H255.387V34.4696H257.655V35.4176H255.387V37.9016H254.427V35.4176H252.159V34.4696ZM261.926 40.7576H260.786L264.854 29.1416H265.97L261.926 40.7576ZM273.557 35.0576C273.685 35.2176 273.845 35.4296 274.037 35.6936C274.237 35.9496 274.441 36.2376 274.649 36.5576C274.857 36.8696 275.061 37.1976 275.261 37.5416C275.469 37.8856 275.645 38.2176 275.789 38.5376H274.517C274.357 38.2336 274.181 37.9256 273.989 37.6136C273.805 37.3016 273.617 37.0056 273.425 36.7256C273.233 36.4376 273.041 36.1696 272.849 35.9216C272.665 35.6736 272.497 35.4576 272.345 35.2736C272.241 35.2816 272.133 35.2856 272.021 35.2856C271.917 35.2856 271.809 35.2856 271.697 35.2856H270.653V38.5376H269.489V30.3416C269.817 30.2616 270.181 30.2096 270.581 30.1856C270.989 30.1536 271.361 30.1376 271.697 30.1376C272.865 30.1376 273.753 30.3576 274.361 30.7976C274.977 31.2376 275.285 31.8936 275.285 32.7656C275.285 33.3176 275.137 33.7896 274.841 34.1816C274.553 34.5736 274.125 34.8656 273.557 35.0576ZM271.793 31.1576C271.297 31.1576 270.917 31.1696 270.653 31.1936V34.3256H271.481C271.881 34.3256 272.241 34.3056 272.561 34.2656C272.881 34.2256 273.149 34.1496 273.365 34.0376C273.589 33.9256 273.761 33.7696 273.881 33.5696C274.001 33.3616 274.061 33.0896 274.061 32.7536C274.061 32.4416 274.001 32.1816 273.881 31.9736C273.761 31.7656 273.597 31.6016 273.389 31.4816C273.189 31.3616 272.949 31.2776 272.669 31.2296C272.397 31.1816 272.105 31.1576 271.793 31.1576ZM281.932 38.3576C281.676 38.4216 281.336 38.4896 280.912 38.5616C280.496 38.6336 280.012 38.6696 279.46 38.6696C278.98 38.6696 278.576 38.6016 278.248 38.4656C277.92 38.3216 277.656 38.1216 277.456 37.8656C277.256 37.6096 277.112 37.3096 277.024 36.9656C276.936 36.6136 276.892 36.2256 276.892 35.8016V32.2976H278.008V35.5616C278.008 36.3216 278.128 36.8656 278.368 37.1936C278.608 37.5216 279.012 37.6856 279.58 37.6856C279.7 37.6856 279.824 37.6816 279.952 37.6736C280.08 37.6656 280.2 37.6576 280.312 37.6496C280.424 37.6336 280.524 37.6216 280.612 37.6136C280.708 37.5976 280.776 37.5816 280.816 37.5656V32.2976H281.932V38.3576ZM285.307 37.7336C285.763 37.7336 286.099 37.6736 286.315 37.5536C286.539 37.4336 286.651 37.2416 286.651 36.9776C286.651 36.7056 286.543 36.4896 286.327 36.3296C286.111 36.1696 285.755 35.9896 285.259 35.7896C285.019 35.6936 284.787 35.5976 284.563 35.5016C284.347 35.3976 284.159 35.2776 283.999 35.1416C283.839 35.0056 283.711 34.8416 283.615 34.6496C283.519 34.4576 283.471 34.2216 283.471 33.9416C283.471 33.3896 283.675 32.9536 284.083 32.6336C284.491 32.3056 285.047 32.1416 285.751 32.1416C285.927 32.1416 286.103 32.1536 286.279 32.1776C286.455 32.1936 286.619 32.2176 286.771 32.2496C286.923 32.2736 287.055 32.3016 287.167 32.3336C287.287 32.3656 287.379 32.3936 287.443 32.4176L287.239 33.3776C287.119 33.3136 286.931 33.2496 286.675 33.1856C286.419 33.1136 286.111 33.0776 285.751 33.0776C285.439 33.0776 285.167 33.1416 284.935 33.2696C284.703 33.3896 284.587 33.5816 284.587 33.8456C284.587 33.9816 284.611 34.1016 284.659 34.2056C284.715 34.3096 284.795 34.4056 284.899 34.4936C285.011 34.5736 285.147 34.6496 285.307 34.7216C285.467 34.7936 285.659 34.8696 285.883 34.9496C286.179 35.0616 286.443 35.1736 286.675 35.2856C286.907 35.3896 287.103 35.5136 287.263 35.6576C287.431 35.8016 287.559 35.9776 287.647 36.1856C287.735 36.3856 287.779 36.6336 287.779 36.9296C287.779 37.5056 287.563 37.9416 287.131 38.2376C286.707 38.5336 286.099 38.6816 285.307 38.6816C284.755 38.6816 284.323 38.6336 284.011 38.5376C283.699 38.4496 283.487 38.3816 283.375 38.3336L283.579 37.3736C283.707 37.4216 283.911 37.4936 284.191 37.5896C284.471 37.6856 284.843 37.7336 285.307 37.7336ZM290.254 32.2976H292.618V33.2336H290.254V36.1136C290.254 36.4256 290.278 36.6856 290.326 36.8936C290.374 37.0936 290.446 37.2536 290.542 37.3736C290.638 37.4856 290.758 37.5656 290.902 37.6136C291.046 37.6616 291.214 37.6856 291.406 37.6856C291.742 37.6856 292.01 37.6496 292.21 37.5776C292.418 37.4976 292.562 37.4416 292.642 37.4096L292.858 38.3336C292.746 38.3896 292.55 38.4576 292.27 38.5376C291.99 38.6256 291.67 38.6696 291.31 38.6696C290.886 38.6696 290.534 38.6176 290.254 38.5136C289.982 38.4016 289.762 38.2376 289.594 38.0216C289.426 37.8056 289.306 37.5416 289.234 37.2296C289.17 36.9096 289.138 36.5416 289.138 36.1256V30.5576L290.254 30.3656V32.2976ZM296.707 40.7576H295.567L299.635 29.1416H300.751L296.707 40.7576ZM306.241 34.4456H307.405V38.3336C307.309 38.3656 307.169 38.4016 306.985 38.4416C306.809 38.4816 306.601 38.5216 306.361 38.5616C306.129 38.6016 305.873 38.6336 305.593 38.6576C305.313 38.6896 305.029 38.7056 304.741 38.7056C304.157 38.7056 303.625 38.6096 303.145 38.4176C302.665 38.2256 302.253 37.9456 301.909 37.5776C301.565 37.2096 301.297 36.7576 301.105 36.2216C300.921 35.6856 300.829 35.0696 300.829 34.3736C300.829 33.6776 300.933 33.0616 301.141 32.5256C301.357 31.9816 301.645 31.5256 302.005 31.1576C302.365 30.7896 302.785 30.5096 303.265 30.3176C303.753 30.1256 304.273 30.0296 304.825 30.0296C305.201 30.0296 305.533 30.0536 305.821 30.1016C306.117 30.1496 306.369 30.2056 306.577 30.2696C306.785 30.3336 306.953 30.3976 307.081 30.4616C307.217 30.5256 307.309 30.5736 307.357 30.6056L306.985 31.5776C306.753 31.4256 306.445 31.3016 306.061 31.2056C305.677 31.1016 305.285 31.0496 304.885 31.0496C304.461 31.0496 304.073 31.1256 303.721 31.2776C303.377 31.4296 303.081 31.6496 302.833 31.9376C302.593 32.2256 302.405 32.5776 302.269 32.9936C302.133 33.4016 302.065 33.8616 302.065 34.3736C302.065 34.8696 302.121 35.3216 302.233 35.7296C302.353 36.1376 302.529 36.4896 302.761 36.7856C303.001 37.0736 303.293 37.2976 303.637 37.4576C303.989 37.6176 304.401 37.6976 304.873 37.6976C305.209 37.6976 305.493 37.6816 305.725 37.6496C305.965 37.6096 306.137 37.5736 306.241 37.5416V34.4456ZM314.663 35.4176C314.663 35.9136 314.591 36.3616 314.447 36.7616C314.303 37.1616 314.099 37.5056 313.835 37.7936C313.579 38.0816 313.271 38.3056 312.911 38.4656C312.551 38.6176 312.159 38.6936 311.735 38.6936C311.311 38.6936 310.919 38.6176 310.559 38.4656C310.199 38.3056 309.887 38.0816 309.623 37.7936C309.367 37.5056 309.167 37.1616 309.023 36.7616C308.879 36.3616 308.807 35.9136 308.807 35.4176C308.807 34.9296 308.879 34.4856 309.023 34.0856C309.167 33.6776 309.367 33.3296 309.623 33.0416C309.887 32.7536 310.199 32.5336 310.559 32.3816C310.919 32.2216 311.311 32.1416 311.735 32.1416C312.159 32.1416 312.551 32.2216 312.911 32.3816C313.271 32.5336 313.579 32.7536 313.835 33.0416C314.099 33.3296 314.303 33.6776 314.447 34.0856C314.591 34.4856 314.663 34.9296 314.663 35.4176ZM313.499 35.4176C313.499 34.7136 313.339 34.1576 313.019 33.7496C312.707 33.3336 312.279 33.1256 311.735 33.1256C311.191 33.1256 310.759 33.3336 310.439 33.7496C310.127 34.1576 309.971 34.7136 309.971 35.4176C309.971 36.1216 310.127 36.6816 310.439 37.0976C310.759 37.5056 311.191 37.7096 311.735 37.7096C312.279 37.7096 312.707 37.5056 313.019 37.0976C313.339 36.6816 313.499 36.1216 313.499 35.4176Z" fill="white"/>
</g>
<rect width="500" height="62" transform="translate(26 102)" fill="white"/>
<path d="M31.474 118.21C30.746 118.21 30.0927 118.098 29.514 117.874C28.9353 117.65 28.4453 117.323 28.044 116.894C27.6427 116.455 27.3347 115.923 27.12 115.298C26.9053 114.673 26.798 113.954 26.798 113.142C26.798 112.33 26.9193 111.611 27.162 110.986C27.414 110.361 27.7547 109.833 28.184 109.404C28.6133 108.965 29.1173 108.634 29.696 108.41C30.2747 108.186 30.8953 108.074 31.558 108.074C31.9593 108.074 32.3233 108.107 32.65 108.172C32.9767 108.228 33.2613 108.293 33.504 108.368C33.7467 108.443 33.9473 108.522 34.106 108.606C34.2647 108.69 34.3767 108.751 34.442 108.788L33.924 110.23C33.7 110.09 33.378 109.959 32.958 109.838C32.5473 109.707 32.0993 109.642 31.614 109.642C31.194 109.642 30.802 109.717 30.438 109.866C30.074 110.006 29.7567 110.221 29.486 110.51C29.2247 110.799 29.0193 111.163 28.87 111.602C28.7207 112.041 28.646 112.549 28.646 113.128C28.646 113.641 28.702 114.113 28.814 114.542C28.9353 114.971 29.1173 115.345 29.36 115.662C29.6027 115.97 29.9107 116.213 30.284 116.39C30.6573 116.558 31.1053 116.642 31.628 116.642C32.2533 116.642 32.762 116.581 33.154 116.46C33.546 116.329 33.8493 116.208 34.064 116.096L34.54 117.538C34.428 117.613 34.274 117.687 34.078 117.762C33.8913 117.837 33.6673 117.911 33.406 117.986C33.1447 118.051 32.8507 118.103 32.524 118.14C32.1973 118.187 31.8473 118.21 31.474 118.21ZM38.8337 108.2C40.2431 108.2 41.3211 108.457 42.0677 108.97C42.8237 109.483 43.2017 110.286 43.2017 111.378C43.2017 111.947 43.0991 112.437 42.8937 112.848C42.6977 113.249 42.4084 113.581 42.0257 113.842C41.6431 114.094 41.1764 114.281 40.6257 114.402C40.0751 114.523 39.4451 114.584 38.7357 114.584H37.8537V118H36.0897V108.438C36.5004 108.345 36.9531 108.284 37.4477 108.256C37.9517 108.219 38.4137 108.2 38.8337 108.2ZM38.9597 109.726C38.5117 109.726 38.1431 109.74 37.8537 109.768V113.072H38.7077C39.5571 113.072 40.2104 112.955 40.6677 112.722C41.1251 112.479 41.3537 112.027 41.3537 111.364C41.3537 111.047 41.2931 110.781 41.1717 110.566C41.0504 110.351 40.8824 110.183 40.6677 110.062C40.4531 109.941 40.1964 109.857 39.8977 109.81C39.6084 109.754 39.2957 109.726 38.9597 109.726ZM48.5504 118.21C47.8877 118.21 47.3184 118.117 46.8424 117.93C46.3664 117.734 45.9697 117.463 45.6524 117.118C45.3444 116.773 45.1157 116.367 44.9664 115.9C44.8171 115.433 44.7424 114.92 44.7424 114.36V108.298H46.5204V114.192C46.5204 114.631 46.5671 115.009 46.6604 115.326C46.7631 115.634 46.9031 115.886 47.0804 116.082C47.2671 116.278 47.4817 116.423 47.7244 116.516C47.9764 116.609 48.2564 116.656 48.5644 116.656C48.8724 116.656 49.1524 116.609 49.4044 116.516C49.6564 116.423 49.8711 116.278 50.0484 116.082C50.2351 115.886 50.3751 115.634 50.4684 115.326C50.5711 115.009 50.6224 114.631 50.6224 114.192V108.298H52.4004V114.36C52.4004 114.92 52.3211 115.433 52.1624 115.9C52.0131 116.367 51.7797 116.773 51.4624 117.118C51.1544 117.463 50.7577 117.734 50.2724 117.93C49.7871 118.117 49.2131 118.21 48.5504 118.21Z" fill="#262626"/>
<path d="M59.12 110.93C59.4187 110.855 59.8107 110.776 60.296 110.692C60.7907 110.608 61.36 110.566 62.004 110.566C62.4707 110.566 62.8627 110.631 63.18 110.762C63.4973 110.883 63.7633 111.065 63.978 111.308C64.0433 111.261 64.146 111.196 64.286 111.112C64.426 111.028 64.5987 110.949 64.804 110.874C65.0093 110.79 65.238 110.72 65.49 110.664C65.742 110.599 66.0127 110.566 66.302 110.566C66.862 110.566 67.3193 110.65 67.674 110.818C68.0287 110.977 68.304 111.205 68.5 111.504C68.7053 111.803 68.8407 112.157 68.906 112.568C68.9807 112.979 69.018 113.427 69.018 113.912V118H67.716V114.192C67.716 113.763 67.6927 113.394 67.646 113.086C67.6087 112.778 67.5293 112.521 67.408 112.316C67.296 112.111 67.1373 111.961 66.932 111.868C66.736 111.765 66.4793 111.714 66.162 111.714C65.7233 111.714 65.3593 111.775 65.07 111.896C64.79 112.008 64.5987 112.111 64.496 112.204C64.5707 112.447 64.6267 112.713 64.664 113.002C64.7013 113.291 64.72 113.595 64.72 113.912V118H63.418V114.192C63.418 113.763 63.3947 113.394 63.348 113.086C63.3013 112.778 63.2173 112.521 63.096 112.316C62.984 112.111 62.8253 111.961 62.62 111.868C62.424 111.765 62.172 111.714 61.864 111.714C61.7333 111.714 61.5933 111.719 61.444 111.728C61.2947 111.737 61.15 111.751 61.01 111.77C60.8793 111.779 60.758 111.793 60.646 111.812C60.534 111.831 60.4593 111.845 60.422 111.854V118H59.12V110.93ZM74.3426 118.168C73.7546 118.168 73.2366 118.075 72.7886 117.888C72.3499 117.701 71.9766 117.44 71.6686 117.104C71.3699 116.768 71.1459 116.371 70.9966 115.914C70.8473 115.447 70.7726 114.934 70.7726 114.374C70.7726 113.814 70.8519 113.301 71.0106 112.834C71.1786 112.367 71.4119 111.966 71.7106 111.63C72.0093 111.285 72.3733 111.019 72.8026 110.832C73.2413 110.636 73.7266 110.538 74.2586 110.538C74.5853 110.538 74.9119 110.566 75.2386 110.622C75.5653 110.678 75.8779 110.767 76.1766 110.888L75.8826 111.994C75.6866 111.901 75.4579 111.826 75.1966 111.77C74.9446 111.714 74.6739 111.686 74.3846 111.686C73.6566 111.686 73.0966 111.915 72.7046 112.372C72.3219 112.829 72.1306 113.497 72.1306 114.374C72.1306 114.766 72.1726 115.125 72.2566 115.452C72.3499 115.779 72.4899 116.059 72.6766 116.292C72.8726 116.525 73.1199 116.707 73.4186 116.838C73.7173 116.959 74.0813 117.02 74.5106 117.02C74.8559 117.02 75.1686 116.987 75.4486 116.922C75.7286 116.857 75.9479 116.787 76.1066 116.712L76.2886 117.804C76.2139 117.851 76.1066 117.897 75.9666 117.944C75.8266 117.981 75.6679 118.014 75.4906 118.042C75.3133 118.079 75.1219 118.107 74.9166 118.126C74.7206 118.154 74.5293 118.168 74.3426 118.168ZM82.7404 114.374C82.7404 113.525 82.5304 112.871 82.1104 112.414C81.6904 111.957 81.1304 111.728 80.4304 111.728C80.0384 111.728 79.7304 111.742 79.5064 111.77C79.2917 111.798 79.1191 111.831 78.9884 111.868V116.46C79.1471 116.591 79.3757 116.717 79.6744 116.838C79.9731 116.959 80.2997 117.02 80.6544 117.02C81.0277 117.02 81.3451 116.955 81.6064 116.824C81.8771 116.684 82.0964 116.497 82.2644 116.264C82.4324 116.021 82.5537 115.741 82.6284 115.424C82.7031 115.097 82.7404 114.747 82.7404 114.374ZM84.0984 114.374C84.0984 114.925 84.0237 115.433 83.8744 115.9C83.7344 116.367 83.5244 116.768 83.2444 117.104C82.9644 117.44 82.6191 117.701 82.2084 117.888C81.8071 118.075 81.3451 118.168 80.8224 118.168C80.4024 118.168 80.0291 118.112 79.7024 118C79.3851 117.888 79.1471 117.781 78.9884 117.678V120.59H77.6864V110.944C77.9944 110.869 78.3771 110.79 78.8344 110.706C79.3011 110.613 79.8377 110.566 80.4444 110.566C81.0044 110.566 81.5084 110.655 81.9564 110.832C82.4044 111.009 82.7871 111.261 83.1044 111.588C83.4217 111.915 83.6644 112.316 83.8324 112.792C84.0097 113.259 84.0984 113.786 84.0984 114.374ZM91.7265 117.79C91.4279 117.865 91.0312 117.944 90.5365 118.028C90.0512 118.112 89.4865 118.154 88.8425 118.154C88.2825 118.154 87.8112 118.075 87.4285 117.916C87.0459 117.748 86.7379 117.515 86.5045 117.216C86.2712 116.917 86.1032 116.567 86.0005 116.166C85.8979 115.755 85.8465 115.303 85.8465 114.808V110.72H87.1485V114.528C87.1485 115.415 87.2885 116.049 87.5685 116.432C87.8485 116.815 88.3199 117.006 88.9825 117.006C89.1225 117.006 89.2672 117.001 89.4165 116.992C89.5659 116.983 89.7059 116.973 89.8365 116.964C89.9672 116.945 90.0839 116.931 90.1865 116.922C90.2985 116.903 90.3779 116.885 90.4245 116.866V110.72H91.7265V117.79ZM96.1536 118.14C95.3509 118.121 94.7816 117.949 94.4456 117.622C94.1096 117.295 93.9416 116.787 93.9416 116.096V107.36L95.2436 107.136V115.886C95.2436 116.101 95.2623 116.278 95.2996 116.418C95.3369 116.558 95.3976 116.67 95.4816 116.754C95.5656 116.838 95.6776 116.903 95.8176 116.95C95.9576 116.987 96.1303 117.02 96.3356 117.048L96.1536 118.14Z" fill="#767593"/>
<g clip-path="url(#clip1_4928_194000)">
<rect x="26" y="149" width="131.5" height="4" fill="#F0F2F5"/>
<g clip-path="url(#clip2_4928_194000)">
<rect x="-8.31329" y="149" width="62" height="4" fill="#9254DE"/>
<circle cx="53.6867" cy="151" r="6" fill="white" stroke="#9254DE" stroke-width="2"/>
</g>
<rect x="181.5" y="139" width="24" height="24" rx="12" fill="#C4C7CF"/>
<path d="M199.125 150.406H187.875C187.806 150.406 187.75 150.462 187.75 150.531V151.469C187.75 151.538 187.806 151.594 187.875 151.594H199.125C199.194 151.594 199.25 151.538 199.25 151.469V150.531C199.25 150.462 199.194 150.406 199.125 150.406Z" fill="#262626"/>
<path d="M214.9 148.3C215.432 148.095 215.95 147.833 216.454 147.516C216.958 147.189 217.42 146.783 217.84 146.298H218.764V156H217.462V148.104C217.35 148.207 217.21 148.314 217.042 148.426C216.883 148.538 216.706 148.645 216.51 148.748C216.323 148.851 216.122 148.949 215.908 149.042C215.702 149.135 215.502 149.215 215.306 149.28L214.9 148.3ZM222.382 152.108C222.382 151.165 222.513 150.335 222.774 149.616C223.035 148.888 223.404 148.277 223.88 147.782C224.365 147.287 224.949 146.914 225.63 146.662C226.321 146.401 227.095 146.265 227.954 146.256L228.052 147.348C227.501 147.357 226.997 147.418 226.54 147.53C226.092 147.642 225.691 147.819 225.336 148.062C224.981 148.305 224.683 148.622 224.44 149.014C224.197 149.397 224.015 149.873 223.894 150.442C224.137 150.33 224.407 150.237 224.706 150.162C225.014 150.087 225.331 150.05 225.658 150.05C226.209 150.05 226.675 150.134 227.058 150.302C227.441 150.47 227.753 150.694 227.996 150.974C228.239 151.245 228.411 151.562 228.514 151.926C228.626 152.281 228.682 152.654 228.682 153.046C228.682 153.401 228.621 153.765 228.5 154.138C228.379 154.511 228.192 154.852 227.94 155.16C227.697 155.468 227.385 155.72 227.002 155.916C226.619 156.112 226.167 156.21 225.644 156.21C224.58 156.21 223.768 155.846 223.208 155.118C222.657 154.39 222.382 153.387 222.382 152.108ZM225.518 151.114C225.191 151.114 224.888 151.147 224.608 151.212C224.328 151.268 224.048 151.357 223.768 151.478C223.759 151.581 223.749 151.688 223.74 151.8C223.74 151.903 223.74 152.005 223.74 152.108C223.74 152.519 223.768 152.906 223.824 153.27C223.88 153.634 223.978 153.956 224.118 154.236C224.267 154.507 224.463 154.726 224.706 154.894C224.949 155.053 225.257 155.132 225.63 155.132C225.938 155.132 226.199 155.067 226.414 154.936C226.629 154.805 226.806 154.637 226.946 154.432C227.086 154.227 227.184 154.007 227.24 153.774C227.305 153.531 227.338 153.298 227.338 153.074C227.338 152.439 227.184 151.954 226.876 151.618C226.577 151.282 226.125 151.114 225.518 151.114Z" fill="#262626"/>
<rect x="237.5" y="138" width="26" height="26" rx="13" fill="#9254DE"/>
<path d="M249.973 144.672H251.027C251.121 144.672 251.168 144.719 251.168 144.812V157.188C251.168 157.281 251.121 157.328 251.027 157.328H249.973C249.879 157.328 249.832 157.281 249.832 157.188V144.812C249.832 144.719 249.879 144.672 249.973 144.672Z" fill="white"/>
<path d="M244.594 150.332H256.406C256.5 150.332 256.547 150.379 256.547 150.473V151.527C256.547 151.621 256.5 151.668 256.406 151.668H244.594C244.5 151.668 244.453 151.621 244.453 151.527V150.473C244.453 150.379 244.5 150.332 244.594 150.332Z" fill="white"/>
</g>
<path d="M292.336 108.2C293.736 108.2 294.805 108.457 295.542 108.97C296.289 109.483 296.662 110.267 296.662 111.322C296.662 112.638 296.013 113.529 294.716 113.996C294.893 114.211 295.094 114.472 295.318 114.78C295.542 115.088 295.771 115.424 296.004 115.788C296.237 116.143 296.461 116.511 296.676 116.894C296.891 117.267 297.082 117.636 297.25 118H295.276C295.099 117.664 294.907 117.328 294.702 116.992C294.497 116.647 294.287 116.315 294.072 115.998C293.867 115.671 293.661 115.368 293.456 115.088C293.251 114.799 293.059 114.542 292.882 114.318C292.751 114.327 292.639 114.332 292.546 114.332C292.453 114.332 292.364 114.332 292.28 114.332H291.426V118H289.662V108.438C290.091 108.345 290.549 108.284 291.034 108.256C291.519 108.219 291.953 108.2 292.336 108.2ZM292.462 109.726C292.089 109.726 291.743 109.74 291.426 109.768V112.904H292.196C292.625 112.904 293.003 112.881 293.33 112.834C293.657 112.787 293.927 112.703 294.142 112.582C294.366 112.461 294.534 112.297 294.646 112.092C294.758 111.887 294.814 111.625 294.814 111.308C294.814 111.009 294.758 110.757 294.646 110.552C294.534 110.347 294.371 110.183 294.156 110.062C293.951 109.941 293.703 109.857 293.414 109.81C293.125 109.754 292.807 109.726 292.462 109.726ZM305.413 118C305.282 117.617 305.147 117.239 305.007 116.866C304.867 116.493 304.731 116.11 304.601 115.718H300.513C300.382 116.11 300.247 116.497 300.107 116.88C299.976 117.253 299.845 117.627 299.715 118H297.881C298.245 116.964 298.59 116.007 298.917 115.13C299.243 114.253 299.561 113.422 299.869 112.638C300.186 111.854 300.499 111.107 300.807 110.398C301.115 109.689 301.432 108.989 301.759 108.298H303.425C303.751 108.989 304.069 109.689 304.377 110.398C304.685 111.107 304.993 111.854 305.301 112.638C305.618 113.422 305.94 114.253 306.267 115.13C306.603 116.007 306.953 116.964 307.317 118H305.413ZM302.557 110.174C302.342 110.669 302.095 111.271 301.815 111.98C301.544 112.689 301.259 113.459 300.961 114.29H304.153C303.854 113.459 303.565 112.685 303.285 111.966C303.005 111.247 302.762 110.65 302.557 110.174ZM310.657 108.298C310.862 108.653 311.091 109.087 311.343 109.6C311.595 110.113 311.852 110.655 312.113 111.224C312.374 111.784 312.631 112.358 312.883 112.946C313.144 113.525 313.382 114.061 313.597 114.556C313.812 114.061 314.045 113.525 314.297 112.946C314.549 112.358 314.806 111.784 315.067 111.224C315.328 110.655 315.585 110.113 315.837 109.6C316.089 109.087 316.318 108.653 316.523 108.298H318.119C318.203 109.007 318.282 109.763 318.357 110.566C318.432 111.359 318.497 112.176 318.553 113.016C318.618 113.847 318.674 114.687 318.721 115.536C318.777 116.376 318.824 117.197 318.861 118H317.125C317.088 116.871 317.041 115.709 316.985 114.514C316.938 113.319 316.864 112.162 316.761 111.042C316.658 111.257 316.537 111.513 316.397 111.812C316.257 112.111 316.108 112.437 315.949 112.792C315.79 113.137 315.627 113.497 315.459 113.87C315.3 114.243 315.142 114.607 314.983 114.962C314.834 115.307 314.694 115.634 314.563 115.942C314.432 116.241 314.32 116.497 314.227 116.712H312.911C312.818 116.497 312.706 116.236 312.575 115.928C312.444 115.62 312.3 115.293 312.141 114.948C311.992 114.593 311.833 114.229 311.665 113.856C311.506 113.483 311.348 113.123 311.189 112.778C311.03 112.433 310.881 112.111 310.741 111.812C310.601 111.504 310.48 111.247 310.377 111.042C310.274 112.162 310.195 113.319 310.139 114.514C310.092 115.709 310.05 116.871 310.013 118H308.277C308.314 117.197 308.356 116.367 308.403 115.508C308.459 114.649 308.515 113.8 308.571 112.96C308.636 112.111 308.706 111.289 308.781 110.496C308.856 109.703 308.935 108.97 309.019 108.298H310.657Z" fill="#262626"/>
<path d="M330.058 116.656C329.965 116.432 329.839 116.147 329.68 115.802C329.531 115.457 329.367 115.083 329.19 114.682C329.013 114.281 328.821 113.87 328.616 113.45C328.42 113.021 328.233 112.619 328.056 112.246C327.879 111.863 327.711 111.523 327.552 111.224C327.403 110.925 327.281 110.697 327.188 110.538C327.085 111.639 327.001 112.834 326.936 114.122C326.871 115.401 326.815 116.693 326.768 118H325.438C325.475 117.16 325.517 116.315 325.564 115.466C325.611 114.607 325.662 113.767 325.718 112.946C325.783 112.115 325.849 111.308 325.914 110.524C325.989 109.74 326.068 108.998 326.152 108.298H327.342C327.594 108.709 327.865 109.194 328.154 109.754C328.443 110.314 328.733 110.902 329.022 111.518C329.311 112.125 329.591 112.736 329.862 113.352C330.133 113.959 330.38 114.514 330.604 115.018C330.828 114.514 331.075 113.959 331.346 113.352C331.617 112.736 331.897 112.125 332.186 111.518C332.475 110.902 332.765 110.314 333.054 109.754C333.343 109.194 333.614 108.709 333.866 108.298H335.056C335.373 111.425 335.611 114.659 335.77 118H334.44C334.393 116.693 334.337 115.401 334.272 114.122C334.207 112.834 334.123 111.639 334.02 110.538C333.927 110.697 333.801 110.925 333.642 111.224C333.493 111.523 333.329 111.863 333.152 112.246C332.975 112.619 332.783 113.021 332.578 113.45C332.382 113.87 332.195 114.281 332.018 114.682C331.841 115.083 331.673 115.457 331.514 115.802C331.365 116.147 331.243 116.432 331.15 116.656H330.058ZM339.117 118H337.815V110.72H339.117V118ZM338.459 109.404C338.226 109.404 338.025 109.329 337.857 109.18C337.699 109.021 337.619 108.811 337.619 108.55C337.619 108.289 337.699 108.083 337.857 107.934C338.025 107.775 338.226 107.696 338.459 107.696C338.693 107.696 338.889 107.775 339.047 107.934C339.215 108.083 339.299 108.289 339.299 108.55C339.299 108.811 339.215 109.021 339.047 109.18C338.889 109.329 338.693 109.404 338.459 109.404ZM344.058 118.084C343.862 118.084 343.648 118.079 343.414 118.07C343.19 118.061 342.962 118.047 342.728 118.028C342.504 118.009 342.28 117.986 342.056 117.958C341.832 117.93 341.627 117.893 341.44 117.846V108.438C341.627 108.391 341.832 108.354 342.056 108.326C342.28 108.298 342.504 108.275 342.728 108.256C342.962 108.237 343.19 108.223 343.414 108.214C343.638 108.205 343.848 108.2 344.044 108.2C344.604 108.2 345.127 108.242 345.612 108.326C346.107 108.41 346.532 108.555 346.886 108.76C347.25 108.956 347.535 109.217 347.74 109.544C347.946 109.871 348.048 110.272 348.048 110.748C348.048 111.28 347.922 111.719 347.67 112.064C347.418 112.4 347.082 112.652 346.662 112.82C347.232 112.988 347.684 113.254 348.02 113.618C348.356 113.982 348.524 114.495 348.524 115.158C348.524 116.129 348.165 116.861 347.446 117.356C346.737 117.841 345.608 118.084 344.058 118.084ZM342.784 113.478V116.894C342.887 116.903 343.008 116.913 343.148 116.922C343.27 116.931 343.41 116.941 343.568 116.95C343.736 116.95 343.928 116.95 344.142 116.95C344.544 116.95 344.922 116.927 345.276 116.88C345.64 116.824 345.958 116.731 346.228 116.6C346.499 116.469 346.714 116.287 346.872 116.054C347.04 115.821 347.124 115.527 347.124 115.172C347.124 114.855 347.064 114.589 346.942 114.374C346.821 114.15 346.644 113.973 346.41 113.842C346.186 113.711 345.916 113.618 345.598 113.562C345.281 113.506 344.926 113.478 344.534 113.478H342.784ZM342.784 112.386H344.212C344.548 112.386 344.866 112.363 345.164 112.316C345.463 112.269 345.72 112.185 345.934 112.064C346.158 111.943 346.331 111.784 346.452 111.588C346.583 111.392 346.648 111.145 346.648 110.846C346.648 110.566 346.583 110.333 346.452 110.146C346.322 109.95 346.14 109.796 345.906 109.684C345.682 109.563 345.416 109.474 345.108 109.418C344.8 109.362 344.474 109.334 344.128 109.334C343.783 109.334 343.512 109.339 343.316 109.348C343.12 109.357 342.943 109.371 342.784 109.39V112.386Z" fill="#767593"/>
<g clip-path="url(#clip3_4928_194000)">
<rect x="288.5" y="148" width="133.5" height="4" fill="#F0F2F5"/>
<g clip-path="url(#clip4_4928_194000)">
<rect x="288.5" y="148" width="63" height="4" fill="#C4C7CF"/>
<circle cx="351.5" cy="150" r="6" fill="white" stroke="#C4C7CF" stroke-width="2"/>
</g>
<rect x="446" y="138" width="24" height="24" rx="12" fill="#F0F2F5"/>
<path d="M463.625 149.406H452.375C452.306 149.406 452.25 149.462 452.25 149.531V150.469C452.25 150.538 452.306 150.594 452.375 150.594H463.625C463.694 150.594 463.75 150.538 463.75 150.469V149.531C463.75 149.462 463.694 149.406 463.625 149.406Z" fill="#C4C7CF"/>
<path d="M478.658 151.64C478.835 151.229 479.078 150.753 479.386 150.212C479.694 149.661 480.039 149.097 480.422 148.518C480.814 147.939 481.229 147.37 481.668 146.81C482.116 146.25 482.564 145.746 483.012 145.298H484.258V151.458H485.406V152.522H484.258V155H482.998V152.522H478.658V151.64ZM482.998 146.838C482.718 147.137 482.433 147.473 482.144 147.846C481.864 148.21 481.588 148.593 481.318 148.994C481.047 149.395 480.79 149.806 480.548 150.226C480.314 150.646 480.104 151.057 479.918 151.458H482.998V146.838ZM493.126 152.48C493.126 152.872 493.056 153.236 492.916 153.572C492.785 153.899 492.585 154.188 492.314 154.44C492.053 154.683 491.721 154.869 491.32 155C490.919 155.14 490.457 155.21 489.934 155.21C489.327 155.21 488.819 155.126 488.408 154.958C488.007 154.781 487.685 154.561 487.442 154.3C487.199 154.039 487.027 153.754 486.924 153.446C486.821 153.129 486.77 152.83 486.77 152.55C486.77 152.279 486.812 152.023 486.896 151.78C486.989 151.528 487.106 151.295 487.246 151.08C487.395 150.865 487.563 150.674 487.75 150.506C487.946 150.329 488.151 150.175 488.366 150.044C487.451 149.521 486.994 148.751 486.994 147.734C486.994 147.379 487.064 147.043 487.204 146.726C487.344 146.399 487.54 146.115 487.792 145.872C488.053 145.629 488.366 145.438 488.73 145.298C489.094 145.149 489.5 145.074 489.948 145.074C490.471 145.074 490.919 145.153 491.292 145.312C491.665 145.471 491.969 145.676 492.202 145.928C492.445 146.171 492.617 146.441 492.72 146.74C492.832 147.039 492.888 147.328 492.888 147.608C492.888 147.879 492.846 148.135 492.762 148.378C492.687 148.611 492.58 148.831 492.44 149.036C492.309 149.241 492.155 149.423 491.978 149.582C491.81 149.741 491.633 149.881 491.446 150.002C492.547 150.525 493.107 151.351 493.126 152.48ZM488.086 152.564C488.086 152.732 488.114 152.909 488.17 153.096C488.235 153.273 488.343 153.441 488.492 153.6C488.641 153.749 488.833 153.875 489.066 153.978C489.299 154.081 489.593 154.132 489.948 154.132C490.265 154.132 490.541 154.085 490.774 153.992C491.017 153.899 491.213 153.782 491.362 153.642C491.511 153.493 491.623 153.325 491.698 153.138C491.773 152.951 491.81 152.76 491.81 152.564C491.81 152.265 491.754 152.004 491.642 151.78C491.53 151.556 491.367 151.36 491.152 151.192C490.947 151.024 490.695 150.884 490.396 150.772C490.107 150.651 489.775 150.548 489.402 150.464C488.982 150.697 488.655 150.987 488.422 151.332C488.198 151.677 488.086 152.088 488.086 152.564ZM491.586 147.594C491.586 147.454 491.553 147.3 491.488 147.132C491.432 146.964 491.339 146.81 491.208 146.67C491.077 146.521 490.909 146.399 490.704 146.306C490.499 146.203 490.247 146.152 489.948 146.152C489.649 146.152 489.393 146.199 489.178 146.292C488.973 146.385 488.805 146.507 488.674 146.656C488.543 146.796 488.445 146.955 488.38 147.132C488.324 147.3 488.296 147.468 488.296 147.636C488.296 147.841 488.333 148.047 488.408 148.252C488.483 148.457 488.599 148.649 488.758 148.826C488.917 149.003 489.122 149.162 489.374 149.302C489.635 149.442 489.943 149.554 490.298 149.638C490.69 149.405 491.003 149.134 491.236 148.826C491.469 148.509 491.586 148.098 491.586 147.594Z" fill="#C4C7CF"/>
<rect x="502" y="138" width="24" height="24" rx="12" fill="#F0F2F5"/>
<path d="M513.531 144.375H514.469C514.552 144.375 514.594 144.417 514.594 144.5V155.5C514.594 155.583 514.552 155.625 514.469 155.625H513.531C513.448 155.625 513.406 155.583 513.406 155.5V144.5C513.406 144.417 513.448 144.375 513.531 144.375Z" fill="#C4C7CF"/>
<path d="M508.75 149.406H519.25C519.333 149.406 519.375 149.448 519.375 149.531V150.469C519.375 150.552 519.333 150.594 519.25 150.594H508.75C508.667 150.594 508.625 150.552 508.625 150.469V149.531C508.625 149.448 508.667 149.406 508.75 149.406Z" fill="#C4C7CF"/>
</g>
<path d="M26 200L526 200" stroke="#F0F2F5"/>
<g filter="url(#filter1_d_4928_194000)">
<path d="M256.841 177.327C256.374 176.727 255.79 175.51 254.774 173.993C254.19 173.16 252.756 171.576 252.323 170.759C252.01 170.262 251.92 169.658 252.073 169.092C252.334 168.015 253.356 167.301 254.457 167.425C255.308 167.596 256.091 168.013 256.707 168.625C257.138 169.03 257.534 169.471 257.891 169.942C258.158 170.275 258.224 170.409 258.525 170.792C258.825 171.176 259.025 171.559 258.875 170.992C258.758 170.159 258.558 168.758 258.274 167.508C258.058 166.558 258.008 166.408 257.808 165.691C257.608 164.974 257.491 164.374 257.274 163.557C257.076 162.754 256.92 161.942 256.807 161.123C256.597 160.076 256.75 158.988 257.241 158.039C257.823 157.491 258.678 157.346 259.408 157.672C260.143 158.214 260.69 158.972 260.975 159.839C261.412 160.907 261.704 162.028 261.842 163.174C262.109 164.841 262.626 167.275 262.642 167.775C262.642 167.158 262.526 165.858 262.642 165.274C262.758 164.666 263.181 164.161 263.759 163.94C264.256 163.788 264.781 163.754 265.293 163.84C265.81 163.948 266.268 164.246 266.577 164.674C266.963 165.647 267.177 166.679 267.21 167.725C267.255 166.809 267.412 165.902 267.677 165.024C267.956 164.632 268.362 164.349 268.827 164.224C269.378 164.123 269.943 164.123 270.494 164.224C270.946 164.375 271.342 164.66 271.628 165.041C271.981 165.925 272.195 166.858 272.262 167.808C272.262 168.042 272.378 167.158 272.745 166.574C272.936 166.009 273.414 165.587 273.999 165.47C274.584 165.352 275.188 165.555 275.583 166.003C275.977 166.451 276.103 167.076 275.913 167.641C275.913 168.725 275.913 168.675 275.913 169.409C275.913 170.142 275.913 170.792 275.913 171.409C275.852 172.385 275.718 173.354 275.512 174.31C275.222 175.155 274.818 175.957 274.312 176.694C273.503 177.594 272.834 178.611 272.328 179.711C272.203 180.258 272.147 180.818 272.162 181.378C272.16 181.896 272.227 182.412 272.362 182.912C271.68 182.984 270.993 182.984 270.311 182.912C269.661 182.812 268.861 181.512 268.644 181.112C268.537 180.897 268.317 180.761 268.077 180.761C267.837 180.761 267.618 180.897 267.51 181.112C267.144 181.745 266.327 182.896 265.76 182.962C264.643 183.096 262.342 182.962 260.525 182.962C260.525 182.962 260.825 181.295 260.142 180.695C259.458 180.095 258.758 179.395 258.241 178.928L256.841 177.327Z" fill="white"/>
<path fill-rule="evenodd" clip-rule="evenodd" d="M256.841 177.327C256.374 176.727 255.79 175.51 254.774 173.993C254.19 173.16 252.756 171.576 252.323 170.759C252.01 170.262 251.92 169.658 252.073 169.092C252.334 168.015 253.356 167.301 254.457 167.425C255.308 167.596 256.091 168.013 256.707 168.625C257.138 169.03 257.534 169.471 257.891 169.942C258.158 170.275 258.224 170.409 258.525 170.792C258.825 171.176 259.025 171.559 258.875 170.992C258.758 170.159 258.558 168.758 258.274 167.508C258.058 166.558 258.008 166.408 257.808 165.691C257.608 164.974 257.491 164.374 257.274 163.557C257.076 162.754 256.92 161.942 256.807 161.123C256.597 160.076 256.75 158.988 257.241 158.039C257.823 157.491 258.678 157.346 259.408 157.672C260.143 158.214 260.69 158.972 260.975 159.839C261.412 160.907 261.704 162.028 261.842 163.174C262.109 164.841 262.626 167.275 262.642 167.775C262.642 167.158 262.526 165.858 262.642 165.274C262.758 164.666 263.181 164.161 263.759 163.94C264.256 163.788 264.781 163.754 265.293 163.84C265.81 163.948 266.268 164.246 266.577 164.674C266.963 165.647 267.177 166.679 267.21 167.725C267.255 166.809 267.412 165.902 267.677 165.024C267.956 164.632 268.362 164.349 268.827 164.224C269.378 164.123 269.943 164.123 270.494 164.224C270.946 164.375 271.342 164.66 271.628 165.041C271.981 165.925 272.195 166.858 272.262 167.808C272.262 168.042 272.378 167.158 272.745 166.574C272.936 166.009 273.414 165.587 273.999 165.47C274.584 165.352 275.188 165.555 275.583 166.003C275.977 166.451 276.103 167.076 275.913 167.641C275.913 168.725 275.913 168.675 275.913 169.409C275.913 170.142 275.913 170.792 275.913 171.409C275.852 172.385 275.718 173.354 275.512 174.31C275.222 175.155 274.818 175.957 274.312 176.694C273.503 177.594 272.834 178.611 272.328 179.711C272.203 180.258 272.147 180.818 272.162 181.378C272.16 181.896 272.227 182.412 272.362 182.912C271.68 182.984 270.993 182.984 270.311 182.912C269.661 182.812 268.861 181.512 268.644 181.112C268.537 180.897 268.317 180.761 268.077 180.761C267.837 180.761 267.618 180.897 267.51 181.112C267.144 181.745 266.327 182.896 265.76 182.962C264.643 183.096 262.342 182.962 260.525 182.962C260.525 182.962 260.825 181.295 260.142 180.695C259.458 180.095 258.758 179.395 258.241 178.928L256.841 177.327Z" stroke="#191B23" stroke-width="1.25034" stroke-linecap="round" stroke-linejoin="round"/>
<path d="M270.978 178.238V172.483C270.978 172.139 270.698 171.859 270.353 171.859C270.008 171.859 269.728 172.139 269.728 172.483V178.238C269.728 178.582 270.008 178.861 270.353 178.861C270.698 178.861 270.978 178.582 270.978 178.238Z" fill="#191B23"/>
<path d="M267.677 178.235L267.644 172.478C267.642 172.134 267.36 171.857 267.015 171.859C266.67 171.861 266.392 172.142 266.394 172.485L266.427 178.243C266.429 178.586 266.71 178.863 267.056 178.861C267.401 178.859 267.679 178.579 267.677 178.235Z" fill="#191B23"/>
<path d="M263.059 172.491L263.093 178.237C263.095 178.584 263.376 178.863 263.721 178.861C264.067 178.859 264.345 178.576 264.343 178.229L264.31 172.484C264.308 172.137 264.026 171.857 263.681 171.859C263.336 171.861 263.057 172.144 263.059 172.491Z" fill="#191B23"/>
</g>
<rect x="12.5" y="-137" width="527" height="231.393" fill="url(#paint0_linear_4928_194000)"/>
<rect x="12.5" y="-14" width="527" height="108.393" fill="url(#paint1_linear_4928_194000)"/>
<rect x="12.5" y="-11.6592" width="527" height="108.393" fill="url(#paint2_linear_4928_194000)"/>
</g>
<defs>
<filter id="filter0_ddd_4928_194000" x="74" y="-14.4624" width="286" height="116" filterUnits="userSpaceOnUse" color-interpolation-filters="sRGB">
<feFlood flood-opacity="0" result="BackgroundImageFix"/>
<feColorMatrix in="SourceAlpha" type="matrix" values="0 0 0 0 0 0 0 0 0 0 0 0 0 0 0 0 0 0 127 0" result="hardAlpha"/>
<feMorphology radius="4" operator="erode" in="SourceAlpha" result="effect1_dropShadow_4928_194000"/>
<feOffset dy="3"/>
<feGaussianBlur stdDeviation="3"/>
<feColorMatrix type="matrix" values="0 0 0 0 0 0 0 0 0 0 0 0 0 0 0 0 0 0 0.12 0"/>
<feBlend mode="normal" in2="BackgroundImageFix" result="effect1_dropShadow_4928_194000"/>
<feColorMatrix in="SourceAlpha" type="matrix" values="0 0 0 0 0 0 0 0 0 0 0 0 0 0 0 0 0 0 127 0" result="hardAlpha"/>
<feOffset dy="6"/>
<feGaussianBlur stdDeviation="8"/>
<feColorMatrix type="matrix" values="0 0 0 0 0 0 0 0 0 0 0 0 0 0 0 0 0 0 0.08 0"/>
<feBlend mode="normal" in2="effect1_dropShadow_4928_194000" result="effect2_dropShadow_4928_194000"/>
<feColorMatrix in="SourceAlpha" type="matrix" values="0 0 0 0 0 0 0 0 0 0 0 0 0 0 0 0 0 0 127 0" result="hardAlpha"/>
<feMorphology radius="8" operator="dilate" in="SourceAlpha" result="effect3_dropShadow_4928_194000"/>
<feOffset dy="9"/>
<feGaussianBlur stdDeviation="14"/>
<feColorMatrix type="matrix" values="0 0 0 0 0 0 0 0 0 0 0 0 0 0 0 0 0 0 0.05 0"/>
<feBlend mode="normal" in2="effect2_dropShadow_4928_194000" result="effect3_dropShadow_4928_194000"/>
<feBlend mode="normal" in="SourceGraphic" in2="effect3_dropShadow_4928_194000" result="shape"/>
</filter>
<filter id="filter1_d_4928_194000" x="250.041" y="156.875" width="27.9177" height="29.7723" filterUnits="userSpaceOnUse" color-interpolation-filters="sRGB">
<feFlood flood-opacity="0" result="BackgroundImageFix"/>
<feColorMatrix in="SourceAlpha" type="matrix" values="0 0 0 0 0 0 0 0 0 0 0 0 0 0 0 0 0 0 127 0" result="hardAlpha"/>
<feOffset dy="1.66712"/>
<feGaussianBlur stdDeviation="0.666846"/>
<feColorMatrix type="matrix" values="0 0 0 0 0 0 0 0 0 0 0 0 0 0 0 0 0 0 0.5 0"/>
<feBlend mode="normal" in2="BackgroundImageFix" result="effect1_dropShadow_4928_194000"/>
<feBlend mode="normal" in="SourceGraphic" in2="effect1_dropShadow_4928_194000" result="shape"/>
</filter>
<linearGradient id="paint0_linear_4928_194000" x1="276" y1="-137" x2="276" y2="94.3931" gradientUnits="userSpaceOnUse">
<stop stop-color="white"/>
<stop offset="1" stop-color="white" stop-opacity="0"/>
</linearGradient>
<linearGradient id="paint1_linear_4928_194000" x1="276" y1="-14" x2="276" y2="94.3931" gradientUnits="userSpaceOnUse">
<stop stop-color="white"/>
<stop offset="1" stop-color="white" stop-opacity="0"/>
</linearGradient>
<linearGradient id="paint2_linear_4928_194000" x1="276" y1="-11.6592" x2="276" y2="96.7339" gradientUnits="userSpaceOnUse">
<stop stop-color="white"/>
<stop offset="1" stop-color="white" stop-opacity="0"/>
</linearGradient>
<clipPath id="clip0_4928_194000">
<rect width="552" height="221" fill="white"/>
</clipPath>
<clipPath id="clip1_4928_194000">
<rect width="237.5" height="26" fill="white" transform="translate(26 138)"/>
</clipPath>
<clipPath id="clip2_4928_194000">
<rect width="68.6266" height="14" fill="white" transform="translate(-8.31329 144)"/>
</clipPath>
<clipPath id="clip3_4928_194000">
<rect width="237.5" height="24" fill="white" transform="translate(288.5 138)"/>
</clipPath>
<clipPath id="clip4_4928_194000">
<rect width="69.6703" height="14" fill="white" transform="translate(288.5 143)"/>
</clipPath>
</defs>
</svg>
