<svg width="279" height="201" viewBox="0 0 279 201" fill="none" xmlns="http://www.w3.org/2000/svg">
<path d="M8.91033 188.283C8.91033 188.283 36.0325 153.729 37.8927 138.485C39.7436 123.259 40.4972 107.642 37.5209 105.782C34.5538 103.931 25.2617 96.4991 25.2617 96.4991L11.8774 97.6059L3.32958 84.2308C3.32958 84.2308 13.3657 75.6738 13.7377 71.972C14.1098 68.2515 26.7409 61.5639 26.7409 61.5639L29.3358 46.7008L36.0233 49.2957C36.0233 49.2957 42.7202 64.159 58.681 70.4745C67.9728 80.8825 78.7434 82.7334 78.7434 82.7334C78.7434 82.7334 113.669 73.0694 132.988 71.2185C150.558 69.5257 175.429 70.307 185.4 72.6881C185.484 72.7067 185.567 72.6881 185.632 72.7067C218.958 79.8686 229.394 53.5557 237.245 26.0056C237.924 23.6059 238.556 21.4108 239.151 19.5227C245.104 0.706404 264.608 -1.09791 274.105 0.594899C277.332 1.18087 279.463 4.23157 278.914 7.45907C278.356 10.6773 275.296 12.8537 272.05 12.3049C270.292 11.998 254.703 9.78436 250.508 23.0943C249.931 24.8894 249.345 26.9822 248.694 29.2517C243.653 46.9425 234.054 80.6034 203.593 85.254C209.127 91.0486 214.438 98.5175 217.349 106.87C223.293 123.965 229.599 141.061 236.287 148.874C242.983 156.668 250.415 176.359 250.787 180.451C251.159 184.535 248.555 200.523 248.555 200.523H230.725L232.203 190.478L236.287 187.883C236.287 187.883 234.808 170.806 227.376 165.597C219.954 160.398 191.706 138.857 184.647 138.857C177.587 138.857 182.052 172.285 180.191 174.154C178.331 176.005 161.608 200.533 161.608 200.533H142.661L143.777 191.613L148.605 188.636H156.408C156.408 188.636 165.328 174.154 163.849 170.434C162.361 166.732 150.093 146.288 147.488 139.229L112.563 144.428L112.935 194.97L108.293 200.551H93.9881L92.872 193.12L99.1873 188.106C99.1873 188.106 91.0209 151.134 82.4732 148.158C73.9254 145.181 43.4642 163.021 33.8096 177.875C24.1456 192.738 13.0029 200.551 13.0029 200.551H2.89475e-05V190.887L8.91033 188.283Z" fill="url(#paint0_linear)"/>
<defs>
<linearGradient id="paint0_linear" x1="132" y1="8" x2="185" y2="201" gradientUnits="userSpaceOnUse">
<stop stop-color="#F4B6FF"/>
<stop offset="1" stop-color="#C775D6"/>
</linearGradient>
</defs>
</svg>
