<svg width="49" height="48" viewBox="0 0 49 48" fill="none" xmlns="http://www.w3.org/2000/svg">
<mask id="mask0_125_49323" style="mask-type:alpha" maskUnits="userSpaceOnUse" x="0" y="0" width="49" height="48">
<rect x="0.5" width="48" height="48" fill="#D9D9D9"/>
</mask>
<g mask="url(#mask0_125_49323)">
<path d="M8.85 40V37H15.35C13.2167 35.4 11.5417 33.5917 10.325 31.575C9.10833 29.5583 8.5 27.0833 8.5 24.15C8.5 20.8167 9.48333 17.7083 11.45 14.825C13.4167 11.9417 16.2167 9.93333 19.85 8.8V11.9C17.4833 12.7667 15.5 14.3167 13.9 16.55C12.3 18.7833 11.5 21.3167 11.5 24.15C11.5 26.2833 11.9583 28.2417 12.875 30.025C13.7917 31.8083 15.2833 33.3667 17.35 34.7V28.5H20.35V40H8.85ZM30.5 40C28.8333 40 27.4167 39.4167 26.25 38.25C25.0833 37.0833 24.5 35.6667 24.5 34C24.5 32.4 25.05 31.0167 26.15 29.85C27.25 28.6833 28.6 28.0667 30.2 28C30.7667 26.8 31.6083 25.8333 32.725 25.1C33.8417 24.3667 35.1 24 36.5 24C38.2667 24 39.7917 24.575 41.075 25.725C42.3583 26.875 43.1333 28.3 43.4 30H43.5C44.9 30 46.0833 30.5 47.05 31.5C48.0167 32.5 48.5 33.65 48.5 34.95C48.5 36.35 48.0167 37.5417 47.05 38.525C46.0833 39.5083 44.9 40 43.5 40H30.5ZM37.3 22C36.9333 20.3 36.3 18.7417 35.4 17.325C34.5 15.9083 33.3 14.5667 31.8 13.3V19.5H28.8V8H40.3V11H33.75C35.3833 12.3667 36.825 14.0417 38.075 16.025C39.325 18.0083 40.0833 20 40.35 22H37.3ZM30.5 37H43.5C44.0667 37 44.5417 36.8083 44.925 36.425C45.3083 36.0417 45.5 35.5667 45.5 35C45.5 34.4333 45.3083 33.9583 44.925 33.575C44.5417 33.1917 44.0667 33 43.5 33H41V31.5C41 30.2333 40.5667 29.1667 39.7 28.3C38.8333 27.4333 37.7667 27 36.5 27C35.2333 27 34.1667 27.4083 33.3 28.225C32.4333 29.0417 32 29.9667 32 31H30.5C29.6667 31 28.9583 31.2917 28.375 31.875C27.7917 32.4583 27.5 33.1667 27.5 34C27.5 34.8333 27.7917 35.5417 28.375 36.125C28.9583 36.7083 29.6667 37 30.5 37Z" fill="url(#paint0_linear_125_49323)"/>
<path d="M5.44995 39.0112C15.7252 30.5391 26.2802 22.5991 37.005 14.7138C37.8596 14.0855 41.8983 11.2144 43.1357 9.80022C44.3067 8.46195 42.6065 9.74762 42.7751 8.9888" stroke="#643DDC" stroke-width="3" stroke-linecap="round"/>
<path d="M43.5502 39.0112C33.2749 30.5391 22.7199 22.5991 11.9951 14.7138C11.1405 14.0855 7.10178 11.2144 5.86439 9.80022C4.69341 8.46195 6.39365 9.74762 6.22502 8.9888" stroke="#643DDC" stroke-width="3" stroke-linecap="round"/>
</g>
<defs>
<linearGradient id="paint0_linear_125_49323" x1="23.4874" y1="8.49508" x2="30.69" y2="40.7568" gradientUnits="userSpaceOnUse">
<stop stop-color="white"/>
<stop offset="1" stop-color="#F7F3FF"/>
</linearGradient>
</defs>
</svg>
