<svg width="48" height="48" viewBox="0 0 48 48" fill="none" xmlns="http://www.w3.org/2000/svg">
<mask id="mask0_125_49328" style="mask-type:alpha" maskUnits="userSpaceOnUse" x="0" y="0" width="48" height="48">
<rect width="48" height="48" fill="url(#paint0_linear_125_49328)"/>
</mask>
<g mask="url(#mask0_125_49328)">
<path d="M15.75 36C13.1833 36 11.2333 35.05 9.9 33.15C8.56667 31.25 7.93333 29.1167 8 26.75L7.1 25.4C6.73333 24.8333 6.125 23.55 5.275 21.55C4.425 19.55 4 17.0333 4 14C4 10.5667 4.85 7.70833 6.55 5.425C8.25 3.14167 10.4 2 13 2C15.8333 2 18.0417 3.25833 19.625 5.775C21.2083 8.29167 22 11.0333 22 14C22 15.9333 21.7333 17.7167 21.2 19.35C20.6667 20.9833 20.2 22.3 19.8 23.3L20.2 23.95C20.4667 24.4167 20.8333 25.1583 21.3 26.175C21.7667 27.1917 22 28.25 22 29.35C22 31.25 21.4083 32.8333 20.225 34.1C19.0417 35.3667 17.55 36 15.75 36ZM9.75 23.95L16.95 22.45C17.4167 21.1833 17.875 19.7833 18.325 18.25C18.775 16.7167 19 15.3 19 14C19 11.7667 18.475 9.70833 17.425 7.825C16.375 5.94167 14.9 5 13 5C11.2667 5 9.83333 5.85 8.7 7.55C7.56667 9.25 7 11.4 7 14C7 16.6 7.38333 18.7917 8.15 20.575C8.91667 22.3583 9.45 23.4833 9.75 23.95ZM15.75 33C16.6833 33 17.4583 32.6583 18.075 31.975C18.6917 31.2917 19 30.4167 19 29.35C19 28.6833 18.85 27.9917 18.55 27.275C18.25 26.5583 17.9167 25.9167 17.55 25.35L11 26.7C10.9667 28.1333 11.325 29.5417 12.075 30.925C12.825 32.3083 14.05 33 15.75 33ZM32.25 46C30.45 46 28.9583 45.3667 27.775 44.1C26.5917 42.8333 26 41.25 26 39.35C26 38.25 26.2333 37.1917 26.7 36.175C27.1667 35.1583 27.5333 34.4167 27.8 33.95L28.2 33.3C27.8 32.3 27.3333 30.9833 26.8 29.35C26.2667 27.7167 26 25.9333 26 24C26 21.0333 26.7917 18.2917 28.375 15.775C29.9583 13.2583 32.1667 12 35 12C37.6 12 39.75 13.1417 41.45 15.425C43.15 17.7083 44 20.5667 44 24C44 27.0333 43.575 29.5417 42.725 31.525C41.875 33.5083 41.2667 34.7833 40.9 35.35L40 36.75C40.0333 39.1167 39.3917 41.25 38.075 43.15C36.7583 45.05 34.8167 46 32.25 46ZM38.25 33.9C38.5833 33.4 39.125 32.2667 39.875 30.5C40.625 28.7333 41 26.5667 41 24C41 21.4 40.4333 19.25 39.3 17.55C38.1667 15.85 36.7333 15 35 15C33.1 15 31.625 15.9417 30.575 17.825C29.525 19.7083 29 21.7667 29 24C29 25.3333 29.2333 26.7583 29.7 28.275C30.1667 29.7917 30.6333 31.1833 31.1 32.45L38.25 33.9ZM32.25 43C33.95 43 35.1667 42.3 35.9 40.9C36.6333 39.5 37 38.0833 37 36.65L30.45 35.35C30.1167 35.9167 29.7917 36.5583 29.475 37.275C29.1583 37.9917 29 38.6833 29 39.35C29 40.4167 29.3083 41.2917 29.925 41.975C30.5417 42.6583 31.3167 43 32.25 43Z" fill="url(#paint1_linear_125_49328)"/>
<path d="M9.5 40C18.7217 30.3917 25.6556 22.413 35.3919 13.3353C36.1677 12.612 39.8456 9.29123 40.9104 7.74291C41.918 6.27769 40.3786 7.75214 40.4579 6.97887" stroke="#643DDC" stroke-width="3" stroke-linecap="round"/>
<path d="M44.7149 36.708C33.5251 29.4868 22.1193 22.8265 10.5512 16.2404C9.62942 15.7156 5.2845 13.333 3.89122 12.0722C2.57272 10.879 4.41079 11.9585 4.15516 11.2244" stroke="#643DDC" stroke-width="3" stroke-linecap="round"/>
</g>
<defs>
<linearGradient id="paint0_linear_125_49328" x1="17.9849" y1="0.742624" x2="31.1385" y2="47.8764" gradientUnits="userSpaceOnUse">
<stop stop-color="white"/>
<stop offset="1" stop-color="#F7F3FF"/>
</linearGradient>
<linearGradient id="paint1_linear_125_49328" x1="18.9874" y1="2.68074" x2="32.0524" y2="45.2409" gradientUnits="userSpaceOnUse">
<stop stop-color="white"/>
<stop offset="1" stop-color="#F7F3FF"/>
</linearGradient>
</defs>
</svg>
