<svg width="48" height="48" viewBox="0 0 48 48" fill="none" xmlns="http://www.w3.org/2000/svg">
<mask id="mask0_125_49333" style="mask-type:alpha" maskUnits="userSpaceOnUse" x="0" y="0" width="48" height="48">
<rect width="48" height="48" fill="url(#paint0_linear_125_49333)"/>
</mask>
<g mask="url(#mask0_125_49333)">
<path d="M14 27.4C13.0667 27.4 12.2667 27.0667 11.6 26.4C10.9333 25.7333 10.6 24.9333 10.6 24C10.6 23.0667 10.9333 22.2667 11.6 21.6C12.2667 20.9333 13.0667 20.6 14 20.6C14.9333 20.6 15.7333 20.9333 16.4 21.6C17.0667 22.2667 17.4 23.0667 17.4 24C17.4 24.9333 17.0667 25.7333 16.4 26.4C15.7333 27.0667 14.9333 27.4 14 27.4ZM14 36C10.6667 36 7.83333 34.8333 5.5 32.5C3.16667 30.1667 2 27.3333 2 24C2 20.6667 3.16667 17.8333 5.5 15.5C7.83333 13.1667 10.6667 12 14 12C16.4 12 18.5 12.5667 20.3 13.7C22.1 14.8333 23.5167 16.55 24.55 18.85H42.35L48 24.5L39.65 32.15L35.25 28.95L30.85 32.15L27.1 29.15H24.55C23.7167 31.15 22.4083 32.7917 20.625 34.075C18.8417 35.3583 16.6333 36 14 36ZM14 33C15.9333 33 17.7167 32.3583 19.35 31.075C20.9833 29.7917 22.0333 28.15 22.5 26.15H28.2L30.9 28.4L35.3 25.25L39.4 28.35L43.65 24.4L41.1 21.85H22.5C22.1 19.9833 21.1 18.375 19.5 17.025C17.9 15.675 16.0667 15 14 15C11.5 15 9.375 15.875 7.625 17.625C5.875 19.375 5 21.5 5 24C5 26.5 5.875 28.625 7.625 30.375C9.375 32.125 11.5 33 14 33Z" fill="url(#paint1_linear_125_49333)"/>
<path d="M43.1002 9C32.8249 17.4721 22.27 25.4121 11.5451 33.2974C10.6906 33.9257 6.65183 36.7968 5.41444 38.211C4.24346 39.5492 5.9437 38.2636 5.77507 39.0224" stroke="#643DDC" stroke-width="3" stroke-linecap="round"/>
<path d="M5 9C15.2753 17.4721 25.8302 25.4121 36.5551 33.2974C37.4096 33.9257 41.4484 36.7968 42.6858 38.211C43.8568 39.5492 42.1565 38.2636 42.3251 39.0224" stroke="#643DDC" stroke-width="3" stroke-linecap="round"/>
</g>
<defs>
<linearGradient id="paint0_linear_125_49333" x1="17.9849" y1="0.742624" x2="31.1385" y2="47.8764" gradientUnits="userSpaceOnUse">
<stop stop-color="white"/>
<stop offset="1" stop-color="#F7F3FF"/>
</linearGradient>
<linearGradient id="paint1_linear_125_49333" x1="19.2355" y1="12.3713" x2="22.8573" y2="37.2462" gradientUnits="userSpaceOnUse">
<stop stop-color="white"/>
<stop offset="1" stop-color="#F7F3FF"/>
</linearGradient>
</defs>
</svg>
