<svg width="173" height="40" viewBox="0 0 173 40" fill="none" xmlns="http://www.w3.org/2000/svg">
<path d="M61.4717 16.3622C61.0921 14.9803 59.6401 14.5654 57.8436 14.5654C55.8749 14.5654 54.873 15.0156 54.873 15.9472C54.873 16.8123 55.5305 17.2938 57.1548 17.607L60.6107 18.2294C65.0646 19.0593 67.2094 20.3707 67.2094 23.655C67.2094 27.8357 63.3739 29.9417 58.2272 29.9417C53.3231 29.9417 49.7654 27.8005 49.1079 23.4475H54.3877C54.9043 25.2443 56.3211 25.7962 58.2898 25.7962C60.3289 25.7962 61.7457 25.2443 61.7457 24.1364C61.7457 23.3066 61.0216 22.7898 58.8455 22.4101L55.5305 21.8582C51.9376 21.271 49.4836 19.4742 49.4836 16.1586C49.4836 12.4633 53.3857 10.4238 57.9806 10.4238C62.231 10.4238 66.0627 12.1188 66.7867 16.3661H61.4717V16.3622Z" fill="#696774"/>
<path d="M69.8278 35.5399V31.4296H70.9668C73.3151 31.4296 73.8004 31.2574 74.3523 29.8755L74.5245 29.3901L67.5813 10.9057H73.8317L77.2524 22.5475L80.9158 10.9057H87.0292L79.7416 29.4919C77.8747 34.2246 76.4931 35.5399 71.6595 35.5399H69.8278Z" fill="#696774"/>
<path d="M94.7664 29.4925H89.0679V10.9063H94.7664V13.3607C95.5962 11.9789 97.6 10.4913 100.398 10.4913C103.404 10.4913 105.064 11.5639 105.925 13.6347C107.342 11.5639 109.655 10.4913 112.281 10.4913C117.048 10.4913 118.531 13.2902 118.531 18.3322V29.4925H112.833V19.7492C112.833 17.0913 112.696 14.9109 109.964 14.9109C107.616 14.9109 106.649 16.5002 106.649 19.8158V29.4886H100.95V19.7492C100.95 17.0913 100.813 14.9109 98.0815 14.9109C95.7331 14.9109 94.7664 16.5002 94.7664 19.8158V29.4925Z" fill="#696774"/>
<path d="M127.964 13.4267C129.173 11.3872 131.659 10.4908 133.663 10.4908C138.465 10.4908 141.85 14.1196 141.85 20.1989C141.85 26.2782 138.465 29.9422 133.663 29.9422C131.659 29.9422 129.173 29.0457 127.964 27.0063V29.492H122.265V4.44285H127.964V13.4267ZM127.686 20.1989C127.686 24.0351 129.553 25.5187 131.796 25.5187C134.073 25.5187 135.94 23.6515 135.94 20.1989C135.94 16.7423 134.073 14.9142 131.796 14.9142C129.553 14.9142 127.686 16.3626 127.686 20.1989Z" fill="#696774"/>
<path d="M163.576 20.1283C163.576 26.8653 158.879 29.9382 153.733 29.9382C148.586 29.9382 143.889 26.8653 143.889 20.1283C143.889 13.3914 148.586 10.3498 153.733 10.3498C158.879 10.3498 163.576 13.3914 163.576 20.1283ZM149.69 20.1283C149.69 24.0311 151.416 25.5187 153.733 25.5187C156.05 25.5187 157.776 24.0351 157.776 20.1283C157.776 16.1551 155.979 14.7733 153.733 14.7733C151.486 14.7733 149.69 16.1551 149.69 20.1283Z" fill="#696774"/>
<path d="M172.245 29.492H166.547V4.44285H172.245V29.492Z" fill="#696774"/>
<path fill-rule="evenodd" clip-rule="evenodd" d="M38.5696 12.2405C38.7515 13.2441 38.9343 14.2521 39.1932 15.2141C39.4544 16.1717 39.8041 17.1316 40.1526 18.088C41.0444 20.5358 41.9276 22.9599 41.2954 25.26C40.6418 27.6229 38.5899 29.3099 36.5755 30.9659C35.7863 31.6147 35.0029 32.2587 34.3116 32.9368C33.6486 33.5898 33.0179 34.3393 32.3773 35.1006C30.7229 37.0665 29.0025 39.1111 26.489 39.774C23.9872 40.4358 21.4697 39.5189 19.0457 38.636C18.1011 38.292 17.1707 37.9531 16.2609 37.7149C15.313 37.4656 14.3017 37.2934 13.2835 37.12C10.7084 36.6815 8.08885 36.2354 6.33608 34.5162C4.63052 32.8437 4.17058 30.3104 3.70622 27.7528C3.52393 26.7488 3.34097 25.7411 3.0817 24.7802C2.82024 23.8217 2.47009 22.8609 2.12134 21.9039C1.22981 19.4576 0.34745 17.0364 0.979493 14.7443C1.63306 12.3814 3.685 10.6945 5.6994 9.0384C6.48856 8.38962 7.27196 7.74558 7.96327 7.06749C8.62626 6.41456 9.25696 5.66505 9.89758 4.90376C11.5519 2.93779 13.2724 0.893214 15.7859 0.230299C18.3004 -0.440074 20.8253 0.480175 23.2509 1.3642C24.1889 1.70606 25.112 2.04251 26.0139 2.27946C26.9619 2.52871 27.9731 2.70092 28.9913 2.87431C31.5664 3.31282 34.186 3.75892 35.9388 5.47814C37.6455 7.14455 38.1049 9.67808 38.5696 12.2405ZM35.1132 24.5542C35.4704 24.4579 35.7205 24.2171 35.8038 23.892L35.8515 23.4345L35.6848 23.1696C35.2442 22.4592 33.6605 22.0739 28.433 21.1468L27.9686 21.0625C25.98 20.3521 24.3248 19.7742 23.1102 19.4491C24.0033 18.5581 25.1464 17.2216 26.5158 15.5961L26.8731 15.2951C30.9217 11.8395 32.1125 10.7077 32.1482 9.86484L32.1125 9.4073L31.8862 9.17853C31.66 8.94976 31.3146 8.86548 30.9693 8.9618C30.0762 9.20261 28.6592 10.792 25.6585 14.3559L25.4799 14.5727C23.8961 15.9092 22.5506 17.0771 21.6456 17.9922C21.3479 16.8604 20.8239 15.3553 20.2047 13.6335L20.0976 13.0435C19.133 7.56511 18.7401 5.89148 17.978 5.40986C17.5255 5.13293 16.9182 5.3015 16.6682 5.77108C16.2514 6.56575 16.7396 8.21529 18.6091 13.4529L18.8115 14.0188C19.133 15.8249 19.4188 17.3781 19.7165 18.5219C18.4781 18.1848 16.7277 17.8597 14.7034 17.4985L14.4414 17.4022C10.0713 15.8369 8.07079 15.1747 7.17771 15.4155C6.82048 15.5118 6.57042 15.7526 6.48706 16.0777L6.42752 16.5232L6.59423 16.7881C7.03482 17.4985 8.61854 17.8718 13.846 18.8109L14.3104 18.8952C16.299 19.6056 17.9542 20.1835 19.1688 20.5086C18.2757 21.3996 17.1326 22.7361 15.7632 24.3616L15.4059 24.6626C11.3573 28.1182 10.1665 29.25 10.1308 30.0928L10.1665 30.5504L10.3928 30.7792C10.619 31.0079 10.9644 31.0922 11.3097 30.9959C12.2028 30.743 13.6198 29.1657 16.6205 25.6017L16.7991 25.385C18.3829 24.0485 19.7284 22.8806 20.6334 21.9655C20.9311 23.0973 21.4551 24.6024 22.0743 26.3242L22.1814 26.9142C23.1459 32.3926 23.5389 34.0662 24.301 34.5478C24.5272 34.6923 24.7892 34.7405 25.0393 34.6682C25.2893 34.608 25.5037 34.4395 25.6228 34.1987C26.0395 33.404 25.5513 31.7544 23.6818 26.5168L23.4794 25.9509C23.1579 24.1449 22.8721 22.5796 22.5744 21.4478C23.8128 21.7849 25.5632 22.11 27.5875 22.4712L27.8495 22.5675C32.2196 24.1328 34.2201 24.795 35.1132 24.5542Z" fill="url(#paint0_linear_125_49236)"/>
<defs>
<linearGradient id="paint0_linear_125_49236" x1="16.0315" y1="0.618853" x2="26.8209" y2="40" gradientUnits="userSpaceOnUse">
<stop stop-color="white"/>
<stop offset="1" stop-color="#F7F3FF"/>
</linearGradient>
</defs>
</svg>
