<svg width="337" height="268" viewBox="0 0 337 268" fill="none" xmlns="http://www.w3.org/2000/svg">
<circle cx="168.87" cy="134" r="109.339" fill="#F0F2F5"/>
<path d="M82.5696 46.7865L80.5965 47.0996L80.9075 49.0731L92.9576 125.548L96.835 125.855L106.997 94.6338L251.142 85.5338L253.428 85.3895L252.977 83.1443L241.027 23.5813L240.649 21.6984L238.752 21.9994L82.5696 46.7865Z" fill="white" stroke="#AEB7C6" stroke-width="4"/>
<path d="M117.38 75.0494C116.26 73.6139 115.07 72.2091 113.811 70.835C112.552 69.4609 111.24 68.1825 109.874 66.9997L111.23 75.9779L108.184 76.4377L106.115 62.733L108.627 62.3538C109.128 62.7232 109.689 63.1845 110.312 63.7377C110.935 64.291 111.572 64.8893 112.222 65.5328C112.883 66.1612 113.543 66.8235 114.201 67.5197C114.857 68.2028 115.476 68.8644 116.058 69.5047L114.837 61.4164L117.902 60.9536L119.971 74.6583L117.38 75.0494ZM131.876 67.5212C131.999 68.3386 131.994 69.108 131.86 69.8294C131.725 70.5376 131.469 71.1694 131.095 71.7249C130.718 72.2672 130.233 72.7179 129.64 73.0772C129.06 73.4344 128.382 73.6717 127.604 73.7892C126.839 73.9046 126.12 73.8782 125.448 73.7101C124.788 73.54 124.199 73.2514 123.679 72.8445C123.157 72.4243 122.72 71.897 122.368 71.2624C122.014 70.6147 121.775 69.8821 121.652 69.0647C121.528 68.2473 121.541 67.4835 121.69 66.7733C121.852 66.0611 122.122 65.4339 122.498 64.8916C122.888 64.3473 123.373 63.8965 123.953 63.5393C124.546 63.1801 125.211 62.9448 125.95 62.8333C126.701 62.7198 127.407 62.7482 128.066 62.9183C128.739 63.0865 129.335 63.374 129.855 63.781C130.375 64.1879 130.811 64.7087 131.163 65.3432C131.515 65.9778 131.753 66.7038 131.876 67.5212ZM128.87 67.975C128.733 67.0653 128.441 66.3812 127.994 65.9228C127.558 65.4492 127.004 65.2631 126.332 65.3646C125.66 65.4661 125.179 65.8084 124.889 66.3915C124.598 66.9614 124.52 67.7012 124.658 68.6109C124.795 69.5206 125.089 70.2178 125.54 70.7027C125.989 71.1743 126.549 71.3593 127.222 71.2578C127.894 71.1563 128.368 70.815 128.645 70.2339C128.932 69.6377 129.007 68.8847 128.87 67.975ZM143.362 69.0234C143.652 68.9796 143.928 68.9312 144.19 68.8782C144.451 68.8252 144.659 68.7736 144.814 68.7234L144.476 66.4887C144.354 66.4802 144.172 66.4807 143.93 66.4902C143.689 66.4996 143.469 66.5193 143.272 66.5492C142.995 66.591 142.734 66.6505 142.49 66.7279C142.256 66.7901 142.054 66.8813 141.884 67.0014C141.713 67.1216 141.587 67.2687 141.505 67.4429C141.424 67.617 141.401 67.8227 141.437 68.06C141.506 68.5214 141.707 68.8216 142.038 68.9604C142.38 69.084 142.822 69.105 143.362 69.0234ZM141.823 60.4369C142.693 60.3056 143.433 60.295 144.043 60.4051C144.653 60.5153 145.157 60.7291 145.556 61.0465C145.968 61.3619 146.286 61.7724 146.51 62.2778C146.735 62.7833 146.896 63.359 146.994 64.005L147.919 70.1356C147.511 70.2916 146.94 70.4856 146.207 70.7177C145.475 70.963 144.576 71.1663 143.508 71.3275C142.835 71.429 142.213 71.4622 141.642 71.4271C141.083 71.3901 140.586 71.2696 140.151 71.0656C139.714 70.8485 139.357 70.5383 139.08 70.1351C138.803 69.7318 138.617 69.2138 138.522 68.581C138.43 67.9745 138.471 67.4424 138.645 66.9847C138.832 66.525 139.111 66.1391 139.481 65.8269C139.852 65.5147 140.293 65.266 140.805 65.0809C141.314 64.8827 141.852 64.7407 142.419 64.6552C142.802 64.5974 143.141 64.5665 143.437 64.5622C143.744 64.5428 143.994 64.5455 144.187 64.5704L144.145 64.2936C144.069 63.7926 143.857 63.4133 143.508 63.1559C143.159 62.8984 142.609 62.8264 141.857 62.9399C141.356 63.0155 140.868 63.1297 140.392 63.2825C139.914 63.422 139.507 63.5846 139.171 63.7702L138.437 61.4538C138.6 61.3752 138.803 61.2906 139.046 61.2C139.3 61.0943 139.575 60.9988 139.872 60.9135C140.168 60.8149 140.478 60.7276 140.804 60.6515C141.14 60.5602 141.48 60.4887 141.823 60.4369ZM154.811 69.6008C153.952 69.7169 153.24 69.7301 152.673 69.6404C152.12 69.5486 151.662 69.375 151.3 69.1195C150.949 68.8489 150.681 68.505 150.497 68.0878C150.324 67.6555 150.196 67.1625 150.112 66.6087L148.383 55.1585L151.258 54.239L152.969 65.5706C153.009 65.8343 153.064 66.0686 153.136 66.2736C153.207 66.4786 153.307 66.6456 153.434 66.7747C153.574 66.9018 153.757 66.9956 153.982 67.056C154.207 67.1165 154.499 67.133 154.859 67.1056L154.811 69.6008ZM155.618 64.038C155.479 63.1151 155.496 62.29 155.669 61.5626C155.854 60.8201 156.142 60.1833 156.534 59.6522C156.925 59.1211 157.4 58.6921 157.957 58.3652C158.528 58.0363 159.13 57.8241 159.763 57.7286C161.239 57.5057 162.475 57.7844 163.469 58.5647C164.461 59.3318 165.09 60.5921 165.354 62.3456C165.38 62.517 165.403 62.7091 165.421 62.9221C165.438 63.1218 165.452 63.3018 165.462 63.462L158.778 64.4711C158.936 65.0676 159.292 65.506 159.846 65.7864C160.401 66.0667 161.1 66.1432 161.944 66.0158C162.485 65.9342 163.005 65.8084 163.505 65.6385C164.017 65.4534 164.426 65.2635 164.734 65.0687L165.491 67.4019C165.344 67.5049 165.145 67.6158 164.894 67.7347C164.642 67.8537 164.355 67.9644 164.034 68.0669C163.727 68.1805 163.392 68.285 163.029 68.3803C162.666 68.4756 162.3 68.5511 161.931 68.6068C160.995 68.7481 160.156 68.7331 159.416 68.5617C158.688 68.3884 158.058 68.0992 157.525 67.6943C157.003 67.2741 156.58 66.7514 156.257 66.126C155.946 65.4987 155.733 64.8027 155.618 64.038ZM162.369 61.8658C162.318 61.6173 162.235 61.3804 162.12 61.155C162.019 60.9276 161.875 60.7336 161.689 60.5729C161.516 60.4103 161.302 60.2875 161.047 60.2047C160.805 60.1198 160.512 60.1033 160.169 60.1551C159.84 60.2048 159.565 60.3069 159.346 60.4614C159.124 60.6027 158.949 60.7776 158.818 60.9861C158.688 61.1945 158.595 61.431 158.541 61.6954C158.498 61.9446 158.475 62.1975 158.474 62.454L162.369 61.8658ZM173.527 58.6037C173.253 58.5775 172.934 58.5584 172.568 58.5462C172.2 58.5209 171.812 58.539 171.403 58.6007C171.218 58.6286 170.997 58.6822 170.739 58.7616C170.493 58.8258 170.307 58.8876 170.181 58.947L171.381 66.8969L168.434 67.3418L166.948 57.4934C167.447 57.2292 168.041 56.9643 168.729 56.6986C169.428 56.4177 170.219 56.2106 171.103 56.0772C171.261 56.0534 171.454 56.0377 171.682 56.0302C171.908 56.0096 172.137 56.0021 172.367 56.0078C172.595 56.0003 172.825 56.0061 173.057 56.025C173.287 56.0307 173.486 56.0546 173.654 56.0966L173.527 58.6037ZM174.717 53.1044L177.592 52.1849L178.055 55.2502L181.595 54.7158L181.965 57.168L178.425 57.7024L178.977 61.361C179.071 61.9806 179.251 62.4591 179.518 62.7964C179.797 63.1317 180.267 63.2496 180.926 63.1501C181.243 63.1023 181.562 63.0272 181.883 62.9247C182.216 62.807 182.513 62.6745 182.774 62.5273L183.536 64.7586C183.201 64.9574 182.825 65.1423 182.406 65.3135C181.987 65.4846 181.461 65.618 180.828 65.7135C180.024 65.8349 179.342 65.83 178.783 65.6986C178.221 65.5541 177.754 65.3146 177.38 64.98C177.003 64.6323 176.708 64.1915 176.492 63.6577C176.29 63.1218 176.138 62.5177 176.037 61.8454L174.717 53.1044ZM188.231 62.1888C188.772 62.1072 189.146 61.9968 189.354 61.8575C189.563 61.7181 189.644 61.4969 189.598 61.1936C189.562 60.9563 189.386 60.7739 189.07 60.6463C188.752 60.5055 188.28 60.3678 187.653 60.2333C187.166 60.1315 186.717 60.0172 186.307 59.8904C185.91 59.7615 185.56 59.5918 185.259 59.3811C184.955 59.1572 184.704 58.8782 184.505 58.5442C184.307 58.2101 184.169 57.7926 184.094 57.2916C183.947 56.316 184.193 55.49 184.832 54.8136C185.472 54.1372 186.424 53.7035 187.69 53.5124C188.323 53.4169 188.938 53.3846 189.536 53.4157C190.132 53.4336 190.612 53.4826 190.974 53.5627L190.806 55.9343C190.446 55.8674 190.054 55.8187 189.631 55.7881C189.222 55.7555 188.767 55.777 188.266 55.8527C187.343 55.992 186.92 56.3188 186.998 56.8329C187.016 56.9516 187.052 57.0541 187.105 57.1404C187.159 57.2267 187.252 57.307 187.384 57.3814C187.515 57.4426 187.687 57.511 187.901 57.5866C188.125 57.6471 188.405 57.7127 188.739 57.7836C189.421 57.9234 189.991 58.0801 190.449 58.2537C190.904 58.4142 191.272 58.6149 191.551 58.8559C191.841 59.0818 192.057 59.3526 192.199 59.6682C192.355 59.9819 192.465 60.3563 192.531 60.7913C192.686 61.8197 192.415 62.6563 191.716 63.301C191.031 63.9438 189.983 64.3717 188.573 64.5847C187.65 64.724 186.867 64.7614 186.223 64.6967C185.593 64.63 185.151 64.5619 184.898 64.4923L185.031 62.0247C185.562 62.1469 186.1 62.2274 186.645 62.2665C187.188 62.2923 187.717 62.2665 188.231 62.1888ZM207.579 50.793C207.288 52.8865 206.952 54.8588 206.571 56.7098C206.189 58.5608 205.741 60.368 205.225 62.1314C205.038 62.7665 204.836 63.3093 204.621 63.7598C204.408 64.2235 204.156 64.612 203.867 64.9255C203.579 65.2521 203.233 65.5066 202.829 65.6889C202.44 65.8825 201.969 66.021 201.415 66.1046C200.954 66.1743 200.518 66.1928 200.109 66.1603C199.715 66.1389 199.384 66.0944 199.118 66.0267L199.277 63.5957C199.596 63.6554 199.877 63.6871 200.12 63.6909C200.364 63.6946 200.617 63.6766 200.881 63.6367C201.408 63.5571 201.788 63.3514 202.022 63.0196C202.27 62.6989 202.455 62.2732 202.577 61.7423C201.706 60.5254 200.81 59.1503 199.891 57.617C198.97 56.0706 198.059 54.3203 197.157 52.3664L200.281 51.8947C200.491 52.3889 200.727 52.9264 200.99 53.507C201.264 54.0724 201.547 54.65 201.838 55.2398C202.127 55.8164 202.415 56.3798 202.7 56.93C202.999 57.4783 203.276 57.9758 203.532 58.4225C203.632 57.922 203.73 57.3678 203.827 56.7599C203.924 56.1519 204.013 55.5317 204.093 54.8994C204.184 54.2519 204.263 53.6196 204.332 53.0024C204.412 52.3701 204.479 51.7869 204.533 51.2528L207.579 50.793ZM209.191 55.9502C209.051 55.0273 209.068 54.2022 209.242 53.4748C209.426 52.7323 209.714 52.0954 210.106 51.5643C210.498 51.0332 210.973 50.6043 211.53 50.2774C212.101 49.9485 212.702 49.7363 213.335 49.6408C214.812 49.4178 216.047 49.6965 217.042 50.4769C218.034 51.244 218.662 52.5043 218.927 54.2578C218.953 54.4291 218.975 54.6213 218.994 54.8342C219.011 55.034 219.024 55.214 219.035 55.3742L212.351 56.3833C212.508 56.9798 212.864 57.4182 213.419 57.6985C213.974 57.9789 214.673 58.0554 215.517 57.928C216.057 57.8464 216.578 57.7206 217.078 57.5507C217.589 57.3656 217.999 57.1757 218.307 56.9809L219.063 59.3141C218.917 59.4171 218.718 59.528 218.466 59.6469C218.215 59.7658 217.928 59.8765 217.606 59.979C217.3 60.0927 216.965 60.1972 216.602 60.2925C216.239 60.3878 215.873 60.4633 215.503 60.519C214.567 60.6603 213.729 60.6453 212.988 60.4739C212.261 60.3005 211.631 60.0114 211.098 59.6064C210.576 59.1863 210.153 58.6635 209.829 58.0382C209.519 57.4108 209.306 56.7148 209.191 55.9502ZM215.942 53.778C215.891 53.5295 215.808 53.2925 215.693 53.0672C215.591 52.8398 215.447 52.6458 215.261 52.4851C215.088 52.3224 214.874 52.1997 214.619 52.1168C214.377 52.032 214.085 52.0155 213.742 52.0672C213.412 52.117 213.138 52.2191 212.918 52.3736C212.697 52.5149 212.521 52.6898 212.391 52.8982C212.261 53.1067 212.168 53.3431 212.114 53.6076C212.07 53.8568 212.048 54.1097 212.046 54.3661L215.942 53.778ZM219.947 46.2761L222.822 45.3566L223.284 48.4219L226.824 47.8875L227.194 50.3397L223.655 50.8741L224.207 54.5327C224.3 55.1523 224.481 55.6308 224.747 55.9681C225.027 56.3034 225.497 56.4213 226.156 56.3218C226.472 56.274 226.791 56.1989 227.113 56.0964C227.446 55.9787 227.743 55.8462 228.004 55.699L228.765 57.9303C228.431 58.1291 228.055 58.314 227.635 58.4852C227.216 58.6563 226.69 58.7897 226.057 58.8852C225.253 59.0066 224.571 59.0017 224.012 58.8703C223.451 58.7258 222.983 58.4863 222.609 58.1517C222.233 57.804 221.937 57.3632 221.722 56.8294C221.52 56.2935 221.368 55.6894 221.266 55.0171L219.947 46.2761Z" fill="#AEB7C6"/>
<path d="M144.252 143.159L145.134 142.75C145.691 142.492 146.355 141.908 146.999 141.27C147.689 140.586 148.5 139.689 149.372 138.648C151.117 136.563 153.146 133.847 154.994 130.978C156.837 128.117 158.528 125.059 159.567 122.296C160.087 120.914 160.459 119.566 160.591 118.326C160.723 117.096 160.628 115.875 160.106 114.83C158.638 111.891 155.324 109.16 152.037 108.53L152.037 108.53C150.101 108.159 148.558 108.774 147.363 109.815C146.227 110.805 145.397 112.183 144.738 113.392L144.252 143.159ZM144.252 143.159L143.655 142.391M144.252 143.159L143.655 142.391M143.655 142.391C140.571 138.419 139.863 132.994 140.37 127.766M143.655 142.391L140.37 127.766M140.37 127.766C140.88 122.515 142.634 117.251 144.738 113.392L140.37 127.766Z" fill="white" stroke="black" stroke-width="2.44397"/>
<path d="M141.735 147.098L142.581 147.579C143.114 147.882 143.975 148.084 144.868 148.237C145.826 148.401 147.027 148.54 148.382 148.645C151.093 148.853 154.482 148.927 157.89 148.764C161.29 148.602 164.761 148.201 167.614 147.442C169.04 147.062 170.354 146.581 171.44 145.969C172.517 145.361 173.456 144.575 174.003 143.543C175.543 140.64 175.84 136.356 174.443 133.315L174.443 133.315C173.62 131.523 172.222 130.625 170.681 130.257C169.215 129.907 167.611 130.032 166.244 130.199L141.735 147.098ZM141.735 147.098L142.014 146.167M141.735 147.098L142.014 146.167M142.014 146.167C143.454 141.349 147.458 137.62 152.008 134.996M142.014 146.167L152.008 134.996M152.008 134.996C156.578 132.359 161.882 130.729 166.244 130.199L152.008 134.996Z" fill="white" stroke="black" stroke-width="2.44397"/>
<path d="M139.3 144.898C137.21 146.239 136.011 148.464 136.099 151.435C136.185 154.335 137.486 157.921 140.236 162.211C142.992 166.511 146.228 169.994 149.273 172.134C150.793 173.202 152.315 173.97 153.744 174.308C155.179 174.647 156.62 174.571 157.825 173.798C159.03 173.025 159.7 171.748 159.991 170.303C160.281 168.863 160.218 167.16 159.883 165.333C159.211 161.673 157.398 157.279 154.641 152.978C151.891 148.688 149.176 146.008 146.577 144.719C143.914 143.399 141.391 143.558 139.3 144.898Z" fill="black" stroke="black" stroke-width="2.30615"/>
<circle r="8.58436" transform="matrix(-0.753807 -0.657096 -0.657096 0.753807 137.938 143.218)" fill="black"/>
<mask id="mask0_4313_192274" style="mask-type:alpha" maskUnits="userSpaceOnUse" x="137" y="144" width="23" height="30">
<path d="M141.208 161.589C135.816 153.176 136.483 148.075 139.925 145.869C143.366 143.663 148.28 145.187 153.672 153.6C159.065 162.014 160.645 170.62 157.204 172.828C153.764 175.035 146.6 170 141.208 161.589Z" fill="black"/>
</mask>
<g mask="url(#mask0_4313_192274)">
<circle r="2.98741" transform="matrix(-0.753807 -0.657096 -0.657096 0.753807 157.977 164.354)" fill="#FFB016"/>
<circle r="3.94557" transform="matrix(-0.753807 -0.657096 -0.657096 0.753807 152.613 155.371)" fill="#FFB016"/>
<ellipse rx="12.5033" ry="5.5468" transform="matrix(-0.520709 -0.853734 -0.853734 0.520709 141.481 162.813)" fill="#FFB016"/>
</g>
<path d="M114.836 141.079C116.417 141.3 117.844 140.544 118.867 139.423C119.894 138.296 120.613 136.71 120.861 134.941C121.108 133.172 120.85 131.45 120.171 130.084C119.496 128.725 118.33 127.607 116.749 127.386C115.168 127.165 113.74 127.921 112.718 129.043C111.691 130.17 110.971 131.756 110.724 133.525C110.477 135.293 110.734 137.016 111.413 138.381C112.089 139.74 113.254 140.859 114.836 141.079Z" fill="white" stroke="black" stroke-width="2.44397"/>
<path fill-rule="evenodd" clip-rule="evenodd" d="M115.465 137.185C114.642 137.079 114.146 135.622 114.361 133.931C114.571 132.224 115.415 130.947 116.237 131.053C116.82 131.125 117.353 131.543 117.28 132.513L115.467 133.57L116.972 134.001C116.908 134.356 116.861 134.715 116.833 135.075C116.734 136.659 116.156 137.269 115.465 137.185Z" fill="black"/>
<path d="M98.829 151.892L120.482 145.601L119.317 138.288L98.829 151.892Z" fill="black"/>
<path d="M117.289 150.043L118.624 146.091L113.705 147.532L108.129 149.164L102.718 150.748L105.974 153.356L108.129 149.164L111.385 151.772L113.705 147.532L117.289 150.043Z" fill="black"/>
<path d="M125.628 149.83C128.075 150.197 130.39 149.154 132.144 147.38C133.899 145.606 135.166 143.042 135.603 140.121C136.041 137.2 135.58 134.377 134.422 132.167C133.265 129.958 131.356 128.282 128.909 127.916C126.462 127.549 124.147 128.592 122.393 130.366C120.638 132.14 119.371 134.704 118.934 137.625C118.496 140.546 118.957 143.369 120.115 145.579C121.272 147.788 123.181 149.464 125.628 149.83Z" fill="white" stroke="black" stroke-width="2.44397"/>
<path d="M124.264 138.576C123.728 142.015 124.657 145.018 126.329 145.281C127.735 145.494 128.951 144.282 129.245 141.055C129.391 139.69 129.664 138.343 130.062 137.03C130.891 134.219 129.66 133.023 128.261 132.809C126.588 132.546 124.792 135.105 124.264 138.576Z" fill="black"/>
<path d="M131.541 135.352L126.523 137.328L133.055 140.863L131.541 135.352Z" fill="white"/>
<path d="M137.765 149.813L136.698 151.498C134.96 154.244 135.318 157.821 137.567 160.167V160.167" stroke="black" stroke-width="2.88269"/>
<path d="M133.735 149.371L132.136 150.562C129.529 152.502 128.582 155.97 129.841 158.966V158.966" stroke="black" stroke-width="2.88269"/>
<mask id="path-21-outside-1_4313_192274" maskUnits="userSpaceOnUse" x="82.4639" y="178.203" width="66" height="66" fill="black">
<rect fill="white" x="82.4639" y="178.203" width="66" height="66"/>
<path fill-rule="evenodd" clip-rule="evenodd" d="M116.066 241.185C109.113 241.311 102.332 239.027 96.8777 234.723C91.4233 230.419 87.633 224.361 86.1528 217.581C84.6726 210.801 85.5939 203.719 88.7599 197.541C91.9258 191.362 97.1405 186.471 103.515 183.699C109.89 180.928 117.031 180.448 123.721 182.341C130.41 184.235 136.235 188.384 140.203 194.083C144.17 199.781 146.035 206.677 145.48 213.594C144.924 220.51 141.982 227.021 137.155 232.016C134.422 234.86 131.151 237.135 127.531 238.708C123.911 240.282 120.014 241.124 116.066 241.185ZM119.47 211.126C119.484 211.906 119.266 212.672 118.844 213.329C118.421 213.985 117.813 214.502 117.097 214.813C116.38 215.125 115.587 215.217 114.817 215.079C114.048 214.941 113.337 214.578 112.774 214.037C112.212 213.495 111.822 212.799 111.656 212.037C111.49 211.275 111.553 210.48 111.839 209.754C112.125 209.028 112.621 208.403 113.263 207.958C113.905 207.513 114.665 207.268 115.446 207.254C116.494 207.235 117.507 207.632 118.262 208.358C119.016 209.084 119.451 210.08 119.47 211.126ZM89.7268 211.664C89.4688 197.473 100.829 185.716 115.051 185.458C129.273 185.2 141.054 196.536 141.312 210.729C141.571 224.921 130.209 236.678 115.988 236.935C101.767 237.193 89.9848 225.856 89.7268 211.664Z"/>
</mask>
<path fill-rule="evenodd" clip-rule="evenodd" d="M116.066 241.185C109.113 241.311 102.332 239.027 96.8777 234.723C91.4233 230.419 87.633 224.361 86.1528 217.581C84.6726 210.801 85.5939 203.719 88.7599 197.541C91.9258 191.362 97.1405 186.471 103.515 183.699C109.89 180.928 117.031 180.448 123.721 182.341C130.41 184.235 136.235 188.384 140.203 194.083C144.17 199.781 146.035 206.677 145.48 213.594C144.924 220.51 141.982 227.021 137.155 232.016C134.422 234.86 131.151 237.135 127.531 238.708C123.911 240.282 120.014 241.124 116.066 241.185ZM119.47 211.126C119.484 211.906 119.266 212.672 118.844 213.329C118.421 213.985 117.813 214.502 117.097 214.813C116.38 215.125 115.587 215.217 114.817 215.079C114.048 214.941 113.337 214.578 112.774 214.037C112.212 213.495 111.822 212.799 111.656 212.037C111.49 211.275 111.553 210.48 111.839 209.754C112.125 209.028 112.621 208.403 113.263 207.958C113.905 207.513 114.665 207.268 115.446 207.254C116.494 207.235 117.507 207.632 118.262 208.358C119.016 209.084 119.451 210.08 119.47 211.126ZM89.7268 211.664C89.4688 197.473 100.829 185.716 115.051 185.458C129.273 185.2 141.054 196.536 141.312 210.729C141.571 224.921 130.209 236.678 115.988 236.935C101.767 237.193 89.9848 225.856 89.7268 211.664Z" fill="white"/>
<path d="M96.8777 234.723L98.3063 232.913H98.3063L96.8777 234.723ZM116.066 241.185L116.03 238.879L116.024 238.879L116.066 241.185ZM86.1528 217.581L83.8997 218.073L86.1528 217.581ZM88.7599 197.541L86.7075 196.489H86.7075L88.7599 197.541ZM103.515 183.699L102.596 181.584L103.515 183.699ZM123.721 182.341L124.349 180.122L123.721 182.341ZM145.48 213.594L143.181 213.409V213.409L145.48 213.594ZM137.155 232.016L135.497 230.414L135.492 230.418L137.155 232.016ZM127.531 238.708L128.45 240.823V240.823L127.531 238.708ZM118.844 213.329L120.783 214.577L120.783 214.577L118.844 213.329ZM119.47 211.126L121.776 211.084V211.084L119.47 211.126ZM114.817 215.079L114.41 217.349L114.817 215.079ZM111.656 212.037L113.909 211.545V211.545L111.656 212.037ZM115.446 207.254L115.404 204.948L115.446 207.254ZM115.051 185.458L115.009 183.152L115.009 183.152L115.051 185.458ZM89.7268 211.664L92.0326 211.622L89.7268 211.664ZM141.312 210.729L143.618 210.687V210.687L141.312 210.729ZM115.988 236.935L116.03 239.241L115.988 236.935ZM95.4492 236.534C101.322 241.168 108.623 243.626 116.108 243.491L116.024 238.879C109.604 238.995 103.342 236.887 98.3063 232.913L95.4492 236.534ZM83.8997 218.073C85.494 225.376 89.5761 231.899 95.4492 236.534L98.3063 232.913C93.2705 228.939 89.7721 223.347 88.4059 217.089L83.8997 218.073ZM86.7075 196.489C83.2979 203.143 82.3054 210.771 83.8997 218.073L88.4059 217.089C87.0397 210.832 87.89 204.295 90.8122 198.592L86.7075 196.489ZM102.596 181.584C95.7325 184.568 90.1171 189.835 86.7075 196.489L90.8122 198.592C93.7346 192.89 98.5485 188.373 104.435 185.814L102.596 181.584ZM124.349 180.122C117.147 178.084 109.459 178.601 102.596 181.584L104.435 185.814C110.321 183.255 116.915 182.812 123.093 184.56L124.349 180.122ZM142.096 192.765C137.823 186.628 131.551 182.161 124.349 180.122L123.093 184.56C129.27 186.309 134.648 190.14 138.31 195.4L142.096 192.765ZM147.778 213.778C148.377 206.328 146.368 198.902 142.096 192.765L138.31 195.4C141.973 200.661 143.694 207.025 143.181 213.409L147.778 213.778ZM138.813 233.619C144.011 228.24 147.18 221.228 147.778 213.778L143.181 213.409C142.668 219.793 139.953 225.802 135.497 230.414L138.813 233.619ZM128.45 240.823C132.349 239.128 135.873 236.678 138.818 233.614L135.492 230.418C132.971 233.042 129.952 235.141 126.611 236.594L128.45 240.823ZM116.101 243.491C120.354 243.425 124.551 242.519 128.45 240.823L126.611 236.594C123.271 238.046 119.674 238.823 116.03 238.879L116.101 243.491ZM120.783 214.577C121.453 213.536 121.798 212.321 121.776 211.084L117.164 211.168C117.17 211.49 117.08 211.808 116.904 212.081L120.783 214.577ZM118.016 216.928C119.15 216.435 120.114 215.617 120.783 214.577L116.904 212.081C116.729 212.353 116.476 212.568 116.177 212.698L118.016 216.928ZM114.41 217.349C115.627 217.568 116.882 217.421 118.016 216.928L116.177 212.698C115.878 212.828 115.547 212.867 115.225 212.809L114.41 217.349ZM111.175 215.698C112.067 216.556 113.192 217.13 114.41 217.349L115.225 212.809C114.904 212.752 114.608 212.6 114.373 212.375L111.175 215.698ZM109.403 212.529C109.667 213.738 110.284 214.84 111.175 215.698L114.373 212.375C114.139 212.15 113.978 211.861 113.909 211.545L109.403 212.529ZM109.694 208.909C109.24 210.06 109.139 211.32 109.403 212.529L113.909 211.545C113.84 211.229 113.867 210.9 113.985 210.599L109.694 208.909ZM111.949 206.063C110.932 206.768 110.147 207.758 109.694 208.909L113.985 210.599C114.104 210.299 114.309 210.039 114.577 209.853L111.949 206.063ZM115.404 204.948C114.168 204.97 112.965 205.358 111.949 206.063L114.577 209.853C114.844 209.668 115.161 209.565 115.488 209.559L115.404 204.948ZM119.861 206.696C118.665 205.546 117.062 204.918 115.404 204.948L115.488 209.559C115.926 209.551 116.349 209.718 116.663 210.02L119.861 206.696ZM121.776 211.084C121.745 209.425 121.056 207.847 119.861 206.696L116.663 210.02C116.976 210.322 117.156 210.735 117.164 211.168L121.776 211.084ZM115.009 183.152C99.5177 183.433 87.1398 196.237 87.421 211.706L92.0326 211.622C91.7978 198.709 102.139 187.999 115.092 187.764L115.009 183.152ZM143.618 210.687C143.336 195.216 130.5 182.871 115.009 183.152L115.092 187.764C128.046 187.529 138.771 197.856 139.006 210.771L143.618 210.687ZM116.03 239.241C131.52 238.961 143.9 226.157 143.618 210.687L139.006 210.771C139.241 223.685 128.899 234.395 115.946 234.63L116.03 239.241ZM87.421 211.706C87.7022 227.176 100.54 239.522 116.03 239.241L115.946 234.63C102.994 234.864 92.2673 224.536 92.0326 211.622L87.421 211.706Z" fill="black" mask="url(#path-21-outside-1_4313_192274)"/>
<mask id="path-23-outside-2_4313_192274" maskUnits="userSpaceOnUse" x="110.022" y="151.257" width="71" height="93" fill="black">
<rect fill="white" x="110.022" y="151.257" width="71" height="93"/>
<path fill-rule="evenodd" clip-rule="evenodd" d="M124.209 154.975C122.615 154.077 120.612 154.065 118.894 154.697C117.342 155.267 113.911 157.272 114.617 159.183L113.022 210.889C113.022 210.889 113.243 212.669 115.105 212.796C116.904 212.919 117.122 210.929 117.122 210.929L117.04 175.607C119.361 175.699 123.312 176.01 127.9 177.014C134.609 178.482 144.058 181.775 150.972 189.121C159.376 198.052 162.697 208.276 164.003 215.28C164.07 215.639 164.132 215.992 164.19 216.341C163.919 216.382 163.649 216.431 163.38 216.49C160.969 217.014 158.767 218.24 157.054 220.013C155.341 221.786 154.193 224.026 153.755 226.451C153.318 228.875 153.61 231.374 154.596 233.632C155.582 235.89 157.217 237.805 159.293 239.136C161.37 240.467 163.796 241.154 166.264 241.109C169.572 241.045 172.719 239.675 175.016 237.298C177.313 234.921 178.571 231.733 178.514 228.431C178.47 225.969 177.694 223.575 176.286 221.552C174.877 219.529 172.9 217.969 170.602 217.068C169.372 216.585 168.079 216.303 166.773 216.226C166.7 215.769 166.619 215.303 166.532 214.83C165.684 210.177 164.266 205.647 162.31 201.34C161.348 199.227 160.249 197.184 159.021 195.222C159.091 191.604 158.684 185.83 157.529 183.108C157.216 182.333 156.794 181.607 156.278 180.95C155.755 180.309 155.126 179.785 154.426 179.365L156.389 179.455C156.932 179.48 157.482 179.504 158.012 179.386C158.542 179.267 159.059 178.987 159.344 178.525C159.684 177.973 159.639 177.262 159.451 176.641L159.443 176.614C159.134 175.593 158.652 173.998 156.487 173.505C154.306 173.007 152.106 173.577 150.185 174.075C149.062 174.366 148.035 174.632 147.163 174.646C147.004 174.649 146.85 174.651 146.698 174.653C145.268 174.673 144.142 174.689 143.353 175.006C142.734 175.256 142.201 175.679 141.817 176.223C141.418 176.791 141.216 177.609 141.646 178.155C141.89 178.466 142.293 178.619 142.687 178.652C143.083 178.667 143.48 178.634 143.868 178.556C144.14 178.514 144.414 178.478 144.689 178.449C144.43 178.532 144.174 178.626 143.922 178.731C143.887 178.745 143.845 178.762 143.798 178.782C143.499 178.903 142.985 179.111 142.592 179.371C141.988 179.045 141.372 178.73 140.745 178.426C137.012 176.619 132.855 175.208 128.387 174.23C123.55 173.171 119.441 172.853 117.033 172.764L116.999 158.148C117.761 157.362 118.881 156.863 119.973 156.605C121.089 156.34 122.297 156.256 123.358 156.692C124.394 157.117 125.142 157.96 125.895 158.81C126.422 159.405 126.951 160.002 127.585 160.463C129.394 161.776 132.058 161.765 133.855 160.436L133.19 159.034C132.452 159.411 131.68 159.796 130.852 159.804C130.036 159.812 129.256 159.448 128.596 158.968C127.883 158.45 127.279 157.797 126.676 157.146C125.922 156.33 125.17 155.517 124.209 154.975ZM164.638 219.61C163.247 219.818 161.917 220.343 160.754 221.149C159.259 222.186 158.105 223.641 157.439 225.332C156.773 227.023 156.625 228.872 157.012 230.647C157.4 232.422 158.306 234.042 159.616 235.303C160.927 236.564 162.582 237.409 164.374 237.731C166.165 238.053 168.012 237.838 169.681 237.112C171.35 236.386 172.765 235.183 173.749 233.655C174.733 232.127 175.24 230.341 175.207 228.525C175.16 226.091 174.147 223.774 172.39 222.084C170.968 220.715 169.152 219.847 167.217 219.589C167.462 221.963 167.529 223.992 167.523 225.545C167.857 225.703 168.165 225.915 168.436 226.176C169.095 226.811 169.475 227.681 169.492 228.595C169.504 229.277 169.314 229.948 168.945 230.522C168.575 231.095 168.044 231.547 167.417 231.82C166.791 232.092 166.097 232.173 165.424 232.052C164.752 231.931 164.13 231.614 163.638 231.141C163.146 230.667 162.806 230.059 162.66 229.392C162.515 228.726 162.571 228.031 162.821 227.396C163.071 226.762 163.504 226.215 164.065 225.826C164.341 225.635 164.641 225.486 164.957 225.382C164.957 223.879 164.886 221.907 164.638 219.61ZM152.741 187.077C150.389 184.578 147.635 182.368 144.521 180.477C144.852 180.338 145.167 180.161 145.483 179.984C145.75 179.834 146.016 179.685 146.293 179.558C148.193 178.686 150.52 178.969 152.288 180.085C154.056 181.2 155.276 183.069 155.824 185.083C156.329 186.937 156.295 188.906 155.924 190.795C154.923 189.509 153.861 188.268 152.741 187.077Z"/>
</mask>
<path fill-rule="evenodd" clip-rule="evenodd" d="M124.209 154.975C122.615 154.077 120.612 154.065 118.894 154.697C117.342 155.267 113.911 157.272 114.617 159.183L113.022 210.889C113.022 210.889 113.243 212.669 115.105 212.796C116.904 212.919 117.122 210.929 117.122 210.929L117.04 175.607C119.361 175.699 123.312 176.01 127.9 177.014C134.609 178.482 144.058 181.775 150.972 189.121C159.376 198.052 162.697 208.276 164.003 215.28C164.07 215.639 164.132 215.992 164.19 216.341C163.919 216.382 163.649 216.431 163.38 216.49C160.969 217.014 158.767 218.24 157.054 220.013C155.341 221.786 154.193 224.026 153.755 226.451C153.318 228.875 153.61 231.374 154.596 233.632C155.582 235.89 157.217 237.805 159.293 239.136C161.37 240.467 163.796 241.154 166.264 241.109C169.572 241.045 172.719 239.675 175.016 237.298C177.313 234.921 178.571 231.733 178.514 228.431C178.47 225.969 177.694 223.575 176.286 221.552C174.877 219.529 172.9 217.969 170.602 217.068C169.372 216.585 168.079 216.303 166.773 216.226C166.7 215.769 166.619 215.303 166.532 214.83C165.684 210.177 164.266 205.647 162.31 201.34C161.348 199.227 160.249 197.184 159.021 195.222C159.091 191.604 158.684 185.83 157.529 183.108C157.216 182.333 156.794 181.607 156.278 180.95C155.755 180.309 155.126 179.785 154.426 179.365L156.389 179.455C156.932 179.48 157.482 179.504 158.012 179.386C158.542 179.267 159.059 178.987 159.344 178.525C159.684 177.973 159.639 177.262 159.451 176.641L159.443 176.614C159.134 175.593 158.652 173.998 156.487 173.505C154.306 173.007 152.106 173.577 150.185 174.075C149.062 174.366 148.035 174.632 147.163 174.646C147.004 174.649 146.85 174.651 146.698 174.653C145.268 174.673 144.142 174.689 143.353 175.006C142.734 175.256 142.201 175.679 141.817 176.223C141.418 176.791 141.216 177.609 141.646 178.155C141.89 178.466 142.293 178.619 142.687 178.652C143.083 178.667 143.48 178.634 143.868 178.556C144.14 178.514 144.414 178.478 144.689 178.449C144.43 178.532 144.174 178.626 143.922 178.731C143.887 178.745 143.845 178.762 143.798 178.782C143.499 178.903 142.985 179.111 142.592 179.371C141.988 179.045 141.372 178.73 140.745 178.426C137.012 176.619 132.855 175.208 128.387 174.23C123.55 173.171 119.441 172.853 117.033 172.764L116.999 158.148C117.761 157.362 118.881 156.863 119.973 156.605C121.089 156.34 122.297 156.256 123.358 156.692C124.394 157.117 125.142 157.96 125.895 158.81C126.422 159.405 126.951 160.002 127.585 160.463C129.394 161.776 132.058 161.765 133.855 160.436L133.19 159.034C132.452 159.411 131.68 159.796 130.852 159.804C130.036 159.812 129.256 159.448 128.596 158.968C127.883 158.45 127.279 157.797 126.676 157.146C125.922 156.33 125.17 155.517 124.209 154.975ZM164.638 219.61C163.247 219.818 161.917 220.343 160.754 221.149C159.259 222.186 158.105 223.641 157.439 225.332C156.773 227.023 156.625 228.872 157.012 230.647C157.4 232.422 158.306 234.042 159.616 235.303C160.927 236.564 162.582 237.409 164.374 237.731C166.165 238.053 168.012 237.838 169.681 237.112C171.35 236.386 172.765 235.183 173.749 233.655C174.733 232.127 175.24 230.341 175.207 228.525C175.16 226.091 174.147 223.774 172.39 222.084C170.968 220.715 169.152 219.847 167.217 219.589C167.462 221.963 167.529 223.992 167.523 225.545C167.857 225.703 168.165 225.915 168.436 226.176C169.095 226.811 169.475 227.681 169.492 228.595C169.504 229.277 169.314 229.948 168.945 230.522C168.575 231.095 168.044 231.547 167.417 231.82C166.791 232.092 166.097 232.173 165.424 232.052C164.752 231.931 164.13 231.614 163.638 231.141C163.146 230.667 162.806 230.059 162.66 229.392C162.515 228.726 162.571 228.031 162.821 227.396C163.071 226.762 163.504 226.215 164.065 225.826C164.341 225.635 164.641 225.486 164.957 225.382C164.957 223.879 164.886 221.907 164.638 219.61ZM152.741 187.077C150.389 184.578 147.635 182.368 144.521 180.477C144.852 180.338 145.167 180.161 145.483 179.984C145.75 179.834 146.016 179.685 146.293 179.558C148.193 178.686 150.52 178.969 152.288 180.085C154.056 181.2 155.276 183.069 155.824 185.083C156.329 186.937 156.295 188.906 155.924 190.795C154.923 189.509 153.861 188.268 152.741 187.077Z" fill="white"/>
<path d="M118.894 154.697L119.69 156.861L119.69 156.861L118.894 154.697ZM124.209 154.975L125.342 152.967L125.342 152.966L124.209 154.975ZM114.617 159.183L116.922 159.254L116.936 158.805L116.78 158.384L114.617 159.183ZM113.022 210.889L110.717 210.818L110.712 210.996L110.734 211.173L113.022 210.889ZM115.105 212.796L115.262 210.495L115.262 210.495L115.105 212.796ZM117.122 210.929L119.415 211.179L119.429 211.052L119.428 210.923L117.122 210.929ZM117.04 175.607L117.131 173.303L114.728 173.208L114.733 175.613L117.04 175.607ZM127.9 177.014L128.393 174.761L128.393 174.761L127.9 177.014ZM150.972 189.121L152.651 187.541L152.651 187.541L150.972 189.121ZM164.003 215.28L166.27 214.858L166.27 214.858L164.003 215.28ZM164.19 216.341L164.531 218.622L166.851 218.276L166.465 215.962L164.19 216.341ZM163.38 216.49L163.87 218.743H163.87L163.38 216.49ZM153.755 226.451L151.486 226.041V226.041L153.755 226.451ZM154.596 233.632L152.483 234.554L154.596 233.632ZM159.293 239.136L160.538 237.195L160.538 237.195L159.293 239.136ZM166.264 241.109L166.306 243.415L166.308 243.415L166.264 241.109ZM175.016 237.298L176.674 238.901L175.016 237.298ZM178.514 228.431L180.82 228.392L180.82 228.389L178.514 228.431ZM176.286 221.552L174.393 222.87L176.286 221.552ZM170.602 217.068L171.445 214.921L170.602 217.068ZM166.773 216.226L164.496 216.591L164.789 218.419L166.637 218.528L166.773 216.226ZM166.532 214.83L164.263 215.243L164.264 215.248L166.532 214.83ZM162.31 201.34L164.41 200.386L164.409 200.384L162.31 201.34ZM159.021 195.222L156.716 195.178L156.703 195.864L157.067 196.446L159.021 195.222ZM157.529 183.108L155.391 183.972L155.398 183.991L155.406 184.009L157.529 183.108ZM156.278 180.95L158.091 179.525L158.079 179.509L158.066 179.494L156.278 180.95ZM154.426 179.365L154.532 177.061L153.238 181.341L154.426 179.365ZM156.389 179.455L156.496 177.151L156.495 177.151L156.389 179.455ZM158.012 179.386L158.516 181.636L158.516 181.636L158.012 179.386ZM159.344 178.525L157.381 177.314L157.381 177.315L159.344 178.525ZM159.451 176.641L157.244 177.309L157.244 177.309L159.451 176.641ZM159.443 176.614L157.235 177.281L157.235 177.282L159.443 176.614ZM156.487 173.505L157 171.256L157 171.256L156.487 173.505ZM150.185 174.075L149.606 171.843L149.606 171.843L150.185 174.075ZM147.163 174.646L147.125 172.34L147.125 172.34L147.163 174.646ZM146.698 174.653L146.666 172.347H146.666L146.698 174.653ZM143.353 175.006L142.493 172.866L142.489 172.868L143.353 175.006ZM141.817 176.223L139.932 174.894L139.929 174.898L141.817 176.223ZM141.646 178.155L139.833 179.581L139.833 179.581L141.646 178.155ZM142.687 178.652L142.491 180.95L142.547 180.955L142.603 180.957L142.687 178.652ZM143.868 178.556L143.522 176.276L143.466 176.284L143.411 176.295L143.868 178.556ZM144.689 178.449L145.392 180.646L144.449 176.156L144.689 178.449ZM143.922 178.731L143.035 176.602L143.035 176.602L143.922 178.731ZM143.798 178.782L142.931 176.645L142.931 176.645L143.798 178.782ZM142.592 179.371L141.495 181.4L142.71 182.057L143.863 181.295L142.592 179.371ZM140.745 178.426L141.749 176.35L141.749 176.35L140.745 178.426ZM128.387 174.23L127.894 176.483L127.894 176.483L128.387 174.23ZM117.033 172.764L114.727 172.77L114.732 174.987L116.948 175.069L117.033 172.764ZM116.999 158.148L115.344 156.543L114.69 157.216L114.693 158.154L116.999 158.148ZM119.973 156.605L120.503 158.849L120.504 158.849L119.973 156.605ZM123.358 156.692L122.482 158.825L122.483 158.825L123.358 156.692ZM125.895 158.81L127.621 157.281V157.281L125.895 158.81ZM127.585 160.463L126.229 162.328L126.23 162.329L127.585 160.463ZM133.855 160.436L135.226 162.291L136.752 161.163L135.939 159.448L133.855 160.436ZM133.19 159.034L135.274 158.046L134.257 155.902L132.143 156.98L133.19 159.034ZM130.852 159.804L130.829 157.498H130.829L130.852 159.804ZM128.596 158.968L129.951 157.102L129.951 157.102L128.596 158.968ZM126.676 157.146L124.983 158.712L126.676 157.146ZM160.754 221.149L159.44 219.254H159.44L160.754 221.149ZM164.638 219.61L166.931 219.362L166.674 216.973L164.297 217.329L164.638 219.61ZM157.439 225.332L155.294 224.487V224.487L157.439 225.332ZM157.012 230.647L154.759 231.139V231.139L157.012 230.647ZM159.616 235.303L161.215 233.642L161.215 233.642L159.616 235.303ZM175.207 228.525L177.513 228.483L177.513 228.481L175.207 228.525ZM172.39 222.084L173.99 220.422L172.39 222.084ZM167.217 219.589L167.522 217.303L164.622 216.916L164.923 219.826L167.217 219.589ZM167.523 225.545L165.217 225.537L165.212 226.999L166.533 227.628L167.523 225.545ZM168.436 226.176L166.837 227.837L166.837 227.837L168.436 226.176ZM169.492 228.595L167.186 228.637L169.492 228.595ZM168.945 230.522L170.884 231.77L168.945 230.522ZM167.417 231.82L166.498 229.705L166.498 229.705L167.417 231.82ZM165.424 232.052L165.832 229.782L165.832 229.782L165.424 232.052ZM163.638 231.141L165.237 229.479L165.237 229.479L163.638 231.141ZM162.66 229.392L164.913 228.9V228.9L162.66 229.392ZM162.821 227.396L164.966 228.242L164.966 228.242L162.821 227.396ZM164.065 225.826L165.379 227.721L165.379 227.721L164.065 225.826ZM164.957 225.382L165.676 227.573L167.263 227.052L167.263 225.382L164.957 225.382ZM144.521 180.477L143.63 178.349L139.454 180.098L143.324 182.448L144.521 180.477ZM152.741 187.077L154.421 185.497L154.42 185.496L152.741 187.077ZM145.483 179.984L146.611 181.995L146.611 181.995L145.483 179.984ZM146.293 179.558L145.331 177.462L145.331 177.462L146.293 179.558ZM152.288 180.085L151.057 182.035L151.057 182.035L152.288 180.085ZM155.824 185.083L158.049 184.478H158.049L155.824 185.083ZM155.924 190.795L154.105 192.212L157.213 196.203L158.187 191.239L155.924 190.795ZM119.69 156.861C120.909 156.413 122.186 156.482 123.076 156.984L125.342 152.966C123.043 151.671 120.316 151.717 118.099 152.532L119.69 156.861ZM116.78 158.384C116.892 158.686 116.775 158.896 116.807 158.836C116.861 158.734 117.029 158.509 117.394 158.201C118.123 157.587 119.126 157.069 119.69 156.861L118.099 152.532C117.11 152.895 115.621 153.664 114.423 154.673C113.825 155.177 113.171 155.847 112.731 156.676C112.27 157.547 111.989 158.724 112.454 159.982L116.78 158.384ZM115.328 210.96L116.922 159.254L112.312 159.112L110.717 210.818L115.328 210.96ZM115.262 210.495C115.175 210.489 115.196 210.475 115.256 210.514C115.305 210.547 115.324 210.578 115.321 210.573C115.315 210.564 115.305 210.541 115.298 210.517C115.295 210.509 115.296 210.508 115.298 210.519C115.299 210.525 115.301 210.534 115.303 210.548C115.304 210.556 115.305 210.564 115.307 210.573C115.307 210.578 115.308 210.583 115.309 210.588C115.309 210.591 115.31 210.594 115.31 210.597C115.31 210.598 115.31 210.6 115.311 210.601C115.311 210.602 115.311 210.603 115.311 210.603C115.311 210.605 115.311 210.606 113.022 210.889C110.734 211.173 110.734 211.174 110.734 211.175C110.734 211.176 110.734 211.177 110.734 211.178C110.735 211.179 110.735 211.181 110.735 211.183C110.735 211.186 110.736 211.189 110.736 211.193C110.737 211.2 110.738 211.208 110.739 211.216C110.742 211.232 110.744 211.25 110.748 211.27C110.754 211.311 110.762 211.359 110.773 211.413C110.795 211.522 110.827 211.662 110.874 211.822C110.967 212.135 111.128 212.566 111.41 213.017C112.016 213.988 113.151 214.975 114.949 215.097L115.262 210.495ZM117.122 210.929C114.83 210.678 114.83 210.677 114.83 210.676C114.83 210.675 114.83 210.674 114.83 210.674C114.83 210.672 114.83 210.671 114.831 210.67C114.831 210.667 114.831 210.665 114.831 210.663C114.832 210.658 114.832 210.654 114.833 210.65C114.834 210.642 114.835 210.636 114.835 210.631C114.837 210.622 114.838 210.617 114.838 210.617C114.838 210.617 114.835 210.63 114.83 210.651C114.824 210.673 114.817 210.696 114.808 210.718C114.804 210.728 114.801 210.737 114.798 210.743C114.796 210.746 114.795 210.748 114.794 210.75C114.793 210.752 114.793 210.752 114.793 210.752C114.793 210.752 114.793 210.751 114.795 210.75C114.796 210.748 114.798 210.745 114.8 210.741C114.806 210.734 114.815 210.722 114.828 210.708C114.855 210.678 114.9 210.636 114.965 210.596C115.032 210.554 115.104 210.524 115.171 210.508C115.237 210.493 115.272 210.496 115.262 210.495L114.949 215.097C115.854 215.159 116.688 214.953 117.394 214.517C118.072 214.096 118.509 213.538 118.784 213.064C119.057 212.592 119.207 212.14 119.291 211.824C119.333 211.66 119.362 211.519 119.381 211.411C119.391 211.356 119.398 211.309 119.403 211.27C119.406 211.251 119.408 211.233 119.41 211.218C119.411 211.211 119.412 211.204 119.413 211.197C119.413 211.194 119.413 211.191 119.414 211.188C119.414 211.186 119.414 211.185 119.414 211.184C119.414 211.183 119.414 211.182 119.414 211.181C119.415 211.18 119.415 211.179 117.122 210.929ZM114.733 175.613L114.816 210.934L119.428 210.923L119.346 175.602L114.733 175.613ZM128.393 174.761C123.639 173.721 119.548 173.398 117.131 173.303L116.949 177.911C119.174 177.999 122.985 178.299 127.407 179.267L128.393 174.761ZM152.651 187.541C145.276 179.704 135.299 176.273 128.393 174.761L127.407 179.267C133.92 180.692 142.84 183.845 149.293 190.702L152.651 187.541ZM166.27 214.858C164.913 207.58 161.454 196.895 152.651 187.541L149.292 190.702C157.299 199.21 160.481 208.972 161.736 215.703L166.27 214.858ZM166.465 215.962C166.404 215.599 166.339 215.231 166.27 214.858L161.736 215.703C161.8 216.047 161.86 216.386 161.915 216.721L166.465 215.962ZM163.87 218.743C164.09 218.696 164.31 218.655 164.531 218.622L163.85 214.061C163.529 214.109 163.209 214.167 162.89 214.236L163.87 218.743ZM158.712 221.616C160.109 220.171 161.904 219.171 163.87 218.743L162.89 214.236C160.034 214.857 157.426 216.31 155.396 218.411L158.712 221.616ZM156.025 226.86C156.381 224.886 157.316 223.061 158.712 221.616L155.396 218.411C153.365 220.512 152.004 223.167 151.486 226.041L156.025 226.86ZM156.71 232.709C155.907 230.87 155.668 228.834 156.025 226.86L151.486 226.041C150.967 228.915 151.314 231.878 152.483 234.554L156.71 232.709ZM160.538 237.195C158.845 236.11 157.513 234.548 156.71 232.709L152.483 234.554C153.651 237.231 155.589 239.501 158.049 241.078L160.538 237.195ZM166.222 238.803C164.209 238.84 162.231 238.28 160.538 237.195L158.049 241.078C160.51 242.655 163.383 243.468 166.306 243.415L166.222 238.803ZM173.358 235.696C171.485 237.633 168.918 238.751 166.219 238.803L166.308 243.415C170.225 243.339 173.953 241.717 176.674 238.901L173.358 235.696ZM176.209 228.471C176.254 231.16 175.23 233.758 173.358 235.696L176.674 238.901C179.396 236.085 180.887 232.306 180.82 228.392L176.209 228.471ZM174.393 222.87C175.54 224.518 176.172 226.468 176.209 228.473L180.82 228.389C180.767 225.47 179.847 222.632 178.178 220.234L174.393 222.87ZM169.76 219.215C171.633 219.949 173.245 221.222 174.393 222.87L178.178 220.234C176.509 217.837 174.166 215.988 171.445 214.921L169.76 219.215ZM166.637 218.528C167.702 218.591 168.757 218.821 169.76 219.215L171.445 214.921C169.987 214.349 168.455 214.015 166.909 213.924L166.637 218.528ZM164.264 215.248C164.348 215.704 164.425 216.152 164.496 216.591L169.05 215.861C168.974 215.386 168.891 214.903 168.8 214.411L164.264 215.248ZM160.21 202.293C162.088 206.428 163.449 210.777 164.263 215.243L168.801 214.416C167.919 209.577 166.444 204.865 164.41 200.386L160.21 202.293ZM157.067 196.446C158.24 198.322 159.291 200.275 160.211 202.295L164.409 200.384C163.405 198.179 162.258 196.046 160.976 193.999L157.067 196.446ZM155.406 184.009C155.842 185.036 156.207 186.87 156.441 189.072C156.668 191.21 156.749 193.462 156.716 195.178L161.327 195.266C161.364 193.364 161.275 190.92 161.028 188.585C160.787 186.315 160.371 183.901 159.652 182.206L155.406 184.009ZM154.465 182.376C154.848 182.862 155.159 183.4 155.391 183.972L159.667 182.243C159.272 181.267 158.741 180.352 158.091 179.525L154.465 182.376ZM153.238 181.341C153.736 181.641 154.155 181.995 154.49 182.406L158.066 179.494C157.356 178.622 156.515 177.93 155.614 177.388L153.238 181.341ZM156.495 177.151L154.532 177.061L154.32 181.668L156.284 181.759L156.495 177.151ZM157.509 177.135C157.33 177.175 157.091 177.178 156.496 177.151L156.283 181.758C156.773 181.781 157.635 181.833 158.516 181.636L157.509 177.135ZM157.381 177.315C157.458 177.189 157.539 177.134 157.558 177.122C157.575 177.111 157.559 177.124 157.509 177.135L158.516 181.636C159.422 181.434 160.589 180.899 161.307 179.735L157.381 177.315ZM157.244 177.309C157.263 177.374 157.276 177.43 157.283 177.475C157.29 177.521 157.29 177.547 157.29 177.554C157.29 177.57 157.289 177.463 157.381 177.314L161.307 179.735C162.158 178.354 161.922 176.846 161.658 175.974L157.244 177.309ZM157.235 177.282L157.244 177.309L161.658 175.974L161.65 175.946L157.235 177.282ZM155.974 175.753C156.504 175.874 156.691 176.075 156.799 176.222C156.967 176.452 157.073 176.743 157.235 177.281L161.65 175.947C161.504 175.464 161.214 174.447 160.523 173.501C159.772 172.473 158.635 171.629 157 171.256L155.974 175.753ZM150.763 176.307C152.778 175.785 154.429 175.401 155.974 175.753L157 171.256C154.183 170.614 151.433 171.369 149.606 171.843L150.763 176.307ZM147.2 176.952C148.407 176.932 149.73 176.575 150.763 176.307L149.606 171.843C148.394 172.157 147.663 172.331 147.125 172.34L147.2 176.952ZM146.73 176.959C146.882 176.957 147.039 176.954 147.2 176.952L147.125 172.34C146.97 172.343 146.818 172.345 146.666 172.347L146.73 176.959ZM144.213 177.146C144.292 177.114 144.504 177.055 144.975 177.016C145.439 176.978 145.992 176.969 146.73 176.959L146.666 172.347C145.974 172.357 145.249 172.366 144.596 172.42C143.948 172.473 143.203 172.581 142.493 172.866L144.213 177.146ZM143.701 177.552C143.83 177.37 144.008 177.228 144.217 177.144L142.489 172.868C141.46 173.284 140.572 173.987 139.932 174.894L143.701 177.552ZM143.458 176.729C143.731 177.076 143.718 177.416 143.706 177.507C143.695 177.585 143.681 177.581 143.704 177.549L139.929 174.898C139.553 175.434 139.239 176.122 139.135 176.888C139.03 177.667 139.131 178.689 139.833 179.581L143.458 176.729ZM142.883 176.354C142.905 176.356 142.966 176.364 143.057 176.404C143.151 176.447 143.31 176.541 143.458 176.729L139.833 179.581C140.609 180.567 141.72 180.884 142.491 180.95L142.883 176.354ZM143.411 176.295C143.201 176.338 142.986 176.355 142.772 176.348L142.603 180.957C143.181 180.978 143.759 180.931 144.326 180.816L143.411 176.295ZM144.449 176.156C144.133 176.189 143.823 176.23 143.522 176.276L144.215 180.836C144.458 180.799 144.695 180.767 144.929 180.743L144.449 176.156ZM144.81 180.859C144.998 180.781 145.193 180.71 145.392 180.646L143.986 176.253C143.667 176.355 143.35 176.471 143.035 176.602L144.81 180.859ZM144.665 180.919C144.709 180.901 144.762 180.879 144.81 180.859L143.035 176.602C143.012 176.612 142.982 176.624 142.931 176.645L144.665 180.919ZM143.863 181.295C143.925 181.255 144.037 181.193 144.201 181.116C144.358 181.043 144.514 180.98 144.665 180.919L142.931 176.645C142.671 176.75 141.938 177.039 141.321 177.447L143.863 181.295ZM139.74 180.502C140.337 180.791 140.922 181.09 141.495 181.4L143.688 177.342C143.054 176.999 142.408 176.669 141.749 176.35L139.74 180.502ZM127.894 176.483C132.203 177.426 136.186 178.782 139.74 180.502L141.749 176.35C137.838 174.457 133.507 172.99 128.88 171.977L127.894 176.483ZM116.948 175.069C119.256 175.154 123.223 175.46 127.894 176.483L128.88 171.977C123.877 170.882 119.626 170.553 117.118 170.46L116.948 175.069ZM114.693 158.154L114.727 172.77L119.339 172.759L119.305 158.143L114.693 158.154ZM119.442 154.36C118.104 154.677 116.521 155.329 115.344 156.543L118.654 159.754C119.002 159.395 119.658 159.049 120.503 158.849L119.442 154.36ZM124.234 154.558C122.523 153.856 120.753 154.05 119.442 154.361L120.504 158.849C121.426 158.631 122.072 158.657 122.482 158.825L124.234 154.558ZM127.621 157.281C126.938 156.51 125.849 155.221 124.234 154.558L122.483 158.825C122.939 159.012 123.345 159.41 124.169 160.34L127.621 157.281ZM128.94 158.597C128.545 158.31 128.179 157.91 127.621 157.281L124.169 160.34C124.665 160.899 125.357 161.695 126.229 162.328L128.94 158.597ZM132.484 158.582C131.496 159.312 129.935 159.319 128.94 158.597L126.23 162.329C128.852 164.233 132.62 164.217 135.226 162.291L132.484 158.582ZM131.107 160.022L131.771 161.425L135.939 159.448L135.274 158.046L131.107 160.022ZM130.874 162.11C132.333 162.096 133.584 161.423 134.238 161.089L132.143 156.98C131.321 157.399 131.028 157.496 130.829 157.498L130.874 162.11ZM127.24 160.834C128.107 161.463 129.368 162.125 130.874 162.11L130.829 157.498C130.703 157.499 130.405 157.432 129.951 157.102L127.24 160.834ZM124.983 158.712C125.558 159.334 126.313 160.16 127.241 160.834L129.951 157.102C129.453 156.74 128.999 156.261 128.369 155.58L124.983 158.712ZM123.076 156.984C123.669 157.318 124.184 157.848 124.983 158.712L128.369 155.58C127.66 154.813 126.671 153.716 125.342 152.967L123.076 156.984ZM162.068 223.045C162.94 222.44 163.937 222.047 164.98 221.89L164.297 217.329C162.558 217.589 160.895 218.245 159.44 219.254L162.068 223.045ZM159.585 226.177C160.084 224.912 160.947 223.821 162.068 223.045L159.44 219.254C157.57 220.55 156.127 222.371 155.294 224.487L159.585 226.177ZM159.265 230.155C158.975 228.827 159.087 227.443 159.585 226.177L155.294 224.487C154.46 226.603 154.274 228.918 154.759 231.139L159.265 230.155ZM161.215 233.642C160.234 232.697 159.555 231.484 159.265 230.155L154.759 231.139C155.244 233.36 156.378 235.388 158.017 236.965L161.215 233.642ZM164.782 235.461C163.438 235.22 162.197 234.586 161.215 233.642L158.017 236.965C159.656 238.542 161.726 239.598 163.966 240.001L164.782 235.461ZM168.761 234.997C167.51 235.541 166.125 235.703 164.782 235.461L163.966 240.001C166.205 240.403 168.514 240.134 170.6 239.227L168.761 234.997ZM171.81 232.407C171.073 233.552 170.012 234.453 168.761 234.997L170.6 239.227C172.687 238.32 174.458 236.815 175.688 234.903L171.81 232.407ZM172.901 228.567C172.926 229.926 172.546 231.262 171.81 232.407L175.688 234.903C176.919 232.991 177.554 230.756 177.513 228.483L172.901 228.567ZM170.791 223.746C172.108 225.012 172.866 226.747 172.901 228.57L177.513 228.481C177.454 225.434 176.186 222.536 173.99 220.422L170.791 223.746ZM166.911 221.875C168.363 222.069 169.725 222.72 170.791 223.746L173.99 220.422C172.211 218.71 169.94 217.626 167.522 217.303L166.911 221.875ZM164.923 219.826C165.159 222.11 165.222 224.056 165.217 225.537L169.83 225.553C169.835 223.927 169.766 221.817 169.511 219.352L164.923 219.826ZM166.533 227.628C166.644 227.68 166.747 227.751 166.837 227.837L170.035 224.514C169.583 224.08 169.069 223.726 168.514 223.462L166.533 227.628ZM166.837 227.837C167.056 228.048 167.181 228.336 167.186 228.637L171.798 228.553C171.77 227.026 171.135 225.573 170.035 224.514L166.837 227.837ZM167.186 228.637C167.19 228.862 167.128 229.084 167.005 229.274L170.884 231.77C171.5 230.812 171.819 229.692 171.798 228.553L167.186 228.637ZM167.005 229.274C166.883 229.464 166.707 229.614 166.498 229.705L168.337 233.935C169.381 233.481 170.268 232.727 170.884 231.77L167.005 229.274ZM166.498 229.705C166.289 229.796 166.057 229.823 165.832 229.782L165.016 234.322C166.137 234.523 167.292 234.389 168.337 233.935L166.498 229.705ZM165.832 229.782C165.607 229.742 165.4 229.636 165.237 229.479L162.039 232.802C162.86 233.592 163.896 234.12 165.016 234.322L165.832 229.782ZM165.237 229.479C165.074 229.322 164.961 229.12 164.913 228.9L160.407 229.884C160.65 230.997 161.218 232.012 162.039 232.802L165.237 229.479ZM164.913 228.9C164.865 228.68 164.884 228.451 164.966 228.242L160.675 226.551C160.257 227.611 160.164 228.771 160.407 229.884L164.913 228.9ZM164.966 228.242C165.049 228.032 165.192 227.851 165.379 227.721L162.751 223.931C161.815 224.58 161.092 225.491 160.675 226.551L164.966 228.242ZM165.379 227.721C165.471 227.657 165.571 227.608 165.676 227.573L164.238 223.191C163.712 223.364 163.211 223.612 162.751 223.931L165.379 227.721ZM167.263 225.382C167.263 223.807 167.189 221.752 166.931 219.362L162.346 219.857C162.583 222.062 162.651 223.951 162.651 225.382L167.263 225.382ZM143.324 182.448C146.272 184.238 148.861 186.319 151.062 188.657L154.42 185.496C151.917 182.836 148.998 180.497 145.718 178.505L143.324 182.448ZM144.355 177.972C144.019 178.161 143.818 178.27 143.63 178.349L145.411 182.604C145.885 182.405 146.315 182.161 146.611 181.995L144.355 177.972ZM145.331 177.462C144.955 177.634 144.607 177.831 144.355 177.972L146.611 181.995C146.892 181.838 147.077 181.735 147.255 181.654L145.331 177.462ZM153.518 178.134C151.185 176.662 148.034 176.221 145.331 177.462L147.254 181.654C148.351 181.151 149.855 181.277 151.057 182.035L153.518 178.134ZM158.049 184.478C157.378 182.009 155.858 179.61 153.518 178.134L151.057 182.035C152.254 182.79 153.175 184.129 153.599 185.689L158.049 184.478ZM158.187 191.239C158.609 189.092 158.668 186.752 158.049 184.478L153.599 185.689C153.989 187.122 153.981 188.721 153.661 190.351L158.187 191.239ZM151.061 188.656C152.131 189.795 153.147 190.982 154.105 192.212L157.744 189.378C156.698 188.035 155.59 186.74 154.421 185.497L151.061 188.656Z" fill="black" mask="url(#path-23-outside-2_4313_192274)"/>
<path d="M124.65 208.438L124.65 208.437C124.375 206.053 123.163 203.875 121.28 202.383C119.397 200.892 116.998 200.208 114.61 200.482L114.61 200.482C112.83 200.686 111.149 201.413 109.782 202.57C108.415 203.727 107.422 205.263 106.929 206.985C106.436 208.706 106.466 210.534 107.015 212.238C107.563 213.942 108.606 215.445 110.01 216.558C111.414 217.67 113.117 218.342 114.903 218.488C116.689 218.635 118.479 218.249 120.046 217.38C121.613 216.512 122.887 215.199 123.707 213.607C124.527 212.015 124.855 210.216 124.65 208.438Z" fill="white" stroke="black" stroke-width="2.30615"/>
<path d="M117.128 208.022L116.586 207.004L115.567 207.544L114.162 208.289L113.144 208.829L113.685 209.846L119.766 221.276L120.308 222.294L121.327 221.754L122.732 221.009L123.75 220.469L123.209 219.451L117.128 208.022Z" fill="white" stroke="black" stroke-width="2.30615"/>
<path d="M126.856 218.128L126.667 216.99L125.53 217.179L116.624 218.652L115.487 218.84L115.676 219.978L116.112 222.602L116.301 223.74L117.439 223.552L126.344 222.078L127.481 221.89L127.292 220.752L126.856 218.128Z" fill="white" stroke="black" stroke-width="2.30615"/>
</svg>
