<svg width="310" height="84" viewBox="0 0 310 84" fill="none" xmlns="http://www.w3.org/2000/svg">
<rect width="310" height="84" rx="8" fill="white"/>
<path d="M65.4114 32.6454H60.6197V30.82C60.6197 30.6945 60.517 30.5918 60.3915 30.5918H58.7943C58.6688 30.5918 58.5661 30.6945 58.5661 30.82V32.6454H51.2645V30.82C51.2645 30.6945 51.1619 30.5918 51.0364 30.5918H49.4391C49.3137 30.5918 49.211 30.6945 49.211 30.82V32.6454H44.4193C43.9145 32.6454 43.5066 33.0532 43.5066 33.5581V52.4966C43.5066 53.0014 43.9145 53.4093 44.4193 53.4093H65.4114C65.9162 53.4093 66.3241 53.0014 66.3241 52.4966V33.5581C66.3241 33.0532 65.9162 32.6454 65.4114 32.6454ZM64.2705 51.3557H45.5602V40.5174H64.2705V51.3557ZM45.5602 38.5779V34.6989H49.211V36.068C49.211 36.1935 49.3137 36.2962 49.4391 36.2962H51.0364C51.1619 36.2962 51.2645 36.1935 51.2645 36.068V34.6989H58.5661V36.068C58.5661 36.1935 58.6688 36.2962 58.7943 36.2962H60.3915C60.517 36.2962 60.6197 36.1935 60.6197 36.068V34.6989H64.2705V38.5779H45.5602Z" fill="#036CB4"/>
<path d="M86.4387 37.065C88.4637 37.065 90.0863 37.5388 91.3065 38.4864C92.5396 39.421 93.1562 41.1604 93.1562 43.7046C93.1562 46.1839 92.5396 47.9363 91.3065 48.9617C90.0863 49.9742 88.6 50.4805 86.8476 50.4805H83.6349V37.065H86.4387ZM85.4847 38.5448V49.0202H86.9839C88.2301 49.0202 89.2425 48.6372 90.0214 47.8714C90.8002 47.1055 91.1896 45.7166 91.1896 43.7046C91.1896 42.2897 90.9884 41.2058 90.586 40.453C90.1836 39.6871 89.6709 39.1809 89.0478 38.9342C88.4248 38.6746 87.6914 38.5448 86.8476 38.5448H85.4847ZM102.79 48.0855C102.79 48.5009 102.862 48.8125 103.004 49.0202C103.147 49.2149 103.361 49.3641 103.647 49.468L103.238 50.7141C102.706 50.6492 102.277 50.4999 101.953 50.2663C101.628 50.0326 101.388 49.6692 101.233 49.1759C100.545 50.2014 99.5256 50.7141 98.1756 50.7141C97.1631 50.7141 96.3648 50.4285 95.7807 49.8574C95.1965 49.2863 94.9045 48.5399 94.9045 47.6182C94.9045 46.5279 95.2939 45.6906 96.0727 45.1065C96.8645 44.5224 97.9809 44.2303 99.4217 44.2303H100.999V43.4709C100.999 42.744 100.824 42.2248 100.473 41.9133C100.123 41.6017 99.584 41.446 98.8571 41.446C98.1042 41.446 97.1826 41.6277 96.0922 41.9912L95.6444 40.6866C96.9165 40.2193 98.0977 39.9857 99.1881 39.9857C100.395 39.9857 101.297 40.2842 101.895 40.8813C102.492 41.4654 102.79 42.3027 102.79 43.3931V48.0855ZM98.5845 49.3706C99.6099 49.3706 100.415 48.8384 100.999 47.774V45.418H99.6554C97.7602 45.418 96.8126 46.119 96.8126 47.5209C96.8126 48.131 96.9619 48.5918 97.2604 48.9033C97.559 49.2149 98.0003 49.3706 98.5845 49.3706ZM110.292 50.5389C109.89 51.7331 109.325 52.6742 108.598 53.3622C107.884 54.0631 106.859 54.485 105.522 54.6278L105.327 53.2259C106.002 53.109 106.541 52.9403 106.943 52.7196C107.346 52.499 107.664 52.2134 107.897 51.8629C108.144 51.5254 108.371 51.0646 108.579 50.4805H107.975L104.529 40.2193H106.437L109.182 49.1759L111.869 40.2193H113.719L110.292 50.5389ZM118.418 39.9857C119.119 39.9857 119.749 40.083 120.307 40.2777C120.865 40.4724 121.398 40.7645 121.904 41.1539L121.144 42.2832C120.677 41.9847 120.229 41.764 119.801 41.6212C119.386 41.4784 118.944 41.407 118.477 41.407C117.893 41.407 117.432 41.5303 117.094 41.777C116.757 42.0106 116.588 42.3351 116.588 42.7505C116.588 43.1659 116.744 43.4904 117.056 43.7241C117.38 43.9577 117.958 44.1849 118.788 44.4055C119.931 44.6911 120.781 45.0805 121.339 45.5738C121.91 46.0671 122.196 46.7421 122.196 47.5988C122.196 48.6113 121.8 49.3836 121.008 49.9158C120.229 50.448 119.275 50.7141 118.146 50.7141C116.588 50.7141 115.297 50.2663 114.271 49.3706L115.225 48.2803C116.095 48.9423 117.056 49.2733 118.107 49.2733C118.782 49.2733 119.314 49.137 119.704 48.8644C120.106 48.5788 120.307 48.1959 120.307 47.7156C120.307 47.3651 120.236 47.086 120.093 46.8784C119.95 46.6577 119.704 46.4695 119.353 46.3137C119.003 46.1449 118.49 45.9697 117.815 45.788C116.724 45.5024 115.933 45.1195 115.439 44.6392C114.959 44.1589 114.719 43.5488 114.719 42.8089C114.719 42.2767 114.875 41.7964 115.186 41.3681C115.511 40.9267 115.952 40.5893 116.51 40.3556C117.081 40.109 117.718 39.9857 118.418 39.9857ZM137.509 50.4805H135.97L135.834 48.8839C135.445 49.5199 134.997 49.9872 134.491 50.2858C133.984 50.5713 133.368 50.7141 132.641 50.7141C131.745 50.7141 131.044 50.4415 130.538 49.8963C130.032 49.3512 129.779 48.5788 129.779 47.5793V40.2193H131.57V47.3846C131.57 48.0855 131.693 48.5853 131.94 48.8839C132.187 49.1694 132.589 49.3122 133.147 49.3122C134.147 49.3122 135.003 48.7216 135.717 47.5404V40.2193H137.509V50.4805ZM146.037 39.9857C146.972 39.9857 147.699 40.2647 148.218 40.8229C148.75 41.3811 149.017 42.1469 149.017 43.1205V50.4805H147.225V43.3736C147.225 42.6467 147.089 42.1339 146.816 41.8354C146.544 41.5368 146.141 41.3876 145.609 41.3876C145.064 41.3876 144.584 41.5433 144.168 41.8549C143.753 42.1664 143.363 42.6142 143 43.1984V50.4805H141.209V40.2193H142.747L142.903 41.738C143.266 41.1928 143.714 40.7645 144.246 40.453C144.791 40.1414 145.388 39.9857 146.037 39.9857ZM157.797 50.0132C157.122 50.4805 156.356 50.7141 155.499 50.7141C154.629 50.7141 153.948 50.4675 153.455 49.9742C152.974 49.468 152.734 48.7411 152.734 47.7935V41.6017H150.943V40.2193H152.734V37.9023L154.526 37.6881V40.2193H156.959L156.765 41.6017H154.526V47.7156C154.526 48.2478 154.616 48.6372 154.798 48.8839C154.993 49.1175 155.311 49.2343 155.752 49.2343C156.155 49.2343 156.609 49.098 157.115 48.8254L157.797 50.0132ZM161.444 40.2193V50.4805H159.653V40.2193H161.444ZM160.529 35.2932C160.905 35.2932 161.21 35.41 161.444 35.6436C161.678 35.8773 161.795 36.1694 161.795 36.5198C161.795 36.8703 161.678 37.1624 161.444 37.396C161.21 37.6167 160.905 37.727 160.529 37.727C160.166 37.727 159.867 37.6167 159.633 37.396C159.4 37.1624 159.283 36.8703 159.283 36.5198C159.283 36.1694 159.4 35.8773 159.633 35.6436C159.867 35.41 160.166 35.2932 160.529 35.2932ZM167.192 50.7141C166.53 50.7141 166.005 50.5194 165.615 50.13C165.239 49.7276 165.051 49.1694 165.051 48.4555V36.0915L166.842 35.8773V48.4166C166.842 48.7021 166.887 48.9098 166.978 49.0396C167.082 49.1694 167.251 49.2343 167.485 49.2343C167.731 49.2343 167.952 49.1954 168.147 49.1175L168.614 50.3636C168.185 50.5973 167.712 50.7141 167.192 50.7141ZM183.541 40.2193L180.055 50.4805H177.894L174.35 40.2193H176.297L178.984 48.8839L181.652 40.2193H183.541ZM192.197 48.0855C192.197 48.5009 192.268 48.8125 192.411 49.0202C192.554 49.2149 192.768 49.3641 193.053 49.468L192.644 50.7141C192.112 50.6492 191.684 50.4999 191.359 50.2663C191.035 50.0326 190.795 49.6692 190.639 49.1759C189.951 50.2014 188.932 50.7141 187.582 50.7141C186.57 50.7141 185.771 50.4285 185.187 49.8574C184.603 49.2863 184.311 48.5399 184.311 47.6182C184.311 46.5279 184.7 45.6906 185.479 45.1065C186.271 44.5224 187.387 44.2303 188.828 44.2303H190.405V43.4709C190.405 42.744 190.23 42.2248 189.88 41.9133C189.529 41.6017 188.99 41.446 188.263 41.446C187.511 41.446 186.589 41.6277 185.499 41.9912L185.051 40.6866C186.323 40.2193 187.504 39.9857 188.594 39.9857C189.802 39.9857 190.704 40.2842 191.301 40.8813C191.898 41.4654 192.197 42.3027 192.197 43.3931V48.0855ZM187.991 49.3706C189.016 49.3706 189.821 48.8384 190.405 47.774V45.418H189.062C187.167 45.418 186.219 46.119 186.219 47.5209C186.219 48.131 186.368 48.5918 186.667 48.9033C186.965 49.2149 187.407 49.3706 187.991 49.3706ZM199.614 39.9857C200.224 39.9857 200.782 40.0765 201.288 40.2582C201.795 40.427 202.281 40.7061 202.749 41.0955L201.892 42.2248C201.529 41.9652 201.172 41.777 200.821 41.6602C200.484 41.5303 200.107 41.4654 199.692 41.4654C198.861 41.4654 198.212 41.7964 197.745 42.4585C197.29 43.1205 197.063 44.1005 197.063 45.3986C197.063 46.6966 197.29 47.6572 197.745 48.2803C198.199 48.8903 198.848 49.1954 199.692 49.1954C200.094 49.1954 200.464 49.137 200.802 49.0202C201.139 48.8903 201.516 48.6891 201.931 48.4166L202.749 49.5848C201.814 50.3377 200.769 50.7141 199.614 50.7141C198.225 50.7141 197.128 50.2468 196.323 49.3122C195.532 48.3776 195.136 47.086 195.136 45.4375C195.136 44.3471 195.317 43.3931 195.681 42.5753C196.044 41.7575 196.557 41.1215 197.219 40.6671C197.894 40.2128 198.692 39.9857 199.614 39.9857ZM211.896 48.0855C211.896 48.5009 211.967 48.8125 212.11 49.0202C212.253 49.2149 212.467 49.3641 212.752 49.468L212.344 50.7141C211.811 50.6492 211.383 50.4999 211.058 50.2663C210.734 50.0326 210.494 49.6692 210.338 49.1759C209.65 50.2014 208.631 50.7141 207.281 50.7141C206.269 50.7141 205.47 50.4285 204.886 49.8574C204.302 49.2863 204.01 48.5399 204.01 47.6182C204.01 46.5279 204.399 45.6906 205.178 45.1065C205.97 44.5224 207.086 44.2303 208.527 44.2303H210.104V43.4709C210.104 42.744 209.929 42.2248 209.579 41.9133C209.228 41.6017 208.689 41.446 207.963 41.446C207.21 41.446 206.288 41.6277 205.198 41.9912L204.75 40.6866C206.022 40.2193 207.203 39.9857 208.294 39.9857C209.501 39.9857 210.403 40.2842 211 40.8813C211.597 41.4654 211.896 42.3027 211.896 43.3931V48.0855ZM207.69 49.3706C208.715 49.3706 209.52 48.8384 210.104 47.774V45.418H208.761C206.866 45.418 205.918 46.119 205.918 47.5209C205.918 48.131 206.067 48.5918 206.366 48.9033C206.664 49.2149 207.106 49.3706 207.69 49.3706ZM220.754 50.0132C220.079 50.4805 219.313 50.7141 218.456 50.7141C217.587 50.7141 216.905 50.4675 216.412 49.9742C215.932 49.468 215.691 48.7411 215.691 47.7935V41.6017H213.9V40.2193H215.691V37.9023L217.483 37.6881V40.2193H219.917L219.722 41.6017H217.483V47.7156C217.483 48.2478 217.574 48.6372 217.755 48.8839C217.95 49.1175 218.268 49.2343 218.709 49.2343C219.112 49.2343 219.566 49.098 220.072 48.8254L220.754 50.0132ZM224.401 40.2193V50.4805H222.61V40.2193H224.401ZM223.486 35.2932C223.863 35.2932 224.168 35.41 224.401 35.6436C224.635 35.8773 224.752 36.1694 224.752 36.5198C224.752 36.8703 224.635 37.1624 224.401 37.396C224.168 37.6167 223.863 37.727 223.486 37.727C223.123 37.727 222.824 37.6167 222.591 37.396C222.357 37.1624 222.24 36.8703 222.24 36.5198C222.24 36.1694 222.357 35.8773 222.591 35.6436C222.824 35.41 223.123 35.2932 223.486 35.2932ZM231.96 39.9857C233.401 39.9857 234.518 40.4659 235.309 41.4265C236.114 42.3871 236.517 43.6916 236.517 45.3402C236.517 46.4046 236.335 47.3457 235.971 48.1634C235.608 48.9682 235.082 49.5978 234.394 50.0521C233.706 50.4934 232.889 50.7141 231.941 50.7141C230.5 50.7141 229.377 50.2338 228.573 49.2733C227.768 48.3127 227.365 47.0082 227.365 45.3596C227.365 44.2952 227.547 43.3606 227.91 42.5558C228.274 41.738 228.8 41.1085 229.488 40.6671C230.176 40.2128 231 39.9857 231.96 39.9857ZM231.96 41.4265C230.182 41.4265 229.293 42.7375 229.293 45.3596C229.293 47.9687 230.176 49.2733 231.941 49.2733C233.706 49.2733 234.589 47.9622 234.589 45.3402C234.589 42.731 233.713 41.4265 231.96 41.4265ZM244.305 39.9857C245.239 39.9857 245.966 40.2647 246.485 40.8229C247.018 41.3811 247.284 42.1469 247.284 43.1205V50.4805H245.492V43.3736C245.492 42.6467 245.356 42.1339 245.084 41.8354C244.811 41.5368 244.409 41.3876 243.876 41.3876C243.331 41.3876 242.851 41.5433 242.435 41.8549C242.02 42.1664 241.631 42.6142 241.267 43.1984V50.4805H239.476V40.2193H241.014L241.17 41.738C241.533 41.1928 241.981 40.7645 242.513 40.453C243.059 40.1414 243.656 39.9857 244.305 39.9857ZM251.352 48.0077C251.741 48.0077 252.066 48.1375 252.325 48.3971C252.585 48.6567 252.715 48.9747 252.715 49.3512C252.715 49.7276 252.585 50.0521 252.325 50.3247C252.066 50.5843 251.741 50.7141 251.352 50.7141C250.976 50.7141 250.657 50.5843 250.398 50.3247C250.138 50.0521 250.008 49.7276 250.008 49.3512C250.008 48.9747 250.138 48.6567 250.398 48.3971C250.657 48.1375 250.976 48.0077 251.352 48.0077ZM251.352 40.8424C251.741 40.8424 252.066 40.9722 252.325 41.2318C252.585 41.4914 252.715 41.8094 252.715 42.1859C252.715 42.5623 252.585 42.8868 252.325 43.1594C252.066 43.419 251.741 43.5488 251.352 43.5488C250.976 43.5488 250.657 43.419 250.398 43.1594C250.138 42.8868 250.008 42.5623 250.008 42.1859C250.008 41.8094 250.138 41.4914 250.398 41.2318C250.657 40.9722 250.976 40.8424 251.352 40.8424ZM268.64 45.8464V47.2678H266.946V50.4805H265.213V47.2678H259.644V45.9827L263.558 37.2597L265.057 37.8828L261.533 45.8464H265.232L265.388 42.3416H266.946V45.8464H268.64Z" fill="#036CB4"/>
</svg>
