<svg width="422" height="313" viewBox="0 0 422 313" fill="none" xmlns="http://www.w3.org/2000/svg">
<g clip-path="url(#clip0_53_39905)">
<path d="M213.371 356.435C311.436 356.435 390.932 276.938 390.932 178.874C390.932 80.8097 311.436 1.31299 213.371 1.31299C115.307 1.31299 35.8104 80.8097 35.8104 178.874C35.8104 276.938 115.307 356.435 213.371 356.435Z" fill="#FFE75C"/>
<mask id="mask0_53_39905" style="mask-type:alpha" maskUnits="userSpaceOnUse" x="35" y="1" width="356" height="356">
<path d="M213.369 356.436C311.433 356.436 390.93 276.939 390.93 178.875C390.93 80.8107 311.433 1.31396 213.369 1.31396C115.305 1.31396 35.8082 80.8107 35.8082 178.875C35.8082 276.939 115.305 356.436 213.369 356.436Z" fill="#FFE75C"/>
</mask>
<g mask="url(#mask0_53_39905)">
<path d="M-67.2803 196.794C-65.8258 195.649 -64.288 195.866 -62.9162 197.289C-62.7826 197.414 -62.7907 197.414 -62.9428 197.289C-63.5966 193.538 -57.5138 194.882 -55.1946 195.637C-55.9693 189.912 -50.6475 191.461 -47.0862 190.448C-48.354 187.457 -46.5017 185.686 -43.4091 186.408C-46.6774 183.904 -44.2783 180.848 -40.8264 180.111C-41.8837 178.675 -41.517 177.012 -40.0714 175.723C-39.6914 175.764 -39.4014 176.245 -39.0324 176.392C-40.0006 170.336 -32.4752 173.453 -30.8606 176.751C-30.8465 176.222 -30.7949 175.59 -30.8223 175.086C-28.2719 175.381 -26.0744 177.87 -24.8952 180.174C-22.0092 179.29 -19.7504 182.471 -19.4345 185.227C-15.1656 183.304 -9.43486 185.613 -6.22566 184.265C-3.4481 183.101 -3.56911 178.194 0.707185 180.266C0.598706 180.562 0.472523 181.892 0.449651 182.007C1.10493 177.966 6.30141 177.474 9.50254 178.668C9.73794 174.777 12.6911 172.956 16.5084 173.494C16.5711 170.473 20.1302 167.813 21.6843 171.202C24.9658 170.276 26.6829 174.418 25.796 177.19C29.3676 176.821 30.8611 179.423 30.2169 182.715C35.0998 181.975 34.2371 187.621 32.5171 190.489C36.4495 188.863 35.9248 193.256 35.3477 195.912C40.1147 194.577 41.1036 197.651 39.0373 201.162C40.1339 201.099 41.226 201.345 42.1916 201.87C43.157 202.394 43.9579 203.177 44.5047 204.131C47.6039 202.765 49.7513 205.401 47.8415 208.188C49.4391 207.449 51.0036 206.381 52.5399 205.581C53.111 202.279 55.6001 199.406 58.3858 197.601C53.9789 196.26 57.0539 191.581 60.5472 192.022C60.8711 189.078 64.7195 190.866 65.171 193.434C68.0784 192.17 69.5337 194.585 69.1979 197.489C70.4074 194.828 72.2486 193.772 74.3265 195.607C75.5943 193.504 78.1851 193.026 80.5111 193.674C80.3369 193.533 80.1171 190.791 81.9825 190.069C79.2706 188.839 79.1201 185.836 81.5323 183.933C79.9451 184.133 78.4707 183.301 76.9846 183.167C77.7778 181.807 77.8169 180.755 79.7753 180.271C74.8482 178.529 81.0667 174.609 84.1188 175.032C77.9357 172.059 89.0438 170.283 90.817 169.868C87.7568 165.364 97.1182 164.232 99.9994 164.249C96.2046 162.379 93.7089 156.25 100.295 156.595C93.2278 154.471 102.762 152.511 105.138 152.443C101.014 148.909 106.459 144.775 110.333 147.591C114.776 139.008 121.424 149.402 121.424 149.402C121.424 149.402 133.098 146.358 129.119 151.989C133.34 151.307 134.454 153.668 136.028 152.783C131.24 148.495 138.109 147.764 141.184 147.287C139.707 144.592 135.543 138.637 143.034 139.925C140.018 132.881 150.118 136.759 150.118 136.759C150.118 136.759 151.884 133.576 155.552 136.544C157.344 137.994 158.788 140.899 159.689 142.884C162.889 140.85 166.8 143.23 169.176 145.837C176.471 139.627 180.934 148.41 180.934 148.41C180.934 148.41 184.289 145.837 187.536 146.676C191.018 147.577 194.562 148.932 195.638 152.517C198.191 147.024 205.891 150.727 200.837 156.832C204.273 151.426 211.749 156.241 204.865 161.609C209.642 158.631 208.745 167.32 204.785 168.694C210.918 171.282 208.106 178.366 203.281 182.371C201.447 177.821 211.06 178.367 207.023 184.85C206.817 176.791 216.681 178.928 211.805 186.712C212.275 179.709 221.501 181.344 218.789 188.561C219.319 182.042 229.509 185.001 223.586 190.886C225.041 189.741 227.159 192.438 227.583 197.283C227.599 197.466 227.706 197.409 227.555 197.283C226.9 193.533 232.984 194.877 235.303 195.632C234.53 189.908 239.851 191.456 243.412 190.443C242.145 187.452 243.995 185.68 247.089 186.403C243.822 183.899 246.218 180.842 249.672 180.106C248.615 178.67 248.981 177.007 250.426 175.718C250.806 175.759 251.096 176.24 251.466 176.387C250.498 170.331 258.024 173.448 259.638 176.746C259.651 176.217 259.703 175.585 259.674 175.08C262.226 175.376 264.425 177.864 265.602 180.168C268.489 179.285 270.748 182.465 271.063 185.221C275.333 183.299 281.062 185.608 284.272 184.26C287.051 183.096 286.928 178.189 291.209 180.261C291.098 180.556 290.974 181.887 290.949 182.002C291.606 177.961 296.802 177.469 300.003 178.663C300.239 174.771 303.193 172.95 307.013 173.488C307.076 170.467 310.634 167.808 312.19 171.197C315.47 170.271 317.187 174.412 316.301 177.185C319.872 176.815 321.365 179.418 320.722 182.709C325.603 181.97 324.742 187.616 323.021 190.484C326.953 188.858 326.429 193.251 325.853 195.907C330.619 194.571 331.608 197.646 329.542 201.157C330.638 201.095 331.731 201.339 332.696 201.864C333.662 202.389 334.463 203.172 335.009 204.126C338.109 202.759 340.256 205.396 338.348 208.184C339.944 207.444 341.509 206.376 343.046 205.576C343.617 202.274 346.105 199.401 348.891 197.596C344.484 196.255 347.559 191.576 351.052 192.016C351.375 189.073 355.226 190.861 355.677 193.429C358.584 192.165 360.039 194.58 359.703 197.484C361.769 196.214 363.592 194.158 366.227 194.258C365.444 195.151 365.98 194.939 364.831 195.602C366.099 193.498 368.69 193.021 371.017 193.669C370.692 193.456 370.348 193.274 369.99 193.124C370.816 191.775 370.622 190.787 372.488 190.065C369.775 188.834 369.626 185.831 372.038 183.928C370.45 184.127 368.975 183.296 367.491 183.162C368.283 181.802 368.322 180.75 370.28 180.265C365.353 178.524 371.572 174.604 374.623 175.027C368.442 172.054 379.55 170.278 381.323 169.863C378.262 165.358 387.623 164.228 390.504 164.244C386.71 162.374 384.215 156.244 390.799 156.59C383.732 154.466 393.266 152.506 395.642 152.438C391.518 148.904 396.964 144.77 400.837 147.586C401.741 139.699 409.964 146.625 412.955 147.364C415.075 147.891 423.602 146.352 419.622 151.987C423.845 151.305 424.959 153.666 426.533 152.781C421.744 148.493 428.613 147.761 431.687 147.285C430.211 144.59 426.047 138.634 433.539 139.923C430.523 132.88 438.001 136.514 440.623 136.757C442.95 136.973 443.212 134.975 446.057 136.542C448.077 137.651 449.293 140.897 450.194 142.882C453.395 140.848 457.306 143.228 459.682 145.834C463.224 140.404 467.93 148.142 471.441 148.408C473.111 148.535 474.795 145.835 478.041 146.674C481.522 147.575 483.414 150.419 486.141 152.514V340.878H-67.295L-67.2803 196.794Z" fill="#FFC619"/>
<path d="M56.0157 116.798C56.0157 116.798 57.7381 197.627 54.2942 226.704H64.6251C64.6251 226.704 63.8872 144.646 57.7381 116.798H56.0157Z" fill="#FFC619"/>
<path d="M85.8279 99.9821C61.7715 101.065 59.3407 111.084 59.3407 111.084C55.8267 95.1072 45.5562 95.6492 45.5562 95.6492C46.6373 100.524 49.0703 107.835 49.0703 107.835C23.1233 101.335 16.0952 116.228 16.0952 116.228C21.5147 115.02 27.052 114.421 32.6041 114.444C34.9618 112.832 37.4797 111.47 40.1178 110.378C40.1772 110.343 40.2481 110.333 40.3148 110.351C40.3814 110.368 40.4383 110.411 40.473 110.471C40.5078 110.531 40.5175 110.602 40.4999 110.669C40.4824 110.735 40.4392 110.792 40.3796 110.827C38.771 112.046 37.07 113.213 35.4452 114.45C41.8784 114.548 46.6373 115.143 46.6373 115.143C22.8524 130.035 26.9066 145.47 26.9066 145.47C31.4079 144.369 35.5115 140.406 38.7939 136.09C39.0692 133.355 39.3142 130.624 39.4632 127.856C39.4665 127.797 39.4926 127.74 39.536 127.699C39.5795 127.658 39.637 127.635 39.6967 127.635C39.7565 127.635 39.814 127.658 39.8575 127.699C39.9009 127.74 39.9269 127.797 39.9302 127.856C39.979 129.908 40.1155 132.038 40.1805 134.18C40.5741 133.61 40.9535 133.043 41.3191 132.479C41.4356 130.56 41.4881 128.626 41.4187 126.638C41.4113 126.433 41.7043 126.447 41.7301 126.638C41.9109 128.027 42.1197 129.476 42.285 130.946C43.908 128.3 45.3622 125.554 46.6388 122.724C39.8816 141.679 46.6388 159.55 46.6388 159.55C58.2611 147.365 57.9911 125.703 57.9911 125.703C58.9339 130.816 60.7596 135.727 63.3861 140.213C63.1763 138.24 63.124 136.253 63.2297 134.271C63.2328 134.219 63.256 134.169 63.2946 134.132C63.3332 134.096 63.3843 134.076 63.4373 134.076C63.4904 134.076 63.5414 134.096 63.58 134.132C63.6186 134.169 63.6419 134.219 63.6451 134.271C63.9568 137.383 64.5832 140.454 65.5142 143.439C71.0259 150.992 77.1808 153.863 77.1808 153.863C76.9101 143.303 66.9104 124.348 66.9104 124.348C68.2743 125.769 69.7444 127.084 71.3077 128.279C70.6864 126.47 69.9957 124.691 69.2415 122.924C69.088 122.565 69.5773 122.25 69.7787 122.609C70.9594 124.719 72.4795 127.256 73.6454 129.897C78.6302 133.009 82.046 133.012 82.046 133.012C80.9657 115.954 65.0183 111.081 65.0183 111.081C83.3964 108.647 85.8279 99.9821 85.8279 99.9821Z" fill="#FFC619"/>
<path d="M149.334 62.1987C149.334 62.1987 170.185 127.599 158.809 177.624H172.594C172.594 177.624 172.728 102.789 151.226 62.1987H149.334Z" fill="#FFC619"/>
<path d="M107.116 55.5641C134.802 45.2285 142.344 55.3735 142.344 55.3735C138.665 35.643 150.523 31.3198 150.523 31.3198C151.636 37.344 152.388 46.7706 152.388 46.7706C178.58 26.9625 193.648 40.4039 193.648 40.4039C187.026 41.484 180.088 43.8615 174.148 46.3218C170.714 45.634 167.218 45.305 163.717 45.34C163.633 45.3308 163.55 45.3546 163.484 45.4064C163.417 45.4582 163.375 45.5339 163.364 45.6171C163.354 45.7004 163.376 45.7844 163.427 45.8511C163.478 45.9178 163.553 45.9617 163.636 45.9736C166.036 46.5768 168.516 47.0774 170.941 47.6961C163.723 50.8987 158.632 53.8579 158.632 53.8579C192.626 59.2472 195.436 78.6235 195.436 78.6235C189.823 79.5446 183.294 77.0392 177.52 73.7444C175.902 70.7873 174.316 67.8206 172.822 64.7659C172.789 64.7018 172.733 64.6527 172.665 64.6281C172.597 64.6035 172.523 64.6054 172.457 64.6333C172.39 64.6613 172.336 64.7132 172.307 64.7789C172.277 64.8444 172.272 64.919 172.295 64.9876C173.222 67.3274 174.088 69.7988 175.04 72.2487C174.32 71.7959 173.621 71.3382 172.941 70.876C171.89 68.7646 170.903 66.606 170.032 64.3275C169.941 64.0909 169.616 64.2484 169.68 64.4753C170.14 66.1291 170.598 67.8664 171.115 69.6052C168.015 67.3966 165.057 64.9941 162.259 62.412C178.966 80.5715 179.891 104 179.891 104C160.931 95.8248 150.865 71.2308 150.865 71.2308C152.248 77.4595 152.538 83.8821 151.719 90.2101C151.012 87.8808 150.119 85.6119 149.051 83.4251C149.024 83.3628 148.974 83.3137 148.912 83.2883C148.849 83.263 148.779 83.2637 148.717 83.2902C148.655 83.3166 148.606 83.3667 148.58 83.4295C148.555 83.4922 148.555 83.5624 148.582 83.6247C149.719 87.2883 150.483 91.0583 150.86 94.8764C148.251 106.054 142.677 112.256 142.677 112.256C137.925 100.2 140.145 73.9876 140.145 73.9876C139.284 76.2474 138.253 78.4383 137.06 80.5412C136.895 78.1992 136.823 75.8579 136.83 73.4997C136.83 73.0205 136.127 72.8994 136.072 73.4028C135.745 76.3539 135.246 79.9475 135.195 83.4901C131.055 89.4044 127.198 91.047 127.198 91.047C120.252 71.2611 135.928 58.0947 135.928 58.0947C114.011 64.1812 107.116 55.5641 107.116 55.5641Z" fill="#FFC619"/>
<path d="M316.553 113.111C316.553 113.111 330.842 171.559 336.325 225.509L325.129 226.652C325.129 226.652 324.322 163.044 313.62 113.411L316.553 113.111Z" fill="#FFC619"/>
<path d="M288.012 108.918C287.211 110.142 286.356 111.331 285.515 112.511C280.725 113.151 276.009 114.255 271.433 115.808C271.433 115.808 277.409 98.8913 306.246 103.066C306.246 103.066 302.806 95.4086 301.097 90.2475C301.097 90.2475 312.168 88.5251 317.736 105.452C317.736 105.452 319.265 94.3234 345.221 90.4915C345.221 90.4915 344.447 94.8818 337.919 99.1802C336.929 98.5562 335.895 98.0055 334.824 97.5323C334.749 97.4981 334.664 97.4953 334.586 97.5243C334.509 97.5534 334.447 97.6118 334.413 97.687C334.379 97.7621 334.376 97.8477 334.405 97.925C334.434 98.0023 334.493 98.0649 334.568 98.0989C335.476 98.5541 336.353 99.0702 337.191 99.6437C336.419 100.12 335.575 100.592 334.65 101.054C333.668 100.166 332.633 99.3375 331.552 98.5737C331.505 98.5406 331.447 98.5265 331.39 98.5342C331.334 98.542 331.281 98.571 331.245 98.6155C331.208 98.66 331.191 98.7166 331.195 98.7741C331.198 98.8314 331.223 98.8853 331.265 98.9249C332.136 99.7339 332.959 100.593 333.73 101.497C330.571 102.937 327.272 104.052 323.888 104.824C323.888 104.824 341.707 108.343 344.76 126.712C342.235 126.751 339.734 126.237 337.429 125.205C337.656 124.163 337.659 123.084 337.439 122.04C337.432 122.025 337.422 122.013 337.408 122.004C337.394 121.995 337.378 121.99 337.361 121.99C337.344 121.99 337.329 121.995 337.315 122.004C337.301 122.013 337.29 122.025 337.283 122.04C336.916 122.935 336.658 123.871 336.515 124.828C335.551 124.404 334.609 123.932 333.692 123.415C334.081 122.72 334.397 121.986 334.635 121.226C334.719 120.943 334.268 120.817 334.152 121.077C333.826 121.756 333.435 122.403 332.985 123.007C331.017 121.828 329.149 120.488 327.4 119.001C327.4 119.001 340.326 138.437 341.783 149.854C341.783 149.854 324.602 143.897 317.882 121.455C318.29 126.059 318.257 130.691 317.779 135.289C317.041 135.697 316.268 136.039 315.469 136.31C315.431 136.325 315.4 136.354 315.381 136.39C315.363 136.427 315.358 136.468 315.367 136.508C315.377 136.547 315.401 136.583 315.434 136.606C315.467 136.63 315.508 136.641 315.548 136.637C316.274 136.525 316.99 136.355 317.688 136.126C317.504 137.777 317.253 139.496 316.915 141.249C315.626 140.915 314.351 140.535 313.097 140.087C313.009 140.052 312.911 140.051 312.823 140.086C312.735 140.121 312.664 140.189 312.624 140.276C312.585 140.362 312.58 140.46 312.611 140.55C312.642 140.64 312.707 140.714 312.791 140.757C314.051 141.393 315.348 141.953 316.675 142.433C315.512 148.568 312.993 154.363 309.301 159.393C309.301 159.393 300.007 140.772 305.245 119.483C303.665 124.195 301.654 128.75 299.237 133.091C298.888 132.439 298.531 131.792 298.166 131.147C298.038 130.924 297.65 131.137 297.773 131.362C298.18 132.113 298.553 132.875 298.927 133.639C298.513 134.353 298.081 135.061 297.634 135.761C297.161 134.549 296.665 133.356 296.133 132.198C296.105 132.139 296.057 132.093 295.996 132.069C295.936 132.044 295.87 132.044 295.809 132.068C295.749 132.092 295.7 132.137 295.672 132.195C295.644 132.254 295.639 132.321 295.659 132.383C296.192 133.795 296.645 135.236 297.017 136.698C294.119 141.011 290.532 144.834 286.367 146.314C286.367 146.314 280.271 130.036 304.411 111.266C300.181 111.227 295.954 111.402 291.743 111.792C292.065 110.716 292.466 109.665 292.944 108.649C293.025 108.478 292.761 108.306 292.657 108.472C291.981 109.558 291.391 110.694 290.89 111.872C289.441 112.013 287.929 112.185 286.379 112.397C287.057 111.324 287.738 110.253 288.34 109.13C288.45 108.933 288.134 108.733 288.012 108.918Z" fill="#FFC619"/>
</g>
<path d="M223.48 257.863L223.688 257.847L223.865 257.735L261.207 234.073L263.666 232.516H260.755H228.301H228.079L227.886 232.625L179.923 259.705L180.405 261.282L223.48 257.863Z" fill="white" stroke="black" stroke-width="1.68901"/>
<path d="M260.618 236.92V233.386L224.47 256.273L227.156 259.295L260.618 236.92Z" fill="white"/>
<mask id="mask1_53_39905" style="mask-type:alpha" maskUnits="userSpaceOnUse" x="222" y="229" width="41" height="34">
<path d="M262.981 229.436H222.495V262.022H262.981V229.436Z" fill="white"/>
<path d="M260.618 236.92V233.386L224.47 256.273L227.156 259.295L260.618 236.92Z" fill="black"/>
</mask>
<g mask="url(#mask1_53_39905)">
<path d="M260.618 233.386H262.307V230.318L259.715 231.959L260.618 233.386ZM260.618 236.92L261.557 238.324L262.307 237.823V236.92H260.618ZM227.156 259.295L225.894 260.417L226.872 261.517L228.095 260.699L227.156 259.295ZM224.47 256.273L223.567 254.846C223.148 255.111 222.867 255.548 222.798 256.038C222.728 256.529 222.878 257.025 223.208 257.395L224.47 256.273ZM258.929 233.386V236.92H262.307V233.386H258.929ZM259.679 235.516L226.217 257.891L228.095 260.699L261.557 238.324L259.679 235.516ZM228.418 258.173L225.732 255.152L223.208 257.395L225.894 260.417L228.418 258.173ZM225.374 257.7L261.522 234.813L259.715 231.959L223.567 254.846L225.374 257.7Z" fill="black"/>
</g>
<path d="M147.489 222.494L146.224 222.824L147.044 223.842L178.013 262.239L178.298 262.593L178.752 262.55L224.042 258.176L225.482 258.037L224.653 256.851L192.742 211.262L192.405 210.781L191.838 210.929L147.489 222.494Z" fill="#FFE75C" stroke="black" stroke-width="1.68901"/>
<path d="M179.91 264.874C180.086 265.115 180.374 265.245 180.67 265.218L226.069 261.004C226.371 260.977 226.634 260.789 226.759 260.514C226.886 260.239 226.854 259.918 226.678 259.671L224.295 256.346C224.119 256.099 223.822 255.966 223.52 255.998L178.454 260.727C178.154 260.758 177.893 260.948 177.771 261.223C177.649 261.5 177.682 261.82 177.86 262.064L179.91 264.874Z" fill="white" stroke="black" stroke-width="1.68901" stroke-linejoin="round"/>
<path d="M172.956 237.696C171.939 237.853 170.515 237.187 169.766 236.201C169.008 235.208 169.208 234.245 170.226 234.064C171.258 233.88 172.726 234.564 173.482 235.583C174.229 236.592 173.986 237.537 172.956 237.696Z" fill="#FD3C0B"/>
<path d="M173.17 235.635C173.797 236.479 173.596 237.268 172.735 237.403C171.883 237.536 170.693 236.978 170.066 236.152C169.433 235.319 169.601 234.517 170.455 234.367C171.316 234.215 172.538 234.785 173.17 235.635Z" fill="#FD3C0B"/>
<path d="M178.628 238.185C179.234 239.021 178.993 239.794 178.103 239.916C177.221 240.038 176.023 239.477 175.414 238.657C174.801 237.832 175.01 237.047 175.894 236.908C176.787 236.768 178.017 237.343 178.628 238.185Z" fill="#FD3C0B"/>
<path d="M184.126 240.753C184.712 241.582 184.429 242.338 183.508 242.449C182.597 242.557 181.39 241.993 180.801 241.181C180.207 240.362 180.458 239.593 181.372 239.467C182.297 239.34 183.535 239.918 184.126 240.753Z" fill="#FD3C0B"/>
<path d="M187.793 248.428C186.712 248.52 185.305 247.857 184.642 246.944C183.971 246.022 184.295 245.175 185.381 245.061C186.48 244.947 187.93 245.627 188.595 246.57C189.254 247.504 188.887 248.335 187.793 248.428Z" fill="#FD3C0B"/>
<path d="M188.264 246.602C188.816 247.383 188.513 248.076 187.597 248.155C186.692 248.233 185.517 247.679 184.961 246.914C184.401 246.142 184.673 245.436 185.583 245.343C186.501 245.249 187.707 245.815 188.264 246.602Z" fill="#FD3C0B"/>
<path d="M191.159 239.85C191.738 240.714 191.391 241.506 190.399 241.625C189.416 241.742 188.159 241.157 187.577 240.31C186.989 239.458 187.301 238.652 188.287 238.516C189.284 238.379 190.577 238.979 191.159 239.85Z" fill="#FD3C0B"/>
<path d="M177.594 241.593C178.185 242.388 177.96 243.113 177.103 243.214C176.253 243.316 175.094 242.77 174.501 241.99C173.903 241.204 174.1 240.467 174.95 240.351C175.81 240.232 176.999 240.79 177.594 241.593Z" fill="#FD3C0B"/>
<path d="M179.392 236.702C178.296 236.871 176.814 236.18 176.068 235.154C175.314 234.117 175.578 233.108 176.676 232.912C177.788 232.714 179.319 233.424 180.07 234.487C180.813 235.541 180.5 236.53 179.392 236.702Z" fill="#FD3C0B"/>
<path d="M179.733 234.544C180.356 235.425 180.099 236.251 179.171 236.396C178.254 236.539 177.015 235.962 176.39 235.101C175.76 234.232 175.984 233.391 176.903 233.229C177.832 233.066 179.105 233.656 179.733 234.544Z" fill="#FD3C0B"/>
<path d="M189.663 243.339C190.228 244.16 189.904 244.899 188.952 244.997C188.009 245.094 186.795 244.524 186.226 243.72C185.652 242.91 185.943 242.157 186.89 242.044C187.845 241.929 189.093 242.512 189.663 243.339Z" fill="#FD3C0B"/>
<path d="M194.594 247.803C193.433 247.902 191.97 247.216 191.314 246.266C190.652 245.307 191.047 244.422 192.216 244.3C193.398 244.177 194.909 244.882 195.565 245.864C196.214 246.837 195.771 247.703 194.594 247.803Z" fill="#FD3C0B"/>
<path d="M195.208 245.898C195.753 246.711 195.386 247.434 194.402 247.519C193.428 247.604 192.205 247.031 191.657 246.234C191.103 245.431 191.437 244.693 192.414 244.593C193.403 244.491 194.66 245.077 195.208 245.898Z" fill="#FD3C0B"/>
<path d="M186.326 235.629C185.145 235.812 183.599 235.095 182.859 234.023C182.111 232.941 182.451 231.88 183.637 231.669C184.838 231.453 186.438 232.191 187.181 233.304C187.916 234.405 187.523 235.445 186.326 235.629Z" fill="#FD3C0B"/>
<path d="M183.207 233.965C183.826 234.865 185.12 235.464 186.109 235.309C187.11 235.152 187.434 234.284 186.818 233.364C186.196 232.436 184.867 231.823 183.862 232C182.868 232.175 182.582 233.058 183.207 233.965Z" fill="#FD3C0B"/>
<path d="M181.963 237.696C182.567 238.55 183.815 239.131 184.765 239.001C185.724 238.869 186.026 238.059 185.426 237.187C184.82 236.307 183.537 235.712 182.574 235.863C181.622 236.012 181.355 236.834 181.963 237.696Z" fill="#FD3C0B"/>
<path d="M179.713 244.444C180.288 245.217 181.455 245.767 182.333 245.677C183.219 245.586 183.483 244.877 182.911 244.088C182.335 243.294 181.137 242.732 180.249 242.838C179.369 242.944 179.135 243.664 179.713 244.444Z" fill="#FD3C0B"/>
<path d="M181.395 248.926C180.386 249.012 179.033 248.371 178.363 247.491C177.687 246.603 177.947 245.791 178.959 245.685C179.983 245.577 181.376 246.235 182.05 247.142C182.716 248.042 182.415 248.839 181.395 248.926Z" fill="#FD3C0B"/>
<path d="M178.661 247.463C179.222 248.202 180.352 248.737 181.199 248.664C182.052 248.59 182.3 247.925 181.741 247.172C181.178 246.415 180.018 245.868 179.163 245.956C178.315 246.042 178.096 246.72 178.661 247.463Z" fill="#FD3C0B"/>
<path fill-rule="evenodd" clip-rule="evenodd" d="M215.345 168.734L228.052 176.382L223.019 159.339L222.74 168.695L206.539 156.993L210.184 173.16L192.22 163.263L194.893 184.766L175.223 175.396C175.101 170.245 176.142 164.989 178.483 160.018C186.519 142.954 206.838 135.696 223.867 143.808C240.896 151.921 248.186 172.331 240.149 189.396C232.113 206.461 211.794 213.718 194.765 205.606C192.995 204.762 191.329 203.786 189.775 202.694L207.35 201.375L203.165 177.856L219.943 186.171L215.345 168.734Z" fill="black"/>
<path fill-rule="evenodd" clip-rule="evenodd" d="M118.332 183.046L105.625 190.693L110.658 173.65L110.937 183.006L127.138 171.305L123.493 187.472L141.457 177.575L138.784 199.078L158.453 189.708C158.576 184.556 157.535 179.302 155.194 174.331C147.158 157.265 126.839 150.008 109.81 158.12C92.7808 166.232 85.4908 186.642 93.5271 203.708C101.564 220.772 121.883 228.03 138.911 219.918C140.682 219.074 142.348 218.097 143.901 217.006L126.327 215.688L130.512 192.167L113.734 200.484L118.332 183.046Z" fill="black"/>
<path d="M299.175 237.341C290.317 225.908 292.373 209.417 303.768 200.509C315.162 191.6 331.579 193.647 340.437 205.081C349.295 216.515 347.239 233.005 335.844 241.914C324.45 250.822 308.032 248.775 299.175 237.341Z" fill="black"/>
<path d="M76.5076 269.713C63.0542 273.347 52.0492 262.952 48.2283 257.3C55.5838 256.981 72.0981 255.804 79.312 253.644C86.5259 251.485 94.4173 246.666 97.4613 244.526C96.0824 251.408 89.9611 266.078 76.5076 269.713Z" fill="black"/>
<path d="M350.247 267.913C343.231 274.529 333.04 273.267 328.822 271.808C333.213 269.024 342.919 262.542 346.61 258.888C350.302 255.236 353.522 250.013 354.671 247.858C356.119 251.787 357.261 261.297 350.247 267.913Z" fill="black"/>
<path d="M315.642 271.787C308.854 267.535 308.868 258.844 309.723 255.031C312.74 258.006 319.705 264.505 323.432 266.703C327.16 268.901 332.26 270.347 334.344 270.796C330.939 272.898 322.43 276.039 315.642 271.787Z" fill="black"/>
<path d="M115.5 229.281C103.679 236.661 103.8 251.799 105.339 258.446C110.58 253.275 122.685 241.981 129.179 238.167C135.672 234.353 144.574 231.853 148.213 231.081C142.234 227.406 127.321 221.901 115.5 229.281Z" fill="black"/>
<path d="M270.6 247.1C258.244 259.22 240.002 254.659 232.426 250.863C240.198 246.043 257.363 234.721 263.86 227.993C270.358 221.267 275.97 211.247 277.965 207.079C280.659 215.368 282.957 234.978 270.6 247.1Z" fill="black"/>
<path d="M248.603 198.876C236.537 203.098 233.596 216.67 233.634 222.927C239.366 219.357 252.475 211.689 259.053 209.585C265.633 207.479 274.103 207.037 277.515 207.079C272.905 202.585 260.669 194.654 248.603 198.876Z" fill="black"/>
<path d="M253.068 150.866C249.857 160.388 239.632 165.685 239.632 165.685C239.632 165.685 234.532 155.322 237.744 145.8C240.955 136.278 251.18 130.98 251.18 130.98C251.18 130.98 256.279 141.342 253.068 150.866Z" fill="black"/>
<path d="M250.953 174.561C254.721 181.425 253.601 189.452 253.601 189.452C253.601 189.452 246.307 186.321 242.539 179.457C238.77 172.593 239.889 164.565 239.889 164.565C239.889 164.565 247.184 167.697 250.953 174.561Z" fill="black"/>
<path d="M252.387 160.155C259.616 159.996 265.555 164.246 265.555 164.246C265.555 164.246 259.721 168.793 252.492 168.952C245.261 169.111 239.323 164.861 239.323 164.861C239.323 164.861 245.158 160.314 252.387 160.155Z" fill="black"/>
<path d="M348.719 238.47C342.646 240.894 335.71 238.061 335.71 238.061C335.71 238.061 338.695 231.164 344.768 228.741C350.841 226.318 357.777 229.151 357.777 229.151C357.777 229.151 354.792 236.047 348.719 238.47Z" fill="black"/>
<path d="M336.084 247.413C334.271 252.174 329.822 255.003 329.822 255.003C329.822 255.003 328.298 250.069 330.11 245.307C331.923 240.546 336.374 237.717 336.374 237.717C336.374 237.717 337.897 242.651 336.084 247.413Z" fill="black"/>
<path d="M343.828 242.05C346.954 245.565 347.353 250.299 347.353 250.299C347.353 250.299 342.639 249.326 339.513 245.81C336.386 242.295 335.988 237.56 335.988 237.56C335.988 237.56 340.701 238.535 343.828 242.05Z" fill="black"/>
<path d="M79.0705 181.475C82.2819 190.997 92.5064 196.296 92.5064 196.296C92.5064 196.296 97.6062 185.932 94.3947 176.41C91.1832 166.888 80.9587 161.589 80.9587 161.589C80.9587 161.589 75.8591 171.953 79.0705 181.475Z" fill="black"/>
<path d="M81.1858 205.17C77.4173 212.034 78.5371 220.061 78.5371 220.061C78.5371 220.061 85.8312 216.931 89.5998 210.066C93.3684 203.202 92.2486 195.175 92.2486 195.175C92.2486 195.175 84.9545 198.306 81.1858 205.17Z" fill="black"/>
<path d="M79.7519 190.765C72.5225 190.606 66.5837 194.855 66.5837 194.855C66.5837 194.855 72.4182 199.402 79.6475 199.561C86.8768 199.72 92.8156 195.471 92.8156 195.471C92.8156 195.471 86.9812 190.924 79.7519 190.765Z" fill="black"/>
<path d="M182.828 314.226H278.237L281.325 287.131L260.047 304.965L262.809 294.206L245.29 304.28L230.876 297.078L228.816 309.767L193.467 297.078L197.585 309.081L173.905 300.85L182.828 314.226Z" fill="black"/>
<path d="M371.203 314.226H275.795L287.155 290.904L293.984 304.965L303.25 290.904L308.741 304.279L323.155 297.077L325.214 309.767L360.564 297.077L356.446 309.081L380.126 300.85L371.203 314.226Z" fill="black"/>
<path d="M69.7505 314.428H183.666L162.358 305.168L168.248 287.333L146.97 305.168L137.704 291.106L132.212 304.481L117.798 297.279L115.739 309.969L80.3896 297.279L84.5079 309.283L60.8274 301.052L69.7505 314.428Z" fill="black"/>
<path d="M335.479 238.208C348.417 278.247 309.11 279.709 322.71 312.152" stroke="black" stroke-width="6.07598"/>
<path d="M94.2822 194.505C70.7816 256.47 139.989 261.941 115.285 312.152" stroke="black" stroke-width="7.29117"/>
<path d="M204.973 156.346C207.496 155.686 209.307 153.716 210.271 151.27C211.236 148.824 211.401 145.814 210.614 142.802C209.827 139.791 208.212 137.247 206.173 135.585C204.136 133.924 201.593 133.092 199.07 133.75C196.547 134.41 194.736 136.38 193.771 138.826C192.806 141.272 192.641 144.282 193.428 147.293C194.215 150.305 195.831 152.849 197.869 154.511C199.906 156.172 202.45 157.004 204.973 156.346Z" fill="white" stroke="black" stroke-width="2.57563"/>
<path d="M128.562 162.383C130.886 161.775 132.546 159.962 133.427 157.729C134.308 155.495 134.457 152.753 133.741 150.013C133.025 147.274 131.554 144.954 129.692 143.436C127.832 141.92 125.498 141.15 123.173 141.758C120.849 142.365 119.189 144.178 118.308 146.411C117.427 148.645 117.278 151.387 117.994 154.128C118.71 156.867 120.181 159.186 122.043 160.704C123.903 162.221 126.238 162.99 128.562 162.383Z" fill="white" stroke="black" stroke-width="2.57563"/>
<path d="M183.461 161.115C185.047 160.683 186.088 159.391 186.6 157.923C187.112 156.448 187.151 154.667 186.672 152.906C186.194 151.146 185.259 149.628 184.07 148.616C182.887 147.608 181.334 147.021 179.748 147.452C178.162 147.883 177.12 149.176 176.61 150.644C176.096 152.118 176.058 153.9 176.537 155.661C177.016 157.422 177.95 158.939 179.139 159.951C180.323 160.958 181.875 161.546 183.461 161.115Z" fill="white" stroke="black" stroke-width="2.57563"/>
<path d="M144.112 165.621C145.728 165.921 147.228 165.21 148.326 164.11C149.429 163.005 150.238 161.418 150.572 159.623C150.906 157.829 150.723 156.058 150.092 154.629C149.464 153.207 148.321 152.003 146.705 151.702C145.09 151.402 143.59 152.113 142.492 153.213C141.389 154.318 140.58 155.905 140.246 157.7C139.912 159.494 140.094 161.266 140.725 162.694C141.353 164.116 142.497 165.32 144.112 165.621Z" fill="white" stroke="black" stroke-width="2.57563"/>
<path d="M200.798 140.996C196.51 143.184 193.143 143.137 191.995 142.84L197.067 133.843L207.407 134.792C206.991 135.949 205.086 138.808 200.798 140.996Z" fill="black"/>
<path d="M231.68 160.003L235.102 161.546C258.206 171.958 274.96 192.761 280.21 217.553C287.33 251.186 272.023 285.585 242.27 302.811L231.68 308.942" stroke="black" stroke-width="7.29117"/>
<path d="M202.949 157.019C206.1 157.019 208.655 154.88 208.655 152.242C208.655 149.604 206.1 147.465 202.949 147.465C199.798 147.465 197.244 149.604 197.244 152.242C197.244 154.88 199.798 157.019 202.949 157.019Z" fill="black"/>
<path d="M180.234 151.485C177.857 152.292 176.123 152.015 175.554 151.775L178.846 147.515L184.11 148.782C183.808 149.346 182.611 150.678 180.234 151.485Z" fill="black"/>
<path d="M182.925 162.653C184.744 162.653 186.219 161.178 186.219 159.358C186.219 157.539 184.744 156.064 182.925 156.064C181.105 156.064 179.63 157.539 179.63 159.358C179.63 161.178 181.105 162.653 182.925 162.653Z" fill="black"/>
<path fill-rule="evenodd" clip-rule="evenodd" d="M127.97 160.876C126.191 160.735 124.969 157.657 125.25 154C125.519 150.31 127.196 147.473 128.975 147.613C130.233 147.706 131.421 148.545 131.373 150.628L127.52 152.504L130.856 153.985C130.764 154.719 130.707 155.455 130.686 156.195C130.642 159.611 129.464 160.984 127.97 160.876Z" fill="black"/>
<path d="M325.566 207.289C327.725 207.583 329.754 206.637 331.277 205.054C332.802 203.47 333.888 201.197 334.24 198.619C334.591 196.04 334.152 193.559 333.106 191.626C332.06 189.692 330.36 188.239 328.2 187.945C326.04 187.65 324.013 188.596 322.488 190.179C320.963 191.763 319.877 194.036 319.526 196.614C319.175 199.194 319.613 201.674 320.659 203.608C321.705 205.541 323.405 206.995 325.566 207.289Z" fill="white" stroke="black" stroke-width="2.15319"/>
<path fill-rule="evenodd" clip-rule="evenodd" d="M323.884 205.593C322.106 205.453 320.883 202.375 321.164 198.717C321.434 195.027 323.111 192.191 324.89 192.33C326.148 192.423 327.336 193.262 327.287 195.345L323.435 197.221L326.77 198.703C326.678 199.436 326.622 200.174 326.601 200.912C326.556 204.328 325.379 205.701 323.884 205.593Z" fill="black"/>
<path fill-rule="evenodd" clip-rule="evenodd" d="M144.944 164.202C146.076 164.515 147.524 162.885 148.173 160.557C148.834 158.212 148.433 156.079 147.301 155.766C146.502 155.541 145.578 155.794 145.139 157.093L147.103 159.121L144.706 159.288C144.598 159.762 144.467 160.233 144.314 160.695C143.574 162.819 143.994 163.934 144.944 164.202Z" fill="black"/>
<path d="M119.047 131.666C119.459 133.403 121.229 137.073 125 137.867C128.77 138.661 131.697 138.198 132.689 137.867" stroke="black" stroke-width="2.57563"/>
<path d="M142.926 145.049C144.259 146.199 147.566 148.227 150.128 147.135C152.691 146.043 153.992 144.364 154.322 143.661" stroke="black" stroke-width="2.57563"/>
<path d="M336.863 187.392C336.863 187.392 334.295 182.086 330.654 180.966C327.012 179.847 321.804 182.854 321.804 182.854" stroke="black" stroke-width="2.57563"/>
<path d="M311.68 187.424C311.68 187.424 308.078 184.669 305.021 185.039C301.964 185.41 299.069 189.02 299.069 189.02" stroke="black" stroke-width="2.57563"/>
<path d="M308.651 204.011C310.286 203.835 311.518 202.722 312.253 201.353C312.991 199.977 313.309 198.223 313.114 196.409C312.918 194.595 312.233 192.95 311.218 191.763C310.208 190.582 308.767 189.758 307.133 189.935C305.498 190.111 304.267 191.223 303.531 192.593C302.793 193.968 302.475 195.722 302.67 197.536C302.866 199.35 303.551 200.995 304.566 202.182C305.576 203.363 307.017 204.188 308.651 204.011Z" fill="white" stroke="black" stroke-width="2.57563"/>
<path fill-rule="evenodd" clip-rule="evenodd" d="M306.12 202.877C304.921 202.782 304.096 200.707 304.286 198.242C304.468 195.753 305.598 193.842 306.798 193.935C307.645 193.998 308.447 194.564 308.414 195.969L305.817 197.233L308.065 198.232C308.003 198.726 307.965 199.223 307.952 199.722C307.922 202.024 307.128 202.95 306.12 202.877Z" fill="black"/>
</g>
<defs>
<clipPath id="clip0_53_39905">
<rect width="420.66" height="311.051" fill="white" transform="translate(0.342407 0.98291)"/>
</clipPath>
</defs>
</svg>
