<svg width="1000" height="538" viewBox="0 0 1000 538" fill="none" xmlns="http://www.w3.org/2000/svg">
<g clip-path="url(#clip0_104_49240)">
<rect width="1000" height="538" rx="8" fill="#101014"/>
<rect x="57.9999" y="91.1582" width="61.8559" height="38.8739" rx="1.60133" fill="#27ABD6"/>
<rect x="60.8405" y="88.3086" width="56.1747" height="46.5297" rx="1.60133" fill="white"/>
<rect x="57.9999" y="98.4961" width="61.8559" height="44.2888" rx="1.60133" fill="#56CCF2"/>
<rect x="57.9999" y="94.1602" width="32.1893" height="44.2888" rx="1.60133" fill="#56CCF2"/>
<path d="M61.8004 154.271L61.826 152.477H61.7577L60.562 155.543L59.3663 152.477H59.298L59.3236 154.271V157.123H58.4781V151.162H59.6482L60.562 153.528H60.6218L61.5441 151.162H62.6459V157.123H61.8004V154.271ZM67.0665 157.123L66.6138 155.535H64.7178L64.2652 157.123H63.2916L65.0338 151.162H66.3405L68.0828 157.123H67.0665ZM65.7 152.127H65.6317L64.8972 154.74H66.4345L65.7 152.127ZM71.2821 151.965V157.123H70.3256V151.965H68.4552V151.162H73.1524V151.965H71.2821ZM74.0971 157.123V151.162H77.8292V151.965H75.0536V153.698H77.7268V154.501H75.0536V156.32H77.8292V157.123H74.0971ZM80.1489 157.123H79.2009V151.162H81.43C81.9993 151.162 82.432 151.321 82.7281 151.64C83.0299 151.959 83.1807 152.397 83.1807 152.955C83.1807 153.411 83.0697 153.787 82.8477 154.083C82.6256 154.379 82.3068 154.561 81.8911 154.629L83.2661 157.123H82.2071L80.9432 154.715H80.1489V157.123ZM81.2933 153.946C81.8854 153.946 82.1815 153.676 82.1815 153.135V152.767C82.1815 152.227 81.8854 151.956 81.2933 151.956H80.1489V153.946H81.2933ZM84.2877 157.123V156.397H85.6883V151.888H84.2877V151.162H88.0454V151.888H86.6448V156.397H88.0454V157.123H84.2877ZM92.671 157.123L92.2184 155.535H90.3224L89.8697 157.123H88.8961L90.6384 151.162H91.9451L93.6873 157.123H92.671ZM91.3045 152.127H91.2362L90.5017 154.74H92.039L91.3045 152.127ZM94.7686 157.123V151.162H95.7251V156.32H98.441V157.123H94.7686ZM101.478 157.226C100.96 157.226 100.524 157.134 100.171 156.952C99.8183 156.77 99.528 156.528 99.3002 156.226L99.9151 155.637C100.143 155.91 100.385 156.112 100.641 156.243C100.897 156.369 101.188 156.431 101.512 156.431C101.888 156.431 102.175 156.346 102.375 156.175C102.58 156.004 102.682 155.759 102.682 155.441C102.682 155.184 102.608 154.988 102.46 154.851C102.312 154.709 102.059 154.606 101.7 154.544L101.051 154.441C100.766 154.396 100.527 154.322 100.334 154.219C100.14 154.111 99.9835 153.986 99.8639 153.844C99.7443 153.695 99.6561 153.533 99.5991 153.357C99.5479 153.175 99.5223 152.984 99.5223 152.785C99.5223 152.221 99.7045 151.794 100.069 151.503C100.433 151.207 100.934 151.059 101.572 151.059C102.045 151.059 102.446 151.136 102.776 151.29C103.112 151.438 103.383 151.649 103.588 151.922L102.99 152.52C102.825 152.32 102.628 152.161 102.4 152.042C102.178 151.916 101.902 151.854 101.572 151.854C101.219 151.854 100.949 151.93 100.761 152.084C100.578 152.232 100.487 152.451 100.487 152.742C100.487 152.987 100.559 153.18 100.701 153.323C100.849 153.459 101.108 153.559 101.478 153.621L102.11 153.733C102.645 153.829 103.035 154.026 103.28 154.322C103.525 154.612 103.647 154.968 103.647 155.389C103.647 155.663 103.599 155.913 103.502 156.141C103.411 156.369 103.272 156.562 103.084 156.722C102.901 156.881 102.674 157.006 102.4 157.097C102.133 157.183 101.825 157.226 101.478 157.226Z" fill="white"/>
<rect x="57.9999" y="202.85" width="61.8559" height="38.8739" rx="1.60133" fill="#27ABD6"/>
<rect x="60.8405" y="200" width="56.1747" height="46.5297" rx="1.60133" fill="white"/>
<rect x="57.9999" y="210.188" width="61.8559" height="44.2888" rx="1.60133" fill="#56CCF2"/>
<rect x="57.9999" y="205.852" width="32.1893" height="44.2888" rx="1.60133" fill="#56CCF2"/>
<path d="M58.7173 268.814V262.853H60.9463C61.5157 262.853 61.9484 263.013 62.2445 263.332C62.5462 263.65 62.6971 264.089 62.6971 264.647C62.6971 265.205 62.5462 265.643 62.2445 265.962C61.9484 266.281 61.5157 266.44 60.9463 266.44H59.6738V268.814H58.7173ZM59.6738 265.646H60.8011C61.3933 265.646 61.6893 265.373 61.6893 264.826V264.459C61.6893 263.918 61.3933 263.648 60.8011 263.648H59.6738V265.646ZM66.6736 266.193H64.6922V268.814H63.7357V262.853H64.6922V265.39H66.6736V262.853H67.6301V268.814H66.6736V266.193ZM70.8038 268.917C70.428 268.917 70.1007 268.849 69.8217 268.712C69.5484 268.57 69.3206 268.368 69.1384 268.106C68.9619 267.844 68.831 267.522 68.7456 267.141C68.6602 266.759 68.6175 266.324 68.6175 265.834C68.6175 265.35 68.6602 264.917 68.7456 264.536C68.831 264.149 68.9619 263.824 69.1384 263.562C69.3206 263.3 69.5484 263.101 69.8217 262.964C70.1007 262.822 70.428 262.751 70.8038 262.751C71.1796 262.751 71.5041 262.822 71.7774 262.964C72.0564 263.101 72.2842 263.3 72.4607 263.562C72.6429 263.824 72.7767 264.149 72.8621 264.536C72.9475 264.917 72.9902 265.35 72.9902 265.834C72.9902 266.324 72.9475 266.759 72.8621 267.141C72.7767 267.522 72.6429 267.844 72.4607 268.106C72.2842 268.368 72.0564 268.57 71.7774 268.712C71.5041 268.849 71.1796 268.917 70.8038 268.917ZM70.8038 268.123C71.2308 268.123 71.5326 267.963 71.7091 267.644C71.8856 267.32 71.9739 266.881 71.9739 266.329V265.33C71.9739 264.783 71.8856 264.351 71.7091 264.032C71.5326 263.707 71.2308 263.545 70.8038 263.545C70.3768 263.545 70.075 263.707 69.8985 264.032C69.722 264.351 69.6338 264.783 69.6338 265.33V266.338C69.6338 266.884 69.722 267.32 69.8985 267.644C70.075 267.963 70.3768 268.123 70.8038 268.123ZM76.403 263.656V268.814H75.4465V263.656H73.5761V262.853H78.2733V263.656H76.403ZM81.0456 268.917C80.6699 268.917 80.3425 268.849 80.0635 268.712C79.7902 268.57 79.5625 268.368 79.3803 268.106C79.2038 267.844 79.0728 267.522 78.9874 267.141C78.902 266.759 78.8593 266.324 78.8593 265.834C78.8593 265.35 78.902 264.917 78.9874 264.536C79.0728 264.149 79.2038 263.824 79.3803 263.562C79.5625 263.3 79.7902 263.101 80.0635 262.964C80.3425 262.822 80.6699 262.751 81.0456 262.751C81.4214 262.751 81.746 262.822 82.0192 262.964C82.2982 263.101 82.526 263.3 82.7025 263.562C82.8847 263.824 83.0185 264.149 83.1039 264.536C83.1893 264.917 83.232 265.35 83.232 265.834C83.232 266.324 83.1893 266.759 83.1039 267.141C83.0185 267.522 82.8847 267.844 82.7025 268.106C82.526 268.368 82.2982 268.57 82.0192 268.712C81.746 268.849 81.4214 268.917 81.0456 268.917ZM81.0456 268.123C81.4727 268.123 81.7744 267.963 81.9509 267.644C82.1274 267.32 82.2157 266.881 82.2157 266.329V265.33C82.2157 264.783 82.1274 264.351 81.9509 264.032C81.7744 263.707 81.4727 263.545 81.0456 263.545C80.6186 263.545 80.3169 263.707 80.1404 264.032C79.9639 264.351 79.8756 264.783 79.8756 265.33V266.338C79.8756 266.884 79.9639 267.32 80.1404 267.644C80.3169 267.963 80.6186 268.123 81.0456 268.123Z" fill="white"/>
<rect x="58" y="314.85" width="61.8559" height="38.8739" rx="1.60133" fill="#27ABD6"/>
<rect x="60.8406" y="312" width="56.1747" height="46.5297" rx="1.60133" fill="white"/>
<rect x="58" y="322.188" width="61.8559" height="44.2888" rx="1.60133" fill="#56CCF2"/>
<rect x="58" y="317.852" width="32.1893" height="44.2888" rx="1.60133" fill="#56CCF2"/>
<path d="M58.6405 380.814L58.2135 374.853H59.0505L59.264 378.321L59.3579 379.849H59.4262L60.1009 376.297H61.0489L61.7236 379.849H61.7919L61.8859 378.321L62.1079 374.853H62.9107L62.4837 380.814H61.2027L60.5963 377.364H60.528L59.9216 380.814H58.6405ZM67.0666 380.814L66.6139 379.226H64.718L64.2653 380.814H63.2917L65.034 374.853H66.3406L68.0829 380.814H67.0666ZM65.7001 375.818H65.6318L64.8973 378.432H66.4346L65.7001 375.818ZM69.1642 380.814V374.853H70.1207V380.012H72.8366V380.814H69.1642ZM74.2851 380.814V374.853H75.2416V380.012H77.9575V380.814H74.2851ZM79.201 380.814V374.853H81.4301C81.9994 374.853 82.4322 375.013 82.7282 375.332C83.03 375.65 83.1809 376.089 83.1809 376.647C83.1809 377.205 83.03 377.643 82.7282 377.962C82.4322 378.281 81.9994 378.44 81.4301 378.44H80.1576V380.814H79.201ZM80.1576 377.646H81.2849C81.877 377.646 82.1731 377.373 82.1731 376.826V376.459C82.1731 375.918 81.877 375.648 81.2849 375.648H80.1576V377.646ZM87.5502 380.814L87.0976 379.226H85.2016L84.749 380.814H83.7754L85.5176 374.853H86.8243L88.5665 380.814H87.5502ZM86.1837 375.818H86.1154L85.381 378.432H86.9182L86.1837 375.818ZM89.4429 380.814V374.853H91.6719C92.2413 374.853 92.674 375.013 92.97 375.332C93.2718 375.65 93.4227 376.089 93.4227 376.647C93.4227 377.205 93.2718 377.643 92.97 377.962C92.674 378.281 92.2413 378.44 91.6719 378.44H90.3994V380.814H89.4429ZM90.3994 377.646H91.5267C92.1188 377.646 92.4149 377.373 92.4149 376.826V376.459C92.4149 375.918 92.1188 375.648 91.5267 375.648H90.3994V377.646ZM94.5808 380.814V374.853H98.313V375.656H95.5374V377.39H98.2105V378.193H95.5374V380.012H98.313V380.814H94.5808ZM100.633 380.814H99.6847V374.853H101.914C102.483 374.853 102.916 375.013 103.212 375.332C103.514 375.65 103.664 376.089 103.664 376.647C103.664 377.102 103.553 377.478 103.331 377.774C103.109 378.07 102.791 378.252 102.375 378.321L103.75 380.814H102.691L101.427 378.406H100.633V380.814ZM101.777 377.637C102.369 377.637 102.665 377.367 102.665 376.826V376.459C102.665 375.918 102.369 375.648 101.777 375.648H100.633V377.637H101.777ZM106.599 380.917C106.081 380.917 105.645 380.826 105.292 380.644C104.939 380.461 104.649 380.219 104.421 379.918L105.036 379.328C105.264 379.602 105.506 379.804 105.762 379.935C106.018 380.06 106.309 380.123 106.633 380.123C107.009 380.123 107.297 380.037 107.496 379.866C107.701 379.696 107.803 379.451 107.803 379.132C107.803 378.876 107.729 378.679 107.581 378.543C107.433 378.4 107.18 378.298 106.821 378.235L106.172 378.133C105.887 378.087 105.648 378.013 105.455 377.911C105.261 377.803 105.104 377.677 104.985 377.535C104.865 377.387 104.777 377.225 104.72 377.048C104.669 376.866 104.643 376.675 104.643 376.476C104.643 375.912 104.826 375.485 105.19 375.195C105.554 374.899 106.055 374.751 106.693 374.751C107.166 374.751 107.567 374.828 107.897 374.981C108.233 375.129 108.504 375.34 108.709 375.613L108.111 376.211C107.946 376.012 107.749 375.852 107.521 375.733C107.299 375.608 107.023 375.545 106.693 375.545C106.34 375.545 106.07 375.622 105.882 375.776C105.699 375.924 105.608 376.143 105.608 376.433C105.608 376.678 105.68 376.872 105.822 377.014C105.97 377.151 106.229 377.25 106.599 377.313L107.231 377.424C107.766 377.521 108.156 377.717 108.401 378.013C108.646 378.304 108.768 378.659 108.768 379.081C108.768 379.354 108.72 379.605 108.623 379.832C108.532 380.06 108.393 380.254 108.205 380.413C108.022 380.572 107.795 380.698 107.521 380.789C107.254 380.874 106.946 380.917 106.599 380.917Z" fill="white"/>
<rect x="885" y="200" width="54.9789" height="63.5193" rx="1.60133" fill="white"/>
<rect x="890.338" y="207.473" width="44.3034" height="2.66888" rx="0.533776" fill="#E0E0E0"/>
<rect x="890.338" y="212.811" width="44.3034" height="2.66888" rx="0.533776" fill="#E0E0E0"/>
<rect x="890.338" y="218.148" width="44.3034" height="2.66888" rx="0.533776" fill="#E0E0E0"/>
<rect x="890.338" y="223.486" width="44.3034" height="2.66888" rx="0.533776" fill="#E0E0E0"/>
<rect x="890.338" y="228.824" width="44.3034" height="2.66888" rx="0.533776" fill="#E0E0E0"/>
<rect x="890.338" y="234.162" width="44.3034" height="2.66888" rx="0.533776" fill="#E0E0E0"/>
<rect x="890.338" y="239.5" width="35.2292" height="2.66888" rx="0.533776" fill="#E0E0E0"/>
<rect x="890.338" y="244.838" width="32.0265" height="2.66888" rx="0.533776" fill="#E0E0E0"/>
<path d="M887.511 277.96C886.993 277.96 886.557 277.869 886.204 277.687C885.851 277.504 885.561 277.262 885.333 276.961L885.948 276.371C886.176 276.645 886.418 276.847 886.674 276.978C886.93 277.103 887.221 277.166 887.545 277.166C887.921 277.166 888.208 277.08 888.408 276.909C888.613 276.739 888.715 276.494 888.715 276.175C888.715 275.919 888.641 275.722 888.493 275.586C888.345 275.443 888.092 275.341 887.733 275.278L887.084 275.176C886.799 275.13 886.56 275.056 886.366 274.954C886.173 274.846 886.016 274.72 885.897 274.578C885.777 274.43 885.689 274.268 885.632 274.091C885.581 273.909 885.555 273.718 885.555 273.519C885.555 272.955 885.737 272.528 886.102 272.238C886.466 271.942 886.967 271.794 887.605 271.794C888.077 271.794 888.479 271.871 888.809 272.024C889.145 272.172 889.415 272.383 889.62 272.656L889.023 273.254C888.857 273.055 888.661 272.895 888.433 272.776C888.211 272.651 887.935 272.588 887.605 272.588C887.252 272.588 886.981 272.665 886.793 272.819C886.611 272.967 886.52 273.186 886.52 273.476C886.52 273.721 886.591 273.915 886.734 274.057C886.882 274.194 887.141 274.293 887.511 274.356L888.143 274.467C888.678 274.564 889.068 274.76 889.313 275.056C889.558 275.347 889.68 275.702 889.68 276.124C889.68 276.397 889.632 276.648 889.535 276.875C889.444 277.103 889.304 277.297 889.116 277.456C888.934 277.615 888.707 277.741 888.433 277.832C888.166 277.917 887.858 277.96 887.511 277.96ZM890.838 277.857V271.896H893.067C893.637 271.896 894.069 272.056 894.365 272.374C894.667 272.693 894.818 273.132 894.818 273.69C894.818 274.248 894.667 274.686 894.365 275.005C894.069 275.324 893.637 275.483 893.067 275.483H891.795V277.857H890.838ZM891.795 274.689H892.922C893.514 274.689 893.81 274.416 893.81 273.869V273.502C893.81 272.961 893.514 272.69 892.922 272.69H891.795V274.689ZM895.976 277.857V271.896H899.708V272.699H896.933V274.433H899.606V275.236H896.933V277.055H899.708V277.857H895.976ZM904.308 277.857L903.856 276.269H901.96L901.507 277.857H900.534L902.276 271.896H903.582L905.325 277.857H904.308ZM902.942 272.861H902.874L902.139 275.475H903.676L902.942 272.861ZM907.824 275.116L907.106 276.013V277.857H906.15V271.896H907.106V274.749H907.149L907.875 273.758L909.335 271.896H910.437L908.473 274.407L910.514 277.857H909.421L907.824 275.116ZM911.339 277.857V271.896H915.071V272.699H912.296V274.433H914.969V275.236H912.296V277.055H915.071V277.857H911.339ZM917.391 277.857H916.443V271.896H918.672C919.241 271.896 919.674 272.056 919.97 272.374C920.272 272.693 920.423 273.132 920.423 273.69C920.423 274.145 920.312 274.521 920.09 274.817C919.868 275.113 919.549 275.295 919.133 275.364L920.508 277.857H919.449L918.185 275.449H917.391V277.857ZM918.535 274.68C919.127 274.68 919.423 274.41 919.423 273.869V273.502C919.423 272.961 919.127 272.69 918.535 272.69H917.391V274.68H918.535ZM923.357 277.96C922.839 277.96 922.404 277.869 922.051 277.687C921.698 277.504 921.407 277.262 921.179 276.961L921.794 276.371C922.022 276.645 922.264 276.847 922.52 276.978C922.776 277.103 923.067 277.166 923.391 277.166C923.767 277.166 924.055 277.08 924.254 276.909C924.459 276.739 924.561 276.494 924.561 276.175C924.561 275.919 924.487 275.722 924.339 275.586C924.191 275.443 923.938 275.341 923.579 275.278L922.93 275.176C922.646 275.13 922.406 275.056 922.213 274.954C922.019 274.846 921.863 274.72 921.743 274.578C921.624 274.43 921.535 274.268 921.478 274.091C921.427 273.909 921.401 273.718 921.401 273.519C921.401 272.955 921.584 272.528 921.948 272.238C922.312 271.942 922.814 271.794 923.451 271.794C923.924 271.794 924.325 271.871 924.655 272.024C924.991 272.172 925.262 272.383 925.467 272.656L924.869 273.254C924.704 273.055 924.507 272.895 924.28 272.776C924.058 272.651 923.781 272.588 923.451 272.588C923.098 272.588 922.828 272.665 922.64 272.819C922.458 272.967 922.367 273.186 922.367 273.476C922.367 273.721 922.438 273.915 922.58 274.057C922.728 274.194 922.987 274.293 923.357 274.356L923.989 274.467C924.524 274.564 924.914 274.76 925.159 275.056C925.404 275.347 925.527 275.702 925.527 276.124C925.527 276.397 925.478 276.648 925.381 276.875C925.29 277.103 925.151 277.297 924.963 277.456C924.781 277.615 924.553 277.741 924.28 277.832C924.012 277.917 923.705 277.96 923.357 277.96Z" fill="white"/>
<rect x="827.492" y="98.748" width="54.9789" height="63.5193" rx="1.60133" fill="white"/>
<rect x="832.829" y="106.221" width="44.3034" height="2.66888" rx="0.533776" fill="#E0E0E0"/>
<rect x="832.829" y="111.559" width="44.3034" height="2.66888" rx="0.533776" fill="#E0E0E0"/>
<rect x="832.829" y="116.896" width="44.3034" height="2.66888" rx="0.533776" fill="#E0E0E0"/>
<rect x="832.829" y="122.234" width="44.3034" height="2.66888" rx="0.533776" fill="#E0E0E0"/>
<rect x="832.829" y="127.572" width="44.3034" height="2.66888" rx="0.533776" fill="#E0E0E0"/>
<rect x="832.829" y="132.91" width="44.3034" height="2.66888" rx="0.533776" fill="#E0E0E0"/>
<rect x="832.829" y="138.248" width="35.2292" height="2.66888" rx="0.533776" fill="#E0E0E0"/>
<rect x="832.829" y="143.586" width="32.0265" height="2.66888" rx="0.533776" fill="#E0E0E0"/>
<path d="M828.209 176.605V170.644H830.438C831.007 170.644 831.44 170.804 831.736 171.123C832.038 171.441 832.189 171.88 832.189 172.438C832.189 172.996 832.038 173.434 831.736 173.753C831.44 174.072 831.007 174.231 830.438 174.231H829.165V176.605H828.209ZM829.165 173.437H830.293C830.885 173.437 831.181 173.164 831.181 172.617V172.25C831.181 171.709 830.885 171.439 830.293 171.439H829.165V173.437ZM836.558 176.605L836.106 175.017H834.21L833.757 176.605H832.783L834.526 170.644H835.832L837.574 176.605H836.558ZM835.192 171.609H835.123L834.389 174.223H835.926L835.192 171.609ZM839.399 176.605H838.451V170.644H840.68C841.249 170.644 841.682 170.804 841.978 171.123C842.28 171.441 842.431 171.88 842.431 172.438C842.431 172.893 842.32 173.269 842.098 173.565C841.875 173.861 841.557 174.043 841.141 174.112L842.516 176.605H841.457L840.193 174.197H839.399V176.605ZM840.543 173.428C841.135 173.428 841.431 173.158 841.431 172.617V172.25C841.431 171.709 841.135 171.439 840.543 171.439H839.399V173.428H840.543ZM845.895 171.447V176.605H844.938V171.447H843.068V170.644H847.765V171.447H845.895ZM849.504 172.019H849.427V176.605H848.59V170.644H849.82L851.571 175.23H851.648V170.644H852.485V176.605H851.255L849.504 172.019ZM853.831 176.605V170.644H857.563V171.447H854.787V173.181H857.46V173.984H854.787V175.803H857.563V176.605H853.831ZM859.882 176.605H858.934V170.644H861.163C861.733 170.644 862.166 170.804 862.462 171.123C862.763 171.441 862.914 171.88 862.914 172.438C862.914 172.893 862.803 173.269 862.581 173.565C862.359 173.861 862.04 174.043 861.625 174.112L863 176.605H861.941L860.677 174.197H859.882V176.605ZM861.027 173.428C861.619 173.428 861.915 173.158 861.915 172.617V172.25C861.915 171.709 861.619 171.439 861.027 171.439H859.882V173.428H861.027ZM865.849 176.708C865.331 176.708 864.895 176.617 864.542 176.435C864.189 176.252 863.899 176.01 863.671 175.709L864.286 175.119C864.514 175.393 864.756 175.595 865.012 175.726C865.268 175.851 865.558 175.914 865.883 175.914C866.259 175.914 866.546 175.828 866.746 175.657C866.951 175.487 867.053 175.242 867.053 174.923C867.053 174.667 866.979 174.47 866.831 174.334C866.683 174.191 866.43 174.089 866.071 174.026L865.422 173.924C865.137 173.878 864.898 173.804 864.704 173.702C864.511 173.594 864.354 173.468 864.235 173.326C864.115 173.178 864.027 173.016 863.97 172.839C863.919 172.657 863.893 172.466 863.893 172.267C863.893 171.703 864.075 171.276 864.44 170.986C864.804 170.69 865.305 170.542 865.943 170.542C866.415 170.542 866.817 170.619 867.147 170.772C867.483 170.92 867.753 171.131 867.958 171.404L867.36 172.002C867.195 171.803 866.999 171.643 866.771 171.524C866.549 171.399 866.273 171.336 865.943 171.336C865.59 171.336 865.319 171.413 865.131 171.567C864.949 171.715 864.858 171.934 864.858 172.224C864.858 172.469 864.929 172.663 865.072 172.805C865.22 172.942 865.479 173.041 865.849 173.104L866.481 173.215C867.016 173.312 867.406 173.508 867.651 173.804C867.896 174.095 868.018 174.45 868.018 174.872C868.018 175.145 867.97 175.396 867.873 175.623C867.782 175.851 867.642 176.045 867.454 176.204C867.272 176.363 867.044 176.489 866.771 176.58C866.504 176.665 866.196 176.708 865.849 176.708Z" fill="white"/>
<path d="M856.311 499.768C856.179 500.838 855.27 501.643 854.191 501.643H827.48C826.402 501.643 825.493 500.838 825.361 499.768L820.638 461.288C820.482 460.015 821.475 458.893 822.757 458.893H858.914C860.197 458.893 861.19 460.015 861.034 461.288L856.311 499.768Z" fill="white"/>
<rect x="817.279" y="453.217" width="47.1139" height="4.07369" rx="1.60133" fill="white"/>
<path d="M835.478 452.375C835.478 451.49 836.195 450.773 837.08 450.773H844.592C845.477 450.773 846.194 451.49 846.194 452.375V453.833H835.478V452.375Z" fill="white"/>
<path d="M89.6689 483.081C94.6669 483.081 99.6094 478.083 99.6094 469.032C99.6094 456.87 90.724 451.316 80.0061 451.316C67.6222 451.316 58.1815 460.313 58.1815 472.197C58.1815 484.026 66.2338 492.3 77.9514 492.3C81.7276 492.3 86.0592 491.523 90.0576 489.579L88.5027 485.747C85.0041 487.469 81.2278 488.191 77.9514 488.191C68.7884 488.191 62.6242 481.86 62.6242 472.364C62.6242 462.59 69.6214 455.204 79.895 455.204C89.0025 455.204 95.3333 460.035 95.3333 469.254C95.3333 475.418 92.9454 479.083 90.0576 479.083C88.3361 479.083 87.5031 477.861 87.5031 475.362C87.5031 474.751 87.5586 473.974 87.7252 473.141L89.3357 461.035H85.3928C85.1707 462.09 85.1152 463.256 84.9486 464.311C83.8934 461.701 81.6166 460.091 78.5067 460.091C71.3984 460.091 67.0668 466.421 67.0668 472.863C67.0668 479.805 71.0652 482.915 75.73 482.915C79.4508 482.915 82.1164 481.138 83.8379 477.972C84.2822 481.304 86.7256 483.081 89.6689 483.081ZM78.6178 464.367C81.7276 464.367 83.4492 466.199 83.4492 469.698C83.4492 474.585 81.0057 478.75 76.6186 478.75C73.6753 478.75 72.0093 476.973 72.0093 473.03C72.0093 468.365 74.4528 464.367 78.6178 464.367Z" fill="white"/>
<path d="M60.9144 506.739C60.1572 506.739 59.5935 506.472 59.2234 505.936C58.8591 505.401 58.6769 504.641 58.6769 503.656C58.6769 502.671 58.8591 501.911 59.2234 501.376C59.5935 500.841 60.1572 500.573 60.9144 500.573C61.2048 500.573 61.4553 500.613 61.666 500.693C61.8824 500.767 62.0674 500.872 62.2211 501.009C62.3749 501.14 62.503 501.296 62.6055 501.478C62.7136 501.655 62.8019 501.846 62.8702 502.051L62.0076 502.341C61.9621 502.204 61.9108 502.076 61.8539 501.957C61.797 501.837 61.7258 501.735 61.6404 501.649C61.555 501.564 61.4525 501.495 61.3329 501.444C61.2191 501.393 61.0767 501.367 60.9059 501.367C60.4846 501.367 60.1771 501.53 59.9835 501.854C59.79 502.173 59.6932 502.606 59.6932 503.152V504.16C59.6932 504.707 59.79 505.142 59.9835 505.467C60.1771 505.786 60.4846 505.945 60.9059 505.945C61.0767 505.945 61.2191 505.919 61.3329 505.868C61.4525 505.817 61.555 505.749 61.6404 505.663C61.7258 505.578 61.797 505.475 61.8539 505.356C61.9108 505.236 61.9621 505.108 62.0076 504.971L62.8702 505.262C62.8019 505.467 62.7136 505.66 62.6055 505.842C62.503 506.019 62.3749 506.176 62.2211 506.312C62.0674 506.443 61.8824 506.548 61.666 506.628C61.4553 506.702 61.2048 506.739 60.9144 506.739ZM65.8646 506.739C65.4888 506.739 65.1614 506.671 64.8824 506.534C64.6091 506.392 64.3814 506.19 64.1992 505.928C64.0227 505.666 63.8917 505.344 63.8063 504.963C63.7209 504.581 63.6782 504.146 63.6782 503.656C63.6782 503.172 63.7209 502.739 63.8063 502.358C63.8917 501.971 64.0227 501.646 64.1992 501.384C64.3814 501.122 64.6091 500.923 64.8824 500.787C65.1614 500.644 65.4888 500.573 65.8646 500.573C66.2403 500.573 66.5649 500.644 66.8382 500.787C67.1171 500.923 67.3449 501.122 67.5214 501.384C67.7036 501.646 67.8374 501.971 67.9228 502.358C68.0082 502.739 68.0509 503.172 68.0509 503.656C68.0509 504.146 68.0082 504.581 67.9228 504.963C67.8374 505.344 67.7036 505.666 67.5214 505.928C67.3449 506.19 67.1171 506.392 66.8382 506.534C66.5649 506.671 66.2403 506.739 65.8646 506.739ZM65.8646 505.945C66.2916 505.945 66.5933 505.786 66.7698 505.467C66.9463 505.142 67.0346 504.704 67.0346 504.151V503.152C67.0346 502.606 66.9463 502.173 66.7698 501.854C66.5933 501.53 66.2916 501.367 65.8646 501.367C65.4375 501.367 65.1358 501.53 64.9593 501.854C64.7828 502.173 64.6945 502.606 64.6945 503.152V504.16C64.6945 504.707 64.7828 505.142 64.9593 505.467C65.1358 505.786 65.4375 505.945 65.8646 505.945ZM69.9521 502.051H69.8752V506.637H69.0382V500.676H70.2681L72.0188 505.262H72.0957V500.676H72.9327V506.637H71.7029L69.9521 502.051ZM76.5846 501.478V506.637H75.6281V501.478H73.7578V500.676H78.455V501.478H76.5846ZM82.6108 506.637L82.1582 505.048H80.2622L79.8096 506.637H78.836L80.5782 500.676H81.8849L83.6271 506.637H82.6108ZM81.2444 501.641H81.176L80.4416 504.254H81.9788L81.2444 501.641ZM86.519 506.739C85.7617 506.739 85.1981 506.472 84.828 505.936C84.4636 505.401 84.2814 504.641 84.2814 503.656C84.2814 502.671 84.4636 501.911 84.828 501.376C85.1981 500.841 85.7617 500.573 86.519 500.573C86.8094 500.573 87.0599 500.613 87.2706 500.693C87.4869 500.767 87.672 500.872 87.8257 501.009C87.9794 501.14 88.1075 501.296 88.21 501.478C88.3182 501.655 88.4064 501.846 88.4747 502.051L87.6122 502.341C87.5666 502.204 87.5154 502.076 87.4584 501.957C87.4015 501.837 87.3303 501.735 87.2449 501.649C87.1595 501.564 87.057 501.495 86.9375 501.444C86.8236 501.393 86.6813 501.367 86.5105 501.367C86.0891 501.367 85.7817 501.53 85.5881 501.854C85.3945 502.173 85.2977 502.606 85.2977 503.152V504.16C85.2977 504.707 85.3945 505.142 85.5881 505.467C85.7817 505.786 86.0891 505.945 86.5105 505.945C86.6813 505.945 86.8236 505.919 86.9375 505.868C87.057 505.817 87.1595 505.749 87.2449 505.663C87.3303 505.578 87.4015 505.475 87.4584 505.356C87.5154 505.236 87.5666 505.108 87.6122 504.971L88.4747 505.262C88.4064 505.467 88.3182 505.66 88.21 505.842C88.1075 506.019 87.9794 506.176 87.8257 506.312C87.672 506.443 87.4869 506.548 87.2706 506.628C87.0599 506.702 86.8094 506.739 86.519 506.739ZM91.9474 501.478V506.637H90.9908V501.478H89.1205V500.676H93.8177V501.478H91.9474ZM100.695 500.676V504.339C100.695 504.584 100.7 504.806 100.712 505.006C100.729 505.205 100.771 505.376 100.84 505.518C100.908 505.655 101.011 505.76 101.147 505.834C101.284 505.908 101.472 505.945 101.711 505.945C101.95 505.945 102.138 505.908 102.275 505.834C102.411 505.76 102.514 505.655 102.582 505.518C102.65 505.376 102.69 505.205 102.702 505.006C102.719 504.806 102.727 504.584 102.727 504.339V500.676H103.684V504.169C103.684 504.596 103.658 504.971 103.607 505.296C103.561 505.615 103.467 505.882 103.325 506.099C103.183 506.309 102.981 506.469 102.719 506.577C102.462 506.685 102.127 506.739 101.711 506.739C101.295 506.739 100.957 506.685 100.695 506.577C100.438 506.469 100.239 506.309 100.097 506.099C99.9544 505.882 99.8576 505.615 99.8064 505.296C99.7609 504.971 99.7381 504.596 99.7381 504.169V500.676H100.695ZM106.781 506.739C106.262 506.739 105.827 506.648 105.474 506.466C105.121 506.284 104.831 506.042 104.603 505.74L105.218 505.151C105.445 505.424 105.687 505.626 105.944 505.757C106.2 505.882 106.49 505.945 106.815 505.945C107.191 505.945 107.478 505.86 107.677 505.689C107.882 505.518 107.985 505.273 107.985 504.954C107.985 504.698 107.911 504.502 107.763 504.365C107.615 504.223 107.361 504.12 107.003 504.058L106.354 503.955C106.069 503.909 105.83 503.835 105.636 503.733C105.443 503.625 105.286 503.5 105.166 503.357C105.047 503.209 104.959 503.047 104.902 502.87C104.85 502.688 104.825 502.497 104.825 502.298C104.825 501.735 105.007 501.308 105.371 501.017C105.736 500.721 106.237 500.573 106.875 500.573C107.347 500.573 107.748 500.65 108.079 500.804C108.415 500.952 108.685 501.162 108.89 501.436L108.292 502.033C108.127 501.834 107.931 501.675 107.703 501.555C107.481 501.43 107.205 501.367 106.875 501.367C106.522 501.367 106.251 501.444 106.063 501.598C105.881 501.746 105.79 501.965 105.79 502.255C105.79 502.5 105.861 502.694 106.003 502.836C106.151 502.973 106.41 503.073 106.781 503.135L107.413 503.246C107.948 503.343 108.338 503.539 108.583 503.835C108.827 504.126 108.95 504.482 108.95 504.903C108.95 505.176 108.901 505.427 108.805 505.655C108.714 505.882 108.574 506.076 108.386 506.235C108.204 506.395 107.976 506.52 107.703 506.611C107.435 506.697 107.128 506.739 106.781 506.739Z" fill="white"/>
<g clip-path="url(#clip1_104_49240)">
<path d="M929.482 378.522L929.473 369.069L927.942 374.35L926.414 369.093L926.404 376.269L921.414 372.573L921.792 372.292L921.775 353.893L926.518 353.905L927.94 358.824L929.364 353.899L936.382 353.921L934.079 355.62L934.075 381.942L929.482 378.522ZM883.733 355.616L881.403 353.893L894.536 353.91L896.039 355.044L896.04 372.286L896.438 372.571L883.736 381.984L883.733 355.616ZM891.44 369.068L891.435 359.117L891.083 358.833L888.352 358.846L888.346 371.359L891.44 369.068ZM896.428 371.743L896.425 355.042L897.966 353.902L907.184 353.902L908.722 355.047L908.728 374.372L904.368 377.61L896.428 371.743ZM903.73 358.823L901.405 358.839L901.041 359.115L901.047 369.072L904.1 371.334L904.109 359.12L903.73 358.823ZM909.123 374.39L909.112 355.038L910.647 353.899L919.878 353.907L921.423 355.048L921.413 371.71L913.515 377.606L909.123 374.39ZM916.802 369.066L916.801 359.111L916.413 358.817L914.091 358.825L913.718 359.109L913.741 371.304L916.802 369.066Z" fill="#092CAD"/>
</g>
<path d="M882.12 396.322V390.088H884.161C884.566 390.088 884.916 390.165 885.212 390.318C885.514 390.472 885.744 390.691 885.904 390.976C886.069 391.255 886.151 391.585 886.151 391.967C886.151 392.342 886.069 392.673 885.904 392.957C885.739 393.242 885.508 393.461 885.212 393.615C884.916 393.769 884.566 393.846 884.161 393.846H883.043V396.322H882.12ZM883.043 393.017H884.161C884.48 393.017 884.734 392.923 884.922 392.735C885.115 392.542 885.212 392.285 885.212 391.967C885.212 391.642 885.115 391.386 884.922 391.198C884.734 391.01 884.48 390.916 884.161 390.916H883.043V393.017ZM887.455 396.322V390.088H888.377V395.477H891.101V396.322H887.455ZM892.012 396.322L893.6 390.088H894.813L896.402 396.322H895.471L895.095 394.742H893.327L892.951 396.322H892.012ZM893.498 393.982H894.916L894.489 392.18C894.415 391.861 894.352 391.585 894.301 391.352C894.255 391.113 894.224 390.95 894.207 390.865C894.19 390.95 894.158 391.113 894.113 391.352C894.067 391.585 894.005 391.858 893.925 392.172L893.498 393.982ZM898.867 396.322V394.025L897.013 390.088H897.97L899.072 392.445C899.146 392.599 899.205 392.744 899.251 392.88C899.296 393.011 899.328 393.114 899.345 393.188C899.356 393.114 899.385 393.011 899.43 392.88C899.481 392.744 899.541 392.599 899.61 392.445L900.686 390.088H901.642L899.789 394.025V396.322H898.867ZM907.716 396.322V390.088H909.459C909.868 390.088 910.224 390.167 910.526 390.327C910.828 390.481 911.061 390.7 911.226 390.985C911.397 391.269 911.483 391.605 911.483 391.992V394.409C911.483 394.791 911.397 395.127 911.226 395.417C911.061 395.707 910.828 395.932 910.526 396.092C910.224 396.245 909.868 396.322 909.459 396.322H907.716ZM908.639 395.485H909.459C909.8 395.485 910.068 395.391 910.261 395.203C910.461 395.01 910.56 394.745 910.56 394.409V391.992C910.56 391.662 910.461 391.403 910.261 391.215C910.068 391.022 909.8 390.925 909.459 390.925H908.639V395.485ZM914.69 396.408C914.303 396.408 913.967 396.336 913.683 396.194C913.404 396.046 913.187 395.835 913.034 395.562C912.886 395.283 912.812 394.959 912.812 394.589V391.821C912.812 391.446 912.886 391.121 913.034 390.848C913.187 390.575 913.404 390.367 913.683 390.224C913.967 390.076 914.303 390.002 914.69 390.002C915.078 390.002 915.411 390.076 915.69 390.224C915.974 390.367 916.191 390.575 916.339 390.848C916.492 391.121 916.569 391.443 916.569 391.813V394.589C916.569 394.959 916.492 395.283 916.339 395.562C916.191 395.835 915.974 396.046 915.69 396.194C915.411 396.336 915.078 396.408 914.69 396.408ZM914.69 395.588C915.004 395.588 915.24 395.502 915.399 395.332C915.564 395.155 915.647 394.907 915.647 394.589V391.821C915.647 391.497 915.564 391.249 915.399 391.078C915.24 390.908 915.004 390.822 914.69 390.822C914.383 390.822 914.147 390.908 913.982 391.078C913.817 391.249 913.734 391.497 913.734 391.821V394.589C913.734 394.907 913.817 395.155 913.982 395.332C914.147 395.502 914.383 395.588 914.69 395.588ZM919.811 396.408C919.424 396.408 919.088 396.336 918.804 396.194C918.525 396.046 918.308 395.835 918.155 395.562C918.007 395.283 917.932 394.959 917.932 394.589V391.821C917.932 391.446 918.007 391.121 918.155 390.848C918.308 390.575 918.525 390.367 918.804 390.224C919.088 390.076 919.424 390.002 919.811 390.002C920.199 390.002 920.532 390.076 920.811 390.224C921.095 390.367 921.312 390.575 921.46 390.848C921.613 391.121 921.69 391.443 921.69 391.813V394.589C921.69 394.959 921.613 395.283 921.46 395.562C921.312 395.835 921.095 396.046 920.811 396.194C920.532 396.336 920.199 396.408 919.811 396.408ZM919.811 395.588C920.125 395.588 920.361 395.502 920.52 395.332C920.685 395.155 920.768 394.907 920.768 394.589V391.821C920.768 391.497 920.685 391.249 920.52 391.078C920.361 390.908 920.125 390.822 919.811 390.822C919.504 390.822 919.268 390.908 919.103 391.078C918.937 391.249 918.855 391.497 918.855 391.821V394.589C918.855 394.907 918.937 395.155 919.103 395.332C919.268 395.502 919.504 395.588 919.811 395.588ZM922.934 396.322V390.088H924.07L924.693 392.086C924.756 392.274 924.81 392.456 924.855 392.633C924.901 392.804 924.932 392.932 924.949 393.017C924.972 392.932 925.003 392.804 925.043 392.633C925.089 392.456 925.14 392.274 925.197 392.086L925.795 390.088H926.931V396.322H926.06V394.221C926.06 393.954 926.065 393.658 926.077 393.333C926.094 393.003 926.117 392.673 926.145 392.342C926.173 392.007 926.202 391.688 926.23 391.386C926.259 391.078 926.285 390.811 926.307 390.583L925.385 393.615H924.497L923.557 390.583C923.586 390.805 923.614 391.064 923.643 391.36C923.671 391.651 923.697 391.961 923.72 392.291C923.742 392.621 923.762 392.954 923.779 393.29C923.796 393.621 923.805 393.931 923.805 394.221V396.322H922.934Z" fill="white"/>
<path d="M741.039 407.135H742.072V430.873H741.039V407.135ZM718.333 407.135H719.365V430.873H718.333V407.135ZM738.975 407.135H740.007V430.873H738.975V407.135ZM736.911 407.135H737.943V430.873H736.911V407.135ZM734.847 407.135H735.879V430.873H734.847V421.57H725.558V430.873H724.526V407.135H725.558V416.409H734.847V407.135ZM722.462 407.135H723.494V430.873H722.462V407.135ZM720.397 407.135H721.429V430.873H720.397V407.135ZM734.847 420.538V419.506H725.558V420.538H734.847ZM734.847 418.473V417.441H725.558V418.473H734.847ZM758.499 423.863L757.438 424.121L756.292 422.272L757.166 421.727L758.499 423.863ZM762.069 431.561L763.029 431.145L764.577 433.654L763.703 434.213L762.069 431.561ZM760.334 422.903L759.474 423.448L758.069 421.197L758.944 420.652L760.334 422.903ZM763.946 430.672L764.821 430.128L766.312 432.55L765.437 433.109L763.946 430.672ZM761.753 421.269L761.122 422.215L759.832 420.136L760.692 419.549L761.753 421.269ZM765.667 429.54L766.455 428.838L768.061 431.432L767.186 431.991L765.667 429.54ZM753.152 414.99C752.044 416.099 751.49 417.437 751.49 419.004C751.49 420.571 752.044 421.909 753.152 423.018C754.261 424.126 755.599 424.68 757.166 424.68C758.733 424.68 760.071 424.126 761.18 423.018C762.288 421.909 762.843 420.571 762.843 419.004C762.843 417.437 762.288 416.099 761.18 414.99C760.071 413.882 758.733 413.327 757.166 413.327C755.599 413.327 754.261 413.882 753.152 414.99ZM750.988 421.613C750.634 420.781 750.457 419.912 750.457 419.004C750.457 418.096 750.634 417.231 750.988 416.409C751.341 415.578 751.819 414.861 752.421 414.259C753.023 413.657 753.735 413.179 754.557 412.826C755.389 412.472 756.258 412.295 757.166 412.295C758.074 412.295 758.939 412.472 759.761 412.826C760.592 413.179 761.309 413.657 761.911 414.259C762.513 414.861 762.991 415.578 763.344 416.409C763.698 417.231 763.875 418.096 763.875 419.004C763.875 419.912 763.698 420.781 763.344 421.613C762.991 422.435 762.513 423.147 761.911 423.749C761.309 424.351 760.592 424.829 759.761 425.182C758.939 425.536 758.074 425.713 757.166 425.713C756.258 425.713 755.389 425.536 754.557 425.182C753.735 424.829 753.023 424.351 752.421 423.749C751.819 423.147 751.341 422.435 750.988 421.613ZM750.457 415.119C749.769 416.304 749.425 417.599 749.425 419.004C749.425 420.409 749.769 421.704 750.457 422.889C751.155 424.074 752.096 425.015 753.281 425.713C754.466 426.401 755.761 426.745 757.166 426.745C758.571 426.745 759.866 426.401 761.051 425.713C762.236 425.015 763.172 424.074 763.86 422.889C764.558 421.704 764.907 420.409 764.907 419.004C764.907 417.599 764.558 416.304 763.86 415.119C763.172 413.934 762.236 412.998 761.051 412.309C759.866 411.612 758.571 411.263 757.166 411.263C755.761 411.263 754.466 411.612 753.281 412.309C752.096 412.998 751.155 413.934 750.457 415.119ZM749.569 423.405C748.785 422.057 748.393 420.59 748.393 419.004C748.393 417.417 748.785 415.951 749.569 414.603C750.352 413.256 751.418 412.19 752.765 411.406C754.113 410.623 755.58 410.231 757.166 410.231C758.752 410.231 760.219 410.623 761.567 411.406C762.914 412.19 763.98 413.256 764.764 414.603C765.547 415.951 765.939 417.417 765.939 419.004C765.939 420.59 765.547 422.057 764.764 423.405C763.98 424.752 762.914 425.818 761.567 426.601C760.219 427.385 758.752 427.777 757.166 427.777C755.58 427.777 754.113 427.385 752.765 426.601C751.418 425.818 750.352 424.752 749.569 423.405ZM748.135 415.191C747.619 416.404 747.361 417.675 747.361 419.004C747.361 420.332 747.619 421.603 748.135 422.817C748.651 424.031 749.344 425.077 750.214 425.956C751.093 426.826 752.139 427.519 753.353 428.035C754.567 428.551 755.838 428.809 757.166 428.809C758.494 428.809 759.765 428.551 760.979 428.035C762.193 427.519 763.234 426.826 764.104 425.956C764.983 425.077 765.681 424.031 766.197 422.817C766.713 421.603 766.971 420.332 766.971 419.004C766.971 417.675 766.713 416.404 766.197 415.191C765.681 413.977 764.983 412.935 764.104 412.066C763.234 411.187 762.193 410.489 760.979 409.973C759.765 409.457 758.494 409.199 757.166 409.199C755.838 409.199 754.567 409.457 753.353 409.973C752.139 410.489 751.093 411.187 750.214 412.066C749.344 412.935 748.651 413.977 748.135 415.191ZM747.777 424.437C746.812 422.774 746.329 420.963 746.329 419.004C746.329 417.045 746.812 415.234 747.777 413.571C748.752 411.908 750.07 410.594 751.733 409.629C753.396 408.654 755.207 408.167 757.166 408.167C759.125 408.167 760.936 408.654 762.599 409.629C764.262 410.594 765.576 411.908 766.541 413.571C767.516 415.234 768.003 417.045 768.003 419.004C768.003 420.963 767.516 422.774 766.541 424.437C765.576 426.1 764.262 427.418 762.599 428.393C760.936 429.358 759.125 429.841 757.166 429.841C755.207 429.841 753.396 429.358 751.733 428.393C750.07 427.418 748.752 426.1 747.777 424.437ZM746.229 414.402C745.607 415.865 745.297 417.398 745.297 419.004C745.297 420.609 745.607 422.148 746.229 423.62C746.859 425.082 747.705 426.343 748.766 427.404C749.827 428.465 751.088 429.311 752.55 429.941C754.022 430.562 755.561 430.873 757.166 430.873C758.772 430.873 760.305 430.562 761.768 429.941C763.239 429.311 764.506 428.465 765.566 427.404C766.627 426.343 767.468 425.082 768.089 423.62C768.72 422.148 769.035 420.609 769.035 419.004C769.035 417.398 768.72 415.865 768.089 414.402C767.468 412.931 766.627 411.664 765.566 410.604C764.506 409.543 763.239 408.702 761.768 408.081C760.305 407.45 758.772 407.135 757.166 407.135C755.561 407.135 754.022 407.45 752.55 408.081C751.088 408.702 749.827 409.543 748.766 410.604C747.705 411.664 746.859 412.931 746.229 414.402ZM745.283 424.021C744.604 422.425 744.265 420.753 744.265 419.004C744.265 417.255 744.604 415.587 745.283 414.001C745.971 412.405 746.888 411.034 748.035 409.887C749.191 408.731 750.563 407.813 752.149 407.135C753.745 406.447 755.417 406.103 757.166 406.103C758.915 406.103 760.583 406.447 762.169 407.135C763.765 407.813 765.136 408.731 766.283 409.887C767.439 411.034 768.357 412.405 769.035 414.001C769.723 415.587 770.067 417.255 770.067 419.004C770.067 420.753 769.723 422.425 769.035 424.021C768.357 425.607 767.439 426.979 766.283 428.135C765.136 429.282 763.765 430.195 762.169 430.873C760.583 431.561 758.915 431.905 757.166 431.905C755.417 431.905 753.745 431.561 752.149 430.873C750.563 430.195 749.191 429.282 748.035 428.135C746.888 426.979 745.971 425.607 745.283 424.021Z" fill="#1EFE5D"/>
<path d="M717.726 445.211V438.976H718.648V441.556H720.476V438.976H721.398V445.211H720.476V442.41H718.648V445.211H717.726ZM722.488 445.211L724.077 438.976H725.289L726.878 445.211H725.947L725.571 443.631H723.803L723.428 445.211H722.488ZM723.974 442.871H725.392L724.965 441.069C724.891 440.75 724.828 440.474 724.777 440.24C724.731 440.001 724.7 439.839 724.683 439.754C724.666 439.839 724.635 440.001 724.589 440.24C724.544 440.474 724.481 440.747 724.401 441.06L723.974 442.871ZM729.838 445.296C729.451 445.296 729.112 445.225 728.822 445.083C728.537 444.935 728.315 444.724 728.156 444.451C728.002 444.172 727.925 443.847 727.925 443.477V440.71C727.925 440.334 728.002 440.01 728.156 439.737C728.315 439.463 728.537 439.255 728.822 439.113C729.112 438.965 729.451 438.891 729.838 438.891C730.225 438.891 730.561 438.965 730.846 439.113C731.131 439.261 731.35 439.472 731.503 439.745C731.663 440.013 731.743 440.334 731.743 440.71H730.82C730.82 440.386 730.735 440.138 730.564 439.967C730.393 439.796 730.151 439.711 729.838 439.711C729.525 439.711 729.28 439.796 729.104 439.967C728.933 440.138 728.847 440.383 728.847 440.702V443.477C728.847 443.796 728.933 444.044 729.104 444.22C729.28 444.391 729.525 444.476 729.838 444.476C730.151 444.476 730.393 444.391 730.564 444.22C730.735 444.044 730.82 443.796 730.82 443.477H731.743C731.743 443.847 731.663 444.169 731.503 444.442C731.35 444.716 731.131 444.926 730.846 445.074C730.561 445.222 730.225 445.296 729.838 445.296ZM733.08 445.211V438.976H734.002V441.573H734.831L736.103 438.976H737.111L735.642 441.966L737.18 445.211H736.146L734.814 442.401H734.002V445.211H733.08ZM741.028 446.748L740.106 445.219L740.242 445.288C740.219 445.288 740.191 445.288 740.157 445.288C740.123 445.293 740.086 445.296 740.046 445.296C739.659 445.296 739.32 445.219 739.029 445.066C738.739 444.912 738.514 444.699 738.355 444.425C738.195 444.146 738.116 443.822 738.116 443.452V440.736C738.116 440.36 738.195 440.035 738.355 439.762C738.514 439.489 738.739 439.275 739.029 439.122C739.32 438.968 739.659 438.891 740.046 438.891C740.439 438.891 740.777 438.968 741.062 439.122C741.352 439.275 741.577 439.489 741.737 439.762C741.896 440.035 741.976 440.36 741.976 440.736V443.452C741.976 443.827 741.893 444.158 741.728 444.442C741.569 444.727 741.338 444.94 741.036 445.083L742.053 446.748H741.028ZM740.046 444.485C740.359 444.485 740.604 444.391 740.78 444.203C740.962 444.015 741.054 443.765 741.054 443.452V440.736C741.054 440.417 740.962 440.166 740.78 439.984C740.604 439.796 740.359 439.702 740.046 439.702C739.738 439.702 739.493 439.796 739.311 439.984C739.129 440.166 739.038 440.417 739.038 440.736V443.452C739.038 443.765 739.126 444.015 739.303 444.203C739.485 444.391 739.733 444.485 740.046 444.485ZM745.167 445.296C744.569 445.296 744.108 445.134 743.783 444.81C743.459 444.479 743.296 444.032 743.296 443.469V438.976H744.219V443.469C744.219 443.782 744.296 444.03 744.449 444.212C744.609 444.394 744.848 444.485 745.167 444.485C745.48 444.485 745.716 444.394 745.876 444.212C746.035 444.03 746.115 443.782 746.115 443.469V438.976H747.037V443.469C747.037 444.032 746.875 444.479 746.55 444.81C746.226 445.134 745.764 445.296 745.167 445.296ZM748.528 445.211V438.976H752.192V439.796H749.434V441.564H751.893V442.376H749.434V444.391H752.192V445.211H748.528ZM755.434 445.296C755.013 445.296 754.651 445.228 754.349 445.091C754.048 444.949 753.814 444.75 753.649 444.494C753.484 444.232 753.401 443.921 753.401 443.563H754.315C754.315 443.847 754.415 444.072 754.614 444.237C754.814 444.397 755.09 444.476 755.443 444.476C755.773 444.476 756.032 444.397 756.22 444.237C756.408 444.078 756.502 443.859 756.502 443.58C756.502 443.346 756.436 443.144 756.305 442.973C756.18 442.803 755.998 442.686 755.759 442.623L754.973 442.393C754.517 442.262 754.164 442.04 753.914 441.726C753.669 441.408 753.547 441.029 753.547 440.591C753.547 440.249 753.624 439.95 753.777 439.694C753.931 439.438 754.15 439.238 754.435 439.096C754.72 438.954 755.055 438.882 755.443 438.882C756.012 438.882 756.467 439.036 756.809 439.344C757.156 439.651 757.333 440.064 757.339 440.582H756.416C756.416 440.309 756.328 440.095 756.152 439.942C755.981 439.782 755.739 439.702 755.426 439.702C755.124 439.702 754.888 439.776 754.717 439.924C754.546 440.067 754.461 440.269 754.461 440.531C754.461 440.764 754.523 440.966 754.648 441.137C754.779 441.308 754.964 441.428 755.204 441.496L755.998 441.735C756.453 441.86 756.803 442.082 757.048 442.401C757.293 442.72 757.415 443.101 757.415 443.546C757.415 443.893 757.333 444.2 757.168 444.468C757.003 444.73 756.772 444.935 756.476 445.083C756.18 445.225 755.833 445.296 755.434 445.296ZM760.068 445.211V439.822H758.403V438.968H762.656V439.822H760.991V445.211H760.068Z" fill="white"/>
<g opacity="0.1">
<g clip-path="url(#clip2_104_49240)">
<path fill-rule="evenodd" clip-rule="evenodd" d="M780.409 557.797C780.414 557.84 780.418 557.882 780.423 557.93C782.02 572.202 782.562 586.906 782.034 602.357C781.692 612.503 780.889 622.973 779.625 633.857C773.703 684.975 758.438 736.654 743.672 786.622C737.356 807.999 730.83 830.108 725.284 851.409C710.295 900.551 683.248 991.481 674.446 1021.08L674.128 1022.14C672.516 1027.54 668.976 1032.2 664.109 1035.19C658.112 1038.87 648.63 1043.83 634.919 1048.75C619.143 1054.41 600.925 1058.92 580.763 1062.17C555.553 1066.22 527.586 1068.27 496.575 1068.27C465.564 1068.27 437.008 1066.22 411.708 1062.17C391.486 1058.94 373.299 1054.43 357.642 1048.77C343.96 1043.81 334.632 1038.84 328.771 1035.16C324.1 1032.22 320.694 1027.7 319.142 1022.47C310.809 994.447 283.113 901.349 267.878 851.409C262.333 830.108 255.809 807.999 249.495 786.622L249.416 786.356C234.689 736.455 219.468 684.885 213.541 633.857L257.805 628.714C263.222 675.356 277.263 723.285 292.231 774C292.231 774.005 292.232 774.005 292.233 774.009C298.425 794.968 305.061 817.443 310.767 839.281C324.786 885.262 348.932 966.326 359.303 1001.19C362.711 1002.87 367.167 1004.82 372.809 1006.87C385.313 1011.38 400.691 1015.28 418.733 1018.16L418.758 1018.17C441.296 1021.78 467.444 1023.71 496.575 1023.71C525.661 1023.71 551.219 1021.78 573.686 1018.17C591.698 1015.27 607.166 1011.37 619.861 1006.81C619.862 1006.81 619.863 1006.81 619.864 1006.81C619.866 1006.81 619.869 1006.81 619.871 1006.81C625.737 1004.7 630.386 1002.68 633.946 1000.93C644.358 965.936 668.415 885.152 682.397 839.281C688.105 817.443 694.739 794.963 700.932 774L700.937 773.995C715.917 723.309 729.956 675.361 735.359 628.729V628.714C738.225 604.044 738.358 582.615 736.125 562.782L735.83 560.173C733.249 539.371 728.088 520.618 720.123 502.591C712.932 488.552 703.394 472.104 691.066 459.595L690.771 459.305L690.267 458.778C689.849 458.345 689.426 457.903 688.998 457.461L688.732 457.181C688.343 456.772 687.943 456.358 687.554 455.95C687.135 455.513 686.703 455.066 686.266 454.605C676.176 444.111 661.015 428.337 650.65 408.057C641.531 391.449 639.526 374.76 638.578 365.066L638.573 365.017L638.569 364.968C638.439 363.61 638.292 362.181 638.138 360.744L638.133 360.693L638.127 360.642C638.098 360.361 638.067 360.069 638.035 359.765C637.465 354.369 636.523 345.461 636.944 335.981C637.125 331.238 637.328 326.378 637.526 321.667C637.625 319.286 637.724 316.944 637.816 314.674L637.817 314.654L637.818 314.634C639.153 282.678 640.458 251.153 639.97 220.372L639.964 220.019V219.749C639.868 200.772 637.565 185.875 633.631 173.387L631.571 166.85V166.821C627.364 154.782 620.882 142.919 612.597 132.456L612.587 132.443L612.576 132.431C603.094 120.437 591.232 110.215 578.537 102.926C556.966 91.3852 528.996 84.4969 497.147 84.4969H496.032C464.191 84.4969 436.22 91.3819 414.63 102.924C401.936 110.221 390.066 120.446 380.595 132.422C380.593 132.424 380.59 132.427 380.588 132.431C372.28 142.946 365.8 154.805 361.623 166.793V166.885L359.543 173.453C355.601 185.897 353.297 200.779 353.2 219.743V220.019L353.195 220.372C352.706 251.153 354.011 282.678 355.346 314.634L355.348 314.674C355.457 317.322 355.568 320.024 355.68 322.745C355.86 327.119 356.043 331.546 356.218 335.897C356.648 345.476 355.705 354.429 355.128 359.912C355.102 360.157 355.076 360.396 355.052 360.627L355.046 360.684C354.889 362.171 354.742 363.591 354.614 364.944L354.607 365.016L354.601 365.088C353.652 374.766 351.646 391.452 342.528 408.057C332.162 428.337 317.002 444.111 306.916 454.605C306.476 455.066 306.046 455.513 305.627 455.95L305.506 456.073L305.385 456.197C304.922 456.677 304.567 457.048 304.083 457.556C303.77 457.884 303.401 458.269 302.914 458.778L302.419 459.296L302.114 459.595C289.795 472.075 280.259 488.533 273.059 502.587C264.755 521.388 259.502 540.94 257.039 562.782C257.038 562.782 257.038 562.787 257.038 562.787C254.806 582.6 254.94 604.044 257.805 628.714L213.541 633.857C210.347 606.349 210.091 581.469 212.758 557.792C215.756 531.202 222.311 506.869 232.829 483.386C240.559 468.188 252.87 445.946 270.696 427.991L270.742 427.948C271.036 427.639 271.331 427.33 271.626 427.021C272.237 426.379 272.85 425.738 273.469 425.101C284.484 413.619 295.876 401.738 303.169 387.145C307.931 378.773 309.392 369.516 310.252 360.745C310.402 359.153 310.568 357.546 310.734 355.984C311.351 350.088 311.984 343.985 311.698 337.809C311.521 333.431 311.339 329.003 311.158 324.607C311.045 321.884 310.934 319.173 310.824 316.494L310.823 316.482C309.498 284.75 308.127 251.942 308.639 219.665V219.636C308.745 197.112 311.487 177.596 317.063 159.996V159.922C322.713 140.347 332.598 121.288 345.633 104.793C358.697 88.2694 375.092 74.1482 393.024 63.9478C422.136 48.2344 457.758 39.9355 496.032 39.9355H497.147C535.422 39.9355 571.043 48.2344 600.141 63.9478C618.088 74.1482 634.467 88.2694 647.532 104.793C660.583 121.273 670.449 140.347 676.133 159.922V159.996C681.679 177.596 684.422 197.098 684.526 219.636V219.665C685.039 251.942 683.666 284.749 682.34 316.481V316.494C682.245 318.861 682.145 321.252 682.041 323.656C681.846 328.366 681.646 333.125 681.466 337.839C681.18 343.945 681.817 349.994 682.43 355.841L682.445 355.998C682.611 357.546 682.777 359.153 682.929 360.73C683.785 369.516 685.249 378.773 690.011 387.145C697.301 401.738 708.693 413.619 719.709 425.101C720.612 426.047 721.534 427.002 722.437 427.948L722.485 427.991C740.307 445.96 752.621 468.188 760.348 483.386C764.725 493.148 768.418 503.066 771.45 513.232C775.694 527.461 778.655 542.18 780.409 557.659C780.414 557.707 780.418 557.749 780.423 557.792M780.409 557.792H780.423H780.409Z" fill="#898B8D"/>
<path d="M382.52 236L467.055 278.836C467.055 278.836 454.292 309.363 422.151 297.541C422.151 297.541 390.281 285.616 382.52 236Z" fill="#898B8D"/>
<path fill-rule="evenodd" clip-rule="evenodd" d="M376.205 227.311L473.329 276.525L471.573 280.725L467.055 278.836L382.52 236.001C382.846 238.082 383.214 240.097 383.62 242.047C392.899 286.596 422.151 297.541 422.151 297.541C420.435 302.128 420.432 302.127 420.429 302.125L420.421 302.123L420.406 302.117L420.365 302.101C420.334 302.089 420.296 302.074 420.249 302.056C420.157 302.019 420.035 301.969 419.884 301.906C419.584 301.779 419.17 301.596 418.658 301.352C417.633 300.863 416.21 300.125 414.503 299.085C411.089 297.006 406.528 293.716 401.736 288.792C392.107 278.898 381.723 262.59 377.682 236.757L376.205 227.311ZM464.731 283.148C459.764 291.107 446.533 306.509 422.151 297.541L420.435 302.128L420.448 302.132L420.46 302.137C438.398 308.735 451.456 303.5 459.835 296.346C463.912 292.865 466.815 289.004 468.694 286.044C469.638 284.556 470.338 283.271 470.811 282.34C471.047 281.874 471.228 281.494 471.354 281.219C471.417 281.081 471.467 280.97 471.503 280.887C471.521 280.846 471.537 280.811 471.548 280.784L471.563 280.749L471.568 280.735L471.571 280.73C471.572 280.727 471.573 280.725 467.055 278.836C467.055 278.836 466.611 279.897 465.682 281.547C465.407 282.033 465.091 282.571 464.731 283.148Z" fill="#898B8D"/>
<path d="M614.863 236L530.328 278.836C530.328 278.836 543.091 309.363 575.233 297.541C575.233 297.541 607.103 285.616 614.863 236Z" fill="#898B8D"/>
<path fill-rule="evenodd" clip-rule="evenodd" d="M621.18 227.311L619.702 236.757C615.661 262.59 605.278 278.898 595.648 288.792C590.856 293.716 586.295 297.006 582.881 299.085C581.174 300.125 579.752 300.863 578.726 301.352C578.214 301.596 577.8 301.779 577.5 301.906C577.349 301.969 577.227 302.019 577.135 302.056C577.089 302.074 577.05 302.089 577.019 302.101L576.978 302.117L576.963 302.123L576.956 302.125C576.953 302.127 576.949 302.128 575.233 297.541C575.233 297.541 604.486 286.596 613.764 242.047C614.17 240.097 614.538 238.082 614.864 236.001L530.329 278.836L525.811 280.725L524.056 276.525L621.18 227.311ZM532.653 283.148C537.621 291.107 550.851 306.509 575.233 297.541L576.949 302.128L576.937 302.132L576.924 302.137C558.986 308.735 545.928 303.5 537.549 296.346C533.472 292.865 530.569 289.004 528.691 286.044C527.746 284.556 527.046 283.271 526.573 282.34C526.337 281.874 526.156 281.494 526.03 281.219C525.967 281.081 525.918 280.97 525.881 280.887C525.863 280.846 525.848 280.811 525.836 280.784L525.821 280.749L525.816 280.735L525.813 280.73C525.812 280.727 525.811 280.725 530.329 278.836C530.329 278.836 530.773 279.897 531.702 281.546C531.977 282.033 532.294 282.571 532.653 283.148Z" fill="#898B8D"/>
<path d="M307.915 236C307.915 236 345.933 407.593 499.301 413.017C499.301 413.017 627.218 430.809 684.811 241.675C684.811 241.675 684.916 264.272 684.117 296.76C683.666 315.583 682.549 337.915 681.841 360.615C681.841 360.615 614.214 438.118 499.663 439.934C385.111 441.744 311.305 354.749 311.305 354.749C311.305 354.749 307.493 276.359 307.9 236.015L307.915 236Z" fill="#898B8D"/>
<path fill-rule="evenodd" clip-rule="evenodd" d="M323.848 232.451L323.856 232.487C323.866 232.534 323.886 232.621 323.916 232.746C323.975 232.997 324.073 233.403 324.211 233.954C324.488 235.056 324.927 236.737 325.547 238.914C326.788 243.272 328.747 249.6 331.568 257.252C337.226 272.603 346.257 293.027 359.731 313.502C386.637 354.389 430.254 394.242 499.879 396.705L500.718 396.735L501.474 396.84C501.486 396.841 501.504 396.843 501.526 396.846C501.634 396.859 501.858 396.883 502.191 396.912C502.856 396.971 503.955 397.051 505.44 397.099C508.412 397.195 512.911 397.165 518.567 396.6C529.881 395.471 545.727 392.212 563.278 383.614C597.836 366.684 641.525 327.794 669.195 236.921L701.132 241.599L684.811 241.676C679.717 258.411 674.071 273.527 668.006 287.178C605.583 427.801 499.302 413.018 499.302 413.018C399.195 409.477 348.232 335.141 324.909 283.937C312.813 257.38 308.151 237.047 307.924 236.039C307.922 236.03 307.92 236.021 307.919 236.015C307.917 236.006 307.915 236.001 307.915 236.001L307.9 236.015C307.757 250.211 308.136 269.117 308.688 287.661C309.704 321.819 311.306 354.749 311.306 354.749C295.002 355.542 295.002 355.541 295.002 355.54L294.991 355.308C294.984 355.155 294.973 354.93 294.959 354.635C294.931 354.046 294.89 353.178 294.838 352.061C294.734 349.826 294.586 346.593 294.41 342.588C294.057 334.579 293.592 323.478 293.139 311.108C292.237 286.472 291.371 256.446 291.578 235.851L291.647 229.081L317.498 203.793L323.847 232.448V232.448L323.848 232.451ZM681.841 360.616C681.841 360.616 614.215 438.119 499.663 439.934C385.112 441.745 311.306 354.749 311.306 354.749L295.002 355.542L295.272 361.08L298.859 365.308L311.306 354.749C298.859 365.308 298.863 365.314 298.868 365.319L298.905 365.362C298.924 365.385 298.949 365.414 298.978 365.448C299.036 365.515 299.112 365.603 299.206 365.711C299.394 365.928 299.655 366.225 299.987 366.597C300.651 367.34 301.602 368.386 302.831 369.687C305.287 372.29 308.862 375.927 313.491 380.247C322.738 388.876 336.266 400.301 353.567 411.664C388.091 434.34 438.369 457.229 499.922 456.254C560.922 455.29 609.349 434.16 642.388 413.419C658.915 403.043 671.69 392.708 680.387 384.904C684.74 380.997 688.091 377.711 690.391 375.353C691.541 374.174 692.434 373.225 693.062 372.545C693.375 372.205 693.623 371.932 693.803 371.731C693.893 371.63 693.965 371.547 694.022 371.483L694.065 371.433L694.131 371.358C694.136 371.353 694.141 371.347 681.841 360.616ZM684.117 296.76C683.866 307.199 683.414 318.716 682.939 330.777C682.554 340.465 682.159 350.504 681.841 360.616L694.141 371.347L697.976 366.953L698.157 361.125C698.461 351.368 698.855 341.39 699.235 331.677C699.72 319.421 700.186 307.586 700.438 297.152C700.837 280.804 701.013 266.942 701.084 257.158C701.122 252.265 701.136 248.389 701.136 245.73C701.141 244.401 701.136 243.375 701.136 242.678C701.136 242.33 701.136 242.064 701.136 241.883L701.132 241.621V241.606V241.602V241.6C701.132 241.6 701.132 241.599 684.811 241.676C684.811 241.676 684.902 261.523 684.26 290.759C684.213 292.718 684.17 294.72 684.117 296.76Z" fill="#898B8D"/>
</g>
<rect x="173" y="-58" width="653" height="653" rx="326.5" stroke="#898B8D" stroke-width="75.13"/>
</g>
<rect x="116.267" y="19.2161" width="768.103" height="27.369" rx="1.33444" fill="#101014"/>
<g clip-path="url(#clip3_104_49240)">
<g clip-path="url(#clip4_104_49240)">
<path d="M145.804 42.3548C145.711 41.5979 145.521 40.908 145.225 40.2433C144.98 39.7636 144.623 39.132 144.131 38.6346L144.125 38.6289L144.117 38.6203L144.072 38.574L144.028 38.5276C144.019 38.5183 144.01 38.509 144.001 38.4996C143.661 38.1455 143.228 37.6939 142.939 37.1243C142.712 36.7153 142.655 36.2904 142.626 35.989L142.626 35.9874C142.621 35.9395 142.616 35.8898 142.611 35.841L142.61 35.8394L142.608 35.8181C142.589 35.6375 142.564 35.3934 142.575 35.1389M145.804 42.3548L143.303 35.1696M145.804 42.3548L145.815 42.4439C145.895 43.1555 145.888 43.9126 145.789 44.7656L145.789 44.7658C145.604 46.3642 145.125 47.9932 144.638 49.639L144.638 49.639C144.434 50.3312 144.219 51.0604 144.035 51.7658C143.543 53.3783 142.663 56.3378 142.375 57.3034L142.365 57.3387C142.365 57.3387 142.365 57.3388 142.365 57.3388C142.363 57.3448 142.359 57.3498 142.354 57.3531C142.202 57.4467 141.937 57.5872 141.535 57.7316C141.069 57.8986 140.518 58.0363 139.894 58.1367C139.894 58.1367 139.894 58.1367 139.894 58.1367L140.01 58.856M145.804 42.3548L131.769 57.973C131.961 58.0935 132.266 58.2559 132.714 58.4179M142.575 35.1389C142.575 35.1379 142.575 35.1368 142.575 35.1357L143.303 35.1696M142.575 35.1389C142.575 35.1399 142.575 35.1409 142.575 35.1418L143.303 35.1696M142.575 35.1389C142.581 34.9845 142.588 34.8273 142.594 34.6734C142.597 34.5951 142.601 34.5177 142.604 34.4418L142.604 34.4412C142.647 33.3997 142.691 32.3478 142.675 31.3167L142.674 31.3051H142.674M143.303 35.1696C143.309 35.0154 143.315 34.8599 143.322 34.7059C143.325 34.6272 143.328 34.549 143.332 34.4716L143.332 34.4712C143.375 33.4335 143.42 32.3606 143.403 31.3051V31.3042C143.4 30.5671 143.31 29.9294 143.129 29.3539V29.3515M142.674 31.3051C142.674 31.3059 142.674 31.3068 142.674 31.3076L143.197 31.3051L143.403 31.3042H142.674V31.3051ZM142.674 31.3051C142.671 30.6267 142.589 30.0645 142.434 29.5728L142.4 29.4659V29.4593M142.4 29.4593C142.41 29.491 142.42 29.5227 142.429 29.5545L143.12 29.3539L143.129 29.3515M142.4 29.4593V29.3539V29.3515H143.129M142.4 29.4593C142.237 28.9447 141.97 28.4405 141.622 28.001L141.622 28.0006C141.253 27.5343 140.791 27.1362 140.29 26.8503M143.129 29.3515C142.943 28.7113 142.62 28.0876 142.193 27.5487L140.297 26.8541C140.295 26.8528 140.293 26.8515 140.29 26.8503M140.29 26.8503C139.462 26.4048 138.422 26.1563 137.276 26.1563H137.239C136.092 26.1563 135.053 26.4047 134.224 26.8503M140.29 26.8503L134.224 26.8503M134.224 26.8503C133.723 27.1364 133.261 27.5345 132.892 28.0006C132.544 28.4413 132.277 28.9452 132.115 29.4588V29.4665L132.081 29.5739C131.926 30.0651 131.843 30.6275 131.84 31.3059V31.3167L131.84 31.3167C131.823 32.3478 131.867 33.3997 131.911 34.4412L131.911 34.4418C131.914 34.5288 131.918 34.6172 131.921 34.7061C131.927 34.8495 131.933 34.9944 131.939 35.1371C131.951 35.3951 131.925 35.6413 131.906 35.8245L131.904 35.8389L131.904 35.8398C131.899 35.8897 131.894 35.9391 131.889 35.9873L131.889 35.9896C131.86 36.2905 131.803 36.7154 131.576 37.1243C131.287 37.6939 130.853 38.1455 130.514 38.4996C130.505 38.509 130.496 38.5183 130.487 38.5276L130.483 38.5317L130.483 38.5316C130.465 38.5498 130.45 38.5661 130.432 38.5851C130.421 38.5957 130.41 38.6072 130.398 38.6203L130.39 38.6288L130.384 38.6346C129.892 39.1313 129.535 39.7633 129.29 40.2432C128.982 40.9345 128.789 41.652 128.7 42.444L134.224 26.8503ZM140.01 58.856C139.186 58.9886 138.271 59.0556 137.257 59.0556C136.243 59.0556 135.309 58.9886 134.482 58.856C133.82 58.7505 133.226 58.603 132.714 58.4179M140.01 58.856C140.669 58.75 141.265 58.6025 141.781 58.4174L140.01 58.856ZM132.714 58.4179L132.962 57.7328C132.961 57.7327 132.961 57.7327 132.961 57.7327L132.714 58.4179ZM128.001 44.8497L128.725 44.7656C128.626 43.9126 128.62 43.1551 128.7 42.4441L128.001 44.8497Z" stroke="#00B2FF" stroke-width="1.45721"/>
<path d="M133.563 31.7674L133.424 31.6968L133.448 31.8512C133.578 32.6792 133.909 33.1975 134.213 33.5094C134.364 33.665 134.508 33.7685 134.615 33.8334C134.668 33.8659 134.712 33.8888 134.743 33.9037C134.759 33.9111 134.771 33.9166 134.78 33.9203L134.79 33.9246L134.793 33.9258L134.794 33.9261L134.795 33.9262L134.795 33.9263C134.795 33.9263 134.795 33.9263 134.823 33.8515L134.795 33.9263L134.795 33.9265C135.351 34.131 135.749 33.969 136.003 33.7514C136.129 33.6441 136.219 33.5247 136.277 33.4325C136.307 33.3863 136.328 33.3465 136.343 33.318C136.35 33.3038 136.356 33.2923 136.359 33.2842L136.364 33.2746L136.365 33.2719L136.365 33.271L136.365 33.2707L136.365 33.2706L136.292 33.2396L136.365 33.2705L136.394 33.2019L136.328 33.1682L133.563 31.7674Z" fill="#00B2FF" stroke="#00B2FF" stroke-width="0.160133"/>
<path d="M141.204 31.8512L141.228 31.6968L141.089 31.7674L138.324 33.1682L138.258 33.2019L138.287 33.2705L138.361 33.2396L138.287 33.2706L138.287 33.2707L138.287 33.271L138.287 33.2719L138.288 33.2746L138.293 33.2842C138.296 33.2923 138.302 33.3038 138.309 33.318C138.324 33.3465 138.345 33.3863 138.375 33.4325C138.433 33.5247 138.523 33.6441 138.649 33.7514C138.904 33.969 139.301 34.131 139.857 33.9265L139.857 33.9263L139.829 33.8513C139.857 33.9263 139.857 33.9263 139.857 33.9263L139.857 33.9262L139.858 33.9261L139.859 33.9258L139.862 33.9246L139.872 33.9203C139.881 33.9166 139.893 33.9111 139.909 33.9037C139.94 33.8888 139.984 33.8659 140.037 33.8334C140.144 33.7685 140.288 33.665 140.439 33.5094C140.743 33.1975 141.075 32.6792 141.204 31.8512Z" fill="#00B2FF" stroke="#00B2FF" stroke-width="0.160133"/>
<path d="M131.198 35.7221C130.995 35.8948 130.995 35.8948 130.995 35.8949L130.995 35.8952L130.996 35.8959L130.998 35.8981L131.004 35.9054L131.027 35.9318C131.047 35.9544 131.077 35.9867 131.115 36.0274C131.192 36.1088 131.305 36.2237 131.452 36.3608C131.745 36.6348 132.176 36.9985 132.727 37.3602C133.827 38.0829 135.419 38.8054 137.362 38.7746C139.296 38.744 140.832 38.0743 141.883 37.4147C142.409 37.0847 142.814 36.7564 143.09 36.5095C143.227 36.386 143.332 36.2827 143.404 36.2094C143.44 36.1728 143.467 36.1437 143.486 36.1232L143.508 36.0993L143.514 36.0926L143.515 36.0905L143.516 36.0899L143.516 36.0896C143.516 36.0895 143.516 36.0894 143.315 35.9139C143.326 35.5833 143.339 35.255 143.351 34.9382C143.367 34.5438 143.382 34.1671 143.39 33.8258L143.657 33.8324C143.657 33.8323 143.657 33.8323 143.657 33.8322C143.67 33.2993 143.675 32.8475 143.678 32.5287C143.679 32.3693 143.679 32.2432 143.679 32.1568L143.679 32.0578L143.679 32.0321L143.679 32.0255L143.679 32.0238L143.679 32.0234L143.679 32.0233V32.0232L143.412 32.0244L143.679 32.0232L143.157 31.9467C142.234 34.9788 140.761 36.315 139.556 36.9057C138.948 37.2032 138.398 37.3167 138.003 37.3563C137.805 37.376 137.646 37.3772 137.538 37.3737C137.484 37.372 137.443 37.3691 137.417 37.3667C137.404 37.3656 137.394 37.3645 137.388 37.3639L137.383 37.3632L137.382 37.3632L137.382 37.3631L137.382 37.3631L137.382 37.3631L137.369 37.3613L137.355 37.3608C134.963 37.2762 133.468 35.901 132.559 34.52C132.104 33.8289 131.8 33.1415 131.61 32.6261C131.516 32.3688 131.45 32.1554 131.407 32.0072C131.386 31.9332 131.371 31.8755 131.361 31.8369C131.357 31.8176 131.353 31.8031 131.351 31.7937L131.349 31.7835L131.348 31.7813L131.348 31.7811L131.348 31.781L131.348 31.781L131.244 31.3122L130.901 31.6481L130.9 31.6486L130.821 31.726L130.82 31.8367C130.813 32.5032 130.841 33.4795 130.871 34.2852C130.886 34.6889 130.901 35.0513 130.912 35.3127C130.918 35.4434 130.923 35.5489 130.926 35.6218L130.93 35.7057L130.931 35.7275L130.932 35.7331L130.932 35.7346L130.932 35.7349L130.932 35.735L131.198 35.7221ZM131.198 35.7221L130.995 35.8948L130.936 35.8256L130.932 35.7351L131.198 35.7221Z" fill="#00B2FF" stroke="#00B2FF" stroke-width="0.533776"/>
</g>
</g>
<rect x="127.476" y="23.0253" width="19.7497" height="19.7497" rx="9.87485" stroke="#00B2FF" stroke-width="1.60133"/>
<path d="M160.839 35.4004V29.9656H162.878C163.295 29.9656 163.645 30.0381 163.928 30.1832C164.213 30.3283 164.428 30.5317 164.573 30.7935C164.72 31.0536 164.793 31.357 164.793 31.7038C164.793 32.0523 164.719 32.3548 164.571 32.6113C164.424 32.8661 164.207 33.0634 163.92 33.2031C163.634 33.3411 163.282 33.4101 162.864 33.4101H161.413V32.5928H162.732C162.976 32.5928 163.176 32.5591 163.331 32.4919C163.487 32.4229 163.602 32.323 163.676 32.1921C163.752 32.0594 163.79 31.8966 163.79 31.7038C163.79 31.5109 163.752 31.3464 163.676 31.2102C163.6 31.0722 163.484 30.9678 163.329 30.897C163.173 30.8245 162.972 30.7882 162.726 30.7882H161.824V35.4004H160.839ZM163.647 32.9377L164.993 35.4004H163.894L162.572 32.9377H163.647ZM169.126 29.9656H170.11V33.5163C170.11 33.9055 170.018 34.2478 169.834 34.5432C169.652 34.8387 169.395 35.0696 169.065 35.2359C168.734 35.4004 168.347 35.4827 167.905 35.4827C167.461 35.4827 167.073 35.4004 166.743 35.2359C166.412 35.0696 166.155 34.8387 165.973 34.5432C165.791 34.2478 165.7 33.9055 165.7 33.5163V29.9656H166.684V33.434C166.684 33.6604 166.734 33.8621 166.833 34.039C166.934 34.2159 167.075 34.3548 167.257 34.4557C167.44 34.5547 167.656 34.6043 167.905 34.6043C168.154 34.6043 168.37 34.5547 168.552 34.4557C168.736 34.3548 168.878 34.2159 168.977 34.039C169.076 33.8621 169.126 33.6604 169.126 33.434V29.9656Z" fill="#00B2FF"/>
<path d="M175.042 35.4004V29.9656H178.577V30.7909H176.027V32.2664H178.394V33.0917H176.027V34.5751H178.598V35.4004H175.042ZM184.047 29.9656V35.4004H183.172L180.611 31.6985H180.566V35.4004H179.581V29.9656H180.462L183.02 33.6702H183.068V29.9656H184.047Z" fill="white"/>
<rect x="197.783" y="24.8936" width="80.0663" height="16.0133" rx="1.60133" fill="#101014"/>
<mask id="mask0_104_49240" style="mask-type:alpha" maskUnits="userSpaceOnUse" x="200" y="26" width="14" height="14">
<rect x="200.452" y="26.4951" width="12.8106" height="12.8106" fill="#D9D9D9"/>
</mask>
<g mask="url(#mask0_104_49240)">
<path d="M211.021 37.691L207.564 34.235C207.297 34.4572 206.986 34.6329 206.63 34.7618C206.274 34.891 205.901 34.9556 205.509 34.9556C204.54 34.9556 203.721 34.622 203.054 33.9548C202.387 33.2875 202.053 32.4779 202.053 31.5259C202.053 30.574 202.387 29.7623 203.054 29.0906C203.721 28.4189 204.535 28.083 205.496 28.083C206.448 28.083 207.257 28.4189 207.925 29.0906C208.592 29.7623 208.925 30.574 208.925 31.5259C208.925 31.9085 208.863 32.2755 208.739 32.6269C208.614 32.9784 208.432 33.3053 208.192 33.6076L211.661 37.0504L211.021 37.691ZM205.496 34.0614C206.199 34.0614 206.797 33.8145 207.291 33.3206C207.785 32.827 208.031 32.2287 208.031 31.5259C208.031 30.8232 207.785 30.2227 207.291 29.7244C206.797 29.2262 206.199 28.9772 205.496 28.9772C204.784 28.9772 204.182 29.2262 203.688 29.7244C203.194 30.2227 202.947 30.8232 202.947 31.5259C202.947 32.2287 203.194 32.827 203.688 33.3206C204.182 33.8145 204.784 34.0614 205.496 34.0614Z" fill="white"/>
</g>
<rect x="198.05" y="25.1604" width="79.5326" height="15.4795" rx="1.33444" stroke="#DADADA" stroke-opacity="0.45" stroke-width="0.533776"/>
<path d="M474.511 35.9004H470.602V35.0186L473.3 31.5587H470.737V30.6843H474.436V31.5661L471.731 35.0261H474.511V35.9004ZM475.405 35.9004V30.6843H478.842V31.5587H476.391V32.8216H478.558V33.6959H476.391V35.0261H478.842V35.9004H475.405ZM480.872 35.9004H479.885V30.6843H482.239C482.479 30.6843 482.693 30.7217 482.882 30.7964C483.071 30.8712 483.231 30.9808 483.36 31.1252C483.495 31.2647 483.597 31.4341 483.667 31.6334C483.741 31.8327 483.779 32.0544 483.779 32.2985C483.779 32.6572 483.697 32.966 483.532 33.2251C483.373 33.4842 483.131 33.6685 482.807 33.7781L483.876 35.9004H482.777L481.806 33.8902H480.872V35.9004ZM482.142 33.0607C482.332 33.0607 482.481 33.0109 482.591 32.9112C482.7 32.8066 482.755 32.6597 482.755 32.4703V32.1266C482.755 31.9373 482.7 31.7928 482.591 31.6932C482.481 31.5935 482.332 31.5437 482.142 31.5437H480.872V33.0607H482.142ZM486.823 35.9901C486.479 35.9901 486.167 35.9328 485.888 35.8182C485.609 35.7036 485.37 35.5317 485.171 35.3026C484.977 35.0734 484.825 34.7919 484.715 34.4581C484.606 34.1243 484.551 33.7358 484.551 33.2924C484.551 32.854 484.606 32.4679 484.715 32.1341C484.825 31.7953 484.977 31.5113 485.171 31.2822C485.37 31.053 485.609 30.8811 485.888 30.7665C486.167 30.652 486.479 30.5947 486.823 30.5947C487.166 30.5947 487.478 30.652 487.757 30.7665C488.036 30.8811 488.275 31.053 488.474 31.2822C488.673 31.5113 488.825 31.7953 488.93 32.1341C489.039 32.4679 489.094 32.854 489.094 33.2924C489.094 33.7358 489.039 34.1243 488.93 34.4581C488.825 34.7919 488.673 35.0734 488.474 35.3026C488.275 35.5317 488.036 35.7036 487.757 35.8182C487.478 35.9328 487.166 35.9901 486.823 35.9901ZM486.823 35.1157C487.196 35.1157 487.493 34.9912 487.712 34.7421C487.936 34.493 488.048 34.1443 488.048 33.6959V32.8888C488.048 32.4405 487.936 32.0917 487.712 31.8426C487.493 31.5935 487.196 31.469 486.823 31.469C486.449 31.469 486.15 31.5935 485.926 31.8426C485.707 32.0917 485.597 32.4405 485.597 32.8888V33.6959C485.597 34.1443 485.707 34.493 485.926 34.7421C486.15 34.9912 486.449 35.1157 486.823 35.1157ZM491.59 33.2251L491.052 32.1415H491.029V35.9004H490.095V30.6843H491.179L492.748 33.3596L493.286 34.4432H493.308V30.6843H494.242V35.9004H493.159L491.59 33.2251ZM495.249 35.9004V35.1083H495.937V31.4765H495.249V30.6843H497.618V31.4765H496.923V35.1083H497.618V35.9004H495.249ZM501.951 35.0933H501.922C501.877 35.3474 501.735 35.5616 501.496 35.736C501.261 35.9054 500.948 35.9901 500.554 35.9901C500.245 35.9901 499.959 35.9328 499.695 35.8182C499.436 35.7036 499.209 35.5342 499.015 35.31C498.825 35.0809 498.676 34.7994 498.566 34.4656C498.457 34.1318 498.402 33.7457 498.402 33.3073C498.402 32.8689 498.457 32.4828 498.566 32.149C498.681 31.8102 498.84 31.5263 499.044 31.2971C499.249 31.0679 499.493 30.8936 499.777 30.774C500.061 30.6544 500.377 30.5947 500.726 30.5947C501.194 30.5947 501.593 30.6968 501.922 30.901C502.25 31.1053 502.509 31.3992 502.699 31.7828L501.899 32.2536C501.804 32.0294 501.662 31.8426 501.473 31.6932C501.289 31.5437 501.04 31.469 500.726 31.469C500.337 31.469 500.026 31.5886 499.792 31.8277C499.563 32.0618 499.448 32.4106 499.448 32.8739V33.7108C499.448 34.1692 499.565 34.5179 499.799 34.757C500.033 34.9962 500.347 35.1157 500.741 35.1157C500.895 35.1157 501.04 35.0983 501.174 35.0634C501.309 35.0236 501.426 34.9663 501.525 34.8916C501.625 34.8168 501.705 34.7247 501.765 34.6151C501.824 34.5055 501.854 34.3759 501.854 34.2265V33.8902H500.831V33.0607H502.803V35.9004H501.951V35.0933ZM507.107 33.6959H504.932V35.9004H503.946V30.6843H504.932V32.8216H507.107V30.6843H508.093V35.9004H507.107V33.6959ZM511.365 31.5587V35.9004H510.378V31.5587H508.899V30.6843H512.844V31.5587H511.365ZM515.186 35.9901C514.738 35.9901 514.357 35.9104 514.043 35.7509C513.734 35.5915 513.467 35.3823 513.243 35.1232L513.908 34.4805C514.088 34.6898 514.287 34.8492 514.506 34.9588C514.73 35.0684 514.977 35.1232 515.246 35.1232C515.55 35.1232 515.779 35.0584 515.933 34.9289C516.088 34.7944 516.165 34.6151 516.165 34.3909C516.165 34.2165 516.115 34.0745 516.016 33.9649C515.916 33.8553 515.729 33.7756 515.455 33.7258L514.962 33.6511C513.921 33.4867 513.4 32.981 513.4 32.1341C513.4 31.8999 513.442 31.6882 513.527 31.4989C513.617 31.3096 513.744 31.1477 513.908 31.0131C514.073 30.8786 514.269 30.7765 514.499 30.7068C514.733 30.632 514.997 30.5947 515.291 30.5947C515.684 30.5947 516.028 30.6594 516.322 30.789C516.616 30.9185 516.867 31.1103 517.077 31.3644L516.404 31.9996C516.275 31.8401 516.118 31.7106 515.933 31.611C515.749 31.5113 515.517 31.4615 515.238 31.4615C514.954 31.4615 514.74 31.5163 514.596 31.6259C514.456 31.7305 514.386 31.88 514.386 32.0743C514.386 32.2736 514.444 32.4205 514.558 32.5152C514.673 32.6098 514.857 32.6796 515.111 32.7244L515.597 32.8141C516.125 32.9088 516.514 33.0781 516.763 33.3223C517.017 33.5614 517.144 33.8977 517.144 34.3311C517.144 34.5802 517.099 34.8069 517.009 35.0111C516.925 35.2104 516.798 35.3848 516.628 35.5342C516.464 35.6787 516.26 35.7908 516.016 35.8705C515.776 35.9502 515.5 35.9901 515.186 35.9901ZM518.633 35.9826C518.429 35.9826 518.277 35.9328 518.178 35.8331C518.083 35.7285 518.036 35.5965 518.036 35.4371V35.3026C518.036 35.1431 518.083 35.0111 518.178 34.9065C518.277 34.8019 518.429 34.7496 518.633 34.7496C518.843 34.7496 518.995 34.8019 519.089 34.9065C519.184 35.0111 519.231 35.1431 519.231 35.3026V35.4371C519.231 35.5965 519.184 35.7285 519.089 35.8331C518.995 35.9328 518.843 35.9826 518.633 35.9826ZM521.345 35.9004H520.359V30.6843H522.713C522.952 30.6843 523.166 30.7217 523.355 30.7964C523.545 30.8712 523.704 30.9808 523.833 31.1252C523.968 31.2647 524.07 31.4341 524.14 31.6334C524.215 31.8327 524.252 32.0544 524.252 32.2985C524.252 32.6572 524.17 32.966 524.005 33.2251C523.846 33.4842 523.604 33.6685 523.28 33.7781L524.349 35.9004H523.251L522.279 33.8902H521.345V35.9004ZM522.615 33.0607C522.805 33.0607 522.954 33.0109 523.064 32.9112C523.173 32.8066 523.228 32.6597 523.228 32.4703V32.1266C523.228 31.9373 523.173 31.7928 523.064 31.6932C522.954 31.5935 522.805 31.5437 522.615 31.5437H521.345V33.0607H522.615ZM526.16 30.6843V33.8902C526.16 34.2987 526.238 34.6051 526.392 34.8094C526.551 35.0136 526.818 35.1157 527.192 35.1157C527.565 35.1157 527.829 35.0136 527.984 34.8094C528.143 34.6051 528.223 34.2987 528.223 33.8902V30.6843H529.194V33.7632C529.194 34.1468 529.157 34.4781 529.082 34.757C529.012 35.036 528.898 35.2677 528.738 35.452C528.579 35.6363 528.37 35.7734 528.111 35.863C527.857 35.9477 527.548 35.9901 527.184 35.9901C526.815 35.9901 526.504 35.9477 526.25 35.863C526.001 35.7734 525.797 35.6363 525.637 35.452C525.478 35.2677 525.363 35.036 525.293 34.757C525.224 34.4781 525.189 34.1468 525.189 33.7632V30.6843H526.16Z" fill="#00B2FF"/>
<g clip-path="url(#clip5_104_49240)">
<path d="M760.88 32.9017C760.88 30.0546 758.572 27.7471 755.725 27.7471C752.878 27.7471 750.57 30.0546 750.57 32.9017C750.57 35.7489 752.878 38.0564 755.725 38.0564C755.755 38.0564 755.786 38.0564 755.816 38.0544V34.0434H754.708V32.7527H755.816V31.8023C755.816 30.7009 756.488 30.1009 757.471 30.1009C757.942 30.1009 758.347 30.1351 758.464 30.1512V31.303H757.787C757.253 31.303 757.149 31.5567 757.149 31.9292V32.7507H758.427L758.26 34.0414H757.149V37.857C759.303 37.2389 760.88 35.2555 760.88 32.9017V32.9017Z" fill="#F5F5F5"/>
<path d="M782.583 29.3558C782.184 29.5423 781.759 29.666 781.317 29.726C781.772 29.4358 782.12 28.9799 782.283 28.4302C781.859 28.7004 781.39 28.8912 780.89 28.9977C780.486 28.5396 779.912 28.2559 779.284 28.2559C778.068 28.2559 777.088 29.3093 777.088 30.6008C777.088 30.7866 777.103 30.9653 777.139 31.1354C775.312 31.0403 773.695 30.1062 772.609 28.6833C772.419 29.0342 772.308 29.4358 772.308 29.8682C772.308 30.6801 772.7 31.3998 773.284 31.8165C772.931 31.8093 772.585 31.7 772.291 31.5278C772.291 31.5349 772.291 31.5442 772.291 31.5535C772.291 32.6927 773.053 33.639 774.052 33.857C773.873 33.9091 773.678 33.9342 773.476 33.9342C773.335 33.9342 773.193 33.9256 773.06 33.8941C773.345 34.8225 774.153 35.5051 775.113 35.5272C774.366 36.1512 773.416 36.5271 772.388 36.5271C772.208 36.5271 772.035 36.5185 771.862 36.4949C772.836 37.1646 773.99 37.547 775.234 37.547C779.278 37.547 781.489 33.9735 781.489 30.876C781.489 30.7723 781.486 30.6723 781.481 30.5729C781.918 30.2427 782.284 29.8303 782.583 29.3558Z" fill="#F5F5F5"/>
<path d="M804.13 29.6203C803.809 29.0498 803.461 28.9448 802.752 28.9049C802.044 28.8569 800.264 28.8369 798.722 28.8369C797.176 28.8369 795.395 28.8569 794.688 28.9042C793.981 28.9448 793.632 29.049 793.308 29.6203C792.978 30.1901 792.808 31.1716 792.808 32.8996C792.808 32.901 792.808 32.9018 792.808 32.9018C792.808 32.9032 792.808 32.904 792.808 32.904V32.9055C792.808 34.626 792.978 35.6149 793.308 36.1788C793.632 36.7493 793.98 36.8528 794.687 36.9009C795.395 36.9422 797.176 36.9666 798.722 36.9666C800.264 36.9666 802.044 36.9422 802.753 36.9016C803.462 36.8536 803.81 36.7501 804.131 36.1795C804.464 35.6156 804.633 34.6267 804.633 32.9062C804.633 32.9062 804.633 32.904 804.633 32.9025C804.633 32.9025 804.633 32.901 804.633 32.9003C804.633 31.1716 804.464 30.1901 804.13 29.6203ZM797.242 35.119V30.6846L800.937 32.9018L797.242 35.119Z" fill="#F5F5F5"/>
<path d="M818.947 34.3793L818.752 36.9733C819.031 36.9733 819.152 36.86 819.298 36.7239L820.607 35.5416L823.322 37.4189C823.819 37.6809 824.17 37.5429 824.304 36.9864L826.086 29.102L826.086 29.1015C826.244 28.4066 825.82 28.1348 825.335 28.3053L814.863 32.0918C814.149 32.3539 814.159 32.7301 814.742 32.9006L817.419 33.6871L823.638 30.0121C823.931 29.829 824.197 29.9303 823.978 30.1133L818.947 34.3793Z" fill="#F5F5F5"/>
<path d="M841.715 31.3318C841.405 31.3318 841.101 31.4239 840.843 31.5963C840.585 31.7688 840.384 32.0139 840.265 32.3007C840.146 32.5876 840.115 32.9032 840.176 33.2076C840.236 33.5121 840.386 33.7918 840.605 34.0113C840.825 34.2308 841.104 34.3803 841.409 34.4409C841.713 34.5014 842.029 34.4703 842.316 34.3515C842.603 34.2327 842.848 34.0316 843.02 33.7734C843.193 33.5153 843.285 33.2118 843.285 32.9014C843.284 32.4852 843.119 32.0862 842.825 31.7919C842.53 31.4976 842.131 31.3321 841.715 31.3318Z" fill="#F5F5F5"/>
<path fill-rule="evenodd" clip-rule="evenodd" d="M839.178 28.2559C838.013 28.2559 837.07 29.1997 837.07 30.3639L837.07 35.4389C837.07 36.6031 838.013 37.547 839.178 37.547H844.253C845.417 37.547 846.361 36.6031 846.361 35.4389V30.3639C846.361 29.1997 845.417 28.2559 844.253 28.2559H839.178ZM841.715 35.0641C841.287 35.0641 840.869 34.9372 840.514 34.6996C840.158 34.462 839.881 34.1242 839.717 33.729C839.553 33.3338 839.511 32.899 839.594 32.4795C839.677 32.06 839.883 31.6746 840.186 31.3722C840.488 31.0697 840.874 30.8638 841.293 30.7803C841.713 30.6969 842.148 30.7397 842.543 30.9034C842.938 31.0671 843.276 31.3443 843.513 31.6999C843.751 32.0556 843.878 32.4737 843.878 32.9014C843.877 33.4747 843.649 34.0244 843.243 34.4298C842.838 34.8352 842.288 35.0633 841.715 35.0641ZM844.217 31.0083C844.461 31.0083 844.659 30.8101 844.659 30.5655C844.659 30.3209 844.461 30.1226 844.217 30.1226C843.972 30.1226 843.774 30.3209 843.774 30.5655C843.774 30.8101 843.972 31.0083 844.217 31.0083Z" fill="#F5F5F5"/>
<path d="M868.603 35.004C868.253 34.576 867.841 34.2108 867.452 33.823C867.1 33.4734 867.078 33.2706 867.36 32.8671C867.669 32.4267 868.001 32.0033 868.312 31.5649C868.602 31.1552 868.899 30.7466 869.052 30.2561C869.149 29.944 869.063 29.8062 868.75 29.7515C868.695 29.742 868.64 29.7415 868.584 29.7415L866.722 29.7392C866.493 29.7358 866.366 29.8377 866.285 30.045C866.175 30.3251 866.062 30.6051 865.932 30.8754C865.636 31.4884 865.305 32.0809 864.842 32.5826C864.739 32.6932 864.626 32.8331 864.456 32.7755C864.242 32.696 864.179 32.3371 864.182 32.2157L864.181 30.0242C864.139 29.7112 864.071 29.5716 863.766 29.5107L861.831 29.5111C861.573 29.5111 861.444 29.6128 861.306 29.7775C861.226 29.8726 861.202 29.9343 861.366 29.9659C861.687 30.028 861.868 30.2398 861.916 30.5681C861.993 31.0925 861.987 31.619 861.943 32.1456C861.93 32.2993 861.904 32.4527 861.844 32.5963C861.751 32.8219 861.6 32.8678 861.401 32.729C861.222 32.6033 861.095 32.426 860.972 32.2479C860.508 31.5795 860.138 30.8588 859.836 30.1014C859.748 29.8826 859.598 29.7499 859.371 29.7463C858.812 29.7373 858.253 29.7358 857.694 29.7468C857.358 29.7533 857.258 29.9197 857.395 30.2304C858.003 31.6105 858.681 32.9522 859.565 34.1744C860.019 34.8017 860.54 35.3554 861.214 35.7478C861.977 36.1927 862.798 36.3265 863.664 36.2853C864.069 36.2659 864.19 36.1585 864.209 35.7468C864.222 35.4652 864.253 35.1851 864.39 34.9321C864.523 34.6837 864.726 34.6364 864.959 34.7909C865.076 34.8682 865.175 34.9667 865.268 35.0705C865.496 35.3249 865.716 35.5869 865.952 35.8326C866.249 36.1406 866.601 36.3226 867.043 36.2854L868.755 36.2858C869.031 36.2674 869.174 35.9227 869.015 35.6089C868.904 35.3891 868.758 35.1933 868.603 35.004Z" fill="#F5F5F5"/>
</g>
<rect x="116.267" y="19.2161" width="768.103" height="27.369" rx="1.33444" stroke="#333333" stroke-width="0.533776"/>
</g>
<defs>
<clipPath id="clip0_104_49240">
<rect width="1000" height="538" rx="8" fill="white"/>
</clipPath>
<clipPath id="clip1_104_49240">
<rect width="54.9789" height="28.0914" fill="white" transform="translate(881.403 353.893)"/>
</clipPath>
<clipPath id="clip2_104_49240">
<rect x="173" y="-58" width="653" height="653" rx="326.5" fill="white"/>
</clipPath>
<clipPath id="clip3_104_49240">
<rect x="126.676" y="22.2246" width="21.351" height="21.351" rx="10.6755" fill="white"/>
</clipPath>
<clipPath id="clip4_104_49240">
<rect width="18.6821" height="33.6279" fill="white" transform="translate(127.916 25.4277)"/>
</clipPath>
<clipPath id="clip5_104_49240">
<rect width="181.484" height="21.4975" fill="white" transform="translate(692.478 22.1523)"/>
</clipPath>
</defs>
</svg>
