<svg width="310" height="310" viewBox="0 0 310 310" fill="none" xmlns="http://www.w3.org/2000/svg">
<rect width="310" height="310" rx="8" fill="#101014"/>
<g opacity="0.1">
<rect x="102" y="109.85" width="61.8559" height="38.8739" rx="1.60133" fill="#C40000"/>
<rect x="104.841" y="107" width="56.1747" height="46.5297" rx="1.60133" fill="white"/>
<rect x="102" y="117.188" width="61.8559" height="44.2888" rx="1.60133" fill="#FF0000"/>
<rect x="102" y="112.852" width="32.1893" height="44.2888" rx="1.60133" fill="#FF0000"/>
<path d="M105.8 172.962L105.826 171.168H105.758L104.562 174.234L103.366 171.168H103.298L103.324 172.962V175.814H102.478V169.853H103.648L104.562 172.219H104.622L105.544 169.853H106.646V175.814H105.8V172.962ZM111.067 175.814L110.614 174.226H108.718L108.265 175.814H107.292L109.034 169.853H110.341L112.083 175.814H111.067ZM109.7 170.818H109.632L108.897 173.432H110.435L109.7 170.818ZM115.282 170.656V175.814H114.326V170.656H112.455V169.853H117.153V170.656H115.282ZM118.097 175.814V169.853H121.829V170.656H119.054V172.39H121.727V173.193H119.054V175.012H121.829V175.814H118.097ZM124.149 175.814H123.201V169.853H125.43C125.999 169.853 126.432 170.013 126.728 170.332C127.03 170.65 127.181 171.089 127.181 171.647C127.181 172.102 127.07 172.478 126.848 172.774C126.626 173.07 126.307 173.252 125.891 173.321L127.266 175.814H126.207L124.943 173.406H124.149V175.814ZM125.293 172.637C125.886 172.637 126.182 172.367 126.182 171.826V171.459C126.182 170.918 125.886 170.648 125.293 170.648H124.149V172.637H125.293ZM128.288 175.814V175.089H129.688V170.579H128.288V169.853H132.046V170.579H130.645V175.089H132.046V175.814H128.288ZM136.671 175.814L136.218 174.226H134.323L133.87 175.814H132.896L134.639 169.853H135.945L137.687 175.814H136.671ZM135.305 170.818H135.236L134.502 173.432H136.039L135.305 170.818ZM138.769 175.814V169.853H139.725V175.012H142.441V175.814H138.769ZM145.478 175.917C144.96 175.917 144.524 175.826 144.171 175.644C143.818 175.461 143.528 175.219 143.3 174.918L143.915 174.328C144.143 174.602 144.385 174.804 144.641 174.935C144.897 175.06 145.188 175.123 145.512 175.123C145.888 175.123 146.176 175.037 146.375 174.866C146.58 174.696 146.682 174.451 146.682 174.132C146.682 173.876 146.608 173.679 146.46 173.543C146.312 173.4 146.059 173.298 145.7 173.235L145.051 173.133C144.766 173.087 144.527 173.013 144.334 172.911C144.14 172.803 143.984 172.677 143.864 172.535C143.744 172.387 143.656 172.225 143.599 172.048C143.548 171.866 143.522 171.675 143.522 171.476C143.522 170.912 143.705 170.485 144.069 170.195C144.433 169.899 144.934 169.751 145.572 169.751C146.045 169.751 146.446 169.828 146.776 169.981C147.112 170.129 147.383 170.34 147.588 170.613L146.99 171.211C146.825 171.012 146.628 170.852 146.401 170.733C146.178 170.608 145.902 170.545 145.572 170.545C145.219 170.545 144.949 170.622 144.761 170.776C144.579 170.924 144.487 171.143 144.487 171.433C144.487 171.678 144.559 171.872 144.701 172.014C144.849 172.151 145.108 172.25 145.478 172.313L146.11 172.424C146.645 172.521 147.035 172.717 147.28 173.013C147.525 173.304 147.647 173.659 147.647 174.081C147.647 174.354 147.599 174.605 147.502 174.832C147.411 175.06 147.272 175.254 147.084 175.413C146.902 175.572 146.674 175.698 146.401 175.789C146.133 175.874 145.825 175.917 145.478 175.917Z" fill="white"/>
</g>
<g opacity="0.1">
<rect x="128.682" y="134.035" width="48.2047" height="30.2946" rx="1.24792" fill="#C40000"/>
<rect x="130.895" y="131.814" width="43.7772" height="36.2609" rx="1.24792" fill="white"/>
<rect x="128.682" y="139.754" width="48.2047" height="34.5145" rx="1.24792" fill="#FF0000"/>
<rect x="128.682" y="136.375" width="25.0853" height="34.5145" rx="1.24792" fill="#FF0000"/>
<path d="M131.643 183.205L131.663 181.807H131.61L130.678 184.196L129.746 181.807H129.693L129.713 183.205V185.428H129.054V180.782H129.966L130.678 182.626H130.725L131.444 180.782H132.302V185.428H131.643V183.205ZM135.747 185.428L135.394 184.19H133.917L133.564 185.428H132.805L134.163 180.782H135.181L136.539 185.428H135.747ZM134.682 181.534H134.629L134.057 183.571H135.255L134.682 181.534ZM139.032 181.408V185.428H138.287V181.408H136.829V180.782H140.49V181.408H139.032ZM141.226 185.428V180.782H144.135V181.408H141.972V182.759H144.055V183.384H141.972V184.802H144.135V185.428H141.226ZM145.942 185.428H145.204V180.782H146.941C147.384 180.782 147.722 180.906 147.952 181.155C148.188 181.403 148.305 181.745 148.305 182.18C148.305 182.535 148.219 182.828 148.046 183.058C147.873 183.289 147.624 183.431 147.3 183.484L148.372 185.428H147.546L146.561 183.551H145.942V185.428ZM146.834 182.952C147.296 182.952 147.526 182.741 147.526 182.32V182.033C147.526 181.612 147.296 181.401 146.834 181.401H145.942V182.952H146.834ZM149.168 185.428V184.862H150.259V181.348H149.168V180.782H152.096V181.348H151.005V184.862H152.096V185.428H149.168ZM155.701 185.428L155.348 184.19H153.871L153.518 185.428H152.759L154.117 180.782H155.135L156.493 185.428H155.701ZM154.636 181.534H154.583L154.01 183.571H155.208L154.636 181.534ZM157.336 185.428V180.782H158.081V184.802H160.198V185.428H157.336ZM162.564 185.508C162.161 185.508 161.821 185.437 161.546 185.295C161.271 185.153 161.045 184.964 160.867 184.729L161.346 184.27C161.524 184.483 161.712 184.64 161.912 184.742C162.112 184.84 162.338 184.889 162.591 184.889C162.884 184.889 163.108 184.822 163.263 184.689C163.423 184.556 163.503 184.365 163.503 184.117C163.503 183.917 163.445 183.764 163.33 183.657C163.214 183.546 163.017 183.467 162.737 183.418L162.232 183.338C162.01 183.302 161.823 183.245 161.673 183.165C161.522 183.081 161.4 182.983 161.306 182.872C161.213 182.757 161.145 182.63 161.1 182.493C161.06 182.351 161.04 182.202 161.04 182.047C161.04 181.607 161.182 181.275 161.466 181.048C161.75 180.818 162.141 180.702 162.638 180.702C163.006 180.702 163.319 180.762 163.576 180.882C163.838 180.997 164.049 181.162 164.208 181.374L163.742 181.84C163.614 181.685 163.461 181.561 163.283 181.468C163.11 181.37 162.895 181.321 162.638 181.321C162.362 181.321 162.152 181.381 162.005 181.501C161.863 181.616 161.792 181.787 161.792 182.013C161.792 182.204 161.848 182.355 161.959 182.466C162.074 182.572 162.276 182.65 162.564 182.699L163.057 182.785C163.474 182.861 163.778 183.014 163.969 183.245C164.159 183.471 164.255 183.748 164.255 184.077C164.255 184.29 164.217 184.485 164.142 184.662C164.071 184.84 163.962 184.991 163.816 185.115C163.674 185.239 163.496 185.337 163.283 185.408C163.075 185.474 162.835 185.508 162.564 185.508Z" fill="white"/>
</g>
<g opacity="0.1">
<rect x="150.285" y="152.873" width="44.7107" height="28.0988" rx="1.15747" fill="#C40000"/>
<rect x="152.338" y="150.814" width="40.6042" height="33.6326" rx="1.15747" fill="white"/>
<rect x="150.285" y="158.178" width="44.7107" height="32.0128" rx="1.15747" fill="#FF0000"/>
<rect x="150.285" y="155.045" width="23.2671" height="32.0128" rx="1.15747" fill="#FF0000"/>
<path d="M153.032 197.987L153.05 196.691H153.001L152.136 198.907L151.272 196.691H151.223L151.241 197.987V200.049H150.63V195.74H151.476L152.136 197.45H152.18L152.846 195.74H153.643V200.049H153.032V197.987ZM156.838 200.049L156.511 198.901H155.14L154.813 200.049H154.109L155.369 195.74H156.313L157.573 200.049H156.838ZM155.85 196.438H155.801L155.27 198.327H156.381L155.85 196.438ZM159.885 196.32V200.049H159.194V196.32H157.842V195.74H161.237V196.32H159.885ZM161.92 200.049V195.74H164.618V196.32H162.611V197.573H164.544V198.154H162.611V199.469H164.618V200.049H161.92ZM166.294 200.049H165.609V195.74H167.22C167.632 195.74 167.945 195.855 168.159 196.086C168.377 196.316 168.486 196.633 168.486 197.036C168.486 197.366 168.406 197.637 168.245 197.851C168.085 198.065 167.854 198.197 167.554 198.246L168.547 200.049H167.782L166.868 198.308H166.294V200.049ZM167.121 197.752C167.549 197.752 167.764 197.557 167.764 197.166V196.901C167.764 196.51 167.549 196.314 167.121 196.314H166.294V197.752H167.121ZM169.286 200.049V199.524H170.298V196.265H169.286V195.74H172.002V196.265H170.99V199.524H172.002V200.049H169.286ZM175.346 200.049L175.018 198.901H173.648L173.321 200.049H172.617L173.876 195.74H174.821L176.08 200.049H175.346ZM174.358 196.438H174.308L173.778 198.327H174.889L174.358 196.438ZM176.862 200.049V195.74H177.553V199.469H179.516V200.049H176.862ZM181.711 200.123C181.337 200.123 181.022 200.057 180.767 199.925C180.512 199.794 180.302 199.619 180.137 199.401L180.582 198.975C180.746 199.172 180.921 199.318 181.106 199.413C181.292 199.504 181.502 199.549 181.736 199.549C182.008 199.549 182.216 199.487 182.36 199.364C182.508 199.24 182.582 199.063 182.582 198.833C182.582 198.648 182.528 198.506 182.421 198.407C182.314 198.304 182.131 198.23 181.872 198.185L181.403 198.11C181.197 198.078 181.024 198.024 180.884 197.95C180.744 197.872 180.631 197.781 180.545 197.678C180.458 197.571 180.394 197.454 180.353 197.326C180.316 197.195 180.298 197.057 180.298 196.913C180.298 196.505 180.429 196.197 180.693 195.987C180.956 195.773 181.318 195.666 181.779 195.666C182.121 195.666 182.411 195.721 182.65 195.833C182.893 195.94 183.088 196.092 183.236 196.289L182.804 196.721C182.685 196.577 182.543 196.462 182.378 196.376C182.218 196.285 182.018 196.24 181.779 196.24C181.524 196.24 181.329 196.296 181.193 196.407C181.061 196.514 180.995 196.672 180.995 196.882C180.995 197.059 181.047 197.199 181.15 197.302C181.257 197.401 181.444 197.473 181.711 197.518L182.168 197.598C182.555 197.668 182.837 197.81 183.014 198.024C183.191 198.234 183.279 198.491 183.279 198.796C183.279 198.993 183.244 199.174 183.174 199.339C183.109 199.504 183.008 199.643 182.872 199.759C182.74 199.874 182.576 199.964 182.378 200.03C182.185 200.092 181.962 200.123 181.711 200.123Z" fill="white"/>
</g>
<g opacity="0.1">
<rect x="172.193" y="172.633" width="39.4697" height="24.8051" rx="1.02179" fill="#C40000"/>
<rect x="174.006" y="170.814" width="35.8445" height="29.6902" rx="1.02179" fill="white"/>
<rect x="172.193" y="177.314" width="39.4697" height="28.2603" rx="1.02179" fill="#FF0000"/>
<rect x="172.193" y="174.549" width="20.5397" height="28.2603" rx="1.02179" fill="#FF0000"/>
<path d="M174.618 213.16L174.635 212.016H174.591L173.828 213.972L173.065 212.016H173.021L173.038 213.16V214.98H172.498V211.177H173.245L173.828 212.686H173.866L174.455 211.177H175.158V214.98H174.618V213.16ZM177.978 214.98L177.69 213.967H176.48L176.191 214.98H175.57L176.681 211.177H177.515L178.627 214.98H177.978ZM177.106 211.792H177.063L176.594 213.46H177.575L177.106 211.792ZM180.668 211.689V214.98H180.058V211.689H178.865V211.177H181.862V211.689H180.668ZM182.465 214.98V211.177H184.846V211.689H183.075V212.795H184.781V213.307H183.075V214.468H184.846V214.98H182.465ZM186.326 214.98H185.721V211.177H187.144C187.507 211.177 187.783 211.278 187.972 211.482C188.165 211.685 188.261 211.965 188.261 212.321C188.261 212.612 188.19 212.852 188.048 213.04C187.907 213.229 187.703 213.346 187.438 213.389L188.315 214.98H187.64L186.833 213.444H186.326V214.98ZM187.056 212.953C187.434 212.953 187.623 212.781 187.623 212.436V212.201C187.623 211.856 187.434 211.683 187.056 211.683H186.326V212.953H187.056ZM188.967 214.98V214.517H189.861V211.64H188.967V211.177H191.365V211.64H190.471V214.517H191.365V214.98H188.967ZM194.316 214.98L194.028 213.967H192.818L192.529 214.98H191.908L193.019 211.177H193.853L194.965 214.98H194.316ZM193.445 211.792H193.401L192.932 213.46H193.913L193.445 211.792ZM195.655 214.98V211.177H196.265V214.468H197.998V214.98H195.655ZM199.936 215.046C199.606 215.046 199.328 214.988 199.102 214.871C198.877 214.755 198.692 214.601 198.546 214.408L198.939 214.032C199.084 214.207 199.239 214.336 199.402 214.419C199.566 214.499 199.751 214.539 199.958 214.539C200.198 214.539 200.381 214.485 200.508 214.376C200.639 214.267 200.705 214.11 200.705 213.907C200.705 213.743 200.657 213.618 200.563 213.531C200.468 213.44 200.307 213.375 200.078 213.335L199.664 213.269C199.482 213.24 199.329 213.193 199.206 213.128C199.082 213.059 198.982 212.979 198.906 212.888C198.83 212.793 198.774 212.69 198.737 212.577C198.705 212.461 198.688 212.339 198.688 212.212C198.688 211.852 198.804 211.58 199.037 211.395C199.269 211.206 199.589 211.111 199.996 211.111C200.298 211.111 200.554 211.16 200.764 211.258C200.979 211.353 201.151 211.487 201.282 211.662L200.901 212.043C200.795 211.916 200.67 211.814 200.525 211.738C200.383 211.658 200.207 211.618 199.996 211.618C199.771 211.618 199.598 211.667 199.478 211.765C199.362 211.86 199.304 212 199.304 212.185C199.304 212.341 199.349 212.465 199.44 212.555C199.535 212.643 199.7 212.706 199.936 212.746L200.339 212.817C200.681 212.879 200.93 213.004 201.086 213.193C201.242 213.378 201.32 213.605 201.32 213.874C201.32 214.049 201.289 214.208 201.228 214.354C201.17 214.499 201.081 214.623 200.961 214.724C200.844 214.826 200.699 214.906 200.525 214.964C200.354 215.019 200.158 215.046 199.936 215.046Z" fill="white"/>
</g>
<rect x="79" y="67.8496" width="61.8559" height="38.8739" rx="1.60133" fill="#C40000"/>
<rect x="81.8406" y="65" width="56.1747" height="46.5297" rx="1.60133" fill="white"/>
<rect x="79" y="75.1875" width="61.8559" height="44.2888" rx="1.60133" fill="#FF0000"/>
<rect x="79" y="70.8516" width="32.1893" height="44.2888" rx="1.60133" fill="#FF0000"/>
<path d="M82.8005 130.962L82.8261 129.168H82.7578L81.5621 132.234L80.3665 129.168H80.2981L80.3238 130.962V133.814H79.4783V127.853H80.6483L81.5621 130.219H81.6219L82.5443 127.853H83.646V133.814H82.8005V130.962ZM88.0666 133.814L87.6139 132.226H85.718L85.2653 133.814H84.2917L86.034 127.853H87.3406L89.0829 133.814H88.0666ZM86.7001 128.818H86.6318L85.8973 131.432H87.4346L86.7001 128.818ZM92.2822 128.656V133.814H91.3257V128.656H89.4553V127.853H94.1526V128.656H92.2822ZM95.0972 133.814V127.853H98.8294V128.656H96.0537V130.39H98.7269V131.193H96.0537V133.012H98.8294V133.814H95.0972ZM101.149 133.814H100.201V127.853H102.43C102.999 127.853 103.432 128.013 103.728 128.332C104.03 128.65 104.181 129.089 104.181 129.647C104.181 130.102 104.07 130.478 103.848 130.774C103.626 131.07 103.307 131.252 102.891 131.321L104.266 133.814H103.207L101.943 131.406H101.149V133.814ZM102.293 130.637C102.886 130.637 103.182 130.367 103.182 129.826V129.459C103.182 128.918 102.886 128.648 102.293 128.648H101.149V130.637H102.293ZM105.288 133.814V133.089H106.688V128.579H105.288V127.853H109.046V128.579H107.645V133.089H109.046V133.814H105.288ZM113.671 133.814L113.218 132.226H111.323L110.87 133.814H109.896L111.639 127.853H112.945L114.687 133.814H113.671ZM112.305 128.818H112.236L111.502 131.432H113.039L112.305 128.818ZM115.769 133.814V127.853H116.725V133.012H119.441V133.814H115.769ZM122.478 133.917C121.96 133.917 121.524 133.826 121.171 133.644C120.818 133.461 120.528 133.219 120.3 132.918L120.915 132.328C121.143 132.602 121.385 132.804 121.641 132.935C121.897 133.06 122.188 133.123 122.512 133.123C122.888 133.123 123.176 133.037 123.375 132.866C123.58 132.696 123.682 132.451 123.682 132.132C123.682 131.876 123.608 131.679 123.46 131.543C123.312 131.4 123.059 131.298 122.7 131.235L122.051 131.133C121.766 131.087 121.527 131.013 121.334 130.911C121.14 130.803 120.984 130.677 120.864 130.535C120.744 130.387 120.656 130.225 120.599 130.048C120.548 129.866 120.522 129.675 120.522 129.476C120.522 128.912 120.705 128.485 121.069 128.195C121.433 127.899 121.934 127.751 122.572 127.751C123.045 127.751 123.446 127.828 123.776 127.981C124.112 128.129 124.383 128.34 124.588 128.613L123.99 129.211C123.825 129.012 123.628 128.852 123.401 128.733C123.178 128.608 122.902 128.545 122.572 128.545C122.219 128.545 121.949 128.622 121.761 128.776C121.579 128.924 121.487 129.143 121.487 129.433C121.487 129.678 121.559 129.872 121.701 130.014C121.849 130.151 122.108 130.25 122.478 130.313L123.11 130.424C123.645 130.521 124.035 130.717 124.28 131.013C124.525 131.304 124.647 131.659 124.647 132.081C124.647 132.354 124.599 132.605 124.502 132.832C124.411 133.06 124.272 133.254 124.084 133.413C123.902 133.572 123.674 133.698 123.401 133.789C123.133 133.874 122.825 133.917 122.478 133.917Z" fill="white"/>
<path d="M223.961 242.889C223.829 243.959 222.92 244.764 221.842 244.764H195.13C194.052 244.764 193.143 243.959 193.011 242.889L188.288 204.409C188.132 203.136 189.125 202.014 190.408 202.014H226.565C227.847 202.014 228.84 203.136 228.684 204.409L223.961 242.889Z" fill="white"/>
<rect x="185.809" y="190.141" width="47.1139" height="4.07369" rx="1.60133" transform="rotate(7.18608 185.809 190.141)" fill="white"/>
<path d="M203.97 191.583C204.081 190.705 204.882 190.084 205.759 190.194L213.213 191.134C214.091 191.245 214.712 192.046 214.602 192.923L214.419 194.37L203.788 193.03L203.97 191.583Z" fill="white"/>
<path fill-rule="evenodd" clip-rule="evenodd" d="M134.539 106.702C135.469 106.358 137.304 106.569 137.788 107.619C138.201 108.514 138.555 110.023 138.575 109.702C138.621 108.987 138.528 107.441 138.84 106.633C139.067 106.044 139.512 105.49 140.169 105.294C140.721 105.127 141.37 105.069 141.944 105.187C142.55 105.311 143.188 105.743 143.426 106.154C144.128 107.361 144.139 109.833 144.172 109.702C144.296 109.175 144.308 107.32 144.72 106.633C144.994 106.177 145.683 105.77 146.051 105.705C146.621 105.604 147.322 105.573 147.919 105.689C148.402 105.784 149.055 106.356 149.231 106.633C149.655 107.299 149.894 109.182 149.965 109.845C149.996 110.118 150.109 109.084 150.533 108.419C151.32 107.181 154.106 106.941 154.21 109.657C154.261 110.924 154.249 110.866 154.249 111.719C154.249 112.718 154.226 113.323 154.172 114.047C154.113 114.821 153.947 116.574 153.705 117.423C153.538 118.006 152.986 119.317 152.439 120.104C152.439 120.104 150.359 122.526 150.132 123.615C149.905 124.706 149.981 124.713 149.934 125.485C149.89 126.258 150.169 127.273 150.169 127.273C150.169 127.273 148.617 127.474 147.778 127.339C147.02 127.219 146.082 125.711 145.84 125.25C145.507 124.615 144.796 124.737 144.519 125.206C144.085 125.948 143.145 127.279 142.485 127.362C141.188 127.525 138.503 127.42 136.401 127.401C136.401 127.401 136.759 125.442 135.961 124.77C135.37 124.266 134.353 123.251 133.744 122.716L132.132 120.931C131.584 120.234 130.191 119.131 129.724 117.085C129.311 115.272 129.352 114.383 129.796 113.656C130.245 112.918 131.094 112.515 131.45 112.445C131.853 112.364 132.791 112.37 133.146 112.565C133.578 112.804 133.752 112.873 134.091 113.323C134.537 113.918 134.696 114.206 134.504 113.557C134.357 113.05 133.88 112.404 133.663 111.678C133.452 110.978 132.886 109.851 132.927 108.721C132.942 108.293 133.126 107.227 134.539 106.702V106.702Z" fill="white" stroke="#191B23" stroke-width="1.45312" stroke-linejoin="round"/>
<path d="M148.088 121.618V114.916" stroke="#191B23" stroke-width="1.45312" stroke-linecap="round"/>
<path d="M144.183 121.639L144.152 114.91" stroke="#191B23" stroke-width="1.45312" stroke-linecap="round"/>
<path d="M140.316 114.973L140.356 121.611" stroke="#191B23" stroke-width="1.45312" stroke-linecap="round"/>
</svg>
